<svg xmlns="http://www.w3.org/2000/svg" id="Capa_1" height="512" viewBox="0 0 512 512" width="512"><path d="m343.661 175.839v-8.016c0-4.142-3.358-7.5-7.5-7.5s-7.5 3.358-7.5 7.5v8.016c0 4.142 3.358 7.5 7.5 7.5s7.5-3.358 7.5-7.5z"></path><path d="m384.258 183.339c4.142 0 7.5-3.358 7.5-7.5v-8.016c0-4.142-3.358-7.5-7.5-7.5s-7.5 3.358-7.5 7.5v8.016c0 4.142 3.358 7.5 7.5 7.5z"></path><path d="m383.082 204.828c-1.698-3.778-6.137-5.463-9.916-3.765-3.778 1.699-8.259 2.597-12.957 2.597s-9.178-.898-12.957-2.597c-3.779-1.697-8.217-.012-9.916 3.765-1.699 3.778-.013 8.217 3.765 9.916 5.698 2.562 12.306 3.916 19.107 3.916 6.802 0 13.41-1.354 19.108-3.916 3.779-1.699 5.465-6.138 3.766-9.916z"></path><path d="m112.617 228.876c-1.699 3.778-.013 8.218 3.765 9.916 5.698 2.562 12.305 3.916 19.108 3.916s13.41-1.354 19.108-3.916c3.778-1.699 5.463-6.138 3.765-9.916-1.699-3.777-6.139-5.463-9.916-3.764-3.778 1.699-8.258 2.597-12.957 2.597s-9.178-.898-12.957-2.597c-3.778-1.699-8.218-.014-9.916 3.764z"></path><path d="m111.441 207.387c4.142 0 7.5-3.358 7.5-7.5v-8.016c0-4.142-3.358-7.5-7.5-7.5s-7.5 3.358-7.5 7.5v8.016c0 4.142 3.358 7.5 7.5 7.5z"></path><path d="m159.538 207.387c4.142 0 7.5-3.358 7.5-7.5v-8.016c0-4.142-3.358-7.5-7.5-7.5s-7.5 3.358-7.5 7.5v8.016c0 4.142 3.358 7.5 7.5 7.5z"></path><path d="m504.5 440.887h-8.532v-116.973c0-15.083-8.38-28.643-21.871-35.388l-44.14-22.071c-.127-.299-.236-.606-.371-.901-3.379-7.348-8.998-11.972-13.775-14.542v-13.68c14.739-13.129 24.045-32.233 24.045-53.478v-1.749c9.308-3.139 16.032-11.946 16.032-22.3v-32.064c0-35.076-28.537-63.613-63.613-63.613h-64.129c-26.236 0-47.581 21.344-47.581 47.581 0 10.354 6.724 19.16 16.032 22.3v49.846c0 29.39 17.798 54.69 43.177 65.72-5.2 2.046-12.722 6.952-16.875 15.979-1.444 3.14-2.393 6.531-2.856 10.16l-25.623 12.812c-13.491 6.745-21.871 20.305-21.871 35.388v11.036c-4.92 4.452-8.016 10.884-8.016 18.027v78.596c0 3.299.663 6.444 1.858 9.315h-20.781c1.195-2.871 1.858-6.016 1.858-9.315v-78.596c0-13.407-10.908-24.315-24.315-24.315h-23.782v-.516c0-23.685-17.396-43.377-40.082-46.984v-9.108c20.508-10.213 35.465-29.961 39.006-53.412 10.862-11.484 16.839-26.611 16.839-42.802 0-25.933-8.407-49.83-23.672-67.288-16.008-18.307-38.733-28.39-63.989-28.39-3.37 0-6.7.177-9.981.519-10.28-15.248-27.595-24.568-46.131-24.568-30.656 0-55.597 24.941-55.597 55.597 0 16.056 6.782 31.043 18.717 41.606-1.75 7.226-2.685 14.767-2.685 22.523 0 20.688 9.725 39.35 26.7 51.324 3.778 13.512 11.42 25.419 21.665 34.454v19.343c-35.983 3.762-64.128 34.271-64.128 71.235v88.694h-8.533c-4.142 0-7.5 3.358-7.5 7.5s3.358 7.5 7.5 7.5h497c4.142 0 7.5-3.358 7.5-7.5s-3.358-7.502-7.5-7.502zm-473.736-329.177c0-22.385 18.211-40.597 40.597-40.597 11.298 0 21.965 4.757 29.554 12.802-27.347 7.913-49.687 27.727-61.028 53.441-5.868-7.171-9.123-16.151-9.123-25.646zm25.171 92.343c-5.952-7.998-9.139-17.636-9.139-28.214 0-44.486 36.192-80.677 80.677-80.677 21.167 0 39.389 8.044 52.697 23.263 12.874 14.723 19.964 35.113 19.964 57.414 0 3.498-.355 6.89-1.032 10.16v-.46c0-12.198-9.101-22.262-21.17-23.409-18.834-1.79-54.037-7.35-78.185-24.473-3.099-2.197-7.348-1.731-9.897 1.083l-12.792 14.125c-12.817 14.151-20.237 32.197-21.123 51.188zm14.909 3.836c0-16.649 6.155-32.615 17.332-44.956l8.476-9.358c26.452 16.258 60.901 21.685 79.861 23.487 4.327.411 7.589 4.055 7.589 8.476v22.365c0 31.225-25.404 56.629-56.629 56.629s-56.629-25.403-56.629-56.643zm88.42 73.267c-.001 0-.002 0-.003 0 .001-.031.002-.023.003 0zm-14.974-3.637v2.529c0 13.545-11.02 24.564-24.565 24.564s-24.564-11.02-24.564-24.564v-8.25c9.716 4.934 20.69 7.734 32.313 7.734 5.791 0 11.418-.709 16.816-2.013zm88.178 154.053c0 5.136-4.179 9.315-9.315 9.315h-142.725c-5.136 0-9.315-4.179-9.315-9.315v-39.298c0-4.142-3.358-7.5-7.5-7.5s-7.5 3.358-7.5 7.5v39.298c0 3.299.663 6.444 1.858 9.315h-26.939v-88.694c0-29.795 23.134-54.271 52.381-56.453 6.087 14.031 20.069 23.872 36.312 23.872 16.202 0 30.154-9.794 36.265-23.769 15.987 2.068 28.381 15.76 28.381 32.301v.516h-103.943c-13.407 0-24.315 10.907-24.315 24.315v7.234c0 4.142 3.358 7.5 7.5 7.5s7.5-3.358 7.5-7.5v-7.234c0-5.136 4.179-9.315 9.315-9.315h142.725c5.136 0 9.315 4.178 9.315 9.315zm183.587-159.533c3.071 6.932 2.002 16.978-3.065 29.328l-24.652-14.791 21.623-21.622c2.047 1.313 4.517 3.524 6.094 7.085zm-39.813 5.419-23.732-23.732c5.062 1.138 10.317 1.758 15.717 1.758 11.731 0 22.801-2.853 32.583-7.873v5.28zm7.702 51.203h-15.404l3.057-29.064 4.644-2.787 4.645 2.787zm-72.347-144.806v-48.613h56.628c4.142 0 7.5-3.358 7.5-7.5s-3.358-7.5-7.5-7.5h-64.128c-4.705 0-8.532-3.828-8.532-8.532 0-17.965 14.616-32.581 32.581-32.581h64.129c26.805 0 48.613 21.808 48.613 48.613v32.064c0 4.705-3.828 8.532-8.532 8.532-4.703 0-8.53-3.826-8.53-8.53v-16.26c.086-6.056-2.24-11.806-6.555-16.195-4.442-4.519-10.631-7.111-16.98-7.111-4.142 0-7.5 3.358-7.5 7.5s3.358 7.5 7.5 7.5c2.353 0 4.642.957 6.282 2.626 1.488 1.514 2.289 3.465 2.253 5.492 0 .043-.001.087-.001.13v16.319c0 10.352 6.723 19.158 16.03 22.297v1.749c0 31.225-25.404 56.629-56.629 56.629-31.226 0-56.629-25.404-56.629-56.629zm24.832 88.184c1.581-3.567 4.055-5.779 6.092-7.089l21.625 21.625-24.652 14.791c-5.067-12.349-6.137-22.395-3.065-29.327zm-48.881 51.875c0-9.365 5.203-17.783 13.579-21.971l19.798-9.899c1.479 7.172 4.308 14.984 8.528 23.423.934 1.869 2.605 3.263 4.611 3.847.688.2 1.394.299 2.096.299 1.347 0 2.682-.363 3.859-1.069l15.478-9.287-2.041 19.405h-64.61c-.436 0-.869.013-1.299.035v-4.783zm153.339 107.658c0 5.136-4.179 9.315-9.315 9.315h-142.725c-5.136 0-9.315-4.179-9.315-9.315v-78.596c0-5.136 4.179-9.315 9.315-9.315h142.725c5.136 0 9.315 4.178 9.315 9.315zm40.081 9.315h-26.939c1.195-2.871 1.858-6.016 1.858-9.315v-78.596c0-13.407-10.908-24.315-24.315-24.315h-32.545l-2.041-19.404 15.478 9.287c1.177.706 2.513 1.069 3.859 1.069.703 0 1.409-.099 2.097-.299 2.005-.584 3.677-1.978 4.611-3.847 5.733-11.466 8.94-21.793 9.611-30.898l34.747 17.374c8.376 4.188 13.579 12.607 13.579 21.971z"></path><path d="m151.791 368.742c-12.976 0-23.532 10.557-23.532 23.532s10.557 23.532 23.532 23.532 23.532-10.557 23.532-23.532-10.557-23.532-23.532-23.532zm0 32.064c-4.705 0-8.532-3.828-8.532-8.532s3.828-8.532 8.532-8.532 8.532 3.828 8.532 8.532-3.828 8.532-8.532 8.532z"></path><path d="m360.209 368.742c-12.976 0-23.532 10.557-23.532 23.532s10.557 23.532 23.532 23.532 23.532-10.557 23.532-23.532-10.556-23.532-23.532-23.532zm0 32.064c-4.705 0-8.532-3.828-8.532-8.532s3.828-8.532 8.532-8.532 8.532 3.828 8.532 8.532-3.827 8.532-8.532 8.532z"></path></svg>