<svg xmlns="http://www.w3.org/2000/svg" height="512pt" viewBox="-8 0 512 512.001" width="512pt"><path d="m233.035156 460.980469v-10.304688c0-.246093-.011718-.496093-.035156-.746093-4.003906-40.019532-21.5-66.460938-50.578125-76.453126l-27.570313-9.566406-49.550781-42.066406c-7.542969-6.40625-18.945312-5.949219-25.960937 1.027344-6.300782 6.277344-7.371094 15.84375-3.03125 23.269531l-3.988282-1.835937-22.425781-27.03125-10.15625-25.828126c-3.699219-9.410156-13.921875-14.796874-23.773437-12.523437-5.761719 1.324219-10.675782 5.066406-13.488282 10.269531-2.8125 5.199219-3.25 11.363282-1.203124 16.910156l11.578124 31.394532c.191407.523437.445313 1.023437.75 1.488281l30.972657 47.671875c.175781.269531.367187.523438.574219.769531 10.738281 12.636719 24.289062 22.949219 39.1875 29.828125 12.296874 5.675782 30.003906 14.691406 41.742187 27.378906 3.015625 3.257813 5.882813 7.144532 7.886719 17.558594-4.402344 2.597656-7.363282 7.390625-7.363282 12.859375v22.03125c0 8.226563 6.691407 14.917969 14.917969 14.917969h86.550781c8.226563 0 14.917969-6.691406 14.917969-14.917969v-22.03125c0-6.484375-4.160156-12.019531-9.953125-14.070312zm-142.414062-57.347657c-12.792969-5.90625-24.449219-14.738281-33.738282-25.5625l-30.25-46.554687-11.289062-30.605469c-.757812-2.058594-.121094-3.757812.328125-4.585937s1.519531-2.292969 3.660156-2.785157c2.667969-.617187 5.445313.84375 6.449219 3.394532l10.59375 26.945312c.292969.738282.699219 1.429688 1.207031 2.042969l24.28125 29.269531c.714844.863282 1.617188 1.554688 2.636719 2.023438l37.191406 17.121094 19.609375 22.308593c1.480469 1.683594 3.554688 2.546875 5.636719 2.546875 1.757812 0 3.523438-.617187 4.949219-1.867187 3.109375-2.734375 3.414062-7.472657.679687-10.585938l-20.660156-23.5c-.046875-.054687-.097656-.109375-.148438-.160156l-21.980468-23.792969c-1.507813-1.660156-1.441406-4.199218.148437-5.78125 1.527344-1.523437 4.019531-1.625 5.667969-.226562l50.621094 42.976562c.707031.597656 1.519531 1.0625 2.394531 1.363282l28.917969 10.035156c23.398437 8.042968 37.027344 29.375 40.511718 63.402344v9.078124h-69.203124c-2.464844-13.292968-6.523438-20.042968-11.746094-25.691406-13.550782-14.640625-33.011719-24.59375-46.46875-30.808594zm137.367187 93.367188h-86.386719v-21.867188h86.386719zm0 0"></path><path d="m494.542969 289.191406c-2.808594-5.203125-7.726563-8.945312-13.488281-10.269531-9.851563-2.273437-20.074219 3.113281-23.773438 12.523437l-10.15625 25.824219-22.425781 27.035157-3.96875 1.828124c4.324219-7.398437 3.257812-16.980468-3.050781-23.261718-7.011719-6.980469-18.417969-7.433594-25.957032-1.03125l-49.554687 42.066406-27.546875 9.5625c-29.101563 10-46.597656 36.4375-50.597656 76.460938-.027344.246093-.039063.496093-.039063.746093v10.304688c-5.792969 2.050781-9.953125 7.582031-9.953125 14.070312v22.027344c0 8.226563 6.695312 14.917969 14.917969 14.917969h86.550781c8.226562 0 14.917969-6.691406 14.917969-14.917969v-22.027344c0-5.472656-2.960938-10.265625-7.359375-12.863281 2-10.414062 4.871094-14.300781 7.882812-17.558594 11.738282-12.6875 29.445313-21.699218 41.742188-27.378906 14.898437-6.878906 28.453125-17.191406 39.1875-29.828125.210937-.242187.402344-.5.574218-.769531l30.972657-47.667969c.304687-.46875.558593-.96875.75-1.492187l11.578125-31.390626c2.046875-5.546874 1.609375-11.710937-1.203125-16.910156zm-139.125 207.808594h-86.386719v-21.867188h86.386719zm126.257812-196.089844-11.289062 30.605469-30.25 46.554687c-9.289063 10.824219-20.945313 19.65625-33.738281 25.5625-13.457032 6.214844-32.914063 16.164063-46.464844 30.8125-5.222656 5.644532-9.28125 12.394532-11.746094 25.6875h-69.203125v-9.074218c3.484375-34.03125 17.113281-55.363282 40.535156-63.410156l28.890625-10.027344c.878906-.304688 1.691406-.769532 2.398438-1.367188l50.621094-42.976562c1.648437-1.394532 4.136718-1.296875 5.667968.226562 1.589844 1.582032 1.65625 4.125.199219 5.730469l-22.03125 23.839844c-.046875.054687-.097656.109375-.148437.164062l-20.660157 23.5c-2.734375 3.113281-2.429687 7.851563.683594 10.585938 1.421875 1.253906 3.1875 1.867187 4.949219 1.867187 2.078125 0 4.152344-.859375 5.632812-2.546875l19.609375-22.304687 37.191407-17.121094c1.019531-.472656 1.921874-1.160156 2.636718-2.027344l24.28125-29.269531c.507813-.609375.914063-1.300781 1.207032-2.042969l10.59375-26.941406c1.003906-2.554688 3.777343-4.015625 6.449218-3.398438 2.140625.492188 3.210938 1.957032 3.660156 2.785157.449219.828125 1.082032 2.527343.324219 4.585937zm0 0"></path><path d="m373.320312 134.125 16.421876 13.109375-5.578126 20.257813c-1.183593 4.296874.382813 8.761718 3.984376 11.382812 1.871093 1.355469 4.042968 2.039062 6.222656 2.039062 2.019531 0 4.042968-.585937 5.832031-1.765624l17.542969-11.5625 17.546875 11.5625c3.71875 2.449218 8.449219 2.34375 12.054687-.273438 3.601563-2.617188 5.167969-7.085938 3.984375-11.382812l-5.578125-20.257813 16.421875-13.113281c3.480469-2.777344 4.839844-7.308594 3.464844-11.546875-1.378906-4.234375-5.144531-7.101563-9.589844-7.308594l-20.992187-.953125-7.398438-19.671875c-1.566406-4.167969-5.457031-6.863281-9.914062-6.863281-4.453125 0-8.34375 2.695312-9.914063 6.863281l-7.394531 19.671875-20.992188.953125c-4.449218.203125-8.214843 3.074219-9.589843 7.308594-1.375 4.238281-.015625 8.769531 3.464843 11.550781zm32.742188-5.054688c2.996094-.136718 5.621094-2.042968 6.675781-4.851562l5.011719-13.320312 5.007812 13.320312c1.054688 2.808594 3.683594 4.714844 6.679688 4.851562l14.214844.648438-11.121094 8.878906c-2.34375 1.871094-3.347656 4.960938-2.550781 7.851563l3.777343 13.722656-11.882812-7.832031c-1.25-.824219-2.6875-1.238282-4.125-1.238282s-2.878906.414063-4.128906 1.238282l-11.882813 7.832031 3.777344-13.722656c.796875-2.890625-.207031-5.980469-2.550781-7.851563l-11.121094-8.878906zm0 0"></path><path d="m34.84375 134.125 16.421875 13.109375-5.578125 20.261719c-1.183594 4.292968.382812 8.761718 3.984375 11.378906 3.605469 2.617188 8.335937 2.722656 12.054687.273438l17.546876-11.5625 17.542968 11.5625c1.789063 1.179687 3.8125 1.765624 5.832032 1.765624 2.179687 0 4.351562-.683593 6.222656-2.039062 3.605468-2.621094 5.167968-7.085938 3.984375-11.382812l-5.578125-20.257813 16.421875-13.109375c3.480469-2.78125 4.839843-7.3125 3.464843-11.550781-1.375-4.234375-5.140624-7.101563-9.589843-7.308594l-20.992188-.953125-7.394531-19.671875c-1.570312-4.167969-5.460938-6.863281-9.914062-6.863281-4.457032 0-8.347657 2.695312-9.914063 6.863281l-7.394531 19.671875-20.992188.953125c-4.453125.203125-8.214844 3.074219-9.589844 7.308594-1.378906 4.238281-.019531 8.769531 3.460938 11.550781zm32.738281-5.054688c2.996094-.136718 5.625-2.042968 6.679688-4.851562l5.011719-13.320312 5.007812 13.320312c1.054688 2.808594 3.683594 4.714844 6.679688 4.851562l14.214843.648438-11.121093 8.878906c-2.34375 1.871094-3.347657 4.960938-2.550782 7.851563l3.777344 13.722656-11.882812-7.832031c-2.503907-1.652344-5.75-1.652344-8.253907 0l-11.882812 7.832031 3.777343-13.722656c.796876-2.890625-.207031-5.980469-2.550781-7.851563l-11.121093-8.878906zm0 0"></path><path d="m204.082031 46.34375 16.421875 13.113281-5.578125 20.257813c-1.183593 4.296875.382813 8.761718 3.984375 11.378906 3.601563 2.617188 8.335938 2.726562 12.054688.273438l17.546875-11.5625 17.542969 11.566406c1.789062 1.179687 3.8125 1.765625 5.832031 1.765625 2.179687 0 4.351562-.683594 6.222656-2.042969 3.605469-2.617188 5.167969-7.082031 3.984375-11.378906l-5.578125-20.257813 16.421875-13.113281c3.480469-2.777344 4.839844-7.3125 3.464844-11.546875-1.375-4.238281-5.140625-7.105469-9.589844-7.308594l-20.992188-.957031-7.398437-19.667969c-1.566406-4.167969-5.457031-6.863281-9.910156-6.863281-4.457031 0-8.347657 2.695312-9.914063 6.863281l-7.398437 19.667969-20.992188.957031c-4.449219.203125-8.214843 3.070313-9.589843 7.308594-1.375 4.234375-.015626 8.769531 3.464843 11.546875zm32.742188-5.050781c2.996093-.136719 5.621093-2.046875 6.675781-4.855469l5.011719-13.320312 5.007812 13.320312c1.054688 2.808594 3.683594 4.71875 6.679688 4.855469l14.214843.644531-11.121093 8.882812c-2.34375 1.871094-3.347657 4.957032-2.550781 7.851563l3.777343 13.722656-11.878906-7.835937c-1.253906-.824219-2.691406-1.238282-4.128906-1.238282s-2.875.414063-4.128907 1.238282l-11.882812 7.835937 3.777344-13.722656c.796875-2.894531-.207032-5.980469-2.550782-7.851563l-11.121093-8.882812zm0 0"></path><path d="m375.097656 238.234375c0-69.800781-56.789062-126.589844-126.585937-126.589844-69.800781 0-126.589844 56.789063-126.589844 126.589844 0 69.796875 56.789063 126.585937 126.589844 126.585937 69.796875 0 126.585937-56.789062 126.585937-126.585937zm-126.585937 111.585937c-61.53125 0-111.589844-50.058593-111.589844-111.585937 0-61.53125 50.058594-111.589844 111.589844-111.589844 61.527343 0 111.585937 50.058594 111.585937 111.589844 0 61.527344-50.058594 111.585937-111.585937 111.585937zm0 0"></path><path d="m156.542969 230.636719c4.082031.667969 7.945312-2.101563 8.617187-6.191407 3.203125-19.523437 13.292969-37.417968 28.410156-50.375 15.277344-13.09375 34.789063-20.304687 54.941407-20.304687 20.148437 0 39.664062 7.210937 54.9375 20.304687 15.117187 12.957032 25.207031 30.851563 28.410156 50.375.605469 3.679688 3.785156 6.289063 7.390625 6.289063.40625 0 .816406-.03125 1.226562-.101563 4.085938-.667968 6.855469-4.527343 6.183594-8.613281-3.773437-23.011719-15.652344-44.082031-33.445312-59.335937-17.996094-15.425782-40.976563-23.917969-64.703125-23.917969-23.730469 0-46.710938 8.492187-64.703125 23.917969-17.796875 15.253906-29.675782 36.324218-33.449219 59.335937-.671875 4.085938 2.097656 7.945313 6.183594 8.617188zm0 0"></path><path d="m340.476562 245.832031c-4.085937-.671875-7.945312 2.097657-8.617187 6.1875-3.203125 19.527344-13.292969 37.417969-28.410156 50.375-15.277344 13.09375-34.789063 20.308594-54.9375 20.308594-20.152344 0-39.664063-7.214844-54.941407-20.308594-15.117187-12.957031-25.207031-30.847656-28.410156-50.375-.671875-4.085937-4.53125-6.859375-8.617187-6.1875-4.085938.671875-6.855469 4.527344-6.183594 8.613281 3.773437 23.011719 15.652344 44.082032 33.449219 59.335938 17.992187 15.425781 40.972656 23.917969 64.703125 23.917969 23.726562 0 46.707031-8.492188 64.703125-23.917969 17.792968-15.253906 29.671875-36.324219 33.445312-59.335938.671875-4.085937-2.097656-7.941406-6.183594-8.613281zm0 0"></path><path d="m249.828125 284.203125c1.886719 0 3.769531-1.382813 3.769531-2.890625v-4.269531c13.566406-1.886719 22.863282-10.429688 22.863282-25.878907 0-17.085937-11.933594-22.613281-22.863282-26.632812v-25.503906c8.792969.628906 12.058594 4.648437 15.074219 4.648437 3.769531 0 5.527344-4.773437 5.527344-7.160156 0-6.15625-12.058594-8.792969-20.601563-9.046875v-3.390625c0-1.507813-1.886718-2.890625-3.769531-2.890625-2.136719 0-3.644531 1.382812-3.644531 2.890625v3.644531c-11.933594 1.253906-23.867188 7.535156-23.867188 23.363282 0 16.082031 12.5625 20.605468 23.867188 24.625v29.519531c-12.8125-1.003907-16.207032-9.796875-20.351563-9.796875-3.140625 0-5.777343 4.144531-5.777343 7.160156 0 6.15625 10.550781 14.570312 26.128906 14.824219v3.894531c.003906 1.507812 1.511718 2.890625 3.644531 2.890625zm3.015625-45.726563c6.15625 2.636719 11.054688 6.15625 11.054688 14.070313 0 7.15625-4.269532 11.179687-11.054688 12.433594zm-17.964844-28.644531c0-6.53125 5.023438-9.671875 12.0625-10.554687v22.867187c-6.660156-2.511719-12.0625-5.152343-12.0625-12.3125zm0 0"></path></svg>