<svg xmlns="http://www.w3.org/2000/svg" id="_x33_0" height="512" viewBox="0 0 64 64" width="512"><g><path d="m53 47.184v-2.184h-2v2h-2v3c0 1.654 1.346 3 3 3 .552 0 1 .449 1 1v1h-1c-.552 0-1-.449-1-1v-1h-2v1c0 1.302.839 2.402 2 2.816v2.184h2v-2h2v-3c0-1.654-1.346-3-3-3-.552 0-1-.449-1-1v-1h1c.552 0 1 .449 1 1v1h2v-1c0-1.302-.839-2.402-2-2.816z"></path><path d="m52 41c-5.728 0-10.442 4.402-10.949 10h-3.051c-.552 0-1-.449-1-1v-4.939c4.957-1.904 8.556-6.54 8.949-12.061h9.235c.414 1.161 1.514 2 2.816 2 1.654 0 3-1.346 3-3s-1.346-3-3-3c-1.302 0-2.402.839-2.816 2h-9.235c-.393-5.521-3.992-10.157-8.949-12.061v-2.939c0-.551.448-1 1-1h8v6h14v-10h3.414l-10.414-10.414-10.414 10.414h3.414v2h-8c-1.654 0-3 1.346-3 3v2.332c-.651-.143-1.319-.233-2-.281v-9.235c1.161-.414 2-1.514 2-2.816 0-1.654-1.346-3-3-3s-3 1.346-3 3c0 1.302.839 2.402 2 2.816v9.235c-.681.048-1.349.138-2 .281v-4.332c0-1.654-1.346-3-3-3h-3.051c-.507-5.598-5.221-10-10.949-10-6.065 0-11 4.935-11 11s4.935 11 11 11c5.728 0 10.442-4.402 10.949-10h3.051c.552 0 1 .449 1 1v4.939c-4.957 1.904-8.556 6.54-8.949 12.061h-9.235c-.414-1.161-1.514-2-2.816-2-1.654 0-3 1.346-3 3s1.346 3 3 3c1.302 0 2.402-.839 2.816-2h9.235c.393 5.521 3.993 10.157 8.949 12.061v6.939c0 .551-.448 1-1 1h-5v-2h2.388l-2.667-8h-17.442l-2.667 8h2.388v12h18v-8h5c1.654 0 3-1.346 3-3v-6.332c.651.143 1.319.233 2 .281v9.235c-1.161.414-2 1.514-2 2.816 0 1.654 1.346 3 3 3s3-1.346 3-3c0-1.302-.839-2.402-2-2.816v-9.235c.681-.048 1.349-.138 2-.281v4.332c0 1.654 1.346 3 3 3h3.051c.507 5.598 5.221 10 10.949 10 6.065 0 11-4.935 11-11s-4.935-11-11-11zm1-37.586 5.586 5.586h-.586v10h-10v-10h-.586zm-41 17.586c-4.963 0-9-4.038-9-9s4.037-9 9-9 9 4.038 9 9-4.037 9-9 9zm-7.279 24h14.559l1.333 4h-17.225zm.279 6h6v10h-6zm8 10v-10h6v10zm14-33.395c0-1.988 1.617-3.605 3.605-3.605h2.789c1.989 0 3.606 1.617 3.606 3.605 0 .474-.1.936-.279 1.369-.279-.605-.756-1.11-1.379-1.422l-3.342-1.67-3.342 1.671c-.623.312-1.1.817-1.379 1.422-.178-.433-.279-.895-.279-1.37zm6 9.483c.79.115 1.539.363 2.228.724l-2.228 3.64zm-4-5.088v-1.764c0-.381.212-.724.553-.894l2.447-1.224 2.447 1.224c.341.17.553.513.553.894v1.764c0 1.654-1.346 3-3 3s-3-1.346-3-3zm2 9.452-2.228-3.64c.689-.361 1.438-.609 2.228-.724zm-3.85-2.459 2.966 4.845c-1.749-.278-3.376-.921-4.789-1.87.352-1.154.985-2.166 1.823-2.975zm9.699-.001c.838.809 1.471 1.821 1.823 2.975-1.412.949-3.04 1.592-4.789 1.87zm21.151-7.992c.552 0 1 .449 1 1s-.448 1-1 1-1-.449-1-1 .448-1 1-1zm-26-26c.552 0 1 .449 1 1s-.448 1-1 1-1-.449-1-1 .448-1 1-1zm-26 28c-.552 0-1-.449-1-1s.448-1 1-1 1 .449 1 1-.448 1-1 1zm14-1c0-6.617 5.383-12 12-12s12 5.383 12 12c0 3.378-1.408 6.429-3.663 8.612-.923-2.263-2.738-4.036-4.967-4.944.911-.838 1.499-2.003 1.593-3.312l1.095-1.642c.616-.924.941-2 .941-3.109.001-3.09-2.514-5.605-5.604-5.605h-2.789c-3.091 0-5.606 2.515-5.606 5.605 0 1.11.325 2.185.941 3.109l1.095 1.642c.094 1.308.682 2.474 1.593 3.312-2.229.907-4.044 2.681-4.967 4.944-2.254-2.183-3.662-5.234-3.662-8.612zm12 27c-.552 0-1-.449-1-1s.448-1 1-1 1 .449 1 1-.448 1-1 1zm20 2c-4.963 0-9-4.038-9-9s4.037-9 9-9 9 4.038 9 9-4.037 9-9 9z"></path><path d="m15 9v-2c0-1.103-.897-2-2-2h-2c-1.103 0-2 .897-2 2v2h-2c-1.103 0-2 .897-2 2v2c0 1.103.897 2 2 2h2v2c0 1.103.897 2 2 2h2c1.103 0 2-.897 2-2v-2h2c1.103 0 2-.897 2-2v-2c0-1.103-.897-2-2-2zm2 4h-4v4h-2v-4h-4v-2h4v-4h2v4l4 .003z"></path></g></svg>