<svg xmlns="http://www.w3.org/2000/svg" viewBox="0 0 101.31 80"><defs><style>.cls-1{fill:#fff;}.cls-2{fill:#257fc2;}</style></defs><g id="Layer_2" data-name="Layer 2"><g id="Layer_1-2" data-name="Layer 1"><path class="cls-1" d="M87.05,50.67V7.77A1.25,1.25,0,0,0,85.8,6.51H15.26A1.26,1.26,0,0,0,14,7.77v42.9a1.26,1.26,0,0,0,1.26,1.26H85.8A1.25,1.25,0,0,0,87.05,50.67Zm-2.51-1.25h-68V9h68Z"></path><path class="cls-2" d="M101.29,71.19a1.22,1.22,0,0,0-.13-.53L94.23,56.93s-.06,0-.06-.08V7.45A7.46,7.46,0,0,0,86.7,0H14.61A7.49,7.49,0,0,0,7.1,7.41V56.87s0,.06-.07.11L.13,70.69a1.73,1.73,0,0,0-.13.52v1.34A7.48,7.48,0,0,0,7.49,80H93.77a7.48,7.48,0,0,0,7.54-7.41v0ZM8.92,58.84H19.65a1.26,1.26,0,1,0,0-2.51h-10V7.47a5,5,0,0,1,4.94-4.94H86.66a5,5,0,0,1,5,5V56.33H28a1.26,1.26,0,1,0,0,2.51H92.35L98,70l-32.36-.11-1.23-3.75a2.15,2.15,0,0,0-2-1.48H38.83a2.35,2.35,0,0,0-2,1.48v0l-1.22,3.77H3.27ZM63,69.93H38.24l.9-2.72h23Zm35.75,2.6a4.94,4.94,0,0,1-5,4.94H7.51a5,5,0,0,1-5-4.9v-.13Z"></path><path class="cls-1" d="M17.29,62.67H14.15a1,1,0,0,1,0-1.93h3.14a1,1,0,0,1,1,1A1,1,0,0,1,17.29,62.67Z"></path><path class="cls-1" d="M26,62.67H22.88a1,1,0,0,1,0-1.93H26a1,1,0,0,1,1,1A1,1,0,0,1,26,62.67Z"></path><path class="cls-1" d="M34.75,62.67H31.61a1,1,0,1,1,0-1.93h3.14a1,1,0,0,1,1,1A1,1,0,0,1,34.75,62.67Z"></path><path class="cls-1" d="M43.47,62.67H40.33a1,1,0,0,1,0-1.93h3.14a1,1,0,0,1,1,1A1,1,0,0,1,43.47,62.67Z"></path><path class="cls-1" d="M52.2,62.67H49.06a1,1,0,0,1,0-1.93H52.2a1,1,0,0,1,1,1A1,1,0,0,1,52.2,62.67Z"></path><path class="cls-1" d="M60.93,62.67H57.79a1,1,0,0,1,0-1.93h3.14a1,1,0,0,1,1,1A1,1,0,0,1,60.93,62.67Z"></path><path class="cls-1" d="M69.66,62.67H66.52a1,1,0,0,1,0-1.93h3.14a1,1,0,0,1,0,1.93Z"></path><path class="cls-1" d="M78.39,62.67H75.25a1,1,0,0,1,0-1.93h3.14a1,1,0,0,1,0,1.93Z"></path><path class="cls-1" d="M87.12,62.67H84a1,1,0,1,1,0-1.93h3.14a1,1,0,0,1,0,1.93Z"></path><path class="cls-1" d="M14.76,66.77H11.62a1,1,0,1,1,0-1.92h3.14a1,1,0,0,1,1,1A1,1,0,0,1,14.76,66.77Z"></path><path class="cls-1" d="M23.48,66.77H20.35a1,1,0,1,1,0-1.92h3.13a1,1,0,0,1,1,1A1,1,0,0,1,23.48,66.77Z"></path><path class="cls-1" d="M32.21,66.77H29.07a1,1,0,1,1,0-1.92h3.14a1,1,0,0,1,1,1A1,1,0,0,1,32.21,66.77Z"></path><path class="cls-1" d="M71.54,66.77H68.4a1,1,0,1,1,0-1.92h3.14a1,1,0,1,1,0,1.92Z"></path><path class="cls-1" d="M80.27,66.77H77.13a1,1,0,1,1,0-1.92h3.14a1,1,0,0,1,1,1A.94.94,0,0,1,80.27,66.77Z"></path><path class="cls-1" d="M89,66.77H85.86a1,1,0,1,1,0-1.92H89a1,1,0,1,1,0,1.92Z"></path></g></g></svg>