<svg xmlns="http://www.w3.org/2000/svg" viewBox="0 0 85 83.41"><defs><style>.cls-1,.cls-2{opacity:0.1;}.cls-2{fill:#010101;isolation:isolate;}.cls-3{fill:#257fc2;}.cls-4,.cls-5{fill:#fff;}.cls-5{fill-rule:evenodd;}</style></defs><g id="Layer_2" data-name="Layer 2"><g id="Layer_1-2" data-name="Layer 1"><g class="cls-1"><path class="cls-2" d="M69.6,25.22a3.47,3.47,0,0,1,3.48,3.47l0,15.06h2.54l0-16.27a4.92,4.92,0,0,0-4.9-4.91H13.9a5,5,0,0,0-4.64,3.11,4.92,4.92,0,0,1,2.1-.46Z"></path></g><path class="cls-2" d="M6.33,70.72H11.8l7.76-27H14.09Z"></path><path class="cls-3" d="M70,4.58H43.19a1.07,1.07,0,0,0-1.06,1.06v5.12a1.07,1.07,0,0,0,1.06,1.06H70a1.07,1.07,0,0,0,1.06-1.06V5.64A1.07,1.07,0,0,0,70,4.58ZM68.93,9.7H44.25v-3H68.93Z"></path><path class="cls-4" d="M46.36,38.09H66.82A1.06,1.06,0,0,0,67.88,37V29.27a1.06,1.06,0,0,0-1.06-1.05H46.36a1.06,1.06,0,0,0-1.06,1.05V37A1.06,1.06,0,0,0,46.36,38.09Zm1.06-7.76H65.76V36H47.42Z"></path><path class="cls-5" d="M26.79,50.08H20.07a1.06,1.06,0,1,0,0,2.12h6.72a1.06,1.06,0,1,0,0-2.12Zm0,6H20.07a1.06,1.06,0,1,0,0,2.12h6.72a1.06,1.06,0,1,0,0-2.12Zm-6.72,6h6.72a1.06,1.06,0,0,1,0,2.12H20.07a1.06,1.06,0,1,1,0-2.12ZM64.9,64.19H58.18a1.06,1.06,0,0,1,0-2.12H64.9a1.06,1.06,0,0,1,0,2.12Zm-19.47,0h6.72a1.06,1.06,0,0,0,0-2.12H45.43a1.06,1.06,0,0,0,0,2.12Zm-5.87,0H32.84a1.06,1.06,0,0,1,0-2.12h6.72a1.06,1.06,0,0,1,0,2.12Zm25.34-6H58.18a1.06,1.06,0,1,1,0-2.12H64.9a1.06,1.06,0,0,1,0,2.12Zm-19.47,0h6.72a1.06,1.06,0,0,0,0-2.12H45.43a1.06,1.06,0,1,0,0,2.12Zm-5.87,0H32.84a1.06,1.06,0,0,1,0-2.12h6.72a1.06,1.06,0,0,1,0,2.12Zm25.34-6H58.18a1.06,1.06,0,1,1,0-2.12H64.9a1.06,1.06,0,0,1,0,2.12Zm-19.47,0h6.72a1.06,1.06,0,0,0,0-2.12H45.43a1.06,1.06,0,1,0,0,2.12Zm-5.87,0H32.84a1.06,1.06,0,0,1,0-2.12h6.72a1.06,1.06,0,0,1,0,2.12Z"></path><path class="cls-3" d="M85,70.33,76.87,43.51V28a6.28,6.28,0,0,0-6.31-6.28H61.88V16.58h9.65A4.64,4.64,0,0,0,76.16,12V4.5A4.57,4.57,0,0,0,71.53,0H41.65A4.57,4.57,0,0,0,37,4.5V12a4.65,4.65,0,0,0,4.63,4.61H51.3v5.11H14.09a6.31,6.31,0,0,0-6.35,6.24V43.51L0,70.31v0a.73.73,0,0,0,0,.3v4.58a8.19,8.19,0,0,0,8.11,8.2H76.89A8.19,8.19,0,0,0,85,75.21V70.63C85,70.52,85,70.43,85,70.33Zm-9.9-25.54,7.46,24.87H79.43L72,44.79ZM41.6,14.46A2.48,2.48,0,0,1,39.13,12V4.59A2.48,2.48,0,0,1,41.6,2.12H71.4a2.48,2.48,0,0,1,2.47,2.47V12a2.48,2.48,0,0,1-2.47,2.47Zm11.82,2.12h6.34v5.11H53.42ZM9.86,28a4.16,4.16,0,0,1,4.19-4.16H70.52a4.16,4.16,0,0,1,4.23,4.12V42.68H30.84a1.06,1.06,0,0,0,0,2.11H69.76l7.46,24.87H7.74l7.13-24.87h8.92a1.06,1.06,0,1,0,0-2.11H9.86ZM9.58,44.79h3.08L5.54,69.66H2.45ZM68.05,81.3H16.91V77.24H68.05Zm14.82-6.09a6.08,6.08,0,0,1-6,6.09h-6.7v-5a1.1,1.1,0,0,0-1-1.13H15.82a1.1,1.1,0,0,0-1,1.13v5H8.09a6.08,6.08,0,0,1-6-6.09V71.77H82.87Z"></path><path class="cls-3" d="M39,36.91V33a1.17,1.17,0,0,0-1.13-1.11H13.53a1.08,1.08,0,0,0-1,1.11v3.88a1,1,0,0,0,1,1H37.83A1.08,1.08,0,0,0,39,36.91ZM36.84,35.8H14.62V34H36.84Z"></path></g></g></svg>