<svg xmlns="http://www.w3.org/2000/svg" width="18" height="18" viewBox="0 0 18 18" fill="none"><path d="M15.75 14.2998V14.9502L17.833 17.042L17.042 17.833L15.5127 16.3125C15.4014 16.5703 15.2578 16.8018 15.082 17.0068C14.9062 17.2119 14.707 17.3877 14.4844 17.5342C14.2617 17.6807 14.0186 17.7949 13.7549 17.877C13.4912 17.959 13.2188 18 12.9375 18C12.6562 18 12.3867 17.9619 12.1289 17.8857C11.8711 17.8096 11.6279 17.6953 11.3994 17.543C11.1709 17.3906 10.9688 17.2119 10.793 17.0068C10.6172 16.8018 10.4736 16.5703 10.3623 16.3125L8.83301 17.833L8.04199 17.042L10.125 14.9502V14.5283C10.125 14.2998 10.1309 14.0859 10.1426 13.8867C10.1543 13.6875 10.1836 13.4883 10.2305 13.2891C10.2773 13.0898 10.3535 12.8994 10.459 12.7178C10.5645 12.5361 10.7021 12.3486 10.8721 12.1553C10.749 11.874 10.6875 11.5723 10.6875 11.25C10.6875 10.9805 10.7344 10.7197 10.8281 10.4678C10.9219 10.2158 11.0566 9.9873 11.2324 9.78223L10.292 8.83301L11.083 8.04199L12.1729 9.13184C12.4189 9.04395 12.6738 9 12.9375 9C13.2012 9 13.4561 9.04395 13.7021 9.13184L14.792 8.04199L15.583 8.83301L14.6426 9.78223C14.8184 9.9873 14.9531 10.2158 15.0469 10.4678C15.1406 10.7197 15.1875 10.9805 15.1875 11.25C15.1875 11.5723 15.126 11.874 15.0029 12.1553C15.2197 12.3955 15.3896 12.6562 15.5127 12.9375L17.042 11.417L17.833 12.208L15.75 14.2998ZM14.0625 11.25C14.0625 11.0918 14.0332 10.9453 13.9746 10.8105C13.916 10.6758 13.8369 10.5586 13.7373 10.459C13.6377 10.3594 13.5176 10.2773 13.377 10.2129C13.2363 10.1484 13.0898 10.1191 12.9375 10.125C12.7793 10.125 12.6328 10.1543 12.498 10.2129C12.3633 10.2715 12.2461 10.3506 12.1465 10.4502C12.0469 10.5498 11.9648 10.6699 11.9004 10.8105C11.8359 10.9512 11.8066 11.0977 11.8125 11.25C11.8125 11.3262 11.8213 11.4023 11.8389 11.4785C12.0088 11.3965 12.1875 11.3379 12.375 11.3027C12.5625 11.2676 12.75 11.25 12.9375 11.25C13.125 11.25 13.3125 11.2676 13.5 11.3027C13.6875 11.3379 13.8662 11.3965 14.0361 11.4785C14.0537 11.4023 14.0625 11.3262 14.0625 11.25ZM14.7656 15.1875V14.0625C14.7656 13.8105 14.7188 13.5732 14.625 13.3506C14.5312 13.1279 14.3994 12.9346 14.2295 12.7705C14.0596 12.6064 13.8662 12.4775 13.6494 12.3838C13.4326 12.29 13.1953 12.2402 12.9375 12.2344C12.6855 12.2344 12.4482 12.2812 12.2256 12.375C12.0029 12.4688 11.8096 12.6006 11.6455 12.7705C11.4814 12.9404 11.3525 13.1338 11.2588 13.3506C11.165 13.5674 11.1152 13.8047 11.1094 14.0625V15.1875C11.1094 15.4395 11.1562 15.6768 11.25 15.8994C11.3438 16.1221 11.4756 16.3154 11.6455 16.4795C11.8154 16.6436 12.0088 16.7725 12.2256 16.8662C12.4424 16.96 12.6797 17.0098 12.9375 17.0156C13.1895 17.0156 13.4268 16.9688 13.6494 16.875C13.8721 16.7812 14.0654 16.6494 14.2295 16.4795C14.3936 16.3096 14.5225 16.1162 14.6162 15.8994C14.71 15.6826 14.7598 15.4453 14.7656 15.1875ZM9 14.625H5.625V13.5H7.875V12.375H0V2.25H16.875V6.75H15.75V3.375H1.125V11.25H9V14.625Z" fill="#237EC1"></path></svg>