<svg xmlns="http://www.w3.org/2000/svg" width="18" height="18" viewBox="0 0 18 18" fill="none"><path d="M9.20485 1.6875C9.01985 1.6875 8.85466 1.77467 8.74614 1.9112L8.70108 1.94624C7.00864 1.4192 5.09389 1.83878 3.75538 3.20497C2.56477 4.42019 2.10796 6.10074 2.38494 7.67303L2.37308 7.68503L1.61766 8.45604C0.960779 9.12653 0.960779 10.2136 1.61766 10.8841C2.00357 11.2779 2.53035 11.4404 3.03247 11.3715C3.10646 11.6522 3.25139 11.9175 3.46724 12.1379C3.76064 12.4373 4.13545 12.603 4.51896 12.6349C4.55021 13.0265 4.71257 13.4092 5.00603 13.7087C5.31297 14.022 5.70903 14.1889 6.11091 14.2094C6.13106 14.6195 6.29457 15.0236 6.60145 15.3368C7.20149 15.9493 8.14214 16.0023 8.80107 15.4958L9.10611 15.8072C9.76623 16.4809 10.8364 16.4809 11.4965 15.8072C11.7888 15.5088 11.9516 15.1284 11.985 14.7386C12.3661 14.7053 12.7383 14.5398 13.03 14.242C13.3226 13.9434 13.4848 13.5625 13.5169 13.1725C13.8931 13.1364 14.2596 12.9712 14.5478 12.6771C14.7736 12.4466 14.9219 12.1669 14.9924 11.8718C15.487 11.932 16.0028 11.7685 16.3823 11.3811C17.0392 10.7106 17.0392 9.62359 16.3823 8.95311L15.7245 8.28174L15.8597 7.74129C16.1535 6.56635 16.0058 5.32174 15.4457 4.25282C14.619 2.67472 13.0096 1.69156 11.2601 1.69156H9.99203C9.93797 1.68887 9.88367 1.6875 9.82906 1.6875H9.20485ZM11.5127 5.69672L14.2464 8.48693L14.2495 8.49026L14.26 8.50128L15.5425 9.81031C15.7356 10.0074 15.7356 10.3269 15.5425 10.5239C15.3495 10.721 15.0364 10.721 14.8433 10.5239L13.5608 9.2149C13.3289 8.97816 12.9529 8.97816 12.7211 9.2149L12.7082 9.22803C12.4762 9.46469 12.4762 9.84849 12.7082 10.0851L13.708 11.1056C13.9012 11.3029 13.9012 11.6227 13.708 11.82C13.5318 11.9997 13.255 12.0159 13.0616 11.8674C12.8243 11.6851 12.4916 11.7099 12.2826 11.9253C12.0737 12.1407 12.0527 12.4806 12.2337 12.721C12.3824 12.9185 12.3676 13.2037 12.1903 13.3848C12.0115 13.5673 11.729 13.5812 11.5352 13.4255C11.2995 13.236 10.9622 13.2559 10.7494 13.4718C10.5364 13.6877 10.5149 14.0318 10.699 14.2736C10.8519 14.4743 10.8375 14.7655 10.6567 14.95C10.4604 15.1503 10.1422 15.1503 9.94594 14.95L9.65258 14.6506L9.73561 14.5658C10.3925 13.8953 10.3925 12.8083 9.73561 12.1379C9.42868 11.8245 9.03264 11.6577 8.63076 11.6372C8.61063 11.2271 8.4471 10.8229 8.14024 10.5097C7.84681 10.2102 7.472 10.0445 7.08852 10.0126C7.05727 9.62108 6.8949 9.23841 6.60145 8.93884C6.21554 8.54498 5.68877 8.38251 5.18664 8.45142C5.11265 8.17066 4.96773 7.90539 4.75186 7.68503C4.41143 7.33756 3.96138 7.17017 3.51534 7.18286C3.39948 6.06992 3.75943 4.91515 4.59517 4.06212C5.37196 3.26928 6.40413 2.89597 7.42141 2.94219L6.23957 3.862C5.43149 4.49092 5.27582 5.67237 5.89207 6.49933C6.50693 7.32439 7.65778 7.48437 8.46399 6.85692L9.9547 5.69672H11.5127ZM6.95449 4.83132L9.43136 2.90361H9.82906C9.86812 2.90361 9.90687 2.90469 9.94531 2.90681C9.95581 2.90739 9.96638 2.90767 9.97696 2.90767H11.2601C12.5767 2.90767 13.7842 3.64756 14.4033 4.82913C14.7938 5.57442 14.9162 6.43316 14.7536 7.25745L12.2185 4.66596C12.107 4.5475 11.9534 4.48061 11.793 4.48061H9.75581C9.62669 4.48061 9.50121 4.52395 9.39829 4.60401L7.7491 5.88759C7.46213 6.11091 7.05094 6.05374 6.83211 5.7601C6.61469 5.46835 6.66939 5.05321 6.95449 4.83132ZM4.30704 11.2807C4.17453 11.1454 4.13296 10.9525 4.18235 10.7811C4.20492 10.7027 4.24648 10.6288 4.30704 10.5671L5.06247 9.79604C5.25554 9.59895 5.56857 9.59895 5.76165 9.79604C5.95252 9.99078 5.9547 10.3053 5.76819 10.5028L5.76145 10.5097L5.00603 11.2808L4.99952 11.2874C4.94036 11.3456 4.87049 11.3857 4.79655 11.408C4.62858 11.4584 4.43956 11.4159 4.30704 11.2807ZM3.9193 8.54977C3.97888 8.61309 4.01911 8.6884 4.03998 8.76794C4.0842 8.93641 4.04157 9.12369 3.91207 9.25584L3.15665 10.0269C2.96357 10.2239 2.65053 10.2239 2.45746 10.0269C2.26438 9.82977 2.26438 9.51033 2.45746 9.31324L3.21288 8.54223C3.40596 8.34513 3.71899 8.34513 3.91207 8.54223L3.9193 8.54977ZM8.1404 14.4797C8.07979 14.5416 8.00726 14.584 7.93031 14.6071C7.76251 14.6573 7.57365 14.6148 7.44122 14.4797C7.30884 14.3445 7.26723 14.1518 7.31643 13.9804C7.33897 13.902 7.38057 13.8279 7.44122 13.7661L8.19667 12.995C8.38972 12.7979 8.70281 12.7979 8.89586 12.995C9.08891 13.1921 9.08891 13.5116 8.89586 13.7087L8.1404 14.4797ZM6.54501 12.8516C6.4845 12.9133 6.41221 12.9557 6.33552 12.9788C6.1675 13.0293 5.97839 12.9868 5.84583 12.8516C5.71326 12.7163 5.67171 12.5232 5.72119 12.3517C5.74295 12.2763 5.78232 12.205 5.83929 12.1447L5.84602 12.1379L6.60145 11.3668L6.60795 11.3601C6.80151 11.1698 7.10958 11.172 7.30043 11.3669C7.49354 11.5639 7.49354 11.8835 7.30043 12.0805L6.54501 12.8516Z" fill="#237EC1"></path></svg>