<svg xmlns="http://www.w3.org/2000/svg" width="18" height="18" viewBox="0 0 18 18" fill="none"><path d="M7.22917 15.7146C7.5322 15.7146 7.84154 15.7051 8.1572 15.6863C8.31503 16.1018 8.51073 16.489 8.74432 16.8478C8.49179 16.873 8.23927 16.8919 7.98674 16.9045C7.73422 16.9171 7.48169 16.9234 7.22917 16.9234C6.38321 16.9234 5.55619 16.8541 4.74811 16.7156C4.51452 16.6779 4.24937 16.6243 3.95265 16.5551C3.65593 16.4858 3.3529 16.3945 3.04356 16.2812C2.73422 16.1679 2.43119 16.0388 2.13447 15.894C1.83775 15.7492 1.5726 15.5761 1.33902 15.3746C1.10543 15.1731 0.919192 14.9559 0.780303 14.723C0.641414 14.49 0.568813 14.2162 0.5625 13.9014V3.02204C0.5625 2.73872 0.622475 2.48688 0.742424 2.26653C0.862374 2.04617 1.02336 1.83841 1.22538 1.64323C1.44003 1.42917 1.69571 1.24029 1.99242 1.0766C2.28914 0.912907 2.61427 0.771249 2.9678 0.651626C3.32134 0.532004 3.68434 0.428122 4.05682 0.339979C4.42929 0.251836 4.80492 0.185729 5.18371 0.141658C5.5625 0.0975866 5.92235 0.0629591 6.26326 0.0377754C6.60417 0.0125918 6.92614 0 7.22917 0C7.68371 0 8.18561 0.0251836 8.73485 0.0755509C9.28409 0.125918 9.83649 0.210913 10.392 0.330535C10.9476 0.450157 11.4747 0.620147 11.9735 0.840504C12.4722 1.06086 12.892 1.32844 13.233 1.64323C13.4287 1.82581 13.5865 2.03358 13.7064 2.26653C13.8264 2.49948 13.8895 2.75131 13.8958 3.02204V8.42392H12.6837V4.81637C12.3049 5.04932 11.8914 5.24449 11.4432 5.40189C10.995 5.55929 10.5309 5.6852 10.0511 5.77964C9.57134 5.87408 9.09154 5.94019 8.61174 5.97796C8.13194 6.01574 7.67109 6.03778 7.22917 6.04407C6.79356 6.04407 6.33586 6.02518 5.85606 5.98741C5.37626 5.94963 4.89331 5.88038 4.4072 5.77964C3.92109 5.67891 3.45707 5.55299 3.01515 5.40189C2.57323 5.25079 2.15972 5.05561 1.77462 4.81637V13.9014C1.77462 14.0273 1.81881 14.1438 1.9072 14.2508C1.99558 14.3578 2.08712 14.446 2.18182 14.5152C2.47854 14.7482 2.83838 14.9402 3.26136 15.0913C3.68434 15.2424 4.13258 15.3652 4.60606 15.4596C5.07955 15.554 5.54356 15.6201 5.99811 15.6579C6.45265 15.6957 6.86301 15.7146 7.22917 15.7146ZM7.22917 1.20881C6.9072 1.20881 6.5726 1.21826 6.22538 1.23715C5.87816 1.25603 5.52462 1.29381 5.16477 1.35047C4.80492 1.40714 4.4577 1.47639 4.12311 1.55824C3.78851 1.64008 3.4697 1.74397 3.16667 1.86988C3.07197 1.90766 2.94571 1.96432 2.78788 2.03987C2.63005 2.11542 2.47538 2.20672 2.32386 2.31375C2.17235 2.42078 2.04293 2.53095 1.93561 2.64428C1.82828 2.75761 1.77462 2.88353 1.77462 3.02204C1.77462 3.0724 1.78409 3.11962 1.80303 3.16369C1.82197 3.20776 1.84722 3.25184 1.87879 3.29591C2.01768 3.49738 2.21654 3.67681 2.47538 3.83421C2.73422 3.99161 3.02462 4.12697 3.34659 4.24029C3.66856 4.35362 4.00947 4.44806 4.36932 4.52361C4.72917 4.59916 5.08586 4.65897 5.43939 4.70304C5.79293 4.74711 6.12121 4.78174 6.42424 4.80693C6.72727 4.83211 6.99558 4.84155 7.22917 4.83526C7.45013 4.83526 7.71528 4.82581 8.02462 4.80693C8.33396 4.78804 8.6654 4.75656 9.01894 4.71249C9.37247 4.66842 9.72601 4.60546 10.0795 4.52361C10.4331 4.44176 10.7771 4.34732 11.1117 4.24029C11.4463 4.13326 11.7336 4.00105 11.9735 3.84365C12.2134 3.68625 12.4154 3.50367 12.5795 3.29591C12.6111 3.25184 12.6364 3.20776 12.6553 3.16369C12.6742 3.11962 12.6837 3.0724 12.6837 3.02204C12.6837 2.88982 12.6301 2.7639 12.5227 2.64428C12.4154 2.52466 12.286 2.41448 12.1345 2.31375C11.983 2.21301 11.8283 2.12487 11.6705 2.04932C11.5126 1.97377 11.3864 1.91396 11.2917 1.86988C10.9949 1.75026 10.6761 1.64953 10.3352 1.56768C9.99432 1.48583 9.6471 1.41658 9.29356 1.35992C8.94003 1.30325 8.58965 1.26548 8.24242 1.24659C7.8952 1.2277 7.55745 1.21511 7.22917 1.20881ZM16.2633 13.2875C16.3011 13.4764 16.3201 13.6684 16.3201 13.8636C16.3201 14.0588 16.3011 14.2508 16.2633 14.4397L17.4375 14.9213L16.9735 16.0451L15.7992 15.554C15.5783 15.8751 15.3068 16.1459 14.9848 16.3662L15.4773 17.5373L14.3504 18L13.8674 16.829C13.678 16.8667 13.4855 16.8856 13.2898 16.8856C13.0941 16.8856 12.9015 16.8667 12.7121 16.829L12.2292 18L11.1023 17.5373L11.5947 16.3662C11.2727 16.1459 11.0013 15.8751 10.7803 15.554L9.60606 16.0451L9.14205 14.9213L10.3163 14.4397C10.2784 14.2508 10.2595 14.0588 10.2595 13.8636C10.2595 13.6684 10.2784 13.4764 10.3163 13.2875L9.14205 12.8059L9.60606 11.6821L10.7803 12.1731C11.0013 11.852 11.2727 11.5813 11.5947 11.361L11.1023 10.1899L12.2292 9.72718L12.7121 10.8982C12.9015 10.8604 13.0941 10.8416 13.2898 10.8416C13.4855 10.8416 13.678 10.8604 13.8674 10.8982L14.3504 9.72718L15.4773 10.1899L14.9848 11.361C15.3068 11.5813 15.5783 11.852 15.7992 12.1731L16.9735 11.6821L17.4375 12.8059L16.2633 13.2875ZM13.2898 15.6768C13.5423 15.6768 13.779 15.6296 14 15.5352C14.221 15.4407 14.4135 15.3116 14.5777 15.148C14.7418 14.9843 14.8712 14.7922 14.9659 14.5719C15.0606 14.3515 15.108 14.1154 15.108 13.8636C15.108 13.6118 15.0606 13.3757 14.9659 13.1553C14.8712 12.9349 14.7418 12.7429 14.5777 12.5792C14.4135 12.4155 14.221 12.2865 14 12.192C13.779 12.0976 13.5423 12.0504 13.2898 12.0504C13.0372 12.0504 12.8005 12.0976 12.5795 12.192C12.3586 12.2865 12.166 12.4155 12.0019 12.5792C11.8378 12.7429 11.7083 12.9349 11.6136 13.1553C11.5189 13.3757 11.4716 13.6118 11.4716 13.8636C11.4716 14.1154 11.5189 14.3515 11.6136 14.5719C11.7083 14.7922 11.8378 14.9843 12.0019 15.148C12.166 15.3116 12.3586 15.4407 12.5795 15.5352C12.8005 15.6296 13.0372 15.6768 13.2898 15.6768Z" fill="#237EC1"></path></svg>