<svg xmlns="http://www.w3.org/2000/svg" width="18" height="18" viewBox="0 0 18 18" fill="none"><path d="M14.0625 13.5C14.2969 13.5 14.5166 13.5439 14.7217 13.6318C14.9268 13.7197 15.1055 13.8398 15.2578 13.9922C15.4102 14.1445 15.5303 14.3232 15.6182 14.5283C15.7061 14.7334 15.75 14.9531 15.75 15.1875C15.75 15.4219 15.7061 15.6416 15.6182 15.8467C15.5303 16.0518 15.4102 16.2305 15.2578 16.3828C15.1055 16.5352 14.9268 16.6553 14.7217 16.7432C14.5166 16.8311 14.2969 16.875 14.0625 16.875C13.8281 16.875 13.6084 16.8311 13.4033 16.7432C13.1982 16.6553 13.0195 16.5352 12.8672 16.3828C12.7148 16.2305 12.5947 16.0518 12.5068 15.8467C12.4189 15.6416 12.375 15.4219 12.375 15.1875C12.375 15.0059 12.4072 14.8184 12.4717 14.625H7.77832C7.84277 14.8184 7.875 15.0059 7.875 15.1875C7.875 15.4219 7.83105 15.6416 7.74316 15.8467C7.65527 16.0518 7.53516 16.2305 7.38281 16.3828C7.23047 16.5352 7.05176 16.6553 6.84668 16.7432C6.6416 16.8311 6.42188 16.875 6.1875 16.875C5.95312 16.875 5.7334 16.8311 5.52832 16.7432C5.32324 16.6553 5.14453 16.5352 4.99219 16.3828C4.83984 16.2305 4.71973 16.0518 4.63184 15.8467C4.54395 15.6416 4.5 15.4219 4.5 15.1875C4.5 14.8652 4.58496 14.5664 4.75488 14.291C4.9248 14.0156 5.15918 13.8076 5.45801 13.667L1.66113 2.25H0V1.125H2.46973L3.2168 3.375H18L15.3809 11.25H5.84473L6.5918 13.5H14.0625ZM3.59473 4.5L5.4668 10.125H14.5635L16.4355 4.5H3.59473ZM6.75 15.1875C6.75 15.0352 6.69434 14.9033 6.58301 14.792C6.47168 14.6807 6.33984 14.625 6.1875 14.625C6.03516 14.625 5.90332 14.6807 5.79199 14.792C5.68066 14.9033 5.625 15.0352 5.625 15.1875C5.625 15.3398 5.68066 15.4717 5.79199 15.583C5.90332 15.6943 6.03516 15.75 6.1875 15.75C6.33984 15.75 6.47168 15.6943 6.58301 15.583C6.69434 15.4717 6.75 15.3398 6.75 15.1875ZM14.0625 15.75C14.2148 15.75 14.3467 15.6943 14.458 15.583C14.5693 15.4717 14.625 15.3398 14.625 15.1875C14.625 15.0352 14.5693 14.9033 14.458 14.792C14.3467 14.6807 14.2148 14.625 14.0625 14.625C13.9102 14.625 13.7783 14.6807 13.667 14.792C13.5557 14.9033 13.5 15.0352 13.5 15.1875C13.5 15.3398 13.5557 15.4717 13.667 15.583C13.7783 15.6943 13.9102 15.75 14.0625 15.75Z" fill="#237EC1"></path></svg>