<svg xmlns="http://www.w3.org/2000/svg" width="18" height="18" viewBox="0 0 18 18" fill="none"><path d="M18 10.6875V16.1191C18 16.3594 17.9443 16.5732 17.833 16.7607C17.7217 16.9482 17.5693 17.1094 17.376 17.2441C17.1826 17.3789 16.9658 17.4961 16.7256 17.5957C16.4854 17.6953 16.2422 17.7744 15.9961 17.833C15.75 17.8916 15.5039 17.9326 15.2578 17.9561C15.0117 17.9795 14.8008 17.9941 14.625 18C14.4375 18 14.2236 17.9883 13.9834 17.9648C13.7432 17.9414 13.5 17.9004 13.2539 17.8418C13.0078 17.7832 12.7617 17.707 12.5156 17.6133C12.2695 17.5195 12.0557 17.4023 11.874 17.2617C11.6924 17.1211 11.543 16.957 11.4258 16.7695C11.3086 16.582 11.25 16.3652 11.25 16.1191V10.6875C11.25 10.459 11.3086 10.2568 11.4258 10.0811C11.543 9.90527 11.7012 9.75586 11.9004 9.63281C12.0996 9.50977 12.3193 9.40723 12.5596 9.3252C12.7998 9.24316 13.0459 9.17871 13.2979 9.13184C13.5498 9.08496 13.793 9.0498 14.0273 9.02637C14.2617 9.00293 14.4639 8.99414 14.6338 9C14.8037 9 15.0059 9.00879 15.2402 9.02637C15.4746 9.04395 15.7148 9.07617 15.9609 9.12305C16.207 9.16992 16.4531 9.23438 16.6992 9.31641C16.9453 9.39844 17.165 9.50098 17.3584 9.62402C17.5518 9.74707 17.707 9.89648 17.8242 10.0723C17.9414 10.248 18 10.4531 18 10.6875ZM16.875 16.1191V11.9883C16.5234 12.1289 16.1572 12.2285 15.7764 12.2871C15.3955 12.3457 15.0146 12.375 14.6338 12.375C14.2646 12.375 13.8838 12.3457 13.4912 12.2871C13.0986 12.2285 12.7266 12.1289 12.375 11.9883V16.1191C12.375 16.166 12.3926 16.2041 12.4277 16.2334C12.4629 16.2627 12.498 16.2949 12.5332 16.3301C12.6445 16.4297 12.7881 16.5146 12.9639 16.585C13.1396 16.6553 13.3271 16.7109 13.5264 16.752C13.7256 16.793 13.9219 16.8252 14.1152 16.8486C14.3086 16.8721 14.4785 16.8809 14.625 16.875C14.7773 16.875 14.9502 16.8662 15.1436 16.8486C15.3369 16.8311 15.5303 16.8018 15.7236 16.7607C15.917 16.7197 16.1016 16.6641 16.2773 16.5938C16.4531 16.5234 16.5996 16.4355 16.7168 16.3301C16.7461 16.3008 16.7783 16.2715 16.8135 16.2422C16.8486 16.2129 16.8691 16.1719 16.875 16.1191ZM16.875 10.6611C16.8047 10.5674 16.6699 10.4854 16.4707 10.415C16.2715 10.3447 16.0576 10.2891 15.8291 10.248C15.6006 10.207 15.3721 10.1777 15.1436 10.1602C14.915 10.1426 14.7451 10.1309 14.6338 10.125C14.5225 10.125 14.3525 10.1338 14.124 10.1514C13.8955 10.1689 13.6582 10.2041 13.4121 10.2568C13.166 10.3096 12.9434 10.374 12.7441 10.4502C12.5449 10.5264 12.4189 10.6172 12.3662 10.7227C12.4424 10.8223 12.5801 10.9043 12.7793 10.9688C12.9785 11.0332 13.1953 11.0859 13.4297 11.127C13.6641 11.168 13.8926 11.2002 14.1152 11.2236C14.3379 11.2471 14.5107 11.2559 14.6338 11.25C14.7451 11.25 14.915 11.2412 15.1436 11.2236C15.3721 11.2061 15.6064 11.1709 15.8467 11.1182C16.0869 11.0654 16.3037 11.0068 16.4971 10.9424C16.6904 10.8779 16.8164 10.7842 16.875 10.6611ZM14.625 5.625H10.125V1.125H2.25V16.875H10.125V18H1.125V0H10.9248L15.75 4.8252V7.875H14.625V5.625ZM11.25 1.9248V4.5H13.8252L11.25 1.9248Z" fill="#237EC1"></path></svg>