<svg xmlns="http://www.w3.org/2000/svg" width="18" height="18" viewBox="0 0 18 18" fill="none"><g clip-path="url(#clip0)"><path fill-rule="evenodd" clip-rule="evenodd" d="M1.125 0H0V1.125V3.9375H1.125V1.125H3.9375V0H1.125Z" fill="#237EC1"></path><path fill-rule="evenodd" clip-rule="evenodd" d="M18 1.125L18 0L16.875 -4.91753e-08L14.0625 -1.72114e-07L14.0625 1.125L16.875 1.125L16.875 3.9375L18 3.9375L18 1.125Z" fill="#237EC1"></path><path fill-rule="evenodd" clip-rule="evenodd" d="M14.0625 18L16.875 18L18 18L18 16.875L18 14.0625L16.875 14.0625L16.875 16.875L14.0625 16.875L14.0625 18Z" fill="#237EC1"></path><path fill-rule="evenodd" clip-rule="evenodd" d="M-4.91752e-08 16.875L0 18L1.125 18L3.9375 18L3.9375 16.875L1.125 16.875L1.125 14.0625L-1.72113e-07 14.0625L-4.91752e-08 16.875Z" fill="#237EC1"></path><path fill-rule="evenodd" clip-rule="evenodd" d="M13.166 10.9863C12.6328 10.5586 12.041 10.2305 11.3906 10.002C11.7305 9.78516 12.0264 9.54199 12.2783 9.27246C12.5303 9.00293 12.75 8.70117 12.9375 8.36719C13.125 8.0332 13.2656 7.68457 13.3594 7.32129C13.4531 6.95801 13.5 6.58008 13.5 6.1875C13.5 5.56641 13.3828 4.98047 13.1484 4.42969C12.9141 3.87891 12.5918 3.40137 12.1816 2.99707C11.7715 2.59277 11.2939 2.27344 10.749 2.03906C10.2041 1.80469 9.62109 1.6875 9 1.6875C8.37891 1.6875 7.79297 1.80469 7.24219 2.03906C6.69141 2.27344 6.21387 2.5957 5.80957 3.00586C5.40527 3.41602 5.08594 3.89355 4.85156 4.43848C4.61719 4.9834 4.5 5.56641 4.5 6.1875C4.51172 6.58594 4.56152 6.9668 4.64941 7.33008C4.7373 7.69336 4.875 8.03906 5.0625 8.36719C5.25 8.69531 5.47266 8.99707 5.73047 9.27246C5.98828 9.54785 6.28125 9.79102 6.60938 10.002C5.95312 10.2305 5.3584 10.5615 4.8252 10.9951C4.29199 11.4287 3.83203 11.9238 3.44531 12.4805C3.05859 13.0371 2.7627 13.6436 2.55762 14.2998C2.35254 14.9561 2.25 15.627 2.25 16.3125H3.375C3.375 15.7969 3.44238 15.2988 3.57715 14.8184C3.71191 14.3379 3.90234 13.8896 4.14844 13.4736C4.39453 13.0576 4.6875 12.6768 5.02734 12.3311C5.36719 11.9854 5.74512 11.6924 6.16113 11.4521C6.57715 11.2119 7.02539 11.0244 7.50586 10.8896C7.98633 10.7549 8.48438 10.6875 9 10.6875C9.51562 10.6875 10.0137 10.7549 10.4941 10.8896C10.9746 11.0244 11.4229 11.2148 11.8389 11.4609C12.2549 11.707 12.6357 12 12.9814 12.3398C13.3271 12.6797 13.6201 13.0576 13.8604 13.4736C14.1006 13.8896 14.2881 14.3379 14.4229 14.8184C14.5576 15.2988 14.625 15.7969 14.625 16.3125H15.75C15.7441 15.627 15.6387 14.9561 15.4336 14.2998C15.2285 13.6436 14.9326 13.0342 14.5459 12.4717C14.1592 11.9092 13.6992 11.4141 13.166 10.9863ZM5.88867 7.49707C5.71289 7.09277 5.625 6.65625 5.625 6.1875C5.625 5.73047 5.71289 5.29395 5.88867 4.87793C6.06445 4.46191 6.30762 4.10156 6.61816 3.79688C6.92871 3.49219 7.28613 3.25195 7.69043 3.07617C8.09473 2.90039 8.53125 2.8125 9 2.8125C9.45703 2.80664 9.89355 2.89453 10.3096 3.07617C10.7256 3.25781 11.0859 3.50098 11.3906 3.80566C11.6953 4.11035 11.9355 4.46777 12.1113 4.87793C12.2871 5.28809 12.375 5.72461 12.375 6.1875C12.3809 6.65625 12.293 7.0957 12.1113 7.50586C11.9297 7.91602 11.6865 8.27344 11.3818 8.57812C11.0771 8.88281 10.7197 9.12305 10.3096 9.29883C9.89941 9.47461 9.46289 9.5625 9 9.5625C8.53125 9.5625 8.0918 9.47461 7.68164 9.29883C7.27148 9.12305 6.91406 8.87988 6.60938 8.56934C6.30469 8.25879 6.06445 7.90137 5.88867 7.49707Z" fill="#237EC1"></path></g><defs><clipPath id="clip0"><rect width="18" height="18" fill="white"></rect></clipPath></defs></svg>