<svg xmlns="http://www.w3.org/2000/svg" width="18" height="18" viewBox="0 0 18 18" fill="none"><path d="M3.0498 8.99993H2.70703L9 15.2929L14.168 10.1249H15.7588L9 16.8837L1.39746 9.28997C1.19238 9.08489 1.01074 8.86516 0.852539 8.63079C0.694336 8.39641 0.556641 8.14446 0.439453 7.87493H2.5752L5.0625 5.39641L9 9.32513L11.8125 6.52141L13.1748 7.87493H16.2949C16.4824 7.5761 16.626 7.2597 16.7256 6.92571C16.8252 6.59173 16.875 6.24895 16.875 5.89739C16.875 5.38763 16.7812 4.91302 16.5938 4.47356C16.4062 4.03411 16.1455 3.65325 15.8115 3.33099C15.4775 3.00872 15.0908 2.75384 14.6514 2.56634C14.2119 2.37884 13.7344 2.28509 13.2188 2.28509C12.7266 2.28509 12.29 2.36126 11.9092 2.5136C11.5283 2.66595 11.1768 2.87102 10.8545 3.12884C10.5322 3.38665 10.2246 3.67083 9.93164 3.98138C9.63867 4.29192 9.32812 4.61712 9 4.95696C8.68359 4.64056 8.37598 4.32122 8.07715 3.99895C7.77832 3.67669 7.46777 3.38665 7.14551 3.12884C6.82324 2.87102 6.46875 2.66009 6.08203 2.49602C5.69531 2.33196 5.26172 2.24993 4.78125 2.24993C4.27734 2.24993 3.80566 2.34368 3.36621 2.53118C2.92676 2.71868 2.54004 2.97942 2.20605 3.31341C1.87207 3.64739 1.61133 4.03411 1.42383 4.47356C1.23633 4.91302 1.13965 5.38763 1.13379 5.89739C1.13379 6.17278 1.16602 6.45696 1.23047 6.74993H0.0791016C0.0498047 6.60931 0.0322266 6.46868 0.0263672 6.32806C0.0205078 6.18743 0.0146484 6.04681 0.00878906 5.90618C0.00878906 5.24407 0.131836 4.62298 0.37793 4.0429C0.624023 3.46282 0.963867 2.95598 1.39746 2.52239C1.83105 2.0888 2.33789 1.74895 2.91797 1.50286C3.49805 1.25677 4.11914 1.13079 4.78125 1.12493C5.26758 1.12493 5.70117 1.18059 6.08203 1.29192C6.46289 1.40325 6.81445 1.55559 7.13672 1.74895C7.45898 1.94231 7.76953 2.17962 8.06836 2.46087C8.36719 2.74212 8.67773 3.04388 9 3.36614C9.32227 3.03802 9.62988 2.73626 9.92285 2.46087C10.2158 2.18548 10.5264 1.9511 10.8545 1.75774C11.1826 1.56438 11.5371 1.40911 11.918 1.29192C12.2988 1.17473 12.7324 1.11907 13.2188 1.12493C13.875 1.12493 14.4932 1.24798 15.0732 1.49407C15.6533 1.74016 16.1572 2.08001 16.585 2.5136C17.0127 2.9472 17.3525 3.4511 17.6045 4.02532C17.8564 4.59954 17.9824 5.2177 17.9824 5.87981C17.9824 6.44817 17.8828 6.99895 17.6836 7.53216C17.4844 8.06536 17.2002 8.55462 16.8311 8.99993H12.7002L11.8125 8.10345L9 10.9247L5.0625 6.97845L3.0498 8.99993Z" fill="#237EC1"></path></svg>