<svg xmlns="http://www.w3.org/2000/svg" width="18" height="18" viewBox="0 0 18 18" fill="none"><g clip-path="url(#clip0)"><path d="M18 4.49976V8.46362L16.875 7.33862V4.49976H10.6875C10.3594 4.49976 10.0957 4.52612 9.89648 4.57886C9.69727 4.63159 9.52734 4.7019 9.38672 4.78979C9.24609 4.87769 9.12598 4.96851 9.02637 5.06226C8.92676 5.15601 8.81836 5.24683 8.70117 5.33472C8.58398 5.42261 8.4375 5.48999 8.26172 5.53686C8.08594 5.58374 7.86328 5.61304 7.59375 5.62476H1.125V13.4998H6.75V14.6248H1.125C0.966797 14.6248 0.820312 14.5955 0.685547 14.5369C0.550781 14.4783 0.433594 14.3992 0.333984 14.2996C0.234375 14.2 0.152344 14.0798 0.0878906 13.9392C0.0234375 13.7986 -0.00585938 13.6521 1.16415e-10 13.4998V2.24976C1.16415e-10 2.09155 0.0292969 1.94507 0.0878906 1.8103C0.146484 1.67554 0.225586 1.55835 0.325195 1.45874C0.424805 1.35913 0.544922 1.2771 0.685547 1.21265C0.826172 1.14819 0.972656 1.1189 1.125 1.12476H7.59375C7.81055 1.12476 8.0127 1.16284 8.2002 1.23901C8.3877 1.31519 8.55762 1.42065 8.70996 1.55542C8.8623 1.69019 9.00586 1.8396 9.14062 2.00366C9.27539 2.16772 9.38965 2.34058 9.4834 2.52222C9.55957 2.65698 9.63281 2.7771 9.70312 2.88257C9.77344 2.98804 9.85547 3.07593 9.94922 3.14624C10.043 3.21655 10.1455 3.27222 10.2568 3.31323C10.3682 3.35425 10.5117 3.37476 10.6875 3.37476H16.875C17.0332 3.37476 17.1797 3.40405 17.3145 3.46265C17.4492 3.52124 17.5664 3.60034 17.666 3.69995C17.7656 3.79956 17.8477 3.91968 17.9121 4.0603C17.9766 4.20093 18.0059 4.34741 18 4.49976ZM7.59375 4.49976C7.75195 4.49976 7.88379 4.47339 7.98926 4.42065C8.09473 4.36792 8.19727 4.30347 8.29688 4.22729C8.39648 4.15112 8.49609 4.06909 8.5957 3.9812C8.69531 3.89331 8.80957 3.81128 8.93848 3.73511C8.85059 3.6355 8.75977 3.50366 8.66602 3.3396C8.57227 3.17554 8.4668 3.01147 8.34961 2.84741C8.23242 2.68335 8.11523 2.54272 7.99805 2.42554C7.88086 2.30835 7.74609 2.24976 7.59375 2.24976H1.125V4.49976H7.59375ZM7.875 6.74975H14.2998L18 10.45V17.9998H7.875V6.74975ZM16.875 16.8748V11.2498H13.5V7.87475H9V16.8748H16.875ZM14.625 8.67456V10.1248H16.0752L14.625 8.67456ZM10.125 15.7498V14.6248H14.625V15.7498H10.125ZM12.375 12.3748V13.4998H10.125V12.3748H12.375ZM12.375 10.1248V11.2498H10.125V10.1248H12.375Z" fill="#237EC1"></path></g><defs><clipPath id="clip0"><rect width="18" height="18" fill="white"></rect></clipPath></defs></svg>