<svg xmlns="http://www.w3.org/2000/svg" width="18" height="18" viewBox="0 0 18 18" fill="none"><g clip-path="url(#clip0)"><path d="M14.124 10.6611C14.3818 10.6611 14.6279 10.708 14.8623 10.8018C15.0967 10.8955 15.3076 11.0361 15.4951 11.2236L17.4287 13.1572C17.6103 13.3389 17.748 13.5469 17.8418 13.7812C17.9355 14.0156 17.9853 14.2646 17.9912 14.5283C17.9912 14.7861 17.9443 15.0322 17.8506 15.2666C17.7568 15.501 17.6162 15.7119 17.4287 15.8994L17.3056 16.0225C16.9892 16.3389 16.6992 16.6201 16.4355 16.8662C16.1719 17.1123 15.8965 17.3174 15.6094 17.4814C15.3222 17.6455 15.0029 17.7744 14.6513 17.8682C14.2998 17.9619 13.8808 18.0059 13.3945 18C12.6621 18 11.9092 17.8857 11.1357 17.6572C10.3623 17.4287 9.5947 17.1123 8.83298 16.708C8.07127 16.3037 7.32127 15.8232 6.58298 15.2666C5.8447 14.71 5.15037 14.1035 4.49998 13.4473C3.84959 12.791 3.24607 12.0938 2.68943 11.3555C2.13279 10.6172 1.65818 9.86719 1.2656 9.10547C0.873022 8.34375 0.562476 7.5791 0.33396 6.81152C0.105444 6.04395 -0.00588379 5.30566 -2.4414e-05 4.59668C-2.4414e-05 4.11035 0.0409912 3.69434 0.123022 3.34863C0.205054 3.00293 0.33103 2.68652 0.500952 2.39941C0.670874 2.1123 0.875952 1.83984 1.11619 1.58203C1.35642 1.32422 1.63767 1.03418 1.95994 0.711914L2.10056 0.571289C2.2822 0.389648 2.49021 0.249023 2.72459 0.149414C2.95896 0.0498047 3.20798 0 3.47166 0C3.72947 0 3.97556 0.0498047 4.20994 0.149414C4.44431 0.249023 4.65525 0.389648 4.84275 0.571289L6.77634 2.50488C6.95798 2.68652 7.09568 2.89453 7.18943 3.12891C7.28318 3.36328 7.33298 3.6123 7.33884 3.87598C7.33884 4.13379 7.2949 4.3623 7.20701 4.56152C7.11912 4.76074 7.01072 4.94531 6.88181 5.11523C6.75291 5.28516 6.61228 5.43457 6.45994 5.56348C6.30759 5.69238 6.16404 5.82422 6.02927 5.95898C5.89451 6.09375 5.78611 6.22266 5.70408 6.3457C5.62205 6.46875 5.5781 6.6123 5.57224 6.77637C5.57224 6.99902 5.65134 7.18945 5.80955 7.34766L10.6523 12.1904C10.8105 12.3486 11.001 12.4277 11.2236 12.4277C11.376 12.4277 11.5166 12.3838 11.6455 12.2959C11.7744 12.208 11.9062 12.0996 12.041 11.9707C12.1758 11.8418 12.3076 11.7012 12.4365 11.5488C12.5654 11.3965 12.7148 11.2529 12.8847 11.1182C13.0547 10.9834 13.2363 10.875 13.4297 10.793C13.623 10.7109 13.8545 10.667 14.124 10.6611ZM13.3945 16.875C13.8164 16.875 14.1679 16.8369 14.4492 16.7607C14.7304 16.6846 14.9883 16.5703 15.2226 16.418C15.457 16.2656 15.6797 16.0781 15.8906 15.8555C16.1015 15.6328 16.3506 15.3809 16.6377 15.0996C16.7959 14.9414 16.875 14.751 16.875 14.5283C16.875 14.4229 16.834 14.2998 16.7519 14.1592C16.6699 14.0186 16.5586 13.8662 16.4179 13.7021C16.2773 13.5381 16.1279 13.377 15.9697 13.2188C15.8115 13.0605 15.6474 12.9023 15.4775 12.7441C15.3076 12.5859 15.1582 12.4482 15.0293 12.3311C14.9004 12.2139 14.792 12.1113 14.7041 12.0234C14.5459 11.8652 14.3525 11.7861 14.124 11.7861C13.9717 11.7861 13.831 11.8301 13.7021 11.918C13.5732 12.0059 13.4443 12.1143 13.3154 12.2432C13.1865 12.3721 13.0547 12.5127 12.9199 12.665C12.7851 12.8174 12.6328 12.9609 12.4629 13.0957C12.2929 13.2305 12.1113 13.3389 11.9179 13.4209C11.7246 13.5029 11.4931 13.5469 11.2236 13.5527C10.9658 13.5527 10.7197 13.5059 10.4853 13.4121C10.251 13.3184 10.04 13.1777 9.85252 12.9902L5.00974 8.14746C4.8281 7.96582 4.69041 7.75781 4.59666 7.52344C4.50291 7.28906 4.4531 7.04004 4.44724 6.77637C4.44724 6.51855 4.49119 6.29004 4.57908 6.09082C4.66697 5.8916 4.77537 5.70703 4.90427 5.53711C5.03318 5.36719 5.1738 5.21777 5.32615 5.08887C5.47849 4.95996 5.62205 4.8252 5.75681 4.68457C5.89158 4.54395 5.99998 4.41504 6.08201 4.29785C6.16404 4.18066 6.20798 4.04004 6.21384 3.87598C6.21384 3.64746 6.13474 3.4541 5.97654 3.2959C5.90037 3.21973 5.80076 3.11426 5.67771 2.97949C5.55466 2.84473 5.41697 2.69531 5.26462 2.53125C5.11228 2.36719 4.95408 2.20312 4.79002 2.03906C4.62595 1.875 4.46189 1.72266 4.29783 1.58203C4.13377 1.44141 3.98435 1.33301 3.84959 1.25684C3.71482 1.18066 3.58884 1.13672 3.47166 1.125C3.249 1.125 3.05857 1.2041 2.90037 1.3623L2.1533 2.10938C1.9365 2.32617 1.749 2.54883 1.5908 2.77734C1.43259 3.00586 1.31541 3.26074 1.23923 3.54199C1.16306 3.82324 1.12205 4.1748 1.11619 4.59668C1.11619 5.25293 1.22166 5.92969 1.43259 6.62695C1.64353 7.32422 1.93943 8.02148 2.32029 8.71875C2.70115 9.41602 3.14939 10.1016 3.66501 10.7754C4.18064 11.4492 4.74314 12.0908 5.35252 12.7002C5.96189 13.3096 6.60349 13.8662 7.27732 14.3701C7.95115 14.874 8.6367 15.3135 9.33396 15.6885C10.0312 16.0635 10.7226 16.3535 11.4082 16.5586C12.0937 16.7637 12.7558 16.8691 13.3945 16.875Z" fill="#237EC1"></path></g><defs><clipPath id="clip0"><rect width="18" height="18" fill="white"></rect></clipPath></defs></svg>