<svg xmlns="http://www.w3.org/2000/svg" width="18" height="18" viewBox="0 0 18 18" fill="none"><path d="M8.4375 0C8.58984 0 8.72168 0.0556641 8.83301 0.166992C8.94434 0.27832 9 0.410156 9 0.5625V6.75C9 7.06055 8.94141 7.35059 8.82422 7.62012C8.70703 7.88965 8.5459 8.12695 8.34082 8.33203C8.13574 8.53711 7.89551 8.69824 7.62012 8.81543C7.34473 8.93262 7.05469 8.99414 6.75 9V17.4375C6.75 17.5898 6.69434 17.7217 6.58301 17.833C6.47168 17.9443 6.33984 18 6.1875 18C6.03516 18 5.90332 17.9443 5.79199 17.833C5.68066 17.7217 5.625 17.5898 5.625 17.4375V9C5.31445 9 5.02441 8.94141 4.75488 8.82422C4.48535 8.70703 4.24805 8.5459 4.04297 8.34082C3.83789 8.13574 3.67676 7.89844 3.55957 7.62891C3.44238 7.35938 3.38086 7.06641 3.375 6.75V0.5625C3.375 0.410156 3.43066 0.27832 3.54199 0.166992C3.65332 0.0556641 3.78516 0 3.9375 0C4.08984 0 4.22168 0.0556641 4.33301 0.166992C4.44434 0.27832 4.5 0.410156 4.5 0.5625V6.75C4.5 6.9082 4.5293 7.05469 4.58789 7.18945C4.64648 7.32422 4.72559 7.44141 4.8252 7.54102C4.9248 7.64062 5.04492 7.72266 5.18555 7.78711C5.32617 7.85156 5.47266 7.88086 5.625 7.875V0.5625C5.625 0.410156 5.68066 0.27832 5.79199 0.166992C5.90332 0.0556641 6.03516 0 6.1875 0C6.33984 0 6.47168 0.0556641 6.58301 0.166992C6.69434 0.27832 6.75 0.410156 6.75 0.5625V7.875C6.9082 7.875 7.05469 7.8457 7.18945 7.78711C7.32422 7.72852 7.44141 7.64941 7.54102 7.5498C7.64062 7.4502 7.72266 7.33008 7.78711 7.18945C7.85156 7.04883 7.88086 6.90234 7.875 6.75V0.5625C7.875 0.410156 7.93066 0.27832 8.04199 0.166992C8.15332 0.0556641 8.28516 0 8.4375 0ZM14.625 0V17.4375C14.625 17.5898 14.5693 17.7217 14.458 17.833C14.3467 17.9443 14.2148 18 14.0625 18C13.9102 18 13.7783 17.9443 13.667 17.833C13.5557 17.7217 13.5 17.5898 13.5 17.4375V12.375C13.2832 12.375 13.0488 12.3779 12.7969 12.3838C12.5449 12.3896 12.2959 12.3867 12.0498 12.375C11.8037 12.3633 11.5635 12.3281 11.3291 12.2695C11.0947 12.2109 10.8896 12.1201 10.7139 11.9971C10.5381 11.874 10.3945 11.707 10.2832 11.4961C10.1719 11.2852 10.1191 11.0156 10.125 10.6875V3.9375C10.125 3.39258 10.2275 2.88281 10.4326 2.4082C10.6377 1.93359 10.9189 1.51758 11.2764 1.16016C11.6338 0.802734 12.0498 0.521484 12.5244 0.316406C12.999 0.111328 13.5117 0.00585938 14.0625 0H14.625ZM13.5 1.17773C13.1719 1.24219 12.873 1.35938 12.6035 1.5293C12.334 1.69922 12.0967 1.91016 11.8916 2.16211C11.6865 2.41406 11.5283 2.68652 11.417 2.97949C11.3057 3.27246 11.25 3.5918 11.25 3.9375V10.6875C11.25 10.8398 11.3057 10.9717 11.417 11.083C11.5283 11.1943 11.6602 11.25 11.8125 11.25H13.5V1.17773Z" fill="#237EC1"></path></svg>