<svg xmlns="http://www.w3.org/2000/svg" width="102" height="80" viewBox="0 0 102 80" fill="none"><path d="M93.0816 57.9799H8.01671V8.95872C8.01671 4.37477 11.7216 0.669922 16.3055 0.669922H84.7928C89.3768 0.669922 93.0816 4.37477 93.0816 8.95872V57.9799Z" fill="#263238" fill-opacity="0.5"></path><path d="M15.2589 7.76562H44.4372L21.5383 50.6748H15.2589V7.76562Z" fill="black" fill-opacity="0.2"></path><path d="M87.0534 50.6749V7.76565C87.0534 7.07491 86.4882 6.50977 85.7975 6.50977H15.2589C14.5682 6.50977 14.0031 7.07491 14.0031 7.76565V50.6749C14.0031 51.3656 14.5682 51.9307 15.2589 51.9307H85.7975C86.4882 51.9307 87.0534 51.3656 87.0534 50.6749ZM84.5416 49.419H16.5148V9.02152H84.5416V49.419Z" fill="white"></path><path d="M101.287 71.1875C101.287 70.9991 101.245 70.8317 101.161 70.6642L94.2328 56.9333C94.2119 56.8914 94.17 56.8914 94.17 56.8496V7.45165C94.17 3.32818 90.821 9.81943e-05 86.6975 9.81943e-05C86.6766 9.81943e-05 86.6557 9.81943e-05 86.6347 9.81943e-05H14.6101C10.4866 -0.0208331 7.13758 3.30725 7.09572 7.40979C7.09572 7.43072 7.09572 7.45165 7.09572 7.47258V56.8705C7.09572 56.8914 7.05386 56.9333 7.03292 56.9752L0.125588 70.6852C0.0627938 70.8526 0.0209313 71.0201 0 71.2085V72.5481C0.0209313 76.6715 3.36994 80.0205 7.49341 79.9996C7.51435 79.9996 7.51434 79.9996 7.53528 79.9996H93.7723C97.8958 80.0415 101.266 76.7134 101.308 72.5899C101.308 72.569 101.308 72.569 101.308 72.5481L101.287 71.1875ZM8.91674 58.838H19.6545C20.3452 58.838 20.9104 58.2729 20.9104 57.5822C20.9104 56.8914 20.3452 56.3263 19.6545 56.3263H9.60748V7.47258C9.60748 4.75151 11.8262 2.53279 14.5473 2.53279H86.6557C89.4186 2.53279 91.6583 4.77244 91.6583 7.53537V56.3263H28.027C27.3363 56.3263 26.7712 56.8914 26.7712 57.5822C26.7712 58.2729 27.3363 58.838 28.027 58.838H92.349L98.0005 70.0363L65.6406 69.9316L64.4057 66.1849C64.1336 65.3268 63.3382 64.7197 62.4172 64.6988H38.8276C37.9276 64.6988 37.2159 65.3268 36.7973 66.1849V66.164L35.5832 69.9316H3.26529L8.91674 58.838ZM63.0242 69.9316H38.2415L39.1416 67.2106H62.1242L63.0242 69.9316ZM98.7749 72.5271C98.7749 75.2691 96.5353 77.4878 93.7933 77.4669C93.7723 77.4669 93.7723 77.4669 93.7514 77.4669H7.51435C4.77234 77.5088 2.53269 75.311 2.49083 72.569C2.49083 72.5481 2.49083 72.5481 2.49083 72.5271V72.4434L98.7749 72.5271Z" fill="#237EC1"></path><path d="M17.2893 62.6688H14.1496C13.6054 62.6688 13.1868 62.2293 13.1868 61.706C13.1868 61.1618 13.6263 60.7432 14.1496 60.7432H17.2893C17.8335 60.7432 18.2521 61.1827 18.2521 61.706C18.2521 62.2293 17.8126 62.6688 17.2893 62.6688Z" fill="white"></path><path d="M26.0176 62.6686H22.8779C22.3337 62.6686 21.9151 62.229 21.9151 61.7058C21.9151 61.1615 22.3547 60.7429 22.8779 60.7429H26.0176C26.5619 60.7429 26.9805 61.1825 26.9805 61.7058C26.9805 62.229 26.5409 62.6686 26.0176 62.6686Z" fill="white"></path><path d="M34.746 62.6686H31.6063C31.0621 62.6686 30.6434 62.229 30.6434 61.7058C30.6434 61.1615 31.083 60.7429 31.6063 60.7429H34.746C35.2902 60.7429 35.7088 61.1825 35.7088 61.7058C35.7088 62.229 35.2693 62.6686 34.746 62.6686Z" fill="white"></path><path d="M43.4744 62.6686H40.3347C39.7905 62.6686 39.3718 62.229 39.3718 61.7058C39.3718 61.1615 39.8114 60.7429 40.3347 60.7429H43.4744C44.0186 60.7429 44.4372 61.1825 44.4372 61.7058C44.4372 62.229 43.9976 62.6686 43.4744 62.6686Z" fill="white"></path><path d="M52.2028 62.6686H49.0631C48.5188 62.6686 48.1002 62.229 48.1002 61.7058C48.1002 61.1615 48.5398 60.7429 49.0631 60.7429H52.2028C52.747 60.7429 53.1656 61.1825 53.1656 61.7058C53.1656 62.229 52.726 62.6686 52.2028 62.6686Z" fill="white"></path><path d="M60.9311 62.6686H57.7914C57.2472 62.6686 56.8286 62.229 56.8286 61.7058C56.8286 61.1615 57.2681 60.7429 57.7914 60.7429H60.9311C61.4753 60.7429 61.8939 61.1825 61.8939 61.7058C61.8939 62.229 61.4544 62.6686 60.9311 62.6686Z" fill="white"></path><path d="M69.6594 62.6686H66.5197C65.9755 62.6686 65.5569 62.229 65.5569 61.7058C65.5569 61.1615 65.9964 60.7429 66.5197 60.7429H69.6594C70.2036 60.7429 70.6223 61.1825 70.6223 61.7058C70.6223 62.229 70.2036 62.6686 69.6594 62.6686Z" fill="white"></path><path d="M78.3878 62.6686H75.2481C74.7039 62.6686 74.2853 62.229 74.2853 61.7058C74.2853 61.1615 74.7248 60.7429 75.2481 60.7429H78.3878C78.932 60.7429 79.3507 61.1825 79.3507 61.7058C79.3507 62.229 78.932 62.6686 78.3878 62.6686Z" fill="white"></path><path d="M87.1161 62.6686H83.9764C83.4322 62.6686 83.0136 62.229 83.0136 61.7058C83.0136 61.1615 83.4532 60.7429 83.9764 60.7429H87.1161C87.6604 60.7429 88.079 61.1825 88.079 61.7058C88.079 62.229 87.6604 62.6686 87.1161 62.6686Z" fill="white"></path><path d="M14.7566 66.7709H11.6169C11.0727 66.7709 10.6541 66.3313 10.6541 65.8081C10.6541 65.2638 11.0936 64.8452 11.6169 64.8452H14.7566C15.3008 64.8452 15.7194 65.2848 15.7194 65.8081C15.7194 66.3313 15.2799 66.7709 14.7566 66.7709Z" fill="white"></path><path d="M23.485 66.7709H20.3453C19.8011 66.7709 19.3824 66.3313 19.3824 65.8081C19.3824 65.2638 19.822 64.8452 20.3453 64.8452H23.485C24.0292 64.8452 24.4478 65.2848 24.4478 65.8081C24.4478 66.3313 24.0083 66.7709 23.485 66.7709Z" fill="white"></path><path d="M32.2133 66.7709H29.0736C28.5294 66.7709 28.1108 66.3313 28.1108 65.8081C28.1108 65.2638 28.5503 64.8452 29.0736 64.8452H32.2133C32.7575 64.8452 33.1762 65.2848 33.1762 65.8081C33.1762 66.3313 32.7366 66.7709 32.2133 66.7709Z" fill="white"></path><path d="M71.5433 66.7709H68.4036C67.8594 66.7709 67.4407 66.3313 67.4407 65.8081C67.4407 65.2638 67.8803 64.8452 68.4036 64.8452H71.5433C72.0875 64.8452 72.5061 65.2848 72.5061 65.8081C72.527 66.3313 72.0875 66.7709 71.5433 66.7709Z" fill="white"></path><path d="M80.2716 66.7709H77.1319C76.5877 66.7709 76.1691 66.3313 76.1691 65.8081C76.1691 65.2638 76.6086 64.8452 77.1319 64.8452H80.2716C80.8158 64.8452 81.2345 65.2848 81.2345 65.8081C81.2554 66.3313 80.8158 66.7709 80.2716 66.7709Z" fill="white"></path><path d="M89 66.7709H85.8603C85.3161 66.7709 84.8975 66.3313 84.8975 65.8081C84.8975 65.2638 85.337 64.8452 85.8603 64.8452H89C89.5442 64.8452 89.9628 65.2848 89.9628 65.8081C89.9838 66.3313 89.5442 66.7709 89 66.7709Z" fill="white"></path></svg>