<svg xmlns="http://www.w3.org/2000/svg" width="18" height="18" viewBox="0 0 18 18" fill="none"><path d="M13.5007 0C13.7351 0 13.9548 0.0439453 14.1599 0.131836C14.365 0.219727 14.5437 0.339844 14.696 0.492188C14.8484 0.644531 14.9685 0.823242 15.0564 1.02832C15.1443 1.2334 15.1882 1.45312 15.1882 1.6875V2.25H14.8894C14.7898 2.25 14.6931 2.25586 14.5994 2.26758C14.5056 2.2793 14.4177 2.30273 14.3357 2.33789C14.2537 2.37305 14.1892 2.42871 14.1423 2.50488C14.0955 2.58105 14.0691 2.68359 14.0632 2.8125V10.125C14.0632 10.2832 14.0339 10.4297 13.9753 10.5645C13.9167 10.6992 13.8376 10.8164 13.738 10.916C13.6384 11.0156 13.5183 11.0977 13.3777 11.1621C13.2371 11.2266 13.0906 11.2559 12.9382 11.25H10.6882V15.75C10.6882 16.0605 10.6296 16.3506 10.5125 16.6201C10.3953 16.8896 10.2341 17.1299 10.0291 17.3408C9.82397 17.5518 9.58667 17.7129 9.31714 17.8242C9.04761 17.9355 8.75464 17.9941 8.43823 18C8.12769 18 7.83765 17.9414 7.56812 17.8242C7.29858 17.707 7.05835 17.5459 6.84741 17.3408C6.63647 17.1357 6.47534 16.8984 6.36401 16.6289C6.25269 16.3594 6.19409 16.0664 6.18823 15.75V11.25H3.93823C3.78003 11.25 3.63354 11.2207 3.49878 11.1621C3.36401 11.1035 3.24683 11.0244 3.14722 10.9248C3.04761 10.8252 2.96558 10.7051 2.90112 10.5645C2.83667 10.4238 2.80737 10.2773 2.81323 10.125V2.25C2.81323 1.93945 2.87183 1.64941 2.98901 1.37988C3.1062 1.11035 3.26733 0.870117 3.47241 0.65918C3.67749 0.448242 3.91479 0.287109 4.18433 0.175781C4.45386 0.0644531 4.74683 0.00585938 5.06323 0H13.5007ZM12.9382 10.125V9H3.93823V10.125H7.31323V15.75C7.31323 15.9082 7.34253 16.0547 7.40112 16.1895C7.45972 16.3242 7.53882 16.4414 7.63843 16.541C7.73804 16.6406 7.85815 16.7227 7.99878 16.7871C8.1394 16.8516 8.28589 16.8809 8.43823 16.875C8.59644 16.875 8.74292 16.8457 8.87769 16.7871C9.01245 16.7285 9.12964 16.6494 9.22925 16.5498C9.32886 16.4502 9.41089 16.3301 9.47534 16.1895C9.53979 16.0488 9.56909 15.9023 9.56323 15.75V10.125H12.9382ZM12.9382 2.8125C12.9382 2.49023 13.0232 2.19141 13.1931 1.91602C13.363 1.64062 13.5974 1.43262 13.8962 1.29199C13.8494 1.2334 13.7908 1.19238 13.7205 1.16895C13.6501 1.14551 13.5769 1.13086 13.5007 1.125H5.06323C4.90503 1.125 4.75854 1.1543 4.62378 1.21289C4.48901 1.27148 4.37183 1.35059 4.27222 1.4502C4.17261 1.5498 4.09058 1.66992 4.02612 1.81055C3.96167 1.95117 3.93237 2.09766 3.93823 2.25V7.875H12.9382V2.8125Z" fill="#237EC1"></path></svg>