<svg xmlns="http://www.w3.org/2000/svg" width="33" height="30" viewBox="0 0 33 30" fill="none"><path d="M9.02002 7.50195C8.74919 7.50195 8.51481 7.40299 8.31689 7.20508C8.11898 7.00716 8.02002 6.77279 8.02002 6.50195C8.02002 6.26237 7.9471 6.04883 7.80127 5.86133C7.65544 5.67383 7.48356 5.51758 7.28564 5.39258C6.92106 5.14258 6.55127 4.89258 6.17627 4.64258C5.80127 4.39258 5.4471 4.12174 5.11377 3.83008C4.78044 3.53841 4.52002 3.19987 4.33252 2.81445C4.14502 2.42904 4.04085 1.99154 4.02002 1.50195C4.02002 1.23112 4.11898 0.996745 4.31689 0.798828C4.51481 0.600911 4.74919 0.501953 5.02002 0.501953C5.29085 0.501953 5.52523 0.600911 5.72314 0.798828C5.92106 0.996745 6.02002 1.23112 6.02002 1.50195C6.02002 1.74154 6.09294 1.95508 6.23877 2.14258C6.3846 2.33008 6.55648 2.48633 6.75439 2.61133C7.10856 2.86133 7.47835 3.11133 7.86377 3.36133C8.24919 3.61133 8.60335 3.88216 8.92627 4.17383C9.24919 4.46549 9.5096 4.80404 9.70752 5.18945C9.90544 5.57487 10.0096 6.01237 10.02 6.50195C10.02 6.77279 9.92106 7.00716 9.72314 7.20508C9.52523 7.40299 9.29085 7.50195 9.02002 7.50195ZM16.02 7.50195C15.7492 7.50195 15.5148 7.40299 15.3169 7.20508C15.119 7.00716 15.02 6.77279 15.02 6.50195C15.02 6.26237 14.9471 6.04883 14.8013 5.86133C14.6554 5.67383 14.4836 5.51758 14.2856 5.39258C13.9211 5.14258 13.5513 4.89258 13.1763 4.64258C12.8013 4.39258 12.4471 4.12174 12.1138 3.83008C11.7804 3.53841 11.52 3.19987 11.3325 2.81445C11.145 2.42904 11.0409 1.99154 11.02 1.50195C11.02 1.23112 11.119 0.996745 11.3169 0.798828C11.5148 0.600911 11.7492 0.501953 12.02 0.501953C12.2909 0.501953 12.5252 0.600911 12.7231 0.798828C12.9211 0.996745 13.02 1.23112 13.02 1.50195C13.02 1.74154 13.0929 1.95508 13.2388 2.14258C13.3846 2.33008 13.5565 2.48633 13.7544 2.61133C14.1086 2.86133 14.4784 3.11133 14.8638 3.36133C15.2492 3.61133 15.6034 3.88216 15.9263 4.17383C16.2492 4.46549 16.5096 4.80404 16.7075 5.18945C16.9054 5.57487 17.0096 6.01237 17.02 6.50195C17.02 6.77279 16.9211 7.00716 16.7231 7.20508C16.5252 7.40299 16.2909 7.50195 16.02 7.50195ZM23.02 7.50195C22.7492 7.50195 22.5148 7.40299 22.3169 7.20508C22.119 7.00716 22.02 6.77279 22.02 6.50195C22.02 6.26237 21.9471 6.04883 21.8013 5.86133C21.6554 5.67383 21.4836 5.51758 21.2856 5.39258C20.9211 5.14258 20.5513 4.89258 20.1763 4.64258C19.8013 4.39258 19.4471 4.12174 19.1138 3.83008C18.7804 3.53841 18.52 3.19987 18.3325 2.81445C18.145 2.42904 18.0409 1.99154 18.02 1.50195C18.02 1.23112 18.119 0.996745 18.3169 0.798828C18.5148 0.600911 18.7492 0.501953 19.02 0.501953C19.2909 0.501953 19.5252 0.600911 19.7231 0.798828C19.9211 0.996745 20.02 1.23112 20.02 1.50195C20.02 1.74154 20.0929 1.95508 20.2388 2.14258C20.3846 2.33008 20.5565 2.48633 20.7544 2.61133C21.1086 2.86133 21.4784 3.11133 21.8638 3.36133C22.2492 3.61133 22.6034 3.88216 22.9263 4.17383C23.2492 4.46549 23.5096 4.80404 23.7075 5.18945C23.9054 5.57487 24.0096 6.01237 24.02 6.50195C24.02 6.77279 23.9211 7.00716 23.7231 7.20508C23.5252 7.40299 23.2909 7.50195 23.02 7.50195ZM25.0981 19.002C24.7544 19.7832 24.3273 20.502 23.8169 21.1582C23.3065 21.8145 22.7336 22.429 22.0981 23.002H29.02V25.002C29.02 25.4707 28.9471 25.9395 28.8013 26.4082C28.6554 26.877 28.4471 27.304 28.1763 27.6895C27.9054 28.0749 27.5669 28.3874 27.1606 28.627C26.7544 28.8665 26.2909 28.9915 25.77 29.002H3.27002C2.74919 29.002 2.29085 28.8822 1.89502 28.6426C1.49919 28.403 1.16064 28.0905 0.879395 27.7051C0.598145 27.3197 0.384603 26.8926 0.23877 26.4238C0.0929362 25.9551 0.0200195 25.4811 0.0200195 25.002V23.002H5.94189C4.71273 21.929 3.75439 20.6842 3.06689 19.2676C2.37939 17.8509 2.03044 16.3197 2.02002 14.6738V9.00195H27.0981C27.7856 9.00195 28.4263 9.13216 29.02 9.39258C29.6138 9.653 30.1346 10.0124 30.5825 10.4707C31.0304 10.929 31.3794 11.4603 31.6294 12.0645C31.8794 12.6686 32.0096 13.3145 32.02 14.002C32.02 14.679 31.895 15.3197 31.645 15.9238C31.395 16.528 31.0461 17.0592 30.5981 17.5176C30.1502 17.9759 29.6294 18.3353 29.0356 18.5957C28.4419 18.8561 27.7961 18.9915 27.0981 19.002H25.0981ZM26.02 11.002C26.02 11.4395 26.0252 11.877 26.0356 12.3145C26.0461 12.752 26.0513 13.1947 26.0513 13.6426C26.0513 14.2155 26.0356 14.7832 26.0044 15.3457C25.9731 15.9082 25.8898 16.4603 25.7544 17.002H27.0981C27.5044 17.002 27.8846 16.9238 28.2388 16.7676C28.5929 16.6113 28.9054 16.3926 29.1763 16.1113C29.4471 15.8301 29.6502 15.5124 29.7856 15.1582C29.9211 14.804 29.9992 14.4186 30.02 14.002C30.02 13.5957 29.9471 13.2103 29.8013 12.8457C29.6554 12.4811 29.4471 12.1634 29.1763 11.8926C28.9054 11.6217 28.5981 11.4082 28.2544 11.252C27.9106 11.0957 27.5252 11.0124 27.0981 11.002H26.02ZM4.02002 14.6738C4.02002 15.5905 4.15544 16.4707 4.42627 17.3145C4.6971 18.1582 5.08773 18.9395 5.59814 19.6582C6.10856 20.377 6.70231 21.0176 7.37939 21.5801C8.05648 22.1426 8.81169 22.6165 9.64502 23.002H18.395C19.2179 22.627 19.9731 22.1582 20.6606 21.5957C21.3481 21.0332 21.9419 20.3874 22.4419 19.6582C22.9419 18.929 23.3273 18.1478 23.5981 17.3145C23.869 16.4811 24.0096 15.6009 24.02 14.6738V11.002H4.02002V14.6738ZM25.77 27.002C25.9888 27.002 26.1763 26.929 26.3325 26.7832C26.4888 26.6374 26.619 26.4655 26.7231 26.2676C26.8273 26.0697 26.9002 25.8509 26.9419 25.6113C26.9836 25.3717 27.0096 25.1686 27.02 25.002H2.02002C2.02002 25.179 2.04085 25.3822 2.08252 25.6113C2.12419 25.8405 2.20231 26.054 2.31689 26.252C2.43148 26.4499 2.56169 26.627 2.70752 26.7832C2.85335 26.9395 3.04085 27.0124 3.27002 27.002H25.77Z" fill="#237EC1"></path></svg>