<svg xmlns="http://www.w3.org/2000/svg" width="21" height="33" viewBox="0 0 21 33" fill="none"><path d="M10.0201 0.00195312C10.9368 0.00195312 11.8222 0.121745 12.6764 0.361328C13.5306 0.600911 14.3274 0.934245 15.067 1.36133C15.8066 1.78841 16.4785 2.30924 17.0826 2.92383C17.6868 3.53841 18.2076 4.21549 18.6451 4.95508C19.0826 5.69466 19.4212 6.49154 19.6608 7.3457C19.9004 8.19987 20.0201 9.08529 20.0201 10.002C20.0201 10.7207 19.9368 11.403 19.7701 12.0488C19.6035 12.6947 19.3535 13.3457 19.0201 14.002L10.0201 32.002L1.02014 14.002C0.697225 13.3561 0.452433 12.7103 0.285767 12.0645C0.1191 11.4186 0.0305583 10.7311 0.0201416 10.002C0.0201416 9.08529 0.139933 8.19987 0.379517 7.3457C0.6191 6.49154 0.952433 5.69466 1.37952 4.95508C1.8066 4.21549 2.32743 3.54362 2.94202 2.93945C3.5566 2.33529 4.23368 1.81445 4.97327 1.37695C5.71285 0.939453 6.50973 0.600911 7.36389 0.361328C8.21806 0.121745 9.10347 0.00195312 10.0201 0.00195312ZM17.4576 13.2207V13.2051L17.4733 13.1895C17.7337 12.6999 17.9316 12.1842 18.067 11.6426C18.2024 11.1009 18.2701 10.554 18.2701 10.002C18.2701 8.86654 18.0566 7.79883 17.6295 6.79883C17.2024 5.79883 16.6087 4.92383 15.8483 4.17383C15.0878 3.42383 14.2128 2.83529 13.2233 2.4082C12.2337 1.98112 11.166 1.76237 10.0201 1.75195C8.88472 1.75195 7.81702 1.96549 6.81702 2.39258C5.81702 2.81966 4.94202 3.41341 4.19202 4.17383C3.44202 4.93424 2.85347 5.80924 2.42639 6.79883C1.99931 7.78841 1.78056 8.85612 1.77014 10.002C1.77014 10.554 1.83785 11.1009 1.97327 11.6426C2.10868 12.1842 2.3066 12.6999 2.56702 13.1895V13.2051L2.58264 13.2207L10.0201 28.0957L17.4576 13.2207ZM10.0201 4.12695C10.8326 4.12695 11.5931 4.27799 12.3014 4.58008C13.0097 4.88216 13.6347 5.30404 14.1764 5.8457C14.7181 6.38737 15.1347 7.00716 15.4264 7.70508C15.7181 8.403 15.8743 9.16862 15.8951 10.002C15.8951 10.8145 15.7441 11.5749 15.442 12.2832C15.1399 12.9915 14.7181 13.6165 14.1764 14.1582C13.6347 14.6999 13.0149 15.1165 12.317 15.4082C11.6191 15.6999 10.8535 15.8561 10.0201 15.877C9.20764 15.877 8.44722 15.7259 7.73889 15.4238C7.03056 15.1217 6.40556 14.6999 5.86389 14.1582C5.32223 13.6165 4.90556 12.9967 4.61389 12.2988C4.32223 11.6009 4.16598 10.8353 4.14514 10.002C4.14514 9.18945 4.29618 8.42904 4.59827 7.7207C4.90035 7.01237 5.32223 6.38737 5.86389 5.8457C6.40556 5.30404 7.02535 4.88737 7.72327 4.5957C8.42118 4.30404 9.18681 4.14779 10.0201 4.12695ZM10.0201 14.127C10.5931 14.127 11.1295 14.0228 11.6295 13.8145C12.1295 13.6061 12.567 13.3092 12.942 12.9238C13.317 12.5384 13.6087 12.1009 13.817 11.6113C14.0253 11.1217 14.1347 10.5853 14.1451 10.002C14.1451 9.42904 14.041 8.89258 13.8326 8.39258C13.6243 7.89258 13.3274 7.45508 12.942 7.08008C12.5566 6.70508 12.1191 6.41341 11.6295 6.20508C11.1399 5.99674 10.6035 5.88737 10.0201 5.87695C9.44722 5.87695 8.91077 5.98112 8.41077 6.18945C7.91077 6.39779 7.47327 6.69466 7.09827 7.08008C6.72327 7.46549 6.4316 7.90299 6.22327 8.39258C6.01493 8.88216 5.90556 9.41862 5.89514 10.002C5.89514 10.5749 5.99931 11.1113 6.20764 11.6113C6.41598 12.1113 6.71285 12.5488 7.09827 12.9238C7.48368 13.2988 7.92118 13.5905 8.41077 13.7988C8.90035 14.0072 9.43681 14.1165 10.0201 14.127Z" fill="#237EC1"></path></svg>