<svg xmlns="http://www.w3.org/2000/svg" width="33" height="33" viewBox="0 0 33 33" fill="none"><path d="M32.02 5.00195C32.02 5.27279 31.9211 5.50716 31.7231 5.70508L27.2231 10.2051C27.0252 10.403 26.7909 10.502 26.52 10.502C26.2179 10.502 25.9679 10.3874 25.77 10.1582L17.9263 18.002H19.02C19.2909 18.002 19.5252 18.1009 19.7231 18.2988C19.9211 18.4967 20.02 18.7311 20.02 19.002V21.002C20.02 21.4186 19.9419 21.8092 19.7856 22.1738C19.6294 22.5384 19.4159 22.8561 19.145 23.127C18.8742 23.3978 18.5565 23.6113 18.1919 23.7676C17.8273 23.9238 17.4367 24.002 17.02 24.002C16.7492 24.002 16.5148 24.1009 16.3169 24.2988C16.119 24.4967 16.02 24.7311 16.02 25.002C16.02 25.9707 15.8377 26.877 15.4731 27.7207C15.1086 28.5645 14.6086 29.3092 13.9731 29.9551C13.3377 30.6009 12.5981 31.1009 11.7544 31.4551C10.9106 31.8092 9.99919 31.9915 9.02002 32.002C7.78044 32.002 6.61377 31.7676 5.52002 31.2988C4.42627 30.8301 3.47314 30.1842 2.66064 29.3613C1.84814 28.5384 1.20752 27.5853 0.73877 26.502C0.27002 25.4186 0.0304362 24.252 0.0200195 23.002C0.0200195 22.0332 0.202311 21.127 0.566895 20.2832C0.931478 19.4395 1.43148 18.6947 2.06689 18.0488C2.70231 17.403 3.44189 16.903 4.28564 16.5488C5.12939 16.1947 6.04085 16.0124 7.02002 16.002C7.29085 16.002 7.52523 15.903 7.72314 15.7051C7.92106 15.5072 8.02002 15.2728 8.02002 15.002C8.02002 14.4499 8.12419 13.9342 8.33252 13.4551C8.54085 12.9759 8.82731 12.5488 9.19189 12.1738C9.55648 11.7988 9.97835 11.5124 10.4575 11.3145C10.9367 11.1165 11.4575 11.0124 12.02 11.002C12.7075 11.002 13.3325 11.1582 13.895 11.4707C14.4575 11.7832 14.9367 12.2207 15.3325 12.7832L21.8638 6.25195C21.6346 6.05404 21.52 5.80404 21.52 5.50195C21.52 5.23112 21.619 4.99674 21.8169 4.79883L26.3169 0.298828C26.5148 0.100911 26.7492 0.00195312 27.02 0.00195312C27.2909 0.00195312 27.5252 0.100911 27.7231 0.298828L31.7231 4.29883C31.9211 4.49674 32.02 4.73112 32.02 5.00195ZM18.02 20.002H15.52C15.2492 20.002 15.0148 19.903 14.8169 19.7051L12.3169 17.2051C12.119 17.0072 12.02 16.7728 12.02 16.502C12.02 16.2311 12.119 15.9967 12.3169 15.7988L13.8638 14.252C13.7179 13.877 13.4784 13.5749 13.145 13.3457C12.8117 13.1165 12.4367 13.002 12.02 13.002C11.7388 13.002 11.4784 13.054 11.2388 13.1582C10.9992 13.2624 10.7909 13.403 10.6138 13.5801C10.4367 13.7572 10.2909 13.9707 10.1763 14.2207C10.0617 14.4707 10.0096 14.7311 10.02 15.002C10.02 15.4186 9.94189 15.8092 9.78564 16.1738C9.62939 16.5384 9.41585 16.8561 9.14502 17.127C8.87419 17.3978 8.55648 17.6113 8.19189 17.7676C7.82731 17.9238 7.43669 18.002 7.02002 18.002C6.33252 18.002 5.68669 18.1322 5.08252 18.3926C4.47835 18.653 3.9471 19.0124 3.48877 19.4707C3.03044 19.929 2.67106 20.4603 2.41064 21.0645C2.15023 21.6686 2.02002 22.3145 2.02002 23.002C2.02002 23.9707 2.20231 24.877 2.56689 25.7207C2.93148 26.5645 3.43148 27.304 4.06689 27.9395C4.70231 28.5749 5.44189 29.0749 6.28564 29.4395C7.12939 29.804 8.04085 29.9915 9.02002 30.002C9.70752 30.002 10.3534 29.8717 10.9575 29.6113C11.5617 29.3509 12.0877 28.9967 12.5356 28.5488C12.9836 28.1009 13.3429 27.5697 13.6138 26.9551C13.8846 26.3405 14.02 25.6895 14.02 25.002C14.02 24.5853 14.0981 24.1947 14.2544 23.8301C14.4106 23.4655 14.6242 23.1478 14.895 22.877C15.1659 22.6061 15.4836 22.3926 15.8481 22.2363C16.2127 22.0801 16.6034 22.002 17.02 22.002C17.2909 22.002 17.5252 21.903 17.7231 21.7051C17.9211 21.5072 18.02 21.2728 18.02 21.002V20.002ZM15.52 17.5957L24.3638 8.75195L23.27 7.6582L14.4263 16.502L15.52 17.5957ZM26.52 8.0957L29.6138 5.00195L27.02 2.4082L23.9263 5.50195L26.52 8.0957ZM5.56689 22.9551L6.97314 21.5488L10.4731 25.0488L9.06689 26.4551L5.56689 22.9551ZM8.56689 19.9551L9.97314 18.5488L13.4731 22.0488L12.0669 23.4551L8.56689 19.9551Z" fill="#237EC1"></path></svg>