<svg xmlns="http://www.w3.org/2000/svg" width="33" height="29" viewBox="0 0 33 29" fill="none"><path d="M23.52 0.00172061C24.6971 0.00172061 25.8013 0.225679 26.8325 0.673596C27.8638 1.12151 28.7648 1.72568 29.5356 2.4861C30.3065 3.24651 30.9106 4.14755 31.3481 5.18922C31.7856 6.23089 32.0096 7.33505 32.02 8.50172C32.02 9.63714 31.8065 10.7257 31.3794 11.7673C30.9523 12.809 30.3377 13.7257 29.5356 14.5173L16.02 28.0173L2.50439 14.5173C1.71273 13.7257 1.10335 12.809 0.67627 11.7673C0.249186 10.7257 0.0304362 9.63714 0.0200195 8.50172C0.0200195 7.33505 0.23877 6.2361 0.67627 5.20485C1.11377 4.1736 1.72314 3.27255 2.50439 2.50172C3.28564 1.73089 4.18669 1.12151 5.20752 0.673596C6.22835 0.225679 7.33252 0.00172061 8.52002 0.00172061C9.3846 0.00172061 10.1554 0.100679 10.8325 0.298596C11.5096 0.496512 12.1346 0.767346 12.7075 1.1111C13.2804 1.45485 13.8325 1.87672 14.3638 2.37672C14.895 2.87672 15.4471 3.41318 16.02 3.9861C16.5929 3.40276 17.1398 2.8663 17.6606 2.37672C18.1815 1.88714 18.7336 1.47047 19.3169 1.12672C19.9002 0.782971 20.5304 0.506929 21.2075 0.298596C21.8846 0.0902623 22.6554 -0.00869606 23.52 0.00172061ZM28.1138 13.0955C28.7284 12.4809 29.1971 11.7778 29.52 10.9861C29.8429 10.1944 30.0044 9.3663 30.0044 8.50172C30.0044 7.59547 29.8377 6.75172 29.5044 5.97047C29.1711 5.18922 28.7127 4.50693 28.1294 3.9236C27.5461 3.34026 26.8586 2.88714 26.0669 2.56422C25.2752 2.2413 24.4263 2.07464 23.52 2.06422C22.645 2.06422 21.869 2.19964 21.1919 2.47047C20.5148 2.7413 19.8898 3.10589 19.3169 3.56422C18.744 4.02255 18.1971 4.52776 17.6763 5.07985C17.1554 5.63193 16.6034 6.21005 16.02 6.81422C15.4575 6.25172 14.9106 5.68401 14.3794 5.1111C13.8481 4.53818 13.2961 4.02255 12.7231 3.56422C12.1502 3.10589 11.52 2.73089 10.8325 2.43922C10.145 2.14755 9.37419 2.00172 8.52002 2.00172C7.62419 2.00172 6.78044 2.16839 5.98877 2.50172C5.1971 2.83505 4.5096 3.2986 3.92627 3.89235C3.34294 4.4861 2.87939 5.1788 2.53564 5.97047C2.19189 6.76214 2.02002 7.60589 2.02002 8.50172C2.02002 9.3663 2.18148 10.1944 2.50439 10.9861C2.82731 11.7778 3.30127 12.4809 3.92627 13.0955L16.02 25.1892L28.1138 13.0955Z" fill="#237EC1"></path></svg>