<svg xmlns="http://www.w3.org/2000/svg" viewBox="0 0 155.78 138.34"><g id="Layer_2" data-name="Layer 2"><g id="OBJECTS"><path d="M152.57,69.39c-4,4.29-7.44,4.79-7.44,4.79,9.09-7,10.58-19.5,10.58-19.5S156.53,65.09,152.57,69.39Zm-4-38.34c-14.54-22.63-46.43-15.86-46.43-15.86S99.7,2.47,91.93,2.63s-8.26,10.91-8.26,10.91S74.91-3.48,57.23.65s-19.16,23-19.16,23S28,16.51,23.53,21.14s0,11.73,0,11.73-18.84,0-23,21.32,16,29.9,16,29.9-9.26,19.83,14.87,31.23a36.93,36.93,0,0,0,29.35,1.53c.83,10.65-4.18,21.49-4.18,21.49,20.59-6.28,20.06-31.61,20.06-31.61S85,114,93.75,110.2s4.62-12.56,4.62-12.56,26.94,7.1,36.85-2.81S139.85,74,139.85,74,163.14,53.69,148.6,31.05ZM11.46,89.46S7,89,7.58,97.81c.56,8.55,8.18,11.46,8.66,11.63C7.34,102.25,11.46,89.46,11.46,89.46ZM47,.9s-3.72-2.48-8.1,2.56-3.14,14.13-3.14,14.13A19.58,19.58,0,0,1,47,.9Z"/></g></g></svg>