<svg xmlns="http://www.w3.org/2000/svg" viewBox="0 0 120.95 113.13"><path d="M50.78 10.57s10.46 5.62 22 4.2S96.6 0 96.6 0s.55 18.4 2.54 24.78 15.3 13.88 15.3 13.88-7.5 5.07-8.8 10.58 13.76 32.5 13.76 32.5-18.4 3.75-21.47 5.73 16.3 15.75 16.3 15.75-16.08-.77-22.25-3-9.7-6.83-10.9-7.16-28 16.85-28 16.85.83-6-3.14-7.4-27.8 10.6-27.8 10.6 7.6-21.26.88-27.65S0 71.82 0 71.82s8.8-8.92 11.46-19.28-4.2-22.47-4.2-22.47 38.66-4.5 42-7.82 1.5-11.68 1.5-11.68zm-6.17 7.66c-1.43 2.1-10.74 4.3-10.74 4.3s6.6-.22 10.8-2 2.6-7.53 2.6-7.53a31.13 31.13 0 0 1-2.65 5.23zm-22.6 76c.77 3.13-1.87 14.92-1.87 14.92s3.4-9.9 3-15.15a11.62 11.62 0 0 0-4.46-8.09A56.17 56.17 0 0 1 22 94.24zM118.52 72c-1.54-1.6-6.66-11.3-6.66-11.3 2.2 6.3 9.14 17.6 9.14 17.6s-.93-4.74-2.48-6.32z"/></svg>