<svg xmlns="http://www.w3.org/2000/svg" viewBox="0 0 214.67 164.49"><g id="Layer_2" data-name="Layer 2"><g id="Layer_1-2" data-name="Layer 1"><path d="M200.72,97Zm13.51-23.72c-.18.15-.14.35-.19.53a.8.8,0,0,1-1.17.36c-.19-.1-.33-.25-.58-.09h0c-.34-.41-.66,0-1,0h0c-.32-.15-.43.17-.68.16l-.11.07a2.24,2.24,0,0,1-1,.25,1.89,1.89,0,0,1-.53.27c0,.17,0,.31.28.38.1,0,.15.08.09.16a.14.14,0,0,1-.22,0c-.09-.11-.19-.08-.32,0-.28.09-.53.27-.83-.05-.12-.13-.52,0-.74.14a3,3,0,0,1-1.45.23c-.14,0-.29,0-.32.11-.06.25-.29,0-.41.17,0-.22.28-.23.25-.37a16.37,16.37,0,0,1-2.71.26c-.15,0-.24,0-.36-.06s-.39-.11-.51.14-.47.22-.74.28h0l-.73.27c.08.06.14.15.22.17.37.09.53.23.34.52-.05.08.11.09.17.13.48,0,.71.36,1.17.38.06,0,.15.15.09.16-.42.13-.4.54-.81.67a1,1,0,0,1-1.11.65,1.33,1.33,0,0,1-.77.33l-.33.16c-.07.1-.36,0-.33.23.19.1.62.09.34.41l1.29.18.46-.1a1.57,1.57,0,0,1,1.13,0,2.57,2.57,0,0,0,.87.2,3.94,3.94,0,0,1,1.45.41,1.91,1.91,0,0,0,.39.23l.27.08a1,1,0,0,0,.39,0c.24,0,.38.15.58.22l.11,0h.13c.44-.2.45-.2.49.13,0,.15.18.14.28.15.72.09,1.43.21,2.14.35.2,0,.51.12.67-.13,0-.1.14,0,.18,0a.23.23,0,0,0,.35.07c.32-.19.49,0,.7.13-.09.13-.4.06-.37.26.07.45-.39.4-.76.41-.21,0-.31,0-.23.19s.16.21,0,.35a1.82,1.82,0,0,0-.75-.44c-.18.44-.86.74-1.8.77h0l-.43.1c-.19.29-.42.52-.89.23a.28.28,0,0,1-.24-.07c-.44,0-.29-.24-.32-.41h0l-.77-.09c-.15.14-.28,0-.41,0-.34,0-.35-.21-.49-.33s-.1.08-.1.13c0,.2.35.46-.14.58a2.19,2.19,0,0,1-.93.14,4,4,0,0,0-.6,0c-.07-.1-.54-.06-.19-.3-.07-.16.35-.22.18-.41h0c-.34-.1-.17.22-.43.28a3.78,3.78,0,0,0-1.09.4c-.38.22-.73-.15-1.13-.17a1.55,1.55,0,0,1-.21,0c-.17,0-.35,0-.52,0s-.2.06-.16.17a.26.26,0,0,1,0,.3c-.12.15-.36.15-.54.22s-.37,0-.32-.23c-.13-.17-.45,0-.58-.14h-.21c-.08.29-.43.41-.71.54s-.59.08-.38.41c.07.11-.09.06-.17,0-.23,0-.27.09-.29.21h.11a.3.3,0,0,1,.41,0c.07.06,0,.21,0,.3a.37.37,0,0,1-.4.15c-.22,0-.43-.1-.46-.3h0c-.37.11-.35.2,0,.36s.68.14.82.42h0c.23.2.65,0,.88.19.3,0,.3,0,.22.41.1,0,.24,0,.29,0s-.06.12-.15.14l-.36.07c-.41.29-.88.12-1.3.06s-.5.24-.81.25c-.07,0,.09.06.1.09,0,.19.43.25.35.48h0c0,.48-.64.3-.91.52-.11.08-.48-.1-.62-.33l-.42.49c.25.07.4-.16.63-.08-.05.16-.05.16-1.12.28-.1-.14.22-.13.15-.27-.28,0-.47,0-.39.3v.21c.06.18-.12.34,0,.53-.33-.2-1-.17-.78-.68.06-.16-.17-.21-.39-.29h.84a.63.63,0,0,0-.82-.3c-.76.22-.88.22-1.36-.19-.13.08.1.16,0,.19-.62.26-.23.62-.2.95,0,.17-.08.23-.32.22s-.77-.38-.74-.63.23-.09.36-.09h0l0,0c-.13-.26.29-.34.36-.58-.23,0-.38.15-.57.1s-.57-.23-.89-.08c-.06,0-.13.08-.17.07a2.38,2.38,0,0,0-1.58,0c-.14.07-.36,0-.37.21s0,.13-.17.12-.14,0-.12-.11c.08-.44-.39-.36-.72-.42a.56.56,0,0,1-.4-.15.63.63,0,0,0-.67.07c-.25.15-.7.06-1,.3-.05,0-.13,0-.17-.11a1.51,1.51,0,0,0-.58-.5c-.24-.1,0-.16,0-.25s-.21-.36-.56-.36-.32-.11-.21-.27c-.41,0-.8.06-.88-.35-.21.07,0-.35-.35-.15.1.18-.13.25-.22.37.57.27.57.27.37.45l.42.22c.14.17,0,.32-.12.44a.21.21,0,0,1-.35-.07c0-.08.1-.18,0-.26s-.45.07-.51-.12.33-.09.39-.23c-.56-.38-1.07.08-1.62.06-.27,0-.49.17-.39.43s-.14.2-.25.28c-.29.2-.22.4.16.45.22,0,.43.17.68.09s.44,0,.45.25a1.36,1.36,0,0,1-.41.17,1.12,1.12,0,0,0,.41-.17c0,.43.46.47.87.52.13,0,.31-.09.33.08s-.14.19-.29.2c-.43,0-.89.11-1.25-.16a.29.29,0,0,0-.38,0,1.32,1.32,0,0,1-1.18.07c-.18.16-.36,0-.54,0s-.33-.14-.33-.35l.44.11h0v-.09h0c-.2-.1.17-.37-.24-.41,0-.09-.07-.22,0-.26.59-.24.11-.43,0-.64a.43.43,0,0,0-.57,0,1.32,1.32,0,0,1-.43.12c.06.26.38.49.2.79h-.64a7.38,7.38,0,0,1-1.63,0c-.15,0-.11.14-.15.22s-.1.12,0,.18.16,0,.24,0,.28-.19.49-.1.21.1.14.18a.69.69,0,0,1-.62.16c-.31-.18-.55,0-.78.11s.12.13.1.22a.64.64,0,0,0,0,.07,5.4,5.4,0,0,1,1.44.17,5.79,5.79,0,0,0,2,.16c-.29.14-.54,0-.77.16,1.17-.09,2.32.1,3.48.07.69-.1,1.38-.21,2.08-.3a3,3,0,0,1,.58.07h.2a11,11,0,0,1,2.49-.21A20,20,0,0,1,187,89.8a1.83,1.83,0,0,1,.66.16,4.63,4.63,0,0,1,2.1.34,5.44,5.44,0,0,0,2.94,0c.67-.1,1.35-.1,2-.21a10,10,0,0,1,2.05-.36A24.32,24.32,0,0,0,200,89.4a21.2,21.2,0,0,0,2.57-.37c2-.44,4-.58,6-1.12a7,7,0,0,1,2.35-.23c.08.15,0,.17-.14.21a8.94,8.94,0,0,1-2.21.54c-.18,0-.37,0-.53.08,0,0,0,.09,0,.12a5.93,5.93,0,0,1-2,.53,1.4,1.4,0,0,1-.41,0h-.06a.68.68,0,0,0-.47.07,2.94,2.94,0,0,1-1.51.41h0a4.16,4.16,0,0,1-2.77.41h0c0,.08.15.22,0,.22a10.59,10.59,0,0,0-1.5.17s-.08,0-.13-.07a.59.59,0,0,1-.67.2c-.26-.07-.37.24-.65.2-.1.15-.18.29-.48.2a3.28,3.28,0,0,0-.64,0h0c0,.11,0,.17.16.17s.37,0,.51.08a5.22,5.22,0,0,1,1.12.16,10.37,10.37,0,0,0,1.93,0,2.2,2.2,0,0,1,.91.14c-.23.21-.63.19-.85.41a1.81,1.81,0,0,0,.83.09,28.2,28.2,0,0,0,2.91-.13,3.87,3.87,0,0,1,1.27,0c.14,0,.29,0,.35.16.21.49.81.55,1.33.51a7.82,7.82,0,0,1,2.12.42c-.16.21-.41.2-.62.25a.61.61,0,0,0,.12.72c0,.12,0,.14-.22.19a1.64,1.64,0,0,1-1-.07,8.71,8.71,0,0,0-1.36-.11,8.14,8.14,0,0,1-1.71.28,39.64,39.64,0,0,1-6.81.45c-.41.13-.81-.22-1.22,0v.42c.12,0,.19.23.33,0s.27.32.51,0c.06-.06.45,0,.26.25-.08.12.21.23.37.23.86,0,1.69.26,2.53.16.39,0,.81.17,1.17-.11.09-.06.24.11.33.18s-.08.1-.11.15a.88.88,0,0,0-.07.23c-.05.19,0,.39-.47.27s-.56.18-.65.44a.93.93,0,0,0-.38.1c-.53.18-.94.57-1.61.46-.07.17-.3.16-.46.23.12.17,0,.26-.21.26a1.5,1.5,0,0,0-.91.2.61.61,0,0,1-.64-.11,2,2,0,0,0-.84.1.8.8,0,0,1,.62-.52v-.07a2.86,2.86,0,0,0-1,.07c-.44,0-.64-.17-.64-.48h0c-.28-.07-.27.19-.45.22s-.27.11-.13.18.31,0,.2.15-.06.22-.27.26c-.46.1-.94.13-1.41.19a.26.26,0,0,1-.27-.1c-.07-.12,0-.21.16-.26.33-.14.36-.3.09-.49,0,0,0,0,0,0-.11-.17-.24-.34-.58-.14,0,.12.16.2.3.27s.14.19,0,.25l-1.24.44c0,.1,0,.16.17.14s.38-.15.46.12-.07.34-.27.44a.61.61,0,0,0,0,.15,2.64,2.64,0,0,1,2.43.32h0a2.64,2.64,0,0,1,2.33.73,1.56,1.56,0,0,0,.22.1,2.57,2.57,0,0,0-.57.17,2.73,2.73,0,0,1-2.24,0c-.08,0-.15-.08-.11-.13.34-.45-.3-.4-.39-.62l-.41-.21a4.28,4.28,0,0,0-.87.09c-.34.08-.74.2-.87-.29,0-.07-.2-.15-.31-.15-.28,0-.56,0-.71-.3,0-.07-.1-.08-.18-.06a1.5,1.5,0,0,1-.7,0,.22.22,0,0,1-.25.13c-.3-.07-.82.62-.9-.14h-.11l-.06,0a1.25,1.25,0,0,1-.5.06.37.37,0,0,1,.1.16c0,.17.22.18.37.21a3.48,3.48,0,0,1,1.18.47h0a5.48,5.48,0,0,1,1.9,1h0a.53.53,0,0,1,.58.47c.06.34-.3.28-.48.37a2,2,0,0,1-.5.11,1.43,1.43,0,0,1-.9.32.81.81,0,0,0-.77.46c.24.09.47.2.71.27.43.14.27.32.05.51a.54.54,0,0,1-.19.08c-.19,0-.33.14-.34.31s.31.07.39.22l.93.2a.68.68,0,0,1,.63.13c.15.12.51.25,0,.43-.15.06,0,.17-.06.25s0,.35-.33.36-.32.48-.63.61c.15.21,0,.57.47.64.16,0,.24.12.12.28s-.22.35,0,.54,0,.17-.12.18-.43.22-.37.32c.28.46-.14.8-.16,1.2h0c.53-.09,1,.22,1.44.3.15,0,0,.1,0,.16a1.7,1.7,0,0,1,.34.12c.09,0,.26.07.23.21s-.16.11-.26.13c-.57.08-.38.27-.09.48a2.76,2.76,0,0,1,.91.12c-.76.3-1.48.29-2.09.57a.64.64,0,0,1-.61.29,5.16,5.16,0,0,0-1.34.13.56.56,0,0,1,.16.71l.09,0c.48.16,1.09-.09,1.49.36l.52.2c.4,0,.37.31.53.47a1,1,0,0,1,.65.18c.18,0,.37-.05.53.09l.29,0c.18,0,.4-.09.51.1s-.13.31-.21.47a1.69,1.69,0,0,1-1.21.9,2.17,2.17,0,0,1-.36,0h-.09c.1.13.33,0,.42.19a19,19,0,0,1,5.14,1.87,1.9,1.9,0,0,1,1.32,1.39c.07.39.45.74.53,1.18,0,.12.13.26.07.36-.26.45.06.44.4.45l1.56.06c.11,0,.28-.06.25.13s-.15.08-.25.08l-1.9-.11c0,.27.18.45.18.68s.25.17.42.18a4.33,4.33,0,0,1,1.52.16h-2.07c-.21,0-.5-.12-.52.2s-.07.59.45.62a10.44,10.44,0,0,1,1.28.24.66.66,0,0,1-.72.14.54.54,0,0,0-.55,0c-.12.11.18.32,0,.47a1,1,0,0,0,.49.16c.43,0,.85.13,1.36.22-.56.39-1,0-1.49,0a1.6,1.6,0,0,0-.65,0,9.46,9.46,0,0,1-4.91.74c-.52-.09-1,0-1.55-.28a.37.37,0,0,1-.17-.45c.05-.28-.11-.35-.32-.39a1.81,1.81,0,0,0-.77-.08,7.67,7.67,0,0,1-2,.08c.07.16.07.28-.17.28s-.37.1-.44,0,.21-.13.28-.24a14.91,14.91,0,0,0-3.24.5,9.29,9.29,0,0,0,2.66,1.19,12.39,12.39,0,0,1,2.74,1.11,5.16,5.16,0,0,0,1.28.53,4.23,4.23,0,0,1,1.94,1.14,2.24,2.24,0,0,1,1,1.14c.26.54.67,1.1.28,1.74,0,.07-.09.14-.19.15a.5.5,0,0,0-.25.45c-.08.82-.84,1.4-1,2.2a.47.47,0,0,1-.34.39,29.43,29.43,0,0,1-2.64,2.47c-.25.37-.79.46-1,.84-.39.65-1.23.93-1.55,1.66-.17.37-.77.45-1.2.57s-.87.2-1.29.36c-.06.28-.34.28-.55.36s-.25,0-.35.06-.54.09-.48.32.33,0,.5,0h.89c.56-.11,1-.48,1.65-.4a10.25,10.25,0,0,1,2.19-.58,6,6,0,0,0,.9-.35c.14-.24.32-.25.63-.25a8,8,0,0,0,1.92-.41c1.13-.31,2.2-.79,3.38-1,.38-.07.71-.36,1.16-.22.15.05.44-.12.45.16s-.27.24-.47.29c-.4.31-.95.3-1.37.57-.1.18-.29.19-.48.22-.34.07-.68.31-.95.36-.73.13-1.22.93-2.1.57-.18-.07-.28.15-.45.2-.14.27-.5.33-.73.38a2.63,2.63,0,0,0-1.23.46c-.06.05-.13.06-.14,0-.06-.27-.18-.21-.26,0s-.29.19-.53.21a1.65,1.65,0,0,0-1.13.24.55.55,0,0,1-.76.08h0c-.35.28-.88.25-1.2.61-.15.16-.28-.21-.49-.13-.13.31-.45.37-.75.46s-.69.52-1.16.57h0a.78.78,0,0,0-.1.49h.21c.26-.24.58-.09.95-.2a1,1,0,0,1-.87.38l-.39.2h0c-.05.24.14.28.46.34-.33.07-.49.49-.75,0-.07-.13-.23,0-.29.07-.39.52-.38.52-.91.13a1.47,1.47,0,0,1-1,.28,3,3,0,0,0-1.17.27l0,0c.07.07.21.08.24.2a.2.2,0,0,1-.1.34c-.45.09-.86.38-1.36.24-.35.19-.34.19-.47-.15-.06-.16-.22-.15-.34-.07a1.77,1.77,0,0,1-1,.2c-.21.39-.38.85-1,.66-.22-.15-.48,0-.71-.11-.06,0-.08,0-.12.05-.4.5-.48.51-1,.15a.94.94,0,0,0-.52.1c-.29.23.1.18.18.3-.52.27-1.14.15-1.66.37-1.29.17-2.56.42-3.86.57a6.19,6.19,0,0,0-1.57.19,6.55,6.55,0,0,1-2,.2c0,.2.09.3.2.34l.1,0a3.62,3.62,0,0,0,.47,0,27.89,27.89,0,0,0,3.86-.59,6,6,0,0,0,1.87-.33c-.18.34-.21.37-.68.48-.88.19-1.79.21-2.66.44a11.32,11.32,0,0,1-1.94.26,3.64,3.64,0,0,1-.81,0,1.63,1.63,0,0,1-1.06.35,4.51,4.51,0,0,0-1.47.41.31.31,0,0,0,.38.1c.75-.36,1.56,0,2.32-.2.38-.09.8-.08,1.18-.18a2.76,2.76,0,0,1,.91,0c.16,0,.06.07,0,.08-.23.1.19.46-.15.42a5.26,5.26,0,0,0-1.78.26,19.38,19.38,0,0,1-2.16.32l-.23.19a4.66,4.66,0,0,0,2.25.29l1-.2c.38-.3.84-.14,1.26-.2h0a6.4,6.4,0,0,1,2.13-.27c.12-.1.24-.22.41-.16a4.07,4.07,0,0,0,2.27-.23,18.1,18.1,0,0,0,2.06-.48c.07,0,.15-.11.22-.11.85,0,1.57-.47,2.42-.45a7.85,7.85,0,0,1,1.8-.56c.45-.16.93-.24,1.4-.37a.34.34,0,0,1,.38.07c.09.14-.09.2-.17.28a1.77,1.77,0,0,1-1.12.31l-.67.1a2.61,2.61,0,0,1-1,.33,19.48,19.48,0,0,1-2.83.59,1.52,1.52,0,0,0-.4.12c-.24.27-.63.13-.95.25a7.35,7.35,0,0,1-.75.23c-.17.34-.06.51.36.47l1.43-.2a2,2,0,0,1,.63-.12,6.29,6.29,0,0,1,1.48-.43c.21-.06.44-.08.65-.12-.38.41-.38.41-1,.48-.47,0-.84.42-.78.76v.1c.24,0,.38-.29.66-.17l1-.12c.32-.22.73,0,1.07-.2a.71.71,0,0,1-.67.29l-.29.11c0,.21-.2.19-.35.18a.76.76,0,0,0-.62.29c-.25.33-.49.4-.83.12,0,0-.13,0-.2,0l-2.22.48c0,.3-.15.42-.48.47-.66.1-1.31.24-2,.36a2.65,2.65,0,0,0-1,.21c-.14.33-.46,0-.69.16a1.51,1.51,0,0,1-1.15.16c-.15,0-.3-.06-.21.17,0,.07,0,.13-.1.08-.31-.17-.32,0-.31.21s-.09.24-.24.26-.23,0-.29-.05.1-.17.13-.26a2.34,2.34,0,0,0,.08-.53,4.62,4.62,0,0,0-.65.08,2.17,2.17,0,0,0-.34.22c-.14.1-.21.23-.47,0s-1,.16-1.17.55c-.1.2-.14.42-.42.52s.15.28-.05.4h0c0,.26-.2.28-.44.28s-.36-.12-.55,0c-.45,0-.87.44-1.37.12-.08-.06-.19,0-.28.06-.31,0-.41-.1-.24-.36.12-.08.09-.22.11-.44.24.35.56.28.83.34s.21,0,.24-.1c-.12-.15-.34-.17-.56-.31.51.18.29-.25.46-.34s.66,0,.73-.45l-.53,0c-.24.29-.69.15-.95.39,0,.15-.11.19-.24.09s-.42,0-.62-.1h0c-.37.14-.41.61-.86.67-.19,0-.28,0-.18-.18-.2-.11-.42-.3-.5.1,0,.09-.14.17-.16.13-.25-.44-.92,0-1.14-.44-.3-.26-.52.14-.81.07s-.59-.14-.58.29c0,.07-.1.13-.2.1s-.08,0-.09,0c-.46.29-1.08-.21-1.51.23,0,0,0,0,0,0-.54.15-.39.44-.17.73a.27.27,0,0,0,.41,0,.6.6,0,0,1,.24.05c.42,0,.8-.3,1.23-.14,0,.27,0,.28-.36.32-.17,0-.28.2-.47.15-.29.18-.6,0-.87.05-.74.25-1.54.24-2.28.46-.33.1-.52-.24-.86-.18-.19,0-.35,0-.34.23s-.22.57.34.47h0v-.09h0c.29-.2.51-.06.73.12a1.18,1.18,0,0,0,.78-.25c.21.25-.06.36-.16.52s.21.07.28.16c-.28.43-.82.25-1.23.4-.21.48-.58.58-1.1.41a.41.41,0,0,0-.48.21c-.11.19-.34.27-.47.4-.4.41-.4.07-.5-.16-.37.2-.5.08-.5-.28,0-.18,0-.44-.33-.3-.23,0-.37.24-.62.19s-.6-.1-.64.31.13.47.51.44a1,1,0,0,1-1.09.13c-.18-.11-.1-.37.17-.48a.42.42,0,0,0,.09-.37c-.54-.18.06-.31,0-.46,0-.31-.25-.2-.43-.12-.44,0-.59,0-.59-.29h0a.32.32,0,0,1-.3.15.26.26,0,0,1-.26-.25.29.29,0,0,0-.33-.29c-1.19,0-2.38,0-3.56.11l-.14.11c-.07.17-.26.31-.27.5s-.16.09-.26.05-.14-.13-.14-.23.13-.19.21-.28c-.46-.13-.8,0-1,.29-.06.13,0,.25.12.24.48,0,.92.19,1.4.14.22,0,.42,0,.45-.28s.09-.25.23-.21a11,11,0,0,0,1.72,0c.17,0,.41,0,.45.16s-.22.21-.4.31a1.9,1.9,0,0,0,.88-.12,4.34,4.34,0,0,1,1.34-.11c.31,0,.21.23.29.36a1.52,1.52,0,0,1-1.23.51c-.11,0-.25-.11-.34,0-.42.46-1,.25-1.53.35a1.16,1.16,0,0,1-.77-.3,1.84,1.84,0,0,0-1.44-.15,1.85,1.85,0,0,1-1,0,.37.37,0,0,0-.34.08c0,.23.46.15.36.37s-.41,0-.62.06c-.36.07-.72.1-1.08.14,0,.12,0,.25.06.37s0,.18-.07.25a1.79,1.79,0,0,1-1.09-.21c-.28-.37.09-.41.33-.52.08-.06.21-.12.22-.18s-.15-.08-.24-.11c-.43-.16-.69.3-1.11.26-.09,0,0,.27.06.42s.24.21.06.32-.34.07-.48-.17c.19.6-.16.54-.59.59a5.61,5.61,0,0,0-1.73.15c.1.25.34.17.53.16a2.57,2.57,0,0,0,.4-.08c.2,0,.49-.15.53.1s-.29.2-.48.26c-.47.13-1,0-1.44.18a.29.29,0,0,1-.38-.16c-.06-.19.13-.23.26-.21.41.06.45-.31.5-.46s-.24-.27-.44-.21-.68.3-.92-.16c0-.08-.39-.23-.41.14s-.53.18-.57.49c0,0,.08.08.1.07s.28-.05.34.11,0,.17-.09.2-.21-.05-.28-.14l-.17-.17c-.21,0-.2-.19-.34-.26s-.26-.09-.35,0-.16.28.07.34c.51.14.3.4.13.65a6.52,6.52,0,0,1,1.63.14c.38.13.54.16.84-.11.12-.1.52,0,.56.36.13-.05.38,0,.23-.29-.06-.13.31-.2.46-.19.6,0,1.2.13,1.8.2.1,0,.16.07.14.16s-.13.19-.21.13c-.27-.16-.46,0-.66.09a.65.65,0,0,1-.59,0c-.31-.11-.61-.16-.61.28,0,.09,0,.17-.13.17s-.14-.07-.15-.15a.37.37,0,0,0-.39-.32c-.26.34-.71.2-1,.24s-.87.32-1.35.17c-.11,0-.26,0-.24-.15s-.1-.27-.32-.25c-.37,0,0,.24-.11.33s0,.12-.09.15c-.06.19.12.2.23.25a.33.33,0,0,1,.12.53c-.18.2-.33,0-.47-.13h0c0-.1-.14-.19-.21-.18-.57.11-.44-.19-.35-.47,0,0-.07-.05-.09,0-.79.3-1.62,0-2.41.16-.13,0-.48-.07-.44.25.17.16.46.21.52.47l.15.07,1,0a.82.82,0,0,1,.75.11.51.51,0,0,1-.74.09c-.28,0-.55.18-.83,0,0,.11-.12.15-.23.19.31.26.14.41-.17.38a2.06,2.06,0,0,0-.57.09c-.18,0-.3,0-.31-.19a.78.78,0,0,1,.32-.55c.11-.1.19.05.21.17.14-.1.07-.24.09-.36-.21-.13-.58-.07-.63-.4s-.35-.1-.51-.2c-.33-.14-.26.35-.55.29-.13,0-.21.05-.3.11l-.11.47a.19.19,0,0,1-.09.29c-.08.14,0,.41-.29.36s-.12-.23,0-.37h-.19a.21.21,0,0,0-.08.3.26.26,0,0,1-.19.34c-.14,0-.21-.08-.28-.16s0-.22.11-.3a.81.81,0,0,0,.09-.1c-.12-.17-.46.06-.48-.25a.85.85,0,0,1,.5,0l.41-.1a1.59,1.59,0,0,1-.42-.55c-.41-.19-.8-.46-1.24,0-.08.08-.43,0-.66,0,.13-.16.37-.12.6-.25-.31-.11-.58,0-.8-.11-.1,0-.27.05-.28.1-.08.48-.29.36-.58.14a.22.22,0,0,0-.18-.06h0c-.08,0-.09.19-.15.24.5.36-.07.43-.2.61l-.08.12c-.08.24.17.34.3.5-.31.16-.55.5-.94.17-.22.16-.36.2-.45-.13,0-.18-.39-.31-.06-.53,0,0,.1-.09.11-.08.66.28.68-.46,1.15-.52-.3-.35-.71.12-1-.17a.78.78,0,0,0-1-.18c.07.14.27.1.41.17a.72.72,0,0,1-.54.09l-.09,0c-.29.09-.53.2-.19.5.15.12-.07.22,0,.34-.19.37-.64.45-1,.67-.12.08-.38.11-.47,0a.38.38,0,0,1,.17-.44c.18-.11.31-.11,0-.2-.11,0,0-.16,0-.25s.45,0,.31-.31c-.08-.12-.36,0-.35-.26-.37.08-.74.14-.73.61,0,.27-.39.31-.48.54s.28.22.15.29a.69.69,0,0,1-.72.08.55.55,0,0,1-.33-.19l-.32.07a.25.25,0,0,1-.3-.13c0-.08.08-.31-.2-.19s-.34,0-.31.23-.18.31-.4.29c-.9-.08-1.8,0-2.7-.07-.45,0-.91,0-1.38,0a.69.69,0,0,1-.58-.36c-.31-.27-.48-.67-1-.72-.25,0-.59-.16-.58-.51-.23-.24-.64-.34-.73-.7a12.21,12.21,0,0,1-2.26-.15,1.91,1.91,0,0,0-1.57.49s0,0,0,0l.1,0c.25.13.58.13.77.37.26,0,.59-.28.73.15,0,.14-.26.24-.08.41s.27.54.6.24.46-.29.57-.54c0-.08,0-.23.24-.24.15.35-.21.69,0,1.07a2.9,2.9,0,0,1,2,0,10.93,10.93,0,0,1-3.86.23,4.3,4.3,0,0,1-1.08-.1c-.13,0-.32,0-.3-.16s.17-.13.3-.12c.36,0,.37-.1.11-.29h0a1.15,1.15,0,0,1-.4-.39l-.1-.09a1.93,1.93,0,0,0-.34.11c-.18.07-.37.15-.53,0s.09-.27.13-.41a3.13,3.13,0,0,1-1.06-.09,3.18,3.18,0,0,1-1.15-.07c-.44.31-.78.61-.17,1.08.16.13-.09.22-.21.18-.57-.2-1.19,0-1.76-.18-.3-.1-.6.07-.88.1a2.76,2.76,0,0,1-.81,0c-1-.15-2-.18-2.94-.26-.57-.07-1.13.12-1.69,0-.31,0-.63.07-.9-.14,0,0,0,0,0,0-.91.42-1.75-.28-2.65-.12-.17,0-.45.07-.48-.14s.31-.17.47-.23.27,0,.39-.08c-.11-.18-.29-.15-.47-.15l-1.75,0a.56.56,0,0,1-.4-.09c-.23,0-.54,0-.47.37,0,.14-.22.24-.35.12s-.53-.09-.8-.06c-.5-.06-.72-.16-.78-.35-.28-.16-.1.16-.26.2a1.06,1.06,0,0,1-1.13-.19c-.15.45-.5.45-.91.37s-.52-.18-.83,0-.64-.29-.61-.5.16-.21.31-.14.63,0,.88.19c0,0,.12,0,.32-.08a4.45,4.45,0,0,0-.86-.23,1.29,1.29,0,0,1-.82-.25c-.29-.25-.39-.09-.52.11-.39.06-.38-.2-.38-.41s.22-.25.42-.19a.38.38,0,0,0,.41-.12,1,1,0,0,1,1.61.27c.05.12,0,.27.24.24h.19a2.7,2.7,0,0,0,.39-.27.74.74,0,0,1,0-.14c.17-.23,0-.34-.21-.33a4.45,4.45,0,0,1-1.7-.25.41.41,0,0,0-.4.06c-.42.4-.93.27-1.43.22l0,0c-.15,0-.28-.07-.43-.09l-.26.07s-.12.06-.11.09c.23.42-.1.46-.43.5l-.14,0s0,0,0,0l.16,0c.2,0,.4-.08.61-.1a.58.58,0,0,1,.38.11c.34.25-.45.36-.08.64s.16.31-.4.43l-.15,0c-.39,0-.69,0-.79-.49s-1-.35-1.21-.09l-.27.32c-.44-.53-.53-.54-1.22-.16-.18.1-.34.24-.47-.07s-.42-.31-.7-.32a.74.74,0,0,1-.67-.38A1.74,1.74,0,0,0,68.9,161c-.16.09,0,.35-.21.46s-.22-.29-.47-.28a1.58,1.58,0,0,1-.62-.05c-.35-.13-.55.07-.79.19,0,.22.33.13.34.35-.14.13-.34.05-.52.05s-.55,0-.77.26-.33.05-.4-.15c-.29-.23-.15.19-.31.17-.31.27-.63.12-1,0h0a1.91,1.91,0,0,0-1.16-.1,1.73,1.73,0,0,1-.6-.06c-.17-.06-.09-.14,0-.21v-.12a1,1,0,0,0-.9-.2,2.56,2.56,0,0,1-1.33-.25c-.36-.14-.73.11-1.06-.1-.08.32-.33.31-.61.27-.05,0-.12,0-.14,0s-.12.33-.36.24-.07-.24-.06-.37v-.27c-.07-.12-.31-.17-.24-.33s.29-.06.43-.07a5.37,5.37,0,0,1,.75.07c-.12-.2-.21-.22-.45-.2a7.1,7.1,0,0,1-1.63-.26s0-.06,0-.09c0-.25.22-.53-.1-.75a3.11,3.11,0,0,1-1.25-.21c-.3.18-.68.07-1,.22.12.24.39,0,.57.16s.21,0,.28.15l-.3.15v.18a.44.44,0,0,0,.59.39c.14,0,.31.06.46,0s.37,0,.38.15a1,1,0,0,1-.12.56c0,.07-.2,0-.25-.05-.2-.45-.61-.44-1-.43-.2,0-.42,0-.56-.17-.63.23-.91-.21-1.22-.54s-.1-.49.26-.51.5,0,.54-.29a2.35,2.35,0,0,0-.87.09.67.67,0,0,1-.46,0c-.36-.16-.66-.5-1.09-.1,0,0-.2,0-.29-.07a1,1,0,0,0-1.29.23.76.76,0,0,1-.76,0c-.21-.17-.34,0-.5,0-.17.36-.39.33-.64.07s-.24,0-.22.13c0,.4-.17.35-.44.19-.56-.16-.41-.46-.18-.78,0-.11.33-.11.09-.28s-.34-.33,0-.59c.1-.07.17-.18.11-.29s-.15-.23-.32-.19c-.35.06-.66.28-1.06.17-.14,0,0,.16-.07.22s-.06.25.11.32.44.15,0,.29a.12.12,0,0,0-.07.19c.09.12.31.28,0,.32s-.63.3-.92,0c-.06-.07,0-.14.07-.24-.19.36-.47.33-.78.2-.16.16.29.35,0,.47a.81.81,0,0,1-1,.53c-.16-.06-.09-.21-.08-.33v-.19c.17-.36.35-.3.54,0l.2.12.22-.2a6,6,0,0,0-1.38-.57c-.15,0-.23.12-.33.2s-.35.14-.41-.11c-.19,0-.3-.08-.43-.17s-.59.31-.62-.2c-.19-.15-.37-.42-.57,0-.08.15-.25.1-.37,0s-.11-.18-.08-.29c.25-.85.12-1-.9-1.35-.08,0-.16-.07-.24,0,0,.49.53.3.8.45h0s.07,0,.08,0c.08.27-.37.33-.3.61-.21,0-.45.18-.64-.07s-.19,0-.29,0c0,.25-.35.32-.4.58,0,.08-.23.18-.4.15s-.16-.17-.19-.29c-.09-.29.22-.24.34-.35-.13-.21-.74-.29-.22-.68-.38-.48-.84-.12-1.27-.09-.13,0-.18.1-.22.19a6.76,6.76,0,0,0-.4.81c-.1.31-.2.08-.32,0-.3-.17-.43.12-.65.19s-.37-.47-.74-.26c0-.15-.14-.31,0-.45l.27-.21a1.3,1.3,0,0,1-.39-.09c-.55-.16-.56-.16-.18-.52.09-.08.06-.17,0-.26l-.07,0a1,1,0,0,0-.84-.17c-.11.15,0,.39-.24.47v.2c0,.13.09.28-.1.37a1.16,1.16,0,0,1-.81.19c-.23,0-.37,0-.33.27-.34.24-.45.18-.56-.26-.4,0-.81-.27-1.19.09-.1.1-.22,0-.28-.1l-.19-.28a.32.32,0,0,0-.21-.21c-.43.14-.52,0-.32-.42-.19.18-.34.3-.54.15-.48.05-1-.12-1.44.09a.23.23,0,0,1-.28-.08c-.07-.13.15-.07.16-.17a.73.73,0,0,1,.59-.63c.22-.07.25-.27,0-.37s-.47-.12-.7-.18-.48-.13-.6.18c0,0-.12,0-.15-.07-.33-.15-.74,0-1.05-.19s-.61,0-.86-.2c-.19,0-.13.11-.1.2.12.31.49.38.68.62s.22.07.33,0S25,156,25,156a1,1,0,0,1,.76-.07c.06,0,.14.08.11.14-.1.24-.39.3-.59.35s-.53.46-.79,0c0-.09-.17.08-.26.08-.25,0-.62.12-.53-.33,0-.2-.22-.23-.27-.38-.29,0-.57,0-.73.4s-.58.29-.82.1-.57-.18-.87-.23c-.76,0-.95-.17-1-.84,0-.08,0-.16-.1-.17s-.2,0-.23.05c-.17.62-.36,0-.54,0s-.51-.24-.68.13c.24.08.32.39.8.39-.73.24-1.24,0-1.26-.53a2.36,2.36,0,0,0-.13-.83h0c-.43-.36-.87-.59-1.38-.1-.07.07-.17.08-.19,0-.06-.34-.44-.29-.66-.44-.44,0-.62-.16-.63-.57a3.06,3.06,0,0,0-.22-.81c-.06-.18-.21-.15-.34-.09a2,2,0,0,1-1.26,0,4.49,4.49,0,0,0-1.41.15,4.7,4.7,0,0,1-1.34.33.26.26,0,0,0-.15,0c-.18.07-.2.54-.43.29s-.88-.54-.49-1.12c.22-.31,0-.68,0-1,0-.18-.22-.15-.37-.17-.33,0-.37-.08-.41-.28h0a2.15,2.15,0,0,1-1.1-1.2,1.24,1.24,0,0,0-.58-.75c-.23-.13-.36-.32-.67-.21,0,0-.1,0-.11-.09A1,1,0,0,0,5,147.65a2.2,2.2,0,0,1-.36,0c-.3,0-.49-.1-.25-.41s.36-1,1-1.21c0,0,.1-.1.11-.09.55.34.37-.23.53-.36a5.63,5.63,0,0,1,1.62-.91c.28-.08.38-.4.7-.34.51-.09.7-.52,1-.82s.3-.37.47-.52a1.26,1.26,0,0,0,.52-1.38.65.65,0,0,1,.52-.78,4.45,4.45,0,0,0,.93-.59c.88-.57,1.53-1.43,2.66-1.69.56-.12.69-.66,1-1,.07-.1.08-.26.21-.32.65-.32,1-.93,1.69-1.23.07-.24.26-.45.23-.72s.13-.21.3-.22a1,1,0,0,0,.91-.67,1.06,1.06,0,0,1,1.08-.68,3.08,3.08,0,0,0,1.87-.91c.2-.28.61-.19.92-.22.54-.05,1.07,0,1.26-.65.09-.3,1.36-.59,1.7-.47a1.27,1.27,0,0,0,.47.06c.15-.25.45-.32.69-.47s.27-.13.18-.29a.26.26,0,0,0-.33-.06,1.4,1.4,0,0,1-1.26-.2h0a3.37,3.37,0,0,0-1.71.37.54.54,0,0,1-.39.1h0c-.3.05-.52.32-.85.28h0l-.1,0a6.31,6.31,0,0,1-1.51.38,2.07,2.07,0,0,1,1.19-.79,7.13,7.13,0,0,1,1.42-.53c.73-.29,1.52-.39,2.26-.64l.12-.17c0-.34.31-.23.5-.27.35-.07.72-.07.83-.48a.28.28,0,0,1,.35-.15c.41.22.61,0,.85-.24,0,0,0,0,0-.05.12-.78.12-.79,1-.82a.79.79,0,0,0,.51-.18,2.12,2.12,0,0,1,1-.38c-1.39,0-2.77-.13-4.15,0a1,1,0,0,1-.35-.09c-.14.08-.59-.16-.38.31.07.14-.21.14-.25.26.21.19.13.26-.13.33a5,5,0,0,1-1.8-.17c-.13,0-.26-.1-.4,0s-.25.12-.32,0,.13-.21.22-.31a3.23,3.23,0,0,1,1.24,0c.41,0,.44-.11.24-.38a18.26,18.26,0,0,1-2.09-.21c-.14.06-.41-.1-.43.19.11,0,.33-.07.31.12s-.23.18-.38.15-.25-.14-.06-.26l-.09-.18a7.7,7.7,0,0,0-1.73.1,2.36,2.36,0,0,1-1-.18c-.3-.09-.64-.41-.86.14,0,.11-.4.17-.59,0s-.27-.1-.31.06-.08.26.15.28.53.31.87.11c.08,0,.23,0,.25.1s-.15.2-.24.16c-.25-.09-.56,0-.75-.2,0,0-.09-.08-.11-.07-.49.16-.82-.19-1.21-.31a7.8,7.8,0,0,0-2-.38c-.29.33-.62.24-1,.11s-.07-.19-.08-.28c-.52-.14-1.08,0-1.6-.19a.2.2,0,0,0-.23.07.92.92,0,0,1-1,.19c-.62-.17-1.25-.22-1.86-.36l-.31,0c-.33.05-.66.1-.86-.23-.07-.12-.22-.06-.32-.12-.45-.41-1.12-.2-1.64-.45-.16-.08-.36,0-.47-.24s-.27-.35-.4,0c0,0-.21.06-.29,0a9.18,9.18,0,0,0-3.34-.4.78.78,0,0,1-.3-.07c-.13,0-.33,0-.31-.19s.22-.08.34-.11l1.76-.42,0-.12-1.67-.1c-.07,0-.15,0-.21,0-.23-.07-.64,0-.65-.24s.37-.08.57-.16c.5-.2,1.06-.19,1.56-.4.15-.06.36,0,.36.08,0,.42.28.28.5.3a2.44,2.44,0,0,0,1.5-.29,1,1,0,0,1,.58-.1c-.32-.18-.85.07-1.06-.45-.09-.21-.45.11-.67-.06.55-.47.94-.43,1.63,0,.25.16.71,0,1.07.06.2-.35.63-.24.94-.34s.31.23.36.43c.41.19.41.19,0,.45l.48.13H8c.34-.08.49-.52.91-.45l.3,0c.25-.65-.39-.33-.62-.46.12.33-.19.33-.4.4a.19.19,0,0,1-.24-.12c-.06-.13.09-.14.17-.18l.27-.12c-.06-.14-.36,0-.34-.2s.23-.15.36-.2c.39-.15.82,0,1.22-.16.11,0,.25,0,.26.11s-.15.13-.25.18-.28.33,0,.47c.09,0,.12.18.18.28H10c.07-.15.29,0,.36-.17s-.26-.06-.22-.23.13-.1.21-.09.4.07.4.31.34,0,.46.18l-.05.05h0l0-.06a1.52,1.52,0,0,1,1.15-.56l0,0c-.3-.25-1,.14-1-.62-.05-.44-.38-.86-.23-1.36a1,1,0,0,0-.63-1c.61-.07,1.17.14,1.77.07,0-.11-.09-.24-.05-.33.24-.52-.23-.41-.46-.38-.47.07-.61-.17-.54-.48s-.08-.28-.27-.33l-.91-.22a.28.28,0,0,1,.34-.08,2.26,2.26,0,0,0,1.62,0,8.81,8.81,0,0,1,4.24,0c.22.06.45.06.47.39s.38-.07.54.12c0,0,.27-.09.29-.21s-.21,0-.26-.18l.37,0-.44-.19c.42-.12.26-.41.32-.63,0-.06-.14-.13,0-.18s.2,0,.23.06c.13.3.27.15.46,0a.54.54,0,0,1,.63,0c.14.1.43,0,.66.06h.3c0-.29.36-.19.53-.27a.55.55,0,0,1,.74.17h1.15a3,3,0,0,0,1.54.3s.09,0,.1,0c.41-.54.89-.27,1.39-.13.22.06.5-.2.84,0a5.43,5.43,0,0,1-1.86.65c0,.1,0,.21,0,.32s.15.19.19.08c.15-.36.46-.26.73-.24a1.36,1.36,0,0,0,.66-.06.56.56,0,0,1,.73.28,2.18,2.18,0,0,0,.21.22c0-.24.43-.21.44-.48a.24.24,0,0,0-.21-.28c-.14,0-.27-.07-.41-.09s-.24-.05-.23-.2.13-.15.25-.2a3.5,3.5,0,0,1,2-.07.4.4,0,0,0,.33-.07.28.28,0,0,1,.41.08c.1.3.36.26.55.22a4.4,4.4,0,0,1,2.14.25c.27.07.54.31.88.34s.51-.07.7.2c.08.12.37.12.56.18,0-.06.18-.12,0-.19s-.42-.11-.43-.37c-.37,0,0-.5-.49-.45.22-.11.46,0,.58-.2a3.16,3.16,0,0,1,1.1.52c0,.21-.29.08-.32.25,0,0,0,.06,0,.06.63,0,.63,0,.57.48.32,0,.28.25.42.38.32-.22.7.15,1-.1,0,0,0,0,0,0s0,0-.06-.07c-.25,0-.35-.28-.19-.3.36,0,.56-.36.92-.35h.09v-.08l-.62-.19a.18.18,0,0,1-.29-.08c-.07-.09-.19-.14-.19,0s0,.26-.2.23,0-.19-.07-.29a1.3,1.3,0,0,1-.08-.17h-.57c.21-.24.5-.3.55-.59a1,1,0,0,1-.79-.11c-.13-.07-.32-.24-.5,0a.14.14,0,0,1-.22,0,.3.3,0,0,1,0-.21.15.15,0,0,1,.21-.09c.28.18.41-.11.57-.19.34-.15-.11-.31-.07-.49h0c-.32.2-.57-.06-.84-.12a2.1,2.1,0,0,0-1,.06c-.33.14-.44-.28-.73-.32a1.3,1.3,0,0,1-.71-.25,1.4,1.4,0,0,1,1.14.05h0a5,5,0,0,0,1.07,0c-.41-.37-.92-.16-1.32-.31l-.06,0c-1.3-.31-2.64-.35-3.95-.54a2.75,2.75,0,0,1-1.8-.6c1.64,0,3.16.48,4.73.57s3.14.27,4.71.39a22.67,22.67,0,0,0,4.73.21,5.94,5.94,0,0,0-.92-.17c-1.62,0-3.16-.56-4.78-.61a21.44,21.44,0,0,1-2.64-.35,16.46,16.46,0,0,0-2.34-.31,2,2,0,0,1-1.68-.74.57.57,0,0,0-.59-.31c-.38.15-.65-.1-1-.2a1.28,1.28,0,0,1-1.27-1.23.1.1,0,0,0-.09,0,1,1,0,0,1-.65-.07c-.36-.19-.76,0-1.15,0-.82,0-1.63-.12-2.46-.12a1.28,1.28,0,0,1-1.06-.65,4.25,4.25,0,0,1,2.1-.48,10.81,10.81,0,0,0,2.41-.08c.24,0,.54-.11.69.19.32.11.63,0,.94,0a6.56,6.56,0,0,1,1.38-.38c.11,0,.26,0,.29-.15s-.1-.17-.2-.24a4.16,4.16,0,0,1-.46-.34l.29-.12c.18-.05.49.1.54-.15s-.33-.18-.46-.32c-1.42-.15-2.85-.27-4.28-.44-.57-.07-1.13-.28-1.7-.38-.75-.14-1.51-.23-2.26-.35a4,4,0,0,1-.41-.14,6.49,6.49,0,0,1,1.41-.13,23.08,23.08,0,0,1,4.32.18,3.4,3.4,0,0,0,1.1,0,1.57,1.57,0,0,1,1.12.12,1.9,1.9,0,0,0,1.13.14,33.32,33.32,0,0,1,4.24.15,6,6,0,0,0,1.33-.16,6.19,6.19,0,0,1,1.77,0,8.93,8.93,0,0,0,1.15,0c1.39-.07,2.77.16,4.15.13a8.09,8.09,0,0,0,2.5-.15,2.52,2.52,0,0,1,.73,0c.11,0,.26,0,.38,0a1.39,1.39,0,0,1-.67-.35s0-.09,0,0c-.17.37-.33,0-.41,0-.5-.3-.54-.29-.68.2a3.82,3.82,0,0,0-.6-.25c-.17,0-.43-.19-.5.11,0,.13-.16.09-.3.07a15.94,15.94,0,0,0-2.3-.34.7.7,0,0,1-.46-.2c-.37-.48-.68-.15-1,0s-.35,0-.48,0a2,2,0,0,1-1.74-.3c-.12-.1-.28.12-.47.15a8.65,8.65,0,0,1-3,0l-.17,0a26,26,0,0,1-3.06-.14c-.65,0-1.33,0-2,0-1-.07-2.08-.08-3.11-.11a10.91,10.91,0,0,1-4.48-1.08c-.9-.42-1.71-.92-2.55-1.4a.66.66,0,0,1-.29-.28,2.37,2.37,0,0,1-.35-1.59c.09-.41-.35-.79-.34-1.21l1-.16h.63l.07,0a.34.34,0,0,1-.05-.11l-.44,0c-.14,0-.3,0-.29-.2s.19-.15.32-.14.22,0,.33,0a1,1,0,0,1,.12-.35.47.47,0,0,1,.06.15.14.14,0,0,0-.06-.15,3.68,3.68,0,0,0-.58-.06c-.85,0-.86,0-.85-.67,0-.25-.22-.26-.42-.28l-.13,0-.79,0c-1.29.1-2.57,0-3.86,0a1.57,1.57,0,0,1-.32-.07A15.64,15.64,0,0,1,13.07,97c.5,0,1,0,1.51-.07a.71.71,0,0,1,.29,0c.39,0,.78-.07,1.18-.09l.7,0,.58-.19s0-.1,0-.12c.32-.15.29-.3.12-.43,0,0,0,.07-.08.11a.72.72,0,0,1-.22.1s0,.08-.16.06a.15.15,0,0,1-.08,0,.71.71,0,0,1-.4-.16c-.29-.24-.48-.31-.77,0a.48.48,0,0,1-.54,0c-.4,0-.79.28-1.2,0-.1-.07-.25,0-.38.1s-.36.23-.53,0h0a.69.69,0,0,0-.25,0,1.25,1.25,0,0,1-.27.1c.18,0,.36.09.54.13a1.38,1.38,0,0,1,1,.23c-.36.14-.67,0-1-.06a3.94,3.94,0,0,1-1,0c-.13,0-.3,0-.31-.12s.15-.15.27-.17a1,1,0,0,1-.52-.41h-.18a2.48,2.48,0,0,1-1.15.09l-1.61,0-.91.09c-.1,0-.24,0-.27-.07s.15-.13.22-.21a.59.59,0,0,1-.47-.49c-.27-.09,0,.27-.29.19s0-.35-.18-.47a5.11,5.11,0,0,0-2.2-.2,2.26,2.26,0,0,1-.56-.07c0,.16.21.31,0,.52-.15-.09-.29-.46-.55-.11,0,0-.19-.17-.44-.19s-.75,0-1.13,0c-.23,0-.42-.13-.43-.27s.22-.24.43-.23a.59.59,0,0,0,.25-.07c0-.08,0-.15.07-.2s0-.28.06-.38A9.37,9.37,0,0,0,3.5,94c.19-.19.48,0,.67-.12a1.45,1.45,0,0,1,1.25-.18.41.41,0,0,1,.38-.09c.18.06.46,0,.5.24s-.23.28-.46.32c.41.12.71.06.82-.29a.29.29,0,0,1,0-.09h0l0,0c.13-.21.06-.49.24-.76,0,.56.39.46.72.41s.32.09.18.29c.24,0,.21.14.18.28l.12.08c0-.5.52-.3.78-.34a1.2,1.2,0,0,0,.76-.34c.21-.24.33-.16.47,0l2-.28a1.17,1.17,0,0,1,.89.07.93.93,0,0,0,.82-.07c-.25,0-.48,0-.55-.33v0a5.48,5.48,0,0,0-.7,0,1.07,1.07,0,0,1-.61-.08c-.6-.07-1.17.17-1.78.11s-.9-.15-1.13-.83a.37.37,0,0,0-.29-.24,3.73,3.73,0,0,0-1.62-.29c-.48,0-.65-.5-1.09-.63-.18-.06-.07-.33.23-.32s.59,0,.83-.2c-.24-.13-.59-.21-.28-.58.09-.11-.06-.27-.18-.37-.27-.23-.08-.33.16-.36a1.14,1.14,0,0,1,.83.14,4.36,4.36,0,0,0,1.18.33l.32-.07a3.36,3.36,0,0,1-.5-.13,18.85,18.85,0,0,1,2.21-.37,19.24,19.24,0,0,1,3.64-.2c.54,0,.33-.35.53-.49a7.54,7.54,0,0,1,.1-1.57c0-.11-.07-.17-.15-.25s-.22-.17-.15-.28c.29-.49-.1-.85-.48-1.3a1.06,1.06,0,0,1,.59.41.7.7,0,0,0,.77.26.43.43,0,0,0,.33-.55c-.19-.39.46-.65.2-1,.7-.15.16-.7.59-.95.1-.05.08-.18,0-.25s-.14-.32-.08-.52c.11-.37.27-.54.81-.3.25.12.91-.09,1-.33a.62.62,0,0,1,.47-.42,17.85,17.85,0,0,0-3.26-.76c-.59,0-1.17-.09-1.76-.12a18.51,18.51,0,0,1-2.69-.51c-.18,0-.41,0-.48-.11s-.29-.18-.48-.21c-.75-.11-1.14-.51-1.06-1.07,0-.09,0-.16-.11-.2S9,78,9.13,77.83s.1-.1.09-.14a.69.69,0,0,1,0-.13l0-.06c-.07-.07,0-.11,0-.16.05-.23.22-.37.59-.54a1.45,1.45,0,0,1,.56-.15c.3-.61,1.09-.74,1.77-1a6.44,6.44,0,0,0,1-.4,19.89,19.89,0,0,1,5.73-1.73,22.69,22.69,0,0,1,4.89-.79,29.83,29.83,0,0,1,3.55-.33h.42a4,4,0,0,1,1.35-.24,25.76,25.76,0,0,1,2.66-.31L38,71.16a2.21,2.21,0,0,1-.84-.29h-.32a6.6,6.6,0,0,0-1.53.18A5.41,5.41,0,0,1,34.5,71a.11.11,0,0,1-.13-.1c-.11-.54-.27-.65-.87-.58a1.62,1.62,0,0,1-.31,0c-.44,0-1,.13-1.1-.45a3.1,3.1,0,0,0-1.25-.11.59.59,0,0,1-.58-.24,1.45,1.45,0,0,0-1.47-.71,2.61,2.61,0,0,1-.74,0c-.21,0-.47-.17-.44-.39s.35-.18.53-.15c.47.08.92.2,1.38.3.07,0,.16.07.19,0,.5-.27.9.1,1.34.17a4.46,4.46,0,0,1,1.48.4,4.79,4.79,0,0,1,1.49.37,2.54,2.54,0,0,1,.82.21,8.88,8.88,0,0,1,1.27.38,7.75,7.75,0,0,1,1.73.31c.82.18,1.62.42,2.45.56.94,0,1.89,0,2.82,0a5.81,5.81,0,0,0,1.77.12c.17-.05.58,0,.44-.31,0-.1.15-.09.25-.09s.44,0,.67,0c-.57-.11-1-.48-1.69-.38-.36.06-.52-.33-.81-.43a.85.85,0,0,1-.19-.09l-.76-.08a.23.23,0,0,1-.23,0l-.2-.07-.66-.1c-1.22-.22-2.46-.19-3.7-.3a4.56,4.56,0,0,1-1.6-.18,39.91,39.91,0,0,1-4.23-.62c-.31,0-.62-.09-.93-.14a5.06,5.06,0,0,1-2-.38c-.82-.23-1.66-.35-2.5-.5A10.91,10.91,0,0,0,24.71,67l-.05,0a14.19,14.19,0,0,1-1.58-.3,1,1,0,0,0-.71,0l-.05,0c.23.26.65.33,1,.52a1.84,1.84,0,0,1-.72.05,4.56,4.56,0,0,0-1.33,0c-.32.08-.46-.28-.8-.29s-.62-.09-.93-.07-.58-.11-.61-.42A6.75,6.75,0,0,1,15.86,66c-.64.11-1.16-.32-1.8-.23a2.82,2.82,0,0,1-.92-.08c-.26,0-.45-.13-.27-.44s.39-.61.1-1-.17-.48.37-.59c.7-.14.78-.3.5-.57a.43.43,0,0,0-.38-.09c-.27,0-.33-.13-.42-.26s0-.23.14-.31.28-.16.24-.3c-.11-.4.18-.68.48-1a1.72,1.72,0,0,0,.55-1.23c0-.41.49-.69.51-1.09-.25,0-.42.29-.73.11a1,1,0,0,1-.08-1c0-.13.2,0,.32,0,.75,0,.92-.11.67-.62-.06-.14-.24-.29.09-.39a16.23,16.23,0,0,0,2.58-1.26c-.7,0-1.3-.29-1.91-.31a23.71,23.71,0,0,0-2.39-.05c-.64.05-.57,0-.55-.48,0-.28.2-.6-.18-.89s-.25-.45.24-.61a2.48,2.48,0,0,0,.37-.17c.11-.07.28-.15.21-.26a.51.51,0,0,0-.44-.2c-.66,0-.83-.24-.5-.66,0,0,.09-.08.08-.1-.25-.72.67-1.22.66-1.89a4.69,4.69,0,0,1,.51-1.85c-.36.19-.49.48-.88.35-.21,0-.25-.08-.25-.2a.87.87,0,0,0-.09-.44c-.13-.3-.12-.42.12-.49a1.64,1.64,0,0,1-.91-1.17c-.06-.39-.44-.75-.53-1.18,0-.13-.12-.27-.06-.37.26-.45-.06-.44-.4-.45l-1.56-.05c-.11,0-.28.05-.25-.13s.15-.09.25-.08l1.9.11c0-.27-.18-.45-.19-.69s-.24-.17-.41-.18a4.11,4.11,0,0,1-1.52-.16H11.2c.21,0,.5.12.52-.19s.06-.6-.45-.63A8.84,8.84,0,0,1,10,42a.64.64,0,0,1,.72-.13.56.56,0,0,0,.55,0c.12-.11-.18-.32,0-.47a1,1,0,0,0-.49-.17c-.43,0-.85-.13-1.36-.22.56-.38,1,0,1.48,0a1.84,1.84,0,0,0,.66,0,9.36,9.36,0,0,1,4.91-.74c.52.08,1.05-.05,1.55.28a.37.37,0,0,1,.17.45c-.06.27.11.34.31.38a1.72,1.72,0,0,0,.78.08,7.66,7.66,0,0,1,2-.07c-.07-.16-.07-.28.17-.28s.37-.11.44,0-.21.13-.28.24a14.88,14.88,0,0,0,3.24-.49,9.29,9.29,0,0,0-2.66-1.2,11.5,11.5,0,0,1-2.74-1.11A5.57,5.57,0,0,0,18.22,38a4.15,4.15,0,0,1-1.94-1.14,2.16,2.16,0,0,1-1-1.14C15,35.17,14.63,34.6,15,34c.05-.07.08-.14.19-.14a.52.52,0,0,0,.25-.45c.08-.83.83-1.41,1-2.21a.52.52,0,0,1,.34-.39,31.09,31.09,0,0,1,2.65-2.47c.25-.36.79-.45,1-.84.39-.64,1.23-.92,1.55-1.65.17-.38.77-.46,1.2-.58s.87-.2,1.29-.35c.05-.28.34-.28.55-.36s.25,0,.35-.06.54-.09.48-.33-.33,0-.5,0h-.89c-.56.11-1,.48-1.66.39a10,10,0,0,1-2.18.59,5.08,5.08,0,0,0-.9.34c-.14.24-.33.25-.63.26a7.93,7.93,0,0,0-1.92.41,34.59,34.59,0,0,1-3.38,1c-.38.07-.71.37-1.16.22-.15-.05-.44.13-.45-.15s.27-.25.47-.29c.39-.31.95-.31,1.37-.57.1-.18.29-.19.47-.23.35-.06.69-.31,1-.35.73-.14,1.22-.94,2.1-.58.18.08.28-.15.45-.19.14-.28.49-.34.73-.39A2.65,2.65,0,0,0,20,24.12c.06-.06.12-.06.14,0,.05.28.18.21.26,0s.29-.2.53-.21A1.65,1.65,0,0,0,22,23.72a.55.55,0,0,1,.76-.08h0c.35-.28.88-.25,1.2-.61.15-.16.28.21.49.14.13-.32.45-.38.74-.47.46-.08.7-.51,1.17-.57h0a.77.77,0,0,0,.1-.49l-.21,0c-.26.24-.58.09-1,.19a1,1,0,0,1,.87-.38l.4-.2h0c0-.24-.14-.28-.46-.34.33-.06.49-.48.74,0,.08.13.24,0,.29-.07.39-.52.39-.53.92-.13a1.37,1.37,0,0,1,1-.28,3.14,3.14,0,0,0,1.17-.28l0,0c-.08-.07-.22-.07-.24-.19a.21.21,0,0,1,.1-.35c.45-.09.86-.38,1.36-.23.35-.2.34-.19.47.15a.2.2,0,0,0,.33.07,1.81,1.81,0,0,1,1-.21c.22-.39.39-.85,1-.65.22.14.48,0,.71.11.05,0,.08,0,.12,0,.4-.5.48-.51,1-.16a1,1,0,0,0,.53-.09c.28-.24-.1-.19-.18-.31.52-.27,1.14-.15,1.66-.36,1.29-.17,2.56-.43,3.86-.58a6.19,6.19,0,0,0,1.57-.19,6.83,6.83,0,0,1,2-.2c0-.2-.09-.29-.2-.33l-.11,0c-.14,0-.32,0-.46,0a26.46,26.46,0,0,0-3.86.59,5.63,5.63,0,0,0-1.87.33c.18-.34.21-.38.68-.48.87-.2,1.79-.22,2.66-.44a11.34,11.34,0,0,1,1.93-.26,3.71,3.71,0,0,1,.82,0A1.56,1.56,0,0,1,46.24,16a4.79,4.79,0,0,0,1.47-.42.35.35,0,0,0-.39-.1c-.74.36-1.55,0-2.31.2-.38.09-.8.09-1.18.19a2.76,2.76,0,0,1-.91,0c-.16,0-.07-.07,0-.09.23-.1-.19-.46.15-.42A5.26,5.26,0,0,0,44.82,15,19.58,19.58,0,0,1,47,14.71l.24-.19A4.8,4.8,0,0,0,45,14.23l-1,.21c-.38.3-.84.13-1.27.19h0a6.33,6.33,0,0,1-2.13.27c-.11.1-.23.22-.4.17a3.9,3.9,0,0,0-2.27.23,17.59,17.59,0,0,0-2.06.47c-.07,0-.15.11-.22.11-.85,0-1.57.48-2.42.46a7.36,7.36,0,0,1-1.8.55c-.45.17-.93.25-1.4.38a.34.34,0,0,1-.38-.07c-.1-.14.09-.21.17-.29a1.71,1.71,0,0,1,1.11-.3l.68-.1a2.47,2.47,0,0,1,1-.34,20.91,20.91,0,0,1,2.83-.59,1.6,1.6,0,0,0,.4-.11c.24-.28.63-.14.95-.25a7.33,7.33,0,0,1,.75-.24c.17-.33.06-.51-.36-.46s-1,.13-1.43.19a1.73,1.73,0,0,1-.64.12,6.15,6.15,0,0,1-1.48.43,4.84,4.84,0,0,1-.64.13c.38-.42.38-.42,1-.49.47,0,.84-.41.78-.76v-.09c-.24,0-.38.28-.66.17l-1,.11c-.32.22-.74,0-1.07.21a.67.67,0,0,1,.67-.29l.29-.12c0-.2.2-.18.35-.18a.75.75,0,0,0,.62-.28c.25-.33.48-.41.82-.12,0,0,.14,0,.21,0l2.22-.47c0-.31.15-.43.48-.47.66-.1,1.31-.24,2-.37a2.69,2.69,0,0,0,1-.2c.14-.34.46,0,.69-.16a1.45,1.45,0,0,1,1.14-.16c.15,0,.3,0,.22-.17s0-.13.1-.08c.31.16.32,0,.31-.22s.09-.23.24-.26.23,0,.29.05-.11.18-.14.26a3.19,3.19,0,0,0-.07.54c.22,0,.44,0,.65-.09a1.12,1.12,0,0,0,.33-.22c.15-.09.22-.23.48,0s1-.16,1.17-.55c.1-.19.14-.41.41-.51s-.14-.29.06-.41h0c0-.25.2-.28.43-.27s.37.11.56,0c.45,0,.87-.43,1.36-.11.09.06.2-.06.29-.06.3,0,.41.1.23.35-.11.09-.08.22-.11.45-.23-.36-.55-.29-.82-.35s-.22,0-.24.1.34.18.55.32c-.5-.19-.28.25-.45.33s-.66,0-.73.46l.53,0c.24-.28.69-.15,1-.39,0-.14.1-.19.24-.09s.42,0,.62.1h0c.37-.14.4-.61.85-.67.2,0,.29,0,.18.19.21.11.43.29.5-.11,0-.08.15-.17.17-.13.25.44.92,0,1.14.45.3.26.51-.15.81-.08s.59.14.58-.28c0-.07.1-.13.2-.11s.07.05.09.05c.46-.3,1.08.2,1.51-.24,0,0,0,0,0,0,.54-.15.39-.43.17-.73a.28.28,0,0,0-.41,0,.47.47,0,0,1-.24,0c-.42,0-.8.3-1.23.14,0-.27,0-.29.36-.33.17,0,.28-.2.47-.15.28-.17.6,0,.87,0,.74-.26,1.54-.24,2.28-.47.33-.1.52.24.86.19s.35,0,.33-.23.22-.57-.33-.48h0v.1h0c-.29.2-.52.05-.73-.12a1.08,1.08,0,0,0-.78.25c-.21-.26.06-.37.16-.53s-.22-.06-.29-.15c.29-.44.83-.25,1.23-.41.22-.47.59-.57,1.11-.4a.44.44,0,0,0,.48-.21c.11-.19.34-.27.47-.41.4-.41.4-.06.49.16.37-.2.51-.07.51.28,0,.19,0,.45.33.3.23,0,.36-.24.61-.19s.61.1.65-.3-.13-.47-.51-.45a1,1,0,0,1,1.09-.13c.18.12.1.38-.17.48a.43.43,0,0,0-.09.38c.54.17-.06.3,0,.46s.25.19.43.12c.44,0,.59,0,.59.29v0a.34.34,0,0,1,.3-.15.26.26,0,0,1,.26.26.28.28,0,0,0,.33.28c1.19,0,2.38,0,3.56-.1l.14-.12c.07-.17.26-.3.27-.5s.16-.08.26,0,.14.14.14.23-.13.2-.21.29c.46.13.8,0,.94-.3.07-.13,0-.24-.11-.23-.48,0-.92-.19-1.4-.15-.23,0-.42,0-.45.29,0,.11-.09.24-.23.2a11,11,0,0,0-1.72,0c-.17,0-.41,0-.45-.17s.21-.21.4-.31a2,2,0,0,0-.88.12A4.08,4.08,0,0,1,64.48,7c-.31,0-.21-.23-.29-.36a1.51,1.51,0,0,1,1.23-.5c.11,0,.25.11.34,0,.42-.45,1-.25,1.53-.34.29-.06.6.18.77.3a1.79,1.79,0,0,0,1.44.14,1.81,1.81,0,0,1,1,0,.34.34,0,0,0,.35-.08c0-.22-.47-.15-.36-.36s.41,0,.62-.07.72-.09,1.08-.14c0-.12,0-.24-.06-.37A.21.21,0,0,1,72.18,5a1.86,1.86,0,0,1,1.09.21c.27.37-.09.42-.33.53-.08.06-.21.11-.22.18s.15.07.24.1c.43.16.69-.3,1.11-.25.09,0,0-.28-.06-.42S73.77,5.08,74,5s.34-.07.48.18c-.19-.61.16-.54.59-.59a5.62,5.62,0,0,0,1.73-.16c-.1-.25-.35-.16-.54-.16a1.83,1.83,0,0,0-.39.09c-.2,0-.49.14-.53-.11s.28-.2.47-.25c.47-.13,1,0,1.45-.19a.29.29,0,0,1,.38.17c.06.18-.13.22-.26.2-.42-.06-.45.31-.51.47s.24.26.45.2.68-.29.92.17c0,.08.39.23.41-.14s.53-.19.56-.5c0,0-.07-.07-.1-.07s-.27.06-.33-.11,0-.17.09-.2.21.06.28.15a1.29,1.29,0,0,0,.17.16c.21,0,.2.19.33.26s.26.1.36,0,.16-.28-.07-.34c-.51-.14-.3-.4-.13-.64a7.16,7.16,0,0,1-1.64-.14c-.37-.13-.53-.17-.83.1-.12.11-.53,0-.56-.36-.13.06-.38,0-.23.3.06.12-.31.19-.46.18-.6,0-1.2-.13-1.8-.2-.1,0-.16-.06-.14-.16a.15.15,0,0,1,.21-.13c.27.17.46,0,.66-.08a.65.65,0,0,1,.59,0c.3.12.6.16.61-.28,0-.09,0-.16.13-.17s.14.07.15.16a.36.36,0,0,0,.39.31c.26-.34.71-.2,1-.23s.87-.32,1.35-.18c.11,0,.26,0,.24.16s.1.26.32.25,0-.24.1-.34,0-.12.1-.15-.13-.19-.23-.25a.32.32,0,0,1-.12-.52c.18-.21.33,0,.47.13h0c0,.1.15.19.22.17.57-.1.44.19.35.47,0,0,.07.05.09,0a13,13,0,0,1,2.41-.15c.13,0,.47.07.44-.26-.17-.16-.46-.21-.52-.46l-.15-.08-1,0a.81.81,0,0,1-.75-.1.5.5,0,0,1,.74-.09c.28,0,.55-.18.83,0A.29.29,0,0,1,83,1.22c-.3-.27-.13-.42.18-.39a2.07,2.07,0,0,0,.57-.08c.18-.05.3,0,.3.19a.74.74,0,0,1-.31.54c-.11.11-.19-.05-.21-.16-.15.09-.07.23-.09.35.21.14.57.07.63.4s.35.11.51.21c.33.13.26-.35.55-.29.12,0,.2-.06.3-.11s.07-.31.11-.47a.2.2,0,0,1,.09-.3c.08-.14,0-.41.29-.36s.11.24.05.37h.18A.22.22,0,0,0,86.2.81a.26.26,0,0,1,.19-.34c.14,0,.2.09.28.17s0,.22-.12.29L86.46,1c.13.16.47-.06.49.24a.85.85,0,0,1-.5,0L86,1.42a1.47,1.47,0,0,1,.42.54c.41.2.8.47,1.24,0,.08-.09.43,0,.66,0-.14.15-.37.12-.6.24.3.12.58,0,.8.12.1,0,.27-.06.28-.1.07-.48.29-.36.58-.14.08.06.14.07.17.06h0c.08,0,.08-.19.15-.25-.5-.35.07-.42.2-.61A.83.83,0,0,1,90,1.21c.08-.24-.17-.34-.31-.49.32-.16.56-.51,1-.17.22-.16.36-.2.45.13,0,.18.39.31,0,.52,0,0-.09.1-.11.09-.65-.28-.68.46-1.14.51.3.36.71-.11,1,.18a.79.79,0,0,0,1,.18c-.07-.15-.27-.1-.42-.18a.74.74,0,0,1,.55-.08l.09,0c.29-.1.53-.21.19-.5-.15-.12.07-.23,0-.35.19-.37.64-.44,1-.66.12-.08.38-.12.47,0a.38.38,0,0,1-.17.44c-.18.1-.31.1,0,.19.11,0,0,.17,0,.25s-.45,0-.32.31c.09.13.37,0,.36.26.37-.08.74-.13.73-.61,0-.27.39-.31.48-.54S94.58.5,94.71.43a.69.69,0,0,1,.72-.07.51.51,0,0,1,.33.19l.32-.08a.27.27,0,0,1,.3.14c.05.08-.08.3.2.18.12-.05.33,0,.31-.23s.18-.3.4-.28c.9.08,1.8,0,2.7.07.45,0,.91-.06,1.38,0a.65.65,0,0,1,.58.36c.31.26.48.67,1,.72.26,0,.59.15.59.51.23.24.63.33.73.69a14.23,14.23,0,0,1,2.26.15,1.91,1.91,0,0,0,1.57-.48s0,0,0,0l-.1,0c-.25-.13-.58-.12-.77-.36-.26,0-.59.28-.73-.16,0-.13.26-.23.08-.4s-.27-.55-.6-.25-.46.29-.57.54c0,.09,0,.24-.24.24-.15-.35.2-.69,0-1.07a2.84,2.84,0,0,1-2,0A11.13,11.13,0,0,1,107,.55a4.34,4.34,0,0,1,1.08.09c.13,0,.32,0,.3.17s-.18.12-.3.12c-.36,0-.37.1-.11.29h0a1.21,1.21,0,0,1,.4.38l.1.1.34-.11c.18-.07.36-.16.52,0s-.08.27-.12.4a2.92,2.92,0,0,1,1.06.1,2.8,2.8,0,0,1,1.15.07c.44-.32.78-.62.17-1.09-.16-.12.08-.22.21-.17.57.2,1.19,0,1.75.17.31.1.6-.06.89-.1a3.08,3.08,0,0,1,.8,0c1,.16,2,.18,3,.26.56.07,1.13-.11,1.69,0,.3,0,.63-.08.9.13l0,0c.9-.42,1.75.27,2.64.11.18,0,.46-.07.49.15s-.31.16-.48.22-.27,0-.38.09c.11.17.29.14.47.14h1.75c.14,0,.28,0,.39.09.24,0,.54,0,.47-.37,0-.14.22-.24.36-.12s.53.09.8.05c.5.07.72.17.77.35.28.17.11-.16.26-.19a1.07,1.07,0,0,1,1.14.18c.15-.44.5-.45.91-.37a1.18,1.18,0,0,0,.83,0c.21-.1.64.28.61.49s-.16.21-.31.14-.63,0-.88-.19c0,0-.12,0-.32.09.37.07.56.23.85.22a1.32,1.32,0,0,1,.83.25c.28.25.39.1.52-.11.39-.06.38.2.37.42s-.21.24-.41.19a.36.36,0,0,0-.41.11,1,1,0,0,1-1.61-.27c-.05-.11,0-.26-.24-.24h-.19a2.55,2.55,0,0,0-.4.27.35.35,0,0,1,0,.13c-.17.24,0,.34.21.33a4.65,4.65,0,0,1,1.7.25.41.41,0,0,0,.4-.06c.42-.39.93-.27,1.42-.22l.06.06c.14,0,.28.06.42.09l.26-.08c.05,0,.13,0,.12-.08-.23-.43.1-.46.42-.51l.15,0V3l-.16,0c-.21,0-.4.08-.61.1a.53.53,0,0,1-.38-.11c-.34-.25.45-.35.08-.63s-.16-.31.4-.43l.15,0c.39,0,.69.05.78.49s1,.34,1.22.09l.27-.32c.44.52.53.53,1.22.15.18-.1.34-.24.47.07s.42.32.7.32a.74.74,0,0,1,.67.38,1.75,1.75,0,0,0,1.34.39c.16-.1,0-.35.2-.47.37-.19.23.3.48.28a1.58,1.58,0,0,1,.62.05c.35.14.54-.07.79-.19,0-.22-.34-.13-.34-.35s.34,0,.52,0,.55,0,.76-.26.33,0,.4.15c.3.23.16-.19.31-.17.32-.27.64-.12,1,0h0a1.82,1.82,0,0,0,1.15.1,1.57,1.57,0,0,1,.61.07c.16.06.08.13,0,.2v.12a1,1,0,0,0,.89.2,2.8,2.8,0,0,1,1.34.25c.36.14.73-.1,1.06.11.07-.33.33-.32.61-.27.05,0,.12,0,.14-.06s.12-.32.35-.23.08.24.07.37v.27c.07.12.31.17.24.33s-.29.06-.43.06a5,5,0,0,1-.75-.06c.11.19.21.21.44.19a6.46,6.46,0,0,1,1.63.27s0,0,0,.08c0,.26-.22.54.1.76a3.11,3.11,0,0,1,1.25.21c.3-.18.68-.08,1-.22-.12-.24-.39,0-.57-.16s-.22,0-.28-.15l.29-.15V4.55a.44.44,0,0,0-.59-.39c-.15,0-.32-.06-.46,0s-.37,0-.38-.16a1,1,0,0,1,.12-.56c0-.07.2,0,.25.06.19.45.61.44,1,.42.2,0,.42,0,.56.17.63-.23.91.22,1.22.55s.1.48-.27.5-.49,0-.54.29a2.38,2.38,0,0,0,.88-.08.66.66,0,0,1,.46,0c.35.16.66.5,1.09.11,0,0,.2,0,.29.06a1,1,0,0,0,1.28-.22.76.76,0,0,1,.77,0c.21.17.34,0,.5,0,.17-.36.38-.34.64-.08s.23,0,.22-.13c0-.39.17-.35.43-.18.57.16.42.46.19.77,0,.11-.33.12-.09.29s.34.33,0,.58a.24.24,0,0,0-.11.3.29.29,0,0,0,.32.19c.35-.07.65-.29,1.05-.18.14,0,0-.15.07-.21s.07-.26-.1-.33-.44-.15,0-.28a.12.12,0,0,0,.07-.2c-.09-.12-.31-.27,0-.32s.63-.3.92,0c.06.08-.05.14-.07.24.19-.35.47-.32.77-.19.16-.16-.28-.35.05-.48a.82.82,0,0,1,1-.53c.16.07.09.21.08.33v.2c-.17.36-.35.3-.54,0l-.2-.11-.22.2a5.55,5.55,0,0,0,1.38.56c.15,0,.23-.11.33-.19s.35-.14.41.11a.56.56,0,0,1,.43.16c.24,0,.59-.3.62.21.19.15.37.42.57,0,.08-.15.25-.11.37-.06s.11.19.08.29c-.25.86-.12,1,.9,1.36.08,0,.16.06.24,0,0-.48-.53-.3-.8-.45h0s-.07,0-.08,0c-.09-.27.37-.33.29-.6.22,0,.46-.19.65.07s.19,0,.28,0c0-.25.36-.33.4-.58,0-.09.24-.18.4-.15s.16.17.2.29c.09.29-.22.24-.34.35.13.21.74.29.22.67.38.49.84.12,1.27.1a.27.27,0,0,0,.22-.2,6.68,6.68,0,0,0,.39-.81c.11-.3.21-.07.32,0,.3.16.44-.12.66-.2s.37.48.74.26c0,.16.14.32,0,.45l-.27.21a1.32,1.32,0,0,1,.39.1c.55.16.56.15.18.52-.09.08-.06.17,0,.26h.07a1,1,0,0,0,.84.17c.11-.14,0-.38.24-.47V7.39c0-.13-.08-.28.11-.37a1.09,1.09,0,0,1,.81-.19c.23,0,.37,0,.33-.28.34-.23.44-.18.56.26.4,0,.81.27,1.19-.09.1-.1.22,0,.28.1l.19.29a.34.34,0,0,0,.21.21c.43-.14.52,0,.32.41.19-.17.34-.3.54-.14.48-.06,1,.11,1.44-.09a.22.22,0,0,1,.28.08c.07.13-.15.07-.16.17,0,.33-.24.51-.6.63-.21.07-.24.27,0,.36a5.53,5.53,0,0,0,.7.18c.24.05.48.13.6-.18,0,0,.12,0,.15.08.33.14.74,0,1.05.18s.61,0,.86.2c.19,0,.13-.11.1-.2-.12-.3-.5-.37-.68-.62s-.22-.07-.33,0-.08.11-.14.13a1.05,1.05,0,0,1-.76.06c-.06,0-.14-.07-.11-.14.1-.23.39-.3.59-.35s.53-.46.78,0c0,.09.18-.07.27-.07.25,0,.62-.13.52.33,0,.19.23.23.27.38.3-.05.58,0,.74-.4s.58-.29.82-.1a1.61,1.61,0,0,0,.87.22c.76,0,.94.18,1,.85,0,.07-.05.15.09.16s.21,0,.24,0c.17-.62.36,0,.54,0s.51.24.68-.12c-.24-.09-.32-.39-.8-.4.73-.24,1.24,0,1.26.53a2.33,2.33,0,0,0,.13.83h0c.43.36.87.59,1.38.1.07-.07.17-.08.19,0,.06.34.44.29.66.44.44,0,.62.17.63.57a3,3,0,0,0,.22.82c0,.17.21.15.34.08a2.08,2.08,0,0,1,1.26,0,4,4,0,0,0,1.41-.15,4.7,4.7,0,0,1,1.33-.32.41.41,0,0,0,.16,0c.18-.07.2-.54.43-.29s.88.53.48,1.11c-.21.32,0,.69,0,1,0,.17.23.14.38.17.33.05.37.08.41.28h0a2.11,2.11,0,0,1,1.1,1.19A1.25,1.25,0,0,0,203,16c.23.12.36.32.67.21,0,0,.1,0,.11.08a1,1,0,0,0,1.13.56,1.49,1.49,0,0,1,.36-.05c.29,0,.49.11.25.41s-.36,1-1,1.22c0,0-.1.09-.11.09-.55-.35-.37.23-.54.35a5.23,5.23,0,0,1-1.61.91c-.28.09-.38.4-.7.34-.51.1-.7.52-1,.82s-.3.37-.47.53a1.24,1.24,0,0,0-.52,1.37c.1.34-.13.65-.53.79a3.81,3.81,0,0,0-.92.59c-.88.57-1.53,1.42-2.66,1.68-.57.13-.69.67-1,1.05-.08.09-.08.25-.21.31-.65.32-1,.94-1.69,1.24-.08.24-.26.44-.23.71s-.13.22-.31.23a1,1,0,0,0-.91.66,1,1,0,0,1-1.07.68,3,3,0,0,0-1.87.92c-.21.27-.61.19-.92.22-.54,0-1.08,0-1.26.65-.09.29-1.36.59-1.71.46a1.42,1.42,0,0,0-.46-.06c-.15.26-.45.33-.69.47s-.27.14-.18.29a.26.26,0,0,0,.33.07,1.38,1.38,0,0,1,1.26.2h0a3.59,3.59,0,0,0,1.71-.37.49.49,0,0,1,.39-.11h0c.3,0,.51-.31.85-.27h0l.1,0a5.87,5.87,0,0,1,1.51-.38,2.13,2.13,0,0,1-1.2.78,6.32,6.32,0,0,1-1.41.54c-.74.28-1.52.39-2.26.64l-.13.16c0,.34-.3.24-.49.27-.35.07-.72.07-.83.49a.29.29,0,0,1-.35.15c-.41-.22-.61,0-.85.24a.06.06,0,0,0,0,0c-.08.51-.11.69-.35.76.07.05.1.14.16.19.26,0,.33-.11.46-.22s.23-.21.41-.16,0,.19,0,.28a.5.5,0,0,0,.13.12l.19-.1a.25.25,0,0,1,0-.07h0a3,3,0,0,1,1.73-.22h0a2.12,2.12,0,0,1,1,0c.22-.09.47-.24.6.11h0l.6.09h0c.11-.05.25-.11.32,0a1.53,1.53,0,0,0,.37,0,2,2,0,0,1,1.12,0c.28.1.34-.08.43-.2s.4-.44.75-.06c.17.18.54.14.81.19a2.08,2.08,0,0,1,.52.12c.3.15.3.37,0,.42a5.1,5.1,0,0,1-2.27.11h0a.9.9,0,0,0-.63.19s0,0,0,0h0l0,.11a9.09,9.09,0,0,0,1.73-.1,2.44,2.44,0,0,1,1,.17c.31.09.64.41.87-.13,0-.12.39-.18.59,0s.27.11.31,0,.08-.26-.15-.28-.53-.31-.87-.12a.17.17,0,0,1-.25-.1c0-.16.15-.19.24-.16a4.29,4.29,0,0,0,.5.07s-.06-.07-.06-.11.12-.15.26-.15H193a2.36,2.36,0,0,1,1.27-.33c.23,0,.28.23.47.31h0c.46.21.15.44-.08.45a.84.84,0,0,0-.76.47,8,8,0,0,0,1.45.24c.3-.33.62-.24,1-.11s.07.19.08.28c.52.14,1.08,0,1.6.19a.17.17,0,0,0,.22-.06,1,1,0,0,1,1-.2c.62.17,1.25.22,1.86.37l.31,0c.33,0,.66-.1.85.24.07.12.23.06.32.12.46.41,1.13.2,1.65.45.16.07.35,0,.47.23s.27.36.4,0a.44.44,0,0,1,.29,0,9,9,0,0,0,3.34.4,1.09,1.09,0,0,1,.3.07c.12,0,.33,0,.31.19s-.22.08-.34.11l-1.76.42v.13l1.68.1a.76.76,0,0,1,.21,0c.23.08.63,0,.65.24s-.37.09-.57.17a2.85,2.85,0,0,1-.48.13.22.22,0,0,1,.12.22c0,.17.19.11.26,0,.23-.27.78-.15,1-.44,0,0,.19,0,.2,0,.2.35.7.21,1,.23.53.05,1,.33,1.61.14.32-.1.68.12,1,0h0a.77.77,0,0,0,.25.14c.17,0,.4.11.35.25s-.31.07-.47.1a.14.14,0,0,0,0,.07h0c0,.15.15.1.28.09s.29,0,.26.18-.19.16-.33.12a1.28,1.28,0,0,0-1.15.21c.33,0,.51-.14.73-.11s.28,0,.31.12.09.28-.09.33c-.37.09-.66.4-1.13.27a.81.81,0,0,0-.83-.22c-.35.05-.78-.12-1,.21-.25-.07-.11-.37-.25-.32-.32.1-.56-.11-.83,0-.09,0-.23.12-.21.16.14.38-.14.23-.34.15s-.2-.12-.29-.05c-.38.27-.91.15-1.35.27s-1-.16-1.54-.16h-.1c0,.42.44.69.67,1,.06.09.25.13.24.26a1.4,1.4,0,0,1,.51.1c.25,0,.51-.05.57.19s-.17.27-.39.32-.41.09-.41.24c0,.32-.27.22-.48.19s-.37-.11-.4.06a.29.29,0,0,0,.33.28c.54-.05.48.22.48.46,0,.57-.12,1.09-1.12,1.27.66.16.9.45.77.89.05.22-.14.28-.38.3-.45.05-.87.11-.82.57,0,.16-.19.25-.35.33s-.36.33-.06.61-.45.85-.94.84c-.85,0-1.71,0-2.55-.06a1.5,1.5,0,0,0-1.19.35.83.83,0,0,1-.31.2c-.39.13.14.11.06.19a8.7,8.7,0,0,0,2.28,0,8,8,0,0,1,1.46.15,5.11,5.11,0,0,0,1.36.11,4.85,4.85,0,0,1,.66,0c.24,0,.37.06.21.28a.47.47,0,0,0,0,.52c.35.35.18.51-.28.65-.1,0-.29.06-.2.19s.12.2.36.18.37.11.34.38c-.08.64-.75,1.15-.66,1.82,0,.28-.29.52-.27.82.55-.25.61-.22.67.25,0,.23-.18.23-.37.24-.48,0-.52.22-.3.45s.13.36-.21.48a2.68,2.68,0,0,0-.58.36A15.88,15.88,0,0,1,202.49,60c-.14.07-.3.11-.43.19a2.37,2.37,0,0,1-1.68.42,1.23,1.23,0,0,0-.63.11,11.86,11.86,0,0,1-2,.8c0,.35-.32.51-.63.69a.27.27,0,0,1-.17.1.82.82,0,0,1-.42.11c0,.19.56.12.32.4a.15.15,0,0,0,0,.07c.31.06.68-.1.91.17a.31.31,0,0,1,0,.39h1.11a11.94,11.94,0,0,1-1.35.27c-.08.13-.08.26.17.42.1.06-.1.18-.2.17-1-.07-2,.34-3,.21l-.28,0c-.74,0-1.47.15-2.21.08l-4.18.1-.35.08c.46.34,1.11.23,1.66.36.19,0,.45,0,.68.09a.7.7,0,0,0,.64-.11c.23-.17.5-.36.73,0,.09.16.44.11.56.27a3.67,3.67,0,0,1,1.1,0c.14,0,.3,0,.29.21s-.19.14-.32.13a1.45,1.45,0,0,0-.29,0c0,.24-.3.28-.62.26l-.81,0a.9.9,0,0,1-.4,0h-.25c-.45.37-.48.37-1-.06a.07.07,0,0,1,0,0s-.05,0-.11,0c-.13.25-.38.27-.68.2,0-.26.59,0,.35-.41h0a.44.44,0,0,0-.27.14c-.21.19-.28,0-.42-.14a.47.47,0,0,1-.22.31.36.36,0,0,1,.07.1l-.19,0a1,1,0,0,1-.43,0,.43.43,0,0,0-.15.15.24.24,0,0,1,0-.17h-.05a.37.37,0,0,1-.11,0,.27.27,0,0,0,0,.09c0,.19-.23.16-.38,0a.37.37,0,0,1-.11-.39l-.08-.06-.08.07a.9.9,0,0,1-.33.18c.11,0,.27.08.33.26-.61.09-1.07-.4-1.64-.33.11.29-.06.4-.34.45h-.83c-.51,0-1,0-1.54,0,0,.12-.15.13-.28.14l-.15,0a1.63,1.63,0,0,0-.31.27,14.57,14.57,0,0,1,1.74.14,4.91,4.91,0,0,0,1.08,0,2.79,2.79,0,0,1,1.72.29s0,0,0,0a17.19,17.19,0,0,0,2-.17,1.32,1.32,0,0,1,.58,0,6.81,6.81,0,0,0,2.38,0c1.36,0,2.72,0,4.07-.09s2.58,0,3.87,0a2.31,2.31,0,0,1,.32.06,15.64,15.64,0,0,1-2.59.25c-1,0-2,.14-3,.18-.73,0-1.48,0-2.21,0l.5,0a14.8,14.8,0,0,0,2.12.15c1.13,0,2.25.15,3.38.17h0a1.68,1.68,0,0,1,1.32,0c.11.06.24,0,.35-.06.09.21.43.1.56.25l.22.08H201a.69.69,0,0,1,.53,0l.71-.08c.1,0,.24,0,.27.08s-.15.13-.22.2a.91.91,0,0,1,.32.19h.14l.15,0c-.1.14-.09.21,0,.26s0-.21.17-.16.16.17.14.28c.16,0,.29.1.24.24a4.65,4.65,0,0,0,2,.16,1.77,1.77,0,0,1,.55.07c0-.17-.2-.32,0-.52.16.08.3.46.56.1,0,0,.19.18.44.19s.75,0,1.13,0,.42.14.42.27-.21.24-.42.23l-.1,0,.5.08c-.21.23-.5.17-.72.21,0,.13,0,.26-.06.35s0,0,0,0c.27.15.54.3.82.44s.26.27.53.27h.11a1.65,1.65,0,0,1,1.06.28c.07.06.18.11.16.2-.06.3.14.27.43.2s.33,0,.36.3c.39-.35.69-.06,1,0a2.48,2.48,0,0,1,1,.27l0,0h0l0,0c.44-.27.86,0,1.24.09S214.7,73,214.23,73.24ZM197.48,64.1h0v0ZM194.6,36.86Zm-3.86.4h0Zm-1.28-27.08Zm-116.32-5,.08,0h-.07ZM39.33,14.42c-.21-.14-.52,0-.71-.18-.11.21-.39.15-.59.3A10.45,10.45,0,0,0,39.33,14.42Zm1.34.17c0-.24-.26-.29-.37-.44h0A3.19,3.19,0,0,0,40.67,14.59Zm4.72-1.79h0Zm2.33-2.59h.05l0,.06h0a.19.19,0,0,0,0-.09A.2.2,0,0,1,47.72,10.21Zm0,.48c.07,0,0,0,0,0s-.2,0-.23-.13,0-.26.12-.3a.56.56,0,0,0-.23,0s0,0,0,0C47.45,10.49,47.5,10.66,47.75,10.69ZM34.45,69.75h0Zm-6.31,38.09h0Zm7.73,8.08h-.11C35.82,116,35.85,116,35.87,115.92Zm-24.74,7Zm4.12.7,0,0h0Zm8.53,2.52a.51.51,0,0,0-.28-.12h-.35a6.69,6.69,0,0,1-.78-.14c-.09,0-.19-.11-.24-.08l-.1.05a.62.62,0,0,1,0,.1c.08.22-.27.18-.37.32a.18.18,0,0,1,.07.05h.15c.2,0,.44.25.61-.09,0-.06.14,0,.24,0l.07,0a1.35,1.35,0,0,1,.53,0h.11A.83.83,0,0,1,23.78,126.09Zm-3.37,28.22Zm11-36.76a.08.08,0,0,1,0,0l0,0Zm8.46-1.78h0v0Zm1.91.54Zm.86,38.6h0v0Zm1.53-38.81h0Zm92.52,43.24-.08,0h.07Zm33.81-9.27c.2.14.52,0,.71.18.1-.2.39-.14.58-.3C171.37,150,171,150,170.54,150.07Zm-1.35-.16c0,.24.27.28.38.43h0A2.69,2.69,0,0,0,169.19,149.91Zm-4.71,1.79h0Zm-2.33,2.59h-.05l0-.07,0,0a.36.36,0,0,0,0,.09A.12.12,0,0,1,162.15,154.29Zm0-.48c-.06,0,0,.05,0,0a.16.16,0,0,1,.22.13c0,.14,0,.26-.12.3a.45.45,0,0,0,.24,0,0,0,0,0,1,0,0C162.42,154,162.37,153.84,162.11,153.81Zm29.46-39.47h0l0,0Zm-2.51-5.78h0Zm18.65-14.64s0,0,0,0h0Zm-8.89.67a1.65,1.65,0,0,0,.63,0ZM193.43,97ZM195,86.79h-.09v0Zm-.21-.52v.11a.3.3,0,0,1,.13,0C194.86,86.35,194.82,86.31,194.81,86.27Zm7.26-8.5h.06l-.06,0A0,0,0,0,1,202.07,77.77Zm-1.14-.14h0Zm-4.39.55,0,0h.07Zm-.95-.16-.06,0h.07S195.59,78,195.59,78ZM181.37,65.56l-.15-.1h0c-.49,0-.93-.25-1.47-.24.09.17.55.19.34.35l-.1.08a2,2,0,0,0,.21,0C180.59,65.34,181,65.57,181.37,65.56Zm-9.69,25.26h0ZM177.74,66a.54.54,0,0,1-.12.09.35.35,0,0,1,.14.24l.2-.07c0-.09.22-.1.11-.22s-.17-.09-.21-.16A1.35,1.35,0,0,0,177.74,66Zm-7.28,24.29h0Zm-1.63-24.63c.08-.14-.08-.14-.17-.19s-.32,0-.37-.16a26.16,26.16,0,0,0-2.8,0c-.27.06-.56.1-.88.19A11.05,11.05,0,0,1,167,66h.22a.7.7,0,0,0,.12-.26A5,5,0,0,1,168.83,65.63Zm11.4.55c0-.09,0-.12-.1-.15s-.35-.1-.32-.26l0,0a.67.67,0,0,1-.48,0,1.7,1.7,0,0,0-.64-.13s0,0-.11.07c-.43.12-.09.25,0,.39C179.14,66.14,179.68,66.43,180.23,66.18Zm5.34-28.53a.1.1,0,0,0-.14,0ZM179.46,96h0Zm5.92-27.55.1,0h0l.15,0a1.35,1.35,0,0,1,1.48.38.52.52,0,0,0,.19-.11l.17-.11a.44.44,0,0,1,.49-.26l.16,0h.17l-.31-.1a.83.83,0,0,0-.27,0,7.63,7.63,0,0,1-2.74-.09A3.34,3.34,0,0,0,185.38,68.43Zm4.33,0-.16,0a1.13,1.13,0,0,0-.68,0h0a1.85,1.85,0,0,1,.83.19,2.21,2.21,0,0,0,.34.18.18.18,0,0,1,.22,0s0,0,.06,0a7,7,0,0,1,.79,0,6.6,6.6,0,0,0,1.54,0,.15.15,0,0,0-.06-.1h-.13A17.73,17.73,0,0,1,189.71,68.39Zm-3.82-2.91a1.17,1.17,0,0,1-.53-.27c-.13-.15-.63-.13-.92.07v.16a.69.69,0,0,1,.49.28h0c.06,0,.22,0,.17-.06-.23-.42.19-.21.28-.21S185.76,65.49,185.89,65.48Zm1.66-.46h0Zm8.78-1.57h0s0,0,0,0ZM193.2,36.86h0Zm.2.77a.68.68,0,0,0-.76-.46c-.22,0-.41-.05-.62,0H192a.28.28,0,0,1,.11.08s.09.08.11.07C192.68,37.15,193,37.5,193.4,37.63Zm-6.05.7c0,.06-.15.05-.24,0l-.08,0a1.18,1.18,0,0,1-.53,0h-.1a1.65,1.65,0,0,1-.31,0,.6.6,0,0,0,.28.12h.35a6.68,6.68,0,0,1,.78.13c.09,0,.19.11.24.08l.1,0a.81.81,0,0,1,0-.11c-.08-.21.27-.17.37-.31l-.08-.06a.32.32,0,0,1-.14,0C187.76,38.24,187.52,38,187.35,38.33Zm-.19-.52h.07c.12,0,.33,0,.4-.12A1.41,1.41,0,0,0,187.16,37.81Zm-4.46-.28h0l0,0,.54,0c.14,0,.23.06.35.09s.42.07.43-.12a.91.91,0,0,1-.45,0A.81.81,0,0,0,182.7,37.53ZM167.19,9.59l0,0h0Zm-45.55-7h.09a.24.24,0,0,0-.08-.09A.22.22,0,0,0,121.64,2.59Zm-2.9-1.09h0l0,0Zm-.5,1.23h0Zm0,0Zm-8.7,0,.09,0S109.51,2.66,109.49,2.71Zm-7.75-1a1.31,1.31,0,0,1,.05.48h0c.38.12.8.13,1.18.27l.09,0c.08-.09.05-.2,0-.3l0,0a.25.25,0,0,1-.21,0h0a1.18,1.18,0,0,1-.87-.15,1.88,1.88,0,0,1,.84,0c0-.08.1-.2,0-.21-.34,0-.66-.32-1-.09Zm-3.8.52.06,0,0,0ZM64.11,7.74a.58.58,0,0,0,.18,0C64.25,7.7,64.2,7.63,64.11,7.74Zm-2.7,0c0-.07-.17-.08-.19-.17h0l0,0C61.27,7.65,61.29,7.74,61.41,7.72Zm-.58-.59c.43.07.43-.25.56-.45a.21.21,0,0,1-.11,0C61.39,7,61,7,60.83,7.13ZM60,7.87a1.65,1.65,0,0,1,.37.2v0c.16-.11.31,0,.44,0-.21-.12-.54-.09-.75-.29C60,7.85,60,7.86,60,7.87ZM49.43,12.22h0ZM20.1,96c-.11.08-.29.09-.33.21.79.08,1.6,0,2.39.15a1.69,1.69,0,0,0,1.36-.47.8.8,0,0,1-.37-.11.39.39,0,0,1-.21,0l-.35,0,0,0a2.66,2.66,0,0,1-2.37.2.91.91,0,0,0-.62-.22,5.79,5.79,0,0,1-.72,0c0,.1.12.11.22.12ZM15.42,94.8h0l.11,0h0Zm-1.77.07h0Zm74.58,67h-.1a.38.38,0,0,0,.09.09A.19.19,0,0,0,88.23,161.9Zm2.9,1.09h0l0,0A0,0,0,0,1,91.13,163Zm.5-1.22h0Zm.05,0h0Zm8.7,0-.09.05A.07.07,0,0,0,100.38,161.78Zm7.74,1a1.5,1.5,0,0,1,0-.47h0c-.39-.12-.8-.14-1.18-.27l-.09,0c-.08.1,0,.2,0,.31l.06,0a.26.26,0,0,1,.21,0h0a1.09,1.09,0,0,1,.87.15,2.27,2.27,0,0,1-.85,0c0,.07-.09.19,0,.2.34,0,.66.32,1,.09Zm3.81-.51-.06,0,0,0Zm33.83-5.54a.58.58,0,0,0-.18,0C145.62,156.79,145.67,156.86,145.76,156.75Zm2.7,0c0,.07.17.08.19.16h0s0,0,0,0S148.58,156.76,148.46,156.78Zm.58.59c-.43-.07-.43.24-.56.44h.11C148.48,157.47,148.87,157.5,149,157.37Zm.84-.75a2.15,2.15,0,0,1-.37-.19v0c-.17.11-.31,0-.44,0,.21.13.54.1.74.3A.13.13,0,0,1,149.88,156.62Zm1.43-46.29h-.05l0,0S151.31,110.34,151.31,110.33Zm.32-.46h0Zm1.07,1.55h0v0Zm1.64,1.77a.1.1,0,0,0,0-.08l-.05.06ZM157,106h0Zm3.46,46.3h0Zm2-43.63Zm.37-.19h0a.43.43,0,0,0,0,0Zm6.35-1.34h0l0,0Zm7.89-1h0Zm.66-2.16h0Zm13.17-6.38a.58.58,0,0,0,.62-.11h0a.14.14,0,0,1-.1-.07C191.25,97.5,191,97.42,190.88,97.62Zm-.24-.83Zm-2.1-.24Zm-10.88-6h0Zm-1.13.38h.06s0-.09,0-.11A.62.62,0,0,0,176.53,91Zm-2.66-.58h0Zm-.79-.33h0l0,0S173.06,90,173.08,90Zm1.22-1.39h0Zm2.29-.78h0Zm.14,1.11h0a.08.08,0,0,1,0,0A0,0,0,0,0,176.73,89Zm6.17-2.5h0s0,0,0,0Zm1.5.12a.18.18,0,0,0-.16.12Zm.19-1.4,0,0h0Zm8.73-1.81c-.09-.1-.24,0-.35-.08h0a.48.48,0,0,0-.64.37c-.07.15-.07.31-.37.19a2.11,2.11,0,0,1-1.06-.06c-.39-.08-.65-.18-.35-.5a1,1,0,0,0-.42-.08l0,0c0,.12-.18.11-.28.17h0c.22.35-.18.33-.43.39l-.2,0a.11.11,0,0,0,0,.11c.14.14,0,.23-.13.3a.23.23,0,0,1-.25,0c-.14-.11-.07-.22.06-.32l0,0a.86.86,0,0,0-.65.31c-.16.23-.53.18-.83.2h-.07a.38.38,0,0,1-.19.13h0c0,.1.17.11.3.09a1.83,1.83,0,0,1,1.18.15c.17.09.43,0,.62.11a.11.11,0,0,1,.06.06h.08s0-.06.06-.08a.73.73,0,0,1,.66,0h0c.49,0,.82-.43,1.37-.32v0a.64.64,0,0,1,.55-.1,1.21,1.21,0,0,0,.78-.07l0,0,.33-.16c.14-.18-.09-.39.1-.57A2,2,0,0,1,193.32,83.39Zm.8,2.89a.43.43,0,0,1-.06-.29,2.12,2.12,0,0,1-.11.29A.25.25,0,0,1,194.12,86.28Zm.31.13s0,.09,0,.13a.83.83,0,0,0,.3.14c-.07-.05-.1-.11-.05-.19h0A.19.19,0,0,0,194.43,86.41Zm1.95-3.48a1.48,1.48,0,0,0-.75-.27c-.16.12-.29,0-.44,0-.33-.07-.65-.06-.76.25.36.14.85.09,1.08.42.14.14,0,.36.29.49.16.06,0,.22-.22.26s-.47,0-.5.22a.3.3,0,0,1,.17.18c.33-.07.61-.17.63-.48,0-.07.08-.12.18-.12l0,0h0c.08-.15.33.07.41-.08h0l-.41-.28.24-.12C196.62,83.27,196.88,83.21,196.38,82.93Zm10.68-7.72h0v0Zm-7.83-40.93a1.91,1.91,0,0,1-1.25,0,1,1,0,0,0-.63,0,1.38,1.38,0,0,1-.63.09h-.27c-.19,0-.34.05-.36.2s.1.19.26.22a1.61,1.61,0,0,0,.37.07,11.13,11.13,0,0,0,2.65-.24c.15,0,.37,0,.3-.21A.36.36,0,0,0,199.23,34.28Zm6.31,34.54a1.16,1.16,0,0,0-.85.39L207,69c.12,0,.2-.08.2-.16s-.12-.12-.23-.13A5.54,5.54,0,0,0,205.54,68.82Zm-6-5.09a1.47,1.47,0,0,1-.95,0c-.14,0-.32-.09-.38.05s.07.24.28.28a2.93,2.93,0,0,0,1,.06h.29c.2,0,.49,0,.53-.11s-.28-.21-.47-.26A.71.71,0,0,0,199.56,63.73Zm-4.8,3.08c.34-.26.09-.48,0-.71h0a3.33,3.33,0,0,0-1.1-.16c-.15,0-.31,0-.3-.16s.19-.19.36-.16l.09,0a.1.1,0,0,1-.07-.11.18.18,0,0,1,.21-.16,2.21,2.21,0,0,0,1.3-.16c.14,0,.23,0,.25.15s.25.05.29.15a1.2,1.2,0,0,1,.72.53,0,0,0,0,0,0,0,.19.19,0,0,1-.17.23,1.37,1.37,0,0,0-1.19.71.14.14,0,0,1-.21,0C194.81,67,194.67,66.87,194.76,66.81Zm0-1.12a.22.22,0,0,1-.11,0c-.23,0-.46,0-.69,0h-.12a3.87,3.87,0,0,0,.77.13Zm-13.54,23c.09-.16-.05-.21-.25-.21,0,0,0-.07-.07-.1-.11-.31-.44-.14-.68-.16s-.19.12-.18.22-.22.44.22.29a.66.66,0,0,1,.54,0C180.93,88.86,181.14,88.89,181.22,88.74Zm27.14,3.5a7.53,7.53,0,0,0,2.12,0A7.53,7.53,0,0,0,208.36,92.24Zm-11.05-6.76a1.19,1.19,0,0,0-.22,0,1,1,0,0,0-.25.06c-.13.07-.43.08-.33.26s.33.08.51,0,.24-.15.31-.13.39.17.43,0S197.46,85.55,197.31,85.48Zm2.13-18.09c-.05.25-.19.43-.15.65C199.73,68,199.77,67.84,199.44,67.39Zm-.15.65h0Zm-19,21.42c0,.12.19.12.3.14s.31,0,.31-.16-.17-.13-.3-.15S180.32,89.32,180.32,89.46Zm21,7.56a1.52,1.52,0,0,0-.63-.06C200.75,97.27,200.75,97.27,201.36,97Zm-.63-.06h0Zm-25.42-8c-.21,0-.23.15-.25.27s.05.18.21.2.45.1.52-.1-.17-.13-.31-.12S175.56,88.91,175.31,88.92Zm30.95-8.07a.58.58,0,0,0,.57.14c.07,0,.1-.09,0-.13A.59.59,0,0,0,206.26,80.85Zm-13.37,8.68a2.15,2.15,0,0,0,.91,0A.83.83,0,0,0,192.89,89.53Zm-17.07-.75c0,.08.05.18.16.19s.39,0,.27-.22C176.1,88.71,175.92,88.57,175.82,88.78Zm.43,0Zm0,0Zm28.49-12.22c.28,0,.47.11.58-.06a.13.13,0,0,0-.1-.2C205,76.25,205,76.43,204.74,76.53ZM181.32,87.9a.18.18,0,0,0-.2-.09c-.12,0-.2,0-.2.16a.22.22,0,0,0,.24.11C181.27,88.06,181.35,88,181.32,87.9ZM190.14,84c-.13,0-.21,0-.21.15s.11.21.28.2.23-.09.21-.19A.24.24,0,0,0,190.14,84ZM4.69,117.56a1.8,1.8,0,0,0-.8-.32c-.36,0-.38.32-.48.54s0,.36.27.4l.47,0c.32,0,.64.07.8-.2S4.84,117.65,4.69,117.56Zm187.44-6-.58,0c-.12,0-.25,0-.31.12s.07.19.14.27a1.24,1.24,0,0,0,1.55.11c.11-.07.27-.14.24-.29s-.22-.17-.37-.19S192.28,111.56,192.13,111.55ZM52.36,159.45a.92.92,0,0,1-1.13-.24c0-.05-.16,0-.31-.08a.63.63,0,0,0-.63.46c-.06.27.29.25.5.28a3.34,3.34,0,0,0,1.57-.06c.15-.05.18-.11.17-.23S52.45,159.41,52.36,159.45ZM10.14,118.84c-1.71-.26-3.38-.48-5.19-.64A19.08,19.08,0,0,0,10.14,118.84Zm163.64,28.65v-.18c.17-.18.58,0,.64-.38,0-.12.15.19.31.19a1.66,1.66,0,0,1,.95-.52,30.54,30.54,0,0,0,3.45-.87.66.66,0,0,1,.56.07c-.11.1-.29.11-.33.26s0,.29.25.19a.75.75,0,0,1,.51-.06c.1,0,.18.2.12.2-.49,0-.7.44-1.14.47l-.15,0h-.1c-.31.1-.8-.21-.92.33,0,.05-.13,0-.18,0s-.25-.2-.42,0a.22.22,0,0,1-.1,0c-.38-.56-.75,0-1.13,0a1,1,0,0,0-.81.34,1.88,1.88,0,0,1-1.38.31C173.82,147.73,173.81,147.59,173.78,147.49Zm2.74-.68a1.55,1.55,0,0,0,.31,0l-.21,0ZM132.69,162.1l-1.56.12c-.11,0-.28,0-.29.11a.23.23,0,0,0,.31.19,3.61,3.61,0,0,1,1.27,0,1.42,1.42,0,0,0,.36,0c.13-.06.41,0,.34-.25S132.86,162.09,132.69,162.1Zm25.83-7c.08-.13.18,0,.27,0s.07.23.18.14a.93.93,0,0,0,.29-.47c0-.11-.11-.17-.26-.12a7.75,7.75,0,0,0-1.51.22c-.51,0-.36.27-.17.5h0C157.9,155.63,158.23,155.54,158.52,155.08Zm-14.21,4.78a5.2,5.2,0,0,0-2.33.26,13.76,13.76,0,0,0,2.31,0c.13,0,.26,0,.25-.16S144.42,159.87,144.31,159.86ZM173.4,147.1a9.78,9.78,0,0,0-1.86.4c-.27.27-.68.2-1,.33a10,10,0,0,1-2.62.48c-.15,0-.37,0-.35.16s0,.32.34.37a4.91,4.91,0,0,0,1.22-.11c.34,0,.69.09,1-.19l.51-.1a1,1,0,0,0,.67,0c.13-.05.32,0,.34-.23s0-.36.43-.2a1,1,0,0,0,1.43-.47c.09-.08.15-.21.31-.19C173.75,147.1,173.59,147.07,173.4,147.1Zm.37.21Zm-31.92,15c-.15-.39-.5-.26-.78-.2s-.17.34-.27.51.08.14.12.12c.36-.24.8-.1,1.25-.12C142,162.49,141.89,162.47,141.85,162.34ZM5.27,91.92A7.55,7.55,0,0,0,7.19,92a4.69,4.69,0,0,0-1.9-.35c-.1,0-.23,0-.24.13S5.17,91.9,5.27,91.92Zm15.29,35.46c0-.22-.45-.23-.75-.24s-.58-.06-.6.19.38.13.57.22a.17.17,0,0,0,.1,0C20.11,127.45,20.56,127.72,20.56,127.38Zm-7.44-26.51c0-.09-.07-.13-.17-.14a5.63,5.63,0,0,0-2,.28h2C13.07,101,13.12,101,13.12,100.87Zm146.81,55.19c-.32,0-.68-.15-.93.13s-.31.38-.64.25a.13.13,0,0,0-.17.16c.29-.11.48.39.8.12a.86.86,0,0,1,.63.1c.19.1,0,.49.3.44s.06-.35.15-.52.34,0,.51-.05.32-.19.21-.23C160.5,156.34,160.43,155.79,159.93,156.06Zm-23.84,4a3.85,3.85,0,0,0-1.18.12,4.25,4.25,0,0,0,1.17.27.27.27,0,0,0,.29-.24C136.37,160.09,136.2,160.07,136.09,160.08Zm-99.27-2c-.1,0-.27,0-.24.12.15.52-.28.26-.54.31l.09.1a.5.5,0,0,0,.6.23c.28-.1.09-.42.28-.59S36.94,158.05,36.82,158Zm92.32,5c.1.13.14.33.36.29a.33.33,0,0,0,.26-.41c0-.12,0-.23,0-.34a.46.46,0,0,0-.42.13C129.25,162.84,129,162.83,129.14,163.07Zm10.91-4.33c-.26,0-.24.21-.27.34s0,.35.21.35.4-.1.37-.31S140.29,158.74,140.05,158.74ZM14.63,99.3a2.2,2.2,0,0,1,1.29-.17.18.18,0,0,0,.22-.16c0-.13-.13-.12-.23-.12h-.69a1,1,0,0,0-.83-.06c-.12,0-.32,0-.32.15s.19.15.31.2S14.49,99.34,14.63,99.3ZM7.82,116.76a8.79,8.79,0,0,0,1.78.18C8.2,116.49,8.2,116.49,7.82,116.76ZM165.17,149.9l1.72-.27,0-.13a4.87,4.87,0,0,0-1.73.28Zm-9.37,10.18a.29.29,0,0,0-.36.21c.08.23.29.26.5.26s.35,0,.34-.21S156,160.13,155.8,160.08Zm-.2-2.18a.2.2,0,0,0,.29-.19c0-.15-.11-.24-.31-.25-.51,0-.39.31-.46.58C155.3,158,155.39,157.82,155.6,157.9ZM51.81,160.67c-.17.15-.23,0-.33-.08s-.27-.21-.47-.13a.11.11,0,0,0,0,.12.79.79,0,0,0,.4.29.88.88,0,0,0,.27,0,1.32,1.32,0,0,0,.2,0c.13,0,.33,0,.3-.18S51.92,160.58,51.81,160.67ZM33.28,116.1c.25,0,.59.1.72-.22.07-.15-.14-.15-.23-.16a1.83,1.83,0,0,0-.74.17A.21.21,0,0,0,33.28,116.1Zm-9-.48c0-.19-.19-.28-.35-.3a.34.34,0,0,0-.37.26c0,.2.22.13.34.2S24.25,115.81,24.27,115.62Zm-3.85.31a2.85,2.85,0,0,0,.51-.08c.15,0,.31-.13.12-.3-.13-.35-.51-.31-.8-.41C20.42,115.38,20,115.73,20.42,115.93Zm-1,16.11c0,.12.13.17.26.15a.57.57,0,0,0,.48-.35c0-.11-.13-.11-.25-.12A.56.56,0,0,0,19.41,132ZM142.87,162c-.11,0-.28.09-.23.19a.6.6,0,0,0,.43.4c.1,0,.29-.08.23-.13S143.18,162,142.87,162Zm-21.61,1.4c-.12,0-.19.06-.15.18s-.16.42.25.35c.15,0,.4,0,.36-.18S121.47,163.41,121.26,163.36Zm58.33-14.74c0,.12.15.12.25.12.28,0,.46-.11.45-.45-.24.06-.38.2-.59.17S179.56,148.54,179.59,148.62Zm-13.82,5.12c-.17,0-.32,0-.34.24s.07.23.22.23.34-.1.35-.28S165.91,153.73,165.77,153.74Zm2.18-.42a.26.26,0,0,0-.22.28c0,.18.16.19.3.19s.25-.06.23-.2S168.12,153.35,168,153.32Zm26.74-28.09c0,.23.2.08.29.13s.41,0,.41-.18-.2-.16-.33-.15S194.71,125.09,194.69,125.23ZM48.23,160c-.12,0-.25,0-.26.18s.27.16.43.18.22,0,.21-.14S48.41,160,48.23,160Zm110.18-2.85a.33.33,0,0,0-.29.29.17.17,0,0,0,.16.21c.17,0,.31-.1.33-.26A.21.21,0,0,0,158.41,157.14Zm-18.84,5.19c-.12,0-.28.09-.34,0s-.36-.34-.52,0,.29.11.33.28a.18.18,0,0,0,.1.11c.3.07.61.24.85-.11.07,0,.19-.09.13-.16S139.77,162.3,139.57,162.33ZM181.66,148c-.17,0-.3.09-.31.26s.12.14.23.14a.31.31,0,0,0,.34-.24C182,148,181.79,148,181.66,148ZM132.4,163a.59.59,0,0,0,.69-.33c-.33.07-.6-.06-.77.18C132.28,162.89,132.33,163,132.4,163ZM25.78,156.3c-.11,0-.21,0-.21.16s.11.27.29.27a.18.18,0,0,0,.2-.22C26.05,156.36,25.93,156.3,25.78,156.3Zm20.14,3.5a.11.11,0,0,0,0,.2c.2.13.36,0,.57-.11A.42.42,0,0,0,45.92,159.8Zm110.92-4.68c-.14,0-.31,0-.39.15a.27.27,0,0,0,.25.21c.16,0,.25-.07.3-.19S157,155.1,156.84,155.12Zm-36.54,8.1c-.13,0-.2,0-.2.14s.11.22.28.21.21,0,.21-.14S120.43,163.26,120.3,163.22Zm-78.93-4.31c-.11,0-.2,0-.22.14a.29.29,0,0,0,.29.21c.1,0,.17,0,.16-.14A.24.24,0,0,0,41.37,158.91Zm-2.28-.72a.18.18,0,0,0-.19.18c0,.12.07.17.23.18s.2-.07.18-.21S39.2,158.19,39.09,158.19Zm60.61,5.22a.21.21,0,0,0-.29.11.19.19,0,0,0,.2.18.26.26,0,0,0,.29-.14C99.94,163.43,99.78,163.44,99.7,163.41Zm36.84-3.18a.74.74,0,0,0,.69,0,.09.09,0,0,0,0-.16C137,160,136.84,160.15,136.54,160.23ZM26.64,127.57a.45.45,0,0,0-.5-.21c-.08,0-.1.1,0,.14A.43.43,0,0,0,26.64,127.57Zm121.23,32.9c-.13,0-.25,0-.31.16a.26.26,0,0,0,.23.14c.13,0,.25,0,.26-.17S148,160.48,147.87,160.47Zm19.47-7a.18.18,0,0,0-.2.16.2.2,0,0,0,.22.17.18.18,0,0,0,.18-.15C167.54,153.58,167.46,153.52,167.34,153.51ZM5.24,125.89c-.19-.07-.37-.17-.57,0,0,0,0,.11,0,.12A.46.46,0,0,0,5.24,125.89Zm134,33.28s0-.13,0-.17-.3,0-.46,0C138.94,159.13,139.07,159.28,139.27,159.17Zm-23.52,5c-.12,0-.16.09-.16.22s.07.14.2.12.15-.06.14-.15A.18.18,0,0,0,115.75,164.15ZM2.71,122.5c0-.12-.13-.13-.23-.14s-.2,0-.22.14.13.13.23.14S2.71,122.62,2.71,122.5Zm11-6.23a.44.44,0,0,0,.51,0c.07,0,0-.11,0-.14A.36.36,0,0,0,13.74,116.27ZM157.51,5a.92.92,0,0,1,1.13.25s.16,0,.31.07a.63.63,0,0,0,.63-.45c0-.27-.29-.25-.51-.28a3.3,3.3,0,0,0-1.56,0c-.15.05-.18.12-.17.24A.12.12,0,0,0,157.51,5ZM36.09,17v.17c-.16.18-.58,0-.64.38,0,.13-.14-.19-.3-.19a1.7,1.7,0,0,1-.95.53,31.22,31.22,0,0,0-3.46.86.66.66,0,0,1-.56-.06c.12-.1.3-.12.34-.27s0-.28-.26-.18a.74.74,0,0,1-.51.05c-.09,0-.18-.2-.11-.19.49,0,.7-.45,1.14-.47l.15,0H31c.31-.09.8.22.92-.33,0,0,.13,0,.18,0s.25.21.42.05.09,0,.09,0c.39.56.76,0,1.14,0a1,1,0,0,0,.81-.34A1.93,1.93,0,0,1,36,16.72C36.05,16.77,36.05,16.91,36.09,17Zm-2.74.67-.31,0h.21A.38.38,0,0,0,33.35,17.68ZM77.18,2.39l1.56-.12c.11,0,.28,0,.29-.11s-.18-.22-.31-.18a3.61,3.61,0,0,1-1.27,0,1.42,1.42,0,0,0-.36,0c-.13.06-.41,0-.35.26S77,2.41,77.18,2.39Zm-25.83,7c-.08.13-.18,0-.27,0s-.07-.24-.18-.15a1,1,0,0,0-.3.47c0,.12.12.18.26.13a8.58,8.58,0,0,0,1.52-.23c.51,0,.36-.26.17-.5h0C52,8.87,51.64,9,51.35,9.41ZM65.56,4.63a5.19,5.19,0,0,0,2.33-.25,11.92,11.92,0,0,0-2.31,0c-.13,0-.26,0-.25.16S65.45,4.63,65.56,4.63ZM36.47,17.4a9.78,9.78,0,0,0,1.86-.4c.27-.27.68-.21,1-.34A10.44,10.44,0,0,1,42,16.19c.16,0,.37,0,.36-.16s0-.33-.34-.38a4.86,4.86,0,0,0-1.22.12c-.34,0-.69-.09-1,.18l-.51.11a1,1,0,0,0-.67,0c-.13.06-.32,0-.34.23s-.05.36-.43.21a1,1,0,0,0-1.43.47c-.09.08-.15.2-.32.19C36.12,17.4,36.28,17.42,36.47,17.4Zm-.38-.22h0ZM68,2.15c.15.4.5.27.77.21s.18-.35.28-.52S69,1.7,69,1.73c-.37.24-.8.09-1.26.11C67.82,2,68,2,68,2.15ZM49.94,8.43c.32,0,.67.15.93-.13s.31-.37.64-.25a.13.13,0,0,0,.17-.16c-.3.11-.48-.39-.81-.12a.84.84,0,0,1-.62-.09c-.2-.11,0-.5-.3-.44s-.07.35-.15.52a4.21,4.21,0,0,0-.51,0c-.13,0-.33.19-.22.24C49.37,8.16,49.44,8.7,49.94,8.43Zm23.84-4A4.11,4.11,0,0,0,75,4.29,3.76,3.76,0,0,0,73.78,4a.26.26,0,0,0-.28.23C73.5,4.4,73.67,4.42,73.78,4.42Zm99.27,2c.1,0,.26,0,.23-.12-.14-.51.29-.25.55-.3l-.09-.11a.52.52,0,0,0-.61-.23c-.27.11-.08.42-.27.59S172.93,6.45,173.05,6.45Zm-92.32-5c-.1-.13-.14-.33-.36-.28a.33.33,0,0,0-.26.4c0,.13,0,.24,0,.35a.42.42,0,0,0,.41-.14C80.62,1.65,80.91,1.66,80.73,1.42ZM69.81,5.76c.27,0,.25-.22.28-.35s0-.35-.21-.34-.4.1-.38.31S69.58,5.75,69.81,5.76ZM44.7,14.59,43,14.86,43,15a4.77,4.77,0,0,0,1.72-.27ZM54.07,4.41a.28.28,0,0,0,.35-.21C54.35,4,54.13,4,53.92,4s-.35,0-.33.2S53.89,4.37,54.07,4.41Zm.2,2.18a.21.21,0,0,0-.29.19c0,.15.11.24.31.25.51,0,.38-.31.46-.58C54.57,6.51,54.48,6.67,54.27,6.59ZM158.06,3.82c.17-.14.23,0,.33.08s.27.22.47.13c0,0,0-.09,0-.12a.83.83,0,0,0-.4-.28,1.57,1.57,0,0,0-.27,0,1.31,1.31,0,0,0-.2,0c-.14,0-.33,0-.3.19S158,3.91,158.06,3.82ZM190.2,32.3a.59.59,0,0,0-.48.36c0,.1.13.11.25.12a.58.58,0,0,0,.49-.32C190.5,32.34,190.33,32.28,190.2,32.3ZM67,2.54c.11,0,.28-.09.23-.2a.6.6,0,0,0-.43-.4c-.11,0-.29.09-.23.13S66.69,2.53,67,2.54ZM88.61,1.13c.12,0,.19,0,.15-.18-.19,0,.16-.42-.26-.34-.15,0-.39,0-.36.18A.58.58,0,0,0,88.61,1.13ZM30.28,15.87c0-.11-.15-.11-.26-.11-.27,0-.46.11-.44.44.23-.06.37-.2.59-.16S30.31,16,30.28,15.87ZM44.1,10.75c.16,0,.32-.05.34-.23s-.07-.24-.22-.23-.34.09-.35.28S44,10.76,44.1,10.75Zm-2.18.42a.25.25,0,0,0,.22-.28c0-.17-.16-.18-.3-.18s-.25.06-.23.19S41.75,11.14,41.92,11.17ZM15.18,39.26c0-.22-.2-.08-.29-.13s-.41,0-.41.18.2.16.33.16S15.15,39.41,15.18,39.26ZM161.64,4.51c.12,0,.25,0,.26-.18s-.27-.17-.43-.18-.22,0-.21.14S161.46,4.51,161.64,4.51ZM51.45,7.35a.31.31,0,0,0,.29-.29.16.16,0,0,0-.15-.21c-.17,0-.31.1-.33.27A.2.2,0,0,0,51.45,7.35ZM70.3,2.17c.11,0,.28-.09.34,0s.36.34.52,0-.29-.11-.34-.28a.15.15,0,0,0-.09-.1c-.3-.08-.62-.24-.85.1-.07,0-.19.1-.14.17S70.1,2.19,70.3,2.17ZM28.21,16.55c.17,0,.3-.09.3-.26s-.11-.14-.23-.15a.32.32,0,0,0-.34.24C27.92,16.52,28.08,16.53,28.21,16.55Zm49.26-15a.58.58,0,0,0-.69.32c.33-.07.6.07.77-.17C77.59,1.61,77.53,1.54,77.47,1.52ZM184.09,8.19c.11,0,.21,0,.2-.16s-.11-.26-.29-.26a.19.19,0,0,0-.2.22C183.82,8.14,183.94,8.19,184.09,8.19ZM164,4.7a.11.11,0,0,0,0-.2c-.19-.14-.35,0-.57.1A.44.44,0,0,0,164,4.7ZM53,9.38c.14,0,.31,0,.39-.16S53.28,9,53.17,9s-.25.07-.3.19S52.91,9.39,53,9.38ZM89.57,1.27c.13,0,.19,0,.2-.13a.23.23,0,0,0-.28-.22c-.1,0-.21,0-.21.15S89.44,1.24,89.57,1.27ZM168.5,5.59c.1,0,.2,0,.22-.15a.3.3,0,0,0-.3-.21c-.09,0-.17,0-.15.14A.25.25,0,0,0,168.5,5.59Zm2.28.71a.17.17,0,0,0,.18-.18c0-.12-.06-.16-.22-.17s-.2.07-.18.21S170.67,6.31,170.78,6.3ZM110.17,1.08a.22.22,0,0,0,.29-.1.21.21,0,0,0-.2-.19c-.12,0-.26,0-.29.14S110.08,1.06,110.17,1.08ZM73.33,4.26a.78.78,0,0,0-.7,0,.09.09,0,0,0,0,.16C72.86,4.46,73,4.35,73.33,4.26ZM62,4c.13,0,.25,0,.3-.16a.24.24,0,0,0-.22-.14c-.13,0-.25,0-.26.18S61.91,4,62,4ZM42.52,11a.18.18,0,0,0,.21-.16.19.19,0,0,0-.22-.16c-.09,0-.17.05-.18.14A.18.18,0,0,0,42.52,11ZM204.63,38.6c.19.08.37.18.56,0,0,0,0-.12,0-.13A.47.47,0,0,0,204.63,38.6ZM70.59,5.33s0,.13,0,.16.29,0,.46,0C70.93,5.37,70.8,5.21,70.59,5.33Zm23.53-5c.12,0,.16-.09.16-.21a.16.16,0,0,0-.2-.13c-.09,0-.15.07-.14.16A.17.17,0,0,0,94.12.34Z"/></g></g></svg>