<svg xmlns="http://www.w3.org/2000/svg" viewBox="0 0 209.45 159.83"><g id="Layer_2" data-name="Layer 2"><g id="Layer_1-2" data-name="Layer 1"><path d="M81.42,1.06c0-.16.21-.13.33-.14s.49,0,.74,0a.2.2,0,0,1,.2.09c.11.24.28.28.44.08a.48.48,0,0,1,.56-.16c.34.09.53-.12.81-.17a8.12,8.12,0,0,1,2.09,0s0,0,0,0A6.42,6.42,0,0,1,88.52.54a4.57,4.57,0,0,1,1.28,0,9.87,9.87,0,0,1,1.8.15c.33,0,.56-.23.92-.19.19,0,.37,0,.46.2a.15.15,0,0,1,0,.2c-.1.07-.19,0-.27,0s-.11-.14-.23-.14a.57.57,0,0,0-.27,0c-.05,0,0,.11.08.16s.26.32.51.41c.07,0,.12.14,0,.19a.14.14,0,0,1-.19-.07c-.08-.22-.51-.07-.56-.31-.27-.14-.26.1-.41.13,0,.23-.28.19-.47.22a2.54,2.54,0,0,1-1.79-.3,1.25,1.25,0,0,0-1.45,0,1.1,1.1,0,0,1-1.27,0,1.05,1.05,0,0,0-.53-.07,3.5,3.5,0,0,0-1.33.46.56.56,0,0,1-.39,0,6.6,6.6,0,0,0-2-.1,1.65,1.65,0,0,1-.73-.09C81.44,1.36,81.44,1.2,81.42,1.06Zm-8,.52A10.85,10.85,0,0,0,76,1.73c.52-.09,1.11.12,1.5-.12.26,0,.44.08.55-.05s0-.1-.09-.15a1.42,1.42,0,0,0-1.49-.31c-.08,0-.23,0-.34,0-.91-.07-1.78.09-2.69,0-.16,0-.42,0-.41.16S73.27,1.57,73.43,1.58ZM197.84,59.36ZM209.1,38.29c-.15.13-.11.31-.15.47a.68.68,0,0,1-1,.29c-.18-.1-.31-.25-.53-.11a0,0,0,0,1,0,0c-.32-.38-.6,0-.89,0h0c-.29-.16-.38.13-.61.11l-.09.07a2.2,2.2,0,0,1-.9.19,1.7,1.7,0,0,1-.47.22.31.31,0,0,0,.27.35c.1,0,.14.09.09.15a.13.13,0,0,1-.2,0c-.09-.11-.18-.09-.29-.05s-.47.22-.75-.08c-.12-.12-.47,0-.66.1a2.6,2.6,0,0,1-1.31.15c-.13,0-.26,0-.28.09s-.26,0-.37.13c0-.19.25-.19.22-.32a14.15,14.15,0,0,1-2.44.13c-.14,0-.22-.06-.33-.07s-.36-.12-.45.11-.42.18-.67.22h0l-.65.22c.08.06.14.14.22.16.33.1.48.24.32.49,0,.08.11.08.16.13.43,0,.66.35,1.07.39.06,0,.14.14.09.15-.38.1-.34.48-.71.58-.12.37-.39.6-1,.55a1.07,1.07,0,0,1-.68.26l-.3.14c-.06.09-.32,0-.29.19s.57.11.33.39l1.17.22.41-.07a1.38,1.38,0,0,1,1,.08,2.27,2.27,0,0,0,.8.22,4,4,0,0,1,1.32.43,2,2,0,0,0,.37.23l.25.08a.77.77,0,0,0,.34,0c.22,0,.35.16.54.23l.1,0h.12c.39-.17.4-.17.45.14,0,.13.16.13.25.14.66.11,1.3.25,1.95.4.18,0,.47.13.6-.09s.13,0,.17,0a.2.2,0,0,0,.31.07c.29-.15.45,0,.64.15-.07.12-.36,0-.32.22.08.42-.34.35-.67.34s-.28,0-.2.17.15.2,0,.31a1.75,1.75,0,0,0-.7-.42c-.14.4-.74.64-1.58.63h0l-.39.07c-.17.26-.36.46-.8.18a.32.32,0,0,1-.22-.07c-.39,0-.27-.24-.3-.39h0l-.7-.11c-.13.12-.25,0-.38,0-.3,0-.32-.2-.45-.32s-.09.07-.09.11.34.43-.09.53a2,2,0,0,1-.84.09,4.93,4.93,0,0,0-.54,0c-.07-.09-.49-.06-.19-.27-.07-.16.31-.19.14-.37h0c-.31-.11-.13.19-.37.24a3.16,3.16,0,0,0-1,.32c-.33.18-.67-.17-1-.2l-.19-.05a3.73,3.73,0,0,1-.47,0c-.17,0-.17.05-.13.15a.28.28,0,0,1,0,.28c-.1.13-.33.12-.49.18s-.33,0-.29-.22c-.13-.16-.4,0-.53-.16h-.19c-.06.26-.37.36-.62.47s-.53.05-.33.36c.07.1-.08,0-.15,0s-.24.06-.26.18h.1a.27.27,0,0,1,.37,0c.07.06,0,.2,0,.28a.33.33,0,0,1-.36.12c-.19,0-.38-.11-.42-.29h0c-.33.08-.31.17,0,.32s.61.16.75.41h0c.22.2.58,0,.8.21.28,0,.28,0,.22.39.09,0,.21,0,.26,0s-.05.11-.13.12l-.32,0c-.36.25-.79.07-1.17,0s-.45.2-.73.2c-.06,0,.09,0,.09.08s.41.24.34.46h0c.06.43-.56.25-.8.43-.09.07-.44-.11-.57-.32l-.36.42c.23.08.35-.12.56-.05,0,.15,0,.15-1,.22-.09-.13.19-.11.13-.24-.25,0-.42,0-.34.26v.19c.06.16-.1.3,0,.48-.3-.19-.88-.19-.72-.65.05-.15-.16-.2-.36-.28l.76,0a.62.62,0,0,0-.76-.3c-.68.17-.79.17-1.24-.23-.11.07.1.15,0,.18-.55.21-.19.56-.15.85s-.06.21-.28.19-.71-.37-.69-.6.2-.07.32-.07h.08c-.13-.24.24-.3.3-.52-.21,0-.34.13-.52.07s-.52-.23-.8-.11c-.06,0-.12.07-.16.06a2.1,2.1,0,0,0-1.42,0c-.12,0-.33,0-.32.17s0,.12-.15.11-.13-.06-.12-.11c.06-.4-.36-.35-.67-.41a.5.5,0,0,1-.36-.16.57.57,0,0,0-.6,0c-.22.13-.64,0-.87.24,0,0-.12-.05-.16-.11a1.49,1.49,0,0,0-.54-.48c-.22-.1,0-.14,0-.22s-.2-.34-.51-.35-.3-.11-.2-.26c-.38,0-.73,0-.82-.35-.18,0,0-.32-.32-.15.1.17-.1.23-.18.33.52.26.52.26.35.42l.39.22c.13.16,0,.29-.09.39s-.26.07-.32-.07.08-.16,0-.24-.41.05-.47-.13.29-.06.35-.19c-.52-.37-1,0-1.46,0-.25,0-.44.13-.34.38s-.12.17-.22.24c-.25.17-.18.35.17.42a1.31,1.31,0,0,0,.62.1c.27-.05.39.06.41.25,0,.39.43.45.81.51.12,0,.27-.07.3.09s-.12.17-.25.16a1.79,1.79,0,0,1-1.14-.19.29.29,0,0,0-.35,0,1.16,1.16,0,0,1-1.06,0c-.15.13-.32,0-.48,0s-.31-.14-.31-.33l.4.12h0v-.07h0c-.19-.1.14-.34-.23-.39,0-.08-.08-.2,0-.24.52-.19.08-.38,0-.58a.39.39,0,0,0-.51,0,1.38,1.38,0,0,1-.39.09c.07.24.37.47.21.73l-.57,0a7.24,7.24,0,0,1-1.47,0c-.15,0-.11.12-.13.19s-.09.1,0,.16.14,0,.21,0,.25-.15.44-.07.2.11.14.18a.62.62,0,0,1-.56.11c-.29-.17-.49,0-.7.08s.11.12.1.2,0,0,0,.06a5,5,0,0,1,1.31.22,5.15,5.15,0,0,0,1.83.22c-.25.12-.48,0-.68.11,1,0,2.1.19,3.14.21.63-.07,1.24-.14,1.87-.19a2,2,0,0,1,.53.09h.18a9.39,9.39,0,0,1,2.25-.09,18.66,18.66,0,0,1,2.59,0,2,2,0,0,1,.61.17,4.46,4.46,0,0,1,1.91.4,5,5,0,0,0,2.66.15c.6-.07,1.21,0,1.8-.11a7.83,7.83,0,0,1,1.84-.25,22.9,22.9,0,0,0,2.91-.21,19,19,0,0,0,2.31-.24c1.76-.32,3.62-.37,5.35-.78a6.13,6.13,0,0,1,2.11-.12c.08.14,0,.15-.12.18a7.34,7.34,0,0,1-2,.42c-.16,0-.34,0-.47,0s0,.09,0,.11a5,5,0,0,1-1.75.41,1.15,1.15,0,0,1-.37,0h-.06a.54.54,0,0,0-.42,0,2.48,2.48,0,0,1-1.35.31h0a3.53,3.53,0,0,1-2.48.26h0c0,.07.14.21,0,.2a10,10,0,0,0-1.35.09s-.08,0-.11-.06a.53.53,0,0,1-.61.16c-.23-.08-.32.2-.58.15-.08.13-.14.26-.42.17a2.79,2.79,0,0,0-.58-.07h0c0,.1,0,.16.15.17s.34,0,.47.09a5.78,5.78,0,0,1,1,.18,9.27,9.27,0,0,0,1.74.09,2.14,2.14,0,0,1,.84.17c-.2.17-.56.14-.76.33a1.54,1.54,0,0,0,.75.12c.88,0,1.77.07,2.64,0a3.67,3.67,0,0,1,1.14.05c.12,0,.26,0,.32.16a1.18,1.18,0,0,0,1.22.52,7.78,7.78,0,0,1,1.93.47c-.13.18-.36.16-.55.2a.6.6,0,0,0,.14.66c0,.11,0,.13-.19.16A1.52,1.52,0,0,1,204,57a8.27,8.27,0,0,0-1.23-.16,7,7,0,0,1-1.53.19,35.86,35.86,0,0,1-6.14.14c-.37.1-.74-.23-1.1-.06v.37c.11,0,.19.22.3.06s.26.3.47.05c.05-.05.4,0,.24.24s.2.22.34.22c.78,0,1.54.31,2.3.25.34,0,.74.18,1,0,.08-.06.22.1.31.17s-.07.09-.1.14a.65.65,0,0,0-.05.2c0,.17,0,.36-.42.23s-.49.15-.56.37a1,1,0,0,0-.35.08c-.46.14-.82.48-1.43.36-.06.15-.27.13-.41.19.12.16,0,.24-.18.23a1.34,1.34,0,0,0-.82.14.52.52,0,0,1-.57-.12,1.94,1.94,0,0,0-.76,0,.67.67,0,0,1,.54-.45v-.06c-.3,0-.63-.1-.91,0s-.59-.17-.6-.46h0c-.26-.08-.23.16-.4.18s-.24.09-.11.17.28,0,.19.14-.05.19-.24.23l-.34,0a.6.6,0,0,1,.15.37c0,.17,0,.25.19.23s.38-.15.48.15-.06.38-.25.48c0,0,0,.06,0,.17a2.56,2.56,0,0,1,2.48.45h0a2.69,2.69,0,0,1,2.38.9,1.73,1.73,0,0,0,.24.13,2.31,2.31,0,0,0-.57.16c-.75.48-1.51.11-2.27-.12-.08,0-.15-.09-.11-.15.31-.49-.32-.46-.43-.71l-.43-.24a4.37,4.37,0,0,0-.88,0c-.33.09-.72.2-.89-.35,0-.08-.2-.17-.31-.18a.82.82,0,0,1-.74-.36.15.15,0,0,0-.18-.08,2.88,2.88,0,0,1-2-.65.85.85,0,0,0-.32-.45h-.14a3.35,3.35,0,0,1-1.22,0c0,.19.27.11.39.17s.29.07.27.23-.1.24-.26.2a.27.27,0,0,0-.19,0,1.19,1.19,0,0,1,.46.2c.19.15.46.17.54.47s.24.21.4.24a3.68,3.68,0,0,1,1.2.57h0a6,6,0,0,1,2,1.14h0a.61.61,0,0,1,.61.55c.08.38-.29.3-.47.39a2,2,0,0,1-.5.1,1.27,1.27,0,0,1-.89.33.7.7,0,0,0-.75.47c.25.11.48.24.73.34.44.17.29.36.08.56A.54.54,0,0,1,190,66c-.19,0-.33.15-.33.33s.32.1.41.26l.94.27a.68.68,0,0,1,.65.16c.16.15.52.31.06.49-.14,0,0,.19,0,.27s0,.39-.32.39-.29.52-.6.65c.17.25.08.64.51.74.16,0,.25.14.13.31a.43.43,0,0,0,0,.61c.13.13,0,.18-.11.19s-.42.22-.35.34c.31.52-.11.89-.1,1.33h0c.53-.08,1,.28,1.47.39.15,0,0,.11,0,.18a2,2,0,0,1,.34.14c.1.06.27.09.24.25s-.15.12-.25.13c-.57.07-.37.29-.06.54a2.56,2.56,0,0,1,.92.16c-.75.31-1.48.26-2.08.55a.6.6,0,0,1-.6.31,3.88,3.88,0,0,0-1.35.09.7.7,0,0,1,.21.79l.09,0c.49.21,1.1,0,1.52.47l.54.24c.4,0,.38.36.56.55a1,1,0,0,1,.67.22c.18,0,.37,0,.53.12l.29.06c.19,0,.41-.09.52.13s-.11.34-.18.51a1.56,1.56,0,0,1-1.18,1,2,2,0,0,1-.35,0,.16.16,0,0,0-.1,0c.11.15.34.05.43.23a19.71,19.71,0,0,1,5.3,2.28,2.35,2.35,0,0,1,1.41,1.6c.09.44.48.85.6,1.34,0,.14.14.3.08.41-.24.49.08.49.43.51l1.58.13c.11,0,.27,0,.26.15s-.15.09-.25.08l-1.93-.2c0,.3.21.51.23.77s.25.2.43.22a3.94,3.94,0,0,1,1.54.24l-2.09-.08c-.22,0-.52-.16-.51.19s0,.66.48.71a10.46,10.46,0,0,1,1.31.33c-.26.18-.44.26-.72.12a.48.48,0,0,0-.55,0c-.12.11.19.36,0,.52a1.07,1.07,0,0,0,.51.2c.44.07.86.18,1.39.3-.55.4-1,0-1.5,0a1.63,1.63,0,0,0-.66,0,8.33,8.33,0,0,1-4.92.63c-.52-.11-1,0-1.58-.37a.46.46,0,0,1-.19-.51c0-.3-.13-.38-.34-.44a1.66,1.66,0,0,0-.79-.12,7,7,0,0,1-2.05,0c.08.17.09.31-.15.3s-.37.1-.45,0,.21-.13.27-.25a13,13,0,0,0-3.24.42,9.82,9.82,0,0,0,2.75,1.44,12.41,12.41,0,0,1,2.83,1.34,5,5,0,0,0,1.31.64,4.78,4.78,0,0,1,2,1.35,2.77,2.77,0,0,1,1.05,1.31c.3.6.74,1.25.37,2,0,.08-.07.15-.17.15a.54.54,0,0,0-.24.49c0,.92-.76,1.53-.87,2.42a.48.48,0,0,1-.32.42,27.57,27.57,0,0,1-2.54,2.64c-.24.4-.78.48-1,.9-.36.7-1.19,1-1.47,1.78-.15.41-.76.48-1.19.59s-.87.19-1.28.35c0,.31-.33.3-.53.38s-.26,0-.36,0-.54.08-.46.34.33,0,.51,0l.89,0c.56-.1,1-.5,1.65-.38a9,9,0,0,1,2.18-.57,5.28,5.28,0,0,0,.89-.34c.13-.26.31-.27.62-.26a6.61,6.61,0,0,0,1.91-.38,35,35,0,0,1,3.36-1c.39,0,.7-.37,1.16-.19.16.06.44-.12.47.19s-.26.26-.46.31c-.38.33-1,.3-1.36.57-.09.2-.27.2-.46.23-.35.06-.68.32-.95.36-.73.12-1.18,1-2.08.56-.19-.09-.29.16-.45.2-.13.3-.48.35-.72.4a2.25,2.25,0,0,0-1.21.46c-.06,0-.13.06-.15,0-.07-.31-.19-.24-.26,0s-.29.21-.53.21-.82-.07-1.12.23a.52.52,0,0,1-.77.06c-.31.27-.77.27-1.08.55a0,0,0,0,0,0,0h0c.38.27.77.45,1.19.11.06,0,.14,0,.16,0,.07.26.4.23.59.34.38,0,.54.14.57.43a2.43,2.43,0,0,0,.22.6c.06.13.19.12.3.07a2,2,0,0,1,1.08,0,4.46,4.46,0,0,0,1.21-.07,3.83,3.83,0,0,1,1.13-.2.3.3,0,0,0,.13,0c.15,0,.15-.38.36-.2s.78.42.47.83c-.18.22,0,.5,0,.75s.2.11.34.13.31.07.36.22h0a1.92,1.92,0,0,1,1,.89,1,1,0,0,0,.53.57c.21.1.33.24.59.17,0,0,.08,0,.1.06a.94.94,0,0,0,1,.44,1.71,1.71,0,0,1,.31,0c.25,0,.43.09.23.31s-.26.74-.82.86c0,0-.09.06-.1.06-.49-.27-.3.16-.44.24a4.38,4.38,0,0,1-1.35.62c-.23,0-.3.28-.59.23s-.57.36-.8.57a4.44,4.44,0,0,1-.38.37c-.35.28-.56.55-.39,1,.1.25-.08.46-.41.55a3.52,3.52,0,0,0-.77.41A6.54,6.54,0,0,1,192.5,120c-.48.08-.57.47-.8.74-.06.06,0,.18-.16.22-.54.22-.84.65-1.4.85,0,.18-.2.32-.16.52s-.11.15-.26.16a.74.74,0,0,0-.75.45.82.82,0,0,1-.89.47,2.5,2.5,0,0,0-1.57.62c-.16.19-.51.12-.78.13-.46,0-.93,0-1.06.44-.06.21-1.13.4-1.44.29a1.75,1.75,0,0,0-.4,0c-.12.18-.37.23-.57.33s-.23.08-.14.2.19.08.28,0a1.43,1.43,0,0,1,1.09.19h0a3.5,3.5,0,0,0,1.46-.23.49.49,0,0,1,.32-.07h0c.26,0,.43-.21.72-.18h0l.08,0a5.8,5.8,0,0,1,1.28-.24,1.61,1.61,0,0,1-1,.54,5.86,5.86,0,0,1-1.19.36c-.62.18-1.29.24-1.92.4l-.1.12c0,.24-.25.16-.41.18s-.62,0-.7.33c0,.09-.19.15-.29.1-.36-.17-.52,0-.72.15a.08.08,0,0,1,0,0c-.06.56-.06.57-.81.57a.77.77,0,0,0-.43.11,1.89,1.89,0,0,1-.82.26c1.19,0,2.39.17,3.57.11a.94.94,0,0,1,.3.07c.12-.06.52.13.31-.21-.06-.11.17-.1.21-.19-.19-.14-.13-.19.1-.23a5.08,5.08,0,0,1,1.55.16.65.65,0,0,0,.34,0c.1,0,.21-.07.28,0s-.1.15-.18.22a3.43,3.43,0,0,1-1.06,0c-.36,0-.37.07-.19.27.6,0,1.21.1,1.81.21.12,0,.35.08.35-.13-.09,0-.28,0-.27-.09s.19-.13.32-.1.23.1.07.19l.09.13a8.12,8.12,0,0,0,1.48,0,2.37,2.37,0,0,1,.85.15c.27.07.57.31.74-.08,0-.08.33-.11.51,0s.23.09.26,0,.06-.19-.14-.21-.47-.24-.75-.1c-.07,0-.2,0-.22-.08s.12-.14.2-.12.48,0,.65.17c0,0,.08.06.1.06.41-.11.71.15,1.05.26a8.41,8.41,0,0,0,1.72.32c.24-.23.52-.16.85,0s.07.13.08.2c.46.12.93,0,1.38.18a.18.18,0,0,0,.2,0c.22-.25.63-.18.89-.12.53.14,1.08.2,1.61.32l.27,0c.28,0,.56-.05.75.2.06.09.19,0,.28.09.41.31,1,.18,1.43.37.14.06.31,0,.41.18s.25.27.35,0c0,0,.18,0,.25,0a9.45,9.45,0,0,0,2.89.38.82.82,0,0,1,.26.06c.11,0,.28,0,.27.15s-.18,0-.28.07l-1.5.25,0,.09,1.45.12c.06,0,.12,0,.18,0s.54,0,.57.19-.32.06-.49.11c-.42.13-.9.11-1.32.25-.13,0-.31,0-.31-.07,0-.3-.25-.21-.45-.23a2.35,2.35,0,0,0-1.27.17,1,1,0,0,1-.5.06c.29.14.73,0,.94.36.08.15.38-.08.57.05-.44.34-.79.29-1.4,0a2.67,2.67,0,0,0-.92-.07c-.16.25-.53.16-.79.22s-.28-.17-.33-.32c-.37-.15-.37-.15-.05-.33l-.42-.1h-.12c-.3,0-.4.37-.77.3h-.26c-.19.47.36.25.56.35-.12-.24.15-.24.32-.28a.2.2,0,0,1,.22.1c.06.09-.08.09-.14.12l-.23.08c.06.11.31,0,.31.16s-.2.1-.31.13c-.33.1-.71,0-1,.08-.1,0-.22,0-.23-.08s.13-.09.2-.13.24-.23-.05-.34c-.08,0-.11-.13-.16-.2H197c0,.1-.25,0-.3.11s.23,0,.2.17-.11.07-.18.07-.35-.07-.35-.25-.31,0-.41-.13l0,0h0a.13.13,0,0,1,0,0,1.27,1.27,0,0,1-1,.37l0,0c.27.18.82-.08.92.47.06.32.37.63.26,1s.3.67.59.74c-.52,0-1-.13-1.53-.1,0,.08.1.18.06.24-.18.37.22.31.41.29.41,0,.53.14.49.37s.09.2.25.24l.79.19a.25.25,0,0,1-.29,0,2.35,2.35,0,0,0-1.39,0,8.79,8.79,0,0,1-3.64-.11c-.2,0-.39,0-.43-.29s-.32,0-.47-.1-.23.06-.24.15.19,0,.23.13l-.31,0,.38.15c-.35.07-.2.29-.24.45s.13.1,0,.13-.17,0-.2-.05c-.13-.22-.24-.12-.41,0a.51.51,0,0,1-.53,0,1.65,1.65,0,0,0-.57-.07h-.26c0,.21-.3.12-.44.18a.54.54,0,0,1-.65-.14h0l-1,0a3.2,3.2,0,0,0-1.34-.26h-.08c-.33.38-.75.17-1.19.06-.19,0-.42.14-.73-.05a4.92,4.92,0,0,1,1.58-.42v-.24c0-.08-.14-.14-.17-.06-.11.26-.39.18-.62.16a1.18,1.18,0,0,0-.56,0,.55.55,0,0,1-.64-.22,1.62,1.62,0,0,0-.19-.17c0,.18-.36.15-.36.34s.06.18.2.21l.35.08c.11,0,.21,0,.21.15s-.11.11-.2.14a3.62,3.62,0,0,1-1.73,0,.39.39,0,0,0-.27,0,.28.28,0,0,1-.36-.07c-.1-.22-.32-.2-.48-.17a4.66,4.66,0,0,1-1.86-.24,4.31,4.31,0,0,0-.77-.27.59.59,0,0,1-.61-.17c-.07-.09-.32-.1-.48-.14,0,.05-.15.08,0,.14s.37.09.39.28c.32,0,.05.36.44.33-.18.08-.4,0-.49.14a3.15,3.15,0,0,1-1-.41c0-.15.24-.05.26-.17s0,0,0,0c-.54,0-.54,0-.51-.36-.27,0-.25-.19-.39-.29-.25.15-.6-.13-.85,0a0,0,0,0,0,0,0s0,0,.05.05c.22,0,.32.21.18.22-.31,0-.47.25-.77.23h-.08v0l.54.16a.2.2,0,0,1,.26.06c.06.08.16.11.16,0s0-.19.16-.16,0,.14.07.21l.08.13h.49c-.17.17-.42.21-.45.42a1.09,1.09,0,0,1,.69.1c.11.06.28.18.43,0a.14.14,0,0,1,.19,0,.24.24,0,0,1,.05.16c0,.07-.11.09-.17.06-.26-.14-.35.07-.49.12s.11.23.08.36h0c.27-.14.49.06.73.11a1.94,1.94,0,0,0,.83,0c.27-.09.39.22.63.26a1.28,1.28,0,0,1,.63.19,1.31,1.31,0,0,1-1-.07h0a5.71,5.71,0,0,0-.92,0c.36.27.8.14,1.15.26l.05,0c1.13.26,2.28.32,3.42.49a2.87,2.87,0,0,1,1.57.49c-1.4-.07-2.73-.43-4.08-.53s-2.72-.28-4.08-.42a24.14,24.14,0,0,0-4.07-.27,7.32,7.32,0,0,0,.79.15c1.4,0,2.75.49,4.15.57a20.32,20.32,0,0,1,2.29.32,18.89,18.89,0,0,0,2,.29,2,2,0,0,1,1.47.58.6.6,0,0,0,.53.24c.32-.1.56.09.83.17a1.14,1.14,0,0,1,1.15.93.11.11,0,0,0,.08,0,1,1,0,0,1,.56.07c.32.15.66,0,1,0,.71,0,1.41.13,2.12.15a1.25,1.25,0,0,1,.94.5,4,4,0,0,1-1.79.29,10.91,10.91,0,0,0-2.06,0c-.2,0-.46.06-.6-.16a4.39,4.39,0,0,0-.81,0,5.64,5.64,0,0,1-1.17.23c-.1,0-.22,0-.24.11s.09.13.18.17l.41.26-.25.08c-.15,0-.42-.08-.45.1s.29.14.41.25c1.23.14,2.47.27,3.7.43.5.07,1,.23,1.48.32.65.12,1.31.2,2,.31a3,3,0,0,1,.36.12,7.25,7.25,0,0,1-1.21.05,23.25,23.25,0,0,1-3.72-.24,3.7,3.7,0,0,0-.94,0,1.57,1.57,0,0,1-1-.12,2,2,0,0,0-1-.13,34.56,34.56,0,0,1-3.66-.22,6.08,6.08,0,0,0-1.13.08,6.6,6.6,0,0,1-1.53-.06,8.22,8.22,0,0,0-1-.06c-1.19,0-2.39-.19-3.57-.21a8.49,8.49,0,0,0-2.14,0,2.21,2.21,0,0,1-.63,0c-.17,0-.49-.15-.46.17,0,0-.07,0-.11,0-.82-.12-1.55.19-2.35.13a5.2,5.2,0,0,1-2.86.61,5.43,5.43,0,0,1-2.07.35,4.48,4.48,0,0,1-1,.12c-.63.11-1.28.14-1.92.2a22.07,22.07,0,0,1-2.45.2c-.09,0-.16.13-.28,0s-.14,0-.17,0,.05.07.1.1a4.62,4.62,0,0,0,2.1.58l1.75.29c.15,0,.31.05.39.2a12.79,12.79,0,0,0-3.76,0,9.05,9.05,0,0,0,1.46.23c.76.12,1.53.17,2.3.24.3,0,.31-.07.11-.22s0-.2.18-.2a2.69,2.69,0,0,1,.8.14.19.19,0,0,1,.1,0,2.85,2.85,0,0,1,1.08.18,1.74,1.74,0,0,0,.63.14c.28,0,.27.16.25.24s-.17,0-.26,0a2.55,2.55,0,0,0-.83,0c-.07.12-.53-.06-.37.26.27.1.44-.13.66-.09a21.33,21.33,0,0,0,3.09.1c1,0,2,.09,3,.11a9.26,9.26,0,0,0,1.29,0,6.56,6.56,0,0,1,1.21.15c-1,.15-2.11-.05-3.21.11a14.3,14.3,0,0,0,4.66.07c-.28-.1-.45,0-.63-.06s-.37.05-.49-.12a8.23,8.23,0,0,1,2.43,0h.18a2.12,2.12,0,0,1,1,0,5.87,5.87,0,0,1,1.26,0,2.53,2.53,0,0,1,.67.05c.14,0,.1.1,0,.11s-.18.06-.27.12l1.43,0c.11,0,.27-.06.31.07s-.16.08-.26.11l-.12,0c0,.09.17,0,.2.11h0c.08,0,.15.06.15.12s-.1.06-.17,0a9.37,9.37,0,0,0-1.18,0,.39.39,0,0,1-.32-.17c0-.05.08-.05.13-.05s.24-.08,0-.1a4,4,0,0,0-1.09,0l.5.27a6.43,6.43,0,0,1-.9,0c-.43,0-.84.12-1.24,0-.56-.12-1.11.14-1.65-.13a1.2,1.2,0,0,1-.93.05.3.3,0,0,1-.38-.2c-.27.08-.59-.06-.86.07a6.74,6.74,0,0,1-1.23.26,11.88,11.88,0,0,1,2.07.48c-.16.15-.16.15-.65.11.67.08.86,0,.93-.29.67-.16,1.4,0,2.09-.13a5.2,5.2,0,0,1,1.19.1l.23,0a4.37,4.37,0,0,1,.93.41c.33,0,.25.16.29.29.53,0,.53,0,.41-.39l-.26-.06c-.08,0-.14-.06-.1-.13a.11.11,0,0,1,.14,0,.47.47,0,0,0,.51-.05.87.87,0,0,1,1,0,.74.74,0,0,0,.21.07H177c.12-.1.14-.37.45-.13a5.78,5.78,0,0,0,1,.18h0c.15,0,.13-.29.39-.19s.13.21.08.33.19.21.2.34l.17-.05c0-.06.18-.06.08-.15s-.31-.1-.14-.21a.85.85,0,0,1,.49-.18.22.22,0,0,1,.17.1c.06.08,0,.09-.07.11-.37.07-.07.18,0,.28a3.42,3.42,0,0,0,1.42.08c0-.07,0-.09-.1-.11s-.3-.08-.28-.2.26-.07.32-.11c.38-.21.79.06,1.15,0-.05-.14-.08-.28.18-.25A.43.43,0,0,0,183,148a.48.48,0,0,0,.47.52.24.24,0,0,0,.23-.06c.27-.3.43-.29.74,0a1.22,1.22,0,0,1,.84.22s.2,0,.16,0c-.22-.32.15-.15.23-.15a3,3,0,0,0,.49,0,1.07,1.07,0,0,1,.75,0,.18.18,0,0,0,.22,0c.2-.22.29,0,.38.09l0,0h0l0,0c.17-.15.31-.34.65-.19a.11.11,0,0,0,.08,0l.48,0c.09.11,0,.2,0,.29s.24,0,.34-.08.29-.16.47,0l.08,0a1.65,1.65,0,0,1,.73.09h0a.7.7,0,0,1,.64.08,2.23,2.23,0,0,1,1.15-.06c.12,0,.26,0,.26.16s-.16.1-.27.09-.25.06-.38,0a1.52,1.52,0,0,1-.82,0c-.16.21-.44.15-.7.11-.07,0-.08,0-.12,0-.38.26-.39.26-.85-.1-.08.29-.32.3-.63.22,0-.19.51,0,.28-.29l0,0h0l0,0a2.46,2.46,0,0,1-1-.18l-.26.13c-.11.09-.36.06-.28.3s-.19.11-.32,0a.28.28,0,0,1-.12-.28l-.1-.07-.4.12c.08.11.3.08.39.27-.52.05-.94-.32-1.42-.29.1.22,0,.3-.28.33l-.71,0a8.87,8.87,0,0,0-1.63,0c-.12.12-.37.16-.36.35l-.06.12c.06.1.19,0,.28.08.57,0,1.14.15,1.71.11,1.26-.07,2.54,0,3.79-.09a1.51,1.51,0,0,1,.5,0,6.76,6.76,0,0,0,2,.09c1.17,0,2.34.08,3.49,0s2.22,0,3.33.09l.28.06a15.28,15.28,0,0,1-2.22.11c-.85,0-1.7,0-2.55.06s-2-.07-2.92,0c-1.53.08-3.09,0-4.62.05-.06,0-.14-.07-.22,0a2.22,2.22,0,0,0,1.18.43.92.92,0,0,1,.64.16.28.28,0,0,0,.39,0,2.6,2.6,0,0,1,2-.07,1,1,0,0,0,.55.17,5.12,5.12,0,0,1,.68,0,7.28,7.28,0,0,0,1.32,0c0-.11-.36-.17-.15-.29a.71.71,0,0,1,.74,0c.26.18.42.24.65,0a.46.46,0,0,1,.47,0c.34,0,.66-.18,1,0,.09,0,.22,0,.32-.07s.31-.16.46,0h0a.7.7,0,0,0,.21,0,.94.94,0,0,1,1.17.26h.15a2.53,2.53,0,0,1,1,0l1.38.06.79-.05c.08,0,.2,0,.23.06s-.12.09-.18.15c.24.07.4.19.43.37.23.07,0-.2.24-.14s0,.26.17.35a5.38,5.38,0,0,0,1.91.21,2.17,2.17,0,0,1,.48.06c0-.12-.2-.23,0-.37.14.06.27.34.48.08a1.2,1.2,0,0,0,.39.16l1,0c.2,0,.37.12.38.21s-.17.17-.36.16a1.55,1.55,0,0,0-.21,0c0,.06,0,.12,0,.15s0,.2,0,.28a8.65,8.65,0,0,0-1.14-.13c-.16.13-.42,0-.58.06a1.42,1.42,0,0,1-1.06.11.41.41,0,0,1-.33.05c-.15-.05-.39,0-.43-.19s.18-.2.37-.22c-.35-.1-.6-.06-.69.19a.06.06,0,0,1,0,.06h0l0,0c-.1.15,0,.35-.17.55,0-.41-.36-.35-.64-.32s-.28-.08-.17-.22c-.21,0-.18-.11-.16-.21l-.11-.06c0,.36-.43.21-.66.23a1.11,1.11,0,0,0-.64.22c-.16.18-.27.11-.4,0-.57.05-1.15.09-1.72.15a1.24,1.24,0,0,1-.77-.08c-.36-.17-.74.08-1.24.19a9,9,0,0,0,1.62.15,1.2,1.2,0,0,1,.53.07c.52.07,1-.08,1.53,0s.78.13,1,.64a.39.39,0,0,0,.26.18,3.78,3.78,0,0,0,1.41.25c.41,0,.58.38,1,.49.16,0,.08.24-.18.22s-.51,0-.71.13c.22.1.52.17.27.43-.07.07.07.19.17.27s.09.24-.12.26a1.19,1.19,0,0,1-.72-.13,5.17,5.17,0,0,0-1-.27,25.48,25.48,0,0,1-5.54.4c-1.57-.06-3.14-.25-4.71-.39-.32,0-.62,0-.93.05a12.53,12.53,0,0,1-2.45-.1c-1.09-.17-2.16-.07-3.25-.18-.78-.08-1.57-.17-2.35-.22h-.08a9.61,9.61,0,0,1-2.46.1c-.24,0-.48-.06-.72-.06a2.59,2.59,0,0,1-.89.12,1.17,1.17,0,0,1-.7.16,1.44,1.44,0,0,0-.72.35c-.07.05-.05.06.19.19l.75.06v.08l-.74,0c-.21.08-.43.17-.31.4s0,.14-.1.14a9.22,9.22,0,0,1-1.29.09l-2.23.08a11.59,11.59,0,0,1-1.58.15c-.29,0-.54,0-.67.28a.5.5,0,0,1-.64.17,5.88,5.88,0,0,0-3-.06,3.55,3.55,0,0,0-1.47.48c-.21.13-.49,0-.74.06a8.44,8.44,0,0,1-1.61.2,8.85,8.85,0,0,1-1.35.15,12.38,12.38,0,0,0-2.3.2,13,13,0,0,1-1.53,0,29.12,29.12,0,0,1-3.1,0,1.74,1.74,0,0,0-.79.08,1.65,1.65,0,0,1-.83.05c-.69-.11-1.33.14-2,0a4.77,4.77,0,0,1-1.6,0,1.62,1.62,0,0,0-.58,0c-1.81.2-3.6.42-5.42.58-1.23.1-2.49.08-3.73.15-2.94.17-5.92,0-8.89-.06-1.21,0-2.42-.08-3.62-.13a6.84,6.84,0,0,1-1.44-.19,6,6,0,0,0-1.39-.19,3,3,0,0,1-1.63-.42.69.69,0,0,0-.43-.1,20.25,20.25,0,0,1-3.29-.4c-1.43-.21-2.87-.4-4.3-.63-.39-.06-.77-.09-1.16-.13-.06,0-.14,0-.18,0a6.47,6.47,0,0,0-2.5-.48c-.2,0-.39,0-.59-.08s-.25-.11-.21.12-.26.06-.41,0a6.75,6.75,0,0,0-1.66-.15c-.64.08-1.26-.12-1.93-.08a1.88,1.88,0,0,1,1.32-.22c.34.2.41.08.45-.14l-.27-.08c-.32-.08-.3-.08-.35-.35,0-.05-.15-.1-.23-.14-.37-.06-.69.12-1.08,0-.6-.16-1.22-.27-1.84-.4a6,6,0,0,1-1.8,0c-.59-.13-1.22,0-1.84-.13a3.93,3.93,0,0,1-.9-.06,1,1,0,0,0-.8,0,.55.55,0,0,1-.34,0,12.09,12.09,0,0,0-2.4-.1,2,2,0,0,1-.49-.07,5,5,0,0,0-1.59-.19c-.33,0-.67,0-.53-.39a.33.33,0,0,0-.16-.46c-.14,0-.49,0-.17-.2,0,0,0-.12,0-.15a.31.31,0,0,0-.33-.06,1.37,1.37,0,0,1-1.47-.26c-.38-.05-.6.23-1,.22-.08,0-.15.08-.23,0s0-.11,0-.15c.33-.22.08-.27-.2-.32s-.58,0-.84-.16-.72.21-1.08-.1c0,.08,0,.1,0,.12s.41.08.34.23-.34.08-.52.06c-.38-.05-.75-.13-1.14-.21.13,0,.28-.09.34-.21s-.24-.18-.3-.29h0l-.71,0h0a1.65,1.65,0,0,1-.91,0,1.77,1.77,0,0,0-.73.06h0c-.27.07-.29.41-.75.29-.29-.08-.45-.17-.53-.38a2,2,0,0,0-.78,0c-.31.1-.56-.09-.89-.25a2.53,2.53,0,0,0,.79-.26l-.77-.08h0c-.54,0-1.08-.3-1.57-.08-.19-.16.2-.2,0-.26a.59.59,0,0,0-.61.05.76.76,0,0,1-1-.06.45.45,0,0,0-.42-.16l-.73,0c.21-.11.43,0,.63-.09a1.83,1.83,0,0,0-.89-.16,4.09,4.09,0,0,1-2-.37h0l-.28-.07c-.12.07-.69-.17-.32.26,0,0,0,0,0,.05a2,2,0,0,1-1.09-.09c-.35-.26-.74-.15-1.11-.14a1.45,1.45,0,0,1-1-.49c-.06-.14-.22-.1-.34-.13s-.23,0-.23-.12.13-.12.22-.12a2.49,2.49,0,0,1,.94.06H70l1.65.25h0c.6,0,1.13.31,1.74.3.2,0,.41,0,.62.06a2.33,2.33,0,0,1,1.22.16c.12.07.23,0,.34,0s.48-.07.61.16a.15.15,0,0,0,.2.09c.43-.17.87,0,1.31.06h0a.73.73,0,0,1,.74.29c1.07.14,2.15.29,3.22.5l.43.09a5.51,5.51,0,0,1,2,.26,2.15,2.15,0,0,0,.71.11,13.33,13.33,0,0,1,4.12.53c.36.07.62.34,1,.3h0a1.78,1.78,0,0,1,1.2.1h.08l.25,0a1.8,1.8,0,0,1,.14-.86,1.24,1.24,0,0,0,.22-.91c-.07-.24.19-.42.2-.66-.18.05-.36.26-.53,0a.23.23,0,0,0-.15-.05c-.65,0-1.29-.21-1.93-.19a.36.36,0,0,1-.39.15,10.37,10.37,0,0,0-1.25-.11,2,2,0,0,1-.74-.27c-.29-.11-.62,0-.91-.15a7.88,7.88,0,0,0-1.27-.11h-.17l-.19,0c-.11,0-.24,0-.35,0a.83.83,0,0,1-.9-.21s-.11,0-.16-.06h0a2.86,2.86,0,0,1-1-.05c-.45-.08-.91-.09-1.36-.16a31.34,31.34,0,0,0-3.34-.39,1.33,1.33,0,0,1-.68-.15h0a11.84,11.84,0,0,1-3-.35,9,9,0,0,0-1.17-.08c-1.32-.15-2.64-.34-4-.44s-2.4-.28-3.6-.39a13.91,13.91,0,0,1-2.64-.27c-1-.19-2.12-.21-3.19-.32a4.72,4.72,0,0,1-1.39-.16c-1.24,0-2.43-.43-3.66-.57-.27,0-.54-.08-.81-.13a5.24,5.24,0,0,1-1.72-.32c-.72-.19-1.44-.3-2.17-.43a10.57,10.57,0,0,0-1.79-.4s-.1,0-.11-.07c-.13-.54-.84-.4-1.23-.63-.16-.1-.4-.12-.47-.31s-.2-.13-.33-.16a3.62,3.62,0,0,1-1-.37h0a5.49,5.49,0,0,1-1.67-.74h0a.5.5,0,0,1-.52-.36c-.07-.25.24-.2.4-.26a2.65,2.65,0,0,1,.42-.06,1.26,1.26,0,0,1,.76-.21.65.65,0,0,0,.64-.31c-.21-.08-.41-.16-.62-.22-.37-.12-.25-.24-.07-.37a.38.38,0,0,1,.16,0c.16,0,.28-.1.28-.22s-.27-.06-.35-.17l-.8-.17a.71.71,0,0,1-.55-.11c-.14-.1-.45-.2,0-.32.12,0,0-.12,0-.18s0-.25.27-.25.25-.34.51-.42c-.14-.17-.07-.42-.43-.49-.14,0-.21-.09-.11-.2s.17-.25,0-.4,0-.11.09-.12.37-.15.31-.22c-.27-.34.09-.58.08-.87h0a4.42,4.42,0,0,1-1.25-.26c-.13,0,0-.07,0-.11a1.42,1.42,0,0,1-.29-.1c-.08,0-.23-.06-.2-.16s.12-.08.21-.08c.49,0,.32-.19.05-.35a2.88,2.88,0,0,1-.78-.11c.64-.2,1.26-.17,1.77-.36a.55.55,0,0,1,.51-.2,4.49,4.49,0,0,0,1.15-.06c-.19-.16-.29-.33-.18-.52h-.07c-.43-.13-.94,0-1.3-.3l-.46-.16c-.34,0-.32-.24-.47-.36a.92.92,0,0,1-.57-.15c-.16,0-.32,0-.46-.07l-.25,0c-.16,0-.34.05-.44-.09s.1-.22.16-.33a1.26,1.26,0,0,1,1-.63,1.5,1.5,0,0,1,.3,0h.08c-.09-.1-.29,0-.37-.15a20.23,20.23,0,0,1-4.51-1.49,1.76,1.76,0,0,1-1.2-1c-.07-.29-.41-.56-.51-.88,0-.09-.12-.19-.07-.26.21-.32-.07-.33-.36-.34l-1.35-.08c-.1,0-.23,0-.22-.1s.13-.06.21-.05l1.64.12c0-.19-.18-.33-.19-.5s-.21-.13-.36-.14a4,4,0,0,1-1.32-.16l1.79.06c.18,0,.43.1.43-.13s0-.43-.41-.46-.7-.13-1.12-.21a.61.61,0,0,1,.62-.08.52.52,0,0,0,.47,0c.1-.07-.17-.23,0-.34a1.07,1.07,0,0,0-.44-.13c-.36,0-.73-.12-1.18-.19.47-.27.89,0,1.28,0a1.76,1.76,0,0,0,.56,0,9.19,9.19,0,0,1,4.2-.41,3.78,3.78,0,0,1,1.34.25c.23.13.17.27.16.33s.11.25.29.29a1.89,1.89,0,0,0,.67.07,8.53,8.53,0,0,1,1.75,0c-.07-.11-.08-.2.13-.2s.32-.06.38,0-.18.09-.23.17a15.36,15.36,0,0,0,2.76-.27,9.18,9.18,0,0,0-2.34-.94,13.34,13.34,0,0,1-2.41-.88,5.17,5.17,0,0,0-1.12-.42A4.32,4.32,0,0,1,39,123.3a1.91,1.91,0,0,1-.89-.86c-.25-.38-.61-.79-.34-1.23-.17,0-.27.19-.43.24s-.4-.54-.76-.31c0-.18-.16-.36,0-.51l.25-.22a1.1,1.1,0,0,1-.39-.12c-.57-.2-.57-.19-.21-.58.08-.09,0-.19,0-.29a.12.12,0,0,0-.08,0,1,1,0,0,0-.85-.22h0c-.11.15,0,.43-.22.51v.22c0,.14.1.31-.08.41a1,1,0,0,1-.81.17c-.23,0-.37,0-.32.3-.32.24-.44.18-.57-.32-.41,0-.84-.33-1.2.06-.1.1-.23,0-.29-.13l-.21-.32a.4.4,0,0,0-.22-.24c-.43.13-.53,0-.35-.47-.18.18-.32.32-.54.13-.48,0-1-.16-1.44,0a.23.23,0,0,1-.29-.09c-.08-.15.14-.08.15-.19a.72.72,0,0,1,.57-.68c.21-.07.23-.29,0-.4a4.52,4.52,0,0,0-.71-.23c-.24-.06-.5-.17-.6.17,0,0-.12,0-.15-.08-.35-.18-.74,0-1.07-.25s-.62,0-.88-.26c-.19,0-.12.11-.09.22.13.34.52.44.72.71s.23.09.33,0,.08-.12.14-.14a1,1,0,0,1,.76,0c.06,0,.14.09.11.16-.08.26-.37.32-.57.37s-.51.49-.79,0c-.06-.1-.18.07-.27.07-.25,0-.62.12-.54-.39,0-.22-.24-.26-.3-.43-.29,0-.58,0-.71.42-.08.23-.58.3-.83.07s-.59-.21-.89-.28c-.77-.06-1-.23-1.09-1,0-.08,0-.17-.1-.18s-.21,0-.23,0c-.14.68-.37,0-.55,0h0c-.25-.08-.53-.28-.68.12.25.1.35.44.83.47-.72.23-1.25-.08-1.3-.64a3,3,0,0,0-.18-.93h0c-.45-.42-.91-.69-1.39-.17-.08.08-.17.08-.2,0-.08-.38-.46-.34-.68-.52-.45,0-.64-.21-.68-.66a4.11,4.11,0,0,0-.26-.92c-.07-.19-.22-.17-.35-.1-.41.23-.82.07-1.26,0a4.05,4.05,0,0,0-1.43.1,3.7,3.7,0,0,1-1.32.31.44.44,0,0,0-.16,0c-.17.07-.17.59-.42.31s-.92-.63-.55-1.27c.21-.34-.06-.76,0-1.15,0-.19-.24-.17-.39-.2-.34-.07-.37-.11-.43-.33h0a2.61,2.61,0,0,1-1.17-1.38,1.53,1.53,0,0,0-.63-.86c-.24-.15-.38-.37-.68-.26,0,0-.11-.06-.12-.1a1,1,0,0,0-1.17-.66,2.19,2.19,0,0,1-.36,0c-.3,0-.51-.14-.27-.46s.3-1.14,1-1.32c.05,0,.1-.1.11-.09.58.4.36-.24.53-.38a4.9,4.9,0,0,1,1.58-1c.27-.08.36-.43.69-.35.5-.08.68-.55.94-.87s.29-.4.45-.57a1.37,1.37,0,0,0,.45-1.51.68.68,0,0,1,.49-.85,3.79,3.79,0,0,0,.9-.62c.86-.6,1.47-1.53,2.6-1.77.56-.12.66-.72.93-1.12.07-.11.07-.28.19-.35.64-.33,1-1,1.65-1.31.06-.26.24-.48.19-.78s.12-.24.3-.24a.89.89,0,0,0,.88-.71,1,1,0,0,1,1-.71,2.67,2.67,0,0,0,1.83-.94c.2-.3.61-.19.93-.21.54,0,1.08,0,1.23-.68.07-.32,1.34-.6,1.7-.44a1.29,1.29,0,0,0,.47.08c.14-.28.44-.35.67-.5s.27-.14.17-.31a.26.26,0,0,0-.33-.09A1.36,1.36,0,0,1,26.12,90h0a3.12,3.12,0,0,0-1.71.34.47.47,0,0,1-.38.11h0c-.31,0-.51.32-.85.27h0l-.1,0a5.31,5.31,0,0,1-1.5.36,1.9,1.9,0,0,1,1.16-.83,6,6,0,0,1,1.4-.54c.73-.28,1.52-.37,2.25-.62l.12-.18c0-.37.29-.25.48-.28.35-.06.73,0,.82-.51a.25.25,0,0,1,.34-.15c.42.26.61,0,.85-.23,0,0,0,0,0,0,.07-.87.07-.88.95-.88a.65.65,0,0,0,.5-.18,1.93,1.93,0,0,1,1-.38c-1.41-.05-2.81-.26-4.2-.17-.14,0-.23-.08-.35-.11s-.61-.21-.37.33c.08.15-.2.14-.24.28.22.22.15.29-.12.36a4.5,4.5,0,0,1-1.81-.26c-.14,0-.27-.12-.41-.06s-.25.12-.33,0,.12-.23.21-.33a2.94,2.94,0,0,1,1.25.06c.42,0,.44-.11.22-.42a15.26,15.26,0,0,1-2.12-.31c-.14.06-.42-.12-.42.2.11,0,.33-.07.32.14s-.22.19-.38.15-.26-.16-.07-.29l-.11-.21a7.23,7.23,0,0,0-1.74,0,2.29,2.29,0,0,1-1-.23c-.31-.11-.67-.48-.86.12,0,.12-.4.17-.61,0s-.27-.13-.3.05-.07.28.16.31.56.37.89.17a.18.18,0,0,1,.26.12c0,.18-.15.21-.24.17-.25-.11-.56,0-.77-.26,0,0-.09-.09-.11-.08-.49.16-.84-.24-1.24-.4a7.57,7.57,0,0,0-2-.49c-.28.35-.62.24-1,.07s-.09-.21-.1-.31c-.53-.18-1.09-.06-1.62-.28a.18.18,0,0,0-.23.07c-.26.39-.74.28-1,.18-.63-.22-1.28-.3-1.9-.49l-.31,0c-.33,0-.66.08-.88-.31-.08-.13-.23-.07-.33-.14-.48-.48-1.14-.27-1.68-.57-.17-.09-.36-.05-.49-.28s-.29-.4-.4,0c0,0-.21,0-.3,0a8.65,8.65,0,0,0-3.39-.58A1.21,1.21,0,0,1,1,82.32c-.12,0-.33,0-.32-.23S.86,82,1,82l1.75-.4,0-.14L1,81.27c-.07,0-.14,0-.21,0-.23-.1-.63,0-.66-.29s.37-.09.57-.17c.48-.19,1.06-.16,1.55-.37.14-.07.36,0,.36.1,0,.46.3.33.53.35a2.19,2.19,0,0,0,1.49-.26.85.85,0,0,1,.58-.09c-.33-.22-.85,0-1.09-.55-.1-.24-.45.11-.68-.08.53-.51.93-.44,1.65.06.26.18.71.08,1.08.11.18-.39.62-.24.93-.34s.32.26.38.49c.43.23.43.23.06.5l.49.16h.15c.34-.07.47-.56.9-.46h.3c.22-.72-.42-.39-.66-.55.15.38-.17.37-.37.44s-.22-.06-.26-.15.09-.14.17-.19a2.21,2.21,0,0,1,.27-.12c-.08-.16-.36,0-.36-.24s.22-.15.35-.2c.39-.15.83,0,1.23-.13a.24.24,0,0,1,.27.13c0,.16-.15.14-.24.19s-.28.35.06.53c.09.05.13.2.19.31h.18c.06-.16.29,0,.35-.17s-.27-.08-.23-.26.12-.1.21-.1.4.1.41.37.35,0,.48.21l0,.06h0a.09.09,0,0,1,0-.07,1.32,1.32,0,0,1,1.13-.57s0,0,0,0c-.31-.28-1,.12-1.09-.73-.06-.49-.43-1-.3-1.53a1.28,1.28,0,0,0-.68-1.13c.6-.06,1.18.2,1.78.15,0-.12-.11-.27-.07-.37.22-.57-.25-.47-.48-.44-.47.05-.62-.21-.57-.56s-.1-.32-.29-.38L9.9,74.6a.24.24,0,0,1,.34-.07,2.15,2.15,0,0,0,1.63.09,8.11,8.11,0,0,1,4.28.15c.23.08.46.09.49.45s.38-.06.56.16c0,0,.27-.09.28-.23s-.22-.05-.27-.2l.37,0-.45-.22c.41-.12.24-.45.29-.69,0-.07-.16-.16,0-.21a.2.2,0,0,1,.24.08c.15.34.28.18.47.07a.5.5,0,0,1,.63,0c.16.12.44.07.67.1h.31c0-.32.35-.19.52-.27A.53.53,0,0,1,21,74h0l1.17.06a3,3,0,0,0,1.57.39h.1c.38-.59.88-.27,1.39-.1.23.07.5-.2.86.08a4.66,4.66,0,0,1-1.85.65v.36c0,.13.17.22.21.1.13-.4.45-.28.72-.25a1.07,1.07,0,0,0,.66,0c.31-.15.56.06.75.34l.22.26c0-.27.42-.22.42-.52A.29.29,0,0,0,27,75l-.42-.12c-.13,0-.25-.06-.25-.23s.13-.16.24-.21a3.21,3.21,0,0,1,2,0,.38.38,0,0,0,.32-.07.29.29,0,0,1,.42.11c.12.33.38.3.57.26a4.22,4.22,0,0,1,2.18.37c.27.08.56.36.9.41a.6.6,0,0,1,.72.25c.09.14.37.15.57.22,0-.07.17-.12,0-.21s-.43-.14-.45-.43c-.38,0-.07-.56-.52-.52.21-.11.47,0,.57-.2a3.24,3.24,0,0,1,1.14.63c0,.23-.29.08-.31.26,0,0,0,.07.06.07.63,0,.63,0,.6.55.31,0,.29.3.44.44.31-.23.72.2,1-.07,0,0,0,0,0,0s0,0-.06-.08c-.25,0-.37-.32-.21-.34.36,0,.55-.38.91-.36a.27.27,0,0,1,.09,0v-.09l-.64-.24c-.13.08-.22,0-.3-.09s-.19-.18-.19,0,0,.28-.19.25,0-.22-.08-.33-.07-.13-.1-.19l-.56,0c.19-.26.48-.31.52-.63a1,1,0,0,1-.81-.16c-.13-.08-.33-.28-.5,0a.15.15,0,0,1-.23,0,.43.43,0,0,1,0-.25.12.12,0,0,1,.19-.09c.3.21.41-.1.58-.18.33-.15-.13-.35-.1-.55h0c-.32.21-.57-.09-.86-.17a1.74,1.74,0,0,0-1,0c-.33.14-.46-.33-.75-.39a1.36,1.36,0,0,1-.74-.3,1.3,1.3,0,0,1,1.16.1h0a4.81,4.81,0,0,0,1.07,0c-.42-.43-.93-.22-1.34-.4l-.07,0a39.81,39.81,0,0,0-4-.75,2.88,2.88,0,0,1-1.85-.74c1.65.11,3.21.65,4.8.81s3.19.43,4.78.64a21.49,21.49,0,0,0,4.79.41,5.33,5.33,0,0,0-.94-.22c-1.64-.09-3.22-.76-4.86-.88a19.78,19.78,0,0,1-2.69-.49,16,16,0,0,0-2.37-.44,2.12,2.12,0,0,1-1.73-.89A.67.67,0,0,0,27.9,69c-.37.15-.66-.14-1-.26a1.5,1.5,0,0,1-1.35-1.42.08.08,0,0,0-.09,0,1,1,0,0,1-.66-.11c-.37-.23-.77,0-1.16,0-.83,0-1.66-.2-2.49-.24a1.42,1.42,0,0,1-1.11-.77,3.89,3.89,0,0,1,2.1-.45,9.41,9.41,0,0,0,2.43,0c.24,0,.54-.1.7.24.33.13.64,0,1,0a6.21,6.21,0,0,1,1.36-.37c.12,0,.26,0,.29-.16s-.11-.19-.21-.27-.31-.25-.49-.39c.11-.05.2-.1.29-.13s.5.13.53-.14-.34-.22-.47-.38c-1.45-.22-2.9-.42-4.35-.67-.58-.1-1.15-.35-1.74-.48-.76-.19-1.53-.32-2.3-.48a3.72,3.72,0,0,1-.42-.18,5.83,5.83,0,0,1,1.42-.08,21.56,21.56,0,0,1,4.37.37,3.18,3.18,0,0,0,1.11,0,1.48,1.48,0,0,1,1.13.18,1.88,1.88,0,0,0,1.15.21,29.53,29.53,0,0,1,4.29.34,5.36,5.36,0,0,0,1.33-.13,6.1,6.1,0,0,1,1.8.09,7.57,7.57,0,0,0,1.16.1c1.4,0,2.8.29,4.2.32a7.54,7.54,0,0,0,2.51-.07,2.54,2.54,0,0,1,.73,0c.21,0,.58.24.55-.25,0,0,.08-.06.12,0,1,.19,1.82-.29,2.76-.2a5,5,0,0,1,3.37-.93,5,5,0,0,1,2.43-.54,4.86,4.86,0,0,1,1.22-.19c.33-.07.67-.12,1-.16a2.83,2.83,0,0,0-.4-.17c-.15-.05-.39-.19-.44.08,0,.12-.15.07-.27,0a14.8,14.8,0,0,0-2.09-.39.68.68,0,0,1-.42-.21c-.35-.45-.63-.16-.87,0s-.31,0-.42,0a1.9,1.9,0,0,1-1.59-.34c-.11-.1-.25.1-.42.11a7.83,7.83,0,0,1-2.68-.15.35.35,0,0,0-.14,0A23.34,23.34,0,0,1,42.88,60c-.59-.05-1.2,0-1.8-.11-.94-.1-1.88-.15-2.81-.22a10.49,10.49,0,0,1-4.09-1.15c-.83-.43-1.58-.92-2.37-1.38a.67.67,0,0,1-.26-.27,2.25,2.25,0,0,1-.39-1.46.84.84,0,0,0-.12-.5.83.83,0,0,1-.54.25c-.09,0-.15-.08-.2-.16s0-.14.09-.17c.43-.11.08-.28,0-.43-.55,0-1.11-.38-1.66-.12,0,.1.05.13.11.17s.36.12.34.3-.31.11-.38.17c-.44.32-.92-.09-1.36,0,.07.2.1.43-.2.38s-.39,0-.56.35c0-.52-.2-.73-.55-.79a.24.24,0,0,0-.27.08c-.31.46-.5.45-.87,0a1.24,1.24,0,0,1-1-.34s-.23,0-.17.06c.25.48-.19.22-.28.22a3.11,3.11,0,0,0-.58,0,.92.92,0,0,1-.87,0,.19.19,0,0,0-.27.07c-.23.33-.33.06-.44-.14h0c-.2.23-.36.52-.76.29a.16.16,0,0,0-.1,0l-.56,0c-.11-.16.05-.3,0-.45s-.28.07-.4.14-.34.23-.55,0a.32.32,0,0,1-.09,0,1.52,1.52,0,0,1-.86-.13h0a.68.68,0,0,1-.75-.13c-.42.28-.9.12-1.35.09-.15,0-.31-.06-.31-.23s.19-.16.32-.14.29-.1.45,0c.29-.19.63-.07,1,0,.19-.32.52-.24.81-.17.09,0,.1,0,.15,0,.45-.41.46-.4,1,.15.09-.44.37-.46.73-.34.06.29-.59,0-.32.44l0,.05h0l0-.05a2.55,2.55,0,0,1,1.17.28l.31-.2c.12-.13.42-.08.32-.45s.23-.18.38,0a.48.48,0,0,1,.14.44l.12.1.48-.18c-.1-.17-.36-.13-.47-.41.62-.08,1.11.49,1.67.43-.12-.32.05-.45.32-.49h0l.85,0a8.71,8.71,0,0,0,1.91,0c.13-.19.43-.25.41-.55l.08-.18c-.08-.15-.23,0-.33-.12a19.48,19.48,0,0,0-2-.18c-1.48.11-3-.06-4.45.15a1.16,1.16,0,0,1-.58-.07,6.36,6.36,0,0,0-2.41-.13c-1.37-.06-2.75-.13-4.1-.07s-2.6-.07-3.9-.15a2.53,2.53,0,0,1-.34-.09,13.73,13.73,0,0,1,2.61-.17c1,0,2-.08,3-.09,1.15,0,2.3.11,3.43,0,1.8-.12,3.63.06,5.42-.09.08,0,.17.11.26,0-.43-.29-.8-.69-1.38-.66a.88.88,0,0,1-.75-.25c-.14-.16-.32-.11-.46,0a2.42,2.42,0,0,1-2.38.12c-.2-.13-.38-.3-.63-.26a7.15,7.15,0,0,1-.8,0,5.75,5.75,0,0,0-1.55,0c0,.17.42.25.17.44a.68.68,0,0,1-.87-.08c-.3-.27-.5-.37-.77,0a.43.43,0,0,1-.54,0c-.4,0-.78.28-1.22,0-.1-.08-.25.06-.37.11s-.36.24-.54,0h0a.52.52,0,0,0-.25,0,1,1,0,0,1-1.37-.4h-.18a2.17,2.17,0,0,1-1.16,0L7.36,51,6.44,51c-.1,0-.24,0-.28-.09s.15-.14.22-.22h0a.71.71,0,0,1-.5-.57c-.28-.11,0,.31-.29.2s0-.39-.21-.52a4.62,4.62,0,0,0-2.23-.32,2.37,2.37,0,0,1-.56-.1c0,.18.22.36,0,.57-.16-.1-.32-.52-.57-.13,0,0-.2-.21-.45-.23s-.76-.06-1.14-.08S0,49.37,0,49.22.2,49,.42,49a.63.63,0,0,0,.25-.07c0-.08,0-.17,0-.22l0-.42a8.65,8.65,0,0,0,1.34.19c.19-.2.49.07.68-.1A1.32,1.32,0,0,1,4,48.21a.34.34,0,0,1,.38-.08c.18.07.46,0,.51.28s-.22.31-.44.34c.42.15.71.1.81-.29a.16.16,0,0,1,0-.1l0,0c.12-.24,0-.55.21-.84,0,.62.42.53.74.49s.33.11.2.33c.25,0,.22.16.2.32l.12.09c0-.55.51-.31.77-.35A1,1,0,0,0,8.33,48c.2-.27.33-.17.48.06l2-.23a1.09,1.09,0,0,1,.9.11c.42.26.87-.12,1.45-.29a8.59,8.59,0,0,0-1.9-.23,1.06,1.06,0,0,1-.62-.11c-.61-.11-1.18.14-1.79,0-.77-.1-.92-.2-1.19-1a.43.43,0,0,0-.31-.28,3.55,3.55,0,0,0-1.65-.39c-.48-.06-.68-.58-1.13-.75-.19-.06-.09-.36.22-.34.25-.13.59,0,.83-.19-.26-.16-.61-.26-.32-.66.09-.12-.08-.3-.2-.41C4.84,43.1,5,43,5.26,43a1.2,1.2,0,0,1,.85.2,4.32,4.32,0,0,0,1.21.41,23.53,23.53,0,0,1,6.5-.61c1.84.09,3.69.39,5.53.6a6.71,6.71,0,0,0,1.1-.08,12,12,0,0,1,2.86.16c1.28.25,2.55.11,3.82.28.85.11,1.69.23,2.54.31a.28.28,0,0,1,.09-.19,7.49,7.49,0,0,1,0-1.42c0-.1-.07-.16-.14-.23s-.2-.17-.14-.27c.24-.43-.13-.78-.49-1.2a1,1,0,0,1,.55.4.67.67,0,0,0,.71.26.35.35,0,0,0,.27-.49c-.18-.36.39-.57.14-.92.63-.1.12-.63.5-.83.09-.05.07-.17,0-.24s-.14-.29-.1-.47c.09-.34.23-.49.72-.24.24.11.83,0,.88-.27a.5.5,0,0,1,.41-.36,17.5,17.5,0,0,0-3-.82c-.53-.05-1.06-.13-1.59-.18A16.77,16.77,0,0,1,26,36.2c-.17,0-.38,0-.44-.12s-.27-.17-.44-.21c-.69-.13-1.06-.51-1-1,0-.08,0-.14-.11-.18s-.22-.17-.09-.28.08-.08.07-.12a.69.69,0,0,1,0-.13.1.1,0,0,1,0,0c-.06-.06,0-.1,0-.14,0-.21.18-.34.51-.47a1.15,1.15,0,0,1,.5-.12c.25-.54.95-.63,1.57-.82a4.49,4.49,0,0,0,.89-.32,16.44,16.44,0,0,1,5.11-1.34A19.19,19.19,0,0,1,37,30.35a25.92,25.92,0,0,1,3.19-.16h.38A3.41,3.41,0,0,1,41.75,30a20.83,20.83,0,0,1,2.39-.18c2.11-.15,4.21-.31,6.32-.45a28.71,28.71,0,0,1,3.93.11,5.1,5.1,0,0,0,1.6.17c.16,0,.53.05.39-.26,0-.09.13-.07.22-.07a4,4,0,0,0,.6,0c-.51-.12-.92-.47-1.54-.4-.32,0-.48-.33-.74-.43-.43-.16-.37-.3-.17-.5a.72.72,0,0,1,.85-.36.2.2,0,0,0,.24-.14s-.15-.09-.22-.13a1.12,1.12,0,0,0-1,.16.52.52,0,0,1-.51,0c-.37-.24-.78-.11-1.17-.2a1.92,1.92,0,0,0,.95.61c.12,0,.3,0,.25.16s-.11.26-.31.17A13.94,13.94,0,0,0,52,27.83a7.33,7.33,0,0,0-1.81-.34c-.34,0-.63,0-.78-.31a.22.22,0,0,0-.13-.12,5.57,5.57,0,0,0-1.58-.17,2.06,2.06,0,0,1-1.21-.14c-.7-.26-1.44-.42-2.15-.65-.38-.13-.67-.42-1.17-.4a3.12,3.12,0,0,1-1.89-.42c-.09-.05-.32,0-.47,0a3.2,3.2,0,0,1-1-.3,1.13,1.13,0,0,0-1.14,0,1.82,1.82,0,0,1-1.16.06,10.37,10.37,0,0,1-1.44-.34.91.91,0,0,0-.65,0,1.49,1.49,0,0,1-1.13-.05,6.47,6.47,0,0,0-1.7-.25,7.11,7.11,0,0,1-3.07-.61c-.58.07-1.07-.34-1.64-.28a2.87,2.87,0,0,1-.83-.11c-.24-.05-.41-.13-.26-.41s.32-.54.05-.87-.17-.45.3-.52c.64-.1.71-.25.44-.5a.39.39,0,0,0-.35-.1c-.24,0-.3-.13-.39-.26s0-.21.11-.27.25-.13.21-.26c-.11-.37.14-.62.4-.88a1.46,1.46,0,0,0,.44-1.1c0-.37.42-.61.42-1-.22,0-.37.25-.65.07a.93.93,0,0,1-.12-.89c0-.12.18,0,.29,0,.68.08.83-.06.59-.53-.07-.14-.23-.29.06-.36a13.52,13.52,0,0,0,2.28-1.05c-.63,0-1.19-.31-1.73-.35-.72,0-1.44-.17-2.17-.15-.57,0-.52,0-.51-.45,0-.25.15-.54-.21-.82s-.24-.42.2-.55a1.3,1.3,0,0,0,.32-.14c.1-.05.26-.12.19-.22a.48.48,0,0,0-.41-.2c-.6,0-.76-.26-.48-.63,0,0,.08-.06.07-.09-.25-.66.56-1.08.52-1.69a4.3,4.3,0,0,1,.39-1.67c-.31.16-.42.42-.78.29-.19,0-.23-.09-.23-.2a1,1,0,0,0-.1-.4c-.18-.38-.12-.45.41-.48s.57-.15.33-.47c-.12-.17-.17-.33,0-.42a11,11,0,0,0,2-1.19.5.5,0,0,1,.43-.1.64.64,0,0,0,.53-.12A4.45,4.45,0,0,1,31,3.88a2.08,2.08,0,0,0,.94-.51,1,1,0,0,1,1-.26A2.76,2.76,0,0,0,35,2.82a3.28,3.28,0,0,1,1.15-.43,2.26,2.26,0,0,1,1.18-.32,15.18,15.18,0,0,1,3.33-.31c1,0,2,.13,3,0,.66-.05,1.31,0,2,0,.47,0,.92.1,1.41.09a13.93,13.93,0,0,0,1.86-.2,2,2,0,0,1,1.29.05.19.19,0,0,0,.22,0c.34-.44.4-.08.49.13s.07.24.25.26.17-.14.22-.23c.18-.38.2-.38.69-.12.17.09.42.06.41-.06,0-.32.29-.19.41-.13A5.5,5.5,0,0,0,55,2a2.18,2.18,0,0,1,1.29.51.63.63,0,0,0,.56.05,5.11,5.11,0,0,1,1.7,0,9.8,9.8,0,0,0,1.76-.3c.32-.05.26-.29-.07-.45s-.35-.27-.11-.39.2-.57.69-.24a1.67,1.67,0,0,0,.5.15c.37.11.43.26.18.46-.09.08-.3.18,0,.21a11.82,11.82,0,0,0,2.22.13c.27,0,.38-.09.18-.31a.39.39,0,0,1,0-.56.43.43,0,0,1,.44-.07c.2,0,.13.15.13.24,0,.63.09.7.91.66a6.26,6.26,0,0,1,2.68.21A1.65,1.65,0,0,0,69,2.29a1,1,0,0,1,.58,0,1.53,1.53,0,0,0,1.56-.16c.17-.09.29-.13.44,0a.42.42,0,0,0,.39.15c.56,0,1.14-.06,1.71-.09A6.26,6.26,0,0,1,76,2.31a.78.78,0,0,0,.54,0,4.86,4.86,0,0,1,2-.09A7.38,7.38,0,0,0,81,2.12h0a6.7,6.7,0,0,0,1.89.11,2.28,2.28,0,0,0,.64,0c.76-.08,1.54-.06,2.3-.13,1.46-.15,3,0,4.44-.18a10.12,10.12,0,0,1,2.27,0,2.83,2.83,0,0,0,.69-.27h0l0-.13c.23-.14,0-.52.44-.54h0c0-.1.34,0,.16-.22S93.5.52,93.7.35a.63.63,0,0,1,.63-.07c.52.27,1,.06,1.48.06h.24a4.56,4.56,0,0,0,1.38.06c.44-.09.9.15,1.36.15.27.09.56.19.81.29.49.18,0,.26-.18.42l.58.08c.19,0,.39,0,.47.21s.29.1.44.12l.84.05c.19,0,.38-.07.57,0s.2-.07.32,0h.09l0-.05c-.36-.34-.36-.34.14-.4h0c.1-.09.18-.22-.09-.18s-.54,0-.79,0-.69-.33-1.07-.11a.18.18,0,0,1-.2-.08c0-.08,0-.12.09-.14l.32-.06c0-.12-.11-.11-.18-.15s-.39-.21-.16-.37.18-.34.56-.11a2.48,2.48,0,0,0,1.3.1c.4,0,.81.17,1.21,0,.15-.06.26.21.41.31s.34.49.63,0a1.11,1.11,0,0,1,1-.36,14.59,14.59,0,0,0,1.62,0,6.61,6.61,0,0,1,2.13,0c.64.09,1.26.08,1.88.15a13,13,0,0,0,2.26-.17c.33,0,.7.09,1.07.06a1.92,1.92,0,0,0,.55-.09c.39-.12.74.12,1.13.13a1.84,1.84,0,0,0,.75-.06.34.34,0,0,1,.46.11c.2.3.48.59.36,1,0,.06.06.15-.06.18s-.16-.07-.22-.12a3.21,3.21,0,0,0-.3-.21c-.21,0-.46,0-.21.2s0,.23-.14.3a3,3,0,0,0,.89.11h.6c.21,0,.36-.09.27-.21-.26-.34.08-.33.41-.38a1.55,1.55,0,0,0-.72-.19c-.15,0-.31,0-.3-.17h0c-.1-.14-.21-.29-.06-.4a.34.34,0,0,1,.46,0A3,3,0,0,0,120.52.2c.14-.08.35-.1.42,0s.37.15.55.12c.42-.08.83-.22,1.21.15a.57.57,0,0,0,.38,0,1.21,1.21,0,0,1,1,.34,1.61,1.61,0,0,0,1.37.2s0-.05,0-.07c-.31-.17-.3-.47-.54-.68s0-.18.2-.13a2.54,2.54,0,0,0,1.22.14c.1,0,.15,0,.17.09s.17.27.36.08c0,0,.07,0,.1-.07.34.36.48,0,.72,0s.69.18,1,.08c.11,0,.21,0,.39,0-.42.16-.27.24,0,.34a3.59,3.59,0,0,0,1.08.06,7.94,7.94,0,0,0,1.59.29c-.12-.13-.15-.24.07-.29a.62.62,0,0,1,.56.06c.13.11,0,.18-.4.22a6.82,6.82,0,0,0,1.65.31c.39,0,.79,0,1.19,0s.54-.05.54-.32a2.21,2.21,0,0,1-.05-.25c0-.15-.22-.35,0-.42s.24.2.4.28,0,.46.22.66a.23.23,0,0,0,.21.06c.29-.08.46-.37.88-.22h0c.27-.15.63,0,1-.08-.32-.11-.56-.16-.78-.26s-.28-.21,0-.32l.73,0h.44c.1,0,.18,0,.15.14-.14.43,0,.56.61.71l1.48,0c.24-.11.55.07.8,0s-.19-.14-.21-.24-.33-.1-.26-.2.34-.07.53-.07.27,0,.26.1.21.27.45.33a9.35,9.35,0,0,0,1.83,0c.19,0,.16-.07.09-.17s.13-.17.14-.28a.27.27,0,0,1,.12,0c.17.08.06.17,0,.26s0,.33.27.2.38.13.59.11a6.14,6.14,0,0,0,2.1-.13.59.59,0,0,1,.71.14.17.17,0,0,0,.21,0c.14-.12.33-.08.51-.07.55.05,1.11.13,1.67.16.37,0,.39.31.48.52a.75.75,0,0,0,.39.09l.11-.06c-.07-.1-.34-.07-.31-.25,0-.41.44-.15.68-.19l.2-.06a.19.19,0,0,1,.19-.13,1,1,0,0,0,.24,0h.29a2,2,0,0,1,.76,0,3.34,3.34,0,0,0,1.1.06,4.4,4.4,0,0,1,.73.07h0a5.37,5.37,0,0,1,1.5,0,2.56,2.56,0,0,1,.39,0c.2-.07.4,0,.6,0a23.48,23.48,0,0,1,2.65,0,.37.37,0,0,1,.29.14c.06.07,0,.11-.08.14a.27.27,0,0,1-.31,0,.38.38,0,0,0-.43-.06c0,.16.18.13.31.16.54,0,1.09.07,1.63,0,.12,0,.32,0,.32.13s-.25.15-.38.23h-.14c0,.08.12,0,.17.07s.37.16.37.33-.15.05-.25,0c-.57-.11-1.14,0-1.71-.09-.22,0-.63.07-.59-.3l-.33-.2h-1.08c-.12.13,0,.22.12.32s.32,0,.27.17-.23.1-.37.1a1.51,1.51,0,0,0-.89-.09,1.93,1.93,0,0,1-.34,0,1.71,1.71,0,0,0-.39,0,4.69,4.69,0,0,1-2.14,0,.17.17,0,0,0-.1,0A2.55,2.55,0,0,1,152.82,3l-.14-.06h0a.63.63,0,0,1-.9.14.82.82,0,0,0-.44,0,.55.55,0,0,1-.58-.23,1.17,1.17,0,0,0-.24-.09,2.72,2.72,0,0,0-1.11.16,1.58,1.58,0,0,1-.62.08l-.3,0c-.16,0-.32.18-.48.05h0a13.84,13.84,0,0,0-2.14.06,2.58,2.58,0,0,1-.78-.11c-.07,0,0,0-.05,0l-.1,0a.35.35,0,0,1-.29-.08,1.17,1.17,0,0,0-.59-.33c-.22,0-.44,0-.66-.08h-.08a4.9,4.9,0,0,1-.54,0l-.4,0h-.13c-.18.05-.5,0-.11.26.07,0,.09.11,0,.15l.05.07a.88.88,0,0,0,.79.27c1.26-.11,2.53.16,3.79.16.37,0,.73.11,1.09.14h.2a1.24,1.24,0,0,1,.47,0l.42,0,.14,0,1.19,0a.81.81,0,0,1,.6.25c.1.05.09.19.17.26h.1c.09,0,.15-.07.17-.13-.31-.35-.25-.41.33-.44l.34-.06c.26-.38.62-.06.92,0s.35.1.45-.06.63,0,.9-.11h0l.47-.05.15.13c.57.12,1.15,0,1.72.15a1.46,1.46,0,0,0,.83,0c.38-.17.63,0,.63.25s.61.45.64.8c0,.09.45.08.69.06,0-.27.15-.59-.47-.7-.21,0-.2-.18-.06-.28a1.81,1.81,0,0,0,1.39-.23c.33,0,.68-.15,1,.13a.75.75,0,0,0,.44.15c.15,0,.5.26.43-.16,0-.2.29-.08.46-.09h0a.33.33,0,0,1,.31.15,9.47,9.47,0,0,0,1.59.29h0c.1-.1.41,0,.33-.28s.17-.14.33,0,.32.31.24.49.06.36.31.47h0c.16-.09.52-.13,0-.34-.24-.11-.1-.29.16-.33h0c.3-.38.54-.39,1,0,.17.13.3.19.43,0s.1-.19.27-.16.11.19.19.28-.11.21.08.33c.2-.13.43-.23.48-.47s.07-.16.28,0,.24.05.37.08c0-.13-.22-.23-.06-.33s.23.09.34.12a8.38,8.38,0,0,0,1.33.21h0c.28-.49.65-.1,1,0h0a.58.58,0,0,1,.5.08c.42.23.69.14.71-.22s.31-.11.48-.14h0a4.71,4.71,0,0,0,1.63.35h0l.34.16c.06,0,.18.09.19,0,.06-.36.42-.13.64-.16s.09.14.12.21c.31-.44,1-.23,1.48-.35.18-.05.22.12.31.21s.29-.1.41-.19.19-.18.36-.12,0,.17,0,.25l.12.12L179,4s0,0,0-.06h0a2.66,2.66,0,0,1,1.65-.11c.24.08-.09.37.26.29.12,0,.2-.26.35-.24s.55-.33.73.1a4.86,4.86,0,0,0,1.2.14,1.66,1.66,0,0,1,1,0c.26.1.3-.06.38-.16s.34-.39.67,0c.17.18.49.16.75.21a2.32,2.32,0,0,1,.47.13c.28.15.29.35,0,.38a4.57,4.57,0,0,1-2.05,0h0a.74.74,0,0,0-.57.14s0,0,0,0c-.53-.13-.81.24-1.24.28s-.66.07-.78-.29c-.05-.18-.15-.25-.32,0-.32.4-.34.39-1,.15,0-.1.21,0,.29-.08s.39,0,.4-.13-.29-.09-.37-.21l-.39,0a1.47,1.47,0,0,1-.53,0,.69.69,0,0,0-.75,0h0s-.09.08-.15.09c-.38,0-.22.15-.08.31a.63.63,0,0,1,.77-.11c.12.06.17.13.12.22s-.17.07-.27,0l-.07,0c-.59.26-1.35-.12-1.92.15a.55.55,0,0,1-.5,0h0c-.5-.17-.93.14-1.41,0s-.51,0-.42.32c-.14-.2-.38-.22-.57-.3v0h0v0h0a8.2,8.2,0,0,0-2,.16c-.12,0-.31.16-.35-.14,0-.14-.43-.11-.61-.08a3.71,3.71,0,0,1-1.2,0,.55.55,0,0,0-.42,0c.22.05,0,.26.25.32h0c.18-.11.29,0,.45.07.42.34-.32.27-.23.51,1.57,0,3.15,0,4.72,0l.68,0a.14.14,0,0,1,.18-.13c.58.1,1.16-.06,1.74.08a9.45,9.45,0,0,0,2,0,2.2,2.2,0,0,1,1.24.15,1.42,1.42,0,0,0,.73.09c1.23,0,2.47,0,3.71,0s2.51.12,3.74,0c0,0,0,0,.07.05a10.94,10.94,0,0,1,2.29,0,.89.89,0,0,0,.49-.11c.06,0,.16-.09.2-.07.52.22,1.1.1,1.61.29a2.5,2.5,0,0,1,.67-.06c.7,0,.7,0,.6.5-.18.07-.18-.22-.27-.12-.27.33-.65,0-1,.06l0,0h0l0,0c0,.25-.29.24-.5.32a6.16,6.16,0,0,1,2.3.26l.13.07h0a3.9,3.9,0,0,1,1.18.21,8.56,8.56,0,0,1,2.6.33,2.33,2.33,0,0,1,.84.29.21.21,0,0,0,.23,0c.42-.36.45.15.65.23s.2.22.42.2c.06,0,.16,0,.15,0-.1.42.36.26.58.31s.51,0,.52.28c0,.15.18.11.23,0,.2-.24.7-.11.89-.36a.39.39,0,0,1,.18,0c.2.33.64.22.91.25.48.06.95.34,1.46.19.28-.08.62.14.9,0h0a1.16,1.16,0,0,0,.24.14c.15.06.36.12.33.25s-.28,0-.43.06,0,0,0,.06h0c0,.14.15.1.26.1s.27,0,.25.18-.17.13-.3.09a1.08,1.08,0,0,0-1,.15c.29,0,.45-.11.65-.08s.25,0,.28.13.09.26-.06.29c-.34.07-.58.34-1,.21a.76.76,0,0,0-.76-.24c-.31,0-.7-.14-.89.15-.23-.07-.11-.34-.23-.3-.29.09-.52-.11-.76-.07-.08,0-.2.11-.19.14.15.35-.11.21-.29.12s-.19-.11-.27-.05c-.33.23-.81.1-1.21.19s-.92-.19-1.39-.2h-.09c0,.38.42.65.64,1,.06.08.23.12.23.24a1.53,1.53,0,0,1,.47.11c.22,0,.45,0,.52.2s-.14.24-.35.27-.37.07-.36.2c0,.3-.23.19-.42.16s-.34-.11-.36,0a.3.3,0,0,0,.31.27c.49,0,.44.22.45.43,0,.53-.06,1-1,1.12.6.17.83.44.73.84.06.2-.11.25-.33.26-.4,0-.78.07-.72.49,0,.14-.16.21-.31.28s-.3.29,0,.56-.37.75-.81.73c-.77,0-1.54-.07-2.3-.16a1.31,1.31,0,0,0-1.07.27.57.57,0,0,1-.27.17c-.35.1.13.1.06.18a8.41,8.41,0,0,0,2.06.08,6.77,6.77,0,0,1,1.33.19,4.56,4.56,0,0,0,1.23.15,4,4,0,0,1,.6,0c.22,0,.33.07.2.27a.41.41,0,0,0,0,.47c.33.33.18.47-.23.58-.09,0-.26,0-.17.17a.31.31,0,0,0,.33.17c.32,0,.34.12.32.36,0,.58-.63,1-.52,1.63,0,.26-.24.46-.21.74.49-.21.54-.18.62.25,0,.22-.16.21-.33.21-.43,0-.47.18-.25.4s.12.33-.17.42a2.17,2.17,0,0,0-.51.31,13,13,0,0,1-2.17,1c-.13.06-.27.09-.39.15a2,2,0,0,1-1.5.32,1,1,0,0,0-.56.08,10.17,10.17,0,0,1-1.78.65c0,.31-.27.45-.54.6a.27.27,0,0,1-.15.09.79.79,0,0,1-.38.08c0,.17.51.13.3.38l0,.06c.27.06.61-.06.82.19a.29.29,0,0,1,0,.39c-.19.19-.4.35,0,.6.1.06-.08.16-.18.15-.91-.11-1.75.23-2.67.07l-.25,0c-.67,0-1.32.07-2,0L185,29.49l-.32.06c.43.32,1,.25,1.51.39.18.06.41,0,.62.11a.6.6,0,0,0,.57-.07c.2-.16.44-.31.66.06.1.17.51.09.57.33h.1c.28,0,.56,0,.58.26s-.26.27-.56.24-.71-.05-1.07-.08c-.16,0-.38.05-.44-.16l-.3,0c-.08.09-.47-.18-.36.16,0,.05-.15.06-.19,0-.14-.23-.27-.22-.45-.05s-.26,0-.39-.14c-.08.44-.5.37-.89.28s-.25-.31-.25-.5h0c-.26-.05-.33.11-.46.21a.47.47,0,0,1-.65,0c.11-.15.42-.09.5-.28l-.48-.15c-.19-.1-.42-.11-.59-.31a.78.78,0,0,0-.82,0V30a.69.69,0,0,1,.46.27c.08.08,0,.27,0,.23-.42-.2-.83.14-1.22-.11h-.18c-.32,0-.64-.19-1,0-.14.09-.37-.12-.55-.22a4,4,0,0,1-.4-.28h0a13.4,13.4,0,0,0-1.35-.28c.09.16.52.2.33.34a.67.67,0,0,1-.66.17,1.21,1.21,0,0,0-.71-.13.33.33,0,0,1-.33.1.31.31,0,0,0-.41.13c-.21.26-.64.19-1,.19-.05,0-.15-.08-.15-.13s.11,0,.17,0,.17-.12.3-.17a1.22,1.22,0,0,1-.58-.17,1.12,1.12,0,0,0-1.38.23l0,.13a.81.81,0,0,0,.58-.11c.24-.17.44,0,.46.14,0,.36.41.35.71.43a.48.48,0,0,1,.16.08,8.5,8.5,0,0,0,1.81.19,6,6,0,0,1,.94.08c1,.15,2,.13,3.06.34a5.31,5.31,0,0,0,1,0,2.48,2.48,0,0,1,1.56.33.56.56,0,0,0,.28.05l1.1.09a26.18,26.18,0,0,1,4,.47,13.73,13.73,0,0,0,1.93.21c1,0,2,.23,3.06.29h0a1.55,1.55,0,0,1,1.19.1c.1.06.22,0,.32,0,.08.2.39.1.51.25l.2.08.8,0c.29-.1.51.1.8.14a.49.49,0,0,1-.49.17h-.09a1.35,1.35,0,0,0,1,.17,2.86,2.86,0,0,1,.42,0l.15,0c-.33.4.64.26.49.59.05.13,0,.23-.19.18a.75.75,0,0,0-.45,0c-.14.09-.09.14.08.16s.53,0,.79,0a24.5,24.5,0,0,1,2.84.09c.48,0,1,.19,1.56.28-.22.24-.54.1-.76.19s-.25.13,0,.24h0l.83.48c.19.06.26.25.49.26h.1a1.55,1.55,0,0,1,1,.3c.07.05.17.1.16.18,0,.27.13.25.39.2s.29,0,.34.29c.34-.3.62,0,.94.05a2.83,2.83,0,0,1,.89.29l0,0h0l0,0c.39-.23.77,0,1.12.12S209.51,38.06,209.1,38.29Zm-15.53-9h0Zm-1.06-.63,0,0h0S192.51,28.67,192.51,28.68Zm-.23-21.56Zm-7.39.26Zm-.23,22.38h0ZM183.77,7Zm-.91.44h0Zm3.59-2.84h0Zm-1.22-.26,0,0h0Zm-8.71.55c.07,0,.1,0,.15-.06l-.06,0S176.55,4.84,176.52,4.87Zm-4.87-.72h0Zm-5.78-.24s0,0,0,0v0ZM160.41,2.4v0h0Zm-1.57-.08h0ZM151.42,2s0,0,0,0l0,0Zm-1.12.07h0Zm-1,.56ZM12.46,49.82h0Zm1.88,0-.15,0,0,0,.12,0Zm7,5,0,0h0Zm6.34,10h0ZM36,74.15h-.1C35.91,74.21,35.93,74.19,36,74.15Zm-24.6,6.76h0Zm4.19.94,0,0h0S15.54,81.86,15.54,81.85ZM24.29,85a.61.61,0,0,0-.29-.14l-.36,0a7.43,7.43,0,0,1-.79-.17c-.09,0-.2-.13-.24-.11l-.1,0,0,.12c.09.24-.27.19-.36.33a.27.27,0,0,0,.08.07.32.32,0,0,1,.14,0c.21,0,.46.29.61-.08,0-.06.15,0,.25,0l.07,0a1,1,0,0,1,.53,0H24A1.1,1.1,0,0,1,24.29,85Zm-1.9,31.31Zm9.19-40.5a.17.17,0,0,1,0,0l0,0ZM41.3,133h0Zm2.42,4.27Zm27.7,13.53h0Zm123.71,1h0Zm-1.6,0,.13,0h0l-.1,0Zm-22.81,2.95Zm-8.42-1,0,0h0Zm-1.1,3.7v0h0Zm-.7-11.06Zm-.74-.28Zm-.16,9.13h.06l0,0Zm-1.68,2.3h0l0,0Zm-2.09-2.75h0ZM182.13,142h0Zm-7-6.07h.09C175.16,135.91,175.13,135.92,175.12,136Zm20.95-4.41h0Zm-3.57-.62h0Zm-7.45-2a.69.69,0,0,0,.25.1h.3c.23,0,.45.08.68.12.07,0,.17.08.21.07a.11.11,0,0,1,.08,0l0-.08c-.08-.16.22-.12.3-.22l-.06,0h-.13c-.17,0-.39-.19-.51,0,0,0-.13,0-.22,0l-.06,0a1.36,1.36,0,0,1-.45,0h-.1A1.1,1.1,0,0,1,185.05,128.87Zm8-50.25h0v0Zm-2.84-6.53ZM204,56.87s0,.05,0,0h0Zm-8,.27a1.81,1.81,0,0,0,.57,0Zm-4.77,2Zm-1.37.06a.59.59,0,0,0,.28.26c.17.08.14.17,0,.22l-.29.1a.29.29,0,0,0,.1,0l.37.06s0,0,0,0c.29-.11.31-.26.06-.44l0,0C190.3,59.2,190.18,59,189.88,59.21Zm-.41.23c-.1,0-.21,0-.31,0a.41.41,0,0,1,.3.08l.07,0h0A.15.15,0,0,1,189.47,59.44Zm-.75-.62Zm-1.91-.31Zm-13.68-28.1c.09.1.19.05.28,0a.27.27,0,0,1-.19,0h0ZM166.31,6c.08,0,.22,0,.25.13h.05A3.51,3.51,0,0,1,167.1,6c-.12-.06-.32-.07-.3-.22s.16-.17.31-.18a3.83,3.83,0,0,1,.58-.07c.18,0,.38,0,.37.19s.22.23.42.25.32,0,.49,0,.32,0,.31-.18.15-.3.41-.3h0c-.05-.18-.18-.22-.4-.2a14.68,14.68,0,0,1-2.11.12c-.33,0-.59.17-.92.19C166.08,5.6,166.12,5.85,166.31,6Zm-.52-1.38,0,0h0Zm-1.86,24.48h-.12l-.42,0c.08.11.16.06.23.06s.32.1.3.21-.2.08-.31,0-.27,0-.33.07,0,.05,0,.07l.2,0a25.15,25.15,0,0,0,3.47.32,1.33,1.33,0,0,1,.34.05l.56.12a.53.53,0,0,0,.12,0c-.15-.13-.29-.27-.18-.45s-.07-.13-.16-.18-.29-.07-.33-.17A29,29,0,0,0,163.93,29.07ZM152.85,5.45l.38,0h.15a.82.82,0,0,1,.31.08,4.91,4.91,0,0,0,1,.07c.43,0,.86.2,1.32.16a4.92,4.92,0,0,0-1.65.27s0,0,0,0l-.08.12.29,0,.22-.07.13-.05a2.22,2.22,0,0,1,.51,0,1.52,1.52,0,0,1,.59.12l.37.08a.7.7,0,0,0,.38,0,4.45,4.45,0,0,1,2.06-.13,10.39,10.39,0,0,0,1.37-.07h.06a3.18,3.18,0,0,0,.33-.08c-.15-.17-.36-.1-.55-.13s-.26,0-.27-.11.13-.11.25-.11l.54,0h0c.13,0,.25-.11.4,0s0,.15,0,.22a.76.76,0,0,0,.39.22H162a1.22,1.22,0,0,1,.33,0s0,0,0,0a1,1,0,0,1,.48,0c.83.11,1.58-.16,2.4-.09.18,0,.28,0,.27-.19a.3.3,0,0,0-.26-.33,3.32,3.32,0,0,0-1-.14c-.86.08-1.75,0-2.62,0-.34,0-.69,0-1,0s-.36,0-.4-.21h0a5.46,5.46,0,0,1-1.63.08,7.79,7.79,0,0,0-2.21,0,9.75,9.75,0,0,1-2.3.16,1.7,1.7,0,0,1-.64-.13h0C153.2,5.38,152.92,5.27,152.85,5.45Zm17.38,46.62h0l-.12,0Zm1.13.57h0Zm-12.64-24Zm19.86,29h0ZM157.69,67.93h0Zm20.28,1h0ZM170,69.7v0h0Zm8.48-3.15h0ZM168,63.84v-.05h0Zm-1.91.28h0ZM163.67,71l.05,0h0Zm-.32.15h0ZM152.49,72h0Zm-.28.52h-.06a.08.08,0,0,1,0,0S152.2,72.56,152.21,72.55Zm1.43,1.25v0h0Zm1.71,2,.07,0a.2.2,0,0,0,0-.09ZM149,67s0,0,0,0l0,0ZM140.41,2.22l0,0v0ZM138,1.89h0v0Zm-17.45.89a1.13,1.13,0,0,0,.54.22.19.19,0,0,1-.07-.15A1.1,1.1,0,0,1,120.53,2.78Zm-14.4-1.41h.05l0,0,0,0ZM105.77.28h0Zm-.7,2.09a1,1,0,0,0-1.14,0h.33c.31-.1.58-.12.74.19l-.11.14a3.35,3.35,0,0,0,.77.13h.61c.22,0,.44,0,.65,0h.13l.19,0a.86.86,0,0,1,.33.11l.09,0a5.33,5.33,0,0,0,1.2.5.93.93,0,0,0,.57,0l.23-.17,0-.1c.07-.22.12-.23.36,0l.06,0,.22.07a.17.17,0,0,0,.18,0,.28.28,0,0,0,0-.18c0-.09,0-.17.17-.19a.42.42,0,0,1,.38.15l.13.14a.9.9,0,0,0,.21.08.38.38,0,0,0,.12-.24.26.26,0,0,1,.33-.24c.18,0,.11.19.09.29a.26.26,0,0,0,0,.18l.13,0c.17-.44.19-.45.8-.22a.19.19,0,0,0,.18,0,1.23,1.23,0,0,1,1.07.18.87.87,0,0,0,.57.11,1.34,1.34,0,0,1,.63.09.7.7,0,0,0,.57,0,1,1,0,0,1,1,.06.57.57,0,0,0,.56,0,1.88,1.88,0,0,1,1.47,0,1.62,1.62,0,0,0,1.39-.08c.08-.08,0-.1,0-.11a1.6,1.6,0,0,1-.63-.19.28.28,0,0,1,.08-.15c-.1,0-.07.09-.08.15s-.27,0-.27-.11.08-.17.24-.19l.8-.11V2.65l-.09,0-.14,0a.46.46,0,0,1-.21-.05,1.18,1.18,0,0,1-.3-.1c-.18-.1-.45-.19-.62.07a.65.65,0,0,1-.62.19c-.13,0-.22-.1-.23-.2l-.1-.11a1.28,1.28,0,0,0-1.45-.22.92.92,0,0,1-.91,0,1.47,1.47,0,0,0-.78-.07,8.46,8.46,0,0,1-1.59,0l.06,0c.27.11.53.23.51.48s-.54.23-.84.14-.61-.2-.72-.54a2.22,2.22,0,0,1-1.93.51.86.86,0,0,1-.54-.19h-.12a.69.69,0,0,1-.63,0h-.06l-.26,0-.11,0a1,1,0,0,1-.62,0h0a.81.81,0,0,1-.22-.07,1.72,1.72,0,0,0-1,0c-.44,0-.3-.14-.21-.29-.09-.11-.38-.1-.33-.29A.25.25,0,0,0,106,2c-.05.08-.15.08-.25.07C105.4,2,105,2,105.07,2.37Zm-1.28-1.26a.21.21,0,0,1,.15.19l-.07,0s0,0,0,0c.3,0,.35.09.27.23l.07,0,.73,0h0a.7.7,0,0,1,.16-.53h-.1c-.3.24-.71.1-1.09.09A1.13,1.13,0,0,1,103.79,1.11Zm-.51,1.1.11,0s0,0,0,0Zm-2.73.33c0,.11-.16.14-.28.17a1.2,1.2,0,0,1-.5,0,1,1,0,0,0-.24.07,1.39,1.39,0,0,1-.68,0,5,5,0,0,0,2.4.23,1.9,1.9,0,0,1,1,.1,14.38,14.38,0,0,0,2.13.3c-.2-.31-.21-.53.16-.66h.08c.09,0,.23,0,.28-.08-.41-.07-.86.12-1.23-.18h0l-.14,0v0c-.46.16-.68.06-.91-.39v0c-.47,0-.93.07-1.4.07h0a.17.17,0,0,1-.12,0h0A3.16,3.16,0,0,1,99.85,2a2.48,2.48,0,0,0-.77,0c.08.22.39.23.59.35l.13.05.06,0,.36,0C100.34,2.46,100.52,2.4,100.55,2.54ZM96.8,1.44c.07.08.06.17.09.24h.55c.14,0,.28,0,.42,0l.23,0a.85.85,0,0,0,.22-.09s0,0,0,0a1,1,0,0,1,.07-.46c0-.06,0-.07,0-.08a.2.2,0,0,1-.08,0,2.22,2.22,0,0,1-.64.15,3,3,0,0,1-.68,0C96.67,1.14,96.62,1.25,96.8,1.44ZM94.19.79s0,0,0,0h0ZM93.73,1Zm0,1.94s0-.08,0-.11S93.68,2.9,93.72,2.94ZM55.59,61.28l.56-.06C55.75,61,55.68,61,55.59,61.28Zm-4.89.95h0l0,0h0ZM44.29,74.67h0ZM42,74.83Zm-2-.67h0ZM53.7,140.91h0Zm.47-1.55h0ZM56,142.88h0l0,0Zm3.58,1.38,0,0h0Zm1.31-5.39h0v0Zm1.7,3.84v0Zm1.61-.22h0ZM66.33,138l0,0h0Zm.28-.1ZM71.44,140h0Zm.19,4.95Zm1.79-10.12h0a.06.06,0,0,0,0,.06Zm1.46,1.31h0Zm1,1.17h0Zm.28-.33,0,0v0Zm2.62,9.12h0Zm.15-5.46,0,0v0Zm73,18.2-.43,0a.37.37,0,0,0,.34,0Zm10.63-15.13h0l0,0h0Zm5.45-8.12h0Zm2-.1Zm1.66.44Zm7.24-1.07h0l0,0Zm-2.15-82.25h0Zm-1,.3h0s0-.08,0-.1Zm-2.43-.63v0l0,0Zm-.72-.33h0v0S172.57,51.93,172.59,52Zm1-1.22h0Zm2-.62h0Zm.17,1h0s0,0,0,0Zm5.48-2h0l0,0Zm1.35.16a.15.15,0,0,0-.13.1Zm.12-1.26,0,0h0Zm2.39-15.19.15,0a.53.53,0,0,0,.18,0,1.28,1.28,0,0,1-.31-.11.54.54,0,0,0-.25,0,8,8,0,0,1-2.79-.26,3.57,3.57,0,0,0-1.08-.05,2,2,0,0,1-.87-.14,6.21,6.21,0,0,0-1.62-.23,6.28,6.28,0,0,1-1.43-.17l-.12,0-.43,0a.44.44,0,0,0-.15.05.81.81,0,0,1-.69-.11l-.09,0-.43-.05a1.51,1.51,0,0,1-.3,0l-.24-.05-.19,0a3.48,3.48,0,0,0-1.16,0c-1.94-.19-3.87-.45-5.82-.64-.73-.07-1.44-.15-2.17-.15s-1.49-.21-2.24-.26-1.38-.18-2.07-.27a1.39,1.39,0,0,0-.76,0,.3.3,0,0,0,.3.14c.6,0,1.2.14,1.8.17a16.48,16.48,0,0,0,1.87.25h0c.41.36.84.21,1.32.18a10.91,10.91,0,0,1,2,.19,2,2,0,0,0,.73,0,2.17,2.17,0,0,1,1.13,0l.15,0a3.88,3.88,0,0,1,1,.28l.07.06h.09a.93.93,0,0,1,.8,0,2.55,2.55,0,0,1,1.19.15,4.07,4.07,0,0,1,.41.52,0,0,0,0,0,0,0,.73.73,0,0,0,.68.18,1.32,1.32,0,0,1,.76-.48.88.88,0,0,1,.62,0,2.57,2.57,0,0,0,1.25.16,2.71,2.71,0,0,1,1.58.22c.41.23,1,.1,1.4.27l.2.07h0c.37-.1.75.11,1.13.06h0a3.77,3.77,0,0,1,2,0h0l.14,0a1.33,1.33,0,0,1,1.41.46C184.81,33.2,184.69,32.76,185.18,32.83Zm5.43,14.11v-.23c-.09-.09-.22-.05-.32-.08h0c-.4-.11-.5.1-.57.3s-.05.28-.32.17a2,2,0,0,1-1-.1c-.34-.09-.59-.19-.33-.48a1,1,0,0,0-.38-.08l0,0c0,.12-.17.1-.25.15h0c.21.33-.15.29-.38.33h-.18s0,.07.05.11,0,.2-.11.27a.24.24,0,0,1-.23,0c-.13-.11-.07-.2,0-.29l0,0a.68.68,0,0,0-.58.25c-.13.2-.47.14-.74.15h-.06a.27.27,0,0,1-.17.11h0c0,.1.16.12.27.1a1.66,1.66,0,0,1,1.07.18c.16.09.39.05.57.13a.09.09,0,0,1,.06.06h0l0,0s0-.06,0-.08a.68.68,0,0,1,.59,0h0c.45,0,.73-.37,1.23-.25h0a.56.56,0,0,1,.49-.07,1,1,0,0,0,.7,0l0,0,.29-.13C190.66,47.3,190.45,47.09,190.61,46.94Zm-1.88-12.48s0,0,0,0ZM190,33.9h0Zm1.42,15.48a.46.46,0,0,1-.06-.28c0,.09-.06.18-.09.27A.2.2,0,0,1,191.44,49.38Zm.76.49v0h0Zm-.14-.48s0,0,0,.1h.11A.25.25,0,0,1,192.06,49.39Zm-.36.23a.74.74,0,0,0,.28.14c-.07,0-.1-.1-.06-.18h0a.17.17,0,0,0-.2-.07S191.76,49.59,191.7,49.62Zm1.66-3.2a1.32,1.32,0,0,0-.69-.28c-.14.1-.26,0-.4,0-.3-.07-.59-.08-.68.2.33.14.78.11,1,.42.13.14,0,.33.28.46.15.06,0,.2-.19.23s-.42,0-.45.18a.27.27,0,0,1,.16.17c.3,0,.55-.13.56-.41,0-.07.06-.11.16-.1l0,0h0c.07-.13.3.08.37-.05h0l-.38-.27.21-.09C193.59,46.73,193.82,46.68,193.36,46.42Zm-.9-4.49s0,0,0,0h0Zm.87.18,0,0h0Zm1.75-8.36a2.71,2.71,0,0,0-1.22-.23c-.37,0-.44-.06-.5-.26h-.1a1.83,1.83,0,0,1-1.25.07,3,3,0,0,0-.73-.07l-.29,0a2.47,2.47,0,0,0-.52.13c-.24.1-.37-.08-.54-.2l-.16,0-.05-.05h0a.54.54,0,0,1-.47.13,16,16,0,0,1-2.48-.3l-.14,0a1,1,0,0,0-.62,0,.68.68,0,0,1-.31,0,.13.13,0,0,1,0,.09c0,.14-.17.14-.3.18s-.22.05-.2.16.13.17.27.2.36,0,.43.16H186l.33-.17a.14.14,0,0,0,0-.06.05.05,0,0,0,0-.05c.12-.12.19-.28.46-.07s.17-.06.24-.1a.18.18,0,0,1,.21,0c.06.07.05.14-.05.14s-.25.22-.47.21h0l.05,0c.29.17.5.12.65-.08a.3.3,0,0,1,.37-.15.28.28,0,0,0-.05.09l.08-.06c0-.11.16-.13.3-.12l.1,0a1.19,1.19,0,0,1,1.16.44h0a9.06,9.06,0,0,1,2.44,0,.38.38,0,0,1,.24.06.86.86,0,0,0,1,0,.66.66,0,0,1,.83.08h0a.38.38,0,0,1,.19.05h0c0-.16.21-.14.36-.15A1.27,1.27,0,0,0,195.08,33.75Zm3.21,8.18h.05l0,0S198.3,41.93,198.29,41.93Zm-1-.17h0Zm5.44-2h0ZM191.42,2.59a1,1,0,0,0,.34.07,9.52,9.52,0,0,0,2.39-.11c.13,0,.33,0,.26-.18A.37.37,0,0,0,194,2.2a1.77,1.77,0,0,1-1.13-.06.86.86,0,0,0-.57,0,1.07,1.07,0,0,1-.56.06h-.25c-.17,0-.3,0-.31.16S191.28,2.55,191.42,2.59Zm-4,1.79c0-.12.1-.13.23-.12l.84,0h0a2.15,2.15,0,0,1,1.14-.24c.21,0,.26.22.44.29l0,0c.42.2.15.4-.06.4a.71.71,0,0,0-.69.45c-.06.1-.12.21-.3.16s-.13-.16-.13-.26a.67.67,0,0,0-.73-.54c-.19,0-.37-.06-.56,0A.2.2,0,0,1,187.37,4.38Zm2.55,0Zm-1.27-.06h0ZM202.4,33.9a4.93,4.93,0,0,0-1.33,0,.94.94,0,0,0-.75.33l2.12-.07c.1,0,.18-.07.17-.14S202.5,33.92,202.4,33.9ZM195.47,29a1.28,1.28,0,0,1-.86-.05c-.13,0-.29-.09-.34,0s.07.22.26.26a2.66,2.66,0,0,0,.92.1l.27,0c.18,0,.44.05.47-.08s-.26-.2-.43-.25A.62.62,0,0,0,195.47,29ZM58.32,1.55a3.64,3.64,0,0,0,.47.14.49.49,0,0,0,.56-.19c.11-.21-.21-.21-.35-.29a.81.81,0,0,0-.44-.07h-.19c-.24,0-.37.06-.4.22S58.19,1.5,58.32,1.55Zm133.1,30.36a.13.13,0,0,0,.19,0,1.12,1.12,0,0,1,1-.61.14.14,0,0,0,.14-.19.11.11,0,0,1,0-.05,1.15,1.15,0,0,0-1.71-.32,7,7,0,0,1-.82-.17c-.16,0-.32,0-.32.12s.14.17.28.17a3,3,0,0,1,1,.18h0c.1.22.34.43,0,.65C191.18,31.71,191.31,31.84,191.42,31.91ZM57.19,2c.24,0,.34,0,.32-.22s-.39-.47-.75-.48c-.15,0-.37,0-.28.15A.91.91,0,0,0,57.19,2ZM165.92,3.18c.34-.25.73,0,1.08,0s.51.17.61,0,.75-.39.55-.83c0,0,.09-.07.14-.12a3.35,3.35,0,0,0-.68-.16c-.25-.06-.53-.16-.62.09s-.19.43.29.5c.07,0,.28.06.23.2-.52,0-.53,0-.71-.3-.06-.08-.11-.14-.22-.12s-.22.07-.23.16,0,.14.16.18.27,0,.37.08h0c-.32,0-.64.11-1,0a.42.42,0,0,0-.45,0c-.07,0-.07.1,0,.16S165.86,3.22,165.92,3.18ZM55,1.78c.1,0,.42,0,.41-.12s-.3-.3-.55-.34-.34,0-.3.21S54.62,1.81,55,1.78ZM179.89,51.11c.07-.14-.06-.19-.24-.21,0,0,0-.06-.06-.09-.12-.28-.41-.14-.63-.17s-.16.1-.15.19-.18.39.21.28a.55.55,0,0,1,.49,0C179.63,51.21,179.82,51.24,179.89,51.11Zm24.66,4.25a6.48,6.48,0,0,0,1.91.1A6.82,6.82,0,0,0,204.55,55.36ZM194.3,48.77a.93.93,0,0,0-.21-.05.78.78,0,0,0-.21,0c-.12.06-.39.06-.3.22s.31.09.47.05.21-.12.28-.1.35.17.38,0S194.43,48.84,194.3,48.77ZM164.51,2.66a2.21,2.21,0,0,1,.68-.05c.11,0,.21,0,.18-.12s-.11-.07-.19-.05a2.42,2.42,0,0,1-.71,0,.22.22,0,0,0-.28,0c-.05,0-.07.1,0,.13A.43.43,0,0,0,164.51,2.66ZM62.73,1.6c.08,0,.15,0,.16-.07s-.43-.48-.5-.48a.18.18,0,0,0-.19.21C62.22,1.52,62.56,1.49,62.73,1.6Zm16.63-.06c.15,0,.36,0,.34-.18s-.25-.1-.4-.14-.43-.1-.43.09S79.18,1.51,79.36,1.54Zm-8.89,0c.25.32.6.13.91.16s.24-.05.2-.17a.2.2,0,0,0-.27-.15.39.39,0,0,1-.35,0l-.43-.07c-.11,0-.27,0-.3.06S70.32,1.49,70.47,1.52Zm125,30.85c0,.23-.16.39-.12.59C195.79,32.91,195.82,32.79,195.51,32.37Zm-.12.59Zm-15.71-2.23c-.12,0-.22,0-.22.14s.16.16.31.16.25,0,.24-.12S179.84,30.73,179.68,30.73Zm-.58,21c0,.11.18.11.28.13s.28,0,.27-.13-.16-.12-.28-.14S179.09,51.6,179.1,51.73Zm-2-46c0,.09.12.13.21.13s.32,0,.34-.15-.16-.11-.27-.12S177.14,5.57,177.14,5.71Zm21.27,53.74a1.29,1.29,0,0,0-.57-.09C197.87,59.64,197.87,59.64,198.41,59.45Zm-.57-.09ZM174.56,51c-.19,0-.21.13-.23.23s.07.17.2.19.42.11.47-.06-.15-.13-.28-.13S174.78,51,174.56,51ZM202.2,44.9a.57.57,0,0,0,.53.16c.06,0,.08-.08,0-.12A.55.55,0,0,0,202.2,44.9Zm-11.74,7.38a1.79,1.79,0,0,0,.83,0A.78.78,0,0,0,190.46,52.28ZM175,50.94c0,.07.05.16.15.17s.35,0,.24-.19C175.26,50.88,175.09,50.74,175,50.94Zm.39,0Zm0,0h0Zm3.52-20.77v-.1l-.68-.08A.66.66,0,0,0,178.92,30.15Zm21.74,10.76c.25.05.42.12.51,0a.13.13,0,0,0-.09-.19C200.88,40.66,200.86,40.83,200.66,40.91ZM140.26,1.17a.34.34,0,0,0,.1,0c.11.05.23.07.3,0s0-.11,0-.16-.23,0-.32,0-.55-.12-.53.08S140.09,1.09,140.26,1.17ZM130.91.83c.11,0,.2,0,.21-.11s-.14-.11-.27-.13-.2,0-.16.11A.23.23,0,0,0,130.91.83Zm45.44,5s.08.08.12.08a.21.21,0,0,0,.22-.15c0-.06-.05-.13-.13-.12A.21.21,0,0,0,176.35,5.79Zm3.59,44.56a.16.16,0,0,0-.18-.09c-.11,0-.18,0-.18.13a.24.24,0,0,0,.23.11C179.91,50.49,180,50.43,179.94,50.35ZM203.46,9c.08,0,.16-.05.13-.12s-.13-.07-.21-.07-.12,0-.1.09A.18.18,0,0,0,203.46,9ZM26.63,6.58c0-.06,0-.14-.1-.14s-.11.08-.13.1,0,.13.08.14S26.63,6.65,26.63,6.58Zm128.1-3.3Zm30.52,1ZM158.93,5.76c-.27-.09-.51-.19-.75,0-.06,0,0,.13.06.16A.54.54,0,0,0,158.93,5.76Zm-9-2.87c0,.07,0,.15.16.17s.19,0,.19-.11a.19.19,0,0,0-.19-.15A.12.12,0,0,0,150,2.89Zm-48.35-.44c0-.13-.2-.11-.33-.11s-.2,0-.19.11a.33.33,0,0,0,.33.12C101.54,2.56,101.66,2.53,101.63,2.45Zm86.13,44.72c-.12,0-.19,0-.18.12a.23.23,0,0,0,.26.2c.12,0,.21-.07.18-.17A.24.24,0,0,0,187.76,47.17ZM166.65,5.64c-.21,0-.38,0-.48.14C166.52,5.85,166.52,5.85,166.65,5.64ZM26.11,59.93a4,4,0,0,0,1.11.36,39.41,39.41,0,0,1,4.32.62,1.94,1.94,0,0,0,1,.25c.22,0,.59.09.58-.15s-.37-.15-.58-.17a4.9,4.9,0,0,0-.61-.21c-1.77-.3-3.53-.63-5.3-.84A.48.48,0,0,0,26.11,59.93ZM4.57,74.73a2,2,0,0,0-.83-.38c-.37,0-.37.34-.46.58s0,.4.3.45l.47.07c.32,0,.66.1.8-.2S4.72,74.84,4.57,74.73Zm188.91.8-.58,0c-.13,0-.26,0-.31.12s.08.21.16.3a1.17,1.17,0,0,0,1.57.19c.1-.08.27-.14.23-.31s-.24-.2-.39-.23Zm-183.34.85C8.4,76,6.7,75.7,4.86,75.46A18.24,18.24,0,0,0,10.14,76.38ZM3.79,46.2a7.11,7.11,0,0,0,1.94.15,4.49,4.49,0,0,0-1.94-.47c-.11,0-.24,0-.24.13S3.68,46.17,3.79,46.2ZM21.11,86.31c0-.25-.46-.28-.77-.31s-.59-.08-.6.2.39.16.59.26a.14.14,0,0,0,.11,0C20.66,86.36,21.12,86.68,21.11,86.31ZM12.19,56.49a.18.18,0,0,0-.18-.17,5,5,0,0,0-2,.23l2,.08C12.14,56.64,12.19,56.59,12.19,56.49Zm17.15,0c-.17.46.21.33.4.38s.34.06.31-.15-.13-.51-.46-.51S29.14,56.13,29.34,56.46Zm-14.42-1.8a.17.17,0,0,0,.21-.17c0-.15-.14-.14-.24-.14s-.46,0-.69,0a1,1,0,0,0-.85-.1c-.12,0-.32,0-.31.16s.2.17.32.23.13.22.27.18A2,2,0,0,1,14.92,54.66ZM7.68,74a8.84,8.84,0,0,0,1.8.27C8.05,73.68,8.05,73.68,7.68,74ZM34.07,74c0-.17-.15-.18-.25-.2-.28,0-.5.11-.74.16a.24.24,0,0,0,.27.25C33.6,74.21,34,74.39,34.07,74Zm-9.85-.69c0-.21-.2-.32-.36-.34a.33.33,0,0,0-.37.27c0,.23.24.16.36.24S24.22,73.57,24.22,73.35Zm-3.86.2a2.85,2.85,0,0,0,.51-.07c.14,0,.3-.13.1-.33-.15-.4-.53-.36-.83-.49C20.33,72.94,19.92,73.31,20.36,73.55Zm-.16,17.9c0,.13.14.2.26.18a.54.54,0,0,0,.47-.38c0-.11-.13-.13-.26-.14A.51.51,0,0,0,20.2,91.45ZM30.74,56c-.73-.3-.73-.3-1.09,0C30,56.17,30.3,56,30.74,56ZM196.8,90.88c0,.25.2.09.3.15s.4.06.4-.18-.22-.19-.34-.18S196.81,90.72,196.8,90.88ZM21.12,54.13c.14,0,.38-.05.23-.38-.18.31-.46.2-.78.11C20.72,54.2,20.93,54.19,21.12,54.13Zm6.8,64.6c-.11,0-.22,0-.2.16s.13.3.31.31.21-.09.19-.23A.28.28,0,0,0,27.92,118.73Zm-.66-32a.51.51,0,0,0-.52-.26c-.08,0-.09.11,0,.17A.42.42,0,0,0,27.26,86.76ZM5,84a.17.17,0,0,0,0,.14A.41.41,0,0,0,5.56,84C5.37,84,5.18,83.82,5,84ZM2.61,80.3c.11,0,.23,0,.21-.15S2.69,80,2.59,80a.18.18,0,0,0-.22.15C2.4,80.27,2.51,80.29,2.61,80.3Zm11-6.64c.2.13.36.18.52.07s0-.13,0-.16S13.78,73.45,13.63,73.66ZM68.14,150c0,.15-.2.13-.31.1-.52-.13-.61.25-.9.39-.06,0-.1.15-.18.08-.34-.27-.87,0-1.2-.32,0-.05-.2,0-.31,0,.08.18.11.38.45.42.07,0,.15.05.12.12s-.12.07-.18.05c-.33-.09-.71,0-1-.28s-.53-.12-.82-.08a4.36,4.36,0,0,1-1.67-.2,2.84,2.84,0,0,1,1.46-.1c.12,0,.27.1.36,0s-.05-.21-.15-.3c-.29-.09-.59,0-.89-.12,0-.17.31-.08.36-.21s-.16-.07-.26-.06c-.69,0-1.38-.19-2.07-.2a.4.4,0,0,1-.24-.1,1.85,1.85,0,0,0-1.31-.4,2,2,0,0,1-.92-.25H58.2a5.66,5.66,0,0,0-1.31.09,5.29,5.29,0,0,1-.71-.09c-.07,0-.11,0-.12-.08-.12-.39-.26-.47-.77-.44H55c-.38,0-.82.07-1-.36h0A3,3,0,0,0,53,147.6a.61.61,0,0,1-.51-.19,1.43,1.43,0,0,0-1.3-.55,3.33,3.33,0,0,1-.63,0c-.18,0-.42-.14-.39-.3s.28-.12.45-.09c.4.07.79.17,1.19.25.06,0,.14.06.17,0,.42-.18.78.1,1.16.16a4.71,4.71,0,0,1,1.29.33h0a4.91,4.91,0,0,1,1.3.3h0a2.85,2.85,0,0,1,.71.18,7,7,0,0,1,1.11.31,7,7,0,0,1,1.51.27,24.84,24.84,0,0,0,2.7.55,3.45,3.45,0,0,1,1.71.24l.12.1,1.48.31a9.49,9.49,0,0,0,1.51.23c.16,0,.32,0,.49,0s.57-.14.87,0C68,149.84,68.16,149.89,68.14,150ZM56.08,147.7h0Zm9.08,2.1h0a.54.54,0,0,1,0,.23C65.29,150,65.37,150,65.16,149.8ZM45.37,145h0a3,3,0,0,0-1.68-.42.15.15,0,0,1-.16-.05.76.76,0,0,0-.62-.24c-.1,0-.25-.06-.27-.11-.14-.37-.48-.29-.76-.24a4.71,4.71,0,0,1-.75,0l-.36-.16h0c-.09-.16-.63-.14-.37-.46,0,0,0-.08-.1-.1a2.77,2.77,0,0,0-1.92-.08,2.75,2.75,0,0,1-.49.11l.2.08a2.69,2.69,0,0,0,2,.59h0a2.69,2.69,0,0,0,2.11.29c0,.07,0,.11,0,.11s-.28.15-.21.32.25.11.41.1.16,0,.16.14c0,.26.22.37.56.36s.54.06.8.07.43.28.7.24a4.84,4.84,0,0,1,1.14,0,1.65,1.65,0,0,0,.62,0C46,145.37,45.49,145.33,45.37,145Zm138.14.29a4,4,0,0,0-.95-.24c-1.25,0-2.46-.32-3.69-.41a2,2,0,0,0-.81-.16c-.19,0-.5-.06-.49.1s.31.1.49.11a4.39,4.39,0,0,0,.52.13c1.51.2,3,.42,4.52.56A.54.54,0,0,0,183.51,145.24Zm18.34-9.67a1.83,1.83,0,0,0,.71.25c.31,0,.31-.22.38-.38s0-.26-.25-.29l-.4-.05c-.27,0-.56-.07-.68.13S201.72,135.5,201.85,135.57ZM41,135.05h.49c.11,0,.22,0,.27-.08s-.07-.14-.14-.2a1.23,1.23,0,0,0-1.34-.12c-.09.05-.23.09-.19.2s.2.13.32.15Zm156.16-.55c1.48.23,2.93.44,4.49.6A19.27,19.27,0,0,0,197.11,134.5Zm5.41,19.7a7.41,7.41,0,0,0-1.66-.1,4.8,4.8,0,0,0,1.65.31c.09,0,.21,0,.21-.09S202.61,154.21,202.52,154.2ZM187.76,128c0,.17.4.18.66.2s.5.06.51-.12-.34-.11-.51-.18h-.09C188.15,128,187.75,127.77,187.76,128Zm7.6,19.47c0,.07.07.1.15.11a5.47,5.47,0,0,0,1.72-.15l-1.74-.05C195.4,147.38,195.36,147.41,195.36,147.48Zm-14.61,0c.14-.3-.18-.22-.34-.25s-.29,0-.26.1a.36.36,0,0,0,.39.33C180.7,147.68,180.92,147.71,180.75,147.5ZM193,148.68a.13.13,0,0,0-.18.1c0,.1.12.1.21.1l.59,0a1,1,0,0,0,.72.06c.1,0,.27,0,.26-.1s-.17-.11-.27-.15-.11-.15-.23-.12A2.24,2.24,0,0,1,193,148.68Zm6.17-12.61a8.8,8.8,0,0,0-1.54-.18C198.89,136.26,198.89,136.26,199.2,136.07Zm-22.48,0c0,.12.13.12.22.13a2.06,2.06,0,0,0,.62-.1.19.19,0,0,0-.23-.16C177.12,135.91,176.82,135.8,176.72,136Zm8.39.45c0,.14.17.21.31.23s.3-.08.31-.18-.2-.11-.3-.16S185.12,136.33,185.11,136.47Zm3.29-.13c-.15,0-.3,0-.43,0s-.26.09-.09.22.45.23.7.31C188.42,136.74,188.77,136.5,188.4,136.34Zm.14-11.68c0-.09-.12-.13-.23-.12a.46.46,0,0,0-.4.25c0,.07.12.08.22.09S188.49,124.8,188.54,124.66Zm-10.09,32a1.59,1.59,0,0,0,1.11,0A2.38,2.38,0,0,0,178.45,156.63Zm1.1-8.8c.63.19.63.19.94,0C180.2,147.68,179.93,147.82,179.55,147.83ZM38.12,125c0-.16-.18-.06-.26-.1s-.34,0-.34.12.18.12.29.12S38.11,125.14,38.12,125Zm149.63,24c-.12,0-.32,0-.19.25.15-.21.39-.14.66-.07A.38.38,0,0,0,187.75,149Zm-79.08,8.12a.09.09,0,0,0,0,.1.62.62,0,0,0,.6,0C109,157.15,108.85,157,108.67,157.14Zm73.86-29.42a.48.48,0,0,0,.44.17c.06,0,.07-.07,0-.11A.44.44,0,0,0,182.53,127.72ZM201,129.5c.17.06.33.14.49,0s0-.08,0-.08A.42.42,0,0,0,201,129.5Zm2.34,2.53c0,.09.11.1.2.11s.17,0,.18-.1-.11-.1-.21-.1S203.33,131.94,203.34,132Zm-9.21,4.24a.47.47,0,0,0-.44,0c-.06,0,0,.08,0,.1A.35.35,0,0,0,194.13,136.27Z"/></g></g></svg>