<svg xmlns="http://www.w3.org/2000/svg" viewBox="0 0 207.44 168.54"><path d="M206.8 114.38a.76.76 0 0 0-.21 0l-1.66-.13v-.16l1.74-.54c.12 0 .32.12.34-.14s-.2-.2-.3-.24a.65.65 0 0 0-.3-.09 7.09 7.09 0 0 1-3.3-.51h-.3c-.13.47-.35.14-.4 0s-.3-.2-.46-.3c-.52-.32-1.18 0-1.63-.57-.1-.08-.25 0-.32-.15-.2-.43-.52-.37-.85-.3h-.3c-.6-.2-1.23-.25-1.84-.47a.8.8 0 0 0-1 .25.17.17 0 0 1-.23.09c-.5-.23-1.06-.07-1.58-.25 0-.12.17-.24-.08-.35s-.7-.3-1 .13a6.45 6.45 0 0 1-2-.47c-.38-.17-.7-.6-1.2-.4 0 0-.08-.05-.1-.1-.2-.3-.5-.14-.75-.26-.1 0-.26 0-.24.2a.17.17 0 0 0 .25.13c.33-.25.57.12.86.15s.18.23.15.35-.16.24-.3.07-.55-.15-.6 0c-.22.7-.56.3-.86.18a1.8 1.8 0 0 0-1-.22 6.17 6.17 0 0 1-1.71.12l-.1-.23c.2-.16.1-.28-.06-.33s-.36 0-.37.2.2.1.3.15c0 .37-.28.16-.42.24a14.64 14.64 0 0 0-2.07-.26c-.2-.35-.17-.52.24-.5a2.52 2.52 0 0 0 1.22 0c.1-.12.33-.15.22-.4s-.2-.08-.3 0-.27 0-.4-.05c-.6-.07-1.16-.42-1.78-.2-.26.1-.34.17-.13.42 0 .15-.32.16-.25.33.2.6-.24.3-.38.4-.1 0-.2-.13-.34-.1a40.25 40.25 0 0 1-4.11 0 1.93 1.93 0 0 0 1-.5.68.68 0 0 1 .5-.22c.87 0 .87-.06 1-1.06v-.06c.24-.24.44-.58.84-.3.1.07.32 0 .35-.2.1-.53.48-.53.83-.62.18 0 .5.08.48-.35l.13-.2c.73-.32 1.5-.46 2.24-.82a5.69 5.69 0 0 0 1.4-.69c.54-.1.85-.57 1.18-1a4.92 4.92 0 0 0-1.49.49.19.19 0 0 0-.1 0h0c-.33 0-.55.3-.85.35h0c-.15 0-.26 0-.38.13a2.82 2.82 0 0 1-1.7.48h0c-.4-.26-.77-.52-1.25-.26a.21.21 0 0 1-.32-.08c-.1-.2.07-.3.18-.37s.54-.28.7-.6a1 1 0 0 1 .45.07c.35.16 1.6-.22 1.7-.6.18-.84.7-.77 1.25-.84.3 0 .7.07.9-.28a2.84 2.84 0 0 1 1.85-1.17 1.07 1.07 0 0 0 1.07-.87c.17-.53.44-.8.9-.85.17 0 .33 0 .3-.3a2.54 2.54 0 0 1 .23-.91c.66-.4 1-1.17 1.68-1.58.12-.08.13-.28.2-.4.28-.48.4-1.17 1-1.34 1.12-.32 1.76-1.42 2.63-2.15a5.09 5.09 0 0 1 .92-.76.86.86 0 0 0 .52-1 1.87 1.87 0 0 1 .51-1.76c.17-.2.32-.46.48-.67.27-.4.46-.93 1-1 .32.08.42-.33.7-.44a5.31 5.31 0 0 0 1.6-1.16c.16-.16 0-.9.53-.46 0 0 .06-.1.1-.1.66-.24.68-1 1-1.56.25-.38 0-.5-.24-.52a1.51 1.51 0 0 0-.36.06.93.93 0 0 1-1.12-.72s-.08-.1-.1-.1c-.3.14-.43-.1-.66-.27a1.59 1.59 0 0 1-.57-1 2.58 2.58 0 0 0-1.1-1.52h0c0-.26-.07-.3-.4-.36-.15 0-.4 0-.37-.22 0-.45-.22-.93 0-1.33.4-.74-.2-1.06-.48-1.42s-.25.27-.43.37a.37.37 0 0 1-.15 0 3.45 3.45 0 0 0-1.32.41 3.24 3.24 0 0 1-1.4.19c-.43-.06-.84-.22-1.25.06-.12.1-.28.12-.34-.1a5.58 5.58 0 0 1-.21-1.05c0-.52-.2-.75-.63-.73-.2-.2-.6-.12-.65-.56 0-.14-.12-.13-.2 0-.5.63-.94.34-1.36-.13h0v-.17a.74.74 0 0 0 .31-.34c.16-.06.27-.35.45-.25.86.46 1.35-.57 2.07-.74.27-.06.6-.37 1-.45.2 0 .37-.06.47-.3.42-.34 1-.33 1.36-.73.2-.06.48-.06.47-.37s-.3-.13-.45-.2c-.45-.2-.77.2-1.15.28a30.74 30.74 0 0 0-3.35 1.27 11.45 11.45 0 0 1-1.36.46.84.84 0 0 0-1.11-.21.71.71 0 0 1 .54.28c-.27 0-.44 0-.56.28-.14-.18-.28-.46-.4.13 0 .1-.15.06-.23 0s-.08-.1-.1-.2c-.1-.87-.28-1.06-1-1.1h-.12a7.36 7.36 0 0 0 1.13-1.41c.23-.5.76-.6 1-1.08a33.14 33.14 0 0 0 2.62-3.15.62.62 0 0 0 .34-.5c.15-1 .9-1.77 1-2.83a.73.73 0 0 1 .26-.57c.1 0 .13-.1.18-.2a2.64 2.64 0 0 0-.28-2.22 2.73 2.73 0 0 0-1-1.46 4.16 4.16 0 0 0-1.93-1.47 4.14 4.14 0 0 1-1.26-.67A10.4 10.4 0 0 0 186 55.8a8.43 8.43 0 0 1-2.63-1.53c1.13-.2 2.1-.76 3.2-.64-.06.15-.4 0-.28.3s.3 0 .44 0 .24-.16.17-.36a5.91 5.91 0 0 0 2-.1 1.36 1.36 0 0 1 .77.1.38.38 0 0 1 .32.49.53.53 0 0 0 .16.58c.5.42 1 .25 1.53.36a7.47 7.47 0 0 0 4.87-.95 1.32 1.32 0 0 1 .65-.06c.45 0 .9.48 1.47 0l-1.35-.28a.93.93 0 0 1-.49-.21c.2-.2-.1-.46 0-.6s.37-.1.54 0 .45 0 .7-.18a7.78 7.78 0 0 0-1.27-.31c-.5 0-.45-.45-.44-.8s.3-.25.5-.24h2.06a3.28 3.28 0 0 0-1.51-.21c-.17 0-.4 0-.4-.23s-.22-.53-.18-.88l1.88.14c.1 0 .23.08.25-.1s-.14-.16-.25-.16l-1.55-.08c-.34 0-.65 0-.4-.57.05-.13 0-.3-.07-.47-.1-.55-.46-1-.52-1.5a2.33 2.33 0 0 0-1.31-1.78 16.24 16.24 0 0 0-5.1-2.38c-.08-.2-.3-.08-.4-.25h.1a1.36 1.36 0 0 0 .35 0 1.8 1.8 0 0 0 1.2-1.16c.08-.2.32-.34.2-.6s-.33-.15-.5-.12l-.28-.06c-.16-.17-.35-.1-.52-.1a.81.81 0 0 0-.65-.22c-.16-.22-.13-.67-.53-.6l-.5-.25c-.4-.58-1-.26-1.48-.47h-.08a.89.89 0 0 0-.17-.91 3.65 3.65 0 0 1 1.33-.16.63.63 0 0 0 .61-.38c.6-.36 1.3-.34 2.06-.73a2.16 2.16 0 0 0-.89-.15c-.3-.27-.48-.5.1-.62.1 0 .23 0 .25-.16s-.14-.2-.23-.27a2 2 0 0 0-.33-.16c0-.08.2-.17 0-.2-.48-.1-.9-.5-1.43-.38h0c0-.5.44-1 .16-1.54-.06-.13.14-.4.37-.4s.23-.08.1-.22a.54.54 0 0 1 0-.7c.13-.2 0-.32-.12-.35-.4-.1-.3-.55-.46-.83.3-.16.27-.76.62-.78s.26-.28.34-.46-.1-.25.05-.32c.46-.23.1-.4 0-.55a.56.56 0 0 0-.63-.16l-.92-.26c-.08-.2-.4 0-.38-.28a.45.45 0 0 1 .34-.41.35.35 0 0 0 .19-.1c.2-.23.37-.46-.06-.64-.23-.1-.46-.23-.7-.36.17-.4.42-.6.76-.57a1.29 1.29 0 0 0 .9-.42 1.71 1.71 0 0 0 .49-.14c.18-.1.54 0 .48-.47s-.23-.6-.57-.6h0a5 5 0 0 0-1.88-1.22h0a3.07 3.07 0 0 0-1.16-.6c-.16 0-.34-.06-.38-.27s-.33-.35-.5-.5c-.44-.4-1.27-.1-1.38-1.06a.17.17 0 0 0-.12-.1c-.74 0-1.35-.47-2-.62a17.93 17.93 0 0 1-2.47-.64 4 4 0 0 0-2-.48l-.92-.2c-1.4-.18-2.76-.8-4.2-.8a3.46 3.46 0 0 0-1.59-.22 34.47 34.47 0 0 1-3.65-.38 10.42 10.42 0 0 0-3-.35l-4.12-.5c-1.38-.1-3-.38-4.55-.56a6 6 0 0 1-1.34-.09 9 9 0 0 0-3.37-.45h0a1.12 1.12 0 0 0-.78-.23 23.36 23.36 0 0 1-3.82-.5c-.52-.1-1.05-.1-1.57-.2a2 2 0 0 0-1.21 0h0c-.06 0-.14 0-.18-.1a.71.71 0 0 0-1-.32c-.13.06-.27 0-.4 0l-.23.05h-.18a6.59 6.59 0 0 1-1.47-.12c-.32-.24-.7 0-1-.23s-.46-.4-.83-.43a7.71 7.71 0 0 1-1.44-.12c-.25-.07-.34.1-.45.28-.75.06-1.47-.32-2.22-.23-.05 0-.15 0-.17-.08-.18-.5-.4-.1-.6 0 0-.43.34-.75.27-1.18a3.18 3.18 0 0 1 .33-1.61 4.55 4.55 0 0 0 .02-1.54l.3-.1h.1a1.35 1.35 0 0 0 1.37.1h0c.46-.1.75.37 1.15.48a9.84 9.84 0 0 0 4.72.71 1.53 1.53 0 0 1 .81.16 4 4 0 0 0 2.31.34l.5.14a36.22 36.22 0 0 0 3.68.72c.2.34.43.62.83.47h0c.5 0 1 .36 1.5 0 .07-.05.17 0 .23.14.12.4.4.37.68.26.13-.06.26-.17.4-.05.44.4.93.2 1.4.22h0a4.37 4.37 0 0 0 .72.06c.7 0 1.3.47 2 .44h0l1.88.36h.1a2 2 0 0 0 1.08.07c.1 0 .26 0 .27-.23s-.16-.17-.27-.2-.32 0-.38-.22a1.44 1.44 0 0 0-1.08-.81c-.43 0-.9.25-1.27-.18a1.49 1.49 0 0 0-1.25-.09.18.18 0 0 0-.06.08c.4.73-.24.34-.38.48l-.32-.1c-.74-.3-1.4-.83-2.27-.55a1.47 1.47 0 0 1-1-.23c.24-.17.5 0 .74-.2h-.84a.45.45 0 0 1-.48-.27.66.66 0 0 0-1.2.01.5.5 0 0 1-.7.13c-.23-.1.22-.2 0-.47-.6.4-1.2 0-1.8-.06l-.9-.1a2.59 2.59 0 0 1 .93-.51c-.36-.26-.64-.6-1-.4a1.45 1.45 0 0 1-.91.11.76.76 0 0 0-.58-.63c-.52-.2-.57.4-.9.54h0a1.29 1.29 0 0 1-.84.15c-.35 0-.7-.17-1 .08h0-.82c-.07-.2-.46-.08-.32-.5.08-.23.25-.3.4-.4l-1.3-.3c-.2 0-.52-.14-.6.13s.3.17.4.38v.22c-.4-.53-.82.16-1.24-.12s-.64-.15-1-.24-.6-.14-.2-.56a.21.21 0 0 0 .07-.26c-.08-.15-.17 0-.26 0-.43 0-.7.5-1.14.44-.5-.54-1-.88-1.68-.38a.26.26 0 0 1-.37-.08.34.34 0 0 1 0-.28c.4-.44 0-.3-.17-.33-.3-.2-.2-.6-.15-.8.2-.74-.2-.7-.6-.66a3.8 3.8 0 0 1-1.82-.26 2 2 0 0 0-.55-.09c-.93-.1-1.85.32-2.77 0a.42.42 0 0 0-.4.09.81.81 0 0 1-.93.12 2.75 2.75 0 0 0-1 0c-.7-.15-1.44 0-2.1-.13a4.41 4.41 0 0 0-2.08.14l-2.1-.6c-.44-.16-.82.18-1.24.1-.1-.08-.25-.16-.26-.25 0-.47 0-.47-.38-.6h0l-.3-.13c.06-.4.15-.6.53-.28s1.18-.06 1.54-.45c-.78.1-1.48-.2-2.22 0a5 5 0 0 1-1.91-.17c-.17 0-.5-.13-.48.1 0 .4-.16.23-.25.2s-.45-.06-.67-.1c-1-.18-2 .06-2.86-.7h-.2a12.09 12.09 0 0 1-1.33-.17l-4.92-.88a15 15 0 0 0-3.76-.52.6.6 0 0 1-.5-.15 2.38 2.38 0 0 0-1.91-.79 4.82 4.82 0 0 1-1.59-.26 4.86 4.86 0 0 0-1.65-.25L90.32 0a85.76 85.76 0 0 0-10.26.39l-4.3.46-6.3 1.3a1.3 1.3 0 0 1-.67.06 3.7 3.7 0 0 0-1.84.11c-.8-.15-1.54.33-2.32.17a1.41 1.41 0 0 0-1 .14 1.53 1.53 0 0 1-.91.18 22.69 22.69 0 0 0-3.56.19 11.64 11.64 0 0 0-1.77.06 9.2 9.2 0 0 1-2.66.49 6.31 6.31 0 0 0-1.57.34 6.45 6.45 0 0 0-1.87.44c-.3.07-.6-.1-.86.14a3.52 3.52 0 0 1-1.73.92c-1.18.3-2.3.7-3.5.06a.52.52 0 0 0-.75.33.77.77 0 0 1-.79.53 8.8 8.8 0 0 0-1.84.35L39.24 7a5.79 5.79 0 0 0-1.49.23c-.1 0-.18.07-.13.25.12.4-.14.55-.38.7l-.87.07v.16l.86.05c.28.22.3.24.2.32-.26.27-.46.6-.86.67s-.6 0-.8.32a2.1 2.1 0 0 0-1 .25 4.65 4.65 0 0 1-.83-.07 7.84 7.84 0 0 0-2.84.31H31L28.3 10c-1.25-.13-2.5.1-3.74-.14a9.45 9.45 0 0 0-2.81-.05 5.79 5.79 0 0 1-1.09.13l-5.4-.43a20.16 20.16 0 0 0-6.42 1 3.7 3.7 0 0 1-1.17-.42.93.93 0 0 0-.83-.19c-.23 0-.42.17-.15.47.1.13.27.33.18.47-.3.48 0 .57.28.74-.25.22-.57.1-.83.26-.3 0-.4.34-.23.4.44.17.6.77 1.08.8a3 3 0 0 1 1.6.37.43.43 0 0 1 .23.28c.23.88.37 1 1.12 1.07.6.07 1.17-.24 1.76-.14a.82.82 0 0 0 .61.09 6.67 6.67 0 0 1 1.86.19c-.58.2-1 .68-1.44.4a1 1 0 0 0-.88-.09l-2 .36c-.14-.25-.26-.36-.46 0a1.1 1.1 0 0 1-.76.42c-.26.06-.73-.2-.77.44L8 16.3c0-.18.07-.36-.18-.36.14-.25.24-.45-.18-.36s-.7.18-.7-.54c-.2.35-.12.7-.25 1v.06a.2.2 0 0 0 0 .11c-.12.46-.4.53-.8.37.22 0 .48 0 .45-.4s-.32-.23-.5-.3a.35.35 0 0 0-.38.11 1.19 1.19 0 0 0-1.24.24c-.2.2-.47-.1-.67.15-.43-.12-.9 0-1.3-.17l-.06.5a.27.27 0 0 0-.07.26.84.84 0 0 1-.25.09c-.2 0-.43.06-.42.3a.43.43 0 0 0 .43.34H3c.37 0 .42.27.43.24.27-.45.4 0 .56.13.2-.26 0-.45 0-.66a1.51 1.51 0 0 0 .55.09 3.94 3.94 0 0 1 2.17.26c.17.16-.14.48.18.6s0-.36.3-.25a.73.73 0 0 0 .47.64c-.07.1-.27.08-.22.26s.17.1.26.1L8.5 19h1.6a1.93 1.93 0 0 0 1.14-.11h.18a.83.83 0 0 0 1.33.4c.06-.05.16 0 .25 0h0c.16.3.35.1.52 0s.28-.22.38-.14c.4.35.8 0 1.2 0a.38.38 0 0 0 .53-.05c.28-.38.47-.28.76 0a.59.59 0 0 0 .85.05c.25-.23-.15-.3-.15-.5a4.56 4.56 0 0 1 1.52-.06 5.32 5.32 0 0 0 .79-.05c.25-.05.42.13.6.27a2.11 2.11 0 0 0 2.34-.24c.15-.17.33-.23.46-.06a.73.73 0 0 0 .72.25c.58-.06.92.4 1.33.7-.1.17-.18 0-.26.05-1.77.25-3.55.12-5.33.34-1.1.14-2.25.06-3.37.12l-3 .24a12.2 12.2 0 0 0-2.56.32 1.8 1.8 0 0 0 .32.08 30.44 30.44 0 0 0 3.82 0c1.34-.12 2.7-.1 4-.1a5 5 0 0 1 2.36.05 1.19 1.19 0 0 0 .58 0c1.45-.3 2.92-.17 4.37-.37a18.62 18.62 0 0 1 2 .11c.1.1.24 0 .3.13l-.08.2c0 .35-.3.43-.43.65a8 8 0 0 1-1.89.11h-.82c-.28.06-.45.2-.34.57-.56.1-1-.53-1.62-.42.1.33.35.26.43.45l-.48.24-.1-.1a.6.6 0 0 0-.11-.51c-.14-.14-.42-.18-.38.07.08.42-.2.38-.34.54l-.3.24a2 2 0 0 0-1.14-.27v.06-.06c-.24-.5.38-.2.34-.53-.34-.1-.63-.08-.73.43-.5-.6-.52-.6-1-.12-.05.05-.06.06-.14 0-.3-.07-.6-.15-.82.23-.3 0-.64-.15-.94.08-.15-.12-.3 0-.44 0s-.3-.05-.32.18.15.25.3.25c.45 0 .9.18 1.33-.16.22.28.48.2.73.1h0a1.25 1.25 0 0 0 .83.12h.1c.2.24.37.07.54-.05s.22-.26.4-.17-.12.34 0 .5l.56-.06a.15.15 0 0 1 .09 0c.38.24.56-.1.76-.36v-.05.05c.1.22.18.53.43.13.06-.1.14-.15.26-.08a.83.83 0 0 0 .86-.08 2.21 2.21 0 0 1 .57 0c.1 0 .5.27.28-.27 0-.12.12 0 .18-.08a1 1 0 0 0 1 .35c.34.54.52.54.85 0a.23.23 0 0 1 .27-.11c.34.05.5.3.5.9.18-.4.34-.46.57-.43s.27-.22.22-.45c.43-.14.88.3 1.32-.1.08-.06.36 0 .4-.2s-.2-.24-.32-.33-.12-.07-.1-.2c.55-.32 1.08 0 1.63.07.08.16.42.34 0 .5-.1 0-.16.06-.1.2s.1.17.2.17a.87.87 0 0 0 .58-.35c.2-.2-.06-.25-.15-.37s.1-.16.1-.27l.2-.1c0 .23.27.33.2.58s-.16.44.07.58.3-.27.46-.35a5.25 5.25 0 0 1 1.16.26c.34.4.38-.06.53-.25h.22a1 1 0 0 1 .23.12c.4.42.77.38 1.2 0 .12-.1.35-.35.6-.13a.11.11 0 0 0 .17-.07.15.15 0 0 0-.11-.22l-.3-.1c-.12-.7-.12-.7.5-.7 0 .23-.07.57.3.5a3.94 3.94 0 0 0 1 .67h.26c.47 0 1 .24 1.37.1.8-.34 1.64 0 2.42-.34.1-.54.33-.66 1.1-.56-.57 0-.57 0-.76.22a9.06 9.06 0 0 0 2.36.75 5.16 5.16 0 0 0-1.44.52c-.32.25-.68 0-1 .16-.06-.25-.17-.4-.43-.32a1 1 0 0 0-1.07.13c-.6-.45-1.26.05-1.9-.14-.46-.13-1 .18-1.44.12-.32.08-.65-.14-1 0l.55.45a2.69 2.69 0 0 1-1.26.11c-.28 0 0-.1 0-.17s.2 0 .16-.1a.41.41 0 0 0-.36-.29 6.09 6.09 0 0 1-1.35 0c-.08 0-.2 0-.2.1a.2.2 0 0 0 .16.2h0c0 .13.2 0 .22.2l-.14.07c-.1.06-.34 0-.3.2s.22.1.35.1H36c-.1.1-.25.08-.32.22s-.2.12 0 .2a1.4 1.4 0 0 0 .76 0c.5-.07 1 .13 1.46-.1a1.53 1.53 0 0 0 1.15 0h.2a6.22 6.22 0 0 0 2.74-.01c-.14-.3-.38-.1-.56-.18s-.4.1-.72-.07a10.75 10.75 0 0 1 5.37-.12c-1.3.33-2.52 0-3.7.36a4.8 4.8 0 0 0 1.38.2 7.53 7.53 0 0 1 1.49-.11h3.42a16.3 16.3 0 0 1 3.56 0c.26.06.46-.36.76-.2.17.55-.34.25-.44.48-.32 0-.62.24-1 .1-.1 0-.25-.3-.3 0 0 .14 0 .44.27.4a1.29 1.29 0 0 1 .72.22 2.13 2.13 0 0 0 1.23.26.34.34 0 0 0 .11.05 2.26 2.26 0 0 0 .91.2c.16 0 .43 0 .23-.36s-.2-.43.14-.4a25.88 25.88 0 0 1 2.65.3 7.4 7.4 0 0 1 1.66.33c-1.42.6-2.88.3-4.34.26a.48.48 0 0 0 .43.33l2 .4a3.89 3.89 0 0 1 2.39.91c.05.05.2 0 .1.18s-.13 0-.2.05c-.13-.2-.23 0-.33 0a15.33 15.33 0 0 0-2.84.48 21.43 21.43 0 0 0-2.23.44c-.4.13-.83 0-1.2.28a4.71 4.71 0 0 0-2.41.73 4.72 4.72 0 0 0-3.35 1.22c-.92-.05-1.8.53-2.72.36 0 0-.13.05-.12.07 0 .55-.35.3-.55.3a1.79 1.79 0 0 0-.73.07 6.66 6.66 0 0 1-2.47.19c-1.37 0-2.73-.26-4.1-.18a7.25 7.25 0 0 1-1.14-.05 4.74 4.74 0 0 0-1.76 0 4.53 4.53 0 0 1-1.31.2 25.64 25.64 0 0 0-4.2-.19 1.48 1.48 0 0 1-1.08-.09 1.27 1.27 0 0 0-1.11-.16 2.52 2.52 0 0 1-1.09.06 17.56 17.56 0 0 0-4.28-.23 4.74 4.74 0 0 0-1.4.16 3.19 3.19 0 0 0 .41.19l2.24.44c.57.13 1.12.4 1.7.48l4.24.57c.12.18.48.13.44.42s-.34.1-.52.2l-.3.15.46.44c.15.12.23.12.2.3s-.17.18-.3.2a5.53 5.53 0 0 0-1.36.49c-.3 0-.62.15-.94 0-.14-.38-.44-.3-.68-.24a8.27 8.27 0 0 1-2.38.1 3.6 3.6 0 0 0-2.09.61 1.29 1.29 0 0 0 1.06.84c.8 0 1.62.14 2.43.15.38 0 .78-.23 1.14 0a.76.76 0 0 0 .65.1.06.06 0 0 1 .08 0c.1.87.42 1.5 1.26 1.58.3.12.58.45 1 .25.27 0 .42.08.6.4a1.85 1.85 0 0 0 1.66.94 13.78 13.78 0 0 1 2.31.4A15.93 15.93 0 0 0 35 41c1.6.07 3.13.76 4.74.8a5 5 0 0 1 .91.21 17.17 17.17 0 0 1-4.65-.25l-4.66-.5c-1.56-.12-3.07-.67-4.68-.72a2.34 2.34 0 0 0 1.77.77 32.31 32.31 0 0 1 3.91.69h.07c.4.2.9-.07 1.3.4-.4.17-.73 0-1.06.07h0c-.35-.3-.7-.2-1.14-.07a1 1 0 0 0 .71.31c.28.06.4.6.72.42a1.42 1.42 0 0 1 1-.07c.28.07.52.4.84.15h0c0 .23.4.43.07.63-.17.1-.3.46-.57.23a.13.13 0 0 0-.2.11.5.5 0 0 0 0 .28c.06.1.17.07.22 0 .18-.28.37-.06.5 0a.79.79 0 0 0 .78.14c0 .38-.34.45-.54.76h.55l.1.22c0 .12-.18.32.06.37s.2-.1.2-.3.12-.14.2 0 .16.2.3.1L37 46a.38.38 0 0 1 0 .1.14.14 0 0 0-.09 0c-.35 0-.55.4-.9.45-.16 0-.05.36.2.4a.56.56 0 0 1 .05.08c-.3.33-.7-.15-1 .13-.14-.16-.1-.53-.42-.5.06-.65.06-.65-.56-.6l-.05-.07c0-.22.33-.06.32-.32a3.08 3.08 0 0 0-1.08-.66c-.12.3-.36.12-.58.27.45-.07.12.58.5.57 0 .33.22.4.43.47s0 .16 0 .25c-.2-.08-.47-.08-.55-.23-.2-.35-.42-.32-.7-.26s-.6-.35-.87-.43a3.47 3.47 0 0 0-2.12-.33c-.2.06-.45.1-.55-.27a.25.25 0 0 0-.4-.11.36.36 0 0 1-.33.1 2.74 2.74 0 0 0-2 .08c-.1.06-.24.08-.25.26s.1.22.24.25.27.08.4.12.22.16.2.35c0 .35-.4.3-.44.62a2.11 2.11 0 0 1-.2-.29c-.18-.32-.4-.54-.73-.35a1 1 0 0 1-.65.07c-.26 0-.57-.14-.72.32 0 .14-.17 0-.2-.1s0-.27 0-.4a4.65 4.65 0 0 0 1.85-.83c-.34-.3-.62 0-.84 0-.5-.17-1-.52-1.38.17h-.1c-.52-.08-1.07 0-1.52-.38h-1.14a.46.46 0 0 0-.72-.21c-.18.1-.5 0-.53.34h-.3c-.22 0-.5 0-.65-.08a.44.44 0 0 0-.62 0c-.2.13-.33.32-.46-.07a.16.16 0 0 0-.23-.07c-.15.06 0 .16 0 .23-.06.3.1.66-.3.8l.43.24-.37.07c.05.17.3 0 .26.22s-.26.3-.3.27c-.16-.24-.52.28-.53-.15s-.25-.42-.47-.5a6.77 6.77 0 0 0-4.2 0 1.77 1.77 0 0 1-1.6 0 .23.23 0 0 0-.33.1l.9.28c.18.06.32.08.26.43s.07.7.54.6c.22 0 .7-.18.45.5v.42c-.6.1-1.15-.18-1.75-.1a1.4 1.4 0 0 1 .69 1.23c-.16.65.18 1.2.22 1.75.08 1 .74.48 1 .8h0a1.38 1.38 0 0 0-1.14.71.09.09 0 0 0 0 .07h0v-.06c-.1-.2-.37 0-.46-.23s-.17-.4-.4-.4-.18 0-.2.12.17.16.22.3-.3 0-.36.2H9.7c0-.12-.08-.3-.17-.35-.32-.2-.22-.4 0-.6s.27-.06.25-.23a.2.2 0 0 0-.26-.14c-.4.14-.82 0-1.2.2-.13.06-.35 0-.36.25s.28.07.34.25l-.3.22c-.08.06-.23.06-.17.23s.13.2.24.16.52-.1.4-.52c.23.17.87-.24.62.6h-.3c-.42-.1-.57.47-.9.57h-.1l-.47-.16c.38-.33.38-.33 0-.58 0-.26-.15-.63-.36-.54s-.73 0-.93.43c-.36 0-.8.12-1.06-.08-.68-.54-1.07-.6-1.6 0 .2.22.57-.2.66.07.2.68.73.35 1 .58a.83.83 0 0 0-.58.13 1.94 1.94 0 0 1-1.42.4c-.22 0-.53.16-.5-.38 0-.14-.2-.18-.35-.1-.5.27-1 .26-1.54.5-.2.1-.58-.1-.57.22s.42.2.64.3h.2l1.66.13v.16L.78 55c-.1 0-.3-.12-.33.14s.18.2.3.25a1.14 1.14 0 0 0 .3.09 6.93 6.93 0 0 1 3.3.51h.3c.12-.47.34-.14.4 0s.3.2.47.3c.5.32 1.17.05 1.63.58.1.08.24 0 .3.15.2.43.52.36.85.3l.3.05c.6.18 1.24.25 1.84.47a.8.8 0 0 0 1-.26.18.18 0 0 1 .23-.08c.5.22 1.06.06 1.58.24 0 .12-.17.25.08.36s.7.28 1-.14a6.41 6.41 0 0 1 1.95.48c.4.16.72.6 1.2.4 0 0 .08 0 .1.1.18.3.5.13.74.25a.17.17 0 0 0 .24-.2.16.16 0 0 0-.25-.13c-.33.24-.57-.12-.86-.15s-.18-.23-.15-.36.17-.23.3-.07.54.16.6 0c.22-.7.55-.3.85-.18a1.94 1.94 0 0 0 1 .23 6.12 6.12 0 0 1 1.71-.13l.1.24c-.2.15-.1.28.06.32a.28.28 0 0 0 .38-.19c0-.24-.2-.1-.3-.14 0-.37.28-.17.42-.25a14.67 14.67 0 0 0 2.07.27c.2.34.17.52-.24.5a2.52 2.52 0 0 0-1.22 0c-.1.12-.33.15-.22.4s.2.07.32 0 .26 0 .4.05c.6.07 1.15.42 1.77.2.27-.1.34-.18.13-.42.05-.16.32-.16.26-.34-.22-.6.23-.3.37-.4s.2.13.34.1a35.39 35.39 0 0 1 4.12 0 1.9 1.9 0 0 0-1 .49.66.66 0 0 1-.5.22c-.86.05-.86.06-1 1.06v.06c-.24.25-.44.6-.84.3-.1-.08-.3 0-.35.2-.1.53-.48.53-.82.62-.2 0-.5-.1-.5.35l-.13.2c-.73.32-1.5.45-2.23.8a5.59 5.59 0 0 0-1.41.69c-.54.1-.85.57-1.18 1a5.22 5.22 0 0 0 1.53-.57l.1-.05c.34.05.55-.3.85-.35h0c.15 0 .27-.06.38-.14a2.82 2.82 0 0 1 1.7-.48h0c.4.26.77.52 1.25.26a.23.23 0 0 1 .32.08c.1.2-.07.3-.18.38s-.53.27-.68.6a1.2 1.2 0 0 1-.46-.07c-.35-.17-1.6.2-1.7.6-.18.84-.7.77-1.24.83-.32 0-.72-.07-.92.28a2.77 2.77 0 0 1-1.85 1.17 1.08 1.08 0 0 0-1.07.9c-.16.54-.43.8-.9.85-.17 0-.33 0-.3.3a2.6 2.6 0 0 1-.23.92c-.65.38-1 1.17-1.67 1.58-.13.08-.13.28-.2.4-.28.48-.4 1.18-1 1.34-1.12.33-1.76 1.42-2.63 2.15a3.92 3.92 0 0 1-.92.76.87.87 0 0 0-.52 1 1.85 1.85 0 0 1-.51 1.76c-.17.2-.32.47-.47.68-.28.38-.47.92-1 1-.32-.07-.42.33-.7.44A5.11 5.11 0 0 0 6 82.39c-.17.16 0 .9-.53.45 0 0-.07.1-.12.1-.65.24-.68 1-1 1.56s0 .5.24.52A1.49 1.49 0 0 0 5 85a.93.93 0 0 1 1.12.71s.1.12.1.1c.3-.14.43.1.66.26a1.64 1.64 0 0 1 .58 1 2.58 2.58 0 0 0 1.09 1.53h0c0 .25.07.3.4.36.15 0 .4 0 .37.22 0 .45.22.92 0 1.32-.4.75.2 1.06.47 1.43s.25-.28.43-.37a.27.27 0 0 1 .15 0c.5 0 .88-.28 1.32-.42a3.41 3.41 0 0 1 1.41-.18c.43 0 .83.2 1.24-.07.13-.08.28-.1.34.1a4.18 4.18 0 0 1 .21 1c0 .52.2.76.63.73.22.2.6.13.66.57 0 .13.1.12.18 0 .5-.62.94-.33 1.37.13h0v.18a.65.65 0 0 0-.31.34c-.16 0-.27.34-.45.25-.86-.46-1.35.56-2.07.73-.27.06-.6.37-1 .46-.2 0-.37 0-.47.3-.4.33-1 .33-1.36.72-.2.06-.47.07-.46.38s.3.13.45.2c.44.2.77-.2 1.15-.28a29.36 29.36 0 0 0 3.34-1.27l1.36-.46a.82.82 0 0 0 1.11.21.66.66 0 0 1-.54-.28c.27 0 .44 0 .57-.28.13.18.27.46.4-.12 0-.1.14-.06.22-.06s.1.12.1.2c.08.86.27 1 1 1.08h.12a7.43 7.43 0 0 0-1.13 1.42c-.23.5-.76.6-1 1.07a32.06 32.06 0 0 0-2.62 3.16.61.61 0 0 0-.34.5c-.15 1-.9 1.77-1 2.82a.76.76 0 0 1-.25.58c-.1 0-.14.1-.2.18a2.67 2.67 0 0 0 .28 2.23 2.77 2.77 0 0 0 1 1.46 4.18 4.18 0 0 0 1.92 1.46 4.27 4.27 0 0 1 1.26.68 11 11 0 0 0 2.72 1.42 8.2 8.2 0 0 1 2.64 1.53c-1.13.2-2.12.76-3.2.63.06-.14.4 0 .28-.3s-.3 0-.44 0-.24.16-.17.36a6.18 6.18 0 0 0-2 .09 1.36 1.36 0 0 1-.77-.1c-.2 0-.36-.14-.3-.5a.56.56 0 0 0-.17-.58c-.5-.4-1-.25-1.53-.36a7.47 7.47 0 0 0-4.87 1 1.28 1.28 0 0 1-.64.06c-.46 0-.92-.48-1.48 0l1.35.3a.89.89 0 0 1 .49.2c-.2.2.1.47 0 .6a.43.43 0 0 1-.54 0c-.26-.16-.45-.06-.7.17a8 8 0 0 0 1.27.31c.5 0 .45.46.44.8s-.3.25-.5.25H8.62a3.38 3.38 0 0 0 1.5.21c.18 0 .4 0 .4.22s.22.53.2.88l-1.88-.14c-.1 0-.23-.07-.25.1s.13.16.24.17l1.55.07c.34 0 .66 0 .4.58-.06.13 0 .3.06.46.1.56.46 1 .53 1.5a2.29 2.29 0 0 0 1.31 1.77 16.22 16.22 0 0 0 5.09 2.39c.1.2.32.07.42.24a.16.16 0 0 1-.1 0 2.06 2.06 0 0 0-.35 0 1.8 1.8 0 0 0-1.2 1.16c-.08.2-.32.34-.2.6s.32.15.5.13h.3c.15.18.34.1.52.1a.79.79 0 0 0 .64.23c.17.2.13.67.53.6l.5.26c.4.58 1 .25 1.48.46h.1a.85.85 0 0 0 .16.9 3.66 3.66 0 0 1-1.33.17.59.59 0 0 0-.6.37c-.6.37-1.32.34-2.07.74a2.32 2.32 0 0 0 .9.14c.3.27.48.52-.1.62-.1 0-.23 0-.26.17s.14.2.23.27a2 2 0 0 0 .33.15c0 .08-.2.18-.05.2.5.1.9.5 1.43.37h0c0 .5-.44 1-.16 1.53.06.13-.13.4-.37.42s-.23.07-.1.22a.54.54 0 0 1 0 .7.21.21 0 0 0 .12.35c.4.1.3.55.46.82-.3.16-.27.77-.62.78s-.26.3-.33.46.1.25-.05.32c-.47.23-.12.4 0 .56a.6.6 0 0 0 .63.16l.92.26c.08.2.4 0 .38.28a.44.44 0 0 1-.34.4.46.46 0 0 0-.18.1c-.22.24-.37.46 0 .64.23.1.46.24.7.36a.79.79 0 0 1-.76.58 1.21 1.21 0 0 0-.89.42 1.54 1.54 0 0 0-.49.13c-.2.1-.55 0-.48.47s.22.6.57.6h0a5.21 5.21 0 0 0 1.88 1.22h0a2.93 2.93 0 0 0 1.16.6c.15 0 .33 0 .37.26s.33.36.52.52c.44.4 1.26.1 1.37 1 0 0 .1.1.13.1.73 0 1.34.47 2 .63a16.61 16.61 0 0 1 2.47.64 4.12 4.12 0 0 0 2 .47 9.37 9.37 0 0 0 .92.19c1.4.18 2.75.8 4.2.8a3.46 3.46 0 0 0 1.59.22 32.22 32.22 0 0 1 3.66.39 11.07 11.07 0 0 0 3 .35l4.1.5c1.38.1 3 .37 4.55.55a7.36 7.36 0 0 1 1.34.09 9 9 0 0 0 3.37.46h0c.22.24.5.2.77.24a22.55 22.55 0 0 1 3.83.49c.5.1 1 .1 1.56.22a2.07 2.07 0 0 0 1.21 0h0c.06 0 .15 0 .18.1a.72.72 0 0 0 1 .32c.13-.06.27 0 .4 0l.22-.05h.2a6.56 6.56 0 0 1 1.46.13c.32.24.7 0 1 .22s.46.4.84.43a6.92 6.92 0 0 1 1.43.13c.25.06.35-.1.46-.3.74-.06 1.46.32 2.2.24.06 0 .16 0 .17.07.18.5.4.12.6 0 0 .44-.34.75-.27 1.18a3.24 3.24 0 0 1-.33 1.62 4.78 4.78 0 0 0-.22 1.52l-.3.1h-.1a1.35 1.35 0 0 0-1.37-.1h0c-.46.1-.75-.38-1.15-.48a10 10 0 0 0-4.72-.72 1.63 1.63 0 0 1-.81-.15 4 4 0 0 0-2.31-.35l-.5-.14c-1.2-.3-2.45-.52-3.68-.7-.2-.35-.42-.63-.83-.48h0c-.5 0-1-.35-1.5 0-.08 0-.18 0-.23-.15-.13-.4-.4-.37-.7-.25s-.26.16-.4 0c-.43-.38-.93-.2-1.4-.22h0a5.83 5.83 0 0 0-.72-.06c-.7 0-1.3-.47-2-.43h0l-1.67-.25h-.1a2 2 0 0 0-1.07-.06c-.1 0-.27 0-.27.22s.15.17.26.2.33 0 .38.2a1.41 1.41 0 0 0 1.08.81c.43 0 .9-.25 1.28.18a1.5 1.5 0 0 0 1.24.1.2.2 0 0 0 .06-.09c-.4-.73.24-.33.38-.47l.33.1c.73.3 1.4.82 2.26.55a1.42 1.42 0 0 1 1 .23c-.24.16-.48 0-.74.2h.84a.43.43 0 0 1 .48.26.66.66 0 0 0 1.16.06c.2-.3.5-.22.7-.13s-.23.2 0 .47c.6-.42 1.2 0 1.82.06l.88.1a2.84 2.84 0 0 1-.93.51c.37.25.65.58 1 .4a1.52 1.52 0 0 1 .91-.11.78.78 0 0 0 .58.64c.52.2.58-.42.9-.55h0a1.36 1.36 0 0 1 .84-.15c.35 0 .72.18 1-.08h.82c.07.2.47.08.32.5-.07.23-.24.3-.4.4a13.31 13.31 0 0 0 1.3.29c.2 0 .52.14.6-.12s-.3-.18-.38-.4v-.22c.4.53.83-.15 1.25.12s.64.16 1 .24.6.15.2.56a.22.22 0 0 0-.07.26c.1.16.18 0 .26 0 .43 0 .7-.5 1.14-.44.5.53 1 .87 1.68.38a.26.26 0 0 1 .38.08.36.36 0 0 1 0 .27c-.4.45 0 .3.18.34.3.2.2.6.14.8-.2.75.2.7.6.66a4.06 4.06 0 0 1 1.82.26 1.78 1.78 0 0 0 .56.1c.92.08 1.84-.32 2.77 0a.43.43 0 0 0 .39-.09.81.81 0 0 1 .93-.13 2.75 2.75 0 0 0 1 0c.7.16 1.44 0 2.12.13a4.43 4.43 0 0 0 2.08-.14l2.1.62c.44.16.83-.18 1.24-.1.1.08.25.15.26.24 0 .47 0 .47.38.6h0l.3.13c-.06.4-.15.62-.53.28s-1.18.06-1.54.46c.8-.12 1.48.2 2.22 0a5.17 5.17 0 0 1 1.91.17c.17 0 .5.13.48-.1 0-.4.16-.24.25-.2s.45.06.67.1c1 .2 2 0 2.86.7h.2c.45 0 .9.08 1.34.17l4.9.9a16 16 0 0 0 3.76.52.6.6 0 0 1 .5.15 2.35 2.35 0 0 0 1.84.65 5.2 5.2 0 0 1 1.6.26 4.58 4.58 0 0 0 1.64.26h4.17a87.9 87.9 0 0 0 10.26-.38l4.3-.47 6.3-1.3a1.3 1.3 0 0 1 .67-.06 3.59 3.59 0 0 0 1.84-.1c.8.14 1.54-.34 2.32-.18a1.35 1.35 0 0 0 1-.13 1.55 1.55 0 0 1 .91-.19 22.62 22.62 0 0 0 3.59-.21 9.53 9.53 0 0 0 1.77-.06 9.61 9.61 0 0 1 2.66-.49 6.31 6.31 0 0 0 1.57-.34 6.43 6.43 0 0 0 1.87-.43c.3-.07.6.1.86-.14a3.56 3.56 0 0 1 1.73-.92c1.18-.3 2.3-.7 3.5-.07a.51.51 0 0 0 .74-.32.76.76 0 0 1 .8-.53 9.07 9.07 0 0 0 1.84-.36l2.58-.26c.5.1 1-.2 1.48-.23.1 0 .18-.08.13-.25-.12-.4.14-.56.38-.72l.87-.07v-.15l-.86-.05c-.28-.22-.3-.24-.2-.33.25-.26.45-.6.85-.66s.6 0 .8-.33a2.17 2.17 0 0 0 1.05-.25 4.62 4.62 0 0 1 .82.07 7.62 7.62 0 0 0 2.84-.31h0c.9 0 1.8.17 2.7.26 1.25.13 2.5-.08 3.75.15a9.79 9.79 0 0 0 2.81.05 5.6 5.6 0 0 1 1.08-.14l5.4.43a20.27 20.27 0 0 0 6.43-1 3.91 3.91 0 0 1 1.17.43.94.94 0 0 0 .82.18c.24 0 .42-.17.15-.47-.1-.13-.26-.33-.18-.46.3-.48 0-.58-.27-.75.24-.22.56-.1.82-.25.3 0 .4-.34.23-.4-.44-.17-.6-.76-1.07-.8a3 3 0 0 1-1.61-.37.43.43 0 0 1-.29-.31c-.23-.87-.37-1-1.12-1.06-.6-.07-1.17.23-1.76.13a.93.93 0 0 0-.61-.09 7 7 0 0 1-1.86-.18c.58-.22 1-.68 1.44-.4a.91.91 0 0 0 .88.09l2-.36c.14.25.26.36.46.05a1.08 1.08 0 0 1 .76-.43c.26-.06.73.2.77-.44l.12.1c0 .18-.07.36.18.36-.14.25-.24.45.18.37s.7-.18.7.53c.18-.35.1-.7.24-1v-.07a.2.2 0 0 0 0-.11c.1-.45.4-.52.8-.37-.22 0-.48 0-.45.4s.32.23.5.3a.32.32 0 0 0 .38-.11 1.21 1.21 0 0 0 1.24-.23c.2-.2.48.1.67-.15.43.1.9 0 1.3.17l.06-.5c.08-.07.07-.16.06-.26s.17-.1.25-.1.43-.07.42-.3a.42.42 0 0 0-.42-.35h-1.12c-.37 0-.42-.28-.43-.25-.27.46-.4 0-.55-.13-.22.26 0 .46 0 .67a1.38 1.38 0 0 0-.55-.09 4 4 0 0 1-2.18-.27c-.17-.15.14-.48-.18-.6s0 .36-.3.25a.7.7 0 0 0-.46-.63c.07-.1.26-.08.2-.27s-.16-.1-.26-.1l-.9.12h-1.6a2 2 0 0 0-1.14.12H196a.84.84 0 0 0-1.33-.4h-.25c-.17-.32-.36-.12-.53 0s-.27.23-.37.14c-.4-.35-.8 0-1.2 0a.38.38 0 0 0-.53 0c-.28.4-.47.3-.76 0a.58.58 0 0 0-.85-.06c-.25.24.16.3.16.5a4.63 4.63 0 0 1-1.53.06 5.12 5.12 0 0 0-.78.06c-.26.05-.43-.14-.62-.28a2.11 2.11 0 0 0-2.34.25c-.15.17-.32.23-.46.06a.72.72 0 0 0-.71-.26c-.6.07-.92-.38-1.34-.7.1-.17.18 0 .26 0 1.77-.26 3.56-.13 5.33-.35 1.12-.14 2.25-.06 3.37-.12l2.95-.23a12.37 12.37 0 0 0 2.57-.32 2.5 2.5 0 0 0-.33-.09 32.46 32.46 0 0 0-3.82 0c-1.34.13-2.7.1-4 .1a5.23 5.23 0 0 1-2.36-.05 1.07 1.07 0 0 0-.58 0c-1.44.3-2.92.18-4.37.37a16.26 16.26 0 0 1-2-.11c-.1-.08-.25 0-.32-.12l.08-.22c0-.34.3-.43.44-.65a7.89 7.89 0 0 1 1.88-.11h.83a.4.4 0 0 0 .33-.58c.56-.1 1 .54 1.62.42-.08-.32-.35-.26-.43-.45l.48-.23.1.1a.55.55 0 0 0 .12.5c.14.15.4.2.37-.06-.08-.42.2-.38.34-.54l.3-.25a2 2 0 0 0 1.14.28.64.64 0 0 0 0-.07h0v.06c.24.5-.38.2-.34.52.35.12.63.08.74-.42.5.6.5.6 1 .12.05-.05.06-.06.15 0 .3.06.6.15.8-.24.32 0 .64.16.94-.08.15.13.3 0 .45 0s.3.06.3-.17-.15-.26-.3-.26c-.45 0-.9-.17-1.33.16-.22-.28-.47-.2-.73-.1h0a1.29 1.29 0 0 0-.84-.11.32.32 0 0 0-.09 0c-.2-.23-.37-.06-.54 0s-.22.26-.4.17.12-.33 0-.5l-.56.06a.16.16 0 0 1-.1 0c-.38-.25-.56.1-.75.35v.06-.06c-.1-.22-.2-.52-.44-.13a.18.18 0 0 1-.26.09.81.81 0 0 0-.86.07c-.07.05-.42 0-.57 0s-.5-.28-.28.27c0 .1-.12 0-.18.07a1 1 0 0 0-.95-.34c-.34-.54-.52-.54-.86 0a.23.23 0 0 1-.27.12c-.34-.05-.5-.3-.5-.9-.18.4-.34.45-.57.43s-.26.2-.2.45c-.43.14-.9-.3-1.33.08-.08.07-.36 0-.4.22s.2.24.32.32.13.08.1.2c-.55.33-1.08 0-1.62-.06-.08-.17-.42-.35 0-.5.1 0 .15-.06.1-.2s-.1-.18-.2-.17a.92.92 0 0 0-.58.34c-.2.2.07.26.15.37s-.1.17-.1.28l-.2.1c0-.23-.27-.34-.2-.6s.16-.44-.07-.57-.28.27-.46.34a4.17 4.17 0 0 1-1.15-.26c-.35-.4-.4.07-.53.25h-.2a1.12 1.12 0 0 1-.24-.13.76.76 0 0 0-1.2 0c-.12.1-.35.36-.6.13 0 0-.14 0-.17.08a.15.15 0 0 0 .11.21l.3.1c.12.72.12.72-.5.7 0-.23.07-.57-.3-.5a4.51 4.51 0 0 0-1-.67 2.3 2.3 0 0 0-.26 0c-.46 0-1-.24-1.37-.1-.8.33-1.64 0-2.42.34-.1.54-.33.65-1.1.56.57 0 .57 0 .76-.23a9.51 9.51 0 0 0-2.35-.75 5.4 5.4 0 0 0 1.44-.51c.32-.26.67 0 1-.17.06.26.17.42.43.32a1 1 0 0 0 1.07-.12c.6.44 1.26-.06 1.9.13.46.14.94-.18 1.43-.1.32-.08.65.14 1 0l-.56-.45a2.84 2.84 0 0 1 1.26-.11c.28 0 0 .12 0 .17s-.2 0-.16.1.2.3.36.3a6.77 6.77 0 0 1 1.35 0c.08 0 .2 0 .2-.1s-.07-.17-.16-.2h0c0-.12-.2 0-.22-.2l.14-.06c.1-.06.34 0 .3-.22s-.23-.1-.36-.1h-1.64c.1-.1.24-.08.32-.2s.2-.13 0-.2a1.67 1.67 0 0 0-.77 0c-.48.07-1-.12-1.46.1a1.63 1.63 0 0 0-1.15 0h-.2a6.46 6.46 0 0 0-2.8.19c.13.3.37.1.55.2s.4-.1.73.06a10.79 10.79 0 0 1-5.38.13c1.3-.34 2.52 0 3.72-.37-.48 0-.94-.3-1.4-.2a7.52 7.52 0 0 1-1.49.1c-1.14 0-2.28-.06-3.42 0a15.7 15.7 0 0 1-3.56 0c-.25 0-.46.37-.76.2-.16-.55.35-.25.44-.47.32 0 .63-.25 1-.1.1 0 .26.3.3 0 0-.15 0-.45-.27-.4a1.24 1.24 0 0 1-.71-.22 2.36 2.36 0 0 0-1.24-.26.27.27 0 0 0-.11-.05 2.25 2.25 0 0 0-.91-.19c-.16 0-.43 0-.23.35s.2.44-.14.4l-2.64-.3a7.39 7.39 0 0 1-1.67-.34c1.42-.6 2.88-.3 4.34-.25a.45.45 0 0 0-.43-.33l-2-.4a3.84 3.84 0 0 1-2.38-.91c-.05-.06-.22 0-.1-.18s.13 0 .2-.06c.13.2.22 0 .33 0a15.36 15.36 0 0 0 2.83-.48 21.47 21.47 0 0 0 2.23-.45c.4-.12.83 0 1.2-.28a4.55 4.55 0 0 0 2.41-.72 4.78 4.78 0 0 0 3.35-1.23c.93.06 1.8-.53 2.72-.36 0 0 .13 0 .13-.06 0-.56.34-.3.55-.32a1.94 1.94 0 0 0 .72-.06 6.46 6.46 0 0 1 2.47-.2c1.37 0 2.74.26 4.1.18a6.23 6.23 0 0 1 1.14.06 5 5 0 0 0 1.76 0 4.9 4.9 0 0 1 1.31-.2 25.71 25.71 0 0 0 4.21.19 1.55 1.55 0 0 1 1.11.18 1.24 1.24 0 0 0 1.11.16 2.68 2.68 0 0 1 1.09-.05 18.62 18.62 0 0 0 4.28.23 5.47 5.47 0 0 0 1.4-.16 2 2 0 0 0-.41-.19l-2.24-.45c-.56-.13-1.1-.4-1.7-.48l-4.23-.56c-.13-.2-.5-.14-.45-.42s.35-.12.53-.2l.3-.16-.46-.43c-.15-.12-.23-.13-.2-.3s.18-.2.3-.2a5.51 5.51 0 0 0 1.36-.48c.3 0 .62-.15.94 0 .15.38.44.3.68.24a8.27 8.27 0 0 1 2.38-.09 3.52 3.52 0 0 0 2.09-.62 1.27 1.27 0 0 0-1.06-.83c-.8 0-1.6-.15-2.43-.16-.38 0-.78.24-1.14 0a.74.74 0 0 0-.64-.1.08.08 0 0 1-.09 0c-.1-.86-.42-1.5-1.26-1.57-.3-.13-.57-.45-.95-.26-.26 0-.4-.07-.6-.4a1.81 1.81 0 0 0-1.66-.94A13.78 13.78 0 0 1 175 128a17.1 17.1 0 0 0-2.62-.45c-1.6-.06-3.13-.76-4.74-.8a3.85 3.85 0 0 1-.91-.21 18 18 0 0 1 4.69.26l4.67.5c1.56.12 3.06.67 4.68.72a2.41 2.41 0 0 0-1.78-.77 32.63 32.63 0 0 1-3.91-.68h-.06c-.4-.2-.9.07-1.3-.4.4-.16.73 0 1.06-.06h0c.34.3.7.18 1.13.06a1.14 1.14 0 0 0-.71-.31c-.28 0-.4-.6-.72-.4a1.56 1.56 0 0 1-.95.07c-.27-.08-.5-.4-.83-.15h0c0-.22-.4-.43-.06-.62.16-.1.28-.47.57-.24.06 0 .18 0 .2-.1a.52.52 0 0 0 0-.28c-.06-.1-.17-.06-.22 0-.18.28-.37.07-.5 0a.81.81 0 0 0-.79-.15c0-.37.34-.45.55-.76h-.56a1.8 1.8 0 0 1-.08-.21c-.05-.12.18-.33-.07-.38s-.2.1-.2.3-.12.14-.2 0-.16-.2-.3-.1l-.6-.25a.27.27 0 0 1 0-.09h.1c.35 0 .55-.4.9-.46.16 0 .06-.36-.2-.38l-.06-.08v-.06c.3-.32.7.15 1-.12.14.15.1.52.42.48-.06.65-.06.65.56.6l.05.08c0 .2-.33 0-.32.32a2.91 2.91 0 0 0 1.09.67c.12-.3.36-.12.58-.26-.45.07-.12-.6-.5-.58 0-.33-.2-.4-.43-.47s0-.16 0-.24c.2.07.47.07.55.23.2.35.42.32.7.26s.6.34.86.43a3.48 3.48 0 0 0 2.13.32c.18 0 .44-.1.54.28a.25.25 0 0 0 .41.1.36.36 0 0 1 .32-.09 2.69 2.69 0 0 0 2-.09c.1-.06.24-.07.25-.25s-.1-.23-.24-.26l-.4-.1c-.16 0-.2-.16-.2-.36s.4-.3.44-.62a2.51 2.51 0 0 1 .2.29c.18.32.4.54.73.36a.93.93 0 0 1 .65-.08c.26 0 .58.15.72-.32 0-.13.17 0 .2.1s0 .28 0 .42a4.59 4.59 0 0 0-1.84.82c.34.32.6 0 .83.06.5.17 1 .5 1.38-.17h.1c.52.07 1.07 0 1.52.38h1.15a.46.46 0 0 0 .73.21c.17-.1.48 0 .52-.33h.3c.22 0 .5 0 .66.08a.43.43 0 0 0 .61 0c.2-.14.33-.33.46.06 0 .1.15.1.23.08s0-.17 0-.24c.06-.28-.1-.66.3-.8l-.43-.24.37-.08c0-.16-.3 0-.26-.22s.27-.3.3-.27c.16.24.52-.27.54.15s.24.42.46.5a6.77 6.77 0 0 0 4.2 0 1.8 1.8 0 0 1 1.6 0 .23.23 0 0 0 .34-.1l-.9-.28c-.2-.06-.33-.08-.27-.42s-.07-.7-.54-.62c-.22 0-.7.18-.45-.48a1.1 1.1 0 0 0 0-.43c.6-.1 1.15.2 1.75.1a1.42 1.42 0 0 1-.63-1.27c.16-.65-.17-1.2-.22-1.75-.08-1-.74-.47-1-.8a1.42 1.42 0 0 0 1.14-.71.11.11 0 0 0 0-.08h0l-.05.07c.12.18.38 0 .46.22s.17.4.4.4.18 0 .2-.13-.17-.16-.22-.28.3 0 .36-.22h.17c.06.12.1.3.17.35.33.2.22.38 0 .6-.1.06-.27.05-.25.23a.21.21 0 0 0 .26.14c.4-.15.83 0 1.2-.2.13-.07.35 0 .36-.25s-.27-.08-.34-.26a2.4 2.4 0 0 0 .27-.16c.08 0 .23-.06.17-.22s-.13-.22-.24-.17-.52.1-.4.53c-.23-.17-.87.24-.62-.6h.3c.42.1.56-.48.9-.58h.15l.47.17c-.38.32-.38.32 0 .57 0 .26.14.64.35.55s.73 0 .93-.43c.36 0 .8-.13 1.06.07.68.55 1.07.6 1.6 0-.2-.22-.57.2-.66-.07-.2-.67-.73-.35-1.05-.57a.83.83 0 0 0 .58-.14 2 2 0 0 1 1.48-.37c.22 0 .53-.15.5.38 0 .14.2.18.35.1.5-.26 1-.25 1.55-.5.2-.1.57.1.56-.2s-.46-.33-.66-.43zm-17.05-72h0zm-2.5-7.38zm-30.92-22.4h0zm-142.8 4.83zm1.9-.05h-.1.14zM42 11h0zm9.6 1.34h0zm1.57-6.6h0zm0 19.5h0zm.85.46zm.8-16h.07a.18.18 0 0 1-.11-.09zm2.12-4.3h0zm2.18 4.74h0zM27.87 34h0zm7.55 10.34h.1c-.01.08-.04.1-.1.04zM11 53.27h0zm4.05.9zm8.18 3.26h-.1a.92.92 0 0 0-.52 0h-.07c-.1-.07-.22-.08-.25 0-.16.43-.4.12-.6.1h-.14l-.08-.06c.1-.18.45-.13.37-.4a1.3 1.3 0 0 0 0-.13l.1-.06.23.1a5.14 5.14 0 0 0 .78.16h.35a.55.55 0 0 1 .28.15.78.78 0 0 0-.32.13zm-5.56 68.78h0zm2.5 7.37zM51.1 156h0zm142.8-4.88h0zm-1.9.06h.1-.15zm-26.53 6.4h0zm-9.6-1.34h0zm-1.58 6.6h0zm0-19.5h0zm-.85-.46zm-.8 16.05h-.07zm-2.16 4.22h0zm-2.18-4.74h0zm31.25-23.9h0zM172 124.17h-.1s.1-.06.1 0zm4-95.07h0zm-.65 2.78h0zm-1.9-6.16h0zm-4-2.2h0zm-1.9 9.56h0zm-1.7-6.67h0zm-1.9.45h0zm-2.73 7.93h0v.07a.14.14 0 0 0 .01-.07zm-.34.25h0zm-5.28-12.13h0zm-.12 8.72h0zm-2.63 9.13a.31.31 0 0 1 0 .1h-.06a.19.19 0 0 1 .07-.1zm-1.64-2.17h0zm-1-2h0zm-.3.6h0zm-2.42-16h0zm-.52 9.62v.05h-.05zm-82.9-28.2a.28.28 0 0 1 .38 0 4.13 4.13 0 0 0-.49.07zM50.62 29.92h0a.08.08 0 0 0 0 0zm-6.86 14.66h0zm-2.34.3zm-1.9-.7h0zm-8.4 2.23a.14.14 0 0 0 0 .06h0zm.3 93h0zm.64-2.77h0zm1.92 6.2h0zm4 2.18h0zm1.9-9.56h0zm1.7 6.68h0zm1.9-.46h0zm2.72-7.93h0v-.06s0 .05-.01.07zm.35-.25h0zm5.27 12.14h0zm.13-8.72h0zm2.63-9.13a.18.18 0 0 1 0-.11h.06zm1.63 2.23h0zm1 2h0zm.3-.6v-.05.05zm2.47 15.9h0zm.5-9.6v-.06h.05zm82.9 28.24a.3.3 0 0 1-.39 0 4.26 4.26 0 0 0 .5-.06zm13.42-27.28h0zM163.7 124h0zm2.34-.3zm1.88.7h0zm8.4-2.24v-.06h.05zm9.3-10.6h-.1l-.23-.1a5.31 5.31 0 0 0-.77-.17h-.35a.43.43 0 0 1-.28-.15 1 1 0 0 0 .3 0h.1a1.06 1.06 0 0 0 .53 0h.07c.1.07.2.08.24 0 .17-.43.4-.13.6-.1a.39.39 0 0 0 .15 0l.07.07c-.1.17-.45.12-.37.4a.44.44 0 0 1 .03.02zm6.72 2.83h0zm4.08.9h0zM47.2 154.3c-.33-.27-.67 0-1 0a3.64 3.64 0 0 0-.57 0 7.8 7.8 0 0 1-1.72-.33l-1.68-.48c0-.05-.1-.12-.14-.16-.6-.53-1.3-.3-2-.34a18.41 18.41 0 0 1-3.08-.82 6.06 6.06 0 0 0-1.72-.4 6.41 6.41 0 0 0-1.26-.48 2 2 0 0 0-.81-.28 3.83 3.83 0 0 0-1.48-.47 3.41 3.41 0 0 0-1.46-.51c-.43-.1-.83-.57-1.32-.22l-.2-.07-1.36-.37c-.2 0-.48-.14-.52.18s.22.45.43.5a2.22 2.22 0 0 0 .73 0 1.33 1.33 0 0 1 1.45.91.57.57 0 0 0 .58.31 2.39 2.39 0 0 1 1.24.13c.14.75.65.58 1.1.6h.3c.6-.1.75 0 .85.73 0 .1.06.14.14.14.27 0 .5.16.8.1a4.92 4.92 0 0 1 1.52-.23h.3a1.56 1.56 0 0 0 1 .38 1.52 1.52 0 0 1 1.48.65.39.39 0 0 0 .27.15c.8 0 1.57.3 2.38.24.1 0 .23-.1.3.1s-.37.1-.43.4c.34.1.7 0 1 .16h0c.12.15.3.3.16.5s-.27 0-.42 0a2.29 2.29 0 0 0-1.69.26 3.37 3.37 0 0 0 1.91.26c.34-.08.77-.16.94.1.33.5.77.3 1.15.44a.15.15 0 0 0 .22-.1.16.16 0 0 0-.13-.21c-.4 0-.42-.4-.5-.7.13-.1.3-.1.36 0 .36.54 1 0 1.36.5.1.1.15-.1.22-.15.34-.27.47-.94 1.06-.74.13 0 .33.07.37-.2s-.01-.36-.14-.47zm-13.54-3h0zM44 154.9a2.83 2.83 0 0 0 0-.4h0c.26.32.15.4 0 .4zM22.67 148a1.3 1.3 0 0 1-.71.07 3.4 3.4 0 0 0-1.31 0c-.32.1-.47-.36-.8-.38a7 7 0 0 0-.92-.08c-.4 0-.6-.16-.6-.6 0-.18 0-.28-.2-.24s-.37.2-.45-.16a.46.46 0 0 1 .26-.56v-.2a2.12 2.12 0 0 1-2.41-.4h0a2.26 2.26 0 0 1-2.3-.93 1 1 0 0 0-.23-.14 2.52 2.52 0 0 0 .57-.21c.75-.6 1.48-.2 2.22 0 .08 0 .14.1.1.16-.33.58.3.5.4.8l.4.26a3.17 3.17 0 0 0 .86-.11c.34-.1.73-.26.86.38 0 .08.2.18.3.2.3 0 .56 0 .7.38a.14.14 0 0 0 .18.07c.75-.22 1.3.3 1.9.66.14.72.7.76 1.16 1.05zm157.78-7.73l-5.17-.73a4.27 4.27 0 0 1-.6-.21c-.2 0-.55.13-.55-.18s.36-.2.57-.2a1.57 1.57 0 0 1 .93.24c1.4.1 2.78.62 4.22.52a3.23 3.23 0 0 1 1.08.37.47.47 0 0 1-.48.2zm22.1-18.8c.15-.35.48-.22.8-.26l.47.06c.26 0 .37.2.27.5s-.12.73-.48.7a1.61 1.61 0 0 1-.79-.4c-.15-.06-.38-.3-.26-.57zM16.48 129.7c-.15 0-.33 0-.37-.24s.13-.28.24-.36a1 1 0 0 1 1.53.13c.08.1.22.18.15.35s-.2.14-.3.15h-.57c-.15.03-.42.01-.67-.03zm186.06-8.45c-1.8-.2-3.45-.48-5.14-.8.52-.2 4.72.4 5.14.8zm-.1 33.85a.2.2 0 0 1-.24.16 3.61 3.61 0 0 1-1.88-.45 5.93 5.93 0 0 1 1.9.09c.1.02.23.1.22.2zm-14.7-45.8a.09.09 0 0 1 .1 0c.2.1.6-.1.57.28s-.4.2-.6.25-.75 0-.75-.32.45-.08.68-.2zm6.86 34h2a4.57 4.57 0 0 1-2 .36.17.17 0 0 1-.17-.19.15.15 0 0 1 .17-.2zm-17.28 1.32c-.33 0-.4-.3-.43-.57s.18-.2.3-.18.57-.12.38.42c.18.33-.07.3-.25.3zm15.87 1.07c.12.06.3 0 .3.25s-.2.17-.3.2a.81.81 0 0 1-.82-.08h-.68c-.1 0-.24 0-.23-.15s.1-.24.2-.2a1.75 1.75 0 0 0 1.28-.21c.14-.08.23-.01.25.17zm4.74-22.78a6.88 6.88 0 0 1 1.76.23c-.38.32-.38.32-1.76-.26zm-23.2 1.35c-.24.07-.46.26-.73.22-.1 0-.3 0-.24-.22.13-.4.47-.22.72-.27s.24.02.25.24zm9.05.14c.12.08.37 0 .34.25a.36.36 0 0 1-.37.33.35.35 0 0 1-.34-.38c.02-.28.2-.24.37-.23zm3.6.82c-.28-.14-.66-.08-.8-.53-.18-.22 0-.32.12-.38a2.13 2.13 0 0 1 .5-.11c.43.22 0 .67.17 1zm.35-21.22c-.12 0-.28 0-.24-.16a.61.61 0 0 1 .47-.45c.13 0 .3 0 .26.2a.6.6 0 0 1-.49.42zm-12.18 56.53a1.29 1.29 0 0 1-1.28 0 1.8 1.8 0 0 1 1.28-.03zm1.7-15.6c-.37.32-.37.32-1.08 0 .43-.05.75-.3 1.08-.03zm-163-32.36c-.12 0-.33 0-.33-.2s.24-.2.4-.23.32-.12.3.16-.24.23-.4.24zm171.84 34.32c-.3-.1-.58-.2-.77.16-.13-.37.1-.4.24-.45s.43-.12.5.26zM94.4 165.2c-.3.22-.5.25-.7.1v-.16c.2-.24.4-.01.7.07zm87.18-55.84a.12.12 0 0 1 0 .19c-.2 0-.36 0-.5-.27.2-.17.35-.06.5.08zm21.2 2a.22.22 0 0 1 0 .16c-.2.17-.37 0-.56-.06a.39.39 0 0 1 .56-.14zm2.17 4.27c.1 0 .2 0 .24.17a.2.2 0 0 1-.22.18c-.1 0-.22 0-.23-.17s.1-.22.24-.22zm-11.62 8.28a.12.12 0 0 1 0-.19c.16-.13.32-.08.5 0a.32.32 0 0 1-.5.15zm-33.1-109.66c.34.27.67 0 1 0a2.59 2.59 0 0 0 .56 0 7.91 7.91 0 0 1 1.73.34l1.68.47a1.09 1.09 0 0 0 .13.17c.6.52 1.3.3 2 .33a18.41 18.41 0 0 1 3.08.82 5.45 5.45 0 0 0 1.72.4 6.7 6.7 0 0 0 1.26.49 2.44 2.44 0 0 0 .81.28 4 4 0 0 0 1.48.46 3.43 3.43 0 0 0 1.46.52c.44.1.83.56 1.33.22 0 0 .12 0 .2.06l1.36.38c.2 0 .48.14.53-.2s-.23-.44-.44-.5a2.47 2.47 0 0 0-.72 0 1.33 1.33 0 0 1-1.46-.91.55.55 0 0 0-.58-.3 2.46 2.46 0 0 1-1.23-.14c-.15-.75-.66-.58-1.1-.58a1.53 1.53 0 0 0-.3 0c-.6.08-.76-.05-.86-.74a.14.14 0 0 0-.14-.14c-.27 0-.5-.16-.8-.1a5.19 5.19 0 0 1-1.52.24h-.3a1.55 1.55 0 0 0-1-.37 1.55 1.55 0 0 1-1.48-.65.43.43 0 0 0-.28-.16c-.8 0-1.57-.3-2.37-.23-.12 0-.24.1-.3-.1s.37-.08.43-.4a5.6 5.6 0 0 1-1-.16h0c-.12-.14-.3-.3-.16-.5s.28 0 .42 0A2.33 2.33 0 0 0 167 13a3.46 3.46 0 0 0-1.91-.26c-.34.1-.77.17-.94-.1-.33-.5-.77-.3-1.15-.44a.16.16 0 0 0-.22.1.17.17 0 0 0 .14.22c.4 0 .4.4.5.7-.13.1-.3.12-.36 0-.36-.55-1 0-1.36-.5-.1-.1-.15.1-.22.15-.34.27-.47.93-1.06.73-.13 0-.33-.06-.37.2s.08.34.2.44zm13.54 3h0zm-10.33-3.63a3 3 0 0 0 0 .4h0c-.26-.28-.16-.34 0-.36zm21.32 6.87a1.43 1.43 0 0 1 .72-.07 3.39 3.39 0 0 0 1.31 0c.3-.1.46.35.8.37a5.62 5.62 0 0 0 .92.09c.4 0 .6.15.62.6 0 .2 0 .28.18.25s.37-.2.46.15a.49.49 0 0 1-.27.57v.2a2.16 2.16 0 0 1 2.42.4h0a2.27 2.27 0 0 1 2.3.94c.05.06.13.08.22.14a1.83 1.83 0 0 0-.57.21c-.75.58-1.48.2-2.22 0-.08 0-.14-.1-.1-.16.33-.58-.3-.52-.4-.8l-.4-.25a3.23 3.23 0 0 0-.87.1c-.33.1-.73.26-.86-.37 0-.1-.2-.18-.3-.2-.3 0-.56 0-.7-.38a.12.12 0 0 0-.17-.08c-.75.22-1.3-.3-1.9-.66-.15-.65-.72-.68-1.17-1zM27 28.26l5.17.73a3.29 3.29 0 0 1 .6.21c.2 0 .55-.14.56.17s-.36.2-.58.2a1.45 1.45 0 0 1-.92-.24c-1.42-.1-2.8-.6-4.22-.52a3.13 3.13 0 0 1-1.08-.36.44.44 0 0 1 .47-.18zM4.9 47.05c-.15.36-.48.23-.8.26l-.46-.05c-.27 0-.37-.22-.27-.5s.12-.74.47-.7a1.71 1.71 0 0 1 .8.41c.14.1.35.32.25.58zm186.1-8.2c.15 0 .34 0 .37.25s-.13.27-.24.36a1 1 0 0 1-1.53-.14c-.08-.1-.22-.18-.15-.34s.2-.15.32-.16.3 0 .56 0 .38-.01.67.03zM4.9 47.3l5.15.82c-.53.2-4.73-.4-5.15-.82zM5 13.45a.2.2 0 0 1 .24-.17 3.71 3.71 0 0 1 1.88.45 5.67 5.67 0 0 1-1.9-.08c-.1-.03-.22-.06-.22-.2zm14.7 45.8a.17.17 0 0 1-.1 0c-.2-.12-.6.1-.57-.3s.4-.18.6-.25.75 0 .75.32-.45.08-.68.22zm-6.85-34h-2a4.57 4.57 0 0 1 2-.37.19.19 0 0 1 .17.19c-.01.15-.01.2-.17.2zM30.1 24c.33 0 .4.3.43.57s-.18.2-.3.18-.57.12-.38-.4c-.18-.4.07-.34.25-.34zm-15.87-1.1c-.1-.07-.3 0-.3-.26s.2-.16.3-.2a.83.83 0 0 1 .83.09h.68c.1 0 .23 0 .22.16s-.1.24-.2.2a1.75 1.75 0 0 0-1.28.21c-.13.05-.23-.02-.25-.2zM9.5 45.67a6.91 6.91 0 0 1-1.77-.22c.38-.35.38-.35 1.77.22zm23.2-1.34c.24-.07.46-.27.73-.22.1 0 .3 0 .24.2-.13.4-.47.23-.72.28-.1.02-.24-.03-.25-.27zm-9-.14c-.1-.08-.37 0-.34-.25A.36.36 0 0 1 24 44c0 .23-.18.2-.34.2zm-3.6-.82c.28.13.66.07.8.52.18.22 0 .33-.12.4a4 4 0 0 1-.5.11c-.47-.26-.05-.7-.22-1.02zm-.35 21.22c.12 0 .3 0 .25.15a.63.63 0 0 1-.48.46c-.13 0-.3 0-.26-.2a.57.57 0 0 1 .44-.41zM31.9 8.06a1.27 1.27 0 0 1 1.28 0 1.86 1.86 0 0 1-1.28 0zm-1.7 15.6c.37-.33.37-.33 1.08 0-.43.02-.75.27-1.08 0zM193.2 56c.13 0 .33 0 .33.2s-.24.2-.4.22-.3.13-.28-.16.2-.26.36-.26zM21.36 21.7c.3.1.58.2.77-.16.13.37-.1.4-.24.45s-.4.1-.53-.3zM113 3.35c.3-.22.5-.24.7-.1a.25.25 0 0 1 0 .17c-.18.23-.37 0-.7-.08zM25.86 59.2a.11.11 0 0 1 0-.19c.2-.06.35 0 .5.27-.2.17-.36.06-.5-.08zm-21.22-2v-.15c.2-.17.37 0 .56.05a.39.39 0 0 1-.56.13zM2.47 53c-.1 0-.2 0-.24-.16a.2.2 0 0 1 .23-.18c.1 0 .22 0 .22.17s-.1.17-.2.17zm11.62-8.27a.1.1 0 0 1 0 .18c-.16.13-.32.1-.5 0a.32.32 0 0 1 .5-.22z"/></svg>