<svg xmlns="http://www.w3.org/2000/svg" viewBox="0 0 216.57 165.23"><g id="Layer_2" data-name="Layer 2"><g id="Layer_1-2" data-name="Layer 1"><path d="M182,157.68Zm-80,4.47-.8-.07c-.51,0-.73.1-.66.49s.44.23.7.24.32.05.43-.05-.29-.13-.32-.27a1,1,0,0,1,.65,0c.17,0,.26,0,.26-.16S102.09,162.16,102,162.15ZM139.67,164c-.49,0-.47.17-.19.41s.07.19,0,.26-.3.14-.35,0c-.14-.31-.45-.1-.66-.19s-.21,0-.21.09.08.16.2.15c.44,0,.28.11.18.25s0,.27.18.26.62.06.77-.18l.11-.05.22,0c.12-.18-.06-.37,0-.55C140.12,164.26,140,164.1,139.67,164Zm58.77-30.55a1,1,0,0,0-.81.31h2.26c.11,0,.19-.06.19-.14s-.12-.12-.23-.14A5.56,5.56,0,0,0,198.44,133.43Zm-5.8-5.28a1.34,1.34,0,0,1-.92-.08c-.13,0-.3-.11-.36,0s.07.24.28.29a2.71,2.71,0,0,0,1,.13l.28,0c.2,0,.47.06.51-.07s-.27-.22-.45-.28A.72.72,0,0,0,192.64,128.15ZM188.21,131c.1.06.17,0,.21,0a1.18,1.18,0,0,1,1.14-.58.16.16,0,0,0,.16-.2.13.13,0,0,1,0-.06,1.26,1.26,0,0,0-1.82-.39,6.87,6.87,0,0,1-.87-.21c-.17,0-.34,0-.35.12s.15.18.3.18A3.79,3.79,0,0,1,188,130h0c.1.23.35.46,0,.67C188,130.77,188.09,130.91,188.21,131Zm-67.47,32.45c-.23,0-.31-.11-.43-.21a.38.38,0,0,0-.19-.05c-.08,0-.08.07-.08.12a.94.94,0,0,0,.84.64c.09-.07.36.2.33-.06S121.23,163.4,120.74,163.43Zm49.38-3.79c-.33,0-.69-.33-1,0-.3.12-.6-.25-.94,0,.41,0,.46.29.73.4.46.18.77-.18,1.22-.11C170.2,159.87,170.22,159.66,170.12,159.64Zm-157.35-16c0-.14.05-.28-.24-.31a6.85,6.85,0,0,0-1.49-.15c-.22,0-.6,0-.56.2s.38.25.66.23c.36.4.85.23,1.29.24s.93.28,1.42.34c.32,0,.62.08.85-.14C14,144.1,13.42,143.7,12.77,143.6Zm91.7,18.91a.45.45,0,0,0-.54-.12c-.12,0-.13.12-.08.2s.3.14.47.15a6.45,6.45,0,0,1,1.33,0C105.18,162.43,104.83,162.33,104.47,162.51Zm58.69-14.08c.09-.15,0-.2-.24-.22,0,0,0-.06-.07-.1-.11-.3-.43-.16-.66-.2s-.17.09-.17.19-.21.4.22.3a.61.61,0,0,1,.52.07C162.88,148.52,163.09,148.56,163.16,148.43ZM191.37,154a7.83,7.83,0,0,0-2-.18A7.05,7.05,0,0,0,191.37,154Zm-13-7.48a1.57,1.57,0,0,0-.23,0c-.13.06-.42.05-.32.22s.32.11.49.07.23-.12.3-.1.38.19.41,0-.29-.09-.43-.17S178.5,146.5,178.42,146.47Zm-32.79,15.86c-.1,0-.33,0-.3.15s0,.26.26.24.5,0,.52-.15S145.8,162.39,145.63,162.33Zm-8,2.16c-.24,0-.58,0-.53.37l.54-.08c.12,0,.17-.08.16-.16A.14.14,0,0,0,137.65,164.49Zm54.91-32.87c-.05.23-.18.39-.15.6C192.83,132.19,192.87,132.07,192.56,131.62Zm-.15.6ZM153,162.89c-.17,0-.35,0-.36.15s.18.14.31.19.32,0,.31-.18S153.13,162.9,153,162.89Zm22.72-33.58c-.13,0-.24,0-.24.15a.31.31,0,0,0,.32.17c.12,0,.27,0,.26-.11S175.89,129.32,175.72,129.31ZM12.3,145.13c-.12,0-.32,0-.3.14s.18.12.3.14a3.69,3.69,0,0,0,1,.09c.33,0,.63.24,1,.13a1.43,1.43,0,0,0-1-.29A2.35,2.35,0,0,0,12.3,145.13Zm150,3.91c0,.12.18.13.29.15s.3,0,.29-.12-.16-.14-.28-.16S162.29,148.91,162.3,149Zm20.32,8.75a1.46,1.46,0,0,0-.61-.11C182,158,182,158,182.62,157.79Zm-.61-.11Zm-24.54-9.52c-.2,0-.23.12-.24.23s.05.18.2.21.44.13.5,0-.16-.14-.3-.15S157.71,148.17,157.47,148.16Zm16.94,1.89a2,2,0,0,0,.88.08A.83.83,0,0,0,174.41,150.05Zm-16.45-2c0,.07,0,.17.15.18s.38,0,.26-.18C158.23,148,158.06,147.87,158,148.07Zm.41,0Zm16.56-19.38v-.11l-.73-.11A.74.74,0,0,0,174.93,128.69Zm22.8,12c.27.07.45.14.55,0a.13.13,0,0,0-.09-.2C198,140.43,198,140.6,197.73,140.68Zm-89,21.36c.21.06.39.1.51,0s0-.13-.08-.16A.33.33,0,0,0,108.73,162Zm28.77,2a.2.2,0,0,0-.19-.2c-.1,0-.16.05-.14.12s.05.22.23.23S137.51,164.08,137.5,164Zm25.75-16.37a.2.2,0,0,0-.2-.1c-.11,0-.19,0-.19.13a.24.24,0,0,0,.24.13C163.21,147.79,163.28,147.73,163.25,147.64Zm38.7-40c.08,0,.16-.05.13-.13s-.13-.07-.21-.08-.13,0-.12.09S201.85,107.61,202,107.62Zm-61.72,57a.13.13,0,0,0-.17,0c-.09.12,0,.18.15.24h.1C140.31,164.8,140.38,164.7,140.23,164.62Zm11-1.31c-.12,0-.19,0-.19.08s.07.17.17.16.21,0,.2-.12S151.27,163.32,151.19,163.31Zm-10.36-2.42c-.13,0-.21,0-.21.11s.07.12.19.12.21,0,.21-.11S140.92,160.91,140.83,160.89Zm30.89-16.26c-.13,0-.21,0-.2.12a.26.26,0,0,0,.27.22c.13,0,.22-.07.2-.17A.27.27,0,0,0,171.72,144.63ZM144,164.49a2.83,2.83,0,0,0-.6,0l.37.07Zm-1.91-.47c.08-.07-.08-.12-.15-.16a1.28,1.28,0,0,1-.84-.06c-.21,0-.23.09-.21.21l.11.05,1,.19A.47.47,0,0,1,142.05,164Zm.81.23h0c.2,0,.32,0,.28-.21a.35.35,0,0,1,0-.18l-.54-.06C142.72,163.93,142.76,164.12,142.86,164.25Zm1.29-.35c-.07,0-.41-.05-.93-.14a.18.18,0,0,0-.07.1A3.57,3.57,0,0,0,144.15,163.9ZM194.1,144a8.58,8.58,0,0,0-1.6-.37.19.19,0,0,1-.06.12C193.42,143.88,194.06,144,194.1,144Zm-53.7,20.37c.06,0,.09,0,.1-.06s.18,0,.28,0,.29,0,.31-.06-.05-.11-.13-.14l-.52-.1c-.1.08-.12.2-.22.28S140.29,164.35,140.4,164.34Zm-.74-.82c-.16,0-.12.3-.42.21l1.2.23a.34.34,0,0,1,.17-.06,4.8,4.8,0,0,0-.9-.48h0ZM1.7,78.26c-.47-.08-.92-.2-1.48-.32.58-.42,1.1,0,1.6,0a1.65,1.65,0,0,0,.7,0,9.21,9.21,0,0,1,5.26-.66c.56.12,1.12,0,1.69.39a.46.46,0,0,1,.2.53c0,.32.14.4.37.46a1.72,1.72,0,0,0,.84.12,8,8,0,0,1,2.18,0c-.08-.18-.09-.32.17-.32s.4-.1.48.05-.23.14-.29.27a14.33,14.33,0,0,0,3.46-.44A10.41,10.41,0,0,0,14,76.88a14.34,14.34,0,0,1-3-1.4,5.47,5.47,0,0,0-1.4-.67,5.06,5.06,0,0,1-2.16-1.4,2.88,2.88,0,0,1-1.12-1.36c-.32-.63-.79-1.3-.4-2,0-.08.08-.15.19-.16a.55.55,0,0,0,.25-.51c0-.95.82-1.59.93-2.51a.51.51,0,0,1,.35-.44,29.31,29.31,0,0,1,2.71-2.75c.25-.41.83-.49,1.06-.93.38-.73,1.26-1,1.57-1.85.16-.43.81-.5,1.26-.62s.93-.2,1.38-.36c0-.32.34-.31.57-.39s.27,0,.38,0,.57-.08.49-.36-.35,0-.54,0l-1,0c-.59.1-1.09.52-1.76.39a10.08,10.08,0,0,1-2.33.59,6,6,0,0,0-1,.36c-.13.27-.33.27-.66.27a7.24,7.24,0,0,0-2,.4,35.76,35.76,0,0,1-3.58,1c-.42.06-.75.39-1.24.2-.17-.06-.47.13-.5-.2s.27-.27.49-.31c.41-.35,1-.32,1.45-.6.09-.21.29-.21.49-.25.38-.06.73-.32,1-.37.77-.12,1.26-1,2.22-.57.2.09.3-.17.48-.21.14-.31.52-.37.77-.42a2.34,2.34,0,0,0,1.29-.48c.07,0,.14-.06.16,0,.08.32.21.25.28,0s.31-.21.57-.22.88.08,1.19-.24a.56.56,0,0,1,.82-.06h0c.37-.3.94-.25,1.26-.65.15-.18.31.25.54.17.12-.35.46-.41.78-.5.48-.08.71-.57,1.22-.62h0a1,1,0,0,0,.08-.56h-.23c-.26.26-.62.08-1,.19a1,1,0,0,1,.92-.41l.42-.21c0-.28-.17-.34-.52-.42.35-.06.5-.54.8,0,.09.15.26,0,.31-.07.27-.41.36-.52.58-.4l.09,0s0-.05,0-.12a3.09,3.09,0,0,1-2.37-.16h0a3.12,3.12,0,0,1-2.31-.49A1,1,0,0,0,14,54a3.5,3.5,0,0,0,.53-.15,3.14,3.14,0,0,1,2.16-.06c.08,0,.14,0,.11.09-.27.37.33.31.45.49h0l.41.14a4.59,4.59,0,0,0,.83-.1c.31-.08.68-.19.86.2,0,.06.21.11.31.11a.93.93,0,0,1,.67.17,2.65,2.65,0,0,0,1.15-.26v0c-.08-.09-.23-.1-.27-.24a.31.31,0,0,1-.06-.2,5.82,5.82,0,0,1-1.78-.65h0a.55.55,0,0,1-.61-.35c-.1-.27.26-.23.43-.31a2.21,2.21,0,0,1,.46-.1,1.43,1.43,0,0,1,.83-.29.94.94,0,0,0,.3-.07c-.07-.07-.11-.17-.06-.16a.76.76,0,0,0,.35-.05s.08-.06.1-.11c-.24-.07-.47-.14-.71-.19-.42-.1-.29-.25-.1-.4a.67.67,0,0,1,.17-.07.38.38,0,0,0,.23-.14.23.23,0,0,1-.16-.1.11.11,0,0,1,0-.13.18.18,0,0,1-.15,0l-.92-.12a.88.88,0,0,1-.62-.08c-.15-.1-.51-.18-.08-.34.12-.05,0-.12,0-.18a.13.13,0,0,1,0-.11.3.3,0,0,1,.35-.26h.06c.22-.09.19-.37.44-.46-.17-.17-.11-.46-.51-.5-.16,0-.25-.08-.15-.21s.17-.29,0-.43,0-.13.09-.15.4-.19.33-.26c-.32-.36.05-.64,0-1h0A5.1,5.1,0,0,1,18,46.8c-.15,0,0-.08,0-.13a3.18,3.18,0,0,1-.33-.08c-.09,0-.26-.05-.24-.16s.13-.1.23-.12c.54-.08.34-.23,0-.38a3.7,3.7,0,0,1-.88-.06c.7-.27,1.39-.28,1.94-.53.1-.18.31-.23.56-.25a5.59,5.59,0,0,0,1.27-.16c-.21-.15-.35-.33-.23-.55h-.09c-.48-.11-1,.11-1.47-.23L18.24,44c-.38,0-.38-.23-.56-.36a1.08,1.08,0,0,1-.64-.11c-.18,0-.36,0-.52-.05l-.28,0c-.17,0-.38.09-.5-.05s.09-.26.15-.38A1.44,1.44,0,0,1,17,42.25c.1,0,.22,0,.34,0l.08,0c-.11-.1-.32,0-.42-.13a22.51,22.51,0,0,1-5.14-1.29,1.94,1.94,0,0,1-1.42-1c-.1-.31-.5-.58-.63-.92,0-.09-.15-.2-.11-.28.21-.37-.1-.35-.43-.34H7.73c-.11,0-.26,0-.26-.09s.14-.07.24-.07H9.54c0-.21-.22-.35-.25-.53S9,37.4,8.87,37.4a5.28,5.28,0,0,1-1.48-.07l2-.08c.2,0,.49.08.47-.17s0-.47-.5-.48-.78-.09-1.25-.14a.71.71,0,0,1,.67-.14.57.57,0,0,0,.53,0c.11-.09-.21-.24,0-.37a1.14,1.14,0,0,0-.49-.11c-.41,0-.83-.07-1.33-.12.5-.33,1,0,1.43-.07a1.64,1.64,0,0,0,.62-.06,10.46,10.46,0,0,1,4.64-.76,3.94,3.94,0,0,1,1.51.16c.27.13.21.29.21.35,0,.22.14.27.35.29a1.89,1.89,0,0,0,.75,0,9,9,0,0,1,1.94-.14c-.08-.12-.1-.21.13-.23s.35-.09.43,0-.19.11-.25.2A16.43,16.43,0,0,0,22.29,35a10.7,10.7,0,0,0-2.68-.85,13.62,13.62,0,0,1-2.76-.78A6.34,6.34,0,0,0,15.57,33a4.69,4.69,0,0,1-2-.83,2.14,2.14,0,0,1-1.06-.87c-.32-.41-.77-.84-.46-1.37,0,0,.07-.11.16-.12a.36.36,0,0,0,.2-.36c0-.66.65-1.14.7-1.79a.39.39,0,0,1,.29-.32,23.58,23.58,0,0,1,2.27-2c.2-.3.71-.39.89-.7.3-.53,1.08-.78,1.31-1.37.12-.3.69-.39,1.09-.5s.81-.19,1.2-.33c0-.22.29-.23.48-.3s.25,0,.34-.06.5-.09.42-.28-.32,0-.48,0l-.85,0a5,5,0,0,1-1.55.37,10.91,10.91,0,0,1-2,.55,5.34,5.34,0,0,0-.82.31c-.11.19-.29.2-.58.22a8.16,8.16,0,0,0-1.79.4c-1.06.28-2,.7-3.14.91-.36.07-.64.31-1.09.21-.15,0-.41.12-.45-.1s.23-.21.42-.25c.34-.26.88-.28,1.26-.5.07-.15.25-.16.42-.2.33-.06.63-.26.89-.31.68-.13,1.06-.79,1.94-.53.18.05.26-.14.42-.18.1-.22.44-.28.65-.33a2.62,2.62,0,0,0,1.13-.4c.05-.05.12-.06.15,0s.19.16.24,0,.27-.17.5-.19a1.76,1.76,0,0,0,1.05-.23.6.6,0,0,1,.72-.1h0c.31-.23.82-.23,1.09-.52.12-.13.29.16.48.09.09-.26.39-.31.67-.4h0c.42-.08.61-.43,1.05-.49h0a.49.49,0,0,0,.05-.39l-.2,0h0c-.22.19-.55.09-.9.19a1,1,0,0,1,.8-.34l.36-.17c0-.19-.17-.22-.49-.25.31-.07.42-.41.72-.05.08.1.22,0,.27-.07.32-.42.31-.43.86-.13a1.44,1.44,0,0,1,.89-.26,3.28,3.28,0,0,0,1.1-.26v0c-.08-.05-.21-.05-.25-.14S24.86,18,25,18a3,3,0,0,1,1.28-.24c.32-.16.31-.16.47.1a.23.23,0,0,0,.33.05,1.88,1.88,0,0,1,.92-.2c.17-.32.28-.69.94-.56.22.11.46,0,.69.06.05,0,.08,0,.11,0,.33-.41.4-.42.93-.16a1,1,0,0,0,.49-.09c.25-.2-.11-.15-.21-.24.48-.23,1.09-.16,1.56-.35,1.22-.18,2.41-.43,3.64-.6a6.94,6.94,0,0,0,1.49-.21,8,8,0,0,1,1.93-.23.3.3,0,0,0-.22-.26h-.11c-.14,0-.3,0-.44,0a31.05,31.05,0,0,0-3.64.61,6.75,6.75,0,0,0-1.76.33c.14-.27.16-.3.6-.4.82-.19,1.69-.24,2.51-.45a13.2,13.2,0,0,1,1.83-.28,4.07,4.07,0,0,1,.78,0,1.62,1.62,0,0,1,1-.32,4.68,4.68,0,0,0,1.36-.38.39.39,0,0,0-.37-.07c-.68.32-1.49.08-2.21.25-.35.08-.75.09-1.11.19a3.17,3.17,0,0,1-.87,0c-.16,0-.08-.05,0-.07.21-.08-.24-.35.09-.34a5.63,5.63,0,0,0,1.68-.26,19.72,19.72,0,0,1,2-.34l.2-.16a5.59,5.59,0,0,0-2.19-.14l-1,.2c-.33.25-.8.13-1.19.2h0a7.1,7.1,0,0,1-2,.29.44.44,0,0,1-.37.15,4.44,4.44,0,0,0-2.16.26,17.32,17.32,0,0,0-1.92.46c-.07,0-.13.09-.2.09-.82,0-1.46.43-2.27.45a7.53,7.53,0,0,1-1.67.5c-.41.15-.87.23-1.3.35a.39.39,0,0,1-.38,0c-.1-.1.07-.16.14-.23a1.75,1.75,0,0,1,1-.28l.64-.11h0a2.67,2.67,0,0,1,.93-.3,21.3,21.3,0,0,1,2.66-.57,1.65,1.65,0,0,0,.36-.11c.21-.22.6-.13.89-.23s.46-.15.69-.21c.13-.27,0-.41-.39-.36l-1.35.21a2.28,2.28,0,0,1-.6.12,6.18,6.18,0,0,1-1.37.39,4.38,4.38,0,0,1-.61.12c.32-.34.32-.34.94-.41.44-.06.76-.37.67-.64v-.07c-.23,0-.34.24-.62.16l-1,.13c-.29.18-.71,0-1,.2a.68.68,0,0,1,.61-.26l.27-.1c0-.16.17-.15.32-.16a.72.72,0,0,0,.56-.24.51.51,0,0,1,.78-.13s.13,0,.19,0l2.09-.46c0-.24.09-.34.41-.39.62-.1,1.23-.24,1.84-.36h0a3.11,3.11,0,0,0,1-.2c.1-.28.44,0,.65-.16A1.67,1.67,0,0,1,36,11.28c.15,0,.29,0,.19-.14s0-.1.08-.07c.32.12.31,0,.28-.18s.06-.18.2-.21.22,0,.29,0-.09.14-.11.21a2,2,0,0,0,0,.42,6,6,0,0,0,.61-.09,1.14,1.14,0,0,0,.3-.18c.13-.08.18-.19.45-.05s.91-.16,1.07-.48c.07-.16.08-.34.34-.42s-.17-.23,0-.33h0c0-.2.16-.23.38-.23s.37.08.54,0c.43,0,.78-.38,1.3-.14.09,0,.18-.05.27-.06.28,0,.4.07.26.27s-.06.18-.06.36c-.26-.27-.56-.21-.83-.24s-.21,0-.22.08.35.13.57.23c-.5-.12-.25.21-.4.29s-.63.05-.65.39h.51c.2-.23.65-.14.87-.34,0-.12.08-.16.22-.08s.41,0,.61.06h0c.33-.12.32-.5.74-.56.19,0,.27,0,.2.14.2.08.43.22.46-.1,0-.07.12-.14.15-.11.28.34.88-.05,1.14.31.32.2.48-.13.77-.09s.58.09.53-.25c0,0,.08-.1.18-.09l.09,0c.41-.25,1,.12,1.42-.25a0,0,0,0,0,0,0c.5-.14.33-.36.09-.58a.3.3,0,0,0-.4,0,.91.91,0,0,1-.23,0c-.41,0-.73.27-1.17.16,0-.22,0-.23.31-.28.17,0,.25-.16.44-.13.26-.15.58,0,.83-.07.68-.23,1.45-.25,2.14-.45.3-.09.53.17.84.11s.34,0,.3-.19.15-.46-.37-.37h0v.08h0a.64.64,0,0,1-.72-.07,1.1,1.1,0,0,0-.71.23c-.23-.2,0-.29.09-.42s-.21,0-.29-.11c.23-.36.77-.23,1.14-.37.15-.39.49-.48,1-.36a.42.42,0,0,0,.45-.19c.08-.15.29-.22.4-.34.34-.33.38-.06.49.11.34-.17.48-.07.51.21s0,.35.36.22.32-.2.56-.17.6.06.59-.27-.17-.37-.54-.33a1.15,1.15,0,0,1,1-.15c.19.09.14.3-.1.39a.28.28,0,0,0,0,.3c.53.12,0,.25,0,.37s.26.14.43.08c.42,0,.56,0,.59.2h0a.32.32,0,0,1,.28-.13.26.26,0,0,1,.27.19c0,.15.14.23.35.22,1.13-.07,2.28-.1,3.4-.21l.13-.1c0-.14.21-.25.2-.41s.14-.07.25,0a.18.18,0,0,1,.15.18c0,.1-.1.16-.17.23.45.09.77,0,.88-.26s0-.2-.14-.19c-.45,0-.9-.11-1.36-.06-.21,0-.4,0-.4.24a.16.16,0,0,1-.2.17,12.87,12.87,0,0,0-1.65.06c-.17,0-.39,0-.45-.12s.18-.18.35-.26a2.07,2.07,0,0,0-.83.13,5.52,5.52,0,0,1-1.28.14c-.29,0-.22-.18-.32-.28A1.54,1.54,0,0,1,57.44,6c.1,0,.24.08.32,0,.35-.38,1-.24,1.43-.33a1.29,1.29,0,0,1,.77.21,2.19,2.19,0,0,0,1.4.06,2.17,2.17,0,0,1,1,0,.38.38,0,0,0,.32-.07c0-.18-.47-.11-.39-.28s.39,0,.59-.08.68-.1,1-.15L63.76,5c0-.08,0-.15,0-.21A2.25,2.25,0,0,1,64.86,5c.31.28,0,.33-.26.43-.06,0-.19.1-.19.15s.16,0,.24.07c.44.11.63-.26,1-.24.09,0-.07-.22-.1-.33s-.26-.16-.1-.26A.36.36,0,0,1,66,4.9c-.24-.48.1-.44.51-.5a6.4,6.4,0,0,0,1.64-.18c-.12-.2-.35-.12-.53-.11s-.24.06-.37.08-.45.14-.52-.06.25-.17.43-.22a8.87,8.87,0,0,0,1.37-.2.32.32,0,0,1,.38.12c.07.14-.1.18-.23.17-.4,0-.4.26-.43.39s.26.2.45.14.62-.26.9.1c0,.06.4.16.37-.13s.49-.16.49-.41c0,0-.08-.06-.1,0s-.26,0-.33-.08a.1.1,0,0,1,.06-.16c.13,0,.21,0,.29.11l.18.12c.2,0,.21.14.35.19s.26.07.33,0,.12-.23-.1-.27c-.51-.09-.33-.3-.2-.5a8.22,8.22,0,0,1-1.58-.05c-.38-.09-.53-.12-.79.11A.45.45,0,0,1,68,3.2c-.13.06-.37,0-.19.25.07.09-.28.16-.42.16-.59,0-1.17-.06-1.75-.09-.1,0-.16,0-.16-.12a.14.14,0,0,1,.19-.12.6.6,0,0,0,.62-.09.8.8,0,0,1,.57,0c.3.08.6.11.55-.24a.11.11,0,0,1,.11-.14.14.14,0,0,1,.16.12.39.39,0,0,0,.41.23c.21-.28.66-.18,1-.22s.8-.29,1.28-.19c.1,0,.24,0,.24.11s.13.21.34.19c.36,0,0-.19.06-.27s0-.09.08-.12-.14-.15-.25-.19-.28-.29-.17-.41.32,0,.46.08h0c0,.08.16.15.22.13.54-.1.45.14.39.36,0,0,.07,0,.09,0a14.68,14.68,0,0,1,2.3-.21c.12,0,.46,0,.39-.22S74,2,73.91,1.84l-.14-.05-1,0a.9.9,0,0,1-.73-.06.54.54,0,0,1,.7-.09c.27,0,.51-.17.79,0,0-.08.11-.12.2-.16-.32-.19-.17-.32.13-.31a2.11,2.11,0,0,0,.53-.08c.18,0,.3,0,.32.14s-.11.32-.24.44-.19,0-.22-.12c-.13.08-.05.19-.05.28.21.1.56,0,.64.29s.36.07.52.15c.33.09.21-.29.49-.25a.47.47,0,0,0,.28-.1l.06-.38c-.07-.09-.08-.17,0-.24s0-.32.24-.29.14.18.08.29h.19c.09-.07.12-.13,0-.24s0-.23.15-.28.21.06.29.12,0,.17-.08.24a.6.6,0,0,0-.08.08c.14.13.44-.06.49.18a.93.93,0,0,1-.47,0l-.39.1a1.48,1.48,0,0,1,.47.42c.41.14.82.33,1.19-.05.07-.07.41,0,.64,0-.12.13-.35.11-.55.22.3.08.55,0,.78.06s.25,0,.25-.09c0-.38.25-.29.55-.13a.25.25,0,0,0,.17,0h0c.08,0,.07-.15.12-.2-.52-.26,0-.34.13-.49l.06-.1c0-.19-.2-.26-.34-.38.28-.14.47-.42.88-.17.2-.13.33-.17.45.09s.41.23.11.41c0,0-.08.08-.1.07-.65-.19-.6.39-1,.45.32.27.67-.11,1,.1a.88.88,0,0,0,1,.11c-.07-.11-.26-.07-.41-.12a.74.74,0,0,1,.51-.09l.09,0c.27-.09.49-.18.12-.4-.15-.09,0-.18,0-.28.14-.3.57-.37.86-.56a.39.39,0,0,1,.45,0c.1.12,0,.29-.11.36s-.28.09,0,.15c.11,0,0,.13,0,.2s-.43,0-.27.26.35,0,.37.19c.34-.08.7-.13.63-.51,0-.21.34-.26.41-.44s-.3-.17-.18-.23a.75.75,0,0,1,.68-.08A.61.61,0,0,1,86,.46l.3-.07a.29.29,0,0,1,.3.1c0,.06,0,.24.21.14s.32,0,.28-.19.13-.26.35-.25c.87,0,1.73-.07,2.6,0,.43,0,.86-.08,1.32,0a.74.74,0,0,1,.6.26c.33.2.53.51,1.06.53.24,0,.58.1.61.39.26.18.65.24.78.52a14.56,14.56,0,0,1,2.19,0A1.92,1.92,0,0,0,98,1.4s0,0,0,0h-.09c-.26-.09-.57-.08-.78-.26-.25,0-.54.24-.71-.1-.06-.1.22-.19,0-.32s-.32-.42-.61-.17-.41.24-.48.45,0,.19-.21.2C95,.89,95.25.6,95,.31a3.28,3.28,0,0,1-1.94.06A12.21,12.21,0,0,1,96.77.05a5.17,5.17,0,0,1,1,0c.13,0,.3,0,.31.12s-.16.11-.28.11c-.34,0-.34.09-.07.23h0a1.48,1.48,0,0,1,.43.29l.1.07.32-.09a.47.47,0,0,1,.5,0c.19.13-.05.21-.08.32a3.24,3.24,0,0,1,1,0,3.45,3.45,0,0,1,1.11,0c.39-.27.68-.52,0-.87-.16-.09.06-.18.19-.14.57.13,1.14-.06,1.7.07A2.11,2.11,0,0,0,104,.11a3.36,3.36,0,0,1,.77,0c1,.09,1.91.07,2.86.1.55,0,1.06-.13,1.62-.06a1.66,1.66,0,0,1,.88.08s0,0,0,0c.83-.36,1.72.16,2.56,0,.16,0,.43-.07.47.1s-.27.14-.42.19-.26,0-.36.08c.12.14.29.11.46.1l1.68-.08a.66.66,0,0,1,.39.06c.22,0,.52,0,.41-.31,0-.11.19-.2.33-.11s.52.05.78,0c.48,0,.7.1.77.24.29.12.09-.13.23-.16a1.19,1.19,0,0,1,1.11.11c.1-.36.44-.38.83-.33a1.4,1.4,0,0,0,.81,0c.18-.08.64.21.64.38s-.13.17-.29.12-.6,0-.87-.12c0,0-.11,0-.29.08a5.37,5.37,0,0,0,.84.15,1.49,1.49,0,0,1,.82.16c.3.19.38.06.49-.1.37-.06.38.14.4.31s-.17.2-.37.17a.39.39,0,0,0-.38.1,1.14,1.14,0,0,1-1.58-.15c-.06-.09,0-.21-.25-.18h-.19a1.63,1.63,0,0,0-.35.23.18.18,0,0,1,0,.1c-.14.2,0,.28.24.26a5.44,5.44,0,0,1,1.66.13.45.45,0,0,0,.38-.06c.35-.33.86-.25,1.34-.23l.06.05.42.05.24-.07s.11,0,.1-.07c-.27-.33.05-.37.35-.41l.14,0v0l-.15,0c-.2,0-.38.08-.58.1a.65.65,0,0,1-.38-.07c-.35-.19.4-.3,0-.51s-.19-.24.33-.36l.14,0c.38,0,.67,0,.81.36s1,.24,1.17,0,.15-.17.23-.26c.48.4.57.41,1.18.08.17-.09.31-.2.47,0a.77.77,0,0,0,.7.22.84.84,0,0,1,.68.28,2.06,2.06,0,0,0,1.34.26c.14-.09-.06-.28.14-.38s.25.23.49.2a2,2,0,0,1,.6,0c.35.09.51-.07.73-.18,0-.17-.33-.09-.36-.26.12-.11.32,0,.49-.06s.54,0,.71-.24.31,0,.4.11c.31.17.13-.16.28-.15.27-.22.59-.12.91-.05h0a2.13,2.13,0,0,0,1.12,0,2.32,2.32,0,0,1,.59,0c.16,0,.1.11,0,.17l0,.09a1.1,1.1,0,0,0,.87.12A3.19,3.19,0,0,1,138,.73c.36.09.69-.12,1,0,0-.26.29-.27.56-.24,0,0,.11,0,.13-.05s.08-.26.31-.2.1.19.11.29a1.5,1.5,0,0,0,0,.22c.08.09.32.12.27.25s-.27.06-.41.07a4.52,4.52,0,0,1-.72,0c.13.16.22.17.45.14a8.64,8.64,0,0,1,1.59.15s0,0,0,.07c.06.2-.15.43.18.59a3.84,3.84,0,0,1,1.22.12c.27-.15.64-.08.92-.21-.13-.18-.37,0-.55-.1s-.22,0-.29-.11l.26-.13,0-.15a.46.46,0,0,0-.61-.28c-.13,0-.31,0-.44,0s-.36,0-.39-.11A.7.7,0,0,1,141.7.6c0-.06.19,0,.24,0,.24.35.64.33,1.05.3a.67.67,0,0,1,.55.11c.58-.2.9.14,1.24.39s.14.38-.21.41-.47,0-.48.25a2.59,2.59,0,0,0,.83-.1.82.82,0,0,1,.44,0c.36.12.69.37,1.06.05,0,0,.2,0,.29,0a1,1,0,0,0,1.21-.22.85.85,0,0,1,.73,0c.22.12.33,0,.48,0,.12-.29.33-.28.6-.08s.24,0,.21-.11c-.08-.31.12-.28.39-.16.56.1.45.34.26.6,0,.09-.31.11-.06.23s.36.25.05.47c-.09.06-.14.15-.08.23a.33.33,0,0,0,.34.14,2.4,2.4,0,0,1,1-.18c.14,0,0-.12,0-.17s0-.2-.14-.25-.44-.1-.06-.23c.08,0,.12-.09.05-.15s-.33-.21,0-.26.57-.26.88,0c.07.06,0,.11,0,.19.15-.28.42-.27.72-.18.14-.13-.31-.26,0-.38a.73.73,0,0,1,.88-.45c.16,0,.11.16.11.26l0,.15c-.12.29-.3.25-.51,0l-.21-.08-.19.16a6.44,6.44,0,0,0,1.38.4c.15,0,.21-.1.31-.17s.31-.12.4.08a.69.69,0,0,1,.43.11c.23,0,.53-.26.62.14.19.11.4.32.55,0,.05-.12.22-.09.34-.06s.13.14.11.23c-.14.68,0,.83,1,1a.39.39,0,0,0,.24,0c-.09-.38-.55-.21-.82-.33,0,0-.08,0-.09,0-.11-.21.33-.28.22-.49.21,0,.42-.16.62,0s.2,0,.28,0,.31-.27.32-.47.21-.15.37-.14.17.13.22.23-.19.2-.29.29c.15.16.74.2.28.53.42.37.82.06,1.23,0a.2.2,0,0,0,.19-.16,4.63,4.63,0,0,0,.29-.65c.07-.25.19-.07.31,0,.3.12.4-.11.6-.17s.41.36.75.17c.05.12.16.25,0,.36l-.23.18a1.26,1.26,0,0,1,.38.06c.55.1.55.1.23.4-.07.07,0,.14,0,.21h.07a1.16,1.16,0,0,0,.82.1c.09-.11-.06-.3.18-.38V2.88c0-.11-.11-.22.05-.3a1.23,1.23,0,0,1,.77-.18c.22,0,.35,0,.28-.23.3-.2.41-.16.56.19.39,0,.82.18,1.14-.12.08-.08.21,0,.28.07l.21.22a.38.38,0,0,0,.22.16c.4-.13.5,0,.36.31.16-.14.29-.25.5-.13a5.68,5.68,0,0,0,1.37-.12.24.24,0,0,1,.28,0c.08.1-.13.06-.13.14,0,.26-.18.41-.51.52s-.21.22.06.29.46.08.69.11.47.09.55-.16c0,0,.12,0,.15,0,.34.11.71,0,1,.11s.59,0,.85.13c.18,0,.11-.09.07-.16-.14-.24-.51-.28-.72-.47a.24.24,0,0,0-.31,0s-.07.09-.12.11a1.17,1.17,0,0,1-.72.07c-.07,0-.14,0-.12-.1s.34-.25.52-.3.46-.39.76,0c0,.07.16-.07.24-.07.24,0,.58-.12.54.24,0,.16.24.17.3.29.28,0,.55,0,.66-.34s.53-.25.78-.11a1.86,1.86,0,0,0,.86.14c.73,0,.93.11,1.08.64,0,.05,0,.12.11.12s.2,0,.22,0c.09-.5.35,0,.52,0h0c.24,0,.51.17.64-.13-.25-.06-.36-.29-.81-.28.67-.22,1.18,0,1.26.37a1.52,1.52,0,0,0,.22.65h0c.45.28.9.44,1.33,0,.06-.06.15-.07.18,0,.1.27.46.21.68.32.43,0,.62.11.67.43a2.47,2.47,0,0,0,.3.64c.07.13.22.11.34.05a2.3,2.3,0,0,1,1.2-.08,5.41,5.41,0,0,0,1.34-.17,4.9,4.9,0,0,1,1.24-.31.36.36,0,0,0,.15,0c.16-.07.13-.44.39-.25s.9.39.58.87c-.18.25.1.54.11.82s.23.11.38.12c.32,0,.36,0,.42.21h0a2.12,2.12,0,0,1,1.19.9,1.21,1.21,0,0,0,.63.58c.24.09.38.24.67.14,0,0,.1,0,.12.06a1.06,1.06,0,0,0,1.14.4c.11,0,.23-.05.34-.05.28,0,.48.07.28.32s-.23.82-.85,1c0,0-.09.07-.1.07-.56-.25-.33.2-.47.3a4.87,4.87,0,0,1-1.46.78c-.25.08-.32.33-.63.3-.48.09-.62.43-.85.68s-.26.31-.4.44c-.37.32-.58.64-.35,1.11.13.26-.06.51-.42.63a3.93,3.93,0,0,0-.82.51,7.58,7.58,0,0,1-2.38,1.43c-.52.12-.59.55-.82.86-.06.08-.05.21-.16.26-.59.28-.89.78-1.5,1,0,.19-.2.36-.14.57s-.1.18-.27.2a.82.82,0,0,0-.8.55.92.92,0,0,1-1,.58,2.83,2.83,0,0,0-1.69.8c-.17.22-.57.17-.87.2-.51.06-1,0-1.14.57,0,.23-1.23.51-1.58.43a1.37,1.37,0,0,0-.45,0c-.12.21-.4.27-.61.4s-.25.11-.14.23a.29.29,0,0,0,.32,0,1.64,1.64,0,0,1,1.23.11h0a3.79,3.79,0,0,0,1.6-.35.5.5,0,0,1,.36-.1h0c.29,0,.46-.27.79-.25h0l.09,0a6.33,6.33,0,0,1,1.41-.35,1.83,1.83,0,0,1-1.06.66,6.31,6.31,0,0,1-1.3.48c-.68.25-1.42.36-2.1.59l-.11.13c.05.27-.26.2-.44.24-.33.06-.68.08-.75.41,0,.1-.21.17-.32.13-.41-.16-.57.06-.78.22a.08.08,0,0,0,0,0c0,.62,0,.63-.86.69a.74.74,0,0,0-.47.16,2.25,2.25,0,0,1-.9.34c1.33-.06,2.67,0,4-.15a1.14,1.14,0,0,1,.33.05c.13-.07.59.11.34-.26-.08-.1.18-.12.21-.21-.22-.15-.15-.2.09-.27a5.64,5.64,0,0,1,1.74.07c.13,0,.26.07.39,0s.23-.1.31,0-.1.18-.18.25a3.64,3.64,0,0,1-1.19,0c-.4,0-.41.11-.19.31.68,0,1.36,0,2,.09.13-.05.4.06.39-.17-.11,0-.31.07-.31-.08s.2-.15.35-.13.26.1.09.2a.76.76,0,0,0,.11.14,8.93,8.93,0,0,0,1.64-.14,3.08,3.08,0,0,1,1,.1c.3.06.66.3.81-.14,0-.09.36-.15.57,0s.27.07.29-.06.05-.21-.17-.21-.55-.23-.85-.06c-.07,0-.22,0-.25-.07s.13-.16.22-.14.53,0,.74.13c0,0,.09.06.11.05.45-.14.81.12,1.19.21a9.69,9.69,0,0,0,1.94.22c.25-.27.57-.21.94-.12s.09.14.11.22c.51.09,1,0,1.55.09a.21.21,0,0,0,.21-.06c.23-.3.7-.25,1-.2.61.11,1.22.13,1.82.23h.3c.31-.05.62-.1.85.16.08.09.22,0,.32.08.48.31,1.1.12,1.62.29.16.06.35,0,.48.17s.3.28.38,0c0,0,.2-.05.28,0a11.08,11.08,0,0,0,3.25.19,1.65,1.65,0,0,1,.3,0c.12,0,.31,0,.31.14s-.2.07-.31.1l-1.65.4,0,.1H199a1.41,1.41,0,0,1,.2,0c.23.05.6,0,.65.17s-.35.08-.53.15c-.46.17-1,.19-1.46.37-.13.05-.34,0-.35-.05,0-.33-.29-.21-.51-.21a2.56,2.56,0,0,0-1.41.28,1.13,1.13,0,0,1-.55.1c.33.13.81-.09,1.07.32.11.16.42-.11.65,0-.47.39-.86.37-1.57.06a2.88,2.88,0,0,0-1,0c-.16.29-.58.21-.87.3s-.32-.16-.39-.32c-.42-.14-.42-.14-.08-.36l-.47-.08h-.15c-.32.08-.41.43-.82.39l-.29,0c-.17.53.41.26.65.35-.16-.26.14-.27.33-.34a.22.22,0,0,1,.25.1c.07.1-.07.1-.14.14l-.25.11c.07.11.34,0,.35.15s-.21.12-.33.16a11,11,0,0,1-1.15.17.28.28,0,0,1-.27-.07c0-.11.14-.11.22-.16s.25-.26-.09-.37c-.08,0-.13-.13-.19-.2h-.17c0,.12-.27,0-.32.15s.26,0,.23.16-.11.09-.19.09-.39,0-.41-.24-.34,0-.46-.12l0,0h0a.08.08,0,0,1,0,0,1.43,1.43,0,0,1-1.05.48l0,0c.31.18.91-.15,1.07.45.09.35.46.66.36,1.07s.39.71.71.77c-.57.08-1.13-.07-1.7,0,0,.09.12.2.09.27-.18.42.26.31.47.28.45-.07.61.11.57.36s.12.22.3.25l.9.14a.29.29,0,0,1-.32.08,2.56,2.56,0,0,0-1.55,0,10.29,10.29,0,0,1-4.07.17c-.22,0-.44,0-.49-.29s-.36.07-.54-.08c0,0-.25.08-.26.18s.21,0,.28.13l-.36.06L184,34c-.38.11-.2.33-.23.51s.15.1,0,.15-.19,0-.23,0c-.16-.24-.27-.12-.45,0a.58.58,0,0,1-.6,0c-.15-.08-.42,0-.64,0l-.29,0c0,.23-.32.16-.48.23a.6.6,0,0,1-.72-.11h0l-1.11,0a3.51,3.51,0,0,0-1.51-.17h-.1c-.33.44-.82.25-1.32.16-.21,0-.46.18-.81,0a5.3,5.3,0,0,1,1.72-.58l0-.26c0-.09-.17-.15-.2-.06-.1.29-.42.23-.68.22a1.45,1.45,0,0,0-.62.07A.63.63,0,0,1,175,34l-.22-.17c0,.19-.39.19-.37.4s.07.19.23.21l.39.06c.13,0,.25,0,.26.15s-.12.12-.22.17a4,4,0,0,1-1.92.12.48.48,0,0,0-.31.07.3.3,0,0,1-.4,0c-.13-.23-.38-.19-.55-.15a5.25,5.25,0,0,1-2.09-.12,6.09,6.09,0,0,0-.87-.23.7.7,0,0,1-.7-.14c-.09-.09-.36-.08-.55-.12,0,.05-.16.1,0,.15s.43.07.46.28c.35,0,.09.39.52.33-.2.1-.45,0-.54.19a3.75,3.75,0,0,1-1.11-.38c0-.16.27-.07.28-.21s0,0-.06,0c-.59,0-.59.05-.59-.36-.3,0-.3-.19-.45-.28-.28.18-.69-.1-.95.11,0,0,0,0,0,0l.06,0c.24,0,.37.2.22.22-.34.05-.5.31-.84.32h-.09v.06l.62.13a.21.21,0,0,1,.29,0c.08.08.2.11.18,0s0-.21.17-.19,0,.15.1.23l.1.13.54,0c-.17.19-.45.25-.46.48a1.23,1.23,0,0,1,.76.06c.14.06.34.18.49,0a.15.15,0,0,1,.21,0,.18.18,0,0,1,.06.17c0,.08-.11.11-.18.08-.29-.13-.38.1-.53.16-.31.14.14.25.12.39h0c.29-.17.55,0,.82.07a2.4,2.4,0,0,0,.92-.08c.3-.13.45.2.73.22a1.63,1.63,0,0,1,.71.17,1.54,1.54,0,0,1-1.1,0h0a7.59,7.59,0,0,0-1,.08c.42.28.9.1,1.3.2l.06,0c1.27.2,2.56.18,3.85.28a3.26,3.26,0,0,1,1.78.41c-1.57,0-3.08-.25-4.59-.27s-3.05-.1-4.57-.14a27.77,27.77,0,0,0-4.56,0,5.63,5.63,0,0,0,.9.1c1.56,0,3.09.33,4.66.31a24.85,24.85,0,0,1,2.57.18,21.46,21.46,0,0,0,2.27.16,2.32,2.32,0,0,1,1.7.52.66.66,0,0,0,.6.23c.35-.14.63,0,.94.12a1.27,1.27,0,0,1,1.35.93h.09a1.14,1.14,0,0,1,.63,0c.37.14.74,0,1.11,0,.79,0,1.58,0,2.37,0a1.41,1.41,0,0,1,1.09.48,4.76,4.76,0,0,1-2,.45,12.58,12.58,0,0,0-2.3.15c-.22,0-.51.11-.68-.12a5.5,5.5,0,0,0-.91,0,6.61,6.61,0,0,1-1.27.35c-.12,0-.25,0-.27.13s.11.14.22.18.3.16.48.25l-.27.11c-.17.05-.48-.06-.5.14s.34.13.47.24c1.39.06,2.77.11,4.16.19.56,0,1.11.18,1.68.24.73.08,1.47.12,2.2.19a2.91,2.91,0,0,1,.41.1,7.33,7.33,0,0,1-1.34.15,27.63,27.63,0,0,1-4.17,0,4,4,0,0,0-1,.07,1.77,1.77,0,0,1-1.09-.05,2.17,2.17,0,0,0-1.1-.07,39.83,39.83,0,0,1-4.09,0,4.07,4.07,0,0,0-.61,0,.32.32,0,0,1,.29.24c0,.14-.11.17-.23.16a.3.3,0,0,1-.26-.26.13.13,0,0,1,0-.11l-.48.09a7.38,7.38,0,0,1-1.7.05h-.28c.31.15.64.25.95.39.17,0,.25-.12.36-.21s.36-.15.44.15c.2,0,.33.1.47.2s.63-.32.68.27c.22.18.43.5.62,0,.07-.17.26-.11.4-.05s.12.22.1.34,0,.24-.07.34h.05l.63,0s0,0,0,0c.23,0,.47-.17.67.09l.31,0h0c0-.29.36-.36.4-.66,0-.1.24-.2.42-.16s.18.21.23.35c.11.34-.23.27-.35.39a.61.61,0,0,0,.16.16,12.68,12.68,0,0,0,1.63,0,1.22,1.22,0,0,1,.33,0c.05-.12.1-.24.14-.37.09-.36.22-.08.34,0,.33.2.47-.12.69-.2s.43.57.82.33c.06.19.17.37,0,.53a3.11,3.11,0,0,0-.28.23,1.32,1.32,0,0,1,.43.12c.6.21.61.2.22.61-.09.09-.06.19,0,.3l.08,0a1.09,1.09,0,0,0,.91.23c.12-.16,0-.45.24-.53V46c0-.15-.11-.33.09-.42a1.1,1.1,0,0,1,.87-.19c.24,0,.39,0,.34-.3.35-.26.47-.2.61.32.44.06.9.35,1.28-.06.1-.1.24,0,.31.13l.22.34a.4.4,0,0,0,.24.25c.45-.14.56,0,.37.5.19-.2.34-.34.58-.15.51,0,1.05.17,1.54,0a.26.26,0,0,1,.31.1c.08.16-.16.08-.16.19a.76.76,0,0,1-.61.71c-.23.07-.25.3,0,.42a6.7,6.7,0,0,0,.76.24c.26.06.53.17.64-.18,0-.05.13,0,.16.09.35.17.74,0,1.08.23a5,5,0,0,0,.66-.18c.13,0,.23,0,.26.11l.11,0c-.18-.27-.51-.38-.7-.64s-.24-.09-.35,0-.09.13-.15.15a1,1,0,0,1-.81,0c-.07,0-.15-.09-.13-.17.1-.26.41-.33.62-.38s.54-.51.85,0c0,.11.18-.07.28-.07.27,0,.66-.12.58.4,0,.23.25.28.31.45.32,0,.63,0,.77-.43.09-.25.62-.31.89-.08s.62.22.94.29c.82.07,1,.25,1.17,1,0,.08,0,.18.11.19s.22,0,.24,0c.15-.71.4,0,.59,0h0c.27.09.57.29.73-.12-.27-.11-.38-.47-.89-.49.77-.25,1.34.08,1.39.67a3.21,3.21,0,0,0,.19,1h0c.48.44,1,.72,1.49.18.08-.08.18-.09.2,0,.09.4.5.35.74.53a.6.6,0,0,1,.67.43h.11a1.93,1.93,0,0,1,.53,0c0-.13-.23-.24,0-.41.15.06.33.35.55.06a1.32,1.32,0,0,0,.43.13c.37,0,.73,0,1.09,0s.42.1.44.2-.18.2-.39.2a.63.63,0,0,0-.22.07c0,.06,0,.12-.05.16s0,.22,0,.31a11,11,0,0,0-1.29-.06c-.16.16-.46,0-.63.12a1.05,1.05,0,0,1-.3.15,2.49,2.49,0,0,1,.11.29c.07.2.24.18.37.11a2,2,0,0,1,1.35,0,4.29,4.29,0,0,0,1.52-.11,4,4,0,0,1,1.42-.32.47.47,0,0,0,.17,0c.19-.08.18-.62.45-.32s1,.65.58,1.31c-.21.36.07.8.06,1.2,0,.2.25.18.42.21.36.08.4.11.45.35h0a2.7,2.7,0,0,1,1.26,1.42,1.6,1.6,0,0,0,.66.9c.26.16.41.39.74.27a.29.29,0,0,1,.13.1,1.12,1.12,0,0,0,1.24.7,2.58,2.58,0,0,1,.39,0c.32,0,.54.14.29.48s-.33,1.18-1,1.37c0,0-.1.1-.11.1-.62-.42-.38.25-.56.39a5.33,5.33,0,0,1-1.69,1c-.29.08-.38.44-.74.36-.54.09-.72.57-1,.91-.16.18-.31.41-.48.59a1.4,1.4,0,0,0-.49,1.57.69.69,0,0,1-.52.88,4,4,0,0,0-1,.65c-.92.63-1.57,1.59-2.78,1.84-.6.12-.7.74-1,1.17-.08.11-.07.29-.21.36-.68.34-1.05,1-1.75,1.36-.07.27-.26.5-.21.81s-.13.25-.32.25a.94.94,0,0,0-.94.73,1,1,0,0,1-1.12.75,2.84,2.84,0,0,0-2,1c-.21.31-.65.19-1,.21-.58,0-1.16,0-1.32.71-.07.33-1.43.62-1.81.46a1.45,1.45,0,0,0-.5-.08c-.15.29-.47.35-.72.51s-.29.14-.18.33a.3.3,0,0,0,.36.09,1.47,1.47,0,0,1,1.37.28,3.37,3.37,0,0,0,1.83-.36.51.51,0,0,1,.4-.1h0c.32,0,.54-.34.9-.29h0a.2.2,0,0,1,.11,0,6,6,0,0,1,1.6-.39,2,2,0,0,1-1.24.87,6.43,6.43,0,0,1-1.5.56c-.78.29-1.62.39-2.4.64l-.13.19c0,.39-.31.26-.51.29-.38.07-.78.05-.88.53a.27.27,0,0,1-.36.16c-.45-.27-.65,0-.9.24l0,0c-.08.9-.07.91-1,.92a.74.74,0,0,0-.54.18,2,2,0,0,1-1,.4c1.5,0,3,.27,4.48.18.15,0,.25.08.38.11s.65.21.39-.34c-.08-.16.22-.15.26-.29-.24-.24-.16-.31.12-.38a5.21,5.21,0,0,1,1.95.27c.14,0,.28.13.43.06s.26-.12.35,0-.13.24-.22.35a3.38,3.38,0,0,1-1.34-.07c-.44,0-.47.12-.24.44a19.37,19.37,0,0,1,2.27.32c.15-.06.45.13.45-.2-.12,0-.35.07-.34-.14s.24-.21.4-.16.28.16.08.3l.11.21a8.24,8.24,0,0,0,1.86,0,2.58,2.58,0,0,1,1.07.24c.34.12.72.5.93-.12,0-.13.42-.18.64,0s.29.14.33,0,.07-.3-.18-.33-.59-.38-.95-.17a.19.19,0,0,1-.27-.12c0-.19.15-.22.25-.18.27.12.6,0,.82.26,0,0,.1.1.13.09.51-.16.89.25,1.32.42a8.42,8.42,0,0,0,2.15.51c.3-.37.65-.25,1.07-.08.27.11.08.22.1.33.57.18,1.16.06,1.73.28a.19.19,0,0,0,.24-.06c.28-.41.8-.3,1.12-.19.67.22,1.36.31,2,.5l.33,0c.35,0,.71-.08.94.32.08.14.24.07.35.14.51.5,1.22.28,1.8.59.17.1.38.06.52.3s.31.42.43,0c0,0,.22,0,.32,0a9.41,9.41,0,0,0,3.62.6,1.35,1.35,0,0,1,.33.09c.13,0,.35,0,.34.24s-.24.08-.36.11l-1.87.41,0,.15,1.81.18c.08,0,.16,0,.23,0,.25.1.68,0,.71.3s-.4.09-.61.17c-.52.21-1.13.17-1.66.39-.15.07-.39,0-.38-.1,0-.48-.32-.34-.57-.37a2.4,2.4,0,0,0-1.59.27,1,1,0,0,1-.63.1c.36.22.92,0,1.18.57.1.24.48-.12.72.09-.56.53-1,.45-1.76-.07-.28-.19-.76-.08-1.15-.11-.2.4-.67.24-1,.35s-.35-.28-.41-.51c-.46-.24-.46-.24-.06-.52l-.52-.17h-.16c-.37.08-.5.59-1,.48h-.33c-.23.75.45.41.7.57-.15-.39.19-.38.4-.46a.25.25,0,0,1,.28.16c.07.15-.1.15-.18.19a2.59,2.59,0,0,1-.29.14c.08.16.39,0,.39.24s-.24.16-.38.22c-.42.15-.89,0-1.31.13a.26.26,0,0,1-.29-.14c0-.16.16-.14.26-.2s.29-.36-.07-.55c-.1,0-.14-.21-.2-.32h-.19c-.06.16-.31,0-.38.18s.29.08.25.27-.13.11-.22.1c-.24,0-.44-.1-.44-.38s-.38,0-.51-.23l0-.06h0a.09.09,0,0,1,0,.06,1.44,1.44,0,0,1-1.21.6l0,0c.33.3,1-.12,1.16.76.07.51.46,1,.32,1.59a1.35,1.35,0,0,0,.74,1.18c-.65.06-1.27-.21-1.91-.16,0,.13.11.29.07.39-.23.59.28.48.51.46.51-.06.67.21.62.58s.1.33.31.39l1,.29a.27.27,0,0,1-.36.08,2.24,2.24,0,0,0-1.74-.09,8.93,8.93,0,0,1-4.58-.17c-.24-.08-.49-.09-.53-.47s-.4.07-.59-.15c0,0-.28.09-.3.23s.23.06.29.21l-.4,0,.48.23c-.43.12-.25.46-.3.72,0,.07.16.16,0,.21a.19.19,0,0,1-.25-.08c-.16-.35-.3-.19-.51-.07a.55.55,0,0,1-.67,0c-.16-.13-.47-.08-.72-.1h-.32c0,.33-.37.2-.56.28a.57.57,0,0,1-.8-.22h0l-1.25-.06a3.21,3.21,0,0,0-1.67-.41s-.1,0-.11,0c-.41.61-.94.28-1.49.1-.24-.07-.53.21-.92-.09a5.21,5.21,0,0,1,2-.66v-.38c0-.13-.17-.23-.21-.1-.14.41-.49.29-.78.25a1.2,1.2,0,0,0-.7,0c-.34.16-.6-.05-.81-.35a1.94,1.94,0,0,0-.23-.27c0,.28-.45.23-.45.54a.31.31,0,0,0,.24.34l.44.12c.14,0,.27.07.27.24s-.14.17-.26.22a3.54,3.54,0,0,1-2.16,0,.41.41,0,0,0-.35.07.3.3,0,0,1-.44-.11c-.13-.35-.41-.31-.61-.27a4.53,4.53,0,0,1-2.32-.39c-.3-.09-.6-.37-1-.42a.67.67,0,0,1-.77-.27c-.09-.14-.4-.15-.61-.23,0,.08-.18.14,0,.22s.47.15.48.45c.4,0,.08.58.56.54-.23.12-.5,0-.61.21a3.53,3.53,0,0,1-1.22-.65c0-.24.31-.08.33-.28,0,0,0-.07-.06-.07-.67,0-.67,0-.64-.57-.34,0-.31-.31-.48-.46-.32.24-.76-.21-1.08.07,0,0,0,0,0,.05l.07.08c.27,0,.4.33.23.35-.39,0-.59.39-1,.37h-.09a.14.14,0,0,0,0,.09l.68.25c.14-.09.24,0,.32.1s.21.18.2,0,0-.3.21-.26,0,.23.09.34a1.86,1.86,0,0,0,.1.2l.6,0c-.2.27-.52.33-.55.66a1,1,0,0,1,.85.17c.15.09.36.29.55,0a.14.14,0,0,1,.23,0,.4.4,0,0,1,.06.26.13.13,0,0,1-.21.09c-.31-.22-.43.11-.61.19-.35.16.14.36.1.57h0c.33-.21.61.09.91.17a1.9,1.9,0,0,0,1,0c.35-.15.5.34.8.4a1.49,1.49,0,0,1,.79.31,1.38,1.38,0,0,1-1.24-.1h0a4.94,4.94,0,0,0-1.15,0c.45.45,1,.23,1.44.42l.07,0a42.31,42.31,0,0,0,4.28.79,3.09,3.09,0,0,1,2,.77c-1.76-.11-3.43-.68-5.12-.85s-3.41-.44-5.11-.65a23.18,23.18,0,0,0-5.11-.44,5.16,5.16,0,0,0,1,.23c1.75.1,3.44.79,5.19.91a22.19,22.19,0,0,1,2.87.52,18.28,18.28,0,0,0,2.54.46,2.32,2.32,0,0,1,1.85.92.72.72,0,0,0,.66.39c.4-.16.7.14,1.05.27a1.45,1.45,0,0,1,1.31,1.06.32.32,0,0,1,.31-.11l.26,0a1.22,1.22,0,0,0,.6,0,.91.91,0,0,1,.61,0,1.82,1.82,0,0,0,1.21.1.38.38,0,0,1,.42.2c.08.17-.14.15-.29.18a10.86,10.86,0,0,1-2.55,0,1.27,1.27,0,0,1-.36-.09.41.41,0,0,1-.15-.07,1.29,1.29,0,0,1,.06.21.12.12,0,0,0,.1,0,1,1,0,0,1,.71.11c.4.23.82,0,1.24,0,.89,0,1.77.21,2.66.25a1.5,1.5,0,0,1,1.18.8,4.19,4.19,0,0,1-2.24.46,10.69,10.69,0,0,0-2.59,0c-.26,0-.58.11-.76-.24-.34-.14-.67,0-1,0s-.48.16-.72.23h0c.45.23.15.42-.08.42a.71.71,0,0,0-.63.26l.39.32-.31.13c-.19,0-.53-.14-.56.15s.36.22.5.39l2.57.37a.73.73,0,0,0,.25-.08c.06,0,.17-.08.21-.06.54.24,1.17.14,1.71.35a3.42,3.42,0,0,1,.72,0c.74.06.75.06.62.53.14,0,.28.09.43.12.81.19,1.64.33,2.45.5a2.21,2.21,0,0,1,.46.18,5.55,5.55,0,0,1-1.44.09s0,0,.07,0a9.1,9.1,0,0,1,2.77.43,2.81,2.81,0,0,1,.88.33c.07,0,.18.08.24,0,.48-.37.48.17.69.26s.21.23.44.22c.07,0,.18,0,.16.05-.12.43.37.28.61.34s.55,0,.54.32c0,.15.19.12.25,0,.23-.24.75-.09,1-.35a.46.46,0,0,1,.2,0c.19.35.67.25,1,.3.52.08,1,.38,1.56.25.3-.08.65.16,1,0h0a1.53,1.53,0,0,0,.25.16c.16.06.38.13.34.26s-.3,0-.46,0a.25.25,0,0,1,0,.07h0c0,.14.15.11.27.11s.29,0,.26.19-.18.13-.32.09a1.17,1.17,0,0,0-1.1.11c.31,0,.49-.09.7-.05s.27,0,.29.14.09.27-.07.3c-.36.06-.64.33-1.09.18a.83.83,0,0,0-.8-.28c-.34,0-.75-.17-1,.13-.24-.09-.1-.36-.23-.33-.31.08-.55-.13-.81-.09-.08,0-.22.1-.2.13.14.37-.13.21-.33.12s-.19-.13-.28-.07c-.36.23-.87.08-1.29.15s-1-.22-1.49-.26H199c0,.4.43.69.65,1,.06.09.24.14.23.26a1.43,1.43,0,0,1,.5.14c.23,0,.48,0,.54.22s-.15.24-.37.27-.4.06-.39.2c0,.3-.26.19-.46.14s-.36-.13-.39,0a.32.32,0,0,0,.32.29c.52,0,.47.25.47.47,0,.54-.11,1-1.07,1.13a1.28,1.28,0,0,1,.65.36c.12,0,.22.09.22.23s0,.14-.11.15a1,1,0,0,1,0,.16c.06.21-.12.25-.35.25-.44,0-.85,0-.79.48,0,.15-.18.22-.34.29s-.27.26-.13.46c1.33.06,2.66.11,4,.06a41.52,41.52,0,0,1,4.17.16,2.18,2.18,0,0,1,.35.08,15.6,15.6,0,0,1-2.78.19c-1.07-.06-2.13.08-3.2.08-.85,0-1.7,0-2.55,0a1.16,1.16,0,0,1-.78.32c-.82-.07-1.64-.12-2.46-.25h-.48a1.24,1.24,0,0,0-.66.25.68.68,0,0,1-.3.17c-.37.09.14.11.06.18a3.19,3.19,0,0,0,.74.13,2.94,2.94,0,0,1,1.88.09c.33,0,.65.11,1,.19l.55.13h.12a5.77,5.77,0,0,0,1.66,0c0-.17-.45-.26-.19-.46a.76.76,0,0,1,.93.09c.33.28.54.38.82,0a.48.48,0,0,1,.59,0c.42,0,.83-.29,1.29,0,.11.08.27-.06.41-.11s.38-.25.57,0h0a.53.53,0,0,0,.26,0,1,1,0,0,1,1.47.42h.19a2.36,2.36,0,0,1,1.24-.06l1.74.09,1-.07c.1,0,.25,0,.29.09s-.16.15-.23.24h0a.75.75,0,0,1,.54.59c.29.11,0-.32.3-.22s0,.41.22.55a5.31,5.31,0,0,0,2.39.34,1.89,1.89,0,0,1,.6.1c0-.19-.24-.38,0-.6.17.1.34.54.61.14a1.19,1.19,0,0,0,.48.24c.4.05.81.06,1.22.08.25,0,.46.18.47.33s-.21.27-.44.25a.77.77,0,0,0-.26.07c0,.09,0,.18-.07.24l0,.44a8.65,8.65,0,0,0-1.43-.21c-.2.21-.53-.07-.73.11a1.45,1.45,0,0,1-1.33.16.4.4,0,0,1-.41.08c-.19-.08-.49,0-.54-.3s.23-.31.47-.35c-.45-.15-.76-.1-.87.31a.18.18,0,0,1,0,.1l0,.05c-.13.25,0,.57-.22.87,0-.64-.45-.55-.79-.51s-.36-.11-.22-.34c-.26,0-.23-.17-.21-.33l-.13-.1c0,.58-.54.33-.83.37a1.15,1.15,0,0,0-.8.35c-.21.28-.34.18-.5-.06-.72.08-1.45.15-2.17.24a1.2,1.2,0,0,1-1-.12c-.45-.27-.93.13-1.55.3a9.41,9.41,0,0,0,2,.25,1.13,1.13,0,0,1,.67.11c.65.11,1.26-.14,1.91,0,.82.11,1,.21,1.27,1a.48.48,0,0,0,.33.29,4.05,4.05,0,0,0,1.76.41c.52.06.73.6,1.21.77.2.07.09.38-.23.36s-.63,0-.89.2c.27.16.65.26.34.68-.09.12.09.31.21.43.31.28.11.39-.14.42a1.26,1.26,0,0,1-.91-.21,5.15,5.15,0,0,0-1.29-.43,25.24,25.24,0,0,1-6.95.64c-2-.09-3.94-.4-5.9-.62a7.63,7.63,0,0,0-1.18.08,15.76,15.76,0,0,1-2.06,0,18.72,18.72,0,0,1-1.79.55c0,.32-.3.45-.6.6,0,0-.08.06-.16.09a.75.75,0,0,1-.4.06c0,.18.54.16.3.41a.25.25,0,0,0,0,.07c.29.07.65,0,.87.23a.3.3,0,0,1,0,.4c-.22.2-.45.35,0,.62.09.07-.1.17-.2.16-1-.15-1.88.17-2.86,0l-.27,0c-.71-.05-1.41,0-2.12-.09l-4-.21-.34.05c.45.35,1.07.29,1.6.46.19.06.44.07.66.13a.65.65,0,0,0,.61-.05c.22-.15.48-.3.71.09.1.18.54.11.59.37h.1c.31,0,.61,0,.61.29s-.28.27-.6.23-.76-.08-1.14-.12c-.18,0-.41,0-.47-.19l-.31-.05c-.09.09-.5-.21-.39.15,0,0-.17.06-.21,0-.14-.25-.28-.24-.48-.07s-.27,0-.4-.16c-.11.45-.56.37-1,.26s-.25-.34-.25-.53h0c-.28-.07-.35.1-.49.19a.51.51,0,0,1-.7,0c.12-.16.45-.09.55-.28l-.52-.18c-.2-.11-.44-.13-.61-.34a.9.9,0,0,0-.88,0v.16a.74.74,0,0,1,.48.3c.08.08,0,.28-.06.23-.43-.22-.88.12-1.29-.15H177c-.34,0-.68-.23-1,0-.15.08-.39-.15-.58-.25s-.28-.21-.42-.31h0c-.48-.07-.9-.31-1.42-.34.09.17.54.22.33.36a.73.73,0,0,1-.71.16,1.21,1.21,0,0,0-.75-.16.42.42,0,0,1-.36.09.33.33,0,0,0-.44.11c-.24.27-.7.18-1.09.17-.05,0-.16-.1-.15-.14s.11,0,.18,0,.19-.12.33-.17a1.29,1.29,0,0,1-.61-.19.58.58,0,0,0-.23-.09.56.56,0,0,1-.72.14l-.25-.1a.68.68,0,0,0-.29.23l0,.14a.91.91,0,0,0,.62-.09c.27-.17.47,0,.49.15,0,.38.42.38.74.48a1.4,1.4,0,0,1,.17.09,10.33,10.33,0,0,0,1.92.27,6.8,6.8,0,0,1,1,.11c1.08.2,2.18.22,3.26.47a6,6,0,0,0,1,.06,2.72,2.72,0,0,1,1.66.4.52.52,0,0,0,.3.06l1.16.13a29.76,29.76,0,0,1,4.3.65,15.56,15.56,0,0,0,2,.29c1.09.09,2.17.31,3.26.41h0a1.72,1.72,0,0,1,1.27.15c.1.07.23,0,.34,0,.08.21.41.12.53.28l.22.09.85.07c.31-.1.53.12.85.17a.52.52,0,0,1-.53.15h-.1a1.58,1.58,0,0,0,1,.21,2.23,2.23,0,0,1,.45,0l.15,0c-.36.41.68.3.51.64,0,.14,0,.24-.21.18a.9.9,0,0,0-.49,0c-.14.09-.09.15.09.17a7.91,7.91,0,0,0,.84.06,27.86,27.86,0,0,1,3,.2c.5.06,1.06.24,1.65.36-.24.23-.58.07-.81.16s-.27.13,0,.25h0l.87.53c.19.07.25.27.51.29h.1a1.73,1.73,0,0,1,1,.35c.07.06.17.11.16.19-.06.28.13.27.41.23s.31,0,.35.31c.37-.3.66,0,1,.09a2.66,2.66,0,0,1,.94.33l0,0h0l0,0c.42-.23.82,0,1.19.17s.3.33-.14.55c-.18.13-.14.32-.19.49a.73.73,0,0,1-1.12.25c-.18-.11-.32-.26-.56-.12h0c-.33-.4-.64-.08-1-.06h0c-.31-.17-.41.12-.65.09l-.11.07a2.36,2.36,0,0,1-1,.16,1.6,1.6,0,0,1-.5.21c0,.16,0,.3.28.38.09,0,.14.09.08.16a.14.14,0,0,1-.21,0c-.09-.12-.19-.1-.31-.07-.27.07-.51.22-.8-.11-.12-.12-.5,0-.71.08a2.73,2.73,0,0,1-1.4.11c-.14,0-.28,0-.3.08s-.28,0-.4.13c0-.2.27-.19.24-.33a16.19,16.19,0,0,1-2.61.05,1.53,1.53,0,0,1-.34-.09c-.19,0-.38-.14-.49.1s-.46.17-.72.21h0l-.7.19c.08.07.13.16.22.18.35.12.51.27.33.53,0,.07.11.08.16.13.46,0,.69.39,1.13.45.06,0,.15.15.09.16-.41.09-.39.48-.78.57-.14.38-.44.61-1.06.53a1.16,1.16,0,0,1-.74.26l-.32.13c-.07.09-.34,0-.31.19s.42.12.42.25c-3.1-.6-9.57-1.7-9.32-1.57a2.47,2.47,0,0,0,.84.25l.46.13,2.84.47-.1-.07a.6.6,0,0,1,.6.06.06.06,0,0,1,0,.09l4.62.76,0,0-4.62-.77h0a.47.47,0,0,1-.38-.07l-2.65-.44a1.82,1.82,0,0,1,.67.3,1.78,1.78,0,0,0,.38.25l.26.1a1.14,1.14,0,0,0,.37,0c.23,0,.37.17.57.26l.1,0h.13c.42-.17.43-.17.47.16,0,.13.18.14.27.15.7.14,1.38.31,2.06.5.2,0,.5.15.65-.08s.14,0,.18.05a.23.23,0,0,0,.33.09c.31-.15.47,0,.67.18-.08.11-.38,0-.35.21.07.44-.37.36-.73.33-.2,0-.3,0-.22.17s.16.21,0,.32a2,2,0,0,0-.72-.46c-.17.4-.83.63-1.72.59h0l-.42.06c-.19.26-.4.47-.86.15a.31.31,0,0,1-.23-.08c-.42,0-.28-.25-.31-.41h0l-.74-.14c-.14.12-.27,0-.4,0-.33,0-.34-.23-.47-.36s-.1.08-.1.12c0,.19.34.46-.12.54a2.07,2.07,0,0,1-.9.06,5.7,5.7,0,0,0-.58-.06c-.07-.1-.52-.09-.19-.3-.07-.16.34-.18.17-.37h0c-.33-.13-.15.19-.41.23a3.53,3.53,0,0,0-1,.3c-.37.18-.71-.2-1.09-.25l-.2-.05c-.17,0-.34,0-.51,0s-.19,0-.15.15a.26.26,0,0,1,0,.29c-.12.13-.36.11-.53.16s-.35-.06-.31-.24c-.13-.17-.43,0-.55-.18H178c-.08.26-.41.36-.68.46s-.57,0-.36.36c.07.1-.09.05-.16,0-.23-.05-.26.06-.29.18l.11,0a.28.28,0,0,1,.39,0c.07.06.05.2,0,.28a.33.33,0,0,1-.39.11c-.2-.05-.41-.12-.44-.31h0c-.35.07-.34.16,0,.33s.65.19.78.46h0c.23.22.63,0,.85.25.3.05.3.05.22.4.1,0,.23,0,.28.07s-.06.11-.14.12l-.35,0c-.39.24-.85,0-1.25,0s-.48.18-.78.17c-.06,0,.09.06.09.09,0,.19.42.27.34.49h0c0,.45-.6.24-.86.42-.11.07-.47-.13-.6-.36l-.41.43c.25.09.39-.12.61,0,0,.16,0,.16-1.08.19-.09-.14.21-.11.15-.25-.27,0-.45,0-.37.26v.2c0,.17-.12.31,0,.5-.32-.21-.94-.24-.76-.7.06-.15-.16-.22-.37-.31l.81.06a.68.68,0,0,0-.8-.34c-.73.16-.85.14-1.31-.28-.13.06.1.16,0,.19-.6.19-.22.57-.19.88,0,.16-.07.21-.3.18s-.75-.42-.72-.65.22-.07.35-.06h.08c-.13-.26.27-.3.34-.52-.23,0-.37.11-.56,0s-.54-.26-.85-.14c-.06,0-.13.07-.17.06a2.27,2.27,0,0,0-1.52-.09c-.13,0-.34,0-.35.17s0,.12-.16.1-.13-.06-.12-.11c.07-.41-.38-.38-.7-.45A.62.62,0,0,1,166,148a.61.61,0,0,0-.64,0c-.24.12-.68,0-.93.21-.06,0-.13-.05-.18-.11a1.59,1.59,0,0,0-.56-.53c-.23-.11.06-.14,0-.23a.66.66,0,0,0-.54-.38c-.21,0-.31-.13-.2-.27-.4,0-.78,0-.86-.4-.2,0,0-.33-.33-.17.1.18-.12.23-.21.34.54.29.54.29.35.45.14.08.28.16.41.25s0,.29-.11.4-.28.06-.34-.09.1-.16,0-.25-.43,0-.5-.15.32-.06.38-.19c-.54-.4-1,0-1.56-.06-.26,0-.47.12-.37.38s-.13.17-.24.24c-.27.16-.21.36.16.44.21,0,.42.19.66.13s.41.07.43.28c0,.4.44.48.85.55.12,0,.29-.06.31.11s-.13.17-.28.16a2,2,0,0,1-1.2-.24.29.29,0,0,0-.37,0,1.31,1.31,0,0,1-1.14,0c-.16.13-.34,0-.51,0s-.32-.16-.32-.36l.42.14h0v-.07h0c-.19-.11.17-.35-.23-.41,0-.09-.07-.21,0-.25.56-.18.1-.4,0-.61a.42.42,0,0,0-.54-.06,1.56,1.56,0,0,1-.42.08c.06.26.38.5.2.77L157,148a7.59,7.59,0,0,1-1.57-.08c-.15,0-.11.12-.14.2s-.1.1,0,.16.15,0,.22,0,.28-.15.48-.06.2.12.14.19a.65.65,0,0,1-.6.1c-.31-.19-.53,0-.75,0s.11.13.1.22,0,0,0,.06a5.52,5.52,0,0,1,1.39.27,5.84,5.84,0,0,0,2,.3c-.28.11-.52,0-.74.09,1.13,0,2.23.28,3.35.33.67,0,1.33-.09,2-.12a2.39,2.39,0,0,1,.57.11h.19a10.13,10.13,0,0,1,2.4,0,19.82,19.82,0,0,1,2.77.12,2.26,2.26,0,0,1,.64.19,5.05,5.05,0,0,1,2,.49,5.49,5.49,0,0,0,2.83.26c.64-.05,1.3,0,1.93-.05a8.28,8.28,0,0,1,2-.19,24.54,24.54,0,0,0,3.11-.11,20,20,0,0,0,2.48-.16c1.89-.27,3.88-.25,5.74-.62a6.82,6.82,0,0,1,2.26,0c.08.15,0,.16-.13.19a8.11,8.11,0,0,1-2.13.35c-.16,0-.35-.05-.5,0s0,.09,0,.11a5.19,5.19,0,0,1-1.88.36,1.08,1.08,0,0,1-.4,0h-.06a.63.63,0,0,0-.45,0,2.66,2.66,0,0,1-1.45.27h0c-.76.53-1.73.27-2.66.18h0c0,.08.15.23,0,.21a9.81,9.81,0,0,0-1.44.05s-.08-.05-.12-.08a.56.56,0,0,1-.65.15c-.25-.09-.36.19-.63.14-.09.13-.16.25-.46.15a3.72,3.72,0,0,0-.61-.09h0c-.05.1,0,.17.16.18a.71.71,0,0,1,.49.11,6.7,6.7,0,0,1,1.08.23,9.57,9.57,0,0,0,1.85.16,2.13,2.13,0,0,1,.88.2c-.22.18-.6.13-.82.32a1.78,1.78,0,0,0,.8.15c.94,0,1.88.14,2.81.1a3.9,3.9,0,0,1,1.22.1c.13,0,.28,0,.34.17.2.49.78.59,1.28.59a8.41,8.41,0,0,1,2,.56c-.15.19-.39.16-.6.19a.59.59,0,0,0,.13.69c0,.12,0,.13-.21.16a1.65,1.65,0,0,1-1-.13,8,8,0,0,0-1.31-.21,8.07,8.07,0,0,1-1.64.14,40.11,40.11,0,0,1-6.57-.08c-.39.08-.77-.27-1.17-.11v.39c.12,0,.19.23.32.07s.26.32.5.07c.05-.05.42,0,.24.26s.21.23.36.24c.83,0,1.63.38,2.45.34.37,0,.78.22,1.12,0,.08-.05.23.12.32.19s-.08.09-.11.14a.73.73,0,0,0-.06.21c-.05.18,0,.37-.45.22a.48.48,0,0,0-.62.37.87.87,0,0,0-.37.07c-.51.13-.9.47-1.55.32-.06.15-.29.12-.44.18.12.17,0,.25-.2.23a1.52,1.52,0,0,0-.88.11.56.56,0,0,1-.61-.15,2.21,2.21,0,0,0-.81,0,.69.69,0,0,1,.59-.45.15.15,0,0,1,0-.07,3.23,3.23,0,0,0-1,0c-.43,0-.61-.2-.62-.5h0c-.27-.09-.25.16-.43.18s-.26.08-.13.16.3,0,.2.15-.06.21-.26.23c-.45.06-.9,0-1.35.07a.27.27,0,0,1-.27-.11c-.07-.12,0-.2.16-.24.32-.1.34-.25.08-.45,0,0,0,0,0-.06a.37.37,0,0,0-.56-.17c0,.12.16.2.29.28s.14.19,0,.23l-1.5.42L172,158a1.06,1.06,0,0,0-.71-.17,3.64,3.64,0,0,1-1.31-.07c0,.21.29.13.41.2s.31.09.28.25-.12.25-.28.2-.79.52-.87-.2h-.1l-.06,0a2,2,0,0,1-1-.1c-.21-.18-.5-.08-.74-.16-.26.11-.3-.22-.52-.18a.26.26,0,0,0,.12.37h0c.19.07.35.15.34.32s0,.38-.36.21c-.09.17.36.28.09.46-.12.08.09.15.19.19s.35.12.2.28a.33.33,0,0,1-.49,0,.46.46,0,0,0-.5-.12c.06.25.24.53-.34.54-.11,0-.13.22,0,.24.68.05.35.31.32.52.18,0,.33.19.54.12l.21-.07c0-.1.14-.23-.16-.13-.13,0-.21,0-.23-.11s.1-.06.18-.09a2,2,0,0,1,1.27,0l.32,0c.08,0,.15,0,.15.1s0,.39.36.47l-.08.08a11.85,11.85,0,0,1-1.79,0s-.13-.05-.15,0c-.42.26-.74.06-1.1-.18-.16-.1-.43-.2-.58,0,0,.29.12.47.6.38a.68.68,0,0,1,.69.22c.11.17.48.25.31.57s-.2.43-.63.36c.16.25.2.38-.32.39a1.92,1.92,0,0,0-1.18.39c-.34.32-.25-.05-.36-.09-.28.25.19.43.25.73-.46-.34-1.12-.37-1.38-.82a.21.21,0,0,0-.28,0,1.7,1.7,0,0,1-1.53-.09c-.14.11-.34.2-.19.39-.19,0-.2-.12-.33-.12-.4-.16-.81-.3-.67-.73.08-.26-.23-.39-.57-.41s-.54.13-.89.09-.13.23-.09.36.07.25-.14.26a1.37,1.37,0,0,1-.72-.09c-.08,0,0-.07,0-.1.25-.12,0-.3,0-.45s-.08-.09-.16-.08-.08.07-.07.11c.11.33-.28.38-.5.53a.35.35,0,0,1-.42,0c-.16-.16,0-.2.17-.23s.3-.17.19-.24-.15-.38-.5-.32a.72.72,0,0,1-.68-.21.34.34,0,0,0-.51,0,1.13,1.13,0,0,1-.95.24c-.28,0-.54,0-.37-.32-.29-.06-.15.16-.31.2-.13-.17.06-.42-.35-.49,0,.26-.41.27-.64.41,0,.08.21.16,0,.23a.26.26,0,0,0,.09.05c.15.06.41.1.32.26s-.46.1-.55,0c-.26-.22-.37-.18-.54,0s-.3.07-.26-.06-.23-.39-.13-.58v-.24c0-.18,0-.39-.39-.4a.4.4,0,0,1-.37-.26c-.06-.2.3-.11.35-.25-.14-.1-.22,0-.33,0a.38.38,0,0,1-.33-.11.13.13,0,0,1,0-.21c.26-.17.19-.39.07-.62h0a2.13,2.13,0,0,1-.9,0c-.15-.06-.36,0-.19.2s.11.38-.3.32c-.2,0-.14.1-.19.17s.22.22.33.34c.13.28.3.56-.08.78s-.26.34.15.44a3.55,3.55,0,0,0,.57,0,1.13,1.13,0,0,0,0-.18c0-.15.1-.21.29-.16s.14.14.07.24,0,.09,0,.14c.2.11.78.1.24.42-.19.12.18.26.29.4.25,0,.47.32.74.08,0,0,.1,0,.13.1s0,.11-.07.12a2.51,2.51,0,0,1-1.43-.13c-.41-.26-.63.12-1,.07l-.2.07c-.29.19-.62.07-.95,0a1.67,1.67,0,0,1-.68-.29c-.51.1-.64,0-.71-.41-.13-.1-.5,0-.44-.26a5.07,5.07,0,0,1-1.4,0c-.23,0-.26.11-.32.22-.18.32-.56.44-1.13.32a.65.65,0,0,1-.29-.17c-.17.06-.4,0-.55.1s-.43.06-.64.1a1.74,1.74,0,0,1-.83-.24,3.22,3.22,0,0,0-.69.2s0,0,0,0l.12.14a.25.25,0,0,1,.21.11c.28,0,.51.11.35.32-.92-.18-2.07-.38-3.23-.59a.29.29,0,0,0,.1,0c-.1.18-.27.2-.49.18l3.76.68s0,0,0,.08l.09.05c.35-.06.51,0,.62.15-.79-.09-1.81-.23-2.9-.38h0l-2.82-.41a.39.39,0,0,1-.16,0,.35.35,0,0,1-.15-.07l-1-.15c0,.08-.06.12-.44,0a.39.39,0,0,0-.18,0c1.2.26,2.77.57,4.29.87h-.11c.09.22,0,.34-.32.35-.06,0-.15.06-.19.11s-.11.17-.26.13-.15-.19-.21-.29.1-.13.21-.13.19,0,.21-.12a4,4,0,0,0-1.14-.18.72.72,0,0,0-.74.5,2.49,2.49,0,0,1-.49.69s-.1,0-.15,0h-.21c-.5.3-.93-.09-1.39-.18a.11.11,0,0,0-.07,0c-.49-.22-.22-.56-.37-.84a.72.72,0,0,0-.52-.14c-.08,0-.32-.05-.27.08.15.42-.25.25-.5.24h-.07l-.46,0-.42.12c-.1.27.21.14.34.2h0c.24,0,.49.22.73,0a.2.2,0,0,1,.3.05c.06.1,0,.17-.16.19a1.31,1.31,0,0,0-.5.15.33.33,0,0,1-.5-.28l-.48,0c-.38,0-.34-.15-.07-.33-.38,0-.46.15-.33.34s.06.2-.22.21a9,9,0,0,1-1.27,0c-.17,0-.36,0-.49-.12l-.41-.19A.62.62,0,0,0,128,164a.22.22,0,0,1-.26-.07,2.81,2.81,0,0,0-1-.49.17.17,0,0,1-.15-.22c-.18-.17-.22.07-.35,0h0a1.48,1.48,0,0,1-1,0l-.19,0-.56,0a2.28,2.28,0,0,1,.11.41c0,.13.09.31-.23.27s-.34-.17-.46-.3-.38-.47-.84-.35a.9.9,0,0,1-.48-.12c-.22-.09-.35-.3-.54,0-.09.16-.36,0-.41-.22l0-.15c-.1,0-.19.09-.32,0a1.57,1.57,0,0,1-1.7-.28l-.32.06c-.11.11-.28,0-.41,0l-1.22-.09c.27.34.78.45,1,.77.09.12.27,0,.42,0,.21-.25.46,0,.69,0s.18.15.2.26-.12.16-.24.2c-.35.12-.34-.22-.55-.27l-.76-.07a.41.41,0,0,1-.61.15.44.44,0,0,0-.38,0c-.32.1-.4,0-.4-.28-.15.19-.09.42-.41.42s-.53-.25-.73-.44a.09.09,0,0,0,0,.06.31.31,0,0,1-.51-.11c-.15-.42-.52-.45-1-.44a2.25,2.25,0,0,0,.08.24h0c0,.15-.06.32-.28.26s-.23-.24-.13-.39c-.5-.46.18-.65.3-1-.48-.07-1-.2-1.24.22h0a.46.46,0,0,1-.5.08c-.09,0-.14-.1-.12-.16s.12-.14.27-.11c.41.05.31-.12.21-.29s-.28,0-.41-.05-.5.13-.76,0c0,.36.25.63.59.87.12.09.28.14.26.28s.23.19.22.32c.23.18.3.36,0,.5a.93.93,0,0,1-1,0,.63.63,0,0,0-.77-.08,1.19,1.19,0,0,1-.85-.11c-.12,0-.16-.24-.24-.36.22,0,.39-.19.65-.07.1,0,.19.1.27,0s0-.14,0-.21c-.06-.27-.53-.43-.47-.76,0-.13-.39-.06-.55-.18s-.39,0-.56-.1-.17-.15-.32-.11c-.21.33-.42.22-.63,0s.2-.28.3-.42c-.29-.23-.63-.08-.94-.16s-.43-.16-.69-.25c0,.2-.07.36.3.45s.48.49.89.66c.22.08-.06.36-.12.54s-.31.06-.45,0-.22-.09-.26,0l-.17,0a3.2,3.2,0,0,1-1.31,0,.15.15,0,0,0-.09,0c-.51,0-.72-.09-.77-.5h0c-.48.55-.74,0-1.09-.17l0,0a.07.07,0,0,0,0-.06,2.38,2.38,0,0,0-.75-.15c-.15,0-.14,0,0,.18a.16.16,0,0,1-.09.26.85.85,0,0,1-.73-.14c-.27-.28-.12-.56,0-.79s.33,0,.4.1.27.16.45.1,0-.3-.22-.4-.11-.17,0-.2.29,0,.42,0,.41-.1.49.08-.27.11-.39.18c.06.2.06.2.23.15a5.25,5.25,0,0,1,.8,0c0-.1-.33-.24,0-.31a1.16,1.16,0,0,1,.75.17c.2.11,0,.17-.1.22s-.08.17.06.21a3.71,3.71,0,0,0,1.24.08c.15,0,.06-.12,0-.19a1.48,1.48,0,0,1-.79-.32c-.07,0-.16-.08-.1-.16.29-.35,0-.34-.39-.34a2.09,2.09,0,0,1-.78-.12.46.46,0,0,0-.36,0,.57.57,0,0,1-.82-.14.17.17,0,0,0-.25,0c-.12.12-.28.06-.43,0a.79.79,0,0,0-.73-.06.25.25,0,0,1-.19,0c-.28-.23-.54-.11-.8-.05.32.2.74.36.32.71-.15.13.09.29.28.37.35.16.27.28,0,.4a2.7,2.7,0,0,0-.33.22.51.51,0,0,1-.77,0,.68.68,0,0,0-.61-.19,2.89,2.89,0,0,1-2.13-.38c-.07-.05-.19-.09-.23,0-.16.24-.65.18-.79.45.38.15.79,0,1.17.17.13.05.31.05.3.18s-.17.09-.29.08-.14,0-.16,0c-.45.56-1.24.18-1.88.22s-1.37,0-2.06,0a1.31,1.31,0,0,1-.83-.27c-.23-.2-.5-.06-.74-.1-.65-.11-1.3-.11-2-.18a7.59,7.59,0,0,0-1.28.08.87.87,0,0,1-.61-.11,2.35,2.35,0,0,0-.83-.31c-.21-.05-.51-.09-.51-.3s.28-.29.47-.26c.44,0,.74-.19,1.16-.09,0-.06,0-.1,0-.11-.45-.15-1-.17-1.17-.64,0-.1-.39-.05-.59,0s-.27,0-.37,0-.54-.11-.56.06a.65.65,0,0,0,.43.53c.6.21.16.45.11.61s-.3.3-.72.26c-1.58-.19-3.16-.35-4.73-.62a2.08,2.08,0,0,0-.74,0,.89.89,0,0,1-.84-.21c-.19-.18-.35-.15-.39,0s-.11.16-.28.14c-1.1-.16-2.19-.09-3.28-.22a9,9,0,0,1-1.91-.39.53.53,0,0,0-.2,0,4.27,4.27,0,0,1-1.87-.25h-.16a5.13,5.13,0,0,1-2.94-.35,1.18,1.18,0,0,0-.67-.05.73.73,0,0,1-.79-.18c-.1-.11-.3-.24-.42,0s-.62.17-.92.16a.75.75,0,0,1-.65-.38c-.11-.31-.3-.35-.55-.16s-.48.09-.75,0-.37-.16-.45.12-.38,0-.56.08-.23-.13-.33-.12c-.38,0-.71,0-.88-.33-.39.3-1,.06-1.44.13a.22.22,0,0,1-.16-.09c-.06-.16.19-.12.28-.22l0,0A2.24,2.24,0,0,0,59,158a1,1,0,0,1-1,.2,4.85,4.85,0,0,0-1.75-.07c-.44.07-.8-.27-1.23-.35,0,.34-.41.46-.91.23-.17-.07-.3-.21-.52-.19a2.63,2.63,0,0,1-1.18-.06c-.12,0-.25-.12-.32,0s0,.32-.26.21-.15-.25,0-.37c-.46-.1-.27-.26-.14-.42a3.13,3.13,0,0,0-1.14,0c-.06,0-.19,0-.19,0,0,.43-.46.21-.76.23-.68,0-1.39,0-2.08,0A.51.51,0,0,1,47,157c-.06-.15-.12-.33-.41-.16a.19.19,0,0,1-.23-.06.63.63,0,0,0-1,0,1.45,1.45,0,0,1-1.22.11,2,2,0,0,1-1-.48s0-.1,0,0c-.16.33-.32,0-.39-.05-.49-.32-.53-.32-.66.14a3.84,3.84,0,0,0-.58-.28c-.16-.06-.42-.21-.48.07,0,.12-.16.06-.29,0a16.57,16.57,0,0,0-2.22-.49.75.75,0,0,1-.44-.23c-.36-.48-.66-.2-.92,0s-.33,0-.45,0A2.06,2.06,0,0,1,35,155.2c-.13-.11-.28.09-.46.1a8.61,8.61,0,0,1-2.85-.27l-.16,0a26.87,26.87,0,0,1-3-.36c-.62-.07-1.28-.09-1.91-.18-1-.14-2-.23-3-.33a11.28,11.28,0,0,1-4.32-1.36c-.87-.47-1.65-1-2.47-1.52a.67.67,0,0,1-.27-.29,2.24,2.24,0,0,1-.36-1.53c.09-.38-.34-.77-.33-1.18l.93-.07.6,0h0l.07,0a.74.74,0,0,1,0-.83.47.47,0,0,1,.06.15.16.16,0,0,0-.06-.15,3.27,3.27,0,0,0-.56-.09c-.82-.05-.83-.07-.83-.71.05-.23-.21-.25-.4-.29a7.83,7.83,0,0,1-1.22-.35c.44-.24.8,0,1.16.11a.59.59,0,0,1,.17,0c.14,0,.3.1.4,0a7.24,7.24,0,0,1,1.17-.36s0-.09,0-.1c.38-.16.25-.33,0-.52h0s-.05,0-.08,0c-.27,0,.14.39-.21.3s.09-.25-.05-.39l-1.17-.13c-.1,0-.26,0-.27-.1,0-.24-.22-.27-.48-.27a.26.26,0,0,1-.25-.13c0-.1.08-.12.17-.16a2,2,0,0,1,1.5.18s.11.06.14.05a5,5,0,0,1,1.71.24c.2,0,.45,0,.45.28s.11.11.22.14l1,.19c-.11.08-.28.07-.32.18.76.13,1.53.16,2.3.32a1.54,1.54,0,0,0,1.31-.35s.1-.16-.11-.13a.73.73,0,0,1-.46-.05,7.41,7.41,0,0,0-1.41-.14,2.1,2.1,0,0,1-1-.21,2.37,2.37,0,0,0-1.26-.18c-.26,0-.43-.08-.29-.32s0-.38-.38-.3a.4.4,0,0,1-.51-.24h0c-.31,0-.56-.28-.9-.18,0,0,0,0,0,0-.33-.12.12-.43-.38-.56s-.24-.38-.18-.59a6.55,6.55,0,0,1-1.17-.23h0c-.31.24-.54.06-.76-.14h0c-.35-.08-.85,0-.95-.39v-.15a.15.15,0,0,0-.09,0c-.45-.05-.9.1-1.35-.12-.11-.05-.29-.08-.24-.22s.18-.14.32-.13a1.09,1.09,0,0,1,.37,0,1.55,1.55,0,0,0,1.14,0,3.54,3.54,0,0,1,1.34-.05c.52-.12,1.09.22,1.59,0,.11-.14.37-.07.48-.15s.71-.13.15-.42c-.53-.56-1.55-.78-1.92-1.45a2.13,2.13,0,0,0-.87-.19,7.65,7.65,0,0,1-2.31-.38,4.74,4.74,0,0,0-1.45-.22A4.37,4.37,0,0,1,9,138.09a17,17,0,0,1,2.13-.19,17.87,17.87,0,0,1,3.5.09c.53.06.31-.31.51-.44a7.21,7.21,0,0,1,.08-1.47c0-.1-.07-.17-.14-.25s-.21-.18-.15-.28c.28-.44-.11-.82-.47-1.26a1.09,1.09,0,0,1,.57.43.74.74,0,0,0,.75.3.36.36,0,0,0,.3-.5c-.18-.38.44-.58.19-1,.68-.08.15-.66.56-.85.1-.05.08-.17,0-.25s-.14-.31-.08-.49c.11-.35.26-.5.77-.23.25.13.88,0,.95-.24s.17-.29.45-.36a19.58,19.58,0,0,0-3.15-1c-.56-.07-1.12-.17-1.69-.24a19.1,19.1,0,0,1-2.6-.68c-.17,0-.39,0-.46-.15s-.28-.19-.46-.23c-.73-.16-1.11-.56-1-1.1,0-.08,0-.14-.11-.19s-.22-.18-.08-.29a.23.23,0,0,0,.08-.13.59.59,0,0,1,0-.13L9.33,127c-.06-.07,0-.11.05-.15,0-.21.21-.34.56-.47a1.32,1.32,0,0,1,.53-.1c.29-.56,1-.63,1.71-.79a6.08,6.08,0,0,0,1-.3,18,18,0,0,1,5.5-1.21,21.51,21.51,0,0,1,4.71-.39,29.79,29.79,0,0,1,3.41,0l.41,0a3.66,3.66,0,0,1,1.29-.13,24.33,24.33,0,0,1,2.57-.09c2.25-.08,4.51-.17,6.76-.23a31.24,31.24,0,0,1,4.2.25,6,6,0,0,0,1.7.25c.17,0,.56.06.42-.27,0-.09.14-.07.24-.06l.64,0c-.54-.15-1-.53-1.63-.48-.34,0-.5-.36-.77-.47-.45-.19-.39-.33-.17-.53a.8.8,0,0,1,.92-.35.2.2,0,0,0,.26-.13s-.15-.09-.23-.15a1.21,1.21,0,0,0-1.06.14.55.55,0,0,1-.54,0c-.38-.26-.82-.14-1.24-.26a2,2,0,0,0,1,.68c.13,0,.32,0,.26.18s-.13.26-.34.16a13.74,13.74,0,0,0-1.92-.58,7.74,7.74,0,0,0-1.92-.42c-.37,0-.68,0-.83-.35a.24.24,0,0,0-.13-.13A6,6,0,0,0,35,120.4a2.4,2.4,0,0,1-1.3-.2c-.73-.3-1.52-.48-2.26-.76-.41-.15-.7-.46-1.24-.45a3.43,3.43,0,0,1-2-.51c-.09-.06-.34,0-.5,0a3.66,3.66,0,0,1-1-.34,1.21,1.21,0,0,0-1.21,0,2,2,0,0,1-1.24,0,13.26,13.26,0,0,1-1.53-.41.92.92,0,0,0-.69,0,1.61,1.61,0,0,1-1.21-.09,7.24,7.24,0,0,0-1.81-.33,7.67,7.67,0,0,1-3.25-.75c-.62.06-1.13-.39-1.74-.34a3.32,3.32,0,0,1-.89-.15c-.24-.06-.43-.16-.25-.44s.36-.55.08-.91-.17-.46.35-.52c.68-.08.76-.23.48-.51a.47.47,0,0,0-.37-.11c-.25,0-.31-.15-.41-.28s0-.22.14-.28.27-.13.23-.26c-.11-.39.17-.64.45-.9a1.45,1.45,0,0,0,.52-1.13c0-.38.47-.61.49-1-.24,0-.41.24-.7,0a.93.93,0,0,1-.09-.93c0-.1.14-.06.25,0-.21-.09-.38-.33-.65-.35a8.44,8.44,0,0,0-1-.12c-.42,0-.67-.16-.69-.57,0-.17,0-.25-.21-.23s-.41.16-.51-.16.06-.4.26-.5c0,0,0-.07,0-.17a2.8,2.8,0,0,1-2.65-.47h0a2.91,2.91,0,0,1-2.55-.94,1.42,1.42,0,0,0-.25-.13,2.33,2.33,0,0,0,.61-.17c.8-.5,1.61-.11,2.42.13.09,0,.16.09.12.15-.33.51.35.47.46.74l.45.25a4.21,4.21,0,0,0,.94-.06c.36-.08.78-.2,1,.37,0,.09.22.18.34.19.31,0,.61,0,.79.37a.16.16,0,0,0,.19.08,3,3,0,0,1,2,.62,6.63,6.63,0,0,0,1-.39c-.19-.09-.39-.16-.46-.41s-.25-.22-.42-.26a3.66,3.66,0,0,1-1-.44,9.45,9.45,0,0,0-1.07-.08c-.62,0-.56-.06-.54-.49l0-.2a4.21,4.21,0,0,1-.77-.56h0a.64.64,0,0,1-.65-.57c-.09-.4.3-.31.5-.41a2.17,2.17,0,0,1,.53-.1,1.85,1.85,0,0,1,.33-.21c-.44-.09-.55-.3-.28-.62,0,0,.09-.07.08-.1-.23-.65.51-1,.6-1.61l-.74-.2a.74.74,0,0,1-.69-.18c-.16-.15-.56-.31-.06-.5.15-.06,0-.2,0-.29s0-.4.34-.4.33-.31.47-.52a.56.56,0,0,0,0-.12c-.12-.26-.11-.37.06-.43a.46.46,0,0,0-.38-.37c-.18,0-.27-.15-.15-.32a.43.43,0,0,0,0-.64c-.14-.14,0-.19.12-.19s.45-.24.38-.36c-.33-.54.11-.92.1-1.39h0c-.56.09-1-.29-1.57-.4-.16,0,0-.11,0-.18a2.32,2.32,0,0,1-.36-.16c-.11-.06-.29-.09-.26-.25s.16-.13.26-.14c.62-.07.41-.3.08-.56h0a3,3,0,0,1-1-.17c.8-.32,1.58-.27,2.22-.57a.64.64,0,0,1,.64-.32,4.7,4.7,0,0,0,1.44-.09.71.71,0,0,1-.21-.83l-.1,0c-.53-.21-1.17,0-1.63-.48l-.57-.26c-.43,0-.41-.37-.6-.57a1,1,0,0,1-.71-.23c-.2,0-.4,0-.58-.12l-.31-.06c-.2,0-.43.09-.56-.14s.13-.36.2-.53a1.62,1.62,0,0,1,1.26-1,1.21,1.21,0,0,1,.38,0,.16.16,0,0,0,.1,0c-.12-.15-.36,0-.46-.24a21.11,21.11,0,0,1-5.66-2.37,2.46,2.46,0,0,1-1.5-1.66c-.1-.46-.52-.89-.64-1.39,0-.15-.15-.31-.09-.43.25-.51-.09-.51-.46-.53L.3,81.63c-.12,0-.29.05-.27-.17s.16-.09.26-.08l2.06.21c0-.31-.23-.53-.24-.8s-.27-.21-.46-.23A4.12,4.12,0,0,1,0,80.31l2.24.09c.22,0,.55.16.54-.2s0-.69-.51-.74a11.74,11.74,0,0,1-1.4-.34A.66.66,0,0,1,1.64,79a.55.55,0,0,0,.59,0c.13-.12-.21-.38,0-.55A1.14,1.14,0,0,0,1.7,78.26Zm8.6,10.65h0v0Zm3,6.79ZM15,108.8a2.48,2.48,0,0,0-.47,0,.36.36,0,0,1-.23,0h.06A1.12,1.12,0,0,0,15,108.8Zm121.16,55.4h0Zm2.17-1.16v0h0Zm50.43-7.72s0,.05,0,0h.07Zm-8.55,0a1.79,1.79,0,0,0,.61,0ZM175,157.21Zm-2.46.36a.55.55,0,0,0,.6-.06h0a.13.13,0,0,1-.1-.07C172.89,157.48,172.63,157.39,172.53,157.57Zm-.23-.8Zm-2-.39Zm-3.6,2.88h0Zm0,0h0Zm-.12.2h0Zm-.55-1.8h0Zm-1.5-1.26h0Zm-.39,5.38.14.05.16,0c.23.06.46,0,.69.1h0c.37,0,.41.12.31.45.19.1.34.22.52.32s.09,0,0,0h0c-.13-.08-.19-.15-.1-.25s0-.05,0-.08h0c0-.12-.07-.3.28-.24.12,0,.09-.08,0-.15h0c-.29-.1-.19-.21-.06-.34-.58.23-.78-.34-1.24-.38v0h-.08a.44.44,0,0,1-.44.28C164,161.57,164,161.67,164.1,161.78Zm-.39.83c.13-.06.13-.19.23-.26h0v0C163.68,162.33,163.66,162.45,163.71,162.61Zm-.41-7.36h0Zm-1.79-.09h0Zm-1.52,4,0,0h0Zm-.25-9.22,0,0h0Zm-1.08.28h.06a.12.12,0,0,0,0-.11A.44.44,0,0,0,158.66,150.17Zm-.43,6Zm-2.14-6.73v0h0Zm-.76-.36h0S155.31,149,155.33,149.06Zm21.11-1.45h0Zm-.21-.51a.58.58,0,0,1,0,.1l.11,0C176.29,147.18,176.24,147.14,176.23,147.1Zm18.94-5.44h.05l-.05,0Zm-1.11-.22h0l0,0Zm5.87-1.84v0Zm-9.33-11.24h0Zm12.65-9.5h0Zm-2,0,.16,0,0,0a.53.53,0,0,1-.12,0ZM192.89,105l.15,0c0-.06-.06-.13-.12-.07Zm-3.4,22.7h0S189.5,127.65,189.49,127.66ZM187,103.23h0Zm-4.77,2h0Zm-1.11,23.25h0ZM180,105.21h0Zm-1.85-11.65h.11C178.2,93.5,178.17,93.52,178.16,93.56Zm26.28-7h0Zm-4.48-1h0Zm-9.35-3.26a.73.73,0,0,0,.31.14l.38,0a8,8,0,0,1,.85.19c.1,0,.21.13.26.1l.11,0s0-.07,0-.12c-.1-.25.28-.19.38-.35l-.08-.06h-.16c-.22,0-.49-.31-.65.07,0,.07-.15,0-.26,0l-.08,0a1.1,1.1,0,0,1-.57,0h-.12A1.19,1.19,0,0,1,190.61,82.29Zm2-32.55Zm-4-1.35a.45.45,0,0,1,.12.06c.13,0,.15,0,.14-.1l-.19,0Zm-5.78,43.46s0,0,0,.05l0-.05Zm-9,1.71Zm-.1-48c.43.58.91.17,1.37.17.14,0,.18-.12.23-.22s.08-.18.12-.27l-1.55-.07C173.93,45.27,173.91,45.39,173.7,45.56Zm-2,47.29ZM171,45c0,.51.29.71,1.13,1,.09,0,.18.08.27,0-.07-.57-.59-.37-.89-.56,0,0-.08,0-.09-.06-.06-.19.07-.28.18-.39Zm-1.86,48h0Zm5.35-51.3h0Zm-9.74,104.7h0l0,0Zm1.45.23a.14.14,0,0,0-.15.1Zm.17-1.31,0,0h0Zm8.39-1.07c-.08-.1-.22-.06-.33-.1h0a.44.44,0,0,0-.62.3c-.06.13-.06.28-.35.16a2.14,2.14,0,0,1-1-.15c-.36-.1-.62-.21-.33-.5a1.17,1.17,0,0,0-.41-.1l0,0c0,.12-.18.1-.28.14l0,0c.21.35-.17.29-.42.33h-.19s0,.06,0,.11,0,.21-.12.27a.23.23,0,0,1-.25,0c-.13-.12-.07-.21.06-.29l0,0a.75.75,0,0,0-.62.24c-.15.21-.51.13-.8.13h-.07a.38.38,0,0,1-.19.11h0a.27.27,0,0,0,.29.11,1.77,1.77,0,0,1,1.13.23c.18.1.42.06.61.15l.06.06h0l0,0s0-.06.06-.08a.7.7,0,0,1,.63,0h0c.48,0,.79-.35,1.32-.21h0a.55.55,0,0,1,.53,0,1.19,1.19,0,0,0,.75,0l0,0,.31-.12c.14-.16-.08-.38.1-.54Zm.79,2.8a.47.47,0,0,1-.05-.28,1.53,1.53,0,0,1-.11.27A.22.22,0,0,1,175.56,147.06Zm.31.15s0,.09,0,.12a.84.84,0,0,0,.28.15c-.07,0-.1-.11-.05-.19h0A.18.18,0,0,0,175.87,147.21Zm1.86-3.15a1.51,1.51,0,0,0-.73-.32c-.16.1-.28,0-.43-.05-.31-.09-.63-.11-.73.18.35.16.83.15,1,.47.13.15,0,.35.28.49.16.08,0,.22-.21.24s-.45,0-.48.17a.29.29,0,0,1,.16.17c.32,0,.59-.11.61-.4,0-.07.07-.11.17-.1l0,0h0c.07-.14.32.09.4,0h0l-.39-.29.23-.1C178,144.4,178.21,144.35,177.73,144.06Zm4-2.1h0Zm3.55-8.43s0,0,0,0Zm1.41-.53h0Zm2.28,8.44v0h-.06Zm.93.21,0,0h0ZM182,131.79a.15.15,0,0,1,.06.09c0,.15-.2.14-.33.17s-.24,0-.23.17.13.18.28.21.39,0,.46.18h.07l.37-.17s0,0,0-.06a.05.05,0,0,0,0,0c.13-.12.22-.28.5-.06s.17-.05.25-.09a.2.2,0,0,1,.23.05c.06.07,0,.15-.06.14s-.27.22-.51.2h0l.06,0a.49.49,0,0,0,.7-.06.3.3,0,0,1,.4-.14.16.16,0,0,0-.06.09l.09-.06c0-.12.17-.13.32-.11l.11,0a1.29,1.29,0,0,1,1.22.5h0a10,10,0,0,1,2.61.07.49.49,0,0,1,.25.07.92.92,0,0,0,1.08.06.73.73,0,0,1,.88.11h0a.43.43,0,0,1,.2.07h0c0-.17.24-.14.4-.13a1.63,1.63,0,0,0,.62-.08,3,3,0,0,0-1.3-.3c-.39-.05-.46-.07-.53-.28h-.09a1.92,1.92,0,0,1-1.34,0,3.4,3.4,0,0,0-.78-.1,1.55,1.55,0,0,0-.31,0,2.77,2.77,0,0,0-.56.11c-.26.1-.39-.1-.57-.23l-.16,0-.06-.06h0l0,0v0a.63.63,0,0,1-.51.11,15.64,15.64,0,0,1-2.63-.41l-.15,0a1.15,1.15,0,0,0-.66-.05A.81.81,0,0,1,182,131.79Zm-13.3-3c.09.11.2.06.29,0a.26.26,0,0,1-.2,0h0Zm-.15-80.63h0Zm-2.5-4.78a.91.91,0,0,1,.29.1.17.17,0,0,0,0-.11h-.32Zm-.54.29a.49.49,0,0,1,.3-.29h-.23C165.69,43.43,165.58,43.5,165.55,43.62Zm-2.27.79a.27.27,0,0,0-.1.34c.07.13.17.26.36.23.37-.06.68-.3,1.12-.16.16,0,0-.18.07-.24s.05-.3-.14-.38-.48-.2-.05-.34a.13.13,0,0,0,.07-.22c-.07-.1-.2-.21-.17-.29h-1.05a.21.21,0,0,1,0,.06c.05.14-.35.13-.08.33C163.65,44.1,163.65,44.13,163.28,44.41Zm-1,84.81.63.11a2.56,2.56,0,0,0,.78,0,2.34,2.34,0,0,1,1.2.09l.16.05a3.81,3.81,0,0,1,1.07.33l.07.06h.1a1,1,0,0,1,.85,0,3.05,3.05,0,0,1,1.27.2,3.65,3.65,0,0,1,.41.56l0,0a.8.8,0,0,0,.72.21,1.39,1.39,0,0,1,.83-.47,1,1,0,0,1,.66.06,2.65,2.65,0,0,0,1.33.21,3.06,3.06,0,0,1,1.67.3c.43.25,1,.14,1.49.32l.21.09h0c.4-.09.8.14,1.2.1h0a4.15,4.15,0,0,1,2.13.1h0l.14,0a1.44,1.44,0,0,1,1.49.52c.34-.06.23-.53.75-.44l.16,0a.62.62,0,0,0,.2,0,2,2,0,0,1-.34-.13.78.78,0,0,0-.26,0,8.85,8.85,0,0,1-3-.37,4.07,4.07,0,0,0-1.15-.1,2.09,2.09,0,0,1-.92-.17,6.6,6.6,0,0,0-1.72-.3,7.07,7.07,0,0,1-1.52-.23l-.13,0-.46-.06a.47.47,0,0,0-.16,0,.83.83,0,0,1-.73-.14l-.1,0-.45-.07a1.65,1.65,0,0,1-.32,0,2,2,0,0,1-.26-.06l-.2,0a4,4,0,0,0-1.24-.08c-1.81-.23-3.63-.53-5.45-.77-.22,0-.48-.05-.71,0Zm4-93.62h.1C166.26,35.56,166.23,35.57,166.22,35.6Zm23-6.42h0Zm-4-.4h0Zm-8.46-1.67a.65.65,0,0,0,.28.08h.34a6.31,6.31,0,0,1,.76.07c.09,0,.2.08.24.06l.09,0a.59.59,0,0,0,0-.08c-.1-.17.24-.15.32-.27l-.07,0-.14,0c-.2,0-.45-.18-.57.09,0,.05-.14,0-.24,0l-.07,0a1.39,1.39,0,0,1-.5,0H177A1.35,1.35,0,0,1,176.72,27.11Zm-6.44,7,0,0,0,0Zm6.63-29.52ZM162.35,35.87h0Zm-1.66,91.91,0,0v0Zm-.22-92.27Zm-1.65,112.8s0,0,0,0v0Zm-.15-1.06h0Zm-.48-111.48h0Zm-1.71,112h0ZM155.47,5h0Zm-.78,155.83h0Zm-.17-.34Zm0-2.18h0v0Zm-.49-8.6h0Zm-.93,9,.05,0h0A.1.1,0,0,0,153.06,158.68Zm-.37-9.63h0Zm-2.79,9.45h0Zm-.31-.48h0l0,0,0,0Zm-.16,2h0v0Zm-10.68,1.73a.05.05,0,0,1,0,0h0Zm.46,0s0,0,0,0,0,0,0,0h0Zm1.68.27a.6.6,0,0,0-.26,0A.72.72,0,0,0,140.89,162Zm3.11.08h-.08l0,.08v0C144,162.19,144.08,162.15,144,162.09Zm.19-.56h0Zm4.87-4.86h0Zm-.61.78Zm-.29-.27v0h0Zm-2.24,3.33a1,1,0,0,0-.24.05,1.27,1.27,0,0,1-.43.35c-.36.05-.27.34-.42.5a.53.53,0,0,0-.44.23l0,.08c.16.39.45.11.68.12a.4.4,0,0,1,.47-.21v0s0,0,0-.06a1.79,1.79,0,0,1,1.22.3l0,0,.13-.11a3.36,3.36,0,0,0,.29-.24.24.24,0,0,1,.26-.08c.14.05.05.13,0,.2s.22.16.16.27h0v0l.05,0c.27.18.13.27-.06.35h0c.3.18.7.18,1,.33h0a.15.15,0,0,1,.13,0c0-.07,0-.11.07-.13l0,0c-.19,0-.41,0-.56-.12-.48.17-.19-.15-.28-.23l0,0c0-.17.28-.08.4-.14v0s0-.05,0-.07.37-.14.18-.35a1,1,0,0,0-.86-.29c-.1,0-.25.11-.3,0s-.11-.26,0-.36a.34.34,0,0,1,.14,0c.4,0,.05-.4.41-.35s.07.29.4.37a.61.61,0,0,0,.27,0,.57.57,0,0,0,.12-.18h0c-.42,0-.26-.16-.23-.29a2.05,2.05,0,0,0-.78-.07.4.4,0,0,1-.39-.18c-.07-.14.11-.2.21-.21.34,0,.55-.5,1-.09h.05l0-.06c0-.26.14-.53-.11-.79-.16,0-.23.07-.34.13s-.31.15-.43-.07a.26.26,0,0,0-.15-.13h0a1.23,1.23,0,0,0-.44.09,5.29,5.29,0,0,1-2.46-.15h-.26a.51.51,0,0,0-.14.43h.18a.41.41,0,0,1,.59-.07c.14.11.31,0,.39.16h.26c.15,0,.38-.14.41.09s-.23.15-.39.15a4,4,0,0,1-.47-.05l-.15,0c-.12,0-.21-.2-.34-.11s.11.18.15.27a2.29,2.29,0,0,0,.78.06.77.77,0,0,1,.51.18C146.51,160.38,146.43,160.48,145.92,160.51Zm-2.54.62s0,.05,0,.06h.08a1.12,1.12,0,0,0,.22.1,1.17,1.17,0,0,1,.49.11c.1-.14,0-.32.15-.45v-.12c-.15-.44-.28,0-.43,0-.13.1-.15.33-.44.26h0l-.06,0Zm-4.91-.3,4.58.81s.07-.08.09-.12,0-.32-.13-.46c-.3,0-.58,0-.72-.24s0-.36-.34-.41-.43-.17-.63,0c.07.15.25.35-.18.26-.21,0-.12.17-.29.14-.37,0-.65-.26-1-.22A9.63,9.63,0,0,1,138.47,160.83Zm-3.54,2.38s0,.1,0,.14A.32.32,0,0,0,134.93,163.21Zm.25-.91a.29.29,0,0,0-.12-.07s0,0,0,0Zm1.62-2h0v0Zm-1.21,2a.12.12,0,0,0-.08,0l1,.18h.11a.46.46,0,0,1,.14.05l1.12.21c-.23-.06-.15-.18-.19-.31l-.28,0a.16.16,0,0,1-.14,0v-.07l-.72-.13A.94.94,0,0,1,135.59,162.35Zm-.26-2.68Zm0,0Zm-.32-1Zm-.17,1.54.93.16c0-.19.14-.19.33-.22s.45.06.19-.18c-.18,0-.36.06-.54,0s-.2-.24-.26-.1S134.77,159.94,134.84,160.21Zm-.27-.05h0Zm-.64,2.49.63.13a.2.2,0,0,1,.14-.08s0,0,0,0l-.55-.09Zm-.54-2.69.35.06c-.07-.08-.16-.13-.35-.06Zm-.38-.1h0Zm-.08,2a5.29,5.29,0,0,0,.79.17c-.09-.07-.1-.16,0-.22h0l-.68-.15,0,.06C133.12,161.78,133.05,161.84,132.93,161.84Zm-.06.53s.08,0,.24.08l.08-.06-.32-.06Zm-3,1.26,0,0h0Zm0,.11a.37.37,0,0,0,.1.25C129.92,163.89,129.86,163.81,129.85,163.74ZM111,1.13h.1L111,1.06A.15.15,0,0,0,111,1.13Zm-2.07,158.56h0Zm0,0ZM108.11.37h0l0,0Zm-.35,1h0Zm-.05,0h0ZM91.82,1.15a1,1,0,0,1,.09.37h0c.38.08.78.08,1.16.17l.09,0c.07-.08,0-.16-.07-.24a.1.1,0,0,0,0,0,.38.38,0,0,1-.21,0h0A1.32,1.32,0,0,1,92,1.41a2.34,2.34,0,0,1,.81-.07c0-.05.07-.15,0-.16-.33,0-.67-.23-1,0Zm-3.6.55.06,0,0,0ZM64.74,4.94h0ZM56.35,7.33a1.13,1.13,0,0,0,.18,0C56.48,7.29,56.43,7.24,56.35,7.33ZM54,95.22H54l0,0ZM53.56,7.29h0l0,0s.08.11.18.09S53.58,7.35,53.56,7.29ZM53.14,7c.42,0,.39-.21.48-.37h-.1C53.66,6.86,53.29,6.85,53.14,7Zm-.73.63a1.49,1.49,0,0,1,.37.14v0c.15-.1.3,0,.42,0-.21-.1-.53-.06-.74-.21A.1.1,0,0,1,52.41,7.59Zm0,86.31,0,0v0Zm-1.87-2.1a.1.1,0,0,0,0,.09l.05-.08ZM42.74,11.42h0Zm-9.45,2.12c-.21-.11-.5,0-.7-.12-.08.16-.36.13-.53.26C32.51,13.67,32.89,13.58,33.29,13.54Zm1.31.08c0-.19-.28-.22-.41-.33h0A3,3,0,0,0,34.6,13.62ZM38.94,12h0Zm2-2.13h0l.05,0h0l0-.07Zm.08.38c.07,0,0,0,0,0a.16.16,0,0,1-.22-.1c0-.1-.06-.2.08-.24a.67.67,0,0,0-.22,0v0A.34.34,0,0,0,41,10.27ZM17,42.61h0Zm3,4.48ZM141.86,163.52l1.36.24a.58.58,0,0,1,.5-.06,7.66,7.66,0,0,0-2-.48l0,0C141.57,163.4,141.78,163.45,141.86,163.52Zm-.05,1c.25.2.74-.05.89.36a1,1,0,0,1,.66-.39l-1.43-.27a.86.86,0,0,1-.12.3Zm2,.54c.27.18.47,0,.66-.05s-.09-.18-.24-.23,0-.1,0-.12l-.56-.1C143.42,164.74,143.47,164.81,143.85,165.09Zm.44-.4.17,0A.29.29,0,0,0,144.29,164.69ZM211.69,93a2.19,2.19,0,0,0,.88.4c.39,0,.39-.36.49-.61s0-.42-.32-.47l-.5-.07c-.34,0-.7-.11-.86.2S211.53,92.84,211.69,93ZM9.86,92.12h.61c.14,0,.28,0,.34-.13s-.09-.22-.18-.31A1.26,1.26,0,0,0,9,91.48c-.12.07-.29.14-.25.31S9,92,9.12,92,9.69,92.1,9.86,92.12Zm195.88-.88c1.85.37,3.67.7,5.64,1A20.09,20.09,0,0,0,205.74,91.24Zm6.78,31.39a7.67,7.67,0,0,0-2.07-.16,4.76,4.76,0,0,0,2.06.49c.12,0,.26,0,.26-.14S212.64,122.65,212.52,122.63ZM194,80.92c0,.26.5.28.83.32s.63.08.63-.21-.41-.16-.63-.27a.14.14,0,0,0-.11,0C194.49,80.86,194,80.53,194,80.92Zm9.53,31a.2.2,0,0,0,.2.17,5.5,5.5,0,0,0,2.14-.24l-2.17-.08C203.59,111.77,203.54,111.82,203.54,111.93Zm-28-67.65-.11-.13c-.17-.22-.38-.4-.66-.29s-.07.48-.27.67c0,0,.09.19.22.21s.28,0,.25-.13C174.79,44,175.27,44.32,175.55,44.28ZM202,113.69a2.19,2.19,0,0,1-1.39.14.17.17,0,0,0-.22.17c0,.16.15.15.25.15l.75,0a1.07,1.07,0,0,0,.9.11c.13,0,.34,0,.33-.17s-.21-.18-.34-.24A.21.21,0,0,0,202,113.69Zm6.35-19.94a9.23,9.23,0,0,0-1.93-.28C208,94.05,208,94.05,208.36,93.75Zm-28.19-.07c-.06.17.16.18.26.2a1.9,1.9,0,0,0,.79-.17.25.25,0,0,0-.29-.25C180.67,93.49,180.29,93.31,180.17,93.68Zm10.51.71c0,.22.22.33.39.36a.34.34,0,0,0,.39-.29c0-.23-.25-.16-.38-.24S190.69,94.16,190.68,94.39Zm4.13-.21a4.68,4.68,0,0,0-.54.08c-.16,0-.32.14-.11.34.16.42.57.38.88.51C194.84,94.82,195.28,94.43,194.81,94.18ZM195,75.57c0-.13-.15-.2-.28-.18a.58.58,0,0,0-.51.39c0,.11.15.13.28.15S194.93,75.81,195,75.57ZM6.31,76.16c0-.25-.22-.09-.32-.16s-.44-.06-.43.19.23.2.36.2S6.29,76.33,6.31,76.16ZM186.62,46.71c-.14,0-.22.1-.2.25a.3.3,0,0,0,.32.25c.12,0,.23,0,.21-.18S186.82,46.72,186.62,46.71ZM172,44.29a.21.21,0,0,0,.24.18c.14,0,.19-.09.19-.21s-.08-.19-.25-.21S172,44.12,172,44.29Zm15.41,36.16a.53.53,0,0,0,.56.26.09.09,0,0,0,0-.16A.47.47,0,0,0,187.44,80.45Zm23.8,2.91a.17.17,0,0,0,0-.15.46.46,0,0,0-.59.07C210.83,83.37,211,83.5,211.24,83.36Zm2.53,3.81c-.11,0-.23,0-.22.15s.14.15.25.16.21,0,.23-.15S213.89,87.17,213.77,87.17ZM201.45,94c-.07.06,0,.13,0,.17a.37.37,0,0,0,.51-.1C201.79,93.94,201.62,93.89,201.45,94Zm-5-61.39c-.3,0-.63,0-.75.19s.15.29.3.35a2,2,0,0,0,.8.22c.35,0,.33-.26.4-.44s0-.29-.3-.3ZM16.73,44.84l.54-.05c.12,0,.25,0,.3-.1s-.09-.15-.17-.21a1.38,1.38,0,0,0-1.5,0c-.1.06-.25.12-.2.23s.23.13.37.14S16.58,44.84,16.73,44.84Zm129-43.1a1.06,1.06,0,0,1,1.11.15s.16,0,.31.05a.54.54,0,0,0,.56-.38c0-.22-.31-.19-.52-.2a3.55,3.55,0,0,0-1.49.1c-.14,0-.17.1-.14.19A.12.12,0,0,0,145.69,1.74Zm44.9,30.6c1.67.14,3.3.26,5,.31A23,23,0,0,0,190.59,32.34ZM30.46,15.7l0,.14c-.13.15-.56,0-.57.32,0,.1-.16-.14-.31-.13a1.59,1.59,0,0,1-.86.45,30.31,30.31,0,0,0-3.22.81.78.78,0,0,1-.54,0c.09-.09.27-.1.29-.22s0-.23-.27-.14a.78.78,0,0,1-.48.06c-.09,0-.19-.15-.13-.15.48,0,.62-.38,1-.41a.76.76,0,0,1,.15,0h.1c.29-.09.79.14.84-.3,0,0,.13,0,.17,0a.29.29,0,0,0,.42,0l.08,0c.44.43.74,0,1.09-.05a.89.89,0,0,0,.74-.3,2,2,0,0,1,1.3-.3C30.39,15.51,30.42,15.63,30.46,15.7Zm-2.56.64a1.45,1.45,0,0,0-.29,0l.2,0Zm40.29-14c-.12,0-.4,0-.31.21s.27.11.44.09l1.48-.15c.11,0,.28,0,.27-.1s-.2-.17-.32-.13a4.51,4.51,0,0,1-1.22,0A1.27,1.27,0,0,0,68.19,2.31ZM44,9.12c-.11,0-.1-.18-.19-.11a.73.73,0,0,0-.24.39c0,.09.13.13.27.09a9.7,9.7,0,0,0,1.43-.24c.49-.05.31-.22.11-.4h0c-.58-.18-.9-.1-1.13.27C44.22,9.23,44.11,9.12,44,9.12ZM59.62,4.53a13.48,13.48,0,0,0-2.22.07c-.13,0-.25,0-.23.13s.13.08.24.09A5.94,5.94,0,0,0,59.62,4.53ZM30.87,16a11.25,11.25,0,0,0,1.74-.39c.23-.22.63-.19.94-.3A10.93,10.93,0,0,1,36,14.84c.15,0,.36,0,.32-.15s0-.25-.36-.28a5.34,5.34,0,0,0-1.16.14c-.33,0-.68-.05-.9.18l-.49.1a1.12,1.12,0,0,0-.63.05c-.12,0-.31,0-.3.2s0,.29-.39.18q-1-.28-1.32.42c-.08.07-.13.17-.29.16C30.53,16,30.69,16,30.87,16Zm-.38-.17h0ZM60.27,2.89c.25-.05.13-.28.2-.41s-.09-.11-.12-.09c-.33.2-.76.1-1.19.14.14.12.29.13.35.23C59.68,3.07,60,3,60.27,2.89ZM180.42,26.13c.19-.05.56,0,.55-.18s-.38-.09-.57-.15a.17.17,0,0,0-.1,0c-.2.09-.66-.11-.63.16S180.12,26.13,180.42,26.13Zm9.25,20.55c0,.07.09.1.18.11a6.56,6.56,0,0,0,1.89-.3l-1.93.07C189.7,46.57,189.66,46.61,189.67,46.68ZM42.83,8.4c.31,0,.66.09.88-.14A.48.48,0,0,1,44.29,8c.1,0,.19,0,.15-.13-.27.09-.5-.29-.79-.07a1,1,0,0,1-.61,0c-.2-.07,0-.39-.33-.34s0,.28-.09.42a3.7,3.7,0,0,0-.48.06c-.13,0-.3.16-.19.19C42.25,8.2,42.38,8.63,42.83,8.4ZM65.27,4.34a4.57,4.57,0,0,0,1.12-.14A4.57,4.57,0,0,0,65.24,4a.22.22,0,0,0-.25.2C65,4.34,65.17,4.35,65.27,4.34ZM161,2.18c-.19-.4.25-.21.5-.26l-.11-.08a.57.57,0,0,0-.6-.16c-.26.09,0,.34-.2.48s.09.12.2.13S161,2.26,161,2.18ZM71.62,1.71c-.11-.1-.17-.25-.38-.21a.25.25,0,0,0-.21.33c0,.1,0,.18,0,.27A.45.45,0,0,0,71.46,2C71.54,1.9,71.82,1.89,71.62,1.71ZM61.27,5.26a.35.35,0,0,0,.34.29c.26,0,.21-.18.23-.29s0-.27-.24-.26S61.22,5.09,61.27,5.26ZM193.05,33.9a9.66,9.66,0,0,0-1.73-.07C192.71,34.13,192.71,34.13,193.05,33.9ZM38.46,13.47l-1.62.28,0,.1a5.46,5.46,0,0,0,1.63-.28Zm7.9-8.41a.24.24,0,0,0,.31-.18c-.09-.17-.3-.19-.5-.18s-.34,0-.3.18S46.18,5,46.36,5.06Zm.17,1.88c0,.12.13.19.32.19.49,0,.34-.26.38-.47-.17,0-.24.18-.45.12S46.49,6.81,46.53,6.94ZM146.09.76c.15-.12.22,0,.33.05s.28.16.46.08c0,0,0-.07,0-.09a.88.88,0,0,0-.42-.21,1.28,1.28,0,0,0-.26,0H146c-.13,0-.31.05-.27.16S146,.83,146.09.76ZM168,35.56c0,.13.15.12.25.13a2.25,2.25,0,0,0,.69-.17.22.22,0,0,0-.27-.15C168.44,35.41,168.1,35.31,168,35.56Zm9.37-.15c0,.16.21.22.36.23s.34-.11.34-.22-.23-.1-.35-.15S177.38,35.26,177.38,35.41ZM181,35a3.7,3.7,0,0,0-.48.09c-.14,0-.28.11-.08.24s.52.22.81.3C181.1,35.46,181.47,35.16,181,35Zm-.77-12.79c0-.09-.14-.13-.26-.11a.5.5,0,0,0-.43.3c0,.08.14.08.26.08S180.23,22.39,180.27,22.23ZM58.56,3.1c.11,0,.26-.08.2-.16a.6.6,0,0,0-.45-.3c-.1,0-.27.08-.21.11S58.27,3.11,58.56,3.1ZM79.15,1.19c.12,0,.18-.05.12-.15S79.39.7,79,.78c-.14,0-.37,0-.32.15S78.94,1.16,79.15,1.19ZM24.76,15c-.05-.09-.15-.09-.25-.08-.27,0-.44.1-.39.36.22-.05.34-.17.56-.15A.08.08,0,0,0,24.76,15Zm12.72-4.57c.15,0,.3,0,.29-.2a.21.21,0,0,0-.23-.17c-.18,0-.31.09-.31.24S37.34,10.47,37.48,10.45Zm-2.06.42c.15,0,.21-.13.19-.24s-.17-.14-.31-.13-.23.06-.2.16S35.26,10.85,35.42,10.87Zm-23,23.4c.14,0,.33-.06.33-.18s-.2-.05-.29-.08-.39,0-.38.15S12.34,34.28,12.46,34.27ZM149.6,1.16c.12,0,.24,0,.23-.15s-.27-.12-.43-.12-.21,0-.19.11S149.43,1.18,149.6,1.16ZM44.16,7.49c.17,0,.25-.12.25-.24s0-.15-.17-.16-.29.09-.29.22A.19.19,0,0,0,44.16,7.49Zm17.53-4.8c.11,0,.26-.09.32,0s.38.25.51,0-.3-.07-.36-.21a.16.16,0,0,0-.1-.08c-.29,0-.62-.16-.81.12-.06,0-.16.08-.11.13A.66.66,0,0,0,61.69,2.69ZM22.85,15.63c.16,0,.28-.09.26-.22s-.12-.11-.23-.1-.29.09-.3.2S22.72,15.62,22.85,15.63ZM68.5,1.91a.55.55,0,0,0-.63.28c.32-.07.58,0,.72-.17C68.63,2,68.57,1.92,68.5,1.91ZM171.55,3.25c.1,0,.2,0,.17-.13a.32.32,0,0,0-.3-.2c-.13,0-.2.08-.17.18S171.4,3.26,171.55,3.25Zm-19.71-2c.07,0,.07-.11,0-.16s-.34,0-.53.1A.47.47,0,0,0,151.84,1.23ZM45.89,9c.14,0,.3,0,.36-.13s-.15-.15-.26-.16a.21.21,0,0,0-.26.16C45.7,9,45.78,9.05,45.89,9Zm34.2-7.76c.13,0,.18,0,.17-.12S80.14,1,80,1s-.21,0-.2.12S80,1.24,80.09,1.27Zm76.21.5c.1,0,.19,0,.2-.13a.31.31,0,0,0-.31-.15c-.09,0-.16,0-.13.11A.25.25,0,0,0,156.3,1.77Zm2.27.48c.12,0,.16-.07.15-.15s-.08-.13-.23-.13-.18.06-.15.17S158.46,2.26,158.57,2.25ZM99.83.35c.12,0,.23,0,.27-.09S100,.13,99.89.12s-.24,0-.26.12S99.75.34,99.83.35Zm-35,3.88a.91.91,0,0,0-.68,0,.07.07,0,0,0,0,.12C64.39,4.41,64.55,4.31,64.83,4.23ZM173.82,26a.54.54,0,0,0,.5.15c.07,0,.08-.09,0-.12A.51.51,0,0,0,173.82,26ZM53.93,4.46c.12,0,.23,0,.27-.14a.28.28,0,0,0-.23-.1c-.13,0-.24,0-.23.15S53.84,4.46,53.93,4.46ZM36,10.69a.15.15,0,0,0,.18-.13.2.2,0,0,0-.23-.12c-.09,0-.16.05-.16.12S35.88,10.69,36,10.69Zm159.09,15.9s0-.09,0-.1a.53.53,0,0,0-.53.09C194.72,26.63,194.91,26.7,195.08,26.59ZM62.32,5.18s0,.1,0,.13.29,0,.44,0C62.64,5.2,62.49,5.08,62.32,5.18Zm22-4.82c.12,0,.15-.07.13-.17S84.4.07,84.28.1s-.14,0-.12.12A.18.18,0,0,0,84.35.36Zm113,28.81c0,.09.14.1.23.1s.19,0,.2-.12-.14-.1-.24-.1S197.31,29.07,197.33,29.17Zm-9.92,5.34a.53.53,0,0,0-.49,0c-.06,0,0,.1,0,.12A.4.4,0,0,0,187.41,34.51Z"/></g></g></svg>