<svg xmlns="http://www.w3.org/2000/svg" viewBox="0 0 203.1 217.63"><path d="M176.36 154.22c-12 13.1-31 26.14-52.3 35.46-43.82 19.18-97.4 22.55-120.1-22.2-12.55-24.72 8.28-37.23 15-59S4.48 66.7 12.45 44a32.57 32.57 0 0 1 11.31-15.44A32 32 0 0 1 48 22.61c7.28 1.17 14.15 4.06 20.93 6.94a335.6 335.6 0 0 0 33.37 12.62c19.93 6.06 39.78 4.77 59.8 9.24 10.73 2.4 21.22 7.18 28.68 15.26 25.4 27.46 7.05 64.2-14.4 87.55zm-25.24 45.63a20.36 20.36 0 0 0 10.3 14.87c7.1 4 16.88 3.7 24.07.14 6.47-3.2 11.47-9.53 12.37-16.7 2.3-18.23-19-25.43-33.28-20.3a21.13 21.13 0 0 0-13.46 21.98zm-28.95 2.8c.6 5.2 6.76 8.16 11.53 6.66 8.43-2.66 8.54-15.56-1.13-16.12-5.28-.3-11.07 3.72-10.4 9.46zM99.94 27.5a18.47 18.47 0 0 0 15.67 10.78c9.32.45 17.3-6.13 25.9-9.75 3.65-1.54 7.7-2.7 10.26-5.73 3.26-3.87 2.9-10 0-14.13C145.33-.52 129-1 118.9.84 106.2 3.1 93.7 13.28 99.94 27.5z"/></svg>