<svg xmlns="http://www.w3.org/2000/svg" viewBox="0 0 215.17 181.77"><path d="M207.16 128.05A96.23 96.23 0 0 1 195 144.49a109.83 109.83 0 0 1-34.7 25.24c-23.62 11-51.58 14.8-77.22 10A103.54 103.54 0 0 1 66 175c-19.5-7.3-36.93-20.47-48.1-38C5.75 117.9-7 88.1 4.46 66a37.71 37.71 0 0 1 3.19-5.1c14-18.9 42-6.2 60.52-5.32 5.44.25 9.27-.87 12.3-3 3.66-2.6 6.18-6.7 9-11.73.07-.15.16-.28.24-.42 5.35-9.3 14.26-16.7 24.85-19 14.07-3.06 30.3 2.4 38.33 14.65 3.26 5 5.1 10.75 7.63 16.14 9.72 20.72 35.35 17.92 48.86 34.24 10.34 12.46 5.1 29.07-2.22 41.6zM168.5 36.68a20.34 20.34 0 0 0 10.3 14.87c10 5.67 26 3.42 30.7-8.3 5.42-13.42-8.88-26.32-21.25-27.73-11.9-1.37-21.27 9.66-19.76 21.16zM38.37 29.54a20.35 20.35 0 0 0 10.31 14.87c10 5.67 26 3.42 30.7-8.3C84.8 22.68 70.5 9.8 58.14 8.38 46.24 7 36.87 18 38.37 29.54zm49.5-20.06c.6 5.2 6.76 8.15 11.53 6.65C107.82 13.48 107.94.57 98.27 0 93-.3 87.2 3.73 87.86 9.48z"/></svg>