<svg xmlns="http://www.w3.org/2000/svg" viewBox="0 0 214.96 184.87"><path d="M214.08 115a53.32 53.32 0 0 1-6.58 17.07c-24 40.2-82.65 55.95-125.93 43.27a101.49 101.49 0 0 1-69.26-68.13C5.78 86.17 6.67 63.45 16.76 45a64.66 64.66 0 0 1 19.36-21.71c13.26-9.46 31.9-4.68 46.13 3.23s33.7 15.26 49 20.94c19 7.08 39.88 8.95 57.75 19 10.67 6 20 15.2 24 26.8a42.51 42.51 0 0 1 1.08 21.73zm-90.63-92.24a20.34 20.34 0 0 0 10.31 14.88c9.93 5.62 36.6 2.43 35.67-13.3-.52-9-11.1-13.77-17-19-4.52-4-9.37-6.74-15.5-4.54a21.16 21.16 0 0 0-13.48 21.97zm53.16 22.06c.6 5.2 6.76 8.16 11.53 6.65 8.43-2.65 8.55-15.55-1.12-16.1-5.28-.3-11.08 3.72-10.4 9.46zM.1 171.37c1.16 10 13 15.63 22.1 12.75 16.14-5.12 16.36-29.8-2.2-30.86-10.1-.6-21.18 7.12-19.9 18.1z"/></svg>