<svg xmlns="http://www.w3.org/2000/svg" x="0px" y="0px" viewBox="0 0 512 512" style="enable-background:new 0 0 512 512;" xml:space="preserve">
<path fill="#c2175b" d="M159.3,289.1c7.6-25,5.4-48.9-4.2-74.1c-2.9-7.8-9.3-12.5-17.1-12.6h-0.7c-9.5,0.1-19,6.8-19,19.3
	c0,17.3,9.2,33.5,19.7,46.3C144.4,275.6,151.6,282.7,159.3,289.1z M138,294.7v38.7c0.1,22.6,18.4,40.9,41,41h154
	c22.6-0.1,40.9-18.4,41-41v-38.7c-25.7,25.3-83,54.3-118,55.2C222,349.4,163.6,319.9,138,294.7z M256,331.6c24,0,62.2-20,81-31.3
	c-8.5-25.2-9.9-51.8-1.4-79.1c-29.6-3.1-49.4-17.5-79.6-17.6c-30.2,0-50,14.5-79.6,17.6c8.4,27.2,7.1,53.8-1.4,79
	C190.1,309.3,229.9,331.6,256,331.6z M299.9,299.7c-38,17.8-49.6,17.9-87.6,0.1c-10.8-5.9-3.2-21.3,8.2-16.4
	c15.1,7.2,28.7,11.7,35.6,11.7c6.7,0,20.7-4.6,35.7-11.7C303.1,278.4,310.7,293.9,299.9,299.7z M210.2,232.3
	c15.8-5,29.1-10.4,45.8-10.4c16.6,0,29.9,5.4,45.9,10.4c4.7,1.4,7.5,6.1,6.5,10.9c-0.1,0.2-0.1,0.4-0.2,0.6c-1.5,4.8-6.6,7.5-11.5,6
	c-36.9-12.8-44.7-12.7-81.4,0l0,0c-0.2,0.1-0.4,0.1-0.6,0.2c-4.9,1.2-9.8-1.9-11-6.8C202.7,238.4,205.5,233.7,210.2,232.3z
	 M169.8,203.4c31.8-2.3,52.1-18.4,86.2-18.1c34-0.3,54.3,15.7,86.2,18.1c6.2-11.9,18.5-19.3,31.8-19.3c1.9-22.2-13.1-41.6-34.1-45.2
	c-4.1-0.7-8.2,1.2-10.3,4.8c-7.2,13.4-35.8,13.5-42.4-1c-1.3-2.7-4.1-4.4-7.1-4.4h-48c-3,0-5.8,1.7-7.1,4.4
	c-6.7,14.5-35.2,14.4-42.4,1c-2.1-3.7-6.3-5.6-10.5-4.8c-19.6,3.5-33.9,20.5-34,40.4v4.8C151.4,184.2,163.6,191.6,169.8,203.4z
	 M332,0H180C80.6,0,0,80.6,0,180v152c0,99.4,80.6,180,180,180h152c99.4,0,180-80.6,180-180V180C512,80.6,431.4,0,332,0z M412,332
	c0,44.2-35.8,80-80,80H180c-44.2,0-80-35.8-80-80V180c0-44.2,35.8-80,80-80h152c44.2,0,80,35.8,80,80V332z M374,202.4
	c-7.8,0.1-14.1,4.8-17.1,12.6c-6.2,16.4-8.9,32.2-8.9,43.5c0,11.2,2.4,22.5,4.7,30.6c18.3-15.1,41.2-40.6,41-67.4
	C393.7,208.9,383.8,202.2,374,202.4z"/>
</svg>