<svg xmlns="http://www.w3.org/2000/svg" viewBox="0 0 472.26 465.6"><path d="M472.26 232.8c0 13.5-17.87 25.25-20.12 38.1-2.32 13.2 10.42 30.36 5.94 42.68-4.57 12.54-25.4 17.48-32 28.88s-.57 32-9.07 42.12-29.78 7.7-39.92 16.22-11.37 29.86-22.9 36.52-30.5-2.95-43 1.6c-12.32 4.5-20.82 24.13-34 26.44-12.84 2.26-27.5-13.27-41-13.27s-28.15 15.53-41 13.27c-13.2-2.3-21.7-21.95-34-26.44-12.53-4.56-31.65 5-43-1.6s-12.76-28-22.88-36.52-31.4-6.07-39.92-16.22-2.58-30.6-9.24-42.12-27.4-16.34-32-28.88c-4.5-12.32 8.25-29.48 5.93-42.68C17.86 258.06 0 246.3 0 232.8s17.86-25.25 20.1-38.1c2.32-13.2-10.42-30.36-5.93-42.68 4.57-12.54 25.4-17.48 32-28.88s.57-32 9.08-42.12S85 73.32 95.16 64.8s11.37-29.86 22.84-36.5 30.52 2.95 43.05-1.62c12.33-4.48 20.83-24.13 34-26.44C208-2 222.63 13.5 236.13 13.5S264.28-2 277.13.22c13.2 2.3 21.7 22 34 26.44 12.54 4.57 31.66-5 43 1.62S367 56.3 377.1 64.8 408.5 70.87 417 81s2.4 30.6 9.07 42.12 27.42 16.34 32 28.88c4.48 12.32-8.26 29.47-5.94 42.68 2.26 12.87 20.13 24.63 20.13 38.12z" fill="#010001"/></svg>