<svg xmlns="http://www.w3.org/2000/svg" viewBox="0 0 252.5 170.17"><path d="M183.72 143.28l31.333-48.844.774.497-31.333 48.844zm22.55-15.14h46.23l-23.12-35.3-23.1 35.3zm-33.52-10.64l9.07 13.87 9.08-13.87h-18.15zM2.27 155.27h109.18l-54.6-83.4zm62.1-60.5l28.27 43.32-.78.5L63.6 95.3zm176.06-86.2H131.4l54.5 83.27 54.5-83.27zm-54.6 146.78h28.3l-14.15-21.63-14.16 21.63zM97.96 18.17H34.2l31.88 48.7 31.88-48.7zM26.5 26.34L0 66.8h52.97L26.5 26.34zM118.227.517l.767-.508 73.1 110.3-.767.508zM129.02 170.17L178.08 102 115.7 5.37 67.85 74.65l61.17 95.52zM77.77 1.47l-6.8 10.4h13.6l-6.8-10.4z"/></svg>