<svg xmlns="http://www.w3.org/2000/svg" viewBox="0 0 314.8 273.22"><defs><style>.cls-1{fill-rule:evenodd;}</style></defs><g id="Layer_2" data-name="Layer 2"><g id="Layer_1-2" data-name="Layer 1"><path class="cls-1" d="M314.23,179.5a1.64,1.64,0,0,0-1.33-.21,10.33,10.33,0,0,0-4.23,1l-.28-.09-.08.09a.32.32,0,0,1-.09,0c-.08-.73-.91-.84-1.21-1.39l-.53-.3-.42.15-.42.1a1.15,1.15,0,0,0-1,1.52c-.11.15-.22.31-.34.46l-.82-.17s0,0,0,0a1.06,1.06,0,0,0-.44-1.24l-.49-.07c-1.93.67-3.78,1.58-5.67,2.35l-.32.52-1.19.32a.58.58,0,0,0,0,.39h0v0l-2.11.49a1.84,1.84,0,0,1-1.2.77c-.89-.54-1.77-1.07-2.27.43a.7.7,0,0,0,.31.41l0,0h0l-.4.11c.3.94-.86.91-1,1.54-.08.31-.16.62-.23.94s-.23.87.34,1,.66-.28.7-.71a.72.72,0,0,1,.41-.58,2.61,2.61,0,0,0,.27.06.66.66,0,0,0,.15,0v0a1.94,1.94,0,0,0,.82,1.5,1.61,1.61,0,0,0,.84.3,1.19,1.19,0,0,0,.93-1,2,2,0,0,0-.09-1l.05,0a1.45,1.45,0,0,0,.54-.39,3.53,3.53,0,0,0-.08.58,2.9,2.9,0,0,0,.25,1.52,3.32,3.32,0,0,0-.74.71,2.15,2.15,0,0,1-.19.37l-.82.5v.06l-.15.05a2.45,2.45,0,0,0-.51.26l-.45.36a2.9,2.9,0,0,1-1.68.44.76.76,0,0,0-.67.39.85.85,0,0,0-.1.81,1.83,1.83,0,0,0-.26.21l-.05.06a8,8,0,0,0-3,1.55l-.52.15a5.05,5.05,0,0,0-1.35.9c-.72,1-2.23,1.23-2.68,2.54a1.23,1.23,0,0,0,0,.27,18,18,0,0,0-2.4,1.85l-.29.07a4.25,4.25,0,0,0-.52.27,4.94,4.94,0,0,1-.55.32l-1.09.29a.67.67,0,0,0-.12.48.64.64,0,0,0,.18.25,4.54,4.54,0,0,1-1.14.63c-.58.4-1.12.81-1.06,1.62l.06.09c-1.26-.36-2.14-.09-2.26,1.42l-.21-.11a5,5,0,0,0-2.3.86,4.51,4.51,0,0,0-2.07,2.47c-.06.27-.15.54-.21.81a.79.79,0,0,0-.25,0,1.58,1.58,0,0,0-1.13.44,7,7,0,0,1-3.64,3.73,1.44,1.44,0,0,0-.72,1.52,1.43,1.43,0,0,0,.16.3l-1.11.26c-.79-.14-.41-1.62-1.55-1.35,0,1.69-1.82,2.55-2,4.18l.2.16h0c-.83,0-.42.72-.6,1.08l.09.38a1.43,1.43,0,0,1-.14.2l-.1.14a3.19,3.19,0,0,0-1-1,1.12,1.12,0,0,0-.82-.17c-.09.95-1.11,1.44-1.18,2.39l-.09-.07c-1.29-.44-2.56-1.26-3.94-.21a1.14,1.14,0,0,0-.51.7,1.09,1.09,0,0,0,0,.25l-1,.28-.38.41-.08.11a7,7,0,0,0-1.86,1.35c-.72,0-1.22.23-1.1,1.09l-.4.07a.37.37,0,0,0-.48,0,1,1,0,0,0,0,.14l-.74.16a1.68,1.68,0,0,0-1,.41,1.58,1.58,0,0,0-.15.24,2.11,2.11,0,0,0-.79.46,1.23,1.23,0,0,0-.2,1.2s0,.06,0,.1a.42.42,0,0,1-.16-.26,16.47,16.47,0,0,0-3,1.42,1.08,1.08,0,0,0-.3.53,1.45,1.45,0,0,0,.07.62s0,0,0,0a2.43,2.43,0,0,0-2.19,1.93,2.33,2.33,0,0,0-.32.31,1.8,1.8,0,0,1-.19.21l-.84.2-.27.92h0a1.41,1.41,0,0,0-1.95.95v.05c-.39.13-.72.31-.72.79a1,1,0,0,0-.88.26c-.22.27-.45.53-.67.79v0a1.18,1.18,0,0,0-.1-.19,1.35,1.35,0,0,0-1.51.89l-.68.67c-.68.53-1.59.81-1.86,1.76h0c-.36.36-.72.72-1.07,1.09a.8.8,0,0,0-.22-.13A1.37,1.37,0,0,0,222,242l-1.09,1.14c-.23.49-.76.71-1.06,1.14h0c-.1,1.07,1,1.5,1.33,2.32-1.11-.19-1.07.57-1.19,1.21l-.12,0a1.57,1.57,0,0,0-.46.39.49.49,0,0,0,0,.11l-.49-.31c-1.77-.54-2.11.85-2.68,1.94h0c-.21.53-1,.2-1.15.74a1.1,1.1,0,0,0,.29,1.27c0,.29-.35.65.17.85.25,1.77,1.3.28,1.94.47l.72-.63c.45-1-.9-1.23-.9-2,.64-.35.84-1.72,2-.9-.37.31-.92.75-.71,1.14.33.64.94,0,1.43,0h0c.76,0,1.1-.52,1.39-1.09l.08,0a.4.4,0,0,0,.43-.24c.28-.11.47-.56.87-.21,1.1.46,2-.15,3-.53a1.2,1.2,0,0,0,0-.93,1.49,1.49,0,0,0-.12-.14c.37-.12.84-.08,1.11-.4a.9.9,0,0,0,.44-.28c.21-.51.89-.26,1.12-.72.63-.14,1.2-.35,1.16-1.17a2.92,2.92,0,0,0-.24-.37c0-.68.21-1.12,1.2-.77.13-.64.66-.83,1.17-1a.81.81,0,0,0,.12-.14l.64-.15a1,1,0,0,1,.24-1c1.71.12,2.66-2.08,4.52-1.49a.86.86,0,0,1,.68-1,.82.82,0,0,0,.15-.57,1.69,1.69,0,0,0-.88-1.07,1,1,0,0,0,.47-.52l.22-.05.93.24.4.24c-.62.56-1,1.17-.39,2,.05.13.1.26.16.39.7,0,1-.51,1.09-1.1a2.17,2.17,0,0,0,.35-.15,1.35,1.35,0,0,1,1.32-1.59,1,1,0,0,0,.22.42c.53.23,1,.23,1.22-.4,0-.44-.36-1,.55-1a2.79,2.79,0,0,0,2.26-.87l-.13-.27-.08-.06c-.06-.44-.13-.88-.19-1.32a.27.27,0,0,1-.08-.07h0l.06.07.78-.22h0c.6.59,1.15,1,1.32-.3a1.92,1.92,0,0,0,.36-.14h0a1.27,1.27,0,0,1,1.33-.24,1.37,1.37,0,0,1,.4-.09,1.5,1.5,0,0,0-.43-1.75h0l2,.53.73-.28a1.53,1.53,0,0,0,0-.37l1.26-.31c.47-.1,1-.1,1.21-.67.7-.91,2-.69,2.75-1.57a2.58,2.58,0,0,0,.39-.14l.48,0,.38-.18c-.15-.59.19-.84.67-1,.24-.33.47-.67.71-1l-.57-.35c-.16-1.11.29-1.48,1.17-1.31,0,.08,0,.15,0,.22,1,1.72,1.2.22,1.59-.43l.84-.19c1.22.76,1.7-.42,2.43-.93h0a1.9,1.9,0,0,0,1.65-.86l.36-.15c.22-.43.75-.83.17-1.36a.65.65,0,0,0,.07-.48,2.24,2.24,0,0,0,.38-.31,1.15,1.15,0,0,0,.14-.17.81.81,0,0,1,.67.65s0,0,0,0c.41.44.89.21,1.35.13.43-.46.94-.88.94-1.59l.12.07c.31-.34-.08-1,.57-1.23-.14.53-.28,1,.34,1.37a4.53,4.53,0,0,0,2.81-1.08c.13-.55.53-.75,1-1,1.64-.92,3.6-1.3,4.84-2.89a7.65,7.65,0,0,0,3.28-.92l.4-.44c.48-.68,1.31-.84,1.94-1.3l.81-.63.32-.42c.63-.71,1.81-.61,2.28-1.55A8.56,8.56,0,0,0,293,207.1h0l.34-.35h0a13.58,13.58,0,0,0,3.43-2.33c1.5.18,1.85-1.55,3.09-1.86a5.37,5.37,0,0,0,3.41-2.63h0a2.25,2.25,0,0,0,2.91-1.21c1.64-1.15,3.31-2.27,4.92-3.45.65-.47,1.88-.73,1-2,0-1.08.07-2.2-1.17-2.75-.51-.3-1,0-1.47.09a6.58,6.58,0,0,0-.94.61,3.65,3.65,0,0,0-.87.52l-.17.08a2,2,0,0,0-.38.38,1.19,1.19,0,0,1-1.18-.05,27.52,27.52,0,0,0-5.1,2.88c-.81.3-1.47,1-2.39,1a1.7,1.7,0,0,0-.29.46.76.76,0,0,1-.06.16c-.64.41-1.49.52-1.93,1.23l-1.67.4c-.15.1-.19.19-.13.28a.74.74,0,0,0-.26,0,3.42,3.42,0,0,0-2,.92,1.08,1.08,0,0,0-.28.61h0a1.08,1.08,0,0,0-.55.17.85.85,0,0,0-.2.23.75.75,0,0,0-.45.47l-.85.17-1.15.75c0,.14.06.28.08.42h0l-.36.07a2.25,2.25,0,0,0-.12-.21c-1.34-1.32-1.46.4-2.09.84a1.22,1.22,0,0,0-.19.83v0h0a46.49,46.49,0,0,1-6.29,3.86,14.92,14.92,0,0,0-3.21,2c-.8.58-1.73.93-2.52,1.53a1,1,0,0,0-.12.23,1,1,0,0,0-.77-.14l-.1,0-.15-.5a1,1,0,0,0-1.39-.44h0c0-.1-.05-.2-.07-.3l.16-.11a6.37,6.37,0,0,0,.63-1.35,1.66,1.66,0,0,0,1.66.58l.3-1.63c.34-.06.69-.07,1-.15a.82.82,0,0,0,.43-.34c.62-.28,1.66-.08,1.48-1.28,0-.13,0-.26,0-.39l1.22-.34c.53.27,1,.21,1.22-.38-.06-.39-.13-.77-.19-1.16.77.15,1.58.48,2.1-.48.11-1.38,1.32-1.45,2.24-1.87a5.1,5.1,0,0,0,3.48-1.54c1.45.28.77-1.13,1.08-1.75h0a3.06,3.06,0,0,1-.07-.4l1.7,1.41c.4,0,.54-.25.62-.58a2.81,2.81,0,0,0,0-.29c.4,0,.57-.37.69-.82a.11.11,0,0,0,0-.05c.23.23.52.2.87-.14,0-.23-.07-.45-.11-.68a.82.82,0,0,0,.26.1c.85,0,1.56-.18,1.74-1.16l-.07-.21,0-.21-.21-.85a2.42,2.42,0,0,0,.95-1.43h0c.46-.59,1.18-.88,1.7-1.41v0l.22,0v0a.64.64,0,0,1,.34-.39,1.52,1.52,0,0,1,.17.18c.93.79,1.42.51,1.56-.64h0a2.36,2.36,0,0,1,2.12-.48l.73,1.06c.85-.56-1.23-2.06.62-2.3a1.05,1.05,0,0,0,0,.31c.11.83.86.55,1.32.77.79-.22.93-1.4,1.93-1.31.17-1,.37-1.89,1.6-.83l.72-1c.5-.26,1.22-.14,1.45-.86l.1,0c.16-.83,1.29-.48,1.5-1.24l.72-.64c.29-.45.84-.51,1.25-.68C314.88,182,315.33,181.85,314.23,179.5ZM230.8,240.26a1.29,1.29,0,0,0-.88.18l0,.06a1.66,1.66,0,0,0-1.39.12,3.55,3.55,0,0,0-1.64,2,.72.72,0,0,0-.46,0,1.14,1.14,0,0,1,.13-.35,1.64,1.64,0,0,0,.23-1.36c.39-.29.34-1.06.95-1.11a.2.2,0,0,0,0,.07c0,.13.07.25.11.38,1.07.42,1.29-1,2.19-1l.12-.07a1.46,1.46,0,0,1,.84,1.22A1.11,1.11,0,0,0,230.8,240.26Zm.31,1.19a.48.48,0,0,0,.47-.26.77.77,0,0,0,.12.72C231.36,241.89,230.81,242.08,231.11,241.45Zm.71-.78-.14.26c0-.12.07-.25.1-.38l.06-.26a.77.77,0,0,1,.43.2A.69.69,0,0,0,231.82,240.67Zm.66,0a.31.31,0,0,0-.09-.14h.2A1.71,1.71,0,0,0,232.48,240.69Zm.26-6.05h0Zm7.42-1.3a.46.46,0,0,0,.2-.32,1.93,1.93,0,0,1,.37.67A2.36,2.36,0,0,0,240.16,233.34Zm8.26-4.59-.17.11a1.82,1.82,0,0,0-.27,1.24,1,1,0,0,0-.91.19,2.76,2.76,0,0,0-.08.27l0,0a.71.71,0,0,0-.81-.44l-.23.17a.61.61,0,0,0-.44,0c-.52.55-1.09,1.07-.83,1.93a1.81,1.81,0,0,0-.37-.18,1.66,1.66,0,0,1-.76-.6,6,6,0,0,0-.57-.66,1.37,1.37,0,0,0,1.19-.24c.24,0,.31-.16.33-.38l.62-.11c.07-.24.14-.48.2-.72l.1,0a.92.92,0,0,0,.75-.49c.45-.81,1.35-.61,2-.9h0C248.66,228.13,248.44,228.47,248.42,228.75Zm6.63-1.43v0l-.7.13a.59.59,0,0,0-.14-.67,1.75,1.75,0,0,0,.44-.84c0,.45.37.75.73,1A.66.66,0,0,0,255.05,227.32Zm.73-2.12h0v0a1.15,1.15,0,0,0-.12-.87l0-.06h.21a1.38,1.38,0,0,0,.45.57A1,1,0,0,0,255.78,225.2Zm8.71-3.24a.69.69,0,0,0-.91.46c0-.6.55-1,.9-1.4A3.69,3.69,0,0,1,264.49,222Zm1.75-6.65c-.44-.87-1-.55-1.64-.19a.54.54,0,0,0-.05-.37l.05-.05,0,0a2.23,2.23,0,0,0,1.86-.46,4.27,4.27,0,0,0-.27,1A.57.57,0,0,1,266.24,215.31Zm27.4-11.95a.86.86,0,0,0,.43.55c-.11.11-.22.22-.31.33-.22-.24-.41-.51-.62-.76Zm-2.32,1,0-.06.19,0a4.06,4.06,0,0,0,.07,1,2.06,2.06,0,0,0-.35.12l-.13.06,0,0A1,1,0,0,0,291.32,204.41Zm-.52-2.63.1.16a1.63,1.63,0,0,1-.08.73c-.15.36-.4.72-.16,1.07l-.4-.1a1.38,1.38,0,0,0-.19-1.7Zm-19.17,9.66a1.23,1.23,0,0,1,.79.12,6.05,6.05,0,0,1-1.63,1.07,1.09,1.09,0,0,0-.1-.46l-.07-.07Zm6.18-8v0l0,0Zm.62-1.45s0,.08,0,.13S278.36,201.94,278.43,202Zm2.39-2.91a.37.37,0,0,1,.21.09h-.18Zm.21,1v0h0Zm7.33-4.85a.76.76,0,0,1,0-.28,1.25,1.25,0,0,0,.06.29Zm.94-.42h0a.2.2,0,0,1,0,.08Zm7.9-8.44a2.11,2.11,0,0,0-.08-1.41,7.32,7.32,0,0,0,1.19-.59.38.38,0,0,0,.13.19.65.65,0,0,0,.47,1A2.87,2.87,0,0,0,297.2,186.29Zm4.95,1.8V188a2.62,2.62,0,0,0,.32-.23A2.94,2.94,0,0,1,302.15,188.09Zm.39-.39a1,1,0,0,0,.23-.38.86.86,0,0,0,0-.24.61.61,0,0,0,.26,0A4.28,4.28,0,0,1,302.54,187.7Zm1.18-5.81a.67.67,0,0,1,.15-.38A1,1,0,0,1,303.72,181.89Zm-2.7-9.65h0c.7-.59.12-1.18,0-1.78-3.72-.16-6.72,1.95-10,3.13a.86.86,0,0,0-.7,1l-2,.53c-.13.16-.34.29-.4.5l-2.06.5c-.49-.15-.63.13-.72.47l-.1,0a1.06,1.06,0,0,0-.54.21l-.36.39-1.81,1.09a1.21,1.21,0,0,1-1.28.27.67.67,0,0,0-.55-.08,15.93,15.93,0,0,1-2.23.59.72.72,0,0,0-.13,1l.22.1,0,.33-.4.09c-.46.54-1.48.26-1.71,1.14-.88.92-.6,1.43.57,1.62.73-.08,1.39-.7,2.18-.27l.07-.35a1.51,1.51,0,0,0,.25.51,1,1,0,0,0,.19.08s0,0,0,0h0a2.29,2.29,0,0,0-.37.79.13.13,0,0,1,0,.06,7.45,7.45,0,0,0-3.41,1.84.86.86,0,0,0-.39.23c-.08-.42-.58-.56-.72-.93-.54-.47-.24-1.13-.37-1.69-.46.14-1,.17-1.17.74l-1.58.83c-.1.18-.2.35-.29.53l-1.72.38c0,.13,0,.26.05.39l-.4.12c-.48,1-2.11.46-2.3,1.81l-.67.68c-.24.58-1,.8-1.05,1.5a1.64,1.64,0,0,1-.38.1l-.56-.35a2.69,2.69,0,0,0-1.67.31,4.9,4.9,0,0,0-.48.31c-.58.33-1.28.43-1.75,1s-1.11.88-.7,1.7a.7.7,0,0,0-.38,0,.94.94,0,0,0-.12.18l-.77.11-.47.81a.43.43,0,0,0-.37-.05c-.65.15-1.83-.5-1.57,1l.11.1a2.24,2.24,0,0,0-.34.11l-.27.91c-.09.29-.19.58-.29.87h0a2.72,2.72,0,0,0-1.69.11,1.1,1.1,0,0,0-.77.95c-.76-.34-1.26,0-1.64.7a.88.88,0,0,0,.28.95l.15.47.82-.21a3.8,3.8,0,0,0,1.29-.95,1.52,1.52,0,0,0,.36.12c.75-.1.94-.87,1.45-1.25.51.18.6.62.71,1a1.44,1.44,0,0,0-.51.66.5.5,0,0,0,0,.12l-.18,0c-1.37-.09-1.84,1.66-3.21,1.58l-.52-.31c-.53.53-.81,1,.06,1.23a1.69,1.69,0,0,0-.72.88,1.31,1.31,0,0,0-.61-1s0,0-.05-.05a1,1,0,0,0,0-.7,1.39,1.39,0,0,0-.85-1.08l-.28,0c-.07.29-.15.58-.23.87a1.09,1.09,0,0,0-.5-.13,1.51,1.51,0,0,0-.56.16,1.28,1.28,0,0,0-.66,1.23h0a1.71,1.71,0,0,0-1.62.32c-.22.33-.39.66-.12,1.05,0,.09.05.19.08.29a.1.1,0,0,1-.05,0,4,4,0,0,0-.23,1.68,2.23,2.23,0,0,1-.05.36.58.58,0,0,0-.31.56,3.55,3.55,0,0,0-.31.23l-.12.21c0,.29-.33.67.2.84,1.15.48,1.92-.71,3-.68l.86-.17c.68-.5.62-1.33.9-2,0-.14-.08-.28-.13-.42l1.11-1.16c.13,1,1.28.71,1.64,1.41l1.21-.27a5.8,5.8,0,0,0,.15,1.43,3.57,3.57,0,0,0,.66,1.23,1.08,1.08,0,0,0,.73.35,9.3,9.3,0,0,0,1.07-.27c-.29.43-.67.82-.5,1.43a.88.88,0,0,0,.25.29c-.72,0-1.63-1-2.09.39.28.7,0,2.24,1.54,1,.06-1,1.67.06,1.55-1.18l.4-.12c.23-.34.47-.67.71-1l.78-.25a1.09,1.09,0,0,0,.85-.67l.71-.17-.15-.8a4.31,4.31,0,0,0,1.93-1.33,1.07,1.07,0,0,0-.79-.61,2.68,2.68,0,0,0-2.68,1.16.79.79,0,0,0,0,.64.32.32,0,0,0-.29.39l-.05,0a2.74,2.74,0,0,0-.94-.13c.71-.51.25-1.06-.23-1.61-.18-.16-.31-.07-.42.06s0,0,0,0a2.07,2.07,0,0,0-.15-.34c-.07-.55.08-1,.68-1.06a3.62,3.62,0,0,0,.13.35,1.34,1.34,0,0,0,.52-1.56,1.48,1.48,0,0,1,.33-.18l.14-.21.29-.06.75-.19a0,0,0,0,0,0,0c.75.28,1-.18,1.26-.77l.7-.63,1.33-.27,0-.2-.06-.2a.9.9,0,0,0,.74-.57.76.76,0,0,0,.42,0c0-.5.23-.77.76-.73s1.13.82,1.29-.13c.3-1.66,1.4-1.28,2.45-1.17a1.35,1.35,0,0,0,1.14-.28c.5-.43.9-.87.15-1.42h-.26a5.25,5.25,0,0,1,1.14-2.36c.77.45,1.56,1.61,2.25-.06a1.79,1.79,0,0,1,.89.47,1,1,0,0,0-.38.22,1.13,1.13,0,0,0,.5,1.37,2.17,2.17,0,0,0-1.69.58.53.53,0,0,0-.07.2.88.88,0,0,0-1.25.28c0,.11.07.22.11.33l-.05,0a.41.41,0,0,0,.11.48c.15.77-.33,1-.95,1.09-1.81.16-1.77,1.23-1.3,2.54a.55.55,0,0,0,.79-.2,2.13,2.13,0,0,1,2.41-1.4c.08-.3.16-.6.25-.9,1.27.09,2.41,0,2.73-1.59a.86.86,0,0,0,0-1l-.07,0c.07-.1.13-.21.19-.31l.19.08c.94,0,1.53-.76,2.3-1.14,0-.13-.06-.27-.08-.41s-.16-.55-.23-.83l-.91-.22-.65-.8c0-.93-.68-1.6-1-2.43h0v0l0,0,.52-.11a2.14,2.14,0,0,0,.1.22c.53.63,1.11.85,1.81.25l.29-.39a.81.81,0,0,1,.51.62.89.89,0,0,0,.74-.57s0,.07.08.1a1.51,1.51,0,0,0,.59.11,1.23,1.23,0,0,0,1-.64c.44-.82,1.49-1.34,1.22-2.51,0-.15-.05-.3-.08-.45l.07-.06a.7.7,0,0,0,.19-.75,1,1,0,0,0,.76-.35,1.88,1.88,0,0,0,.52.45.41.41,0,0,0,.29,0,2.92,2.92,0,0,0,.4.59c.42.33.65,1.08,1.43.69l.21-.8c1.36.13,1.19-1,1.43-1.78h0c0,.08,0,.17,0,.26,1,.67,1.73.36,2.12-.77l.54-.75h0a1.3,1.3,0,0,0,.51-.22,1,1,0,0,1,.21-.32l1.8-.79c.18-.46.82-.45,1-.86h.08a.68.68,0,0,0,.41-.35.73.73,0,0,1,.3-.19.42.42,0,0,0-.05-.73c.67.07.82-.73,1.3-1a.91.91,0,0,0,0,.61l.48.39a2.46,2.46,0,0,0,1.54-1.17h0l1.23-.36c1.11-.26.89-1.39,1.35-2.07a3.07,3.07,0,0,1-.07-.42l.33-.46c2.09-.69,1.5-1.69.34-2.77a.84.84,0,0,0,.29-.13Zm-21.86,9.54c0-.06,0-.12-.05-.19l.11,0Zm-30.73,23.34a1,1,0,0,0-.54-.77c.7-.6.88.15,1.18.56A.67.67,0,0,0,248.43,205.12Zm5.82-.66a1.22,1.22,0,0,0-.92.66c0-.35.07-.7.11-1.06.1-.17.2-.34.31-.51.08-.6.39-.82.87-.77h0C254.84,203.37,253.93,203.86,254.25,204.46Zm2.31-7.21a1.06,1.06,0,0,0-.19.06c-.11-.44-.21-.89-.32-1.33a18.24,18.24,0,0,1,1.42,1.36C257.18,197.29,256.86,197.28,256.56,197.25Zm3.83,2.11a.72.72,0,0,0-.12.27,6.91,6.91,0,0,0-.71-.61.2.2,0,0,0,.1-.08,1.64,1.64,0,0,0,.79.09,2.23,2.23,0,0,0,.94-1.24c.06.12.12.24.19.36s.29.39.45.58.07.43.1.65A1.33,1.33,0,0,1,260.39,199.36Zm2.85-5.11.06.17-.13.09a1.4,1.4,0,0,0,.12,2s-.12.34-.21.06c-.28-.6-.43-1.33-1.33-1.27a1.21,1.21,0,0,0-.5.55,3.23,3.23,0,0,1-1.05-1.38.88.88,0,0,0,.76-.58c.43.15.84.72,1.32.08a3.94,3.94,0,0,1,1.07-.83C263.23,193.51,263.36,193.91,263.24,194.25Zm2.95-1.53c0-.46.12-.9.13-1.35a.28.28,0,0,0,0-.12,1.77,1.77,0,0,0,.55-.27,2.28,2.28,0,0,0-.34.29,1.29,1.29,0,0,0,.07,1.55A1.56,1.56,0,0,0,266.19,192.72Zm.92,3.08a2.42,2.42,0,0,1-.47,0,1.33,1.33,0,0,0,.43-.35c0,.05,0,.11.05.17a2.07,2.07,0,0,0,0,.22Zm2.39-4.34-1.05.22-.62-.73a.85.85,0,0,0-1,0,1.07,1.07,0,0,0,.38-.76c.05-.39.1-.78.16-1.18l0,0a3.18,3.18,0,0,0,1.15,0h0c0,1,.26,1.26,1.1,1a.8.8,0,0,0,.59.29.86.86,0,0,0,0,.42C269.89,190.81,269.53,190.9,269.5,191.46Zm1.36-3-.47.07s-.07-.08-.16-.11a.12.12,0,0,0-.13,0,.78.78,0,0,0,0-.16c-.27-.84.61-.77.92-1.15h.48c.3.11.54.33.84.45l-.07.12a.92.92,0,0,0,.27.76ZM290.71,181a1.77,1.77,0,0,0,0-.32,1.19,1.19,0,0,0,.64.15C291.12,180.85,290.91,180.89,290.71,181Zm8.1-7.15a1.3,1.3,0,0,0-.44-.05,1.77,1.77,0,0,0,.21-.41.82.82,0,0,0,.4-.26A4.2,4.2,0,0,0,298.81,173.81Zm-95,62.28a1.61,1.61,0,0,1-1,1.82l-.71.68a2.28,2.28,0,0,0-1.58.84l-.69,1-.45,0-.69,1-2.07.54h0c0,.5.41,1.33-.44,1.29s-.29-.77-.21-1.22a7.56,7.56,0,0,0,0-.83,1.4,1.4,0,0,0-.05-.34c.09-.35.37-.4.67-.41a.65.65,0,0,1,.37.42.48.48,0,0,1,0,.12,2.81,2.81,0,0,0,1.44-.81l.54-.16,0-.06a1.22,1.22,0,0,1,.14-1.22c.42,0,.67-.72,1.19-.31a3.23,3.23,0,0,0,1-1.56l1.18-.72C202.79,235.85,203.25,235.66,203.77,236.09ZM214,254s-.36,0-.56.06c.09-.4.17-.8.25-1.2l-.18-.84C215.17,252.26,214.14,253.24,214,254Zm-3.07-1.45,1.43.18c-.12.19-.23.38-.34.57-.6,0-1.23.48-1.8-.09Zm9.92-13.36a2.33,2.33,0,0,1-1.92,1.28l-.74.65-.3-1.25a.9.9,0,0,1,.24-.93l.41-.1C219.34,238.79,220.27,237.84,220.86,239.15Zm-23.86-13a.18.18,0,0,1-.05-.07l.45-.35a3,3,0,0,0,1.21-.92l1-.78c.5-.22,1-.35,1.53-.58.16-.27.31-.55.47-.83h0a.47.47,0,0,0,.3-.1c.38-.41.82-.79,1.2-1.2,1.55-1.21,3.07-2.43,4.57-3.69l.67-.13,1.15-.39c0-.26-.07-.53-.11-.79l2.38-1q.15-.23,0-.33a.55.55,0,0,0,.1-.31,1.17,1.17,0,0,0-.16-.36l.27-.23a.53.53,0,0,1,.53.16l.3-.5.39-.08c.24-.33.48-.67.71-1a2.41,2.41,0,0,0,2-1.32c.75-1.14,2-.33,2.91-.71h0a7.67,7.67,0,0,0,3.51-2.44.81.81,0,0,0-.14-.87.61.61,0,0,0-.18-.05l.05,0,.22-.18.15-.24,0-.1a5.77,5.77,0,0,0,1-1,2.6,2.6,0,0,1,.89-.05,2,2,0,0,0,.87-.2,1.33,1.33,0,0,0,.42-.43.94.94,0,0,0-.07-.75,1.28,1.28,0,0,0,1.11,0L227,204l.56.15c1-.57,1.8-1.4,2.78-2a1.83,1.83,0,0,0,.4-.43,1.85,1.85,0,0,0,.15-.57c0-.06,0-.11,0-.16a1.16,1.16,0,0,0,.73-.17.92.92,0,0,0,.35-.63h0a1.57,1.57,0,0,0,1.34-.49,2.51,2.51,0,0,0,.49-.7,1,1,0,0,1,.23-.35c.51-.14,1-.27,1-1.08l-.15-.45h0l.41-.09a.86.86,0,0,1,.1.16,1.36,1.36,0,0,0,1.57-.72,1.16,1.16,0,0,0,.07-.61l-.06-.11a.46.46,0,0,0,.23-.12l0,.05v.06c.25,0,.4-.08.42-.24a1.23,1.23,0,0,0,.78.54c.42,0,.71.23,1,.42.52.23.76,1.23,1.57.67a2.28,2.28,0,0,0,.86-2.29,3.48,3.48,0,0,1,.49-1.25,10.39,10.39,0,0,0,.36-2.48,1.84,1.84,0,0,1,0-.33c1.55,1,1.85.73,2.06-1.34l-.06-.35.59-.15a.86.86,0,0,0,.23.36l-.14.18c.08,1.1,1.24,1.1,1.78,1.73a.77.77,0,0,0,.56-.06c.21-1.19,1.11-.83,1.85-.83a.84.84,0,0,0,.4-.39,2.2,2.2,0,0,0,.19-.87.84.84,0,0,0-.37-.67,2.87,2.87,0,0,0,.39-.59s0,0,0,0a4.45,4.45,0,0,0,2-.45,1,1,0,0,0,.78-.64L253,185a1.19,1.19,0,0,1,.24-.44,4.6,4.6,0,0,0,.32-.45,1.76,1.76,0,0,0,.09-.2l.11,0c0,.05.06.08.16.1a.23.23,0,0,0,.19-.09.94.94,0,0,0,1,.28s0,0,0,0c-.19.54.09.86.49,1.12-.43.19-.27.52,0,.88-.1.17-.21.34-.31.52-.56,0-.54-1.47-1.44-.55,0,.13,0,.26,0,.39l.33,1.29.1.37a.57.57,0,0,0,.42.06l.15.76a1.22,1.22,0,0,0,1.39.25c.47-.2-.09-1.08.7-1.08a.6.6,0,0,0,.48-.22,1,1,0,0,0,.65.44c.6-.06,1-.53,1.52-.74a3.73,3.73,0,0,1,.82-.17c.5,0,1,0,1.33-.53a2.49,2.49,0,0,0,.08-.35.3.3,0,0,0,.07-.11,3,3,0,0,1,.5-2.09,1.47,1.47,0,0,0,.06.14c.9.95,1.58.78,2.06-.41l.15-.67a4,4,0,0,0,2.95.08l.24-.21c-.05-.23-.09-.46-.14-.7.83.11,1.31-.76,2.08-.81.15.42.29.87,1,.42.13-.49.77-.8.52-1.42-.66-1.13.3-1.25.92-1.56h.05c-.37.57-.67,1.14.34,1.43a1,1,0,0,0,1.12-.94,2.8,2.8,0,0,1,0-.4c-.05-.14-.09-.29-.13-.43l-.52-.33c-.27-.65-.7-1.31.52-1.49.55-.07,1-.37.28-.93l-.06-.21h0a1,1,0,0,0,.29-.11.47.47,0,0,0,.12-.18.23.23,0,0,0,.13.05l.07,0a1.46,1.46,0,0,0,.58.78l0,0c-.19.21-.34.44-.51.66-.45.62-1.11,1.18-.58,2.07a1.05,1.05,0,0,0,1.11.22c.89-.13.55-1,.88-1.49a.25.25,0,0,0,0,.07.94.94,0,0,0,1.32,0c.88-.58,1.92-1,2.45-2,.17-.16.37-.29.55-.44.26,1,1,.65,1.75.32a.44.44,0,0,0,.18-.43,3.15,3.15,0,0,0,1,.55.66.66,0,0,0,.71-.38c1.38-1.16,3.43-1.83,3.05-4.25,0-.16,0-.31.05-.47l-1.32-1a2.1,2.1,0,0,0-1.31.49l-.05,0a1.23,1.23,0,0,0-.76-.07c-1.23-.22-2.11,1-3.33.76-1,.51-1.71,1.51-2.77,1.94.36-.85,1.27-1.15,1.85-1.78.16-.18.83-.62.08-.75a1.76,1.76,0,0,0,.32-.39,1.5,1.5,0,0,0,.88.29c.72-.22,1.06-1,1.86-1.11s.47-.74.48-1.19l.58-.23c1.24-1.07.82-2.18.09-3.31l-.52-.31-.41.07c-.18-.71-.36-1.42-.53-2.13a1,1,0,0,0-.05-.42c0-.82-.69-1.47-.61-2.31a1,1,0,0,0,.21-.14,1.38,1.38,0,0,0,.37-.73q4.49-3.25,8.67-6.89c.05-1.34,2.16-1.56,1.68-3.34-1.31,1.29-2.56,2.08-2.65-.7a3.29,3.29,0,0,0,.05-.44,8.87,8.87,0,0,1,2.72-2.1,2.26,2.26,0,0,0,1.69-1.7,3.22,3.22,0,0,0,1.6-1.26l.48.06c1.39-1.34,2.53-3,4.36-3.81l.61-.89c.78-.12,1-1,1.6-1.26.22-.45.45-.9.68-1.36l8.35-8-.39-.4-1.62.92c-.42-.77,1.14-1.17.18-1.88-.83.44-1.9.5-2.37,1.51a2.81,2.81,0,0,1-.08.31,7.39,7.39,0,0,0-2.82,2.53,1.33,1.33,0,0,0-.24-.1,1.78,1.78,0,0,0-1.5.44c.23-1.21,1.8-1.32,2.42-2.2.39-.55,1.64-.94.12-1.59l-7.07,5.86-.46,0,.23-.19a1.49,1.49,0,0,0,.48-.87l.22-.05c2.3-1.19,4.48-2.51,5.81-4.86,0-.37-.12-.67-.6-.55l-1,.36a22.89,22.89,0,0,1-4.64,3.61c.12-1.3,1.53-1.31,1.67-2.41-1.39.22-2,1.55-3.24,1.9l-3.3,3-.72-.52c1.29-1.15.87-3.27,2.66-4.29,1.6-.9,1.42-3.25,2.78-4.5l-.59-.35L294.2,125c-.29.17-.64.13-.91.32-.41.41-1,.73-.68,1.43l-.09,0h-.33c-1.71,1.35-4,2-5,4.18l-.05,0h0c-.74.07-.93-1.24-1.85-.71-1-.27-.48-.67-.33-1.34.27-1.26,2.38-1.19,1.84-2.84l-.48-.06c-.48-.43-.73-1.35-1.63-.79-.09,0-.32-.34,0-.26a25.36,25.36,0,0,0,5.29-4.79c0-.5-.06-1-.79-.79-3.3,1.09-6.5,2.36-9.12,4.77-.71.66-1.45,1.5-2.7,1.31.22-1,1.13-1.35,1.79-1.82,1.05-.75.43-1.31,0-2l.81-.91a3,3,0,0,1,.43-.09,5.33,5.33,0,0,0,2.29-1.23c1.28-1.17,3-1.87,3.7-3.65,0-.36-.12-.66-.59-.55l-1,.37a3.9,3.9,0,0,0-1.44.68,8.59,8.59,0,0,0,1-1.23c0-.16.05-.31.07-.47.21-.37-.05-.56-.26-.79-1.33-1.41-2.8-.78-4.25-.49.42-.26.81-.59,1.22-.88.94-.55,1.27-1.59,1.94-2.36l1.58-1.61.14.06a2.61,2.61,0,0,0,1.76-.71c1.06-.86,2.28-1.55,2.93-2.83l1.63-1.26,1.16-1.21a1.07,1.07,0,0,0-.41-1.1L289.22,103a20.82,20.82,0,0,0-5,3.42,1.35,1.35,0,0,0-.51,1.19s0,0,0,0c-1.67,1.14-3.41,2.16-5,3.41a5.4,5.4,0,0,0-1.92-2.34l-1.92,1.08c0-.07,0-.14,0-.22l-1.28-.88h0a10.18,10.18,0,0,1-1.8-1.11c.28-.28.54-.59.84-.84a8.63,8.63,0,0,0,3.31-2h0l.43-.51h0a18.75,18.75,0,0,0,4.5-3.41h0c2.06.13,2.42-2.23,4.09-2.75a7.3,7.3,0,0,0,4.45-3.81h0c1.86.55,3-.3,3.89-1.86,2.15-1.67,4.34-3.31,6.46-5,.85-.69,2.51-1.12,1.3-2.81a12.78,12.78,0,0,0-.17-1.66c.8-.71,1.58-1.43,2.35-2.18a38.6,38.6,0,0,0,5.26-4.37c.1-.8-.33-.79-.89-.57-2.48,1.95-5.31,3.39-7.69,5.48a2.43,2.43,0,0,0-.66-.37c-.72-.36-1.33.12-2,.24a8.53,8.53,0,0,0-1.2.87,4.78,4.78,0,0,0-1.18.79l-.22.12a1.85,1.85,0,0,0-.49.55,1.67,1.67,0,0,1-1.62,0,37.78,37.78,0,0,0-6.75,4.29l-.11,0c.55-.51,1.11-1,1.69-1.48l.06-.49a41.83,41.83,0,0,0-4.69,3.44l-.12,0-.13.18c-.5.43-1,.87-1.46,1.32l-.08,0c-2.15-.55-3.26,1-4.55,2.22a.45.45,0,0,0-.11,0c-.64-2.12,2.38-2.25,2.26-4-.92-.46-1.61,1.78-2.6.35a.3.3,0,0,0,0-.08l0,0c2-.15,2.64-1.79,3.48-3.21a8.2,8.2,0,0,0,.33-2.3c0-.49-.09-1-.44-1.12h0a.88.88,0,0,1,.44-.56l.25.24c1.31,1,2,.6,2.08-1a3.15,3.15,0,0,1,2.84-.8L286.19,82c1.12-.82-1.82-2.73.67-3.18a1.48,1.48,0,0,0,0,.42c.2,1.12,1.21.69,1.85,1,1.06-.35,1.16-2,2.54-1.92.16-1.34.37-2.6,2.12-1.24l.9-1.43c.67-.38,1.66-.27,1.92-1.26l.15,0c.15-1.13,1.72-.73,1.95-1.79l.93-.92c.37-.63,1.12-.75,1.67-1,3.22-1.57,3.82-1.81,2.15-4.94a2.25,2.25,0,0,0-1.83-.19,14.26,14.26,0,0,0-5.69,1.65l-.38-.11a1.13,1.13,0,0,0-.1.13.28.28,0,0,1-.13,0c-.16-1-1.3-1.07-1.75-1.8l-.74-.38-.55.24h0l-.57.17a1.55,1.55,0,0,0-1.23,2.13c-.14.22-.28.44-.43.66L288.51,68v0a1.44,1.44,0,0,0-.68-1.66l-.67-.06c-2.59,1-5,2.41-7.56,3.6-.14.24-.27.49-.4.73l-1.6.51a.89.89,0,0,0,.05.54h0v0l-2.84.82a2.46,2.46,0,0,1-1.58,1.12c-1.25-.67-2.49-1.33-3.06.75a.88.88,0,0,0,.44.53l-.05,0h0A5.52,5.52,0,0,0,270,75c.48,1.26-1.11,1.29-1.29,2.17-.08.43-.16.86-.25,1.29s-.25,1.2.55,1.39.87-.44.9-1a1,1,0,0,1,.52-.82,1.51,1.51,0,0,0,.37.06A.52.52,0,0,0,271,78s0,0,0,0a2.63,2.63,0,0,0,1.23,2,2.28,2.28,0,0,0,1.16.35,1.65,1.65,0,0,0,1.2-1.45,2.79,2.79,0,0,0-.2-1.4.11.11,0,0,1,.06,0,1.85,1.85,0,0,0,.71-.57,5.06,5.06,0,0,0-.06.79c0,.42,0,.86.13,1.27l-.48.28a17.67,17.67,0,0,1-4.21,3.39l-.25.82-.48.36a2.26,2.26,0,0,1-.26,0,1,1,0,0,0-.89.57c-.05.12-.09.24-.13.37-1.15.84-2.28,1.68-3.35,2.62a8,8,0,0,0-1,.83c-.23.07-.46.14-.69.23a7,7,0,0,0-1.78,1.33,8.6,8.6,0,0,1-2.19,1.92c.07-.18.13-.35.19-.52-.39-.57-1-.41-1.55-.33a2.52,2.52,0,0,0,1.23-1.24c.22-.88-.19-1.74.09-2.7a2,2,0,0,0-.18-1.69c.28,0,.59-.16,1-.68l.16.2A2.67,2.67,0,0,0,263,85a2.07,2.07,0,0,0,1-.9c.15-.51.72-1,.4-1.54a1.56,1.56,0,0,0,1.57-.25h0c-.14-.8,1.23-2.06-.69-2.32l-1.6-1.42a7,7,0,0,1-1.94-.2,1,1,0,0,0-.66.39,2.08,2.08,0,0,0,.06,1.53,2.63,2.63,0,0,0,.41.63,1.09,1.09,0,0,0,.31.18c-.3.5-.45-.12-.67-.23a1.59,1.59,0,0,0-1.73.2h0a1.23,1.23,0,0,0-.09,1.15,2.44,2.44,0,0,1,.26.57A2.42,2.42,0,0,1,257.82,84a4.83,4.83,0,0,1,.52.57,2,2,0,0,0-.56-.11c-1.7-.09-3.29-1-5-.65a2.06,2.06,0,0,0-.82,2h0l-1.08.08c-.1-1.24-1-2.1-1.47-3.19h0v0l0,0,.7-.19c0,.09.09.19.15.29.77.82,1.58,1.08,2.48.21.14-.17.25-.36.38-.55a1.12,1.12,0,0,1,.73.81,1.21,1.21,0,0,0,1-.81l.12.12a2.06,2.06,0,0,0,.82.1,1.66,1.66,0,0,0,1.35-.94c.54-1.15,1.94-1.94,1.49-3.5,0-.21-.09-.41-.14-.61a.73.73,0,0,1,.09-.08.94.94,0,0,0,.2-1.05,1.31,1.31,0,0,0,1-.53,2.46,2.46,0,0,0,.73.59.7.7,0,0,0,.39-.09,4.83,4.83,0,0,0,.59.76c.6.44,1,1.44,2,.85.08-.37.16-.74.23-1.1,1.86.09,1.55-1.44,1.82-2.53h0v.37c1.47.83,2.39.36,2.84-1.21l.67-1.06h0a1.72,1.72,0,0,0,.68-.33,1.36,1.36,0,0,1,.26-.45l2.4-1.21c.22-.63,1.08-.66,1.36-1.23h.11a1,1,0,0,0,.53-.5,1,1,0,0,1,.4-.29.57.57,0,0,0-.12-1c.92,0,1.07-1.05,1.7-1.42a1.32,1.32,0,0,0,0,.83l.69.5a3.45,3.45,0,0,0,2-1.7l1.65-.58c1.5-.43,1.11-2,1.7-2.92a2.68,2.68,0,0,1-.13-.56h0l.42-.65c2.79-1.08,1.93-2.41.26-3.8a.86.86,0,0,0,.39-.2l1.14-.32c.92-.85.08-1.62-.12-2.41-5.07,0-9,3.12-13.42,4.95a1.16,1.16,0,0,0-.89,1.46l-2.66.85c-.17.24-.44.43-.51.72l-2.77.82c-.68-.18-.85.22-1,.69l-.13,0a1.47,1.47,0,0,0-.72.32c-.15.19-.31.38-.47.56l-2.37,1.61a1.65,1.65,0,0,1-1.73.45,1,1,0,0,0-.76-.07,20,20,0,0,1-3,1,1,1,0,0,0-.12,1.43l.31.13c0,.14.05.29.07.43l-.53.16c-.6.77-2,.45-2.26,1.67-1.13,1.31-.72,2,.89,2.17,1-.16,1.85-1,3-.52l.06-.48a2.35,2.35,0,0,0,.37.67.9.9,0,0,0,.27.1l-.05,0h0a2.65,2.65,0,0,0-.45,1.1s0,.06,0,.08c-1.82.34-3.14,1.58-4.52,2.74a1.27,1.27,0,0,0-.51.34c-.13-.55-.83-.72-1.05-1.22-.76-.6-.4-1.51-.62-2.26-.61.22-1.33.3-1.54,1.08l-1,.57c-2.33-.9-4.67-1.67-7.29-.41a11,11,0,0,1-3.07,1.84,1.64,1.64,0,0,0-.6.75,2.43,2.43,0,0,0,0,.93,2.81,2.81,0,0,1,.15,1.21c-.15-.13-.36-.22-.52-.34-.8-.06-1.61-.18-2.22.54-1.12-.69-3.74,0-2.61-2.78l.09,0a1.77,1.77,0,0,0,.75.5l.39,0,.05-.25a4,4,0,0,0,2.21-.85l2.23-1.49-.51-.55a1.89,1.89,0,0,0,.7-.46,1.15,1.15,0,0,0,.1-1.44c0-.13-.09-.26-.13-.39l.06-.06a3.27,3.27,0,0,0,.22-1.54c1.25-.11,2.82.73,3.94.23l1.43.05.81-2.84c-1.18-.47-3.18,1-3.51-1.47a2.64,2.64,0,0,0,1.47-2.88h0a.23.23,0,0,0,.07-.07c0,.05,0,.09,0,.14a3.59,3.59,0,0,0,1.14.77c-.18.58-.49,1.19,0,1.57,1.11-.44,1.54-1,1.59-1.62l1.42.08,0,0c.1.88-.2,2.06.93,2.37s1.1-1.32,2-1.62a3.92,3.92,0,0,0,.07-.68c.69-.45.78-.94.12-1.49.05-4.67,3,1.19,3.73-1.55-.19-.88-1.62-1.36-2.19-2.47l-.25-.36.08,0c.06.13.12.25.17.38.91-.08,1.86.55,2.74-.14.42-.57.87-1.15,1.69-.88,3.07,1,3.41-1.07,3.7-3.23a5.24,5.24,0,0,0-2-1.29l-.05,0a1.29,1.29,0,0,0,0-.28,2.13,2.13,0,0,0,.61-.17c2.08-1,1.51-1.86-.14-2.67a4.16,4.16,0,0,0-.7-.5,1.68,1.68,0,0,0-.41-.54l.3-1.29h0l.43-.74c-.32-1.41.83-1.81,1.66-2.43l-1.23-.2c-1.88-.06-2.72,1.11-3.19,2.7-.5.08-.75.47-.95.93-.31.71-.64,1.42.25,1.83l-.58.27a.83.83,0,0,0-.26-.72c-.1-.35-.2-.71-.31-1.07-.87-.16-.73,1.16-1.55,1.06l-.47.14c-.09.38,0,.55.18.55a2.59,2.59,0,0,0-.32.47,1.09,1.09,0,0,0-.78.16,1.57,1.57,0,0,0-.58,1c.07.62.52.89,1,1.09a2.4,2.4,0,0,0,.16.27,2.36,2.36,0,0,0,0,.38,2.33,2.33,0,0,0-1.18.24,1.17,1.17,0,0,0-1-.6,1.38,1.38,0,0,0-.38.24l-2.23.09-.27,1.33h0l0-.15c0-.06-.1-.08-.26-.07s-.24.11-.29.32c0,.74-.94,1.44-.31,2.1s.91-.31,1.35-.56a2.81,2.81,0,0,1,.35-.34l-.18.41a4.57,4.57,0,0,1-5,3.16,4.25,4.25,0,0,0-.73-2.89h0c0-.23.06-.47.1-.69,1.13-.63.73-2.44,2.19-2.81a1.51,1.51,0,0,1,.27-.94v0a1.84,1.84,0,0,0,1.44.79,14.48,14.48,0,0,1,3.47-1.85,1.67,1.67,0,0,0,.32-2.28c-.61-.54-1.22-.22-1.84,0a1.34,1.34,0,0,0-1,.75l-.58.25A4.87,4.87,0,0,0,240.83,52c-2-4.06-6.31-5.85-8.69-1.73-1.56.8-3.7,1-3.7,3.46-3.18,1.11-5.86,3.08-8.57,5-.7,1.47-2.56,2.25-2.64,4.1l-1.2-.15-.57.84-.79.71L216,65.6c-1.34-.26-2.06.68-2.86,1.49l-5,.28a2,2,0,0,0,1-.61,9.53,9.53,0,0,1,4.69-5.33,2,2,0,0,0,.87-2.12,1.9,1.9,0,0,0-.23-.39l1.49-.44c1.08.14.68,2.18,2.21,1.73-.07-2.3,2.31-3.6,2.39-5.83-.09-.07-.19-.13-.28-.21h0c1.13-.07.51-1,.74-1.51-.05-.18-.11-.36-.16-.54a2,2,0,0,1,.18-.25c.05-.07.09-.14.14-.2A4.16,4.16,0,0,0,222.56,53a1.56,1.56,0,0,0,1.14.18c.05-1.29,1.4-2,1.44-3.33l.12.08c1.79.51,3.58,1.54,5.38,0a1.45,1.45,0,0,0,.64-1,2,2,0,0,0-.07-.35l1.41-.44c.17-.2.33-.39.49-.6a1,1,0,0,0,.08-.11,9.32,9.32,0,0,0,2.47-2c1-.06,1.65-.41,1.42-1.56a4.54,4.54,0,0,1,.53-.12.52.52,0,0,0,.66-.09.67.67,0,0,0,0-.19l1-.26a2.31,2.31,0,0,0,1.35-.64,1.86,1.86,0,0,0,.19-.33,2.89,2.89,0,0,0,1-.68,1.66,1.66,0,0,0,.18-1.65.74.74,0,0,0,0-.14.6.6,0,0,1,.22.34,20.69,20.69,0,0,0,4-2.14,1.43,1.43,0,0,0,.38-.74,2.18,2.18,0,0,0-.14-.84l0,0a3.29,3.29,0,0,0,2.85-2.77,5.74,5.74,0,0,0,.41-.45,2.31,2.31,0,0,1,.24-.29l1.14-.34.3-1.27h0c1.35.41,2.12-.22,2.58-1.43v-.07c.53-.2,1-.46.94-1.13a1.3,1.3,0,0,0,1.17-.42l.85-1.12v0a1.28,1.28,0,0,0,.15.25,1.84,1.84,0,0,0,2-1.32l.89-1c.88-.76,2.1-1.2,2.4-2.52h0l1.39-1.55a.89.89,0,0,0,.29.15,1.84,1.84,0,0,0,1.44-.7l1.4-1.62c.28-.69,1-1,1.37-1.63h0c.05-1.47-1.43-2-2-3.06,1.53.19,1.42-.86,1.54-1.74l.16-.07a2.07,2.07,0,0,0,.6-.58.66.66,0,0,0,0-.14l.7.38c2.43.63,2.81-1.3,3.51-2.83l0,0c.24-.73,1.28-.34,1.5-1.09a1.48,1.48,0,0,0-.48-1.7c-.05-.4.43-.92-.29-1.15-.47-2.4-1.79-.29-2.68-.5l-.92.9c-.55,1.41,1.3,1.61,1.36,2.71-.85.53-1,2.41-2.68,1.37.48-.45,1.19-1.08.88-1.6-.5-.85-1.28.06-2,.1h0c-1,.07-1.47.79-1.82,1.59l-.11-.05a.55.55,0,0,0-.57.36c-.37.17-.6.8-1.16.35-1.54-.55-2.75.35-4,.93a1.65,1.65,0,0,0,0,1.27c0,.07.11.11.16.18-.49.19-1.13.17-1.47.62a1.24,1.24,0,0,0-.59.42c-.24.7-1.19.41-1.47,1.06-.86.24-1.62.56-1.49,1.67a3.08,3.08,0,0,0,.34.49c.05.92-.21,1.54-1.59,1.13-.12.88-.83,1.17-1.51,1.5a1,1,0,0,0-.15.2l-.86.25a1.32,1.32,0,0,1-.27,1.33c-2.33,0-3.47,3-6.05,2.34a1.18,1.18,0,0,1-.85,1.44A1.12,1.12,0,0,0,244,26a2.31,2.31,0,0,0,1.26,1.39,1.27,1.27,0,0,0-.59.75l-.29.08L243.05,28l-.56-.3c.81-.8,1.29-1.66.39-2.74l-.24-.52c-.95.09-1.26.76-1.41,1.58a2.43,2.43,0,0,0-.46.22,1.85,1.85,0,0,1-1.69,2.26,1.12,1.12,0,0,0-.33-.55c-.73-.28-1.34-.24-1.63.63,0,.59.54,1.27-.68,1.39a3.9,3.9,0,0,0-3,1.35l.2.35.11.08.36,1.79h0l-1.05.35h0c-.86-.77-1.64-1.25-1.78.5h0a2.06,2.06,0,0,0-.48.21A1.74,1.74,0,0,1,229,35a2.55,2.55,0,0,1-.54.15,2,2,0,0,0,.71,2.35h0l-2.7-.57-1,.42a2.94,2.94,0,0,0,.05.51l-1.69.5c-.64.17-1.36.22-1.6,1-.89,1.29-2.73,1.07-3.63,2.32a3.11,3.11,0,0,0-.53.22l-.55.06c-1-3.42-2.14-3.62-7.23-1.6-2.09,0-.6-2.44-2-3-.91-.82-1.85-1.61-2.82-2.36.18-.74.08-1.86,1.49-1,1.21.73,2,0,2.71-.78-.64-.55.12-1,.09-1.53h0l1.47-.65a2.15,2.15,0,0,1,.1.27,1,1,0,0,0,1.31-.22c.9-2.28,2.3-3.71-1.95-5.13-3.29-1.09-4.84-1.31-6.78,1.22L202,28l-.75.69-6.43-.15h0l-3.54-1.49L190,26.24c0-.19-.07-.37-.11-.55A1.66,1.66,0,0,0,189,25a1.77,1.77,0,0,0,.91-.28c.93-1.3-.09-2.33-.5-3.44l1.37-.73,1.54-1.35,1.3,0c1-1.55,2.79-2.9,1.12-5-1.29-.63-2.77.1-4.07-.53a1.86,1.86,0,0,0-.35-1.66,1.57,1.57,0,0,1,0-.61,3.88,3.88,0,0,0-2.07-1,1.33,1.33,0,0,0-.31-.18l-.13-.07c.34-.37.77-.76.73-1.08-.09-.61-.74-.15-1.15-.12a2.63,2.63,0,0,0-2.1.9,2.1,2.1,0,0,0-.24.06,31,31,0,0,0-3.73,2.48c-.09.14-.15.26-.22.39l-.83.39c-2.76.84-4.89,2.3-5.45,5.37a1.42,1.42,0,0,0,.12.13h-.59c-1.37.25-2.83.26-3.93,1.31a5.18,5.18,0,0,1-2,1.26,2.56,2.56,0,0,0-.66.73,2.9,2.9,0,0,0-.26,2.86,1.14,1.14,0,0,0,.23.15,2,2,0,0,0-.81.12,6.71,6.71,0,0,0-.84.44l-.31.19a3.21,3.21,0,0,0-2.39,1.19l0,0c-1.08.87-1.92,2.13-3.53,2.1-.72,1.43-2.8,2.12-2.32,4.21l-.8.66c-1.61-.26-3.86-1.5-3,2-1.42.19-2.93-.17-4.24.7a1.26,1.26,0,0,0-.41,1.36.43.43,0,0,1,0,.07,4.68,4.68,0,0,1-2.56.73c.33,2.49-2.24,3.09-3.11,4.8s-2.79,1.85-4.23,2.69a2.37,2.37,0,0,0-1.26-.33,2.52,2.52,0,0,0,1.85-2.72,6.16,6.16,0,0,0-.85-2.4l0,0,0,0c2.35.24,3.91-2.18,6.26-1.94a1.81,1.81,0,0,0,.28-.93,1.37,1.37,0,0,0-1.19-1.12.81.81,0,0,0,.31-.91c3.18.83,3.7.44,3.18-2.55a2,2,0,0,0,2.48.68,1.64,1.64,0,0,0,.42-.89,1.42,1.42,0,0,0,0-.2c.63-.61,1.25-1.23,1.87-1.85s1.92-.34,2.63-1h.08a2,2,0,0,0,.68-.42,1,1,0,0,0,.12-.17l2.95-1.2.87-2a1,1,0,0,0-.41-1.67c-.06,0-.1,0-.16,0l.55-.91a1.19,1.19,0,0,0,.78-.3l.63-.76c.41-.79,1.62-.94,1.6-2.05v0l1.34.07h1.29a1.88,1.88,0,0,0,.12.18,2.35,2.35,0,0,0,2,.34,1.63,1.63,0,0,0,.79-.6c.1-.92.19-1.84.28-2.76,1.1-.56.53-1.12.18-1.68L169,16a3.33,3.33,0,0,0,.71-.91,3.22,3.22,0,0,0,2.48.62.52.52,0,0,0,.26-.21,1.76,1.76,0,0,0,2-.42c-.22-.79-1.36-1.05-1.17-2.07.73-.39,1.47-.77,2.21-1.15a2.26,2.26,0,0,0,.52,0,6.25,6.25,0,0,0,1.88-1.19l.32.28,1.47-2.13a1.44,1.44,0,0,0-1.38.54h0a2.62,2.62,0,0,0-1.18-.69l-.1,0a1.71,1.71,0,0,1,.51-.53l.77-.23c1.32-.92,2.92-.9,4.4-1.29l.15-.19a2.25,2.25,0,0,0,1.8.3c1-.67,0-2,.91-2.71l.7-.72c1.18-.43,1.89-1.38,1.19-2.42-1-1.42-2.57-.53-3.92-.47a.87.87,0,0,0-.31,1,1.42,1.42,0,0,0-.4.31c-1,.06-1.94-.67-2.93,0-1,1.56-3,2.16-3.75,4-1.48.69-3.13,1.17-3.7,3-1.74,1.53-4.42,1.4-5.93,3.33-3.61,1.59-3.74,2.15-1.19,5.19a4.12,4.12,0,0,1,.32.41l-.49,0c-.72-.45-1.45-.89-2.18-1.33-2.49.82.48,1.39.1,2.12h0l-.89.6h0c-1.52-1-4-.4-4.9-2.53a9.26,9.26,0,0,0,1-.6,2.21,2.21,0,0,1,.34-.18c.66.36,1.26.56,1.4-.6l.13-.06c.31-.29.44-.7.77-1l.12-.55a1.83,1.83,0,0,0,.6-.19c1.34-.17,1.91-1.35,2.78-2.13h0l.45-.64.42-.81A21.31,21.31,0,0,1,168.33,6a1.54,1.54,0,0,0,.4-2.2,2.28,2.28,0,0,0-2.23-.65c-1.45.14-1.86,1.28-2.53,2.22-2.66,1-4.57,3-6.55,4.92-5.08,2-8.6,6.13-12.6,9.58h0l-1.36.7c.16.22-.11.83.18.94a6.09,6.09,0,0,1-3.11,1.86l-2.9,2.88a13,13,0,0,0-5.11,4.18c-3.91,2.16-7.91,4.18-10.41,8.14C120,40.08,117,40.7,117,44.11c-3,1.74-6.53,2.56-8.59,5.67-.89,1-2.13,1.68-2.64,3,0,0,0,0,0,0l-1.62-.07a3.11,3.11,0,0,0,.49,2.64h0c-.79,1.65-2.09,1.06-3.3.86a1.67,1.67,0,0,0-.37-.47C97.76,58.39,94.2,60.59,92,64.2a1.44,1.44,0,0,0-.53.14c-.89,1.31-3.14,2-2.24,4.14h-.09l-1.72.13a3.19,3.19,0,0,1-.26-.26.57.57,0,0,0-.77.17c-1.81.69-2.35,3.1-4.5,3.32-2.28.88-3.7,2.29-3.06,5-3.17-1-4.6,1-5.88,3.36a1,1,0,0,0-.6.06c-.39.39-1,.61-1.06,1.26,0,.06,0,.12,0,.18a2.13,2.13,0,0,0-1.12.66c-1,1-2.79,1-3.12,2.7h0q-2.1,1.41-4.18,2.84c0,.71,0,1.42-.07,2.14a2.56,2.56,0,0,0,1.92.57,5,5,0,0,0,2.28-1c.05-.09.08-.18.12-.27s0,0,0,.07a.22.22,0,0,1,0,.08,1.36,1.36,0,0,1-1.42,1.41l-.89,1.27c-.06,0-.1.1-.15.3,0,0,0,0,0,.08a6.76,6.76,0,0,1-.79.43,2.62,2.62,0,0,0-.1-.45l-.31-.36c-1.87.87-4.49-.41-5.8,2-.77.38-.15.88-.12,1.32-1,.08-2,0-2.07,1.4.76,0,1.59.36,2.12-.52l1.37,0a1.12,1.12,0,0,0,.92.23A4,4,0,0,1,59,97.86l0,0a2.09,2.09,0,0,1-.1.6c-.8,0-1.67-.17-2.22.67-.41.36-1.08.57-.76,1.34-.59,1.22-2.25.21-2.86,1.39l-.78.64h0c-1.31.6-1.85,2-2.85,2.89,0,.44-.07.88-.11,1.32l-3.57,2.84c0,.24,0,.49-.07.73a7.44,7.44,0,0,0-5,1.3c-.83-.53-.68-1.38-.7-2.18l-1.34,0c.89,1.64-1.22,3.2-.14,4.85a5.64,5.64,0,0,0-.37,1.64,1.35,1.35,0,0,0-.35-.06c-.27.6,0,1.83-.89,1.7-4.4-.63-.53,1.64-.89,2.4l-1.35.69h0c-.94-.12-1.9.84-2.82,0,0-.43,0-.86,0-1.29l-1.37-.23-.87,1.43h0c-1.13-.2-2.24.67-3.38,0,0,1.3-.54,2.8,1.2,3.52L26,125.51l-.72.07h0l-2.16.48c-.47.51-.95,1-1.41,1.53-1.28,1.74.9,1.9,1.3,2.87-.07.17-.13.34-.19.51l-1.05.05a2.63,2.63,0,0,0-.06-.39c-2.73-1.75-1.52,1.27-2.28,1.89-1.52,2.63-1.52,4.76,1.91,5.74.77.28,1.52.47,2.14-.08a.81.81,0,0,1,0,.16h0c.26.43-.69,2.07,1,1a3.24,3.24,0,0,1,2.43-.06c1.4,1,3.57,1.68,2.15,4.17l-1.38.79c-1.08,3.21,2.23,3.89,3.35,5.84a1.78,1.78,0,0,0,.45-.36l.83.89h0c-.73,1-1.69,2,0,3,.75.21,1.49,1.22,2.23,0,1.18-.22,2.44.16,3.55-.54,0-.17,0-.34,0-.51l0,0a.91.91,0,0,1,.17-.17c.69.3,1.37.94,2.08.55a.72.72,0,0,0,.6-.13A6.89,6.89,0,0,0,43,151.71a.53.53,0,0,0,.23-.38c1.15-.24,2.25-.93,3.47-.28l1.36.3c-.22,1.93-.25,3.91-1.48,5.57l-.8.64-.73,0a4,4,0,0,1-.57,2.36,1.93,1.93,0,0,1-.3.27,1,1,0,0,0-.08.22c-1.41.31-1.11,1.24-.69,2.21l-2.75,3.5c-1,1.61.08,1.82,1.3,2a2.72,2.72,0,0,0,.63-.2l.71,1.2c1,.46,2-.77,3-.09l1.35.07a2.44,2.44,0,0,0,2.56.62,3.74,3.74,0,0,0,.64-.43,1.24,1.24,0,0,1,1,.75l2.44-1c-.3-1.43-2.55-.78-2.25-2.53,1.43-.83-.43-2,.24-2.84h0c1.64.11,2.47,1.72,3.95,2.12-.1-2.07,2.7-3.27,1.66-5.61.94-1,2.41-.79,3.5-1.47,2.91-.87,2.16-2.87,1.62-4.79h.06l1.45-.65h2.12c.54-1.32.19-3.17,2.14-3.67.79-.74,1.81-.38,2.72-.55,0,0,.07.12.11.17a.74.74,0,0,0,.89,0c.28-1.75.3-3.57,1.53-5,1-.71,2.71-1,2.15-2.74l.17,0h0c.86.21,1.4-.49,2.1-.76a5.33,5.33,0,0,0,.66.17c.3.62.91.61,1.46.71.78-.74-.15-1.48,0-2.22L82.2,137a10.16,10.16,0,0,0,3.7-1.89h0l1.48-.47a3.69,3.69,0,0,0,.64-.21l.72,0a1.55,1.55,0,0,0-.74-1.57c-1.14-.66-2.25-1.23-3.06-.24a4.48,4.48,0,0,0-1.75,0c.63-1.53,2.13-1.12,3.34-1.38a1.57,1.57,0,0,1,.79-1.3s.05.09.08.14c2-.8,4-.66,6.07-.63a3,3,0,0,0,.58.33,1,1,0,0,0,.83-.38c1.57-1.32,2.18-3.32,3.38-4.9l.63-.69c.77-.79,1.62-1.55,1.06-2.73l1.36-.62,2.73-.76c-.19-.74-.3-1.42.83-1.37l0-1.86a1.84,1.84,0,0,0,.6-.51,20.51,20.51,0,0,1,1.16-1.9c.29,1,.46,2,1.87,2.22.09-.2.18-.41.28-.62a2.91,2.91,0,0,0,1-1,12.16,12.16,0,0,0,.63-3.37,4,4,0,0,0,4.06-3.35l0,0,2.16-2.12c-.24-.6-.78-.72-1.34-.8.25-.45.5-.9.74-1.35a1.24,1.24,0,0,0,1.43-1.41.28.28,0,0,1-.15.25.87.87,0,0,0,.15-.25l.06.06c1.51.38,3.08,1.25,4.24-.65.71,1.08,1.85.66,2.82.82.1,1.29-1,1.9-1.55,2.85a2.16,2.16,0,0,1,0,.57c-.47,1.08-2.3-.29-2.66,1a3.27,3.27,0,0,0-1,.53,31.6,31.6,0,0,0-2.15,2.74,5.32,5.32,0,0,0,0,.69c-.2,1.38-.25,3-2.3,1.44-.19-.3-.41-.33-.66-.08l-.63,4.15-.28.25a7,7,0,0,0-.66,1.28,1.23,1.23,0,0,0-.06-.22,2.39,2.39,0,0,0-.93-.46c-1.6-.31-2.12.85-2.68,2-1.06.6-2.33.88-3,2.05-.28,1.08.32,1.32,1,1.45-.52.29-1,.69-1.48,1-.34.22-.69.43-1,.63a1,1,0,0,0-.08-.14l-.08.23-2,1-3,2.09c-.22,1-1,1.76-.83,2.82-1.24-.28-2,.59-2.85,1.22a3.3,3.3,0,0,0-1.45,2.26l-2.37,1.91a13.12,13.12,0,0,1-3.55,3.61l-3,2.77c-.69.5-1.39,1-2.07,1.49v0c-1.27,2.78-3.9,4.26-6,6.28l-2.44,2.69c-1.74.16-2.06,1.68-2.74,2.87A6.87,6.87,0,0,0,70,158.19l-.61.78c-.72.63-2.43,1.06-1.59,2.19,1.15,1.56.86,2.49.11,3.3a1.92,1.92,0,0,0-1.16.87,1.41,1.41,0,0,1-.06.22l-.24.21a9.73,9.73,0,0,0-1,1.09,3.58,3.58,0,0,0-1.12.78,1.62,1.62,0,0,0,0,.22l-1.92,1.76c-.27.1-.33.37-.33.69a5.4,5.4,0,0,0-2.56,2.11.89.89,0,0,0-.33.45l-.12.17-.63.57c-.5.1-.72.34-.76.68l-.9.81a1.11,1.11,0,0,0-.3.93c-.57,0-1.06.22-1.15,1.16.11.36.21.72.32,1.08a2.92,2.92,0,0,0,1.28.75,2.67,2.67,0,0,1-1.86-.56c-1.06-.81-1.47.61-2.28.67-.39.7,0,1.22.42,1.73.61.35.55.86.34,1.39l.23.21-.12.05a1.21,1.21,0,0,0-.39,1.25.69.69,0,0,0-.77.22,2.51,2.51,0,0,0-.77-1.27,3.51,3.51,0,0,0-1.61-1.23c-1.82.41-1.73,1.47-.94,2.78a1.11,1.11,0,0,1,.39,1.21L48,184.12c-.65,1.17-.26,1.65.93,1.57a.52.52,0,0,0,.25.56,1.26,1.26,0,0,0,0,.61.91.91,0,0,0,.08.13c-.75.81-1.67,1.55-1.5,2.76a3.21,3.21,0,0,0-1,.4l-.06.06s0-.07,0-.11a4.78,4.78,0,0,1-.57.12c-.44.51-1.11.81-1.32,1.51l-.07,0a.59.59,0,0,0-.06.28c-.58-.86-.18-2-.33-3a4.4,4.4,0,0,0-.12-.81,1.94,1.94,0,0,1,.27-2.46,1.94,1.94,0,0,0,0-.83,2.23,2.23,0,0,0-1.9-1.47,2.58,2.58,0,0,0-2.05.25,2.74,2.74,0,0,0-.46.7c-.59,1.33-.82,2.73.33,3.81,2.22,2.1,1.8,4.43.88,6.88a.94.94,0,0,0,.45.93,3.47,3.47,0,0,0-1.72.14A13.3,13.3,0,0,0,36,199.64a6.41,6.41,0,0,0,.64,2.69,2.2,2.2,0,0,0,.41.67.06.06,0,0,0,0,0,5,5,0,0,0-2.93-.29c-1.42.4-2.82.83-3.18,2.55a.76.76,0,0,0,.06.16.9.9,0,0,0-.6.1c-.54.51-1.11,1-.75,1.69a4.25,4.25,0,0,0-2.05.6c-.64.51-1.17,1.05-.72,2a.15.15,0,0,1,.06,0h0l-.35-.06a1.52,1.52,0,0,0-.48.5,5.57,5.57,0,0,1,.27-1.64c.21-1.47-.59-1.42-1.59-1.08a1.85,1.85,0,0,0-.55.63c-.23,1.2-1.3,2.44.14,3.58l-.3.62-.27.17c-1.15.76-2.8.94-3.12,2.66,0,.08.05.15.07.22l-.66.62c-.29.49-.58,1-.88,1.47l-2.67,1.38-.54.75a1.83,1.83,0,0,1,.25.48l-.53.24-.18.15a1.54,1.54,0,0,0-.32-.3c-.51.49-2-.18-1.62,1.37.09.39.19.77.29,1.16l1.19.65a.62.62,0,0,0-.15.87l-.36.74c-.74.21-1.62.32-1.71,1.27-.05.53.52.73,1,.81-.39.53-.72,1.42-1.2,1.53-3.87.82-2.33,3.25-1.72,5.42l.54-.24c2-.35,3.76.05,4.1,2.38a6.87,6.87,0,0,0,.49,2.5c.44-.1.84-.25,1-.77.58-.23,1.22-.41,1.45-1.11l2-1.68,1.68-.56c1-.87,2.41-1.09,3.13-2.3-.07-.1-.15-.19-.23-.29h.09a4.36,4.36,0,0,0,2.49-2h0c.83-.93,2.06-1.12,3.1-1.66.2-.39.4-.78.59-1.17h0a.66.66,0,0,0,.4-.15c1-1.18,2.28-2.16,2.65-3.79l1.56-.6a4.4,4.4,0,0,0,0-.51l.41-.7c.76-.32,2,.24,2.09-1.26l1.76-.43,1.54-.61c-.07-.36-.13-.72-.2-1.07l3.17-1.57q.2-.31,0-.45a.67.67,0,0,0,.12-.42,1.7,1.7,0,0,0-.26-.5c.26-.39.59-.53,1.1-.14l.38-.7h0l.52-.13.9-1.43a3.29,3.29,0,0,0,2.57-1.94c.94-1.6,2.67-.58,3.92-1.17h0a10.52,10.52,0,0,0,4.6-3.58,1.1,1.1,0,0,0-.25-1.17l-.25-.06.07-.06.28-.27c.07-.11.14-.22.2-.33a1.09,1.09,0,0,1,.05-.14,7.34,7.34,0,0,0,1.32-1.4,3.51,3.51,0,0,1,1.2-.13,2.71,2.71,0,0,0,1.17-.33,1.79,1.79,0,0,0,.55-.61,1.26,1.26,0,0,0-.13-1,1.72,1.72,0,0,0,1.48-.16,4.58,4.58,0,0,0,.43-.34l.77.17c1.32-.84,2.35-2,3.65-2.9a2.71,2.71,0,0,0,.51-.61,2.18,2.18,0,0,0,.16-.79c0-.08,0-.15,0-.22a1.56,1.56,0,0,0,1-.28,1.27,1.27,0,0,0,.47-.88h0a2.17,2.17,0,0,0,1.79-.76,3.18,3.18,0,0,0,.62-1,1.2,1.2,0,0,1,.29-.49c.68-.23,1.4-.45,1.28-1.55l-.24-.6h0l.57-.16c0,.08.1.14.14.22a1.87,1.87,0,0,0,2.1-1.09,1.56,1.56,0,0,0,0-.83c0-.05,0-.1-.08-.14v0a.77.77,0,0,0,.29-.17l0,.07V188c.35,0,.54-.14.56-.35a1.67,1.67,0,0,0,1.1.67,2.42,2.42,0,0,1,1.44.5,1.42,1.42,0,0,1,.44.31L76,195.11c0-.16,0-.33,0-.5-1.06.09-.5,1.26-1.1,1.66v0l-.1.1-.73.72c-1.35.84-2.8,1.58-3.06,3.4l-1.3.81a5.78,5.78,0,0,0,.42.73l-.27.56-.05,0c.19.57.39,1.14.58,1.7L70,205c.08.29.17.58.26.87a9.51,9.51,0,0,1-.77,1l-1.41,0a4.92,4.92,0,0,0-1.59,2.73l.16.17h0l-.14-.17a3.37,3.37,0,0,0-2.75,2.21l1.09.76a.9.9,0,0,0-.2.14c-.65,1-.93,1.93.39,2.62h0a4.23,4.23,0,0,0,4.92.26l.74.71A4,4,0,0,0,74,217a3.88,3.88,0,0,0,1.67-1c0,.15,0,.3,0,.45-.59.71,0,1.2.41,1.74-.32.09-.58.44-.87.67a1.57,1.57,0,0,0-.35.11l-.19.16a1,1,0,0,0-.92-.08l.06-.36c-.63-.65-1.12-1.53-2.26-1.23l-.46.22c-1.34.9.5,2.18-.37,3.14a1.54,1.54,0,0,0,.51,1.69l-.05.21c-.27.43-.37.79-.24,1a.06.06,0,0,1,0,0h0c-.14.25-.28.5-.43.75.33,1.41-.83,1.8-1.66,2.42l1.23.21a2.71,2.71,0,0,0,2.45-1.11A3.34,3.34,0,0,0,74,227.22a1.6,1.6,0,0,1-.65.33.77.77,0,0,0-.15.55c-.54,0-1.12-.16-1.48.5l.18.56,1.47.8c.46-.54.93-1.07,1.39-1.6l.44-.25c0-.14,0-.28,0-.42l.3.11.06,0c.3,1,.72,1.82,1.62,1.47a1.26,1.26,0,0,0,.33.16,3.33,3.33,0,0,0,.46-.24c.14,1,.49,1.85,1.75,2a1.74,1.74,0,0,0,1.34-.29c0-.53,1.29-.6.44-1.54s-2.16-1.95-2.43-3.48l-.2-.23.16,0h0l0,.27a13.48,13.48,0,0,0,5.78-.57,1.28,1.28,0,0,0,.16-1.48l-.16-.05a1.32,1.32,0,0,0,.21-.25h0c0-.08,0-.16,0-.24a4,4,0,0,1,1.63-2.15c.16,1-1,2.47,1,2.8l1.54-1.3a3.88,3.88,0,0,1,.74-2.91h0L92,217.91l.07,0h0a.88.88,0,0,0,1.17-.34c.15-.25.29-.49.45-.74a1.17,1.17,0,0,0-.1-1.11c0-.31,0-.62,0-.92l.76-.73c.44-.48,1.18-.17,1.61-.63a1.43,1.43,0,0,0,0-.89s0-.05,0-.07c2.11-1.47,4.57.85,6.65-.87.17,1.32-1,1.29-1.14,2l.6.61h0c-.9,1.57.73,1.67,1.37,2.34l.32.64h-.26c.5,1.42-1.15,1.25-1.5,2l-.32.34a3.06,3.06,0,0,1-.49-.15c-.47.14-1,.21-1.22.75,0,.17-.07.34-.11.51a3.42,3.42,0,0,0-.63,1.42c-1.3-.41-2.59-.65-3.9.46a1.46,1.46,0,0,0-.64,1,2,2,0,0,0,.07.35l-1.41.45c-.17.19-.33.39-.49.59l-.08.11a9.52,9.52,0,0,0-2.47,2c-1,.06-1.65.4-1.42,1.56-.17,0-.35.09-.53.12a.52.52,0,0,0-.66.08.73.73,0,0,0,0,.2l-1,.26a2.36,2.36,0,0,0-1.36.63,2.3,2.3,0,0,0-.19.33,3.05,3.05,0,0,0-1,.69,1.64,1.64,0,0,0-.18,1.64.47.47,0,0,0,0,.14.57.57,0,0,1-.22-.34,21.62,21.62,0,0,0-4,2.15,1.59,1.59,0,0,0-.38.74,2.18,2.18,0,0,0,.14.84l0,0a3.31,3.31,0,0,0-2.85,2.78,4.27,4.27,0,0,0-.41.44,3.5,3.5,0,0,1-.24.3l-1.14.33-.3,1.28h0c-1.35-.4-2.12.22-2.58,1.43v.08c-.52.2-1,.46-.93,1.13a1.24,1.24,0,0,0-1.17.42l-.86,1.11s0,0,0,0a2.36,2.36,0,0,0-.15-.25,1.85,1.85,0,0,0-2,1.32l-.88,1c-.89.76-2.11,1.2-2.41,2.52h0l-1.39,1.56a.75.75,0,0,0-.29-.16,1.82,1.82,0,0,0-1.43.71c-.47.54-.94,1.07-1.4,1.62-.29.68-1,1-1.38,1.62h0c0,1.46,1.43,2,2,3.06-1.53-.19-1.42.86-1.54,1.74l-.16.07a2,2,0,0,0-.6.57.75.75,0,0,0,0,.15l-.7-.39c-2.43-.62-2.81,1.3-3.5,2.83h0c-.23.72-1.28.33-1.5,1.08a1.5,1.5,0,0,0,.48,1.71c.05.39-.43.92.29,1.14.47,2.4,1.79.3,2.68.5l.92-.9c.55-1.41-1.3-1.61-1.36-2.71.85-.53,1-2.41,2.68-1.36-.48.44-1.18,1.07-.88,1.6.5.84,1.28-.07,2-.11,1-.07,1.47-.78,1.82-1.58l.11,0a.55.55,0,0,0,.57-.36c.37-.17.6-.8,1.16-.34,1.55.55,2.75-.35,4-.93a1.65,1.65,0,0,0,0-1.27,1.37,1.37,0,0,0-.16-.18c.49-.2,1.13-.17,1.47-.62a1.31,1.31,0,0,0,.59-.42c.24-.71,1.19-.42,1.47-1.06.86-.24,1.62-.56,1.49-1.67a2.38,2.38,0,0,0-.34-.49c0-.92.21-1.54,1.59-1.13.12-.89.83-1.18,1.51-1.5a1.15,1.15,0,0,0,.15-.2l.86-.25A1.34,1.34,0,0,1,75,251h0c2.33.05,3.47-3,6.05-2.34a1.19,1.19,0,0,1,.85-1.44,1.1,1.1,0,0,0,.17-.79,2.32,2.32,0,0,0-1.26-1.38,1.29,1.29,0,0,0,.59-.76l.29-.07,1.29.25.56.31c-.81.8-1.28,1.65-.39,2.73l.24.53c1-.1,1.26-.77,1.41-1.58a2.47,2.47,0,0,0,.46-.23A1.84,1.84,0,0,1,86.94,244a1.17,1.17,0,0,0,.33.54c.73.29,1.34.25,1.63-.62,0-.59-.54-1.27.68-1.4a3.84,3.84,0,0,0,3-1.35,4,4,0,0,1-.2-.35l-.11-.08L91.94,239h0l1-.35h0c.86.76,1.64,1.25,1.78-.5h0a2.06,2.06,0,0,0,.48-.21,1.73,1.73,0,0,1,1.79-.43,2.52,2.52,0,0,1,.54-.14,2.22,2.22,0,0,0,.08-1l.41,0,1.42-.59a1.21,1.21,0,0,1,0-.19l.09,0,1-.42a2.58,2.58,0,0,0,0-.39l1.2-.34c1.12-.19,3.16.8,2.45-1.71,1-.84,2.47-.81,3.27-1.91a2.62,2.62,0,0,0,.52-.22l.64-.06c.18-.08.35-.18.52-.27a.93.93,0,0,1,.1-.91,24.88,24.88,0,0,1,2.47-.34,2.56,2.56,0,0,0,.13.67c1.51,1.23,3.51-.53,5,.8a1.37,1.37,0,0,0,1.5-.58,2.68,2.68,0,0,0,.63-.11c1.53.19,1.08,3.46,3.52,2.26l2.1-1.08,2.39.31a.84.84,0,0,0-.29.8c-.75-.07-1.1.54-1.49,1.08,0,.11,0,.2-.08.31a1.17,1.17,0,0,0,.2.73l-.84.75c0,.19,0,.39,0,.58a.63.63,0,0,0-.63.21.94.94,0,0,0,0-.16,1.39,1.39,0,0,0-1.39-.13c-.55.46-.32,1.26-.77,1.76l-4.37,4.66c.49.51,1,1,1.46,1.52h0c0,.24,0,.49-.05.74.21.75.62,1.23,1.48,1.14.64.12,1.09-2.91,2-.12.11.38.72.4,1.18.43a.84.84,0,0,0,.08.43,2.17,2.17,0,0,0,.68.67,1.77,1.77,0,0,0-1.4.37s-.09.09-.11.29a.52.52,0,0,0,.23.49c1.19-.12,2.27,1.76,3.54.21,2.29-1.22,2.29-1.22.84-2.22h0c.9-2.36,3.77-1.64,5.12-3.3l1.54,1.08a9.3,9.3,0,0,0-1.46,1.27.73.73,0,0,0-.29.15,1.52,1.52,0,0,0-.63.9c-.47.58-.92,1.18-1.39,1.76-.66.58-1.3,1.17-2,1.72q-6.34,5.25-12.69,10.47c-3,3-6.71,5.08-9.78,8l-1,.83c-.26.55-.51,1.11-.77,1.66,1,.17,1.3-1.11,2.35-.69-1,1.35-2.76,1.79-3.56,3.62,1.66-.21,2.63-1.41,4-1.41,1.57-1.12,3.58-1.6,4.8-3.25,1.06-.86,2.7-1,3.25-2.49l1-.39c3.26-2.1,6.39-4.36,9.79-6.25s6.89-3.6,9.76-6.29h0l.46.05c.92-1.42,2.84-1.52,3.81-2.87,3.14-.72,5.63-2.77,8.4-4.23a4.3,4.3,0,0,1,3.39-.6c-1,1-1.91,1.77-2.79,2.57-1.25.43-1.82,1.61-2.68,2.47a1,1,0,0,0-.41-.15c-.62.07-.92.54-1.22,1l-.54.41c.41,1-.31,1.69-.59,2.3a16.23,16.23,0,0,0,5.73-.66c.89-.44,1.93-.67,2.35-1.75a.85.85,0,0,0-.07-.39c1.82.21,2.62-1.41,3.87-2.2.05-.07.11-.13.15-.2a2.53,2.53,0,0,0,2.12-.7l.55-.41c.63.59.25,1.3.23,2l-.54.43c-.77.48-1.17,1.46-2.16,1.66l-1.07.84-2.76,2.55c.75.59,1.31,0,1.83-.36s1-.66,1.65-.15a14.45,14.45,0,0,0,3.77-2.92l.34,0s0,0,0,0a2.16,2.16,0,0,1-.78,2.88c-.49.4-1.66,1.08-.16,1.8,1.63-1.05,3.23-2.13,4.79-3.27l3.82-3.4c0-.15.05-.31.07-.46a18.92,18.92,0,0,0,4.64-3c5.77-4.7,11.85-9,17.5-13.89,2.14-1.84,4.35-3.59,6.58-5.32A3.41,3.41,0,0,0,197,226.18Zm93.18-74.63-.17.13a.57.57,0,0,0,0-.18Zm6.34-12.16-.21.23-.05-.09h0Zm-5.94,3.35h0l0,0Zm-5.5,4.1c-.33.31-.42.24-.43.08Zm4-77.69a1.28,1.28,0,0,1-.18.53A1,1,0,0,1,289.06,69.15Zm-1.09,8a1.07,1.07,0,0,0-.07-.32.86.86,0,0,0,.35,0,7.91,7.91,0,0,1-.44.68A1.59,1.59,0,0,0,288,77.14Zm-.5.78c-.1.1-.18.22-.29.32a.29.29,0,0,0,0-.09A3.55,3.55,0,0,0,287.47,77.92Zm-6.18-19.51a1.09,1.09,0,0,0,.53-.39,4.67,4.67,0,0,0-.18,1,1.75,1.75,0,0,0-.6,0A3,3,0,0,0,281.29,58.41ZM271.94,69c-.27.1-.57.17-.83.29a3.27,3.27,0,0,0,0-.44A1.45,1.45,0,0,0,271.94,69Zm-16.52,2.22c0-.08,0-.16-.07-.24h.14A2,2,0,0,0,255.42,71.26ZM253.77,50l-.26.2-.34.08A1,1,0,0,1,253.77,50Zm-7.87,5.53h0a.35.35,0,0,1,.06.14l-.18,0A.83.83,0,0,0,245.9,55.52Zm-1.05.62a2.38,2.38,0,0,0-.32.38.91.91,0,0,0-.1-.43A2.09,2.09,0,0,0,244.85,56.14Zm8.79-32.74a1.61,1.61,0,0,0,1.18-.3l.05-.06a2.27,2.27,0,0,0,1.9-.28,4.82,4.82,0,0,0,2.09-2.8.91.91,0,0,0,.63-.05,1.73,1.73,0,0,1-.15.49,2.21,2.21,0,0,0-.22,1.87c-.51.42-.38,1.46-1.21,1.58,0,0,0-.06,0-.09-.05-.18-.11-.35-.17-.52-1.5-.49-1.7,1.51-2.93,1.52-.06,0-.1.07-.15.1a2,2,0,0,1-1.22-1.57A.9.9,0,0,0,253.64,23.4Zm-2.26,7.82h0Zm1.77-9.41a.64.64,0,0,0-.64.39,1,1,0,0,0-.21-1C252.76,21.23,253.53,20.9,253.15,21.81Zm-.93,1.11c.06-.13.12-.25.17-.37,0,.17-.07.35-.1.53s0,.24-.07.36a1,1,0,0,1-.6-.24A1,1,0,0,0,252.22,22.92Zm-.91,0a.36.36,0,0,0,.12.18h-.24Zm-10,10.53a.62.62,0,0,0-.24.41,2.48,2.48,0,0,1-.52-.82A4,4,0,0,0,241.33,33.48Zm-7.13.12h0l-.09-.09Zm-3.76,6.71a2.29,2.29,0,0,1,.23-.16,2.59,2.59,0,0,0,.27-1.7,1.37,1.37,0,0,0,1.23-.33c0-.12.06-.24.09-.37l0,0a1,1,0,0,0,1.13.55,1.42,1.42,0,0,0,.3-.25.84.84,0,0,0,.6-.06c.67-.79,1.41-1.54,1-2.69a2.91,2.91,0,0,0,.51.22,2.44,2.44,0,0,1,1.09.75,6.67,6.67,0,0,0,.82.86,1.93,1.93,0,0,0-1.62.42c-.32,0-.4.24-.41.54l-.84.19c-.08.33-.15.66-.23,1a.52.52,0,0,1-.13-.06,1.28,1.28,0,0,0-1,.72c-.56,1.14-1.79.93-2.7,1.38C230.15,41.17,230.43,40.7,230.44,40.31Zm-8.94,2.42s0,0,0,0l.94-.23a.83.83,0,0,0,.24.92,2.26,2.26,0,0,0-.54,1.17c-.06-.62-.56-1-1.07-1.38A.82.82,0,0,0,221.5,42.73Zm-.85,2.94h0l0,0a1.63,1.63,0,0,0,.22,1.18L221,47a.65.65,0,0,0-.28,0,2,2,0,0,0-.66-.75A1.28,1.28,0,0,0,220.65,45.67ZM208.8,48.48a.17.17,0,0,0,0,.07l-.16,0Zm-45.54-41,.1,0-.12.06h0S163.25,7.55,163.26,7.52Zm-9.63,11.26a2.68,2.68,0,0,0,.18-.64.79.79,0,0,0,.61.12c.51-.34.9-.73.73-1.35a3.21,3.21,0,0,0,.69-.05,1.64,1.64,0,0,0-.12,2h0a5.88,5.88,0,0,0,1.6,1.83,8.12,8.12,0,0,0-.67.48.89.89,0,0,0-.38-1,.92.92,0,0,0-1.25.13l-.79.6.08.1h-1.1a1.94,1.94,0,0,0-.2-.21,1,1,0,0,0-.44,0A11.74,11.74,0,0,1,153.63,18.78Zm-2.38,7.77h.05l-.06.05A.09.09,0,0,1,151.25,26.55Zm-5.91-.33c.33-.51,1-.84,1-1.53l.29,0a2.33,2.33,0,0,0,1.35-.95.75.75,0,0,0,.52.15l.22-.08c.67.36,1.56.56,1.4,1.51s-1.14.48-1.78.59a1.23,1.23,0,0,0-1.44.57c-.75.45-1.31.4-1.73,0C145.24,26.36,145.29,26.28,145.34,26.22Zm-4.77,4.7a15.91,15.91,0,0,1,.55,1.78,2.38,2.38,0,0,0,1.62,1.54c-.08.13-.15.27-.22.39h0a1,1,0,0,0-.82.26,3.73,3.73,0,0,1,.16-.35c-.25-.7-.56-1.3-1.43-1.12a1.53,1.53,0,0,0,.13-.32A3,3,0,0,1,140.57,30.92ZM26.62,137.05a2.19,2.19,0,0,0-.1.34,1.3,1.3,0,0,0-1.33.05,8.83,8.83,0,0,0,0-.89,2.3,2.3,0,0,0,1.43.42Zm3.7,1.59a2.09,2.09,0,0,1-.46-.28,1.47,1.47,0,0,1,.12-.55,1.34,1.34,0,0,1,.45-.09c.27,0,.55,0,.82,0h.05c.63.41,1.31.79,1.37,1.61C31.89,139.12,31.08,139,30.32,138.64Zm3.23,8.48c-.7,0-1,.45-1.37,1,.13-.84.9-1,1.52-1.27A1.77,1.77,0,0,0,33.55,147.12Zm1,2.95-.08-.13.13.08ZM33.8,144c-.1-.5.05-1,0-1.52a.8.8,0,0,0,.92-.13h.19C35.1,143.15,34.07,143.38,33.8,144Zm4.66,3.38a1.37,1.37,0,0,0,0-.19l-.12-.27a1.28,1.28,0,0,1,.55-.89,1.62,1.62,0,0,0,.85.57Zm-1.92-12a6,6,0,0,0-.72.48,1.32,1.32,0,0,1,0-.77c.18-.84.3-1.67-.65-2.09A1,1,0,0,0,35,132c1.29-.07,2.33.79,3.5,1.14a1.61,1.61,0,0,0,.36-.27l1.32.7C39.37,135,37.73,134.67,36.54,135.33Zm4.68-3.22.06,0,0,0c-.17-.14-.33-.29-.52-.42a5.36,5.36,0,0,0-1-.34,3.91,3.91,0,0,1,.89-1.22c.23-.2.47-.41.69-.63A3.2,3.2,0,0,0,41.22,132.11ZM41,122.34a2.37,2.37,0,0,0-.43-.57,3.33,3.33,0,0,0,.25-.28,2,2,0,0,0,.08-.22,3.7,3.7,0,0,0,1.48.68A1.69,1.69,0,0,1,41,122.34ZM67.84,87.27v.06h0ZM62.71,112a2.91,2.91,0,0,0,0-.3,3.19,3.19,0,0,0,1.73-.07,1.37,1.37,0,0,1,.48,1.32c-1.43,0-2.36,1.49-3.8,1.46A1.64,1.64,0,0,0,61,114,2.41,2.41,0,0,0,62.71,112Zm-5.09,11.22h0c.63.59,1.83,0,2.42.64a1.68,1.68,0,0,0-1.25.31,1.68,1.68,0,0,0-1.26-.83Zm-7.38-7.8,0,0h0Zm-3.84.69a3.79,3.79,0,0,1-.09,1.11,1.27,1.27,0,0,0-.79-.55C45.82,116.49,46.11,116.3,46.4,116.11Zm.3,30.74a.51.51,0,0,1,.16-.09s0,0,0,.06Zm.21-8.8a6.92,6.92,0,0,0-2.78.35,3.2,3.2,0,0,0-.53.75,1.24,1.24,0,0,0-.18-.14s0,0,0-.08h0c0-.28,0-.56,0-.84.56-.24,1.12-.46,1.69-.65a4.6,4.6,0,0,0,.85-.38,4.49,4.49,0,0,0,1.43-1.48.89.89,0,0,0,.44.15h.09a1,1,0,0,0,.27.3C47.24,136.48,46.36,137,46.91,138.05Zm1.9,10.74a2.77,2.77,0,0,0-.48-.26,3.54,3.54,0,0,0,.57-.22A.59.59,0,0,0,48.81,148.79Zm1.12,1c0-.12,0-.23,0-.36a2,2,0,0,0,.41.13Zm.74-14.08a.83.83,0,0,1-.07-.13h.14A.54.54,0,0,0,50.67,135.66Zm.08-2.62a2.66,2.66,0,0,0-.89-.07h0a3,3,0,0,0-.44-.43,3,3,0,0,0,1.52-1.28,1.54,1.54,0,0,1,1.27.43C51.49,132,50.75,132.18,50.75,133Zm.55-10.32-.21-.09a3.09,3.09,0,0,1-.08.6l-.64.12-3.57-.86-1.8-.58a1.2,1.2,0,0,0-.25-.33,1.87,1.87,0,0,0,.53-.39,2.89,2.89,0,0,0,.25.24,3.58,3.58,0,0,0,2.06.41,2.67,2.67,0,0,0,1.42-.56,1.31,1.31,0,0,0,.11-.12l.23.25c.85.18,1.46,0,1.72-.75a1.79,1.79,0,0,0,.69.12c.94-.32,1.41-1.19,2.09-1.81a2.74,2.74,0,0,0,1-1.81l0,.08c2.22,0-.74,1.19.34,1.45a1.2,1.2,0,0,0,1.18.88,1.37,1.37,0,0,0-.65,1.15c-1.09.35-2.51-.19-3.22,1.17Zm3,12.91,0,0,0,0h0Zm6.11,10.89Zm2.64-6c-.47.34-1,.63-1.17,1.23-1.36-.41-1.64,1.37-2.76,1.48l0,1.22a2.11,2.11,0,0,0-.09.56.76.76,0,0,0-.55.13c-.63,1.14-1.26,2.27-1.9,3.4h0l-1.7.77a3,3,0,0,0-1.54-1.08,2.22,2.22,0,0,0-.68,0,.88.88,0,0,0,.08-.72l0,0a9.45,9.45,0,0,0,1.72-1.74l.06-.1h.79a4,4,0,0,1,.17-.59c2.28-1.25,2.36-1.59.7-2.88l-.07,0v0l.29-.29a1,1,0,0,0-.16-.59l.71-.57a5.47,5.47,0,0,0,3.59-.63,1.62,1.62,0,0,0,1.28-1.35,1.79,1.79,0,0,0-.17-1c1,.73,1.88,1.86,3.28,1.36C64.33,139.5,63.78,140.1,63.08,140.48Zm3.85-22.36a.07.07,0,0,0,0,0l-.17-.08a1.13,1.13,0,0,1,.18,0Zm0,0L67,118l0,0Zm2.45,13.42a4.06,4.06,0,0,0,1,1.3C69.88,132.55,69.38,132.23,69.38,131.54Zm1.41,6.57h0s0-.05,0-.06ZM71,117.82h-.29c0-.46,0-.92,0-1.39a1.43,1.43,0,0,0,1.34.48,1.21,1.21,0,0,0,.12,1.27A4.16,4.16,0,0,0,71,117.82Zm-1.39-12.47.45,1h0l-.75.2c-.9-.34-1.79-1.16-2.72,0l-.62.11-1.43-.1-.07,0c.88-.46,1.4-1.08.91-2.06l.56-.57c.89.15,1.41-.51,2-1,1.21-.51,1.8-1.75,2.86-2.43l.36-.13.61.62c0,.23,0,.47,0,.7a1.9,1.9,0,0,0,.59,1.65A7.72,7.72,0,0,0,69.58,105.35ZM13.92,227.1,14,227h0Zm4.44-6.22ZM19,232.37a1.33,1.33,0,0,0,.06.45,1.66,1.66,0,0,1-1.11-1.4,1.24,1.24,0,0,0-.42-.54c.07-.12.14-.24.2-.36a.37.37,0,0,0,.15-.26h0a1.21,1.21,0,0,1,.72-.7c0,.9.3,1.59,1.19,1.84A2.23,2.23,0,0,0,19,232.37ZM30.26,208.8l.1.06-.16,0Zm-8.86,7.73.09.1A5.71,5.71,0,0,0,23,218.15a6.61,6.61,0,0,0-.6.89,10.18,10.18,0,0,0-.73-.87,4.78,4.78,0,0,1-.45-.45A1.17,1.17,0,0,1,21.4,216.53ZM20.86,231a.48.48,0,0,1,.72-.19Zm3.42-1.58h0a1.94,1.94,0,0,0-.34-.21c-.63-.23-1-.81-1.4-1.25a2.6,2.6,0,0,0-.92-.53,5.31,5.31,0,0,0,1-1,.94.94,0,0,1,.09.12,4.94,4.94,0,0,0,2.61,1.32A4,4,0,0,0,24.28,229.37Zm4.26-5.79a2.76,2.76,0,0,0-.08.27c-.33-.74-1-.76-1.73-.57a1.1,1.1,0,0,0-.19,1.44,3.05,3.05,0,0,0-.79-.81c.33-.4.65-.8,1-1.19a4.68,4.68,0,0,0,.74-1.18,1,1,0,0,0,.42,0,6.49,6.49,0,0,0,3-2.24l.07.21a1.3,1.3,0,0,0-.08.17.71.71,0,0,0,.17.45A3.9,3.9,0,0,0,28.54,223.58Zm8.25-7.88a5.14,5.14,0,0,1-1.2,2.31,2.76,2.76,0,0,1-.67.46c-1-.23-.93-1.64-1.32-2.53l.85-1.44.52-.2c.25-.76.92-.86,1.57-1l.57,1.79A2.73,2.73,0,0,0,36.79,215.7Zm7-3.11a1.76,1.76,0,0,0-.52-.94,2.79,2.79,0,0,0-.2-.55,1.47,1.47,0,0,0,1.3.16l0,.05A6,6,0,0,1,43.76,212.59Zm4.53-9.6c-.59.67-1.55,1.16-1.1,2.32,0,.2.07.39.1.59l.16,0,.27.85a2,2,0,0,0-.87,1v0a2,2,0,0,0-2.26-.81,4.24,4.24,0,0,0-2.12,1.43c.82,1.2-1.22,1.47-1.16,2.43l-.15,0a2,2,0,0,0-1,.79,3.71,3.71,0,0,0,0,2,2.36,2.36,0,0,1-.4,2.05c0,.06,0,.12-.07.18-.22-.66-.45-1.32-.68-2-.84.28-1.6.32-2-.71l.48-.7c.51-.05.65-.29.4-.75.6-1.34,2.56-1.1,3-2.6,1.85-1,3.22-2.61,5-3.65a11.52,11.52,0,0,1,2.51-2.61,2.09,2.09,0,0,0,.43-.93,1,1,0,0,0,.51.06.71.71,0,0,0,.15-.08C49.17,202.24,48.73,202.61,48.29,203Zm6.81-5.07a1.1,1.1,0,0,0-.94-.19,2.13,2.13,0,0,0-.26-.26l.06-.08a5.63,5.63,0,0,0,1.29-.11Zm3-15.4v0l.08,0-.06,0s0,0,0-.08v0Zm6.15,8.71-.56.2-1,.88-1,.37a3.12,3.12,0,0,0,0,.52l-2.23.69a.57.57,0,0,1,0,.13,2.08,2.08,0,0,0-.49.3c-.13.19-.27.38-.41.56l-1.37.77a1.12,1.12,0,0,0-.51-.56,3.59,3.59,0,0,0,1.35-1c1.66-2.09,4-3.45,5.93-5.19a3.24,3.24,0,0,0,1,1.28A1.61,1.61,0,0,1,64.21,191.23ZM72.64,205a1.74,1.74,0,0,0,0-.22l.1.19Zm1.78,17.13-.09-.09a.46.46,0,0,0,0-.23l.2.07a1,1,0,0,1,0,.1C74.55,222,74.49,222.08,74.42,222.08Zm3.82-7.46a3,3,0,0,0,.35-.69,2.58,2.58,0,0,1,.06.73A2.71,2.71,0,0,0,78.24,214.62Zm1.47-3.09-.11-.06a1.37,1.37,0,0,0,.07-.29,1.19,1.19,0,0,0-.52-.79,2.71,2.71,0,0,0-2.39,0c-.13.14-.24.24-.35.34a1.48,1.48,0,0,0-.46-.5c1.11-.5,2.35,0,3.52,0,.22,0,.45,0,.67,0l.35.67c.18-.17.5-.34.51-.53a1.2,1.2,0,0,0,0-.19,2.67,2.67,0,0,1,1.09.14,3.26,3.26,0,0,1,.25.54C81.41,210.76,80.6,211.35,79.71,211.53Zm-7.33,37.56a1.71,1.71,0,0,0-1.18.3l0,.06a2.25,2.25,0,0,0-1.89.29,4.81,4.81,0,0,0-2.1,2.79,1,1,0,0,0-.63.06,1.9,1.9,0,0,1,.15-.5,2.2,2.2,0,0,0,.22-1.87c.51-.42.39-1.45,1.21-1.57,0,0,0,.06,0,.09s.11.35.17.51c1.5.5,1.7-1.5,2.93-1.52a.75.75,0,0,0,.15-.09,2,2,0,0,1,1.23,1.57Zm2.26-7.82v0h0Zm-1.77,9.41a.63.63,0,0,0,.64-.38,1,1,0,0,0,.21,1C73.26,251.27,72.49,251.59,72.87,250.68Zm.93-1.1-.17.36c0-.17.07-.35.1-.53s0-.24.07-.35a1,1,0,0,1,.6.24A1,1,0,0,0,73.8,249.58Zm.91,0a.47.47,0,0,0-.12-.18h.25Zm10-10.52a.65.65,0,0,0,.24-.42,2.52,2.52,0,0,1,.52.83A3.48,3.48,0,0,0,84.69,239Zm7.13-.13h0l.08.09ZM94,233.33c-.52.29-.78.58-.69.93a1,1,0,0,0-.71-.1,1.54,1.54,0,0,0-.31.25.84.84,0,0,0-.6.07c-.67.78-1.41,1.54-1,2.69a2.31,2.31,0,0,0-.51-.22,2.37,2.37,0,0,1-1.08-.76,7.43,7.43,0,0,0-.82-.86,1.88,1.88,0,0,0,1.61-.42c.32,0,.4-.23.41-.53l.84-.2c.08-.33.16-.66.23-1l.14.06a1.25,1.25,0,0,0,1-.72,1.59,1.59,0,0,1,.5-.6,3.21,3.21,0,0,0,1.41-.51l.23-.06C95.75,232.4,94.82,232.88,94,233.33Zm47.14.72a.22.22,0,0,1,0-.08c.12-.16.25-.31.36-.48C141.4,233.68,141.27,233.86,141.15,234.05ZM126.26,129.47c.15-.12.35-.19.49-.32.13.08.3.14,0,.25A1.43,1.43,0,0,1,126.26,129.47ZM130,77.18h0a.79.79,0,0,0-.09-.41,1.12,1.12,0,0,0-1.18-.18,2.07,2.07,0,0,0-.12-.49,1.92,1.92,0,0,0,1.32-.57,1.6,1.6,0,0,0,.05-.21l.51.19,1.31,0a1.48,1.48,0,0,0,.67,1.57l0,0a.35.35,0,0,0,0,.34,1.78,1.78,0,0,0-.21-.27A2.62,2.62,0,0,0,130,77.18Zm.6,14.15a2.29,2.29,0,0,0-.4.54,5.32,5.32,0,0,1,0-.69A.64.64,0,0,0,130.6,91.33Zm4.46,1.4c.08-.07.26-.17.25-.21a4.39,4.39,0,0,0-.27-.47,2.5,2.5,0,0,1,2.82-1.32c0,.93.07,1.86.11,2.79a2.73,2.73,0,0,0-.25-.23,1.9,1.9,0,0,0-2.31.27,2.43,2.43,0,0,0-.46.62.83.83,0,0,0-1.23.35,2.82,2.82,0,0,0-1.86-1C133,93.38,134.21,93.75,135.06,92.73Zm3.44,6.68a.38.38,0,0,0,.34.13,1.47,1.47,0,0,0,.27.66c-.27,0-.55-.06-.82-.08a1.16,1.16,0,0,0-.45-.43A1.57,1.57,0,0,0,138.5,99.41Zm-1.12,7.81a.08.08,0,0,1,0,0l-.22,0Zm-3.6-6.46c.83.15,1.18.3.08,1-.52-.1-1.05-.16-1.55-.3A3.82,3.82,0,0,0,133.78,100.76Zm-1.15,27.12a4.49,4.49,0,0,0-1.67-.21,6.2,6.2,0,0,0,.58-.77A6,6,0,0,0,132.63,127.88Zm4,6.27.41-.45c.15.11.31.21.47.31a2.07,2.07,0,0,0,1.47,0c1,0,1.23-2.62,2.7-.88-1.43-.12-2.06,1-2.78,2,.57,1.88-1.2,2.32-2,3.34-.15-1-1-1.81-1-2.87a1.42,1.42,0,0,0,.29-.21,2,2,0,0,0,.46-1.07A.59.59,0,0,0,136.58,134.15ZM143,113.64a.64.64,0,0,1,0,.07l-.06,0Zm-.78-28.25a.91.91,0,0,0,.54,0,1.44,1.44,0,0,0,.59.66C142.83,86.12,142.51,85.78,142.23,85.39ZM147.84,113c-.39.63-1.13,1.16-.72,2l-.5.25A2.92,2.92,0,0,1,147.84,113Zm-.7-36.48a2.75,2.75,0,0,0,.63-1c.11.43.11.9.21,1.33A.81.81,0,0,0,147.14,76.55Zm-.32,50.15c.54-.56,1.37-.72,1.83-1.37a2.79,2.79,0,0,0-.16-1.83,1.22,1.22,0,0,0,.33,0l.36-.16c1,.57.42,2.21,1.31,2.87a1.86,1.86,0,0,1-.07.66c0,.35-.06.73,0,1.08a2.11,2.11,0,0,0-1.17-.56l0,.07h0a3.82,3.82,0,0,0-.11-.57,2.69,2.69,0,0,1-.61-.19,1.4,1.4,0,0,0-.75,1.44l-.12,0a1.58,1.58,0,0,0-.61,1.15,3.31,3.31,0,0,0-.26-.27C145.92,128.17,146.26,127.43,146.82,126.7Zm7.81-46.38-.15,0a9.66,9.66,0,0,0-1.52-.15,4.45,4.45,0,0,0-1.07-3.28l-.37-.27a2.69,2.69,0,0,0-.8,0,3.67,3.67,0,0,1,.87-.58,2.5,2.5,0,0,0,1-1.07A2.72,2.72,0,0,0,154,76.06a4.7,4.7,0,0,1,1,.25,5.11,5.11,0,0,1,.73-.19.62.62,0,0,1-.73.19C152.81,77,154.35,78.82,154.63,80.32Zm-2.92,32.31h0l0,0h0Zm-.69,2.14.47.08h0a4,4,0,0,0,2.15,2.83,2.58,2.58,0,0,1,0,.29,2,2,0,0,0-.19-.12c-1-.17-2.15-.62-2.57.91v.12a1.47,1.47,0,0,0-1.18-.28,1.14,1.14,0,0,0-.69.65c0,.16,0,.34,0,.51h-.16a1.66,1.66,0,0,1,0-1.41.52.52,0,0,0,.57,0C149.39,116.88,151.22,116.28,151,114.77Zm2.44,7.1h-.14c.12-.1.22-.11.29-.06l-.13,0h0Zm-3.21,13a.16.16,0,0,0-.07-.07c.26-.61-.38-1.79.76-1.84A13.21,13.21,0,0,0,150.25,134.85Zm.16,1.6-.07-.06h0S150.38,136.43,150.41,136.45Zm2,.27.16-.05c.57,1.25-.32,1.06-1,1l-.27-.06a2.22,2.22,0,0,0-.75-1.1A2.85,2.85,0,0,0,152.41,136.72Zm26.73-16.5,0,0a9.45,9.45,0,0,0,1.07,1.21l-.3.18v0A5.31,5.31,0,0,0,179.14,120.22Zm16.59-72.59,0,0s0,0,0,0Zm33.1,20.44a1.43,1.43,0,0,0-.43-.12l-.2-.2c.12-.52.31-1,1-.75C228.8,67.32,228.62,67.67,228.83,68.07Zm47.63,32.3c-.16-.19-.32-.37-.49-.55l.68-.19a1.42,1.42,0,0,0,.23.42Zm-2.9.85-.05-.08.25-.07a4.9,4.9,0,0,0,.17,1.33,4.78,4.78,0,0,0-.48.19l-.16.11a.11.11,0,0,0-.07,0A1.33,1.33,0,0,0,273.56,101.22Zm-1.35-1,.36,0,.05.07A2.71,2.71,0,0,0,272.21,100.27Zm-6.07,75.47h0l-.08,0,.07,0a.13.13,0,0,1,0,.06Zm-.85,1.89a.5.5,0,0,1,0,.17s0,0,0-.06A.45.45,0,0,0,265.29,177.63ZM205.61,195.7h0s0,0,0,0h0ZM203.84,79.35a2.22,2.22,0,0,0,.57.07,1,1,0,0,0-.27.31l-.06.14A1.64,1.64,0,0,0,203.84,79.35ZM186.68,39.78h0s0,0,0,0l0,0Zm.18,75.22c.08-.06.21,0,.35,0a1.9,1.9,0,0,0-.43.5C186.69,115.36,186.61,115.17,186.86,115Zm-.92-25.12c-.82-.06-1.77.07-2.22-.73l.07,0a4.33,4.33,0,0,0,.77-.48.93.93,0,0,0,.59-.14h0a1.43,1.43,0,0,0,.91.1Zm-.17,1.3c-1.1,1.49-2.2.86-3.3.32A6.2,6.2,0,0,0,185.77,91.18Zm-2.47,37.47.08,0,.05.06-.1.09A.5.5,0,0,0,183.3,128.65Zm-19.51-15.06h0l-3.53,0c0,.2-.07.4-.11.61l-.51.54a6,6,0,0,1-.38-2.27,9.63,9.63,0,0,1,1.69-.29,4.46,4.46,0,0,0,.8-.2c.16,1.07,1.11,1.23,2,1.39A2.25,2.25,0,0,0,163.79,113.59Zm.27,1.29a8.23,8.23,0,0,0-1.72.07,1.93,1.93,0,0,0-.3-.35,2.12,2.12,0,0,1,1.51-.28A1.62,1.62,0,0,0,164.06,114.88ZM141.88,216.17h0l-.09.09v-.06l.09,0Zm92.4-19-.09-.1.25,0A.46.46,0,0,0,234.28,197.13ZM259.86,185c-.59-.23-1-.88-1.75-.74l-.19,0a4.13,4.13,0,0,1,.37-.86.84.84,0,0,0,.08.2c.49.46.89,1,1.61,1.18l.06,0A1.68,1.68,0,0,0,259.86,185Zm.23-2.53L259,181.39l-.26,0a.7.7,0,0,0-.11-.23,8.47,8.47,0,0,0,3,.15l.05-.09c0,.27.09.54.14.81C261.26,182.44,260.84,183.12,260.09,182.48Zm2.25-1.88-.6.19s0,0,0,0a1.46,1.46,0,0,0-.72-1,2.55,2.55,0,0,0,1-1.08,2.61,2.61,0,0,0,.17.28c.14.17.26.37.39.56s.08.38.13.57Zm2,1.49a.42.42,0,0,0,0-.48l.25-.1s0,0,0-.06a3.32,3.32,0,0,0,.56.51A1.21,1.21,0,0,0,264.38,182.09Zm1.81-3.19a2.47,2.47,0,0,0-1.83,1.1s0,0,0,.05l-.31-.2a1.46,1.46,0,0,0,.18-.84c0-.08,0-.15,0-.22a1,1,0,0,0,.21-.2l.2,0c.42-.12.83-.23.7-.76a1.42,1.42,0,0,0,.57.15,2.79,2.79,0,0,0,.7-.08.7.7,0,0,0,.8.64,1.42,1.42,0,0,0,.08.18,1.14,1.14,0,0,0,.24.25C267.18,179.34,266.69,178.81,266.19,178.9Zm3.6-.81V178h0Zm1.26-.35h0Zm.44-1.9c-.06-.23-.11-.45-.16-.68a1.74,1.74,0,0,0,.43-.8,1,1,0,0,0,.33.49h0C271.7,175,271.85,175.67,271.49,175.84Zm3.2-2.15a1.9,1.9,0,0,0-.89.69c-.68-.48-.16-1.25-.32-1.85h0A3.92,3.92,0,0,0,275,172l0,.07a1.41,1.41,0,0,0,.11.54A.69.69,0,0,1,274.69,173.69Zm5.25-10c0,.13,0,.27.06.41C279.9,164,279.87,163.9,279.94,163.69Zm-4.83-48.86Zm6.5-39.66.48-.53a1.24,1.24,0,0,0,.49.23A3.53,3.53,0,0,0,281.61,75.17Zm.07-1.83a.49.49,0,0,0,.16.2l-1.51,1.37a1.61,1.61,0,0,0-.23-.7A9.33,9.33,0,0,0,281.68,73.34Zm-26.3,18.88.37-.16A5.87,5.87,0,0,0,258,93.37c-.1.25-.2.51-.31.76l-1.86,1.17a3.93,3.93,0,0,1-1.18-3A2.65,2.65,0,0,0,255.38,92.22Zm-8.22,9.44c.28-.65.55-1.31.82-2a2.58,2.58,0,0,0,.74.33,2,2,0,0,1,1.17.43,2.55,2.55,0,0,0-.4.47l-1.89,1.38-.09,0c-.11-.23-.22-.44-.35-.66h0Zm-3.66-13c.4-.12,1.17.11,1.38-.19a2.51,2.51,0,0,0,1,.46,1.86,1.86,0,0,0,.43.87l.19.17c-.12.28-.24.56-.37.84l-.24.09a7.46,7.46,0,0,0-.88.37l-.06,0a1.47,1.47,0,0,0-1.66.11,2,2,0,0,0-.26-.21l-.35,0A14.89,14.89,0,0,1,243.5,88.63ZM242,85.36l-.44.12-.13-.14Zm-2.69-.75h0a2.36,2.36,0,0,0-.4.38h-.25A1.86,1.86,0,0,0,239.28,84.61Zm-3.67-2.06a2.34,2.34,0,0,0,.32.63c-.77-.37-1.4,0-2,.67a.36.36,0,0,1,0,.09l-.31-.31A11.6,11.6,0,0,0,235.61,82.55ZM231,89.67a.75.75,0,0,0,.17-.14c.31,0,0,.17-.18.15Zm-.56-20.35a1.74,1.74,0,0,0-.67-.21,1.25,1.25,0,0,0-.09-.25l-.07-.09a5.47,5.47,0,0,0,1.4,0A2.17,2.17,0,0,0,230.47,69.32Zm6.26-3.11-.13-.15.13.12h0Zm-1-5.9a3.39,3.39,0,0,0,.56-.44,10.82,10.82,0,0,0,1.28,2.25h.12c0,.23,0,.46,0,.69l-.2.1c-.11.1-.2.21-.3.32.06-1.11-1.31-1.82-1.56-2.85Zm-2.15-1-.1.14c0-.05,0-.11,0-.17Zm-7.11,3.57.3.1a4.81,4.81,0,0,0,2.71,0,3.47,3.47,0,0,0,1.9-1.69s0,0,0-.07a1.21,1.21,0,0,0,1.14.21,2.11,2.11,0,0,0,.89-1,1.14,1.14,0,0,0,.31.46,2.16,2.16,0,0,0,1.75-.37c-.4.58-.11,1.21,0,1.82a.75.75,0,0,0,.36,1,1.16,1.16,0,0,1,.8.76l0,.05a1.69,1.69,0,0,0,.13.89,1,1,0,0,0-.1,1h0a2.16,2.16,0,0,0-2.7.25,1.86,1.86,0,0,0-.47.57h-.24c0-1.55-.9-1.29-1.85-1a2.41,2.41,0,0,0-.67-1.93.93.93,0,0,0-.92-.12l-.78.11c-.54-.26-1.38,0-2-.11-.36-.19-.63-.42-.56-.86ZM224.79,80l-.49-.16L225,80Zm-.54-5.54a3.38,3.38,0,0,1,.66.7,1.1,1.1,0,0,1-.4.77A2.51,2.51,0,0,1,224,75,2.68,2.68,0,0,0,224.25,74.49Zm-1.93-7.62a1.19,1.19,0,0,0-.36-.38,2.89,2.89,0,0,1,1.08.22c-.57.72-.28,1.25.33,1.71l-.2,0c-.41.13-.84.21-1.24.35l-.09-.08A2,2,0,0,0,222.32,66.87Zm-2.21,6,0,0-.05,0Zm-7.68,1.58a7.09,7.09,0,0,0,1.9-.19,3,3,0,0,0,.67,1.23v0a9.84,9.84,0,0,0-1.33.15,3.68,3.68,0,0,0-.47.15c-.46-.38-1-.72-1-1.41ZM210,104.33l.08.1-.11-.09Zm-2.75-36.94.05,0h-.06Zm0,4.35v.08c.64,1.06-.11,1.54-.85,2l-1.93-.13a1.44,1.44,0,0,0-.13-.32C205.45,73,206.22,72.07,207.31,71.74ZM203.8,37.93a13.34,13.34,0,0,1,1.59,1.94,3.06,3.06,0,0,0-.43-.13h-.16a8.17,8.17,0,0,0-1.72-.2A12.3,12.3,0,0,0,203.8,37.93Zm-5,49.34s0,.08,0,.12l-.13-.1h.15ZM190.71,36.9a2.17,2.17,0,0,0,.36-1c1.68.48,3.84-.22,4.84,1.89h0a18.21,18.21,0,0,0-5.28-.84Zm-1.05,48.81h0v0l0,0Zm-2.73-61.58a1.72,1.72,0,0,0,.27.27l.71.35a3.31,3.31,0,0,1-1-.29,2.64,2.64,0,0,0-.28,0Zm-.82,55.38a2.9,2.9,0,0,0-.41-1.46,1.47,1.47,0,0,0-.1-.13c0-.34.09-.69.14-1a4,4,0,0,0,.59-.18A10.53,10.53,0,0,1,186.11,79.51Zm-2.56-22.16.5-.51,1.93-.59a1.71,1.71,0,0,0,.26.67c-1,.34-2.07.55-2.28,1.85-.64.14-1.28.29-1.57-.44l.12-.07c.62.39.91,0,1.12-.51A1,1,0,0,0,183.55,57.35Zm-1-1.7a.88.88,0,0,1,0-.16l.13,0A2.08,2.08,0,0,0,182.55,55.65Zm.5-15.23Zm-3-20,.17.16a1.8,1.8,0,0,0,.86.09,3.46,3.46,0,0,0,1.44-1c-.07,1-.11,2,.66,2.49-.57-.07-1.17-.23-1.63.25a.67.67,0,0,0-.06-.12,2.38,2.38,0,0,0-.75-.45c-.44-.12-.87-.25-1.3-.4A1.45,1.45,0,0,0,180,20.38Zm-1,41.39a8.52,8.52,0,0,0-1.18,1.83,1.48,1.48,0,0,0-1.22,0l-.16.18a.32.32,0,0,0-.18.06c-.07-.19-.14-.37-.2-.55A11,11,0,0,0,179.05,61.77Zm-.68,27.47h0a1.41,1.41,0,0,0-.09-.39l.11,0A.88.88,0,0,1,178.37,89.24ZM178,67.48h0v0Zm-3-29.6a2.1,2.1,0,0,0-.6,1.5h0v.06a1.37,1.37,0,0,0-1.16-.18C173.74,38.6,174.06,37.77,175.06,37.88ZM173.5,59.34a1.34,1.34,0,0,0-.1-.35l0,0A.45.45,0,0,1,173.5,59.34ZM173.28,96l.72-.5a.22.22,0,0,0,0-.08l.2-.07a4.14,4.14,0,0,0,.68-.39l.58-.52.63-.32c.76.6,1.9-.21,2.63.5l.06,0c0,.13.09.26.15.39a1.29,1.29,0,0,0,.45.45,1.26,1.26,0,0,0-.34.81,2,2,0,0,0,2.32,1.52.47.47,0,0,0,.14-.14l.72,1.37-1.56.67v0c.17,0,.37-.21.61-.59l-.9-1-.29.42a3.12,3.12,0,0,0-1.59-.67.93.93,0,0,0-.22-.08.88.88,0,0,0-.31,0,4.74,4.74,0,0,1-.78-.25l-.08-.09a3,3,0,0,1-.42,0,4.43,4.43,0,0,0-.06-.51,2.41,2.41,0,0,0-3.48-.43A2.21,2.21,0,0,0,173.28,96Zm-1.09-61.82s0,.07,0,.11l-.06,0Zm-.56,76.47a3.35,3.35,0,0,0-.55,0,1.56,1.56,0,0,0-.25-.66,3.6,3.6,0,0,1,1.12.32A1.78,1.78,0,0,0,171.63,110.69Zm-1.15-22.13H171l0,0v.07a2.76,2.76,0,0,0-.1.47l.1.27.08.29c0,.05,0,.11.05.16-.4.14-.94,0-1.35.16h0a4,4,0,0,0-.44-.27C169.82,89.38,170.31,89.13,170.48,88.56Zm-1-54.86a1.15,1.15,0,0,0,.33.29,1.56,1.56,0,0,0-1.16,1.63.18.18,0,0,0,.05.07,1.58,1.58,0,0,0-.86.25A4.49,4.49,0,0,1,169.52,33.7ZM167.79,43l.1.06-.09.19c0,.34.12.68.18,1a1.28,1.28,0,0,0-1.24-.62A3.92,3.92,0,0,0,167.79,43Zm-2.66,1.57,0,0a.36.36,0,0,0,0,.09.2.2,0,0,1,0-.07Zm-1.41-6a1.26,1.26,0,0,0,.32.21h-.45A1.48,1.48,0,0,0,163.72,38.57Zm3.11,69.69,0,1.16a2.25,2.25,0,0,0-1.49,2.11h0c-.95-.06-1.51-1-2.28-1.41C164.3,109.51,165.56,108.88,166.83,108.26ZM161.7,95.94A13.45,13.45,0,0,0,163,97.15a3.73,3.73,0,0,1-.8-.06l-1.07-1.39c-.55.4-.12,1.07.17,1.7a5.62,5.62,0,0,0-2.36-.47,1.64,1.64,0,0,0,.14-.22,2.37,2.37,0,0,0-.11-2.23h.36a4.34,4.34,0,0,0,2,.82A3.76,3.76,0,0,1,161.7,95.94Zm-1.54-57s0,0,0,0a1.51,1.51,0,0,0-.89,1.23l-.5-1C159.24,39.11,159.7,39,160.16,38.92Zm-.69,3.75c.3,0,.6,0,.91,0h.11a1.67,1.67,0,0,1-.08.2,2,2,0,0,0,.19,1.83l.08,0H160l-1.38-1.45A1.23,1.23,0,0,1,159.47,42.67Zm-.41,106.89-.51.43c-.27.09-.53.17-.8.28,0-.06,0-.1,0-.16l-.14,0a1.7,1.7,0,0,1-.56-1.34A2.09,2.09,0,0,0,159.06,149.56Zm-1.93-28.4a1,1,0,0,1,0,.16h0l-.15-.07Zm-.28-23.49a2.46,2.46,0,0,0-1.22.13.34.34,0,0,1-.08-.09,5.68,5.68,0,0,1-.66-1.3C155.59,96.75,156.16,97.31,156.85,97.67Zm-.74-40,.08-.07a.38.38,0,0,0,.09.09Zm.13-15.34a.65.65,0,0,0,0,.34L155.7,42A2.44,2.44,0,0,0,156.24,42.3Zm-3.14,1.87a1.27,1.27,0,0,0,.93.38l.12.16a1.66,1.66,0,0,0,.95.19l.21-.07a1.37,1.37,0,0,0,.18.16c-.33.41-.87.56-1.27.88l-.11,0a1.87,1.87,0,0,0-1.2-.5l-.53-.28a1,1,0,0,0-.29,0A4,4,0,0,0,153.1,44.17Zm.12,12.49a1.42,1.42,0,0,0,.35-.69h.26l0,.08A6.74,6.74,0,0,0,155,57.36a2.41,2.41,0,0,0-2.35.13c-.73.84-1.09,1.71-.34,2.64-.34,0-.64-.43-1-.63-1-1-2-1.19-3.12-.25.15-.5.29-1,.44-1.48l.54-1,2.57.76Zm-7.95-4.75a1.8,1.8,0,0,1,.33-.1c.43-.15.86-.32,1.28-.5.89-.35,1.87-.25,2.77-.51,0,0,0,.08,0,.12a1.48,1.48,0,0,0-1.34.65c0,.26,0,.52,0,.77h0l-.6.6-.13-.12a6.64,6.64,0,0,0-2.66-.19l-.14,0ZM145,79.51a2,2,0,0,0-.05.24,6.33,6.33,0,0,0-1.2-.5v-.1C144.17,79.27,144.58,79.41,145,79.51Zm-4.17-25.79a1.09,1.09,0,0,0,.71-.3,6.26,6.26,0,0,0,.46-.59,1.68,1.68,0,0,0,1.32.25l.08-.06.73.54h0l-.19.73-.29.35-.15,0c-.93-.19-2-.07-2.74-.72A1,1,0,0,0,140.83,53.72Zm1.1,48.55h0Zm-.22-17.4h0v.06l-.1,0,.1,0Zm.84,32.67c.14.91-.82,1.72-.41,2.65a1.21,1.21,0,0,0-.64.77,2.59,2.59,0,0,0-.79.37.82.82,0,0,0-.21.56,2.45,2.45,0,0,0-.6.06l-.19.13a2.25,2.25,0,0,0-2.64-.13,1.21,1.21,0,0,1,0,.19h0a1,1,0,0,0-.66,0,0,0,0,0,0,0,0,1.58,1.58,0,0,0-.45-1.14c-.05-.26-.1-.51-.14-.77a1.18,1.18,0,0,0-1.61-.35c-.27-1.21,1.12-1.63,1.54-2.51,0,.74-.13,1.52.66,2l1.41.79a1.69,1.69,0,0,0,.82-1.43h0l.76-.67C140.27,116.92,141.55,117.92,142.55,117.54Zm-4.94-90.61v-.17l.06.15-.06,0,0,.07s0,0,0,0Zm-.81,34.64a1.62,1.62,0,0,0,.84-.15,8.7,8.7,0,0,0,1.78-1.33h0a3.31,3.31,0,0,0,.27.26c-1.63,1.22-1.86,3-1.74,5a7.22,7.22,0,0,1-.25,1.21,11.33,11.33,0,0,0-1.18-.07,3.45,3.45,0,0,0,1.07-1,2.47,2.47,0,0,0,.13-1.94,2.66,2.66,0,0,0-.93-1.14A3.41,3.41,0,0,0,135,62a3.16,3.16,0,0,0,.59-.62C136,61.4,136.44,61.31,136.8,61.57ZM135.13,44a1.2,1.2,0,0,0,.16,1.53c-.47,0-.66.23-.68.52A1.76,1.76,0,0,1,135.13,44Zm-.58,4.3a1.29,1.29,0,0,0,.17.88l.14.06-.12.57C133.23,49.22,134,48.76,134.55,48.28ZM133,38.35a1.36,1.36,0,0,1-.58-.41A.75.75,0,0,1,133,38.35ZM119.3,48.26c1.77-.67,3.69-1.16,4-3.5,0-.06,0-.11,0-.16A1.88,1.88,0,0,0,124.5,44c.14-.16.27-.33.4-.5.66.06,1.43.07.14,1.09-.29,1.2.89,1.77,1.17,2.72a6.08,6.08,0,0,0-5.67,2.1,2.38,2.38,0,0,0-.11.38l-.2-.09a1.56,1.56,0,0,0-1-.14A3.22,3.22,0,0,0,119.3,48.26Zm-3.6,5.4a1.3,1.3,0,0,0,0,.43.28.28,0,0,0-.24.09,3.06,3.06,0,0,0-1-.91A5,5,0,0,0,115.7,53.66Zm-1.45-4a.92.92,0,0,1,.14.5,2.61,2.61,0,0,1-.27-.06A2.62,2.62,0,0,0,114.25,49.67Zm-6.56,17.12a2.12,2.12,0,0,0,3,.19c0-.44,0-.88,0-1.32a1.11,1.11,0,0,0,.27.12c1.51-.62,2.91-1.28,1.68-3.3a1.72,1.72,0,0,0,1.15-.4c.67.29,1.15-.09,1.6-.56.52-.82.59-1.81,1.06-2.65l0,0c.81.2,1.67-.41,2.47-.12l.27.06c-.5.89-1.88.56-2.56,1.22,1.9,1.43,2.92.06,4-1.09h.11a1.83,1.83,0,0,0,.26-.21l2,.15a1,1,0,0,0,0-1.39,2.32,2.32,0,0,1-1.6,0,2.63,2.63,0,0,0-.09-.55c-.48-1.27.53-.73,1-.85,1.34-.06,2.81.33,3.81-1a1.07,1.07,0,0,0-.09-.61,2.05,2.05,0,0,0,.38-.34.82.82,0,0,0,.47,0,7.16,7.16,0,0,0,1.23-.56c.94-.47,2-.6,2.95-1.13h0a8.3,8.3,0,0,0,.69.64l.07,0a1.62,1.62,0,0,0,0,.19L129,54.68l-2.38,2.7a4,4,0,0,1-.69,0,1.81,1.81,0,0,0-1.1.75c-.09.13-.15.27-.23.41-1-.29-1,1.18-1.61,1.64l-.58.82h0a1.56,1.56,0,0,0-.15.6l-1.42.72c-1.26.88-1,1.43-.42,1.92a6.94,6.94,0,0,0-2.39.25c-.55.24-1,.56-.93,1.25a6.14,6.14,0,0,0-3.59,3.54l-.06,0h0l-.77-.07-.88.52-.6-.09c-1.37.12-2.49,1.77-4.07.69a.78.78,0,0,0-.26,0C107.06,69.05,106.29,67.66,107.69,66.79Zm16-1.52a.65.65,0,0,0,0,.13,1.12,1.12,0,0,1,0-.13Zm-16.73-5.55a1.9,1.9,0,0,1-1.49.84A8.05,8.05,0,0,1,106.91,59.72ZM106,80.47c-.15.13-.27.25-.39.37a2.27,2.27,0,0,1,.31-.48S106,80.43,106,80.47Zm-1.73,7.38a2.13,2.13,0,0,0,.77.83l0,.09a1.27,1.27,0,0,0-.07,1h0a.8.8,0,0,0-1.2.07c-.21-.47-.72-.51-1.17-.62v0l0,0A1.89,1.89,0,0,0,104.28,87.85ZM97.92,70.76c0,.19-.08.36-.11.53l-.18-.06A3.44,3.44,0,0,0,97.92,70.76ZM75,85.77h0s0,0,0,0,0,0,0,0v0h0C75,86.21,74.69,85.81,75,85.77Zm1.28,14.7c-.22-.83-1.1-1-1.62-1.54,0-.05,0-.1,0-.15h.49a1.48,1.48,0,0,0,1.43-1.7c-.25-1.87,1-2.74,2.17-3.74a2.17,2.17,0,0,0,.47-.78,2.84,2.84,0,0,0,.8-.48,2.25,2.25,0,0,1,.06-.36l.54-.31a2.11,2.11,0,0,0,.19.23c1.4.7,2.73.26,4-.26a4.72,4.72,0,0,0,.52-.35l1.67,1.13-1.4.69c-.44,1.58,1.37.59,1.62,1.24-1.42-.31-2.82-.67-4,.73L82,94.87a1.8,1.8,0,0,0-.58.84.75.75,0,0,0,0,.15C81,96.39,80.68,97,79.83,97l-.21,1.29a1.2,1.2,0,0,0-1.31,1.42,1.47,1.47,0,0,0,.24.73c-.1,0-.21.07-.31.12Zm4.79,9a.71.71,0,0,0-.1-.41L80.8,109a5.06,5.06,0,0,0,.06-.53,1.62,1.62,0,0,0,1.1.95C81.67,109.52,81.37,109.46,81.09,109.52Zm.38,3.22h0Zm2.46,10.1a1.53,1.53,0,0,0-1,.27h-.28a4.55,4.55,0,0,0-2.36,1.47,1.12,1.12,0,0,0-.1.62,4,4,0,0,1-1.42-2.07,2,2,0,0,0-.34-.43l1.31-.65-.06-.16h0l0,.16,1.24-.72h0c.84.76,2,.55,3,1A.71.71,0,0,0,83.93,122.84Zm5.59-6.39a4.35,4.35,0,0,0-.42.87.08.08,0,0,0,0,0,3.26,3.26,0,0,0-1.86,1.22c-.82-.82-2.29-.56-3-1.51l.82-1.31c1.18-.23,2.34.76,3.52.06l1.51-.47a.18.18,0,0,1,0,.07l.11.09A8.7,8.7,0,0,0,89.52,116.45Zm1.2-28.56h0l-2.6.59a2.43,2.43,0,0,0,.27-.62c.81-.19,1.63-.65,2.4,0Zm.3,10.9a2.07,2.07,0,0,0,2-.52l.2,0C92.47,99,91.73,99.56,91,98.79Zm5,14.5a2.27,2.27,0,0,0,.45.21C96.36,113.77,96.21,113.56,96.07,113.29Zm0-4.87a2.33,2.33,0,0,0,1.24-.82,1.15,1.15,0,0,0,.45.27A5,5,0,0,1,96,108.42Zm4,6.28h0v0Zm0,0,0,0h.06ZM97.79,83.26s-.78.29-1.2.45c-1-.65-1.74-.2-2.34.66a1,1,0,0,0,.07.75c-.92-.56-1.52-.31-1.87.54-.48-.75-1.62-1-1.75-2h.19c.61.22.92-.13,1.17-.61A1.74,1.74,0,0,0,92,81.77h0a7.21,7.21,0,0,1,.66-.58c.24-.07.48-.15.71-.24a3.16,3.16,0,0,0,3.22-2l.77-.66a6.49,6.49,0,0,0,1.46-2.64,1.63,1.63,0,0,0,.45.06A1.83,1.83,0,0,0,100.74,74c1.28.7,3,.92,3.1,2.88h0l-1.51,1.29-.63.74C99.91,79.87,96.53,79.43,97.79,83.26ZM106.86,97a2.48,2.48,0,0,0-.81.26l-.07,0a3.29,3.29,0,0,0-1.65,0,1.47,1.47,0,0,0-.89.93,2,2,0,0,0-1.66-1.09,4.7,4.7,0,0,0,1.37-.8l.11-.14.16,0a4.09,4.09,0,0,0,3.32-.19,3.57,3.57,0,0,0,.27-.28c0,.21,0,.42,0,.63a1.86,1.86,0,0,1,1.75.79A5.64,5.64,0,0,0,106.86,97Zm1.5-14a.81.81,0,0,0-.1-.71,6.92,6.92,0,0,0,3-1.63c1,.09,2.08-.1,2.85.84h0l-1,1.38h-.46s0,0,0,0C111.18,82.43,109.78,83,108.36,82.93Zm5.47,11.2c-.55-.16-1-.17-1.08.41a2.72,2.72,0,0,0-1.33-.1h0c-.09-.91.31-1.51,1.42-1.66,0-.05,0-.1,0-.16l.08,0a2.11,2.11,0,0,0,1.55-.09,6.69,6.69,0,0,0-.62,1.36C113.82,94,113.83,94.06,113.83,94.13Zm1-13.38c0-.1,0-.2,0-.3a8.27,8.27,0,0,1-.82-2.44,3.13,3.13,0,0,0,2.17-.87,1.73,1.73,0,0,0,.2-.62c.93,0,1.84,0,1.83,1.44C117.76,79.65,116.14,80,114.88,80.75Zm7.93,6.57a.93.93,0,0,0-.52-.31,1.13,1.13,0,0,0-.85.35.48.48,0,0,0-.58,0L119.3,90.7a.69.69,0,0,0-.13-.11,2.27,2.27,0,0,0-.9,0,4.25,4.25,0,0,0-1.14.43,11.9,11.9,0,0,0,1.36-1.73c.41-.8.88-1.6.39-2.54l-.15-.09.06,0,.29-.24,1-.66a2.18,2.18,0,0,0,1.84-.63C122.86,85.63,123.37,86.31,122.81,87.32Zm-.39-17.09c1-.83,2.32-1.26,3.4-2a1.14,1.14,0,0,0,.08-.47c1-.91,3.11.5,3.5-1.57h0c1.47-.1,2.58.27,2.65,2l.23.25h0l-.2-.26c-1,1.12-2.57.53-3.63,1.4h0a6.06,6.06,0,0,0-3.47.72l-1.36.64A1.57,1.57,0,0,0,122.42,70.23Zm1.64,31.51h-.25c.33-1.4,1.74-1.84,2.61-2.76v0l1.12,0c.84-.58,1.55-1.38,2.68-1.4a4.07,4.07,0,0,1,1.87.05A14.41,14.41,0,0,1,130,98a2.08,2.08,0,0,0-1.06.88,1.15,1.15,0,0,0-.07.35,4.46,4.46,0,0,0-2.64,2.35h0a.92.92,0,0,0-.16,0l-.24.09A1.39,1.39,0,0,0,124.06,101.74Zm-14.92,101.4h0Zm4.71-5a1.24,1.24,0,0,1,.88.63c-.18,0-.36,0-.53,0a12.75,12.75,0,0,1-1.38.07C113.16,198.63,113.5,198.39,113.85,198.17Zm-7.15,11.28,0,0v0h0Zm17.41-95.65-.4.18a.87.87,0,0,0-.14-.27Zm-7.6,7.51a.62.62,0,0,1,.68.21h-.79C116.4,121.42,116.42,121.33,116.51,121.31Zm-9.34,45.53v0l0,0Zm-.63,11.52a4.48,4.48,0,0,0,.09.82,3.06,3.06,0,0,0-.74.09C106.11,179,106.33,178.67,106.54,178.36Zm-1-21.38a1.74,1.74,0,0,1-.1.19l-.13-.07Zm-.78,41.8a2.3,2.3,0,0,1,1.43.7l-.37.28c-.08.06-.16.14-.24.21l0,0c-.26-.21-.43-.08-.57.1v0a2.35,2.35,0,0,0-.22-.45l0,0,0,0A1.61,1.61,0,0,1,104.73,198.78Zm-.25-18,0,.06-.06,0Zm-2.74,17.37a.76.76,0,0,0,.1.54l-.15,0-.24-.46Zm-2.18-27.37.14,0h0c-.09.09-.17.2-.26.29A1.53,1.53,0,0,0,99.56,170.78Zm-4.3,5.53h.09a1.31,1.31,0,0,0-.36,1l-.21-.15A3.1,3.1,0,0,0,95.26,176.31Zm-.74,14a2.52,2.52,0,0,1,.93.18,1.1,1.1,0,0,1,.2.23c0,.23,0,.46,0,.69a6.29,6.29,0,0,0-1.33-.44A1.18,1.18,0,0,0,94.52,190.35Zm-7,28.15a2.36,2.36,0,0,1-.1.38,2.13,2.13,0,0,1-.44-.26,1.78,1.78,0,0,0,.62-.22S87.49,218.46,87.47,218.5Zm.77-36.31a4.09,4.09,0,0,1-1.33,1c-.72.75-1.48,1.47-1.09,2.64a1.73,1.73,0,0,0-1.32,0c.12-.37.31-.71.45-1.06.42-1.11.17-2.28.32-3.41,0-.14,0-.29,0-.44,2.21,1.23,2.58.87,2.72-2,0-.16-.07-.32-.1-.48l.79-.25a1.24,1.24,0,0,0,.34.48l-.19.24A1.78,1.78,0,0,0,90,180.37a6.91,6.91,0,0,0-.84.79C88.45,181.34,88.24,181.73,88.24,182.19Zm1.39,30.53,0,0a1.6,1.6,0,0,0-.89.44h0A1.59,1.59,0,0,1,90.35,212c0,.06,0,.11,0,.17h0A4.36,4.36,0,0,0,89.63,212.72Zm25.92,12c0,1.11,0,2.23-.07,3.34-.1,0-.2,0-.3,0-.74-.07-1.49-.44-2.2-.12a3.56,3.56,0,0,0-.06-.44,2,2,0,0,0-.94-.92,2.69,2.69,0,0,0,.34-.33c.88.71,1-.8,1.43-1.54l1.12-.32a2.28,2.28,0,0,0,.68.25Zm8.81,20.19a2.48,2.48,0,0,1,.81-1.25.93.93,0,0,0,1,.23C125.88,244.57,124.56,244.14,124.36,244.92Zm15-4.82-1.14,1.31-1.55.77c-.41.12-.75.28-.64.74a1.46,1.46,0,0,0-.46-.2c-.14.05-.27.12-.4.18-.09-1-1.52-1.14-2.06-1.86l5-3.54h0a.38.38,0,0,1-.09.09c-.44.33-.58.9-1,1.26-.2.29-.41.58-.61.88.9.56,1.42-.35,2.08-.6C140,238.57,139.16,239.7,139.31,240.1Zm5.49,6.07v0l0,0S144.81,246.16,144.8,246.17ZM155.26,248s0,0,0,0h0A0,0,0,0,1,155.26,248Zm2.05-1.18v0h.06Zm2-26.47a0,0,0,0,0,0,0h0ZM161,237h0Zm0,0h0Zm2.58-1.12,0,0h0ZM210.84,255c.16,0,.33.15.59.3-.22.15-.36.32-.5.31s-.3-.17-.45-.27C210.6,255.22,210.71,255,210.84,255Zm4.08-10.85c-.8.68-1,2-2.22,2.24-.64-.91-2.86-1.88.18-2.6.62-.15-.11-1,.23-1.53C215.79,240.9,214.27,243.57,214.92,244.15Zm-4.44-3.87-1-.28c-.55-.22-.58-.73-.7-1.2.54-.23,1.31,0,1.56-.81a.4.4,0,0,1-.09-.44l-.5-.29-.6-.77c.89-.31,1.39,0,1.53.87a.66.66,0,0,1,.14,0c.85.4,1.4-.19,2-.61a1.28,1.28,0,0,1,.61-.09c.45.19.68.48.42,1a11.47,11.47,0,0,1-3,2.1ZM201,232.1a1.21,1.21,0,0,1-.38.12c-.74-.28-.66-1-.85-1.59C201,230.43,200.71,231.49,201,232.1Zm7-6.54c-.62-.14-.58-.71-.75-1.14.11-.16.23-.31.34-.46l.73,1.12.42-.1a1.51,1.51,0,0,0,1.24,1.51c-.23.33-.45.67-.67,1-.06.14-.13.21-.23.2s-.16,0-.17-.06l-.53-.34c-.45-.49-.1-.91.12-1.35l-.5-.38h0Zm7.32,16.23c1-.87,1-.87,2-.66,0,.07,0,.2,0,.2Zm7-6.07a.44.44,0,0,1-.07-.56.71.71,0,0,1,.86-.1l1.2,1.14c.12.32,0,.49-.32.56-.49.31-.91.37-1.11-.32Zm2.61-2.12a1.43,1.43,0,0,1,.52-.23h.23c-.3-.35-.15-.74.08-1.14a.92.92,0,0,1,.52-.28.7.7,0,0,1,.66.51l.59.68a1.48,1.48,0,0,1-.35.13h0c-.34.52-.67,1-1,1.55-.55.58-1.1,1.21-1.68,0A1.25,1.25,0,0,1,224.88,233.6Zm61.53-43.31h0a1.15,1.15,0,0,1-1.17.12c.22.41-.22.75-.34,1.12a1.53,1.53,0,0,1-.75.62,2,2,0,0,1-1.85-.23l-.11-.15c-.89,1.1-1.25,0-1.76-.53a1.78,1.78,0,0,0,1.32-.84,2.21,2.21,0,0,0-.18-.42.92.92,0,0,1,.12-.85h0a1.15,1.15,0,0,1,1.27-.08c.15.08.24.54.49.19a.65.65,0,0,1-.23-.15,2,2,0,0,1-.27-.47,1.5,1.5,0,0,1,0-1.12.78.78,0,0,1,.5-.27,5.13,5.13,0,0,0,1.41.23l1.12,1.09C287.38,188.83,286.34,189.69,286.41,190.29Zm.84-2-.62-.76c.56-.8.8-.33,1,.24C287.52,187.94,287.39,188.11,287.25,188.28Zm-70.47,29.06c.41-.22.81-.45,1.2-.68l.29-.55c.12-.17.23-.35.34-.52a.82.82,0,0,1,.59.74l-.27.45s0,0,.07,0a.35.35,0,0,1,0,.47C218.25,217.33,217.54,218,216.78,217.34ZM206.2,229.92a1,1,0,0,1-.88-.55c.09-.17.19-.34.29-.51C206.33,228.92,206.51,229.29,206.2,229.92Zm1.63.67c.22-.25.44-.49.67-.73a.77.77,0,0,1,.32-.45l.75-.6.3,0a1.81,1.81,0,0,1,1.62,1.1,1.12,1.12,0,0,1-.28,1.09l-.27.12a1.7,1.7,0,0,1-.39,0C209.7,230.62,208.54,231.77,207.83,230.59Zm8.21,2.92a3.62,3.62,0,0,0-.13-.35c-.62-.82-.33-1.3.58-1.57a1.43,1.43,0,0,1,.33,1.33c0,.13,0,.27,0,.41Zm5-18.95a1,1,0,0,1-.26-1.24l.37-.09c.23.39,1.85.46.3,1.28A.27.27,0,0,1,221.06,214.56ZM219,219.47c.09-.31.17-.63.26-.94a2.15,2.15,0,0,1,1.22,1.5C219.82,220.25,219.25,220.28,219,219.47Zm14.37,7.94c.22-.35.57-.41.82-.15s0,.62-.16.89a2.16,2.16,0,0,0,0,.36l-.39.15C232.85,228.39,233.28,227.86,233.36,227.41Zm-6.11,2.65c-.73-.26-.76-.67-.25-1.2.39,0,.95-.43,1.11.13S227.63,229.77,227.25,230.06Zm19.13-11.88h0a1.54,1.54,0,0,1-.93-.6,1.75,1.75,0,0,1-.39-1.35h0l-.27-.18a1.33,1.33,0,0,1,0-1.78,2.68,2.68,0,0,1,.52-.36l.11,0c-.19-1-1.76-1.64-.67-2.92a.91.91,0,0,0,.6.77.55.55,0,0,1,.23.77c0,.46.24.93-.07,1.34a1.58,1.58,0,0,1,1.29-.21.94.94,0,0,1,.25.83c-.35.58-1,.9-1.37,1.42a2.5,2.5,0,0,1,1.08.16c.57.3,1.16.6.85,1.43l-.36.52A.65.65,0,0,1,246.38,218.18Zm-24,9.92-.52,1.38s0,0,.07,0a.79.79,0,0,1,.1.92c-.66.49-.71,1.27-.91,2l-.42.11c-.32.22-.58.08-.84-.12a1.39,1.39,0,0,1-.47-1.37l-1.19.28-.4.07c-.35-.92.74-.93.94-1.51l0-.13c0-.56-.22-1.27.54-1.39s1.45-.2,1.8.58c.17-.7-.18-1.48.23-2.15a1,1,0,0,1,.41-.43,1,1,0,0,1,1.21,1.06A.8.8,0,0,1,222.35,228.1ZM279.2,192a2.17,2.17,0,0,1,.42-.11c.05,1.08-.66,1.24-1.51,1.22Zm.25,3,.43-1.49.48,1.66A.75.75,0,0,1,279.45,195Zm-53.94,31.15a1.85,1.85,0,0,1,.79-.2,1.39,1.39,0,0,1,.53.14.44.44,0,0,1,.06.49l-.7.66a.81.81,0,0,1-1.06-.7A1.76,1.76,0,0,1,225.51,226.15Zm5.65-.5c0-.14-.07-.28-.11-.42.29-.47.71-.33,1.1-.31a.59.59,0,0,1,.13-.39c.46,0,1-.93,1.34.12V225l-.34.16-1.07,1.12Zm-3.27-.59c-.26-.64-.1-1,.64-1l.27.82c0,.13,0,.25,0,.38A.83.83,0,0,1,227.89,225.06ZM241,221.64c0,.14,0,.27.07.41h0a1.26,1.26,0,0,1-1.24.41.75.75,0,0,1-.15-.94C240.07,221.4,240.55,221.2,241,221.64Zm25.46-19.28a.92.92,0,0,0-.25.94l-1.13.79a.84.84,0,0,1-1.07-.66.68.68,0,0,1-.36-.66,1.42,1.42,0,0,1,.19-.48L264,202l-.55-1.11a.51.51,0,0,1,.81-.17c.06.24.12.47.19.71.38-.18.65,0,.91.27l.82-.51a.89.89,0,0,1,.95.19C267.16,201.91,267,202.3,266.42,202.36Zm-38.75,9.83c.2-.35.41-.7.62-1.05a23.1,23.1,0,0,0,2.56-2.58c-.06-.21-.11-.43-.16-.65l.36-.53c-.13-.42-.25-.85-.37-1.27l0,0c.11-.19.21-.38.31-.57l.37-.41.79-.21.64.71a1.37,1.37,0,0,1-.66,1,1.1,1.1,0,0,1,.53.89,1.13,1.13,0,0,1-.06.41c.7-.08,1.29,0,1.36,1h-1.37c.13.59.35,1.21-.54,1.41-.34,0-.68.09-.8.49s-.09.91-.64,1.07A3.19,3.19,0,0,1,227.67,212.19Zm-.92-2-1.05-.67c.18-.55.71-.56,1.13-.73l.72-.22-.06,1Zm9.81,7.46a1.25,1.25,0,0,1,0-1.2c0-.28-.09-.57-.14-.85a1.29,1.29,0,0,1,.35-.18.69.69,0,0,1,.72-.33.42.42,0,0,1,.13.07c-.3-.59-.93-.37-1.42-.49-.1-.54-.21-1.09-.31-1.64a1.87,1.87,0,0,0,.31-.17c1.06-.45,1.6.6,2.42.84a2.2,2.2,0,0,1,0,1.76.53.53,0,0,1-.67.26,2,2,0,0,1-.07.54c-.08.26-.37.53-.21.8h0a.88.88,0,0,1,1.1-.35.79.79,0,0,1-.07-.37c.08-.24.32-.34.47-.51.34-.17.63-.81,1-.36s-.3,1-.31,1.52c0,.15-.12.23-.23.23s-.17,0-.18-.06l0-.12c-.08.32-.16.65-.25,1l-1.64,0a.83.83,0,0,1-.28.16A.86.86,0,0,1,236.56,217.64Zm-.53,2.2a.87.87,0,0,1-.58.1,1.65,1.65,0,0,1-.26.32c.15,0,.2.14.12.42l-.35.08c-.6-.1-.55.87-1.18.71l-.18-.79a.7.7,0,0,1-.14-.72c.2-.53.08-1.16.48-1.64.4-.22.7-.86,1.28-.29l.38-.08a3.35,3.35,0,0,0,.89,1.16A1.12,1.12,0,0,1,236,219.84Zm-6.09,4.34-.89-.2c.63-.42,1.49-.67,1.31-1.71l.34-.53h0l.27-.93a1.15,1.15,0,0,1-.31-1.27c.67-.66-.63-1.67.38-2.28l.35-.15c.85-.17,1.17.49,1.61,1l-.06.29c-.53.74-.39,1.85-1.24,2.41.43,0,.69-.55,1.12-.55.88.32.57.88.29,1.43-.16.33-.35.61-.73.65C232,223.46,231.32,224.29,229.94,224.18Zm5.95,1c.25.5-.25.7-.64.86a.8.8,0,0,1-.54-.76C235.12,225.38,235.5,224.43,235.89,225.22Zm3.92-4.66-.44.15a.94.94,0,0,1-.76.51c-.46.12-.92.33-1.34-.08a1.23,1.23,0,0,1,.31-1.66,10.9,10.9,0,0,0,2.61-1.22,1.29,1.29,0,0,1,1,.63c.06.26.11.51.16.78C241,220.22,240.37,220.32,239.81,220.56ZM243.2,214a2.56,2.56,0,0,1-.39,0l.12-1.32c.36,0,.74-.08.9.36S243.6,213.82,243.2,214Zm10.42-5.93A1.62,1.62,0,0,1,253,210l-.32.53-1.72-1.9a1.34,1.34,0,0,1-.93-.72,1.46,1.46,0,0,1-.11-.9,1.72,1.72,0,0,1,2.23-1.18,1.1,1.1,0,0,1,.69.54A2.46,2.46,0,0,0,253.62,208.07Zm-18.12-2.29a1.34,1.34,0,0,1,.89.5,1.52,1.52,0,0,1,.09,1.65l-.32.54-1-.24a1.49,1.49,0,0,1-.63-1.51A1.15,1.15,0,0,1,235.5,205.78Zm5.95,6.37c-.06.25-.06.66-.2.71-.45.19-.53-.27-.69-.55,0-.13,0-.26,0-.39-.66-1.15-1.13-2.25.65-2.85.76.59-1,1.72.47,2.17.2.07.24.2.13.39s.06.28.08.42Zm-2.89,0c0,.14-.26.24-.39.37l-.42-.92h0C238.17,211.62,238.65,211.53,238.56,212.19Zm12.53-22.31c1.15-2.2,1.78.53,2.72.29.77,1.38-.77.71-1,1.17A2.32,2.32,0,0,1,251.09,189.88Zm15-2.55-.61-.74,1.25-.28A.75.75,0,0,1,266.12,187.33Zm-4.46,15.72-.38.13-.67,1-.53-.32c-.57-.78-.41-1.28.56-1.47A.79.79,0,0,1,261.66,203.05Zm-23,1.21c-.09-.39-.18-.79-.26-1.18l.33-.56.52.32a15.12,15.12,0,0,1,.57,2.53c.07,1-.44.56-.82.2-.69-.45-.7,2.14-1.69.38C237.84,205.41,237.19,204,238.71,204.26Zm5.78,3.63c-.47,0-.79.73-1.34.24,0-.26-.05-.51-.08-.76a1.74,1.74,0,0,1,.38-.14C244.12,206.93,244.47,207.15,244.49,207.89Zm2.94,1.15c.43.43,1.22.28,1.52.94C248.14,210.15,247.23,210.49,247.43,209Zm-3-13.16c.27-.52.61-1,.89-1.52a.55.55,0,0,1-.06-.5l0,0c-.08-.27-.15-.54-.23-.81s-.05-.31-.08-.46c-.13-.65-.26-1.3.66-1.47.29,0,.76.09.46.36-1.81,1.6.87.89.78,1.57,0,.14.07.28.1.42.75-.63,1.45-1.45,2.54-.58l.76-.63c.49-.35,1-.92,1.37.14a1.09,1.09,0,0,1-.92,1.42,1.23,1.23,0,0,1-.38-.08c-.21,1-1.36,1.15-1.89,1.88-.5.31-1,.89-1.62.22h0a.49.49,0,0,1-.21,0c-.09.16-.19.32-.28.49-.75-.05-1.22,1.18-2.12.48C244.32,196.51,244.38,196.2,244.45,195.88Zm11.05-2.36c-.44-.15-.74-.4-.69-.92a1,1,0,0,0,.78-.61.75.75,0,0,1,1,.63A1,1,0,0,1,255.5,193.52Zm-20.66,9.41h.06c-.09-.42-.17-.84-.26-1.26.45-.27.09-1.15.87-1.17,0,.32,0,.66,0,1,0,.15,0,.29.05.43l.78,1.17-.66,1.06c-.91,0-1.78.75-2.72.13a1.28,1.28,0,0,0,0-.39C233.26,203,234.37,203.62,234.84,202.93Zm6.87.66-.8.18-.39-1.66C241.66,202,241.52,202.93,241.71,203.59Zm1.5-1.24-.39.14c-.64-.31-.76-.74-.31-1.3C243.07,201.38,243.12,201.88,243.21,202.35Zm.3-2.7,1.69-.4c.81.34.92,1,.91,1.8a1.53,1.53,0,0,1-.3.88.68.68,0,0,1-.87,0c-.58-.57-.88.09-1.28.29-.26-.67.57-1.58-.45-2.09ZM35.28,245.29A2.19,2.19,0,0,1,34,247.84l-.92,1A3.14,3.14,0,0,0,31,250.06h0l-.87,1.46-.61.06L28.64,253l-2.78.89h0c.07.69.65,1.79-.51,1.8-1.32,0-.44-1-.38-1.66a7,7,0,0,0,0-1.12,1.79,1.79,0,0,0-.09-.46c.1-.49.49-.57.9-.62a.92.92,0,0,1,.53.56.75.75,0,0,1,0,.15,3.83,3.83,0,0,0,1.91-1.2l.73-.25-.07-.08a1.69,1.69,0,0,1,.1-1.67c.57-.08.86-1,1.61-.5a4.4,4.4,0,0,0,1.21-2.2l1.56-1.06C33.93,245,34.54,244.73,35.28,245.29Zm-24.58-21-.73-.45.39-.76c.45,0,1.05-.19,1.09.49C11.46,223.82,11,224.08,10.7,224.32Zm39.77,44.6c0,.07-.49.08-.75.12.08-.55.17-1.11.25-1.66l-.3-1.13C51.93,266.51,50.6,267.92,50.47,268.92Zm-4.28-1.76,2,.13-.42.82c-.82,0-1.64.73-2.45,0Zm12.58-18.9a3.19,3.19,0,0,1-2.53,1.89l-1,.94c-.17-.57-.33-1.13-.5-1.69a1.23,1.23,0,0,1,.27-1.28,5.18,5.18,0,0,1,.56-.17C56.68,247.89,57.87,246.53,58.77,248.26ZM46.22,270.55c.22,0,.46.19.83.37-.29.22-.47.46-.65.46s-.43-.21-.64-.34C45.91,270.87,46.06,270.57,46.22,270.55ZM51,255.49c-1.05,1-1.21,2.77-2.87,3.2-.93-1.19-4-2.35.07-3.55.83-.25-.23-1.41.2-2.09C52,251,50.11,254.74,51,255.49Zm-5.92-5.73-.41.77-1.42-.31c-.77-.25-.85-.95-1-1.58.72-.36,1.78-.13,2.06-1.22a.52.52,0,0,1-.16-.59l-.68-.37-.88-1c1.2-.48,1.89-.09,2.14,1.08a1.28,1.28,0,0,1,.19,0c1.19.49,1.9-.36,2.7-1a1.86,1.86,0,0,1,.81-.15c.63.22,1,.6.65,1.29A16,16,0,0,1,45.11,249.76Zm-14.43-9.51c-1-.34-1-1.33-1.26-2.11,1.67-.37,1.37,1.1,1.77,1.91A1.87,1.87,0,0,1,30.68,240.25ZM7.14,220.42l.93,3.35-1.58-1.42c-.1-.36-.21-.72-.31-1.09ZM16.2,211l.45-.71a1.23,1.23,0,0,1,2.08-.25c.53-.63,1.06-1.23,2-.31l.26.15a.64.64,0,0,1-.06.57.4.4,0,0,1-.53,0c-.85-.21.26,2.58-1.3,1.3a1.69,1.69,0,0,1-2.26,1.48v0A1.8,1.8,0,0,1,16.2,211Zm-5.91,9.62-1,.9c-.83-.33-.9-1.09-1.1-1.78l-.12,0a.58.58,0,0,1-.53-.18l-.63-2.27L8,217c.09.38.18.77.28,1.16-.48.57.22.75.37,1.11l0,.05h0v0c1.27-.78,1.79-2.2,2.77-3.23.26,1.26,1.58.6,2.19,1.22.36.4.15.73-.13,1.05-.68.59-1.67.77-2.12,1.65a2.82,2.82,0,0,1-.56.53l-.54.14Zm-4.91,4.73c.31.69-.22,1-.8,1.25a1.2,1.2,0,0,0-.26,1.26,3.47,3.47,0,0,1-.46.27l-.34.56a.56.56,0,0,1-.08.65l-1.63.51c-2.12-1.28-2.39-2.86-.75-4.73a.82.82,0,0,1,1-.37,1,1,0,0,1,.11.17.52.52,0,0,0,0-.11h0c1.15-1.4,1.36.36,2,.59h0C4.63,225.29,5.06,224.67,5.38,225.38ZM54,251.49c-.82.25-1.64.48-2.63.76,1.24-1.24,1.24-1.24,2.65-1C54,251.31,54,251.48,54,251.49ZM63.2,244c.18.42,0,.67-.41.78-.64.46-1.2.57-1.52-.35l-.82-.95a.61.61,0,0,1-.14-.75,1,1,0,0,1,1.17-.19Zm.66-3.59a2,2,0,0,1,.69-.34h.32c-.43-.46-.26-1,0-1.56a1.42,1.42,0,0,1,.69-.43,1,1,0,0,1,.94.67l.84.87a1.73,1.73,0,0,1-.46.2c-.42.73-.84,1.46-1.27,2.19-.71.83-1.41,1.73-2.28.14A1.68,1.68,0,0,1,63.86,240.42Zm-23.6-9.77h0c-.86-.14-.85-.92-1.1-1.5l.42-.65L40.66,230l.57-.16a2,2,0,0,0,1.78,2l-.84,1.41c-.06.2-.16.29-.3.29s-.22,0-.23-.07l-.75-.42c-.65-.64-.19-1.24.07-1.85ZM21.45,203.34l0,.07.77.37c-.05.62-.08,1.25-.13,1.87-.39.24-.61.18-.69-.16a2.37,2.37,0,0,1-.34.37,3.87,3.87,0,0,1-.7.43c-.92.33-1.74.5-1.49-1a4.87,4.87,0,0,0-.06-.55C19.37,203.74,20,202.81,21.45,203.34Zm16.71,33.38a1.32,1.32,0,0,1-1.24-.69l.36-.72C38.27,235.34,38.53,235.83,38.16,236.72Zm2.26.79.87-1a1,1,0,0,1,.41-.63l1-.87.39-.07a2.51,2.51,0,0,1,2.29,1.39,1.49,1.49,0,0,1-.31,1.51l-.36.18a1.56,1.56,0,0,1-.53,0C43,237.42,41.48,239.07,40.42,237.51Zm11.86.77a1.9,1.9,0,0,1,.56,1.77,5.15,5.15,0,0,0,0,.56l-1,.31c-.06-.16-.13-.32-.2-.47C50.7,239.38,51.08,238.7,52.28,238.28Zm5.61-23.62a.37.37,0,0,1-.56.1,1.36,1.36,0,0,1-.44-1.67l.5-.16C57.73,213.46,60,213.44,57.89,214.66Zm-3,2.64-.34.62.09.05a.49.49,0,0,1,0,.64c-1,.12-1.91,1-3,.24l1.58-1c.13-.25.24-.51.36-.77l.43-.72C54.6,216.44,54.8,216.84,54.93,217.3Zm2,4.95c-.87.35-1.64.43-2-.66l.27-1.3A2.89,2.89,0,0,1,56.9,222.25ZM23.34,206l.43-.78a1.27,1.27,0,0,1,.92,1C24.09,207,23.76,206.22,23.34,206Zm52.59,26.42a2.57,2.57,0,0,0,0,.48l-.52.23c-1.08-.31-.53-1.06-.46-1.68a.68.68,0,0,1,1.11-.25C76.45,231.51,76.17,232,75.93,232.37Zm-9.51,1.46c.53-.08,1.25-.66,1.52.1s-.6,1.09-1.09,1.51C65.82,235.14,65.75,234.58,66.42,233.83Zm-5.73-1.7a1.14,1.14,0,0,1-.66,1c-.2.64-.41,1.27-.62,1.91l.1,0a1.05,1.05,0,0,1,.21,1.24c-.86.72-.88,1.78-1.11,2.76a3.81,3.81,0,0,0-.57.19c-.41.32-.78.15-1.14-.12a1.9,1.9,0,0,1-.74-1.83l-1.61.47a5.23,5.23,0,0,0-.54.12c-.53-1.23,1-1.33,1.19-2.12l-.06-.18c-.08-.75-.38-1.71.64-1.93s2-.37,2.49.67c.18-1-.34-2,.17-3a1.18,1.18,0,0,1,2.25.74Zm5.3-2.07a.59.59,0,0,1,.11.67l-.9,1a1.12,1.12,0,0,1-1.5-.89,2.62,2.62,0,0,1,.5-.55,2.52,2.52,0,0,1,1.07-.33A1.79,1.79,0,0,1,66,230.06Zm1.38-1.47c-.41-.86-.21-1.36.8-1.41l.42,1.09c0,.18,0,.35,0,.53A1.15,1.15,0,0,1,67.37,228.59ZM37.23,190.84a4.8,4.8,0,0,0,.79-.77l1.12-.27c.13.44.31.83.82.92a1.67,1.67,0,0,1-.72,1.47,3.65,3.65,0,0,1-4,1.11,3.1,3.1,0,0,1-.5-.29c-.69.75-1.37,2.24-2.15-.19,0-.57.25-1,.93-.91l.57-.13a.51.51,0,0,1,.61-.25l1.12-.25A1.55,1.55,0,0,0,37.23,190.84Zm.41-2.89c.23-1,.73-.57,1.1,0,.07.39.15.78.22,1.17C37.9,189.43,37.4,188.91,37.64,188Zm-4.88,9.75c-.19.8-.76.24-1.15.32a1.34,1.34,0,0,1-1.73.54,1.29,1.29,0,0,1-.42-1.76C30.73,196.5,32,196.2,32.76,197.7Zm13.5-17.91c1.19-.33,1.31.56,1.54,1.34q-.27.09-.54.21C46.48,181.11,46.36,180.46,46.26,179.79ZM64.78,208.4l-1.49-.84c.22-.76.93-.81,1.5-1.08l1-.35,0,1.36ZM25.84,197.14l-1.05-1.49,1.13-.32.42,1.66A1.52,1.52,0,0,1,25.84,197.14Zm2.61-1.87a5,5,0,0,0,.5-.18c.31.15.79.23.91.48.22.46-.31.52-.61.67A1,1,0,0,1,28.45,195.27ZM275.55,3.58c0-.07.49-.08.75-.12-.08.55-.17,1.1-.25,1.65.1.38.2.76.31,1.14C274.09,6,275.42,4.58,275.55,3.58Zm4.28,1.76-1.95-.14.42-.81c.82,0,1.64-.74,2.45,0C280.45,4.71,280.14,5,279.83,5.34Zm-9.08,16.07c.16.56.33,1.12.49,1.68a1.25,1.25,0,0,1-.27,1.29,5.7,5.7,0,0,1-.55.16c-1.07.07-2.27,1.43-3.17-.31a3.2,3.2,0,0,1,2.53-1.88ZM279.8,1.94c-.22,0-.46-.18-.83-.36.29-.22.47-.47.65-.47s.43.22.64.34C280.11,1.63,280,1.93,279.8,1.94ZM275,17c1.05-1,1.21-2.77,2.87-3.21.93,1.19,4,2.36-.07,3.56-.83.24.23,1.4-.2,2.08C274,21.49,275.92,17.76,275,17Zm-3,4.27c0-.1,0-.27,0-.28l2.63-.75C273.43,21.49,273.43,21.49,272,21.28Zm-9.21,7.21c-.18-.43,0-.68.41-.79.64-.45,1.2-.57,1.52.35l.82.95a.61.61,0,0,1,.14.76,1,1,0,0,1-1.17.19Zm-.66,3.58a2,2,0,0,1-.69.35h-.32c.43.45.26,1,0,1.56a1.34,1.34,0,0,1-.69.42,1,1,0,0,1-.94-.66l-.84-.87a1.75,1.75,0,0,1,.46-.21l1.27-2.18c.71-.83,1.41-1.73,2.28-.15A1.67,1.67,0,0,1,262.16,32.07Zm-12.07,8a2.57,2.57,0,0,0,0-.48l.52-.23c1.08.31.53,1.06.46,1.68a.67.67,0,0,1-1.11.25C249.57,41,249.85,40.51,250.09,40.12Zm9.51-1.45c-.53.08-1.25.66-1.52-.1s.6-1.09,1.1-1.52C260.2,37.36,260.27,37.92,259.6,38.67Zm.43,3.76a.58.58,0,0,1-.11-.66l.9-1a1.11,1.11,0,0,1,1.5.89,2.62,2.62,0,0,1-.5.55,2.68,2.68,0,0,1-1.06.33A1.66,1.66,0,0,1,260,42.43Zm-9.15,2.44c0-.16,0-.33,0-.49l.44-.24c.46-.54.93-1.07,1.39-1.6l1.47.79.18.57c-.36.65-.94.5-1.48.49a.76.76,0,0,1-.15.55C252.1,45,251.43,46.27,250.88,44.87Zm7.77-1c.41.85.21,1.36-.8,1.41l-.42-1.1c0-.17,0-.35-.05-.52A1.13,1.13,0,0,1,258.65,43.91Zm-16,4.38a1,1,0,0,1,.27,1.27c-.63.19-1.26.49-1.86-.08,0-.19-.07-.37-.11-.55h0A1.7,1.7,0,0,1,242.68,48.29ZM249.35,44c-.57-.05-1,1.27-1.6.22-.38-.66.3-1,.82-1.22A1.09,1.09,0,0,1,249.35,44ZM267.41,78.8l-.51.74-.9-1C266.7,77.41,267.07,78,267.41,78.8Zm42.71,46.8ZM205.61,195.69ZM44.16,106.78a8.39,8.39,0,0,0,.22-2.32,2.35,2.35,0,0,1,1.51-1.33c.24.25.48.51.73.76,1.91,2.32.15,3.27-1.59,4.22C43.64,107.78,43.75,107.82,44.16,106.78Zm24.25,45.61c-.19-1,1-1,1.83-1.14,0,.38,0,.77,0,1.16C69.57,152.39,68.6,153.31,68.41,152.39ZM30.46,117.76c0-.67.08-1.33.13-2,.21,0,.44-.09.66-.12C32.46,116.9,31.28,117.26,30.46,117.76Zm1.15,37.94a2,2,0,0,0,.64.07c-.06,1.16-.13,2.31-.19,3.46-1.39-.49-1.35-1.62-1.27-2.78-1.07-.61-2.44-1-2-2.75C30.46,153.39,30.85,154.81,31.61,155.7Zm67.74,60,1.48-.7.64,1.47C100.53,216.87,99.64,217.09,99.35,215.69Zm133.12-151a.37.37,0,0,1,.21-.61l1.29-.7c0,.82.12,1.65-.77,2.14Z"/></g></g></svg>