<svg xmlns="http://www.w3.org/2000/svg" viewBox="0 0 309.71 227.95"><defs><style>.cls-1{fill-rule:evenodd;}</style></defs><g id="Layer_2" data-name="Layer 2"><g id="Layer_1-2" data-name="Layer 1"><path class="cls-1" d="M279.66,76.19ZM160.57,124.34Zm-26.48,83c-.65-.78-1.67-1.21-2.11-2.2l-.07,0a1,1,0,0,0-.79-.4h-.34l-.9-.46c0-.19-.07-.38-.1-.57a6.19,6.19,0,0,0-.62-.13l-2.11.62,1.48.66a16.44,16.44,0,0,1-2.15.62c-1.09,0-2.28,0-1.75,1.69a1.71,1.71,0,0,0,2.44.27l.3-.22.14,0a3.07,3.07,0,0,1-.27.35,2.08,2.08,0,0,0-.16.72c-.94-.45-2,0-2.94.11a13.62,13.62,0,0,0-1.56.22c-.68.18-1.33.39-1.58,1.17a1.08,1.08,0,0,0,.12.24,1.85,1.85,0,0,0-.89-.43c-.74.08-1.42.22-1.28,1.22.42,1,1.67.72,2.31,1.39L123.4,211l.56,0c.57.75,1.41.55,2.17.62l1.9-1.22a3.18,3.18,0,0,0,.35.26c1.15.45,2.29,1.08,3.52.2.21-.43.43-.85.64-1.27-1-1.78,2.32-.59,1.53-2.23ZM30.49,122.83c.78-2,2.84-.5,3.65-1.8-1.21-1.2,5-2.37,0-3.59-.11,1-.69.74-1.45.81a3.8,3.8,0,0,0-3.47,3.42C29.05,122.57,30.17,123.65,30.49,122.83ZM105,189.59c-2.17-.8-3,2.07-4.92,1.85-.62,1.29,0,2.2.93,3,1.66-.37,3.24-1.21,5-.81l1.48-2.11c1.26-2.07-.79-1.32-1.48-1.74l-.44.23A2.56,2.56,0,0,1,105,189.59ZM29.5,134.38a3.31,3.31,0,0,0,3.07-.27,3.61,3.61,0,0,0,1.73-2.18l.42.12c.79-.66,1.66-1.26,1.59-2.48a1.84,1.84,0,0,0-.66,0c-2-1.92-2.54,1.35-4.07,1.16-1.85-.22-1.32,1.79-2.24,2.49A.71.71,0,0,0,29.5,134.38ZM192.35,3.93a1.33,1.33,0,0,1,.42-.06l.66.32a3.77,3.77,0,0,0,.64.51,1.15,1.15,0,0,0,1.18-.37c.19-1.12,1.06-1.52,2-1.88.65-.25,1.55-.34,1.3-1.34-.2-.77-1.05-1.33-1.66-1-1.66.85-3.55-.28-5.12.77a2.42,2.42,0,0,0-.21,2.72A1.32,1.32,0,0,0,192.35,3.93ZM30.21,86.37c-.81-1.31.86-1.69,1.09-2.63.59-.81,1.29-.49,2-.33.14-1.2,1.22-1.3,2.32-1.37.24-2,2.09-1.92,3.38-2.55h0c.14-.88,1.76-.54,1.71-1.57,1.16-.19,2.4-.08,3.38-.91h0a6.47,6.47,0,0,1,3-2.8l7.05-2.36a10.83,10.83,0,0,1,4.18-2.12h0c.86-2,2.71-2.42,4.51-2.94a4,4,0,0,1,2.9-1.38,16,16,0,0,1,6.41-2.86c1.87-2.92,5.13-3.63,8-5a2.11,2.11,0,0,1,2.22-.68c.94-1.14,1.83-2.39,3.61-2.1l2.27-1.4c3-1.69,5.64-4,9.14-4.66h0l3.81-2.44c.62-.9,1.6-.92,2.51-1.12a.54.54,0,0,1,.18-.51c1.91-1,4.4-.83,5.81-2.85.09-1.39,1.17-1.74,2.23-2.09l2.67-.87a1.08,1.08,0,0,1,.28-.11l2.78-1.12a1,1,0,0,1,.67-.12c1.35-2.11,3.72-2.22,5.78-2.94,4.51-1.66,7.66-6,12.77-6.49,3.76-1.95,7-4.78,11-6.32,1.42-.15,2.76.41,4.16.5.07-.42.13-.85.21-1.27-.95,0-1.5-.42-1.5-1.42l1.42,0c.18.54.37,1.07.55,1.6h0c.27.37.55.73.82,1.09.22-.44.53-.82.76-1.26l0-.05a1.25,1.25,0,0,1,.11-1.93,1.17,1.17,0,0,1,1.2.34,1.16,1.16,0,0,1,.22-.13,1.26,1.26,0,0,1,1.27.3,2.06,2.06,0,0,1,.66-.51l.13,0a1.7,1.7,0,0,1,.58-1.53,2.08,2.08,0,0,1-.63-1.5A10.26,10.26,0,0,1,165,13.56c.16-2.32,3-1.12,3.67-2.82l.42.31.12.22.78.21h0a2.09,2.09,0,0,1-.08-.23c1.13-1.51,3.2-.71,4.49-1.82,2.53.43,4.36-1.06,6.28-2.29h0c.8-1.65,2.36-1.25,3.73-1.37.42-.4.77-.91,1.39-1-.08-.59.46-.78.91-1a2,2,0,0,0,.68-.19.23.23,0,0,0-.11.32h0l1.49-.18c.83,1,2,.63,3,.68-.51,1.3-1.62,1.51-2.83,1.54h0l-.79.66c-.63.45-.9,1.26-1.6,1.66l-.21,0-1.16,1.09c-.68-1-1.47-1.68-2.78-1.26h0l-.32.23c.62,3.32-2,4.48-4.1,6.05h-3c-.58,1.13-1.78.5-2.62.91H172a.71.71,0,0,0,0,.26c0,.63-.11,1.21-.87,1.38a15.89,15.89,0,0,0-2.67.16,2.13,2.13,0,0,1,.12,1.5,1.72,1.72,0,0,1-.64.75l-3.34.36A8.46,8.46,0,0,1,158,23.27h0c-.68,2-1.29-.05-1.94,0h0A4.25,4.25,0,0,1,152.87,26l-.6-.1a1.17,1.17,0,0,1-.38.43c-2,.67-3.76,2.31-6.06,1.08l-.46-.35a1.64,1.64,0,0,1-1.23.35c0-.21,0-.41,0-.61a.44.44,0,0,0-.15.05,8.48,8.48,0,0,0-1.63.93,2.22,2.22,0,0,1,1.09,1,1,1,0,0,0,.67,0c1.59-.66,3.57-2,3,1.54l-2.89.66c-2.22.51-3.68,3.34-6.47,2.15l-1.4,1.54h0l-.84,1.28-2.86.69a.68.68,0,0,1-.21.1,1.7,1.7,0,0,1,0,.22c-1.66,1.53-3.3,3.09-5.78,3.08a2,2,0,0,0-.48,0,1.11,1.11,0,0,1-.07.26l-5.57,1.61c-.2.5-.12,1.18-.89,1.3a1.77,1.77,0,0,1-2.05.76c-1.74-.13-2.69,1-3.51,2.26l-.81-.07-2.62,1.62h0L108.2,49l-.23.17-.28,0c-1.19.61-2.32,1.42-3.75,1.41-.66.78-.78,2.15-2.24,2.06l-1.88.88C97.23,56.3,93.87,57,90.23,57c-.56.49-1.09,1-1.85.88a1,1,0,0,1,.52,1.33l-2.23,1.43c-.76,1-1.51,2-3,1.54A13.68,13.68,0,0,1,78,64.84c-1,.54-1.86,1.41-3,1l-.36.3c-1,1.83-3.88.74-4.67,2.94a6,6,0,0,1-.61,0,5.44,5.44,0,0,1-2.44-.07,1.84,1.84,0,0,1,.17,2.14l-2.84,1.51a3.18,3.18,0,0,1-2.13,1.45c-2.16.39-3.9,2.37-6.35,1.67l-2.18,1.3C51.45,78.4,49.8,80.56,47,80.67l-2.81,1.49-2.14.74c-.34,3.17-4,.95-5,3h0l-.81.56c-.79,1.06-1.57,2.13-3,.7C32.22,87.26,31,87.58,30.21,86.37Zm83.54-45.18v.05a.05.05,0,0,1,0,0ZM97.3,48.72,97,49.1A1.43,1.43,0,0,0,97.3,48.72ZM7.39,172.19c1.4,1.87,0,2-1.34,2.1l.06.77A4.53,4.53,0,0,1,3.94,178c-1.53.48-2.39-.28-3-1.57-.8-1.22-1.69-2.45,0-3.68.72-.71,1.43-1.43,2.15-2.15,1.48-.93,2.64-.24,3.76.72A2.37,2.37,0,0,1,7.39,172.19ZM1,173.52v0l.2-.1A1,1,0,0,0,1,173.52Zm243.87-41.67.79.65c1.23-.61,2.51,0,3.76-.17a2.65,2.65,0,0,0,.92-.42c.66-.68,1.07-1.41.38-2.32-1.51.16-3-1.22-4.53-.42l1-1.51-1-.76-5.29,4.73.37.62,2.29-.64c0,.82-.06,1.44-.08,2l1.31-2.09A1.46,1.46,0,0,0,244.88,131.85ZM30.41,198.69c.72-.11,1.58-.23,1.4-1.19s-1.31-.8-2.07-1l-1.52,1.37c-.07,0-.13.1-.19.29a.36.36,0,0,0,0,.25,1.05,1.05,0,0,0-.69.92,2.93,2.93,0,0,0,.07.41,3.73,3.73,0,0,0-.41,1.72l.51.17c0,1.51,1,2.12,2.23,2.27,1.73.2,1.58-1.37,2-2.35l.81-.75c.09-.74,1.31-.63,1.15-1.77C32.72,198.76,31.33,200.13,30.41,198.69Zm23.14-83.35-.72.69c0,1.12-1.11,1.4-1.58,2.17v1.27c1.7,1.13,1.57-1.93,3-1.32a2.16,2.16,0,0,0,2.3-1.69A2.78,2.78,0,0,0,53.55,115.34ZM21.76,160.88c-.21-.1,0,.74.1,1.15l-3-.93-2.07.16c0,2.33,1.73,1.3,2.83,1.52h0a1.34,1.34,0,0,1,.08.66c2.33,1.86,3.39-.89,5.07-1.4C24.44,160.05,22.74,161.33,21.76,160.88Zm21.05,29.79-2.23.87,0,2.05c.56.73,1.31.54,2,.43s1.52.08,1.86-.84-.45-1.73-1-2.44A2.5,2.5,0,0,0,42.81,190.67Zm11.47-2.09.3,0,.31-.05c.25-1.82-1.23-1.16-2.06-1.43l-2.93,0a1.87,1.87,0,0,0-.92-.34,2.81,2.81,0,0,0-2,1.06l-.66-.61-.79-.89c-.55.13-1.19.08-1.39.81l-.62.14c-.56.68-.72,1.35,0,2l3.82,0a2.14,2.14,0,0,0,.44.31c.9.18,1.47-.63,2.26-.78a2.47,2.47,0,0,1,.6-.19A4.51,4.51,0,0,1,54.28,188.58ZM32,112.31c.57-2,2.71-.92,3.55-2.13a2.45,2.45,0,0,0-.54,0c-1.13-2.32-2.39-2.34-4.38-.07-.09.61-.11,1.26-.82,1.55C30.27,113.05,31.86,112.87,32,112.31Zm88.4,102.28,0,0a2.4,2.4,0,0,0-2.12-.52c-.56.23-1,.57-.84,1.26l1.61,2c.81.25,1.66.59,2.07-.59A2,2,0,0,0,120.41,214.59ZM202.74,18.84A22.79,22.79,0,0,0,205.3,18c-.77-2.67-2.27-1.18-3.6-.63C201.13,18.46,201.36,19.12,202.74,18.84ZM134.15,192.29l1.54-1.51a1.81,1.81,0,0,0-3-.69c-2.12.72.29,1.43,0,2.14Zm6.46-16.54c.92-.79,3.54.6,2.85-2.23l-2.84.06C140.84,174.3,139.78,175,140.61,175.75Zm-25.77,31.68.53.7a3.19,3.19,0,0,0,2.61,1.28,2.74,2.74,0,0,0,1-.32,1.53,1.53,0,0,0,.44-.78,1.75,1.75,0,0,0,2.35-.27c-.06-.8-.67-1.1-1.27-1.42l-1.44.73-2.89-.77Zm169-157.78.29,0h.3c.59-.39,1.3-.66,1.48-1.47,0-.44,0-.89,0-1.33-.52-.8-1.36-.69-2.15-.74l-3.55-.68c-.45,1.32-3.12,0-2.65,1.85.3,1.19,2-.16,3,.33a1.2,1.2,0,0,0,.33.06l1.26-.24,1.07-.41,0,0C283.59,47.91,283.13,48.91,283.87,49.65Zm-249,121.76-.75.7-.79-.14a6.41,6.41,0,0,0-3.55-.61l.09.14h0l-.27,2.71-2.17.79h0c-.15.68-.41,1.27-1.23,1.34L24,176.4l.12-2.57-.15-.12a.59.59,0,0,1,.16-.87c2.36-1.78,3.63-4.88,7-5.47,1.31-.23-2-2.51.86-2.53a2.67,2.67,0,0,1,1.88,1.62l1-.14C34.2,168,35.1,169.71,34.87,171.41ZM27.43,175l-.33-.06h0A.78.78,0,0,0,27.43,175Zm1.5-3.05-.07,0a2.5,2.5,0,0,1-.95,0c-.19.45-.34.91-.57,1.34C28,173,28.73,172.73,28.93,172Zm57.84,53.51c.08,2.16,1.59,1.36,2.73,1.31C89.37,224.72,88.19,224.84,86.77,225.46Zm57.62-56.27a.92.92,0,0,0-1,0c-.64,1.6.21,2.93.79,4.3h.32l.32,0a1.91,1.91,0,0,0,.59-1.91A5.61,5.61,0,0,0,144.39,169.19ZM127,214.57c.82-.62,1.87-1,2.14-2.19l-2.2.63C126.44,213.55,124.83,214.14,127,214.57ZM268.11,25.36c.68-.63,2-1.09.61-2.28-.87.07-1.49.41-1.55,1.38ZM51.37,185c0-1-.6-1.37-1.49-1.42-.27.22-.54.44-.8.67l1.46,1.5C51.5,186.22,51.37,185.48,51.37,185Zm46.8,38.92,0,0-.06,0ZM265.12,16a3.13,3.13,0,0,1,.57-.18l.06-2,1.44-1.5c.19-1.58-.78-.84-1.44-.71l-.75.73-.06,1.4C263.83,14.54,262.9,15.38,265.12,16Zm25.76,27.32a.8.8,0,0,1,0,.66c.3.47.61.94.92,1.4l1.33-.76c-.22-.45-.43-.91-.65-1.37C291.9,42.42,291.37,42.51,290.88,43.29ZM228.07,30.36c.14.54.34,1,1,.59l2.16-1.38a1.48,1.48,0,0,0-1.42-.7C228.86,28.91,228.14,29.25,228.07,30.36ZM258,110.08l-1.5.14c-.54.85-.56,1.44.68,1.41l.65.31C259.18,111.44,258.72,110.77,258,110.08ZM32.52,194.25c-.9.21-1.84.38-1.93,1.59C33.18,195.75,33.18,195.75,32.52,194.25ZM37,106.68l1.38-.15,2.05-.08.88-.66a1.84,1.84,0,0,0,2.17-1.35c1.06.08,1.38-.54,1.37-1.45.2,0,.4-.06.6-.08L47,101.47c-1.33-.16-2.34-.88-3.53-.51l-1.5-.13-1.59,1.29c-.64.76-1.83,1.09-1.86,2.34l-.88.66C37.85,105.8,36.15,105.7,37,106.68ZM143.14,178c.08-.35.16-.71.25-1.07-3.81,2.65-3.81,2.65-1.29,5.54.24-1,.45-2,.67-2.88a2.68,2.68,0,0,0,1.3.23.92.92,0,0,1,.17-.46h0c.59,0,1.14-.1,1.33-.78l.8.05a2.09,2.09,0,0,0,2,.87,1.09,1.09,0,0,0,.1-.11c0,.2.08.39.13.58l1,.72a1.43,1.43,0,0,0,.16.78,1.48,1.48,0,0,0-1.95.83c1,1.13,1.92.25,2.87-.1a1.32,1.32,0,0,0,.11-.59l1.93-.18c0-.42,0-.84,0-1.25a1.59,1.59,0,0,0-.82-.69l-.19,0a3.36,3.36,0,0,0-2.9-.92,1.21,1.21,0,0,0-.33-.63l-2.15-.77-1.42.68A1.47,1.47,0,0,0,143.14,178Zm-1,9.36a2.86,2.86,0,0,0,.58-.21l-1.4-2.14C140.75,186,140.4,187,142.11,187.32ZM7.4,169.85l.15-.67c-.54-.93-1.51-.64-2.32-.82a4.23,4.23,0,0,0-.57.19A3.09,3.09,0,0,0,7.4,169.85Zm105.84,26a1.73,1.73,0,0,0,.05.68c1.08.15,2.14.28,2.06-1.35a5.23,5.23,0,0,1-.68-.07Zm-.75,23.75c0,.24,0,.48,0,.72a1.86,1.86,0,0,0,2.19,0C114.28,219.15,113.51,219,112.49,219.57ZM37.77,196.43c-.81.47-.24,1-.05,1.5H39.1l0-1.39A1,1,0,0,0,37.77,196.43ZM270.71,97.59c.08.57,1,.43,1.57.36l0-1.38C271.53,96.62,270.59,96.67,270.71,97.59Zm39-61.47c-.72.06-1.66.1-1.54,1,.08.57,1,.43,1.58.36C309.69,37,309.68,36.58,309.67,36.12Zm-82,94.26c0,.69,0,1.39-.05,2.09,1.05-.49,2.05-1,.79-2.28Zm33.63-26.46c.73.15,1.33-.79,1.31-2.15a5.56,5.56,0,0,0-1.25.63C260.9,102.88,260.26,103.7,261.35,103.92Zm37.42-60.45c.74.15,1.33-.79,1.31-2.15a6,6,0,0,0-1.25.63C298.33,42.43,297.68,43.25,298.77,43.47Zm-10,84.78c-1.1-.2-1.68.45-2.07,1.37,0,.43.51.46.66.77,1.14,0,1.64-.67,1.79-1.68C289.17,128.57,288.93,128.28,288.77,128.25ZM94.19,222.14a2.08,2.08,0,0,0-1,2.4c.66,1.71,1.78-.1,2.66.2h0c.22,1.23.36,2.5,1.83,3.21.73-.84.38-1.78.39-2.65l.09-1.4-1.31-.14C96.34,222.55,95.42,221.64,94.19,222.14Zm3.94,1.76h0l0,0Zm34.62-40.24c.88,1.5,1.93.73,3,0h-3ZM266.49,24.58l-1.32.2h0c-1-.19-2.17-.11-2.73-1.23s-1.91-1.19-2.12-.43-2.09,2.37.4,2.93a3.3,3.3,0,0,0,.78.43c.09,1.14,1.43.55,2.05,1C266,28,265.64,25.67,266.49,24.58ZM261.41,28l-1.37.82c-.22,0-.44,0-.65.06l-.81.68a.66.66,0,0,0,.08,1,2.61,2.61,0,0,0,2.2.18,2.52,2.52,0,0,0,1.45-1.2c.54.16.76,0,.63-.69,0-.27,0-.54,0-.81ZM185.67,175.9c-1.82.21-2.63,1.25-2.95,3-.2,1.08-1,.61-1.21-.28-1.06.71-2.53-.67-3.46.7a1.52,1.52,0,0,1,0,.56l1.48,1.58c-1,1.65-2.55,1.56-4.14,1.48.4-1,.8-2,1.21-3l0,0-1.4-1.29c.07,1.23-.75,2-1.37,2.9,0,.53.06,1,.13,1.54l-.53.11a1.16,1.16,0,0,1-.24.26c.59.31.9.95,1.37,1.39a.8.8,0,0,1,0,.21l1.25-.71c.44,0,1.12,0,1,.51-.38,1.16-1.29,1.44-2.41.88-1.67-.18-2.73.79-3.95,1.77-.94.75-1.85,1.87-3.19,2,.34.81.67,1.58,1,2.35l-.7.43-3.31-2.66.09-.23c-1.77.16-3.82-.77-5.08,1.36-1,.86-2.17.17-3.21.56l-.27-.05c0,.31-.08.62-.13.93l-1.41,1.05a.74.74,0,0,1,0-.39h0l-.76.73c.06.86.22,1.74-.68,2.32l-2.85,0-.68.25h0a1.49,1.49,0,0,1-2.39-.14l-.47.61c.23.74,1.06,1.48,0,2.23s-1.94-.8-2.94-.07l-.26.09-.27,0-.87,1.45c0,.54-.11,1.13.49,1.48-1.14.94-2.26-.63-3.4,0-.47.79-1,.76-1.53.09h0l-1.31-.35-1.4.24c0,.46,0,.91,0,1.37a1.22,1.22,0,0,1-1.42-.86c-.47.21-.95.52-1.47.13-.44-1.67-2.55-3.34,0-5,.9-.29,1.84.87,2.71-.09l.27.21,0-.07-.32-.14,2.3-1.39a4.53,4.53,0,0,1,3.31.69,1.4,1.4,0,0,1,.59-.17,1.69,1.69,0,0,1,.51.23l.1-.22a1,1,0,0,1,1.16,0l.67.2c.29-.73-.53-2.67,1.56-1.42.73-.13,1.51-.29,1.15-1.3-.59-1.69.51-2.06,1.74-2.38l.75.08a6.36,6.36,0,0,0,4.18-1.57c-.19-.68-.38-1.35-.56-2a2.57,2.57,0,0,0,1.35-.74,2.17,2.17,0,0,0-2.13-1.34L152,183l.8-.51c.73,1.13,1.47,2.25,2.54,3.89.32-1.09.62-2.09,1.1-3.69,2.71-1.36,3.21-1.17,3.91,2.22l-.8.19.39.54c-.41.57-.83,1.13-1.29,1.74l2.07.4c-.1-1.15-.17-2-.25-2.87,2.32-1.41,4.8-2.63,7-4.19-.32,0-.65,0-1,0l.09-1.3a6.75,6.75,0,0,1,3.28-.68c1.13-.89,2.17-1.39,3.21-.35a4.14,4.14,0,0,0,1.28-.67h0a3.34,3.34,0,0,0,.12-.63c1.37-1.25,2.11,1.66,3.46.53h0c.08-.6.16-1.21.25-1.81,1.59,1.42,2.16-1.14,3.46-.88l1.43-.11C183.89,175,185,174.4,185.67,175.9Zm-48.25,23.72a3.48,3.48,0,0,1,.5-1.38l.06-.06a4.48,4.48,0,0,1-1.37.09A2.37,2.37,0,0,1,137.42,199.62Zm17.68-9.44.08-.08-.21,0Zm-7,4.42a1.07,1.07,0,0,1,.23-.2l-.16-.34C148.18,194.24,148.16,194.42,148.13,194.6Zm8.35-8.09.25.21c.7-.5,1.42-1,2.14-1.44-.25.07-.49.13-.72.22A4.61,4.61,0,0,0,156.48,186.51Zm5,1.42.07-.21-.38.15ZM38.36,113h0Zm76.24,74.26-1.37-.9a2,2,0,0,0-3.09.41,1.62,1.62,0,0,0,0,.2c-1.59-1-2.86-.29-4.06.89,0,.46,0,.91,0,1.37a6.35,6.35,0,0,0,4.28-1.34c1.34,0,2.07,1.61,3.52,1.3l1.36-1.18A.82.82,0,0,0,114.6,187.28Zm-54.51,6.41c-1.18.74-2.12,1.93-3.67,2V196c-.92-.42-1.6.22-2.35.5a3.66,3.66,0,0,1-.46-.18.8.8,0,0,0-.78.29l-1.44,2.23c0,.25,0,.49,0,.74a1.82,1.82,0,0,0-.32,2.94,2.6,2.6,0,0,0,2.29.06c1.26-.56.45-1.55.18-2.38.77-.07,1.65.15,2.17-.71.31-.63,1.35-.83,1.08-1.81,0,0,0-.07-.07-.11a2.49,2.49,0,0,1,1.87.48C62.35,197.73,60.63,195.5,60.09,193.69Zm.71,5.76c.46.91,1.3.61,2,.65L62.14,198Zm215.77-64.83c-2.05.46-3.83-.56-5.71-1l-3.62,1a1.5,1.5,0,0,1-1-.47c0,.38-.08.76-.14,1.15a1.51,1.51,0,0,1-.23.21l.57,1.44a1.17,1.17,0,0,0,.36.59,3,3,0,0,1-1,2c0,.28.06.55.1.83-.87.27-1.58,1.09-2.62.72a.75.75,0,0,1-.39-.12l.11.16.28,0c-.15,1.48-1.42,1.62-2.45,2.05-1,1.13-2.4.5-3.57.84l-.59.6c-.81-.38-2.14-.33-1.82-1.64a2.1,2.1,0,0,1-.6-.19l-.33,0-.32.11a2.43,2.43,0,0,1-.41-.44h-1.63l-.67.15a.72.72,0,0,1-.12.72l-.79.71.91,1.38c.75,0,1.44.11,1.33,1.09-.15,1.39-1.29,1-2.14,1.09-.47-.29-1.24-.12-1.55-.69a.51.51,0,0,1-.63,0c-.23-.49-.44-1-.67-1.46h0l-.62-.08a4.62,4.62,0,0,1-2,1.81l.44.45c-.24.71-.49,1.43-.74,2.14a.64.64,0,0,1-.87.09,4.75,4.75,0,0,1-2.71-.73,1.4,1.4,0,0,1-.32-1.46,1.75,1.75,0,0,1,.88-.81,6.38,6.38,0,0,0-1.93-.71c0,.26,0,.51,0,.77a1.5,1.5,0,0,1-1.65.34,2.87,2.87,0,0,1-.5.82c-1,.8-1.9.95-2.61,0a4.2,4.2,0,0,1-1.29,1.92c1.26.65,1.48,1.51.82,2.57a3,3,0,0,1,2-.34,1.5,1.5,0,0,1-.05-.94c0-.07.09-.12.12-.18-.31-.29-.7-.59-.66-.82.13-.84.92-.39,1.43-.48a3.89,3.89,0,0,0,.16.44l0,0a2.09,2.09,0,0,1,2.21,1c0,1.3-1.08,1.7-2,2.2a4.1,4.1,0,0,1-3.07,2.17l-1.44-.77c-.93.4-1.82,1-2.91.68l-1.38-.77h0l-1.46-.07h0l-.71.85a2.21,2.21,0,0,1,1.43,2.19l-1.38.12c-3.13,1.17-5.6,4.07-9.37,3.57h0l-.65.67a1.47,1.47,0,0,1-.85,1.39c-2.7.87-4.89,2.89-7.74,3.42h0c.37.44.68,1.48.27,1.38-2.16-.5-4,1.33-6.05,1a9.48,9.48,0,0,1-1.93.92c0,.24.31.42,1.36.48,3.09.15,1.14,1.14.34,2l-1.27.24a2.76,2.76,0,0,1-2.27.54c-1.86,1.61-2.21-1.14-3.49-1.21a.77.77,0,0,1-.91-.07,1.13,1.13,0,0,1,0-1l0,0c-.3-.78.52-1.3.57-2l.78-.12a4,4,0,0,1,.17-.95c-.91.69-1.83,1.35-2.78,2,.39.66.12,1.17-.54,1.58a2.5,2.5,0,0,1-2-.6,1.25,1.25,0,0,1-.93,1.28.2.2,0,0,1,0,.23.41.41,0,0,1-.31.16c-.58.64-2.14,1-.69,2.25a2.49,2.49,0,0,1,.23.59h0c.64.39,1.68.52,1.66,1.44s-1,.54-1.58.68l-1.08-2c-.87-.79-1.13-2.33-2.72-2.25-.11-.46-.93-.92,0-1.37l-.06-2.18,2.2,0a1,1,0,0,1,.6-.15,15.55,15.55,0,0,1,1.45-1.15l-1.47-1.23L186,169.2c-.55-2.71-1-4.5-1.23-6.32-.07-.51,0-.74,1.35-1.41a2.13,2.13,0,0,0-2.18-.87h0l-.8.72c-1,.23-1.61,2-3,.79h0l-1.38,0a3,3,0,0,1-2,.83l-.14,0a2.07,2.07,0,0,0-.19.32,1.32,1.32,0,0,1-1.4-1.11l-1.3.56,0-.09h0l0,.09q-.06.3-.09.6a1.44,1.44,0,0,0,0,.36l.71-.84.61,1.38c.77.07,1.17.33.51,1.14l.06.13-.33.18-1.45,1.49-.75-.31-.45.24-.72-.72-.25-.11h0l-1.41.08c-.64-1.64-3.52.51-3.57-2.12.35-1,.95-1.35,1.95-.87h0c.36-1.72,1.83-1.95,3.19-2.33a1.58,1.58,0,0,1,.55.12c.14-.43.06-1,.83-.93-.06-.14-.12-.27-.19-.41.73-.52,1.7-.06,2.43-.58l2-.77c1.71-.46.63,1.26,1.28,1.63.16-2,2.76-1.6,3.57-3.08.1-.18,1.73.69,1.7,2a1.21,1.21,0,0,1,1.4.13c.92.44,1.84.89,2.1,1.83,1.08-.48,2.59-1.11,4.73-2-.24,1.72-.45,3.35-.68,5,1.1-2.56,2-4.63,2.85-6.68l-.7-1.11,4.18,1.36-2.45,1.34c0,.8.05,1.53.09,2.18,1.95-.42,3.52-1.27,2.94-4.27,1.14,0,2.79-.46,3.35.12,1.78,1.86,3.69,2.64,6.25,1.57,0,.27,0,.5,0,.76a3.74,3.74,0,0,0,.4-.8l.36-.61a7.75,7.75,0,0,0-6.7-2.29,3.17,3.17,0,0,1-3.45-1.7,8.27,8.27,0,0,1-1.08-.61h0a4.67,4.67,0,0,1-.66.23c-1.34.68-2.65,1.58-4.27.85h0a1.47,1.47,0,0,1,0,.51h0c.21,1.77-.8,2.82-2.19,3.62-.73-.24-1.76.48-2.22-.66h0l-1.38,0c-1.82.34-3.89,1.09-3.41-2.17l.55-.06c.19-.73.82-.69,1.37-.78a23.52,23.52,0,0,1,5.8-2.85,2.07,2.07,0,0,1,1.81-.67l-1.42-1.64c4.09-4.05,4.24-4.18,6.36-.52l.35-.05c.33-1.29.53-2.1.82-3.22l3,1.41c.48-1.34.88-2.44,1.28-3.54l2.29,1.6a25.11,25.11,0,0,0,.67-2.72l-.61.23c-1.62,1.15-3.38.73-5.12.45a.72.72,0,0,1-.13-.64,3.46,3.46,0,0,0-1.46,1.33l-1.33.05a1.32,1.32,0,0,1-.42-1.17,1,1,0,0,0,.05-.23c-1.57.23-.64,3.48-3,2.78-.74-.92-.14-1.48.55-2a15.42,15.42,0,0,1,2.26-2.7,2.4,2.4,0,0,1,0-.37,2.2,2.2,0,0,1,.43-.83,4,4,0,0,1,.72-.42,1.78,1.78,0,0,1-.81-.9l-1.23.1c-1.11-.66-1.81.56-2.78.58-2.26,0-2.68-1.75-3.18-3.39a2.4,2.4,0,0,1-.44.12,1.79,1.79,0,0,1-.09.57c0,.44-.05.87-.08,1.3l-1.23.88h0l1.44,3.55a2.56,2.56,0,0,1-2.28,1.35h0l-1.49-.78.06.29-2.12-.7-1.5,1.33c-1.19.32-1.53-.42-1.72-1.35l-1.87.46c-1.08.1-1.22.68-.76,1.55a2,2,0,0,1-.54,0h0c.31,1.44-.81,2-1.69,2.78l-.67.34c-1.14-.1-2.13.81-3.3.54a.73.73,0,0,1-.23.64l-3.58.77h-.35l-.35,0h0c-1,.94,1.18,3.23-1.47,3.47l-2.31-1.36h0a2.1,2.1,0,0,1-.66-.14,2.8,2.8,0,0,0-.64.13c0,.21,0,.41,0,.62l-.85.07c.43.66.87,1.32,0,2.06h0c-.64.85-1.76.2-2.47.81a6.69,6.69,0,0,1-4.65.81l-.73-.77a3.53,3.53,0,0,1-.46.15h0a1.25,1.25,0,0,0-.07,2c.7,2.23-1.31,2.1-2.41,2.77a2.13,2.13,0,0,0-.65.2,2.18,2.18,0,0,1-.43-.53c-.81.37-1.63.79-2.34-.37a2,2,0,0,0-2.24.08l-.57,1.2h.06c.81.21,1.05.84,1.17,1.57a3,3,0,0,1-.31,1.58,1.58,1.58,0,0,1-1.84.82l-1.4-.11a3.26,3.26,0,0,1-2.12-.57,1.11,1.11,0,0,0-.17.3.64.64,0,0,1,.07.89l-2.06.92-2.15-.05-.78.47h0c-1.49,1.14-2.56,1.05-2.94-1l-2.54-.17h0a1.13,1.13,0,0,0-.11.48l1.5,1.52-.61.68a3.29,3.29,0,0,1,1.81,2.26c.73-.46,1.39-.07,2.06.31a1.82,1.82,0,0,1,.27.29l.59-.59a.4.4,0,0,1,.62.08.83.83,0,0,1,.11-.24,1.76,1.76,0,0,1,2.17,0l.62.73h.16c.66.72,2.24.66,1.9,2.23l.07,0c-.83,1.31-2.51,1.17-3.56,2.1-.59.72-1.1.47-1.59-.13a1.71,1.71,0,0,1,0-.39,1.59,1.59,0,0,1-.48-.07l-.75.68L132,176.39c0,.69-.09,1.39-.13,2.08a5.41,5.41,0,0,0-.58.12c-1-.6-1.84-.89-2.27.37a2.11,2.11,0,0,1,.35.38,1,1,0,0,1-.33,1.27l-2.79.92a18,18,0,0,1-1.88.51c.1.68-.47,1.12-1,1.58l-.77.68a4.21,4.21,0,0,0-.11.6c-1.36.62-2.28.57-2-1.31-.94-1.16.8-.7.78-1.3a1.29,1.29,0,0,1,1.11-.86,1.36,1.36,0,0,1-.21-.32,2.29,2.29,0,0,1,0-1.44,1.43,1.43,0,0,1,.59-.67,2.94,2.94,0,0,0,1.43-.91,2.86,2.86,0,0,1,.67-.58,2,2,0,0,1,1.33,0c.61.29,1.18.63,1.77.93a1.32,1.32,0,0,1,.46-1.06c1.16-.35,2.21-1.09,3.5-1-.83-1.65.32-3.3,0-5l-1.38,0a6.36,6.36,0,0,1-5.66.78h0l-.74.18c-.26.4-.51.81-.76,1.22h0c-.27.44-.54.88-.8,1.33a2,2,0,0,1-2.21-.49l-1.37-.1-.32.05-.31,0h0c-2.26-.76-2.45.37-2,2.14h0c.17.45.34.91.52,1.37l-3-.05a2.51,2.51,0,0,0-.27,0,1,1,0,0,1,.22,1.33c-1.12,2.57-3.69,1.61-5.59,2.29-.07.22-.15.44-.22.67l-2.1,2.73H104.6c-.37.69.82,1.6-.06,2-.57.25-.52-.77-.68-1.25-.85.9-.85,2.83-2.84,2.33l-.31.09h-.33l-.84.55c-1-.85-1.89-.33-2.82,0,0,0,0,.05,0,.07a2.28,2.28,0,0,1-.46,1.17,2.83,2.83,0,0,1,.68,1,1.28,1.28,0,0,1-.2.91c-.67.54-1.59-.1-2.25.49s-2.21-.22-2.26,1.39a2.59,2.59,0,0,1-.48,0,2.64,2.64,0,0,1-.65-.49.75.75,0,0,0-.17-.14l-1.16,0c0,.05,0,.1,0,.15a2.12,2.12,0,0,1-1.13,1.2,1.34,1.34,0,0,0-.56.16c-2.08-.72-1.37,1.49-2.19,2.09l-.72-.1-2.13.79c-1.54,1.41-2.14,4.05-5,3.74-.81,1-2,.28-2.93.68l-.76-.18a21.14,21.14,0,0,1-3.28.65c-1.58.07-1.91-.71-1-2l.22-.13-.06,0h0l-.16.15c-.71-.94-1.48-1.77-2.83-1.58-.31,2.65-1.54,1.89-2.87.78-.4-1.8,2.15-1.86,2.06-3.48h0c.6-1.45,1.85-3.18-1.3-3L62.9,193a2.64,2.64,0,0,1-1.45-1.63c.75-.85,2.08-.48,2.83-1.34l.79,0A3.42,3.42,0,0,0,66.5,187a3.9,3.9,0,0,0,.59,0l.73-.62h0A1.6,1.6,0,0,1,69.29,185l.77.8c.65,1.13,1.84,2,1.4,3.58l.75.77c1,1.13,2.42.4,3.62.69,0-.24,0-.49,0-.74-1.65-2.56-.3-3.4,2.09-3.66h0l.15-1.47L76,183.49c-2,3.46-3.08.06-4.52-.66l3.59-2.91c.47-1.36,1.15-2.35,2.82-1.68l.18.19.65-.62c1-.74,1.94-.29,2.92,0h0c.4-.7,1.31-.63,2.08-.76a3.63,3.63,0,0,1,1.48-3.51c-1.27-.12-2.08-.69-2.09-2.07,2,1.22,2.65-1.21,4.09-1.52a10.15,10.15,0,0,1-1.37-.34c.41-.55,1.29-1.14,1.08-2.17l.62-.3a1.76,1.76,0,0,1,1.43-.74.93.93,0,0,1,.38.23c1-.68,1.85-1.74,3.2-1.9l.33-.2a.79.79,0,0,1,.91-.55q.41-.22.81-.48a1.35,1.35,0,0,0-1-.72.31.31,0,0,0,0,.1c-1.06,1.57-2.11,1-3.17.39-1.21.43-2.41.87-3.64,1.22a2.8,2.8,0,0,1-2.5.53c-.35,0-.71.06-1.07.07-.23,1.13-1.67,1.24-2.35,2a5.71,5.71,0,0,0,2.35,2c-2.7.16-5.23.47-7.29,2.24l0,1.54-.72.13a2.26,2.26,0,0,0-.69-.1l-2.21-1.34h0l-.73-.42L70,171.3c-.09,1.65,2.28.71,2.44,2.1,0,0,0,0,0,.07.34-.27.69-.22,1,.19-.18.9-.36,1.79-.53,2.69l-1.38.13h0l-.12,1.28-1.16.18c-1,1.12-2.82,0-3.79,1.3a1.7,1.7,0,0,0-2.15,0c-1.13.64-2.62-.73-3.62.64l-.59.29h0c-.27.66.83,1.41-.15,2a3.86,3.86,0,0,1-.54-.19c-.15-1.23-.82-1-1.55-.52v3.17l-1.44-1.78c-3.78,1.49-.48-1.77-1.45-2.17l1.67-.74s0,0,0,0c.06-.52.1-1.06.7-1.3a4.34,4.34,0,0,1,.52-.08l.71-.73c1.22-1,.83-2.38.78-3.69-1.09.44-2.19.88-3.3,1.31l-1,.19c-.87,1.42-2.53,1.17-3.77,1.8-1.56,1.4-3.67,1.46-5.47,2.25-1.37-.29-2.59.7-4.3.57,1.19-1.66,3.09-1.73,4.31-2.87-.95-.64-1.52.57-2.48.2l1.11-1.51,1.23-.6.22-.12c-.57.07-1.13.13-1.52-.56-.06-1.15-.11-2.3-.16-3.45,1.3-1.11,2,.16,2.89.74l2.07-1.31-2-2.32c-1.07-1-2.22-1.47-3.58-.53a1.23,1.23,0,0,0-.14-.42.43.43,0,0,1-.1.09l.24.33c0,.91.61,1.83,0,2.74l-.75.68c-3.06.31-2.11-2.42-2.9-3.83h0l-.72-.44c-1.26-.22-1.25,2.17-2.79,1.36-.05-.2-.08-.4-.12-.6h0c-.66-.3-.67-1-.84-1.53l2.36-1.39a2.48,2.48,0,0,1,2.47-1.46,2.18,2.18,0,0,1-.11-.27.13.13,0,0,0,0-.06,3.05,3.05,0,0,1-2.36.28c-1,0-2,.32-2.79-.56,2.24-.75,3.63-3.33,6.39-3,1.23-.94,1.57-3,3.58-3a2,2,0,0,1,2.06-.81,2.62,2.62,0,0,1,.12-.54c1.39.63,2.11-1.64,3.55-.83.25-.58.78-.68,1.33-.73-.4-3.09,2-2.54,3.75-2.91l.28.36,3.93-1.08,1-1.18c.93-1.19.56-2.58.62-3.9-1.28-.15-1.5,1.94-3,1.42a1.36,1.36,0,0,1,0,.4c-1.08-.6-2,.19-3,.37l-.73.8-.68.63-1.42-.42h0c-1.41-.06-1.9.83-2.08,2l-1.47,0-1.94.16c-.86,2.24-3.24.77-4.57,1.88l-2.12.12c-.31.37-.86.4-1.31.56a2.49,2.49,0,0,1,1.31.23c1.54-.05,1.66.84,1.32,2-1.44.3-2.41,1.34-3.5,2.2a1.52,1.52,0,0,1-1.43.77L35,159a4.11,4.11,0,0,1-.87-2.51c-.66,0-1.22-.41-1.86-.48-.55.14-1,.48-1.58.6a1.3,1.3,0,0,1-.81-.23c-1.74-2,2.27-2.08,1.3-3.83a1.52,1.52,0,0,1,1.52-.6.91.91,0,0,1,.54-.11c.5-1.22-1.5-2.46,0-3.67a3.06,3.06,0,0,0-.1-.51c-.26-2.31,1.07-3,3.06-3a5.67,5.67,0,0,1,2.92-1.38l.65-.81a3.75,3.75,0,0,0,.71-.53,6.71,6.71,0,0,1,.83-.52A18,18,0,0,0,42,138c-.05-.07-.11-.13-.16-.21a.94.94,0,0,1,.16-1l1.53-1.32a.59.59,0,0,1,.86-.19,1.94,1.94,0,0,0,.31.44L48.35,137l.81-.85-.72-.7h0c-.82-.07-1.71.11-2.35-.63h0c-.59-.37-.42-.95-.39-1.49l2.77-.41.75.28,2-.83L52.74,131l-.55-1.11-.3.06a3.57,3.57,0,0,1-.46,0c-.6,1.8-2.39,1.25-3.62,1.8l-.06-1.4c.25-.19.35-.54.64-.67a.9.9,0,0,1-.2-.23c-.39-1.38,1-1.39,1.56-2a1,1,0,0,0,.3-.49c1.08-.35,2.12-.94,3.29-.5a.89.89,0,0,1,.18-1.14l.72-.75,1.48.71c.29.49,0,.87-.24,1.24-.45.4-.81,1-1.43,1a2,2,0,0,1-.55,1.58l0,0a1.28,1.28,0,0,1,.91.34l3.47.09c.24.49.48,1,.73,1.46l1.33.62h0a8.56,8.56,0,0,0,2.94-2.83l.21,0a.92.92,0,0,0-.08-.4,1.92,1.92,0,0,1,.61-1.72l1.29-.07.15-.62a3.81,3.81,0,0,1,3.94-.38,1.23,1.23,0,0,1,.47.3l.5-.69c.18-1.49.7-1.87,1.35-1.85,1.53-1.12,1.19-2.15-.31-3.11l-1.08.18-1.35,1a1.2,1.2,0,0,1,0,.65c-.82,1-2.06,1.17-3.22,1.45-2.43.53-4.93.61-7.34,1.29-1.08.31-1.36,0-.72-1,.63-.53,1.08-1.32,2-1.37,1.25-.22,1.58-.8,1-2a3.57,3.57,0,0,1-.13-3.43c.06-.14.11-.3.17-.44l1.08-.16.36-.18a1.27,1.27,0,0,1-.23-1.06h0c-.07-.22-.13-.45-.2-.67h0c-.74,0-1.56-.27-2.11.53a1.09,1.09,0,0,1-1.51.92c-1.27-1.43-.87-2.39.84-3l2-.84c.87-.7,1.56-1.79,2.95-1.45a4.34,4.34,0,0,1,.57-1.14,14.65,14.65,0,0,1-4.54,1.52c-1.13.54-2.41.71-3.52,1.28-.11.15-.22.3-.32.46a1.52,1.52,0,0,1-.46.45,18.79,18.79,0,0,0-4.88,2.3,1,1,0,0,1,0,.17.82.82,0,0,1-.55.81l-.39-.05c-1.68,1-3.56,1.69-5.22,2.77l-2.49,1.26c-.48,0-.55-.32-.53-.7,1.58-2.05,4.11-2.75,6.06-4.29a3.05,3.05,0,0,0,.46-.2c0-.15.11-.29.16-.44l2.31-.79c0-.12.1-.24.16-.36h0a.34.34,0,0,1,0-.4c.08-.09.15-.14.2-.12l2-1.36,1.09-.1h0l.53-.42c.67-1.24,2.12-1.42,3.08-2.25,1-.44,1.72-1.2,2.67-1.64l1.42-.69a3.31,3.31,0,0,1,1.32-.4c-.43-1.32,1.39-1.85,1.16-3.11-.75.69-1.82.91-2.17,0s.87-1,1.56-1.23l1-.58-2.19,0-1.42.77s0,0,0,0h0c.23.71.47,1.42.7,2.13l-2.74.2h0c-.74,2.28-2.64,2-4.41,2h0a1.62,1.62,0,0,1-.58.07c-1.42,1,.07,4.81-3.55,3.73.64,2.45-1.79,1-2.4,1.9l0,.73c-1.17,1.8-3,2.43-5,3l-.86,1.2c-2.76.88-4.56.22-4.77-3,.15-.5.22-1,.72-1.34a.72.72,0,0,1,.51.21l0-.13h0a1.29,1.29,0,0,0-.16-.17,1.67,1.67,0,0,1,1.32-1.64.94.94,0,0,1,.27-1l.72-.81c.51,1.1,1.91.47,2.64,1.15l.06,0a2.56,2.56,0,0,1,1,.1,3.23,3.23,0,0,1,.44.27l2.26-.81a2.3,2.3,0,0,1,.72-.43c-.16-.74-1.08-1-1.38-1.62,1.27-1.18,1.35-1.25,2.72.89a8,8,0,0,0,1.49-1.31c.71-.71.78-1.76,1.38-2.53a1.53,1.53,0,0,1,1.29-.28,3,3,0,0,1,.26.16v-.07c.19-.81.79-.89,1.47-.82a3,3,0,0,1,.93.44,5,5,0,0,0,.71-1.67l.1-.17,0-.05a1.82,1.82,0,0,1-.9.1l0,.32c-.88-.51-2.91.19-2.15-2l1.36-.22h0l.65-.37a1.41,1.41,0,0,1,0-.29,2.1,2.1,0,0,1,.62-.45c-.3-.92.47-1.35,1.22-1.8a3.23,3.23,0,0,1,2.88-.17.44.44,0,0,1,0-.1,1.61,1.61,0,0,1,.54-1.35,2.06,2.06,0,0,1,1.9-.08c2.13,2.21,1.49-.6,2.09-1.17a1.67,1.67,0,0,1,1.65-.81l0,0,3.46-3,.39.23,0,0a1.92,1.92,0,0,1,.33-.14c0-.62,0-1.23,0-1.85l0-.11h0c-1.3-.56-1.4-1.93-2-3h0c-1.15-.06-2.17.07-2.33,1.53.74.9.08,1.83.05,2.75l-.32,0-.31,0h0A2.49,2.49,0,0,1,62.94,93c-.88.52-1.53.14-2.1-.54a3,3,0,0,0-.39-.48l-1,.22s.09.08.13.13a2,2,0,0,1,0,1.84c-1.18,1-3.42.77-3.61,3a2,2,0,0,1-.82.6c-.93.11-1.94.37-2.33-.64-.5,1.22-.27,3.47-2.43,2.41a2.46,2.46,0,0,1-.33.62.68.68,0,0,1-.89,0l-3.52-.78c-.69-3.49,2.65-2.62,4.1-3.8h0a.88.88,0,0,1,.13-.47l2-.9,3-2a4.44,4.44,0,0,1,0-.63l2.07-.18,2.21-.63c.48-.48,1-1,1.45-1.45.23-.52.47-1,.7-1.55a7.36,7.36,0,0,1,6.77-2.4,4.21,4.21,0,0,1,1.06.12,1.74,1.74,0,0,1,.16.36h0a1.49,1.49,0,0,1,.4-.08c.25-.81,1.13-1,1.64-1.49.26-.45.6-.56,1-.22h0a.84.84,0,0,1-.32-.54c.48-1.23,2.33-1.19,2.47-2.72,1.1-.1,2.57.48,2.66-1.46a1.29,1.29,0,0,0,.67-.09c.1-.72-.18-1.58.7-2,.76.11,1-.56,1.33-1a4.63,4.63,0,0,0-1.17.6,6.13,6.13,0,0,1-1.66.66,7.57,7.57,0,0,1-2.42-.12s0,.08,0,.12A2.93,2.93,0,0,1,72.64,80a7.42,7.42,0,0,1-1.85.17,2.26,2.26,0,0,0-1.17.75,2.49,2.49,0,0,1,.09.65,1.62,1.62,0,0,1-.92,1.09,4.77,4.77,0,0,1-1.44.32,16.59,16.59,0,0,0-2.1.3c0,.5-1,.49-.92,1.08-.24.31-.41.69-.81.82.39.95-.55.88-1.11,1.12a2.52,2.52,0,0,1-1.79-.67A2.09,2.09,0,0,1,60,87.16c-.71.14-1.36,1.13-2.14.14l-2,1.77a1.06,1.06,0,0,1,0,.19c-.67,1.44-2.06,1.67-3.38,2a4.18,4.18,0,0,1-1,0h0c-.34,1.59-1.62,1.71-3,1.67a1.52,1.52,0,0,0,0,.23c-.7.44-1.59-.1-2.28.42l-2-.6-2.27,1.37a23,23,0,0,1-2.85,2.57c-.82.54-2.14,1.28-2.81,0-.57-1.06-.43-2.42,1.34-2.62.8-2,2.43-2.34,4.32-2.21h0c1-2.82,4-1.62,5.8-2.81,1.68-.54,1.46-3.68,4.06-3a2.64,2.64,0,0,1,.56-.11c1.81-.45,2.82-2.47,4.79-2.6l1.28-.17,2.31-.68h0a10.17,10.17,0,0,1,3-2c0-.08.07-.16.1-.23.69-.88.83-2.17,2-2.71l.69-.06,2-.08a3.82,3.82,0,0,1,1.56-2.1c1.26-.64,1.92-2.26,3.61-2.19L78,71.35a2.56,2.56,0,0,1,2-.81c.59-1.22,2.36-.87,2.88-2.18a21.05,21.05,0,0,1,5.82-2.87l5-2.19A7.54,7.54,0,0,1,98,59.67l.77-.69a2.42,2.42,0,0,1,2.28-1.29,1.1,1.1,0,0,1,.64-.14c.59-1.11,1.74-1.17,2.75-1.5a11.48,11.48,0,0,1,5.9-2.78c1.37-1.48,2.93-2.48,5.07-2l.82-.74c2.64-2.83,6.08-4.19,9.66-5.29.56-2,2.36-2.15,3.94-2.62,1.91-.93,3.46-2.59,5.71-2.86l5.8-2.93c2.19-1.27,4.2-3,6.94-3,1.32-1.75,3.25-2.34,5.26-2.79l5.52-2.92a1,1,0,0,1,.47.23s0-.11,0-.16a1.27,1.27,0,0,0-.48-.07c2.32-1.37,4.62-2.78,7.43-2.89,1.5-.45,2-2.33,3.65-2.57h0L173,21.7l.74-.72,2.84-.05c.65-1.61,2.45-1.34,3.57-2.19h0c.05-.66.1-1.32.14-2l1.34-.15a3.15,3.15,0,0,1,2.93-1.31h0a1.3,1.3,0,0,1,.58-.17h0c.54-.76,1.38-.73,2.17-.85h0l1.53-1.21c2-.83,4.1-.56,6.14-.34,1.43.16,1.42.92.25,1.66-2.7-.27-3.14,2.1-4.26,3.66l-2.13,0-.72.78c-1.78-.5-3.3,1-5.06.63a1.25,1.25,0,0,1-.57.13c-.25,1.82-1.44,2.23-3,2,0,.19-.11.38-.16.56l-1.87.36c-.86.36-1.61,1.19-2.64.84a3.05,3.05,0,0,1-1.59,2.05h0c.64.43,1.31-.39,2-.17-.22.47-.45.94-.67,1.42a1.26,1.26,0,0,1-.07.69l-2.13.09a1.93,1.93,0,0,1-1.86.09l-.14.05a6.42,6.42,0,0,0-1.72.45.56.56,0,0,0-.53.24c-.81.7-1.05,2-2.29,2.26a1.53,1.53,0,0,1-.67-.15l-.06.41a1.2,1.2,0,0,1-1.35.57c-.09.72-.62.72-1.26.54-.44,1.61-2.17,1.14-3.11,1.92h-.6c-.11.18-.23.35-.35.53a3.85,3.85,0,0,1-2.66,1.74,8.14,8.14,0,0,1-3.22-.2l-.27-.1L152,37.39l-2,.16a.86.86,0,0,1-1.1.18l-.07.11c-1.57.69-2,5-4.89,1.56a3,3,0,0,0,0-.5c-1.44-.73-1.87.09-1.95,1.47-.13.78-.79.72-1.34.84a3.26,3.26,0,0,1-.06.62l.09.75c-1.54.3-2.21,3.29-4.44,1.43h-1.4l-.42-.35-.18.1-.26,0a5,5,0,0,1,1.11.95c.41,1.26-.22,2-1.24,2.57a3.6,3.6,0,0,1-2.05.17l-.41-.14a1.9,1.9,0,0,1-.19.9l.72.19.77-.18c1.66,1.27,3.34-.58,5,0h0a2,2,0,0,1,2.88-.71h0c-.08-.55,2.07.72.71-.82-1.2-1.34.13-1.33.79-1.71.71.26,1.51.28,2.21.6.26-1.75,1.74-1.68,3.14-1.72a1.21,1.21,0,0,1,.37-.62l0,0a.81.81,0,0,0,.66-.08c.35-3.07,3.86-2.53,5.15-4.53l1.78-.86a.25.25,0,0,0,0-.08,1.75,1.75,0,0,1,1.8-.86c1.59-1.62,3.26-.5,4.9-.14l.22.24h0l-.23-.23-.54-2,.58-.09c1.18-.81,2.12-2.08,3.79-2l.77-.77,1.22-.12.74-.72,1.52.87,2.31-.76a1.91,1.91,0,0,1,1.33-1.44,4.07,4.07,0,0,0,.61-.07c.48-1,1.37-.54,2.1-.62a5.73,5.73,0,0,1,3.75-2.08l-.12-.26c1.68.41,1.72-1.62,2.9-2,.47.7.94,1.4,1.4,2.1h0l1.58-.7a.84.84,0,0,1,1.33-.09h.73c0-1.81,2.09-2.54,2.17-4.29a6.53,6.53,0,0,0,3.6.74l0-.07c1.83,0,3-2.36,5.15-1.35a4.37,4.37,0,0,0-.17.62c-.45.49-.91,1-1.36,1.48l-2.84.19a.78.78,0,0,1-.83-.06l-.51.6c-.22,1.75-1.67,1.78-2.89,2.11a.58.58,0,0,1-.19.72,8,8,0,0,1-2.9,2.89,1.67,1.67,0,0,1-2,.33l-.36-.33-.36,0a1.55,1.55,0,0,1-1.34-.48,1.78,1.78,0,0,1-.8,1.61,18.52,18.52,0,0,0-3.32,2l-.09,0,.51.55L178,34.72a1.63,1.63,0,0,1-.62.27c-.58,1.38-1.94,1.13-3.12,1.25a4.72,4.72,0,0,1-.64-.05c-.62.92-2.12.64-2.84,1.44a.48.48,0,0,1-.57-.08,2,2,0,0,1-.28.31,3.18,3.18,0,0,1-2,.32,6,6,0,0,1-2.53-1,1.38,1.38,0,0,1-.34.52h0L165,39.48c-.66,1.41-1.38,2.67-3,1.83a1.88,1.88,0,0,0-.18.12,5.76,5.76,0,0,1-1,.36h0c0,.22,0,.44,0,.66h0a4.22,4.22,0,0,0,3.6-.77l0,.22c1.27-1.26,3.19-.39,4.54-1.39h0a2.17,2.17,0,0,1-.35-.15l1.57-.69c.05,2.11,1.93.65,2.74,1.28-.52-1,.13-1.52.86-2l.48-.42a1.5,1.5,0,0,1,0-.67A4.19,4.19,0,0,1,178,36a1.57,1.57,0,0,0,1.53-.61c.65-1.06,1.71-.81,2.68-.85h0l2.87-2.91a1.77,1.77,0,0,1,1.54.83v2.16c.26,1.91-1,1.64-2.19,1.57a3.61,3.61,0,0,1-1.8-.89,1.27,1.27,0,0,1-.19.84,1.19,1.19,0,0,1-1.45,0c-.49,1.29.07,2.15,1.45,2.66,0,0,0,0,0,0l1.3-1.34,1.44,0a3.1,3.1,0,0,1,.58-.21h0a1.94,1.94,0,0,1,.13-.54l2,0h0c0-.48.19-.77.64-.73a1.86,1.86,0,0,1-.17-.58,1.35,1.35,0,0,1,.3-.69c-.57-.68-.32-1.58-.4-2.39a1.2,1.2,0,0,1,.62-1.18c.89-.58,1.51-1.63,2.75-1.58l3.67-1.73h0c2-.24,2.85-1.92,4.11-3.09a4.72,4.72,0,0,1,.13.54l2.21-.62,2.07-.25a.9.9,0,0,1,1.23.1c.42-.67,1.22-.85,1.78-1.35.2,0,.42-.07.63-.09l3.6-2.22a2,2,0,0,1,.63,1.95c-1.28.75.27,1.59,0,2.38h.1l0,0a4.33,4.33,0,0,1,.72,0,1.62,1.62,0,0,1,1.49-.85c0,.52,0,1-.05,1.55l.64.53.06-.07a2.36,2.36,0,0,1,2.53-.05,4.89,4.89,0,0,1-.55-2,2,2,0,0,0-.21-.86,2.78,2.78,0,0,0-.75.11,1.24,1.24,0,0,1-.36.46,1.78,1.78,0,0,1-1.36.06,4.16,4.16,0,0,1-1.38-1.26c-.74-.88-1.51-1.76-.07-2.69l2.09-.76.76-.74a16.58,16.58,0,0,0,2.74-.82c-.17-.15-.12-.33.16-.55a9.35,9.35,0,0,0,7.23-2.1l1.25-.17c2.32-1.31,4.56-2.81,7.36-2.93a.51.51,0,0,0-.07.38h0l.28,0a1.3,1.3,0,0,1-.21-.34,57.38,57.38,0,0,1,10.78-4.93h0c2.53.38.26,2,.76,2.92a1.24,1.24,0,0,1,.19,1.4c.68.6.49,1.39.45,2.15a1.49,1.49,0,0,0,1.42.73l.78-.68,2.85-.13.71-.72a1,1,0,0,1,1.35.13s0,0,0-.08a2.6,2.6,0,0,1,1.64-.92,1.33,1.33,0,0,1,1.31.86,3.4,3.4,0,0,1,1.41-.7,2,2,0,0,1-1.31-.38.64.64,0,0,1,0-.83l1.4-1.59.61.17c.19.65.8,1.2.48,2h0l.25.67a1.15,1.15,0,0,1,1.5.12c-.09,1.68,2.88,1.54,2.16,3.6l-2.88,0-5.79,2.1c-1.69-1.48-3.29,1.86-5,.09,0-.14,0-.27,0-.41l-.12.05c0,.12,0,.24.07.36-1.3-.94-1.57,2.07-3,.77h0c-1.47,1.27-4.1.32-5,2.65-1.39.49-2.1-1-3.24-1.21a2.61,2.61,0,0,1-.41,2l-.6.06c.09.47-1.05.94,0,1.42.26.73,1.12,1.46,0,2.17l-1.42-.11a2.6,2.6,0,0,1-.85-1.51q-.48.3-1,.57c1,.1,1.73.52,1.45,1.92-.42.64-.51,1.51-1.28,1.92l-1.19.75a3.09,3.09,0,0,1-1.09-2,3,3,0,0,1,.71-2.15c-.64,0-.8-.56-1-1.1a3.87,3.87,0,0,1-.05-1c0-.21.07-.42.11-.63-1.18.37-1.82-.55-2.46-1.44a1.27,1.27,0,0,1,0-.33l-.29,0c0,.05,0,.09,0,.13A2,2,0,0,1,227.57,22a1.69,1.69,0,0,1-1.48-.24c-.73-.68-.07-1.66-.52-2.41a1.7,1.7,0,0,1,0-.39,1.18,1.18,0,0,1-.27-.32,2.61,2.61,0,0,1,.06-.27,14.45,14.45,0,0,1-3,1.59c-.72.08-1.42.11-1.78-.72h0c-1.59,1.25-.72,2.84-.39,4.36a2.6,2.6,0,0,1-.1.4c.85.35,1.75.76,1.83-.89s1.26-1.42,2.23-1.67a1.08,1.08,0,0,1,1.05.68A4.78,4.78,0,0,0,226,24a.86.86,0,0,1,.13.2,5.14,5.14,0,0,1,3,1,6.55,6.55,0,0,1,.78.61c.47.58,1.36,1.2.16,1.85-.91.48-1.7,1.13-2.61,1.59a2,2,0,0,1-1.93-.36l-4.34,1.37a.64.64,0,0,1-.84.07l-.6.63h0c-.26,1.35.44,3.08-1.51,3.74l-1.3-.06-1.32,1.47a8.07,8.07,0,0,1-2.13,1.46,0,0,0,0,0,0,0l.7-.1,0-.08a1.16,1.16,0,0,1,.49-.44l1.26-.59c.74.17.68.95,1.06,1.4l.47.17c.56.95-.31,1.08-.82,1.34-1.59.81-3.2,1.55-4.78,2.36l-.27.12,1.59-.14,1.29-.8h0c.67-1.12,2-.95,3-1.52.52-2.13,2.26-1,3.47-1.31h0a2.32,2.32,0,0,0,.07-.59c.72-.56,1.3-1.34,2.31-1.45l2.23.12h0a1.58,1.58,0,0,1,.65,0,2.69,2.69,0,0,1,3.37-.23l1.94-.83h0c.06-.16.1-.32.15-.48l2.16-.8a5.86,5.86,0,0,1-1.1-.07,1.68,1.68,0,0,1-.74-.55c.68-1.27,1.16-2.72,2.89-3a.41.41,0,0,1,.69.09c.46.54,1.25.82,1.52,1.52a13.55,13.55,0,0,1,3.2-1.56,22.67,22.67,0,0,1,3.24-2v0a4,4,0,0,1,1.77-.83c1.12-.52,2.25-1,3.36-1.54l.42-.78a17.65,17.65,0,0,0,4.91-2.5l1.65-.54h0c1.13-1.29,3-1.44,4.16-2.64l.42.08,6-3.54a2.75,2.75,0,0,0,.41.11c.2,1.22-.86,1.4-1.57,1.74a20.11,20.11,0,0,0-4.05,2.57.9.9,0,0,1,.61,1.25c-1.1.66-2,1.62-3.28,2a30.1,30.1,0,0,1-2.64,2.31.88.88,0,0,1,.13.79l.94.35.44-.21c1.16-.22,1.14.56,1,1.3a8.43,8.43,0,0,1-.8,2.22,9.72,9.72,0,0,1-2.25,2.15c1,0,2-.34,2.84.59a1.5,1.5,0,0,1-1.57.79l-.64-.63c-.43,1.62-3.31,1.21-3.05,3.46,1.59-.93,3.05-2.38,5.15-1.32,1-.6,1.95-1.14,2.95-1.65h0l-1.54-1.28c0-1.51,1.05-1.26,2-1.23a2.78,2.78,0,0,1,1.84,1.43c.75-.32,1.51-.64,2.28-.93l-.17.48c-.4.21-.79.43-1.18.65a1,1,0,0,1,.71.25,3.1,3.1,0,0,1,1.75-1.36l.72,0a2.14,2.14,0,0,1,0,2.91l-.79.57-1.4.05-2.88.19c0-.36,0-.72,0-1.08a2,2,0,0,1-.61-.05,21.11,21.11,0,0,1-3.4,1.69c-2.37,1.21-4.39,3.08-7,3.83l-1.44,1-1.7.53-1.42,1,1.06,1.39-3.27,2c.23.84,1,.81,1.64,1.07h0a1,1,0,0,1,1.14-.09h0l1.89-.91,1-.53a.46.46,0,0,1,0-.71c2.06-1.33,4.48-1.82,6.64-2.91l-.05-.08c0-1.24,1-1.52,1.87-1.94,2.36-1.21,4.75-2.32,7.12-3.5,2.93-1.06,5.18-3.51,8.35-4.07l.25-.06c.95-1.49,2.81-1.39,4.24-2.06,2.9-1.74,6.2-2.59,9.21-4.09.61-.09,1.05,0,.77.77a39.45,39.45,0,0,1-6.17,3.25,35.13,35.13,0,0,1-7.71,4h0l-4.07,2.64a33.54,33.54,0,0,0-6.23,3.18c-.73.63-1.34,1.47-2.49,1.29a.66.66,0,0,1-.14-.2l-1.76,1-.4.43c.67.1,1.34.28,2,.38l.69.58c.67.12,1.62.15,1.62.93,0,1-1.05.36-1.58.61l-.73,0c-1.23,1-2.4-.59-3.61-.07a3.38,3.38,0,0,1-.71.1,1.68,1.68,0,0,1-.41-.68,4.58,4.58,0,0,1-3.13.89h0a1.76,1.76,0,0,1-1,.89A3.52,3.52,0,0,1,251.5,47a1.6,1.6,0,0,1-1.27,0,1.13,1.13,0,0,1-.21-.12l-1.55.91a13.32,13.32,0,0,1-1.91,1.62,3.26,3.26,0,0,0-.38.18c.73.29,1.73.3,1.54,1.55l-2.77,0-.73-.46a2,2,0,0,1-.82.06.61.61,0,0,0-.18-.05h0v0a2.79,2.79,0,0,1-.3.38c-.72,1.26.13,2.89-.91,4.12a3.62,3.62,0,0,0,3.51-.69,1.12,1.12,0,0,1,0-.41,2.33,2.33,0,0,1,2.1-1.06l2.34-.73a5.49,5.49,0,0,1,1.42,2.74c1.85-.92,3.8-1.58,5.71-2.36,0,0,0,0,0,0a1.37,1.37,0,0,1,.75-1.08,21.12,21.12,0,0,1,5.67-2.38l2.93-1.12a1.11,1.11,0,0,1,.19,1.18l-1.42,1-1.89.91a4,4,0,0,1-.62.62c.76,0,1.42.2,1.61,1.53,1.26.08,2.49-1.57,3.77-.07h0a3.88,3.88,0,0,1,.68,0c-.05-.71-.09-1.42-.14-2.13l-1.23-2.12c2.57-1.68,3.57-.77,3.4,2.07.49.75,1-.15,1.52,0a2.63,2.63,0,0,1,2.79-.12h0l.18-2h0l-.65-.57h0c-.74.9-2,1.07-2.44.3-.55-1,.59-1.24,1.45-1.3.28-.45.55-.9.83-1.34a2.07,2.07,0,0,1,1.44,2.25c1,.73,2.1,1.35,2.19,2.78,0,.48,0,1-.05,1.43l-.55.16c-1.29.85-2,2.5-3.73,2.76-1.31.9-2.62,1.77-4.34,1.4l-.71.78a1.88,1.88,0,0,1-2.52-.38,2.44,2.44,0,0,1-.28-.92c-.34-.48-.68-.95-1.44-.86a.77.77,0,0,1-.06.69l-.79.6a2.68,2.68,0,0,1-2.1,0c.58.4.3,1.14.6,1.65.36.73,2.43.73.95,2.23-1.51-.28-3.35.31-4.3-1.46a4.23,4.23,0,0,1-2.65.9l0,.1a8.33,8.33,0,0,1-1.11.89l.07,0a3.61,3.61,0,0,1,1.34-.28l1.09-.16c.5,0,.52.3.47.67-1.05,1.64-2.93,2-4.46,2.88a5.39,5.39,0,0,1-2.54.74h-.45l-.2.15a2.15,2.15,0,0,1-.66.89c.3.62.54,1.2-.5,1.66-.76.33-1.74.46-2.18,1.45,1.22.45,2.13-.24,3-.74,3.12-1.87,6.58-2.47,10.11-2.86.78-.09.71.44.62.95a25.93,25.93,0,0,1-6.29,3.68c-.29-.15-.14.29-.05.26,1-.37,1.09.6,1.47,1.13l.46.16c.21,1.76-1.89,1.25-2.42,2.45-.29.64-.9.93,0,1.41,1-.34.94,1,1.69,1.1h0l.05,0c1.45-2,3.89-2.13,5.87-3.12l.33.05.09,0c-.21-.78.49-1,1-1.28.31-.14.66,0,1-.13l4.2-1.68.51.46c-1.62,1-1.92,3.35-3.72,3.92-2,.65-2,2.85-3.55,3.74l.61.66,3.91-2.27c1.28-.09,2.2-1.29,3.64-1.22-.36,1.08-1.77.79-2.17,2.06a23.08,23.08,0,0,0,5.39-2.63l1.08-.16c.5,0,.52.31.48.68-1.82,2.07-4.28,2.93-6.82,3.64h-.23a1.55,1.55,0,0,1-.67.77l-.27.15.46.12L275,76.15c1.38,1,.05,1.11-.45,1.57-.81.75-2.4.53-2.88,1.69a1.84,1.84,0,0,1,1.59-.12,1.07,1.07,0,0,1,.22.15,7.43,7.43,0,0,1,3.34-1.94,2.69,2.69,0,0,0,.16-.29c.67-.91,1.76-.75,2.68-1,.8.91-.84,1-.58,1.84l1.81-.57.31.48-10,6.24-1,1.21c-.69.17-1.07,1-1.86.91l-.79.77c-2,.45-3.49,1.85-5.16,2.9l-.47-.17a3.22,3.22,0,0,1-1.86.93A2.33,2.33,0,0,1,258,92.08a8.85,8.85,0,0,0-3.15,1.52,3.12,3.12,0,0,1-.15.43c-.49,2.8.93,2.27,2.51,1.25a1.55,1.55,0,0,1-.6,1.4c.43.06.86.33,1.29.4.92.91.76,2.16.64,3.19-.19,1.51-.81,0-1.24,0l-1.57-.86h0c-.28.5-.55,1-.82,1.52h0c.06,1.61-1.05,1.42-2.08,1.37l.06-1.43.71-.72,1.23-1.61.09-.45c0,.06-.06.11-.08.17-1.55.86-3.12,1.68-4.7,2.48l1.16.21a1.5,1.5,0,0,1-.57,1.47c0,.18,0,.35-.06.53a1.73,1.73,0,0,1-.92.6c-.87,0-1.76.1-2-.94a1.71,1.71,0,0,1-.63-.08,2.41,2.41,0,0,1-.24-.21q-2.08,1-4.2,1.89a.41.41,0,0,0,0,.11l-.18,0-.81.35-1.43.81c.63-.1,1.31-.35,1.75.39l3.46.7.14-.18a2.67,2.67,0,0,1,1-.28c1.7.3,3.53.17,4.87,1.57a2.3,2.3,0,0,1,.39,1.39,3.07,3.07,0,0,0,.47,2.56.88.88,0,0,1,.05.15,1.31,1.31,0,0,1,1.19,0,1.63,1.63,0,0,1,.7.57c.15.35-.22.63-.4.93a2.24,2.24,0,0,0,.8,0,2.1,2.1,0,0,1,1.78.59l.66.75c.78,1.54-.26,1.86-1.39,2a28.12,28.12,0,0,1-3.15-.28c-.31,0-.62,0-.93-.09-.1,1.22-1.86.6-2.46,1.25a1.89,1.89,0,0,0-.63.1h0l4.3,2.14a.87.87,0,0,1,.57,0c1-.38,1.81-1.11,2.94-.82a2.75,2.75,0,0,1,.1,2.21c-2,1.94-4.88,1-7.2,2l-.3-.31c-.14-.41,0-1-.71-1.1a2.32,2.32,0,0,1-1.12-.39.92.92,0,0,1-.2-.34h-1.32a.85.85,0,0,1,0-1.33l1.12-.14a1.77,1.77,0,0,0,0-.2,2.56,2.56,0,0,1,1-1.89l-.25-.42a1.28,1.28,0,0,1,1.1-1.56l1.07-.22a20.82,20.82,0,0,0-2.1-2.68c-.48-1.82-3.21-2.59-2.52-5-1.79.58-3.57,1-5.36-.18h-1.12c-.05.46-.09.93-.15,1.4l0,0h0l2.1,1.5c2.13-.61,3.39.55,4.43,2.18h0l2.17,2c.2,1.06-.53,1.14-1.27,1.2a1.47,1.47,0,0,1-.83-.49,2.09,2.09,0,0,1-.17.28,1.88,1.88,0,0,1-1.33.25,1.54,1.54,0,0,1-1-.85,3,3,0,0,0-.81-1.52l-.06-.06a4.28,4.28,0,0,0-1.79,3.5l1.08-.58,3.28,2.18c-.07.21-.15.43-.22.65l-2.27-.55-2.16,2.71-3.08-2.62,2.17-1.16a2,2,0,0,0-1.7.6c-1.2-.08-2.52.53-3.54-.6-.55.06-1.17,0-1.46.64-1.27,1.36-1.44,2.44.74,2.93,1.08-.62,2.12-2.11,3,.39.4,1.14.79-.58,1.36-.44l.69,2.21a2.5,2.5,0,0,0,.67,0,1,1,0,0,1,.11,1.44c-.21.74-.24,1.68-.8,2.08,2.1,1.28,2.59,3.83.72,6.14l4.89,1.06c0,1.83-.05,3.65-.07,5.48l-.93.28c-.48-1-1-2-1.59-3.24-4-.45-.91,4.77-4.16,5.46.09-1.75.19-3.46.27-4.91-.44.24-.87.49-1.3.74a2.55,2.55,0,0,1-.4,0L229.38,141c.51.41,1.5.81,1.69,1.45a4.56,4.56,0,0,1-.11,3.12c-.22.44-1.7.27-2.61.32-1.13.06-2.26.06-3.39.09l-.72,1.05L223,142.55l-.1.09,1-1.68a2.77,2.77,0,0,1-.55-.5H223c0,.78-.08,1.49-.12,2.19l.11-.09c-.7.85-1.44,1.68-2.1,2.56a8.81,8.81,0,0,1-2.35,2.5c.31-1.07.63-2.13.94-3.2a2.07,2.07,0,0,1-1.18-.48H218c-1.06,2-2.12,2.27-4.15.78a1.91,1.91,0,0,1,.08.71c-.26.91,1.9,1.85,0,2.75l-1.45-.73a3.11,3.11,0,0,1-.32.31l-.27,2h.67l-4.63,4.56c.54.85,1.09,1.71,1.64,2.59l.86-.63a5.06,5.06,0,0,1,.68-.1c.75,2,2.68,1.26,3.54.87,1.68-.77,1.71.37,2.2,1.18l-.21.34.27,0-.06-.32,1.41.83c.39-1.43.59-3,2.2-3.67l.69.17,2.13-.14c.81-.37,1.74-.55,2.26-1.38.36-1.41,1.29-.94,2.16-.65a2.07,2.07,0,0,1,2-.66c.94-.44.2-.95.05-1.44-.71-.2-1.38-.44-1.26-1.4l-.12-.86,4.88-3c.24-.22.47-.45.7-.68l1.68-1.13c1.5-1.32,3.4-1.19,5.21-1.41a2.1,2.1,0,0,1,.83.13c1.21-.81,2.09-2.63,4-1.19l1.31,0h0c1-1.19,2.52-1.83,3-3.43,1,0,2.08-.33,2.91.57l4.71,0,.2.13.13-.12h-.33c-.14-.49-.28-1-.43-1.47-.86-.44-.9-1.18-.7-2,1,0,2.27-1.31,2.69.72h0a2.55,2.55,0,0,1,.13,2.06l.15-.09a2.3,2.3,0,0,1,.28.85v0l1.69.7a4.93,4.93,0,0,1,0,.54l.08-.05a1,1,0,0,1,1,.48l0-.07a1.79,1.79,0,0,1,1.1-1.89,1,1,0,0,1-.26-1.11,1.48,1.48,0,0,1,.28-.33A1.81,1.81,0,0,1,264,136a2.47,2.47,0,0,1-1.14-.49,1,1,0,0,1-1.37.61c-.87-.54-.66-1.35-.57-2.14l2-.1c.32-1.77,1.59-1.62,2.88-1.42a2.44,2.44,0,0,1,.35.9,4.36,4.36,0,0,1,.41-.85,4.76,4.76,0,0,0,2.84-.77l1.45.91h0c1.83-1.07,3.2,1.08,4.94.71C276.38,133.6,277,133.75,276.57,134.62ZM262.88,87.2h0a.54.54,0,0,1,0,.1l.25-.18Zm-6.36,2,.05,0h0ZM254.1,98l.2-.1-.19-.09A.59.59,0,0,1,254.1,98Zm9.4-64.83-.27.16a.76.76,0,0,1,0,.15A2.8,2.8,0,0,1,263.5,33.21ZM227.75,18.74l1.3.2h0c.56-.46,1.7-.53,1.76-1.33a3.1,3.1,0,0,0-.7-.14,3.07,3.07,0,0,1-1.45-.53A10.48,10.48,0,0,1,227.75,18.74Zm11.3-3.42.15,0-.1-.08Zm7.26,3.59.13-.24h0ZM41.94,92.12h0a.6.6,0,0,1-.08.16A.6.6,0,0,0,41.94,92.12Zm93.75,78.66h0a1.74,1.74,0,0,1-.2.58,4,4,0,0,0,.27,1.63,10.62,10.62,0,0,1,.86-1.35l.28-.34A1.06,1.06,0,0,0,135.69,170.78Zm77.8-26.37-.79-.65c0,.32-.08.61-.12.92A1.84,1.84,0,0,1,213.49,144.41Zm7.67-4h-.66a2.23,2.23,0,0,0,.09.63l.19,0C220.91,140.88,221,140.66,221.16,140.44Zm4.37-1.81.06,1.83-.15.18,1.73,1.08C227.47,140.54,226.23,139.62,225.53,138.63Zm4.54-9.55a.58.58,0,0,0,.4-.05l-.06-.52a2.05,2.05,0,0,1-1.18,0l-.83.24c-.21-1.14-.65-1.47-1.52-.45-.49.58-1,.43-1.42-.09h0c-1.23-.18-2.25,0-2.58,1.44-.8-.26-1.6-.66-2.41,0,0-.48,0-1,0-1.44a1,1,0,0,0,.38-.09l-.38.09-1.37-.08c-1.36.54-2.13-.28-2.84-1.25-.05.17-.09.34-.14.51h0l-.64.81a4.73,4.73,0,0,1-3,.65l-.69.77a.11.11,0,0,0,0,0,.45.45,0,0,0,0,.11,2.8,2.8,0,0,0,.25-.41,2.21,2.21,0,0,1,1.89-.17,3.48,3.48,0,0,1,.43.22,1,1,0,0,1,1.06.12l.6.24c.95-.67,1.92-1,2.94-.15-.61,1-1.57.67-2.45.71h0l-.31.76h0l-.73.69h0l.66,1.4c.76-.21,1.5-1.24,2.28,0a3.3,3.3,0,0,1,2.61,2.11c-1.59.82-2.28-.86-3.44-1.25l-.72.68c-.61-.29-.64-.87-.75-1.41l-1.53,2c-.91.67-1.71.69-2.35-.36a1.18,1.18,0,0,1,0-.53,2.49,2.49,0,0,1-2.82-1,1.83,1.83,0,0,1,.54-2.29l-.16,0-.16,0a9.84,9.84,0,0,1-1.33-.15,3.56,3.56,0,0,0-.62.12l-.87.25-.32.08c-.13.41-.27.82-.4,1.23-2.19,2.25-4.63,2.23-7.23.78a.59.59,0,0,1-.58-.24,2.54,2.54,0,0,0,.69,1.41c.29.81-.34,1.28-.69,1.85a3.3,3.3,0,0,1,2-.08,4.26,4.26,0,0,1,2.3,1.23s0,.05,0,.08c1.28-.64,1.66-.17,1.47,1a4.77,4.77,0,0,1,1.32-.79,4,4,0,0,1,1.28-.23,2.66,2.66,0,0,1,1.26.33l.28.34a1.64,1.64,0,0,0-.39.94c.92-1,2-1.65,2.81-1.48s1.47,1.13,2.28,1.8c.07-.54.15-1.13.29-2.17l4.35,3.34a1.37,1.37,0,0,0,.05-.28c.95-.67,1.9-.06,2.85,0,.06-1.22.71-1.45,1.52-1.39l1.16-2c0,.73-.07,1.39-.11,2l2.26-.76c-.41-.8-.34-1.68,1.25-2.8.13,1.08.21,1.86.38,3.35C230.52,135.88,230.76,132.63,230.07,129.08Zm-67.26,18.14a3.47,3.47,0,0,1,.38-.67,2.21,2.21,0,0,1,.55-.65l-.7.55a2.5,2.5,0,0,1-1,.27A2.08,2.08,0,0,0,162.81,147.22Zm-61.88,38.23a1,1,0,0,1-.76-.47l-1.36.09a12.74,12.74,0,0,1,1.6,1A1.88,1.88,0,0,1,100.93,185.45Zm-25.72,9h0l0,0Zm-5.11-2.9h0s0,0,0,0ZM47.64,138.92h0l0,0Zm17.92-8.5.62,0v0a1.34,1.34,0,0,1,.32-.72,2.45,2.45,0,0,1-.91-.85A4.75,4.75,0,0,1,65.56,130.42Zm7.46-14a1.21,1.21,0,0,1,.06-.38C72.94,116.12,72.89,116.24,73,116.39Zm33-53.62Zm68.88-23.56-.18.46a.47.47,0,0,0,.31-.32S175,39.26,174.93,39.21ZM227.67,125a1.13,1.13,0,0,1,.13-1.44,3.69,3.69,0,0,1,2.43-.45c.13,0,.25,0,.37.07l0-.77-2.18-1.23h0l-2.2-.25-.74.64c-1.31,1.87-1.33-.56-2.06-.62a.88.88,0,0,0-.41-.25l.41.25c-1,.88-1.86,2.38-3.62,1.41l-.68.73-.27.13,0,0,.24-.17a2.07,2.07,0,0,1,2,1.46l.22.09-.06,2h-.07l0,0,.06.08a.55.55,0,0,1,.27-.35,1.41,1.41,0,0,1,1.79.35c.65.71,1.29-.11,1.94-.05a1,1,0,0,1,.13-.37C226,125.6,226.64,124.76,227.67,125ZM159.79,149a2.23,2.23,0,0,1-.14-.68c0-.21,0-.43,0-.65a2,2,0,0,0-.85-.55,5.12,5.12,0,0,0-.53.25,4.62,4.62,0,0,1-1.22.55,1.45,1.45,0,0,1-.79-.19l-.24.12c.79.19,1.65-.08,2.42.26a.75.75,0,0,1,.3.49A1.51,1.51,0,0,1,159.79,149ZM97.35,183.68l.07-.09,0,0,.23-.57c.4-.83-.09-1.51-.36-2.23l-1.22.6a2.26,2.26,0,0,1-.58-2.27,2,2,0,0,1,.43-.63v0l-1.78.13A2.88,2.88,0,0,1,95.45,181c-.09.14-.17.28-.25.42h0a.78.78,0,0,1,0,.85,8.54,8.54,0,0,1-2.2,1.61,1.62,1.62,0,0,1,.34.46v.09l.8-.09a2.33,2.33,0,0,0,.26-.66,2.1,2.1,0,0,1,2.6-.47A.48.48,0,0,1,97.35,183.68Zm-10.56-5.2a1.74,1.74,0,0,1-.57,1.15,1.83,1.83,0,0,1,.46.24,2.4,2.4,0,0,1,.88-1.16,12.75,12.75,0,0,1,1.22-1.1,1.48,1.48,0,0,1,0-.21,2.5,2.5,0,0,1-1.37-.9,3.13,3.13,0,0,1,0,1.55A3.41,3.41,0,0,1,86.79,178.48ZM232.62,44.72c0-.39,0-.68,0-.92-.25.27-.51.56-.8.82A1.11,1.11,0,0,0,232.62,44.72Zm.28,7.46,0,0s0,0,0,0Zm-14.05,71.66a1.07,1.07,0,0,1-.26.38l.65,0a2.59,2.59,0,0,1-.31-.19A1.13,1.13,0,0,1,218.85,123.84ZM125.56,167a.3.3,0,0,1,.08-.08l-.19-.07h0l0,.09h0Zm-1.31-1.87a1.68,1.68,0,0,1,1,.11,3.37,3.37,0,0,1-.3-.36c-.06-.13-.1-.26-.15-.39-.46-.27-.93-.41-1.38.19h0a1.37,1.37,0,0,1,.52.55ZM96.1,178.27a1.2,1.2,0,0,1,1,0,1.91,1.91,0,0,1,1-1.45c-.31-.65-.31-1.13.49-1.16l-.09-.11a2.19,2.19,0,0,1-.06-1.33,2.33,2.33,0,0,1-1.15-.72.92.92,0,0,1,0-.23,3.88,3.88,0,0,1-1.24-.86l-.14.07c-.6.27-1.28.71-1.9,0l1.44-.86c0-.09-.11-.17-.16-.27-1-.14-1.55.27-1.5,1.34l-.33.06h-.34l-1.35,1.54.21.15c.5.45.66.93.31,1.45a2,2,0,0,1,1.41.19,2.08,2.08,0,0,1,.21.21c.5-.8,1.31-.7,2.11-.64A1.9,1.9,0,0,1,96.1,178.27Zm-11.52,4.64c.64.49,1.41,0,2.1,0a3.11,3.11,0,0,1,1.28.29c0-.3.25-.51.54-.69-.5-.47-1.23-.28-1.87-.35l0-.13A1.83,1.83,0,0,1,84.58,182.91ZM114.3,66a2.1,2.1,0,0,1-.4-.18A2.25,2.25,0,0,0,114,67.1l2.18,0a1.51,1.51,0,0,1,.7,0c.34-.73,1.48-.64,1.93-1.26h0a20.63,20.63,0,0,1-2.61-1C116.08,65.71,115.32,66,114.3,66Zm12.6-14.72a1.35,1.35,0,0,1,1.46.65,3,3,0,0,1,.42.05.06.06,0,0,1,0,0c-.3-1.39-1.49-1.6-2.59-1.93l-.06.56h0Zm20.59,1.91a7.36,7.36,0,0,1-4.61-1,.76.76,0,0,1-.22-.34A2.31,2.31,0,0,1,141.25,53a1.84,1.84,0,0,1,.6,1.1v0c1-.33,2-1.19,3-.1l.76.7,1.33-.09h0l1.38-.81c.06-.16.12-.33.19-.49l1.39.06h0c.69-.37,1.31-1,2.19-.82l.6-.76c.21-.24.43-.47.65-.71l-.05,0a1.49,1.49,0,0,1-.11-.64c-.71.35-1.37.78-2.07,1.15a2,2,0,0,1-1.36,0l-.13.2A4.46,4.46,0,0,1,147.49,53.16Zm50.95,74.51a1.1,1.1,0,0,1-.5-.71,9,9,0,0,1-.88.87c.05,0,.12.09.17.15h0C197.57,127.68,198,127.78,198.44,127.67ZM119.18,70.56l0,0h0Zm-48.4,87.67,1.47-.76h0c.25-.45.51-.88.77-1.32a5.3,5.3,0,0,1-.1-.55l-1.36-.12-2.18.11h0l-.12,1.76a1.33,1.33,0,0,1,.71.87A1.4,1.4,0,0,1,70.78,158.23ZM222.53,54.64a2.45,2.45,0,0,0-.41.31,1.56,1.56,0,0,1,.23.26A.55.55,0,0,1,222.53,54.64Zm-62,69.7h0l0,0ZM93.11,112.19a3.15,3.15,0,0,0,.17-.62h0c0,.19-.14.4-.19.59ZM108.48,97.4a2.14,2.14,0,0,1,.1.22c.28-.15.62-.27.89-.4l.58-.27.06,0h0l0,0-.3.08ZM73.66,143.33l0,0h0Zm-1.88-.61a2.48,2.48,0,0,1,.61-.07l-.41-.14Zm59.47-81.33c.17.52.17,1.13.75,1.41a4.77,4.77,0,0,1,.66-.1c.22.23.45.45.67.67l.37-.2-.24-.11A5.09,5.09,0,0,0,131.25,61.39ZM112.53,72.66a.54.54,0,0,1-.07.13h.05v0h0S112.53,72.7,112.53,72.66Zm-3.91-.5a9.38,9.38,0,0,0,.59,1.24l1.88-.62s0,0,0,0h0l-.57-.92a1.56,1.56,0,0,1-.26.11A6.2,6.2,0,0,1,108.62,72.16ZM84.27,155.41l.77-.57a.17.17,0,0,1,0-.1A4.17,4.17,0,0,0,84.27,155.41Zm53.45-99a1,1,0,0,1-.18-.59,3.52,3.52,0,0,0-.79.64,1.65,1.65,0,0,1,.75.32l.1,0A.7.7,0,0,1,137.72,56.38Zm-8.22.81a5.17,5.17,0,0,1-.59-.36,7.89,7.89,0,0,1,.48,2.55s0,.08,0,.11C129.74,58.8,129,57.84,129.5,57.19ZM113.27,70l-.12.07a1.55,1.55,0,0,1-1.32-.44,3.72,3.72,0,0,1-.13.93c.13.6.1,1.29.79,1.59h0C113.39,71.62,113.25,70.76,113.27,70Zm-12.13,5c.71,2.3-1.84,2-2.67,3.07l-.06,0a1.7,1.7,0,0,1-.16,1,1.11,1.11,0,0,1,1.3.06l.12.31h0c1.07-.41,1.79.69,2.78.64,0-.24,0-.48.08-.72-.25-.57-.5-1.14-.74-1.71h0l-.21-2.4A1.26,1.26,0,0,1,101.14,75Zm-7.75,3.15a1.48,1.48,0,0,1-.25-.14s0,.08,0,.13a1.61,1.61,0,0,1,.12,2.79l1.14.61h0c1.41.24,2.62.11,3-1.57l0,0,0,0-1.18-1A2.3,2.3,0,0,1,96,79a2.56,2.56,0,0,1-1.91-.88A3.19,3.19,0,0,1,93.39,78.14Zm-6.74,9.72-.51.48.17,0a3.13,3.13,0,0,1,.75.57l1-.52A4,4,0,0,1,86.65,87.86ZM56.42,164.24a4.87,4.87,0,0,1,.54,0l-.43-.25A.82.82,0,0,1,56.42,164.24ZM226.85,41.63h-.17a.35.35,0,0,0-.05.08ZM142.43,56a1.57,1.57,0,0,1-.94-.34l0,0,.15.22a1.34,1.34,0,0,1-.58,1.41,5,5,0,0,1,1,.21,3.77,3.77,0,0,1,.06.39,1.31,1.31,0,0,0,.09-.17,1.06,1.06,0,0,1,.62-.7,1.34,1.34,0,0,1-.22-.16A1.44,1.44,0,0,1,142.43,56ZM80.51,84.29l0,0a4.78,4.78,0,0,1,1.28,2c.85-.56,1.5-.14,2.09.57a.5.5,0,0,1,0,.13,1.09,1.09,0,0,1,1-.24,1.07,1.07,0,0,1,.21.13.55.55,0,0,1,.13-.59,1.46,1.46,0,0,1,0-2.19c.24-.2.49-.4.72-.61.62-.63.59-1.6,1-2.33a5.9,5.9,0,0,0-2.76.8,1.25,1.25,0,0,1,1.29.85,1.45,1.45,0,0,1-.15.94C83.79,85.13,82.12,84.41,80.51,84.29Zm132.16,37.92a1.77,1.77,0,0,0,.17.12,1.32,1.32,0,0,1,.58-.25,1.56,1.56,0,0,0,.68-.06,1.84,1.84,0,0,0-.36-.28c-.63-.31-1.28-.59-1.92-.88h0l-1.36.2a2.64,2.64,0,0,0-.17.61l-2-.07-1.3,1.16a3.69,3.69,0,0,1,.17.42,2.38,2.38,0,0,0,1.07,1.1,1.19,1.19,0,0,1,.16.23.5.5,0,0,1,.43,0,1.53,1.53,0,0,1-.06-.25q.54-1.08,1.47-.45a2.66,2.66,0,0,1,1.46-1.62A1.84,1.84,0,0,1,212.67,122.21Zm6.94-4.88.11,0a0,0,0,0,0,0,0s0-.06,0-.1h0ZM239.94,57a.8.8,0,0,1-.29-.29C239.66,56.82,239.77,56.92,239.94,57ZM127.62,54.11v0h0Zm-4.83,6.38a3.29,3.29,0,0,1-.53-.1,2.22,2.22,0,0,0,.31,1.6c.44.5.89,1,1.34,1.49.54,1.29-.43,1.83-1.21,2.46a3.66,3.66,0,0,1-.79.26,2.4,2.4,0,0,1-.8,1.08l.79.44,1.37-.1h0L124,67c1.31.25,1.64-1.57,2.93-1.37a5.34,5.34,0,0,1,.69,0l0-.85-.63.1c-1,0-2.25.18-2.36-1.41l.89-1.26a3.87,3.87,0,0,1-.76-2l0,0A3.55,3.55,0,0,1,122.79,60.49Zm-34.7,10,0,.07,0,.07h0l.09-.08Zm-21,79.9a.67.67,0,0,0,0,.24,1.74,1.74,0,0,1,.11-.25v0a.79.79,0,0,0,.26-.29,1.29,1.29,0,0,1-.17.16l-.09.13s0,0,0-.05h-.09Zm25.86,20.82.09.05a.37.37,0,0,0,0-.11h0A.27.27,0,0,1,92.92,171.25Zm13.14,4.95c-1.1-.72-2.65-.12-3.62-1.21l-1.55.57-.48.8.68.63,2.6.84c0-.06,0-.11,0-.16A3.55,3.55,0,0,1,106.06,176.2Zm124.88-64.08s0,0-.07,0c-.58.24-1.12.58-1.69.87l.08.06a1.75,1.75,0,0,1,0,.24l.47.27a2,2,0,0,1,1.41-.53A1.19,1.19,0,0,1,230.94,112.12Zm-71.68-65a7,7,0,0,1-2.9,1.39A1.77,1.77,0,0,1,158,49l1.26-.72C159.23,47.87,159.25,47.5,159.26,47.12Zm-4-2.73a.88.88,0,0,1,.42.24c.07-.21.18-.42.23-.63A2,2,0,0,1,155.28,44.39Zm-4.69,1.33a2,2,0,0,1-1.13.14,1.1,1.1,0,0,1-.26,1.2l-.06,0c0,.17.05.33.07.5.48.51,1,1,1.45,1.54h0l.78-.76a1,1,0,0,1,.7-.37,16.58,16.58,0,0,0-1.42-1.22,1.36,1.36,0,0,1,0-.45A.6.6,0,0,1,150.59,45.72ZM73,93.26A1.63,1.63,0,0,1,73.19,95a1.39,1.39,0,0,1-.29.22l0,.22a2.85,2.85,0,0,1,.71.07,1.65,1.65,0,0,1,.55.45l6.48-3.64.08-.05-.61,0-.72,0c-2.53-.85-2.41,2-3.76,2.74-.34.51-.69.49-1.07,0A1.34,1.34,0,0,1,74.31,93a1.13,1.13,0,0,1-.5-.22,3.09,3.09,0,0,1-.26.37A1.51,1.51,0,0,1,73,93.26ZM62.42,143.12a1.85,1.85,0,0,1,.64,1.3l-.21.31.12-.08c.65-.69,1.33-1.22,2.21-.57a.64.64,0,0,1,.71-.17l.27.26c.57.12,1.09.16,1-.92a.63.63,0,0,1,.45-.82.44.44,0,0,1-.08-.11,3.19,3.19,0,0,1-.2-.75,2.62,2.62,0,0,1-2.88-.28l-.75-.08-.73.65A1.67,1.67,0,0,1,62.42,143.12Zm20,38.26-.14-.14a1.46,1.46,0,0,0,.07.19A.18.18,0,0,1,82.38,181.38Zm48.24-20.78a1.47,1.47,0,0,1,.58.15,1.21,1.21,0,0,1,.83.33,1.36,1.36,0,0,1,1.07-.81l-.64-.61Zm9.6-3.39a2.44,2.44,0,0,1-.29-1,1.38,1.38,0,0,1,0-.2,1.34,1.34,0,0,0-.52-.1l-1.48.78a3.19,3.19,0,0,1-.34,1.56A6.49,6.49,0,0,1,140.22,157.21ZM164,145.67a3,3,0,0,1,.61-.24l0-.11a.86.86,0,0,1,0-.16C164.42,145.33,164.23,145.51,164,145.67Zm16.23-9.92-.16-.08-1.26.63a2,2,0,0,0-.07.54l.06,0A2.55,2.55,0,0,1,180.26,135.75ZM217,126a1,1,0,0,1-.16.33l.25-.25h0Zm17.13-2.1h0Zm0,0c-.44-.43-.87-.86-1.3-1.3h0l-1,1A4.71,4.71,0,0,0,234.12,123.87ZM184.58,41h0l-.08,0a.43.43,0,0,0,0,.05Zm-24.65,2.5a2.17,2.17,0,0,1-1.12-1.19,4.67,4.67,0,0,1-.38,2.12,1.37,1.37,0,0,1,1,.13,1.75,1.75,0,0,1,.16.25h.53a4,4,0,0,1,.58-.13c-.15-.39-.31-.78-.47-1.16A1.15,1.15,0,0,1,159.93,43.48ZM104.65,64.13l.84-1.21a.66.66,0,0,1-.15,0c-1.62-.8-3.32.88-4.93-.15a1.5,1.5,0,0,1-.11-.22l0,0L100,63a1.16,1.16,0,0,1-.94.1,1.48,1.48,0,0,1,0,.19c-.23,1,.52,2.11-.1,3.13a13.46,13.46,0,0,1-4.06.92l-.34-.23a.85.85,0,0,1-.06.17,1.33,1.33,0,0,1-.62.4c.24,1.16-.64,1.45-1.52,1.74.77,0,1.52-.45,2.29-.37,1,0,2-.44,2.9.11v0l.75-.42c-3-1.53-.17-1.29.52-1.7l1.37-.17h0a4.48,4.48,0,0,1,.16-.52,2,2,0,0,0,.68-.18l.33.26.92,0a.53.53,0,0,1,.21-.33,7.34,7.34,0,0,1,1.46-.4,5.8,5.8,0,0,1,.63.16l.34-.19A1.19,1.19,0,0,1,104.65,64.13Zm-5.86-1.6s0,.06.06.09a.44.44,0,0,0,0-.1ZM69.88,95.44a2.67,2.67,0,0,1-.5,1.81l0,.07c0,.13.1.27.14.41a2.9,2.9,0,0,0,.21.75l1.83-1c0-.07,0-.14,0-.2l-.74-.71a.76.76,0,0,1-.14-.67.64.64,0,0,1-.27-.55A2.72,2.72,0,0,0,69.88,95.44ZM66.67,106.8l.07.13,0,0A.14.14,0,0,0,66.67,106.8Zm-9.09,28.06a1.93,1.93,0,0,1-1-.72,2.08,2.08,0,0,1-.78.75,1.35,1.35,0,0,1,.35.85Zm2.09,33.32,2-1C60.7,167.16,59.8,167.24,59.67,168.18Zm54.41,4.64h0s0,0,0,0Zm3.92-6-.12.06.14,0S118,166.82,118,166.78Zm4.41-2.17,0,0,0,0Zm-1.72,3.6a4.06,4.06,0,0,0,1.78-1.06l-.94,0a1.67,1.67,0,0,0-.18.28A6.78,6.78,0,0,1,120.69,168.21Zm116.17-31.49v-.05l-.05,0Zm.85-27.46c-.88.61-1.8,1.14-2.56-.13a1.89,1.89,0,0,1-.29-.78l-2.23,1.11c0,.21.07.43.12.62l.42,1.5c1.47-.39,2.84-.59,3.14,1.48l.58,0h0A4.15,4.15,0,0,1,237.71,109.26Zm12-17.1c0,.16.06.25.45,0Zm7.2-37.93a1.79,1.79,0,0,1,.45,1.17l-.06.07a4.78,4.78,0,0,1,.53,0l0,0h.08c-.27-.67.14-1,.78-1.31l.37-.41a1.9,1.9,0,0,1-1.18.06l-.13-.1Zm-1.83-21.69a3,3,0,0,1-1.82.3c0-.05-.1-.09-.15-.14.59,1.74,1.58.24,2.39.25Zm-1.38-5.21c-.51.33-1,.64-1.57.93a3.85,3.85,0,0,1-.08.49,14.82,14.82,0,0,0,3.46-1.1c-.09-.14-.19-.29-.29-.46a1.07,1.07,0,0,1-.22.1,3.24,3.24,0,0,1-.93.1C254,27.38,253.85,27.35,253.73,27.33Zm-21,8.7Zm-11.66-7.47a.73.73,0,0,1-.16-.66c-.25.19-.5.37-.74.58a2,2,0,0,1,.25.73A2.37,2.37,0,0,1,221.08,28.56ZM198.93,34c.68,1.73-1.09,2.33-1.61,1.75-1.42-1.6-2.76-.27-4.07-.46a7.87,7.87,0,0,0-1.37,0c.62,1.85,2.34,2.07,4.1,2.22a1,1,0,0,1,.34.53,1.51,1.51,0,0,1,1.81.15l1.51-1.31h0a3,3,0,0,1,.59-.15h0l.86-.72h1.34a1.59,1.59,0,0,1,1.41-.41c0-.3,0-.61.05-.91a1.7,1.7,0,0,1-2.15,0c-.21-1.79,1.17-1.24,2.06-1.41l.12,1.32,3.62-1.37V31.06l.59-.15,1.56.79h0c1.52.38,3,.57,4.32-.59l.7-.2-.1-.3a1.07,1.07,0,0,1,.14-.16.78.78,0,0,1-.2-.16,6.91,6.91,0,0,0-3.43-.74h0l-2.86-.62h0l-.06.8-2.9.58a1.89,1.89,0,0,1-2.59,1.3s0,.07,0,.11a2.07,2.07,0,0,1-.7.58c-1.1.23-1.69,1.18-2.51,1.82A1.24,1.24,0,0,1,198.93,34Zm-26,7a.85.85,0,0,1,.1.14h.12A.71.71,0,0,1,173,41.06ZM164.06,44c1,.08.78,1,.76,1.74a1.93,1.93,0,0,1-.19.38h.68l.5-.22.63-1.88.89.09,2.06-.18h0l.4-.32v-.11a2.18,2.18,0,0,1,.58-1,2.09,2.09,0,0,1-1.09-.45,1,1,0,0,1-.09-.13c-1.1,1-2.67.86-3.9,1.55a.94.94,0,0,1-.68-.15A1.86,1.86,0,0,1,164.06,44Zm6.19-8.06a1.28,1.28,0,0,1,.15-.25H170A1.88,1.88,0,0,1,170.25,35.91Zm-14.39,3.21a1.28,1.28,0,0,1,.8,1.56c0,.13-.1.25-.15.37h.32c.12-.55.37-.91,1-.66C157.71,39.17,157,38.85,155.86,39.12ZM111.65,57.77a3.79,3.79,0,0,1-.58-.05c-.2,1.63-1.5,1.94-3.14,1.83a1.28,1.28,0,0,1-.45-.34c-.48.68-1,1.36-1.42,2a.8.8,0,0,1,0,1.43h0l0,.08,1.37-.12,1.32-.51a1.13,1.13,0,0,1,.93-.86c.74-.09,1.7.31,2-.83-.05-.65.29-.87.89-.8l.28.24,2.48-.27,1.41-1.24a.57.57,0,0,1,.22-.67.68.68,0,0,0,.56-.24l1.53-.47,1.38-.83,1.62-1.3c.38-.81,1.35-.86,1.9-1.45l0,0c0-.22,0-.44,0-.66l-.59-.12h-.06c.08,1.68-1.16,1.34-2.14,1.4l-2.91.49a3.62,3.62,0,0,1-.46.59c-1.08.82-2.46,1.1-3.52,1.95A4.62,4.62,0,0,1,111.65,57.77ZM59.83,100.06l.27,0,1,0a5.91,5.91,0,0,1-.4-.89A1.91,1.91,0,0,0,59.83,100.06Zm-7.31,34c0,.1,0,.2,0,.3a1.4,1.4,0,0,1,.41-.06Zm-2.78,9.63a.82.82,0,0,1,0-.84,4.72,4.72,0,0,1-1.28.55A4.61,4.61,0,0,0,49.74,143.73Zm5,1.69h0l0,0ZM44.59,159.56a1.83,1.83,0,0,1-.39.61,4.79,4.79,0,0,0,.64,1.68,1.52,1.52,0,0,1,.54.4,3.82,3.82,0,0,0,.93,1A1.88,1.88,0,0,1,46,161.9c.28-.83.68-1.54,1.62-1.7a.67.67,0,0,0,0-.2l-.05,0a1.35,1.35,0,0,1-1.13-.92,3.7,3.7,0,0,1-.18-.8,1.2,1.2,0,0,1-1.14.19A4.38,4.38,0,0,1,44.59,159.56Zm11.27,10.71-.25-.21a1.82,1.82,0,0,0-1.08.94C55,170.77,55.42,170.53,55.86,170.27Zm29.73,3c.41-.14.79.1,1.18.22A.83.83,0,0,0,85.59,173.24Zm-7.86,8.56-.54.77a1.79,1.79,0,0,1,.4,0,19.78,19.78,0,0,0,2.87.2l.32,0a1.58,1.58,0,0,0-.26-1,1.08,1.08,0,0,1-.78.34A2.62,2.62,0,0,1,77.73,181.8Zm6.35,9.06a1.78,1.78,0,0,1,0-.73h0a1.52,1.52,0,0,1-.9-.32,6.64,6.64,0,0,1-2.25,1.43,3.66,3.66,0,0,1-1.67.15,1.8,1.8,0,0,1,.29,1.21,1.45,1.45,0,0,1,.62.25l1,.11.14-.36A2.83,2.83,0,0,1,84.08,190.86Zm27.57-13a.77.77,0,0,1,.16-.15c-.5-1.06-1-2.13-1.49-3.19h0l-2.06-1c0,.91-.07,1.83-.11,2.74l.54.21c.81.48,1.84.79,1.84,2l1,.59C112.63,179.05,111,178.07,111.65,177.89Zm5.17-7.32,0-2.09-1.18-.52c-.62.32-1.25.61-1.88.88l-.2.13a4.27,4.27,0,0,1,2.37,1.5A1.35,1.35,0,0,1,116.82,170.57Zm4.12,1.14a1.22,1.22,0,0,1,.25-.61c-.06-.7,0-1.45-.7-1.92h0l-.74-.71h0l-.86.05a3.53,3.53,0,0,1-2,2.09,3.65,3.65,0,0,1,.81,1.14c.25-.72.89-.85,1.89-.42C120.18,171,120.58,171.28,120.94,171.71Zm76.94-19.59a4.91,4.91,0,0,1-.43-1.88,6.46,6.46,0,0,1-.27-.6l-.65,1c.47.26.62.72.39,1.44a3.5,3.5,0,0,1,.42.24.65.65,0,0,1,.15.23A2.22,2.22,0,0,1,197.88,152.12ZM191,167.33a11.28,11.28,0,0,1,2.28-.75c.48-.3,1.17-.43,1.65-.77,1.58-1.13,3.1-2.34,5.06-3.83-1.84-.69-3.24.71-4.53.86a2.32,2.32,0,0,1-.32,1.06c-.46.71-2.2.59-3.79.84C191.18,165.58,191.07,166.44,191,167.33Zm17-4.39.31.07.06-1.78h0a2.51,2.51,0,0,1-.54-.38c0,.71,0,1.39-.07,2Zm14.55-8.23.09-2.06-1.42.72C221.2,154.27,221.5,154.86,222.54,154.71Zm-78.42,29a6,6,0,0,0-.63-.09c.07,1.22.4,2.2,1.93,2Zm-21.54,11.44,4.29-.11c-.23-1.87-1.78-1.08-2.79-1.4C122.92,193.46,122.39,193.93,122.58,195.12Zm2.2-4.32-.74,2.1c1.19-.79,2.92-.53,3.78-2h0a5.1,5.1,0,0,0,.5-.19c1.05-.72,1.15-1.44.57-2.15,1.5-1.16,2.71-.57,3.68,1.41l.59-.45c-.24-1.28-.48-2.56-.82-4.34L128.2,188a1.48,1.48,0,0,0-.47,0c-.45.71-1.79.77-1.52,2C126,190.74,125.35,190.74,124.78,190.8Zm-29.6,4.95-1.23.59.77.83c.86,1.32,1.78.52,2.69.08l.74-.71C97.43,195.27,96.52,194.72,95.18,195.75Zm3.15-2.59a1.12,1.12,0,0,0-1.67.53l1.39.59C98.15,193.89,98.42,193.21,98.33,193.16Zm21.31,3.36.28-.66c-.77-.72-1.58-1.18-2.32,0-.21.35-.73.84-.16,1.24C118.33,197.74,119,197,119.64,196.52ZM10.42,167.62c-.73-.12-1.54-.37-1.55.85.59.67,1.17,1.41,2.21.72a1.07,1.07,0,0,0,.22-1.34A.81.81,0,0,0,10.42,167.62Zm101.37,50.43c-1.31.69-2.16,2.72-4.15,1.43a1.35,1.35,0,0,0-1.52-.48l-2.22.58a3.31,3.31,0,0,0-.07.55c-1,.06-2.14-.26-2.9.78l-2.1,1.54a2.06,2.06,0,0,0-.07.66h0l-.57.77,1.48.64,1.29.22.78-.05c1.1,1.3,2,.45,2.82-.33.77-1.49-2.92.22-1.34-1.86l1.45-.68.67.69.77-.19,1.35-1.34c.53.16,1.2,0,1.51.67,2.47,1.35,1-2.51,2.81-2.1C111.91,219.05,112.69,218.56,111.79,218.05Zm2.87-4.91a2.3,2.3,0,0,0-.64-.09l-1.4-.11a2.28,2.28,0,0,0-2.18-1.23c0,.06,0,.12-.07.18l0,0c-.69-.13-1.36-.72-2.09-.09l-1.5.56c0,1.23,0,2.46-.07,3.7,1.86,2.18,3.1.39,4.44-.71v-.2c1.77-.5,3.45,1.69,5.24.18C115.86,214.53,114.61,214.34,114.66,213.14Zm-64.75-108-1.43-1.33c-.78.14-1.07.82-1.48,1.36C48,106.33,48.94,105,49.91,105.1ZM14.85,165.71A3,3,0,0,0,17.44,167l.27-.59c-.08-.48-.16-.95-.23-1.43A2.79,2.79,0,0,0,14.85,165.71ZM248.94,48.78c.22.73,1,.91,1.73.89,0-.44,0-.87,0-1.3l-.68-.75C249.35,47.78,248.75,48.14,248.94,48.78ZM192.39,173.46c-.9,2.81,1.39,1,2.12,1.46A2.17,2.17,0,0,0,192.39,173.46Zm59-161.19c1.14-.4,2.37.38,3.5-.23a2.78,2.78,0,0,0,1-.35,2,2,0,0,0-.91-2.23l-3.54-.06C250.74,10.35,249.22,11.3,251.37,12.27Zm-159,186.41c-.16,1.53,1.12,1.59,2.05,2C95.48,198.24,93.78,198.62,92.38,198.68ZM57.79,119.57c-.45-.65.17-1.65-.71-2.15l-.78.61.12,2.21C57,120.31,57.58,120.3,57.79,119.57ZM42,108.05h0Zm0,0c.62,1,1.32,1.82,2.66.94C44.14,107.44,42.91,108.31,42,108.05Zm210.1,23.73a1.45,1.45,0,0,0,1.43.69c.27-.55,1-1.19.06-1.67S252.76,131.61,252.14,131.78ZM115.42,213.1l2.08-1.47.12,0c.07,0,.13-.08.18-.26s0-.33-.21-.48l-1.49,0A2.61,2.61,0,0,0,115.42,213.1Zm33.1-36.71,2.83-.75-1.48-1.49-2.77.82C147.29,175.72,147.91,176.05,148.52,176.39Zm76.19-42.56.24-1.38-1.41-.54C223.29,132.93,223.27,133.82,224.71,133.83Zm13.79-25.1-.06,0v0ZM78.69,174.92c0-.27,0-.55,0-.82h0c2,.07,2.1-1.32,2.17-2.75-.89.44-2.49-.51-2.68,1.3a.92.92,0,0,0-.63.34,2.05,2.05,0,0,0-.3,1.32c0,.65,0,1.31,0,2C78.71,176.76,78,175.17,78.69,174.92Zm85.69-17.14c-.3.09-.37.27-.16.52l.15,1.52c1.74,1.07,1.79-.39,2.13-1.42C166,157.38,165.2,157.59,164.38,157.78Zm-4.32,12.84.62,0a1.54,1.54,0,0,0,.52,1.11c.08.33.16.62.21.86l5.78,3.21c.07-1.49.44-2.74.12-3.78a0,0,0,0,1,0,0l.53-.12a1.55,1.55,0,0,0-.63-1.22,3.12,3.12,0,0,1,1.12-1.57,13.11,13.11,0,0,0,1.71-2.68l-5,1c-.22-.86-.83-1.32-2.1-1.11l0,0-1.23,1.75-.24,0c-.12-.66-.4-1.32-1.18-.88C158.77,168.18,159.48,169.46,160.06,170.62Zm-5-2.82c.73-.51.12-1,0-1.47l-1.46.68c-.63-.16-.79.12-.64.69Zm-13.67,2.07c-.48.08-1.18-.65-1.38.33-.05.25.25.8.42.82.75.06,1-.49,1-1.13Zm5-2.78a2.57,2.57,0,0,1,0,.68c0,.21.08.42.1.64l.61.15,1.38-.17h0c.58-.26,1.14-.72.67-1.3C148.29,166.06,147.28,166.33,146.36,167.09Zm43.1-22.52c-.85.29-1.9-.13-2.65.52l-.17,0a2.39,2.39,0,0,0-.95.21,12.21,12.21,0,0,0-2.79,4c-.13-.48-.15-1-.72-1.26a1.79,1.79,0,0,0-.92,0c-1.47,1.09-.58,2.61-.72,3.94a2.63,2.63,0,0,0,1.21,2c1.22.21,2-.54,2.71-1.32l.26-.07H185c1-.85.88-1.5.33-2.1a1.31,1.31,0,0,0,1.23-.91c.94-1.2,2-2.14,3.69-1.95l2.9-1.46,0-.69c.2-.6-.15-.87-.66-1l-.17,0c0-.15,0-.3-.05-.44h0l.92-.67-.86-2.13-2.15.64.06,1.46A1.27,1.27,0,0,0,189.46,144.57Zm5.82-4.87h0a1.48,1.48,0,0,0-1.28-.48,1.46,1.46,0,0,0-.77.52c0,.46,0,.92,0,1.38C194.27,141.12,195.29,141.15,195.28,139.7Zm-37.05,23.71.3,0c1.47-1.92-.21-2.63-1.38-3.53-.66-.26-.91,0-.9.67,0,.25.06.5.08.75.54.71,1.07,1.42,1.61,2.12Zm4.2-6.1c-.56-.6-1.23-.28-1.67.37.85.52.67,1.37.71,2.16h.7C162,159,163.2,158.13,162.43,157.31Zm4.59-.49a2.78,2.78,0,0,1,.21-.57l2.43-.07a4,4,0,0,0,.39.29,2.19,2.19,0,0,0,.95.09c1.72-1.05,4.25.53,5.59-1.73l.7-.75c.87-1.65-.31-1.62-1.38-1.67l-.63,0a1.72,1.72,0,0,0,.59-.55c.57-.14,1.8,0,.54-1-1-.78-2.22-.38-3.35-.2a1.3,1.3,0,0,0-.55.75,1.52,1.52,0,0,0,.07.68c-1.63-.21-2.68.91-3.87,1.7a1.29,1.29,0,0,0-.09.16l-.66-.65c-.79-.35-1.24.12-1.65.68a1.47,1.47,0,0,0,0,.55l-.41.28C165.91,155.68,166,156.52,167,156.82Zm121.9-46.47c-3.68,4.13-3.74.12-4.74-.66l2.65-1.77c-2.66-.66-5.35-.6-6.92-1.89-2.64-2.18-4.11-.4-6,.7-.82.48-1.63,1-2.78,1.7,1,1.11,1.72,2,2.66,3.14-5.55-.27-.42,3.44-2.21,4.84l-3,.3,2.28,1.34-.09.77-6.59.26a38.48,38.48,0,0,0,6.2,3.64c.4.23.25,1.43.39,2.49,1.2-.57,2.65-.88,3.54-1.77,1.41-1.39,4.95-.73,4.21-4.21,2.3-.32,4.68-2.72,6.69.36l2.63-1.49C288.25,115.38,288.53,113.27,288.92,110.35ZM160.44,184.91v0l-.11.09Zm0,0-.12,0V185Zm19.66-13.21c-3.71-.14-6.34.89-7.29,4.69C176.19,176.4,179.75,174.14,180.1,171.67ZM255.6,131c.47-1.68.73-2.63,1-3.66-.19.32-.88.35-1,.74-.3-.14-.86-.34-.85-.42a1,1,0,0,1,.43-.67l-3.62.47c3.6-3.77,4.75-3.63,7.73.39C258.38,128.64,257.39,129.46,255.6,131Zm1.07-3.81c0-.13.07-.27.11-.4l-.23,0A.72.72,0,0,1,256.67,127.16Zm-13.26,6.48-.09.14h0v.08l.07,0A1.93,1.93,0,0,1,243.41,133.64ZM151.7,175.46a2.14,2.14,0,0,0-.22.63,3.33,3.33,0,0,0,.17,1.46V178l.43.27a2.83,2.83,0,0,0,.84.71,3.17,3.17,0,0,0,2.81-.31c1.36-.12,1.46-1.14,1.55-2.17l1.89.09c1.08.94,1.93-.36,2.91-.29,0-.92,0-1.84.05-2.76-.65-.15-1.05,0-1.27.32a9.17,9.17,0,0,0-.88-2.16c-2.26-2-2.58-2-3.3.66a3.83,3.83,0,0,0-1.33-.51c-.88-.08-1.88-.62-2.51.46-.22.37,0,.63.25.87a1.72,1.72,0,0,0-.45.31,1.32,1.32,0,0,0-.1,1l-.81.29C151.71,175,151.71,175.24,151.7,175.46Zm-16,12.64c1.57-1.21,3-2.58,4.5-3.91a2,2,0,0,0,.39.13,4,4,0,0,1,0-.49l0,0,0,0c.06-.73.23-1.49-.45-2.06-.32-.26-1-.51-1.23-.35-.56.49.21,1,.25,1.49.15.25.28.51.43.75l-6.6,4.19C134.41,188,135.33,188.39,135.71,188.1Zm10.71-1.81-.92-.12c-.38,1.16-.75,2.33-1.12,3.5l3.49.7C147.16,188.36,146.79,187.32,146.42,186.29Z"/></g></g></svg>