<svg xmlns="http://www.w3.org/2000/svg" viewBox="0 0 289.72 168.44"><defs><style>.cls-1{fill-rule:evenodd;}</style></defs><g id="Layer_2" data-name="Layer 2"><g id="Layer_1-2" data-name="Layer 1"><path class="cls-1" d="M52.7,25.25c.22,2.13-.87,1.62-2,1a1.35,1.35,0,0,0-1.13-.81c.77-.85,1.71-.29,2.58-.33C52.33,25.16,52.51,25.21,52.7,25.25Zm175-1.74h0ZM39.53,28.06c-1.09-.07-2.2-.63-3.22.24l-2,.36c-3.68-.39-4.55.08-4.83,2.62,0,.21-.06.42-.08.63-.89-.05-1.83-.52-2.64.25l-.54.07-.68-.15c-.8.53-1,1.15-.26,1.88l1.94.19h0l1.26-.48.69.11h0l2.91,1.6c.13-1.39,2.28-.68,2.29-2.2-1-.27-2.14.1-2.88-.8,0-.09.07-.17.1-.26a1.27,1.27,0,0,0-.07-.48.31.31,0,0,0,.22.05,5.32,5.32,0,0,1,.47.36,1.9,1.9,0,0,0,2.41-.75,9,9,0,0,0,5.13,0,1,1,0,0,0,.39-1.07c0-.07-.09-.11-.13-.17a2,2,0,0,0,1-.13,1.58,1.58,0,0,0,.54-.42c1.27.06.93-.69.71-1.37,0-.12.12-.24.17-.36a1.45,1.45,0,0,0,0-.55l1,.69a1.15,1.15,0,0,0,1.13,1.42l.58.06.72.18c1.53.49,2.26,2.36,4.08,2.34,1.47-.85,1.24-1.5-.25-2-1.26-1.15-.21-2.1.28-3.1L46.06,27l-.54-.15h0l2-1h0a2.8,2.8,0,0,0,.09-.58l-2.45-.39h-.08c.74-.68,2-.18,2.7-.92l2.79-1c-4.59-.82-8.29-.81-11.82,1.16l-.79.55.21.29c-.5,1.33.28,1.77,1.54,1.88h0C39.73,27.23,40.28,27.73,39.53,28.06ZM142,15.25c0-1.3-.9-1.85-1.76-2.54-.67.9.09,1.57-.1,2.26Zm47.42.84L190.85,15a2.1,2.1,0,0,0-2.52-.32c-.51-.34-.76,0-1,.38a.75.75,0,0,0,.21.76ZM185,15.5c0-.39.1-.79.14-1.18l-2.64.92C183.2,16.5,184.12,15.77,185,15.5Zm58.74,137.57c0,.25.24.38.33.59l.36.07c-.06-.8,2.05-1.56.05-2.4C244.33,152,243.05,152.1,243.73,153.07Zm-202.79-38a5.55,5.55,0,0,0,3.11-1.59c.34-.64,0-1.14-.33-1.66-1.46-1.47-2.24.19-3.26.71a2.08,2.08,0,0,1-.2.36,1.49,1.49,0,0,0-.45.34c-.45-.17-1-.42-1.22-.26-1.44.86-2.22,0-3-1,0-.64-.52-.74-1-.87-.53.89-.71,2.22-1.94,2.33-.81.07-.8-.94-1-1.58l-.37-.25c-.19.44-.37.89-.56,1.33a6.49,6.49,0,0,0,.3,1.09c.25.69.25,1.5,1,1.92l1.23.53c1-.33.37-2.71,2.33-1.92l.07-.1c1,.81,2.17.16,3.25.3l.73-.51h0C39.94,114.8,41.24,113.64,40.94,115.08ZM289.42,149.3c-1.06.18-.34,2.83-2.35,1.68h0l-1.2.57a1.56,1.56,0,0,1-2.05-.3c-1.21-1.14-3-1.24-4.68-1.46h0c-.07.11-.14.21-.2.32l-1.45-.07c-1,.11-1.43-.45-1.58-1.33a.53.53,0,0,1,.14-.29c-.37-.09-.5-.28-.51-.51a11.77,11.77,0,0,0-.13,1.68.84.84,0,0,1-.41.4,2.88,2.88,0,0,1-.4-.09h0a1,1,0,0,1-1,0h0c-.07.11-.15.22-.22.34a5.76,5.76,0,0,0-4.55.12l-.82-.32a1.18,1.18,0,0,1-.13-.8c0-.36-.12-.63-.53-.67-.58.23-.62,1-1.27,1.17-.47-.18-.93-.47-1.43-.08-.74.24-.6-.38-.73-.74s-.51-.45-.73-.71c-.28.33-.57.65-.86,1l-1.36.93c-.33-.29-.22-.64-.12-1l.39-.88c-.37-.51-.08-1,.1-1.46l.62-.25c.43,0,.52.23.28.58l-1,1.13c.66.33,1.26-.05,1.88-.13,0,0,0,0,0-.06a1,1,0,0,1,.26-1.41c.46,0,.92.21,1.38.28a10.14,10.14,0,0,0-1.12-.68,1.41,1.41,0,0,1-.49-.38H263c-.38,0-.77.07-1.15.08a3.52,3.52,0,0,0-1.62.39.87.87,0,0,1-.32,0l-.68.58a.76.76,0,0,1-.77-.32,3.42,3.42,0,0,1-.58,1.94,1.22,1.22,0,0,1-.39.15h0c.29.3.53.61,0,.94h0a1.67,1.67,0,0,1-1.35-.06,2,2,0,0,1,.27-1.82,3.6,3.6,0,0,1,.12-.44c0-.36-.65-.47-.65-.84,0,0,0,0,0,0-.91-.11-1.7-.7-2.64-.7a3.62,3.62,0,0,0-.86.22l-.15.07c-.08.46-.15.91-.23,1.36l-.09,1.42-.75-.18c-.1.12-.19.25-.28.38-.66-.14-1.17.36-1.78.41a1.1,1.1,0,0,1-.81-.49,5.9,5.9,0,0,1,.06-2,3.22,3.22,0,0,1,.17-.68,1.79,1.79,0,0,1,.51-.72,4.3,4.3,0,0,1-.13-.7,2.76,2.76,0,0,1,.06-.4l-.15-.14a.19.19,0,0,1-.07.14,2.7,2.7,0,0,1-1.11.93c-.69.2-1.43.68-1.91-.33-.11-.8-.7-1.48-.71-2.31-.22.5-.43,1-.65,1.51-.06.14-.11.29-.17.43.15.75-.27,1-.9,1.11l0,0a2.26,2.26,0,0,1-.51,2.3c-1,1-1.57-.17-2.33-.42-.91-.34-.75-1.14-.83-1.84-.51.18-.66.65-.82,1.11.07.19.13.38.2.58-1.15,1.85-2.34.25-3.52,0,0,.16-.08.32-.13.48-1.63,2.27-1.5-1-2.64-.75-.32.87-.45,2.43-2.12,1.25l-.93,1.12a1.09,1.09,0,0,1-1.05.05,1.47,1.47,0,0,1-1.68-.41,1.42,1.42,0,0,1,.61-2,.68.68,0,0,1,.52.09l.65-1.59-.17-.11c-.45-.37-.74-.8-.42-1.41a.9.9,0,0,1,.55-.29h.07a3.51,3.51,0,0,1,.4-2.79,3.3,3.3,0,0,0,.25-.63l-.42-.19c-1,.77-.52,2.13-1.26,3h0c.1.21.2.41.31.61a9.32,9.32,0,0,0-1.71,2.79h0l.28.64c-.59.72-.23,1.86-1.09,2.46-.1.1-.2.13-.28.08s-.13-.1-.12-.13c-.11-.56-.23-1.11-.35-1.67h0l-1.26-.54h0a1,1,0,0,1,.14.2c.42,1.8.91,3.62-.57,5.08a.15.15,0,0,0,0,.06c.06.27.11.55.16.82l1.28-.25a.53.53,0,0,1,0-.22,2.91,2.91,0,0,1,1.18-1.25c1.23-.86,1,.24,1.13.87l2.12.46.1-.09a1.74,1.74,0,0,1,.89.21.23.23,0,0,1,.22-.15c.62.2,1.19.68,1.9.28.51-.42.94-.09,1.38.16a1.39,1.39,0,0,0,.37,1.55h0a.4.4,0,0,0,.19,0,2.32,2.32,0,0,0-.28-.24,1,1,0,0,1,.61-1,2.31,2.31,0,0,0,.18-.35,4,4,0,0,1,2.53.92h0a.83.83,0,0,1,.15-.17l-.07-.09a.46.46,0,0,1,.33-.47h0c.87-.26,1.5.68,2.36.48,1.93.1,3.75,1.8,5.8.44l.83.27.86.33c1-.1,1.9.66,2.9.17l3.75.59c2.1.1,4.28-.69,6.27.58l.77.28c0,.31.12.45.25.51a2,2,0,0,1-.25-.51c.63-.18,1.17-.17,1.4.6h0l1.65.75a9.83,9.83,0,0,1,4.38.26c.07-.1.16-.2.24-.3,1.59.66,3.59.88,3.55,3.29a1.56,1.56,0,0,1,0,1.59c-.37,1.79-1.77,4-3,4.31a8.4,8.4,0,0,1-4.78-.49c-1.76,1-3.8.7-5.63,1.34-.79-2.49-2.43-.47-3.65-.68a1.07,1.07,0,0,1-.2.36c-.65.4-1.38-.09-2,.18v0c-.9-.45-1.85-.84-2.2-1.92h0c-.16.16-.45.46-.46.45-1.95-1.82-4.21-.87-6.38-.75a1.55,1.55,0,0,1-.3.33h0a1.37,1.37,0,0,1-1.09.61c-.55.07-1,0-1.19-.62.08-.27.17-.53.25-.8l-.07,0a2.23,2.23,0,0,1-.07-1.3c-.56.36-1.18.61-1.72,1l0,0c-.28.89-1.33,1-1.78,1.7l-.8-.24c.16-1.16,1.54-1.26,1.94-2.21l-.09-1-.84-.27h0c-.89,1.24-1.82,2.41-3.53,2.43a.54.54,0,0,1,0,.31c-1,1-2.1,1.26-3.25.33-.79-.65-1.2-.16-1.66.37-.54.36-1,0-1.41-.23-1.46-.05-2.92-.46-4.39-.06h0c-1,.15-1.83-.57-2.76-.77l-.79-.25h-3.55c-3.2-1-6.59.95-9.77-.66-.27-.13-.82.29-1.24.45a7.44,7.44,0,0,1-3-.05c-1.17.06-2-.82-3.12-1a1.63,1.63,0,0,1-1.08-1.24,3.54,3.54,0,0,1,0-.73l-.06.15c-.12.29-.25.57-.37.86a.83.83,0,0,1,.22.08l-.38.32c-1.2.06-1.48-.44-1.13-1.42-.4.31-.16,1.31-.94,1.55l-.84-.29-1.45-.12c0,.15-.11.29-.16.44l-4.43-1.26-.44-.21c-1.15.88-2.64-1.28-3.7.41l-1.19.57c-1.26.16-.41-1.48-1.35-1.59-1.33,1.06-2.58.46-3.83-.19.33-.46,1.07-.84.57-1.52s-1-.44-1.54-.19c0,.14-.09.27-.13.41a2.46,2.46,0,0,1-.75.61l-2.21.6-.43-.18-.55.47c.5.6.86,1.21.1,1.89l-1.2.4c-1,.12-1.75-.06-2.11-1.09.09-1.63,1.32-1.25,2.26-1.39-.93-.56-2.22.08-3.11-.65h0c-.41.12-.79-.26-1.2-.06a1.18,1.18,0,0,1-.37-.09h0l0,0c-1,.44-2-.08-2.93-.21-.33.33-.68.21-1,0,0-.13.08-.25.13-.38h0c-1.28-.53-2.63.53-3.95-.23-.59-.34-1.1-.52-.91-1.31h0a3.06,3.06,0,0,0-2.09-.83,3.79,3.79,0,0,1-.2.34h0c-.18.42-.35.83-.52,1.25a2.21,2.21,0,0,1-1.84-.26c-.14-1.5-.8-3.16,1-4.09-.42-.48-.9-.2-1.37,0a.28.28,0,0,1-.23,0c0,.09-.07.18-.11.26-.44.66-1.18.77-1.84,1a1,1,0,0,1-.14.85,1.2,1.2,0,0,1,.33.41l.21-.09a1.18,1.18,0,0,1,.07-.41c.24-.36.46-.73,1-.36.05.88.9,1.63.41,2.6L153,159a1.86,1.86,0,0,1-.32-.47l-.94-.07-.1.2-.09.21a1.06,1.06,0,0,0-.18.33c-.65.23-1.33,1.13-1.88-.08h0c-.53.17-.93-.45-1.47-.24-.75-.1-.32,1.46-1.35,1-.9-.67-2.86,0-2.64-2.07l-1.36.93h0c-.06.13-.13.26-.19.4L139.88,158c-.19.09-.37.19-.55.29-.07,1.37-.54,2-1.94,1.14-.15-.36-.34-.64-.71-.65a.32.32,0,0,1-.19.36c-.06.13-.12.25-.17.38-.07.91-.34,1.34-1.16.49.54-1.25-.33-1.65-1.23-2h0a2.24,2.24,0,0,1-.44-.07c-1-.49-.49-1.18,0-1.54.73-.57.56-1.17.4-1.82-.56,1.48-1.28,1.06-2,.15a1,1,0,0,1-1,0,1,1,0,0,1-.94.1,1,1,0,0,1,0,1l.09,1a3.68,3.68,0,0,1-2.4,1c-.27-.74-.66-1.3-1.57-1.16h0a1.32,1.32,0,0,1-.33-.08.44.44,0,0,1-.24.4h0c-1-.85-3.12.95-3.42-1.48l0,.18c-.73.17-1.19.81-1.86,1.08,0,.71-.46,1.16-.8,1.68a1.5,1.5,0,0,1-.42-.15,3.18,3.18,0,0,1-.33-1.92l0-.2-.71-.29c-.18-.36-.67-.36-.93-.63a3.06,3.06,0,0,0,.41,1.91c-.35,1.19-1.16-.12-1.64.3-.14,0-.33,0-.42-.12-1.58-1.47-1.58-1.47-2.42.84A2.2,2.2,0,0,0,110.9,157c-.18-.89-1.22-1.32-1.23-2.3a.43.43,0,0,1,0-.07h-.87a2.77,2.77,0,0,1-.41-.12l-1.49,2.26a.9.9,0,0,1-.43-.05l-1.59.38c-.43-.15-1.16.23-1.21-.57,0-.48.39-.78.85-.88a4.28,4.28,0,0,0,1.38-.38l-.06-.34c.11-1.45-1.68-2.65-.55-4.23a6.84,6.84,0,0,1,2.52-.56c.58.43.42.91.11,1.41l-.24.23a.79.79,0,0,1,.15.25l0,.24a.67.67,0,0,0,.06.12.83.83,0,0,1,.07-.18,5.82,5.82,0,0,0,3.19-.44,1.42,1.42,0,0,0-.93-.59.84.84,0,0,1-.57.38c-1,.05-.89-.56-.91-1.12l-.06-.06a1.57,1.57,0,0,1-.24-.62v-.09l-1-.06-1.86-.24h0c-.17.41-.34.82-.5,1.24l-.65.24c-1.16,0-1.39,1-1.71,1.78,1.77.59.09,1.4.14,2.1l-.6.29c-.52.38-1,.05-1.43-.13-.48.8-.56,1.92-1.85,2s-1.28-1-1.63-1.76c-.12-.27-.6-.37-.92-.56l-2.06.13-.43-.17-.6.24c-1.52.38-.25-1.15-.93-1.35-.3.39-.13,1.13-.82,1.2-.11,0-.26-.47-.39-.73.27-.75,0-1.62.5-2.31h-.11c-.27-.55,0-1,.24-1.48-1.12,1-1.25,1.17-2.28.73a.25.25,0,0,1,0,.07c-.66.45-.88,1-.26,1.63,1,2-.61,1.44-1.48,1.41s-1.28-1-2.21-.88c-.06.15-.13.29-.2.44a2.67,2.67,0,0,1-.25,1.86l-.56.25.18-1.84c-.8-1.15-1,.39-1.57.34a.9.9,0,0,1-.74.67c-.34.34-.67.69-1,1-.37-.12-.66-.31-.68-.74l.33-.84a1.28,1.28,0,0,0,.27-.42,2,2,0,0,0-.27.42c-.89-1.49-1.71-.21-2.62.14-.27-.76.62-.92.66-1.45h0c-.22-.26-.43-.53-.64-.79l-.42-.15a1.55,1.55,0,0,1-.71,1.7c-1,.11-.31,2.47-2,1.71a1.29,1.29,0,0,1-.09.16c-.58.44-.94,0-1.38-.3-.81-.63-1-.17-1,.62-.06.12-.12.24-.17.36-1.4-.19-2.52-1.89-4.15-.74a.53.53,0,0,1-.81-.32h0c0-.69-.75-1.31-.19-2.05a3,3,0,0,0,.15-.42c-1.33-1.07-2,.21-2.81.83h0c-1.35.84-2.69,1.63-4-.12h0c-.41-1-3.45,1-2.16-1.91.06-.15.11-.3.17-.46h0L58,149.72a3.21,3.21,0,0,0-1,1.86,2,2,0,0,0,.59,1.18c.33.6.74,1.21,0,1.79l-3.72.38a3.48,3.48,0,0,1-2.52,0l.12-.28a1.1,1.1,0,0,1-.33-.12c-1.07-.71-.43-1.6-.27-2.45s.52-1.55,1.58-1.47l.17.08c0-.07.07-.15.11-.23a.85.85,0,0,0-.48-1.21.59.59,0,0,1,.31-.83l1.47.07.18-.41c.51-.38,1,.26,1.45.1l.39.1a1.87,1.87,0,0,1,1.92.32h0l.18-.39c.53-1.65,2.83-.44,3.37-2.08.39.32.26,2,1.34.52l-1-1.41.33-.82c1,.29,1.56.85,1.18,2a3.11,3.11,0,0,1-.25.38c-.28,1.06.74,1.31,1.18,1.91a2.31,2.31,0,0,1,.35-.18,2.23,2.23,0,0,1,.19-1.07,2,2,0,0,1,1-1h0c.47.09,1.13-.33,1.31.51.44.45-.41,2.59,1.48,1.14l1.91.27c-.2.82,0,.75.3.58a2.71,2.71,0,0,1,.13-.3,6.13,6.13,0,0,1,.87-1.09,1.77,1.77,0,0,1-.73.16,5.49,5.49,0,0,1-2.24-.24c.12-1.43-2.27-2.4-.77-4.1,1.62-1.22,3.47-1.06,5.32-.88h0l.79-.55a10.2,10.2,0,0,1,4,1.09c.9-.36,2.06-.24,2.59-1.33.62.08,1.18.69,1.87.21h0a5.24,5.24,0,0,1,1.63,0,.72.72,0,0,1,.3.27c1.14-.92,2.3-.64,3.46,0l.47-.4c.32-.54.86-.57,1.39-.61,1.25,0,2.53-.49,3.75.2a6.27,6.27,0,0,1,1.18.51c1.36.18,2.81-.09,4,.77.12-.2.38-.19.53-.34l.88-.53.76-.68c.29-.27.59-.57,1-.1-.16.52-.08.92.49,1.11h0c.19-.4.38-.8.58-1.19.89-.53,2,0,2.88-.71.91-.15.06-.63.17-.94-.17-.85-.38-1.71.38-2.42a1.69,1.69,0,0,1,.62-.21c1.31,0,1.22.85,1.07,1.75s-.28,1.95,1.24,1.7c.89-.24,1.43-1.2,2.44-1.19.46.18.52.59.58,1,0,.6.46.8.89,1a.81.81,0,0,1,.3.82h0c.79.14.74.86.92,1.41.45-.64,1.07-.54,1.83.2l.11,0a.91.91,0,0,1,.37.13c-.19-1-1.28-2.14.58-2.74a2,2,0,0,1,.54.06c.39-1.64,1.73-.91,2.77-.92l.16.06a.79.79,0,0,1,.57-.26,4,4,0,0,1,2.26.7h0c.41-.76.9-.4,1.39,0a.47.47,0,0,1,.07.35.91.91,0,0,1,.61,0l0,.11c.16,0,.19-.1.1-.24a3.08,3.08,0,0,1,.69-1.07,1.6,1.6,0,0,1,.49-.36c1.53.53,3.39.12,4.6,1.56a1.09,1.09,0,0,1,1-1.14,1,1,0,0,1,1.3,1h0v-.08c1-1.3,2.47,0,3.62-.54a1.18,1.18,0,0,1,1.1.24.39.39,0,0,1,.17-.46c.72,0,1.3.57,2,.51l.3.05.09,0a1.56,1.56,0,0,1,.14-.19c.68-.39,1.12-.2,1.35.53a2.93,2.93,0,0,1-.25,1.4,3.39,3.39,0,0,1-.5.89,2.53,2.53,0,0,1,.65.45,12.43,12.43,0,0,0,1.71,1.24,1.12,1.12,0,0,1,.19.24.6.6,0,0,1,.29-.49,1.11,1.11,0,0,1-.09-.19c.2-.89-.6-2.66,1.59-1.79,0,.05.1.1.15.15-.49-.9-2-1.5-.8-2.9a1.46,1.46,0,0,1,1.83.68,12.41,12.41,0,0,1,.75,1.39c0-.44.24-.75.85-.81a3.54,3.54,0,0,1,.89,2.9c1.31.32.16,1.2.1,1.83a.18.18,0,0,0-.07,0s0,.05,0,.07a.24.24,0,0,1,.19.23,1.32,1.32,0,0,0,0,.26.34.34,0,0,0,.39.2,2,2,0,0,1,.88-.18,1.42,1.42,0,0,1,.26-1.08,8.25,8.25,0,0,1,2.68-2,1.48,1.48,0,0,0,.51.4,1.8,1.8,0,0,1,.47-.27,1.76,1.76,0,0,1,.58-.25l.2.11c.75-.25,1.71.59,2.33-.36-.12-1.1.84-1.16,1.48-1.54l.24-.06c.38-1,.56-2.16,2.17-1.73a1.39,1.39,0,0,1-.59,1.64.66.66,0,0,1,.2.06.85.85,0,0,1,0,1.14,4.13,4.13,0,0,1,.92.23c.15-.28.5-.33.94-.29,1.22.76,2.35-.41,3.54-.21.87.3,2,.06,2.53,1.09a2.37,2.37,0,0,1-.15.32,8.41,8.41,0,0,1,5.2-1.38,2.32,2.32,0,0,0,1.16-.71c1.62-2.19,1.62-2.2,3.65-.18l.17.17.16-.07c-.18-.56.07-.82.61-.88a1,1,0,0,1,.68.66,2.37,2.37,0,0,1,.65-2.11,3.44,3.44,0,0,1,3.07.55,1.11,1.11,0,0,1,.32.89l0,0a1,1,0,0,1,.46.19,1.42,1.42,0,0,1,.5-.38c.26-.2.2-.47.18-.74a1.5,1.5,0,0,1,.41-1.1.9.9,0,0,1,.57-.2c1,.51,1.87,1.35,2.88,1.92a.92.92,0,0,1,.14-.32,4.06,4.06,0,0,1,1.93-.64c.91.13,1.62-.85,2.58-.48a12,12,0,0,1,2.18,1.1,1.54,1.54,0,0,1,.5-.28h0a2.47,2.47,0,0,1,.1-.29c.68-.46,1.2-1.2,2.13-1.23a1.78,1.78,0,0,1,.65.06c.51.3.93.63.75,1.18a8,8,0,0,1,1.1.9l0-.09-.09-.12a1.38,1.38,0,0,1,0-1.28,2.3,2.3,0,0,1,1.34-.54l0-.16.19-.2c.85-.22.85.76,1.36,1a.65.65,0,0,1,.19,0c.86-.75,1.35.22,2,.47l.09-.08a1.51,1.51,0,0,1,.3,0c.59-.9,1.55-1.2,1.94-.13s1,1,1.62.83c.31-2.27,1.82-1.47,3.12-1.23.84-.21,1.62-1.1,2.5.17.61.87,1.2-.57,1.93-.43a1,1,0,0,1,.78.47,1.47,1.47,0,0,1,.33.36l1,.16v0a1.68,1.68,0,0,1,.23-1.29,1.75,1.75,0,0,1,.46-.48,6.71,6.71,0,0,1,1.24-.42c1.33-.41,2.77-.19,4.08-.69,1.39.55,3.05,0,4.3,1.09a2,2,0,0,1-.09.48,3.13,3.13,0,0,1,2.66,0,2,2,0,0,1,2.6-.77c.56.35.52,1.28,1.33,1.39l.13.08.42-.05a3.09,3.09,0,0,1,1.7.49c1-1.19,2.38-1,3.71-.7h0a4.84,4.84,0,0,1-.41-2.37.54.54,0,0,1-.49-.08,3.78,3.78,0,0,1-.53-.73,2.07,2.07,0,0,1-.4-1.45,2.58,2.58,0,0,1,.55-1.14l0-.05a2.46,2.46,0,0,1-.74-1.07l-.67.61c-.46,0-.65.26-.83.59s-.54.71-1.08.53a.87.87,0,0,1-.63-1.22c-.63.11-.75.65-1,1.12a.75.75,0,0,1-.08.8,1.53,1.53,0,0,1-.22.16c0,1-.46.71-.9.43a1.68,1.68,0,0,1-.39.07c-.41-.46-1.07.6-1.43-.22.29-1.16.21-2.55,1.83-2.84a5.28,5.28,0,0,0,.75-.89,1.11,1.11,0,0,1,1.05-.5.78.78,0,0,1,.29.21,1,1,0,0,1,1.13.09,1,1,0,0,1-.13-.4,1.72,1.72,0,0,1,1.08-1.66h0a1.85,1.85,0,0,1,1.94,1.28,1.17,1.17,0,0,0,1.4-.4l-.15-.14c-.52-1.12-.49-1.21.49-1.23a3.41,3.41,0,0,0,1.86-.65c.88-.65,1.2-.08,1.05.84.16.4.32.81.47,1.21a1,1,0,0,0,.71.77,5.76,5.76,0,0,0-1.17,4c-.06.15-.12.29-.17.44-.67.39-1.34.78-2,1.18l-.08.21-.09.21c.06.68.11,1.37.17,2.06l.68.25a1.05,1.05,0,0,0,.53-.16,1.19,1.19,0,0,1,1.15.14l0,.05.09-.17a3.38,3.38,0,0,1,2.26-.17c.37.09.74.17,1.11.28a.67.67,0,0,1,.25.22l.07,0a2.84,2.84,0,0,1,1.23,0,1.44,1.44,0,0,1-.08-2.2l.09-.13s-.16-.05-.17,0c-.38.44-.66,1-1.34,1s-.66-1.18-1.63-.69c-.6.31-1.12-.23-1.28-.92a1.31,1.31,0,0,1,.12-.61,4.39,4.39,0,0,1,2-1.39,2.15,2.15,0,0,1,.71-.11.66.66,0,0,1,0-.24c-.77-.05-1.61.35-2.27-.39-.29-.58-.44-1.14.26-1.56a1.82,1.82,0,0,1,2.4-.52,1.76,1.76,0,0,1,2.46-.49,2.16,2.16,0,0,0,1.91.31,1.85,1.85,0,0,0,.25-.32,4.29,4.29,0,0,0,2.23.35c.69.95,2.62.31,2.65,2.09,1.37-.35,2.57-.54,3.65.88.69.91,2.14.28,3.16.83l.13,0a1.93,1.93,0,0,1,.24,0c.22-2.27,2.09-.43,3-1a11.79,11.79,0,0,0,.64,2.12,5.8,5.8,0,0,0,.6.13c.22-.06.5-.11.59-.31.67-1.56,1.51-1.65,2.61-.38a.93.93,0,0,0,.86.19l.4.06c1.14,0,1.27,1.1,1.93,1.63a1.85,1.85,0,0,1,.06.66c-.06.07-.1.15-.15.22a3.26,3.26,0,0,1,.59,2.66s0,.05,0,.07c0,.24.06.49.08.73.5.89,1.57.83,2.46,1.07.16-.24.31-.48.47-.71,1.38.33,2,2.05,3.62,2,.59.13,1.51-.46,1.6.73.35.45.69.9,1,1.34C290.86,146.54,288.75,148.17,289.42,149.3Zm-233.22,1a.77.77,0,0,1,0-.42,2.11,2.11,0,0,1,.2-.29c0-.24-.23-.33-.66-.17a2.09,2.09,0,0,1-1.71.16c-.36.21-.27.38-.12.54a1.56,1.56,0,0,1,.34.09,1.46,1.46,0,0,1,.53.45A1.66,1.66,0,0,1,56.2,150.28Zm169.91-4.63a1.07,1.07,0,0,0-1-.35C225.13,146.21,225.74,145.65,226.11,145.65Zm-2.34,10.75a6.91,6.91,0,0,1,.66,1.11c.38.6.83.28,1.26.09a1.12,1.12,0,0,1,.6,0h0a.69.69,0,0,1,.07-.34c.16-.27.34-.52.52-.77-.17-.21,0-.44.24-.69a.79.79,0,0,1-.4-.17s0-.06,0-.09c-1.1-.24-1.16.71-1.48,1.37-.82.37-.86-.32-1.07-.78A1.68,1.68,0,0,1,223.77,156.4Zm36.11,4.78c-.57.71-1.65.66-2.31,1.23a2.48,2.48,0,0,1,1.67-.15.74.74,0,0,1,.34.61,1.11,1.11,0,0,1,.35-.49l.13-.12c0-.55.13-1.1.07-1.65Zm3.37-.76a.91.91,0,0,0,.26-.13l-.12-.1A.74.74,0,0,1,263.25,160.42Zm-10.34-1.58a1,1,0,0,0,.56,0,.55.55,0,0,0,0-.56A4.44,4.44,0,0,1,252.91,158.84Zm-19.49,2.61a2.32,2.32,0,0,1-.64.75,1,1,0,0,1,.53.4C233.3,162.22,233.42,161.83,233.42,161.45Zm2.69.41a2,2,0,0,0,0,.34,1.46,1.46,0,0,1,.38-.41,1.84,1.84,0,0,1-.22-.17C236.28,161.78,236.22,161.85,236.11,161.86ZM141.6,156c0-.45-.32-.68-1-.67l0,0-.05,0a.41.41,0,0,1,.12.11,5.39,5.39,0,0,1,.23,1,5.05,5.05,0,0,1,.51-.28Zm-13-1.09a.16.16,0,0,0-.15.08.26.26,0,0,0,0,.15A2.2,2.2,0,0,1,128.56,154.88ZM93,151.94a3,3,0,0,0,.7-.34c.21-.17.46-.4.13-.66-.16-.14-.4,0-.58.11l-.1.06A1.29,1.29,0,0,1,93,151.94Zm41.54-2.38.14-.15c-.32-1.06-1.81-.17-2.33-.89h0l-1.2.45c-1.27,0-2.32-.87-3.56-1-.84-.34-1.22.47-1.82.73a.55.55,0,0,1-.77-.14c0,.42-.29.76-.38,1.15.12-.37.47-.51,1-.52.69.31.64.76.46,1.24l.14.16a2.93,2.93,0,0,1,.6,1.43,3.68,3.68,0,0,1,2,.29,3.62,3.62,0,0,1,1.93-2.08C132.18,150.8,133.28,149.6,134.57,149.56Zm-12.91,1.65c0-.49.35-.92.37-1.43a3.72,3.72,0,0,1,.08-.57c.11-.58-.46-.83-.61-1.28v0l-1.6-.58a3.48,3.48,0,0,0-.46,2.27,6.46,6.46,0,0,1,.16,2,2.14,2.14,0,0,0,.66.12h0a1,1,0,0,1,.09-.68c.2-.18.43-.53.59-.5.46.1.33.47.26.79,0,0,0-.05.08-.06A1.37,1.37,0,0,1,121.66,151.21Zm3-1.46a.69.69,0,0,0,0,.2A.67.67,0,0,1,124.64,149.75Zm-3.28-7.59,0,0,0,0Zm-.17.61h0a.24.24,0,0,1,0-.08Zm-8.66,5.47.11.08a6.3,6.3,0,0,1-.26,2.48c.73-.7,1.8-1.24,1.11-2.62A.9.9,0,0,1,112.53,148.24Zm21.83-4.52a.51.51,0,0,0,.45.11c-.08-.15-.21-.28-.3-.42A.26.26,0,0,1,134.36,143.72Zm7.18,4.91h-.16a1.69,1.69,0,0,1,.15.43A2.14,2.14,0,0,0,141.54,148.63Zm-46.95-1.69a1.6,1.6,0,0,1,.75-.05,2.74,2.74,0,0,1-.18-.75A2,2,0,0,0,94.59,146.94Zm6.68,3.14h0v0Zm-2.06.12a.71.71,0,0,0-.09-.07l.09.07Zm-1.59-4.61.08,0a.89.89,0,0,1-.54.85,9.4,9.4,0,0,1,2-.38c.61.54.32,1.2.23,1.83a4.64,4.64,0,0,0-.11.51l.91.69c.89-1.43,1.61-2.84-.28-4.08v0h0v0C99.37,146.2,98.28,145,97.62,145.59Zm2.94,6.2h0Zm4-2.36a2.58,2.58,0,0,1-.08-.26.73.73,0,0,1,.3-.55,1,1,0,0,1-.63-.05c.14.28.25.59.41.86Zm8.68,4.37.29-.09a.31.31,0,0,1-.17-.13Zm18.6.94h0Zm35.86-8.32a.13.13,0,0,1,0,.06c.05.44-.74,1,.23,1.27a1.84,1.84,0,0,0,.25-.09C168.33,147.1,168.45,146.57,167.67,146.42Zm0,5.24-.14.25.16.11A.45.45,0,0,0,167.67,151.66Zm-13.11-.86a.94.94,0,0,1,.09.69l.31-.09h0c0-.3.11-.6.11-.9Zm-7.92-.71a3.72,3.72,0,0,0,.38.44l.13-.07A3.68,3.68,0,0,1,146.64,150.09Zm1.44,3.87c0,.6,0,1.2,0,1.8.2.06.39.11.59.15a.76.76,0,0,1,.36-.52,1.42,1.42,0,0,1-.33-1.43h0a1,1,0,0,1-.55-.14h0Zm28.47-9.71h0Zm42.73,16.13-.05,0h.06Zm5.44,1.34a1.55,1.55,0,0,1,.48,0,1.05,1.05,0,0,1,.87-1,.65.65,0,0,1-.11-.12l-.08-.12-.26-.21a.37.37,0,0,0-.36.1A2.86,2.86,0,0,0,224.72,161.72Zm-22.63-1.93h0a1.29,1.29,0,0,1,0,.25A.7.7,0,0,0,202.09,159.79Zm-3.8-5.45a.27.27,0,0,1,0-.13,5.81,5.81,0,0,1-1.12.69h-.08a1.28,1.28,0,0,1,.73.49A.39.39,0,0,1,198,155h.07l.24-.61Zm5.89,8.38a2.21,2.21,0,0,1,.51-.18.9.9,0,0,1-.08-.23C204.47,162.45,204.27,162.56,204.18,162.72Zm9.4-1.71a1.1,1.1,0,0,1,.14.09.72.72,0,0,0-.23-.4A.59.59,0,0,1,213.58,161Zm-33.17-11.35c.12.25.25.5.48.42s-.15-.43-.21-.68a1.63,1.63,0,0,1-.09-.19A.54.54,0,0,1,180.41,149.66Zm-2.54.6.24,0-.13-.14h0A.34.34,0,0,1,177.87,150.26Zm9.71,9.58.08,0-.06,0S187.59,159.83,187.58,159.84Zm2.43-2.57a2.21,2.21,0,0,1-.61-.44l-.1.11c-.35.4-.64.84-1,1.27l.47-.08a1.64,1.64,0,0,0,.29-.3A2.35,2.35,0,0,1,190,157.27Zm23,5.7s0,0,0,.06L213,163Zm16.93-.43a1.08,1.08,0,0,1,.23-.66c-.37-.41-.65-1.08-1.37-.78-.88.36-.4,1.32-.69,2-.13.3,0,.35.27.35a1.36,1.36,0,0,0,.36-.3A2.25,2.25,0,0,1,229.89,162.54Zm-19-14.47,0,0,0,.09-.09.21-2.3-.34c-1.25-.12-1.15-.79-1-1.48a1.62,1.62,0,0,1-1.53.37,7.67,7.67,0,0,0-3.58-.43,3.29,3.29,0,0,0-.44-.05c-.4.19-.53.62-.69,1-.62,1.08-1.37.33-2.08.15l0,0-.22.11a1.85,1.85,0,0,1-1.27.07,1.45,1.45,0,0,1-.76-1c0-.09-.05-.18-.08-.27-.73-.21-1.36-.29-1.14,1.09.06.33-.38.62-.77.71-1.11.18-1-.73-1.24-1.31a1.41,1.41,0,0,1-.77.49l-.12.05-.15.33a1.12,1.12,0,0,1-1.73-.71h0l-.49-.2c-.35-.42.45-1.56-.87-1.35a.86.86,0,0,1-.79.14l-.08.08a4.36,4.36,0,0,1-.74.68,1.39,1.39,0,0,1-.72.19.62.62,0,0,1,.2.67,1,1,0,0,1,.65.6,1.83,1.83,0,0,1,.3.18l.09-.07c1,.13,1.25.82,1.38,1.64.21,1.39,1.38.74,2.13,1,1.38,0,2.9,1.76,4.12-.32a2,2,0,0,1,1.07-1.13,1.3,1.3,0,0,1,.62,0c1.06.62.91,1.93,1.56,2.78,0-.39-.19-1,.32-.91s.35.53.21.92c.11,0,.22,0,.33,0a7.93,7.93,0,0,1,1.79.7.54.54,0,0,1,.27-.31c1,.19,1.49,1.1,2.12,1.79a.82.82,0,0,1,.49.05.78.78,0,0,0,.14,0l.59-.45a.34.34,0,0,1-.06-.06,1.34,1.34,0,0,1,.33-1.28c1-.88,2.3,0,3.33-.6a5.32,5.32,0,0,1,2.17.55l.2.24.45,1.73.24-.07c.36-.13.87-.41,1.09-.19,1,1.08,1.16-.24,1.65-.57l.14,0-.3-1.46c.56-.56.91-1.28,1.48-1.84a1.12,1.12,0,0,1,.6-.16,1.2,1.2,0,0,1,1.1,1.33,12.12,12.12,0,0,1-.18,1.46h0a4.2,4.2,0,0,1,2.38-2.19c.84.24,1.53.26,1.32-1a2.23,2.23,0,0,1,0-1.2l-.39.15-.38-.18a.66.66,0,0,1,0-.62c-.45.21-1.05.29-1.48.51h0l-1.24-.52c-.05-.31-.1-.62-.14-.93-1.46-.45-3-.27-4.48-.6S211.94,147.76,210.92,148.07Zm-26.4-2.56a.73.73,0,0,1-.08.45,1.59,1.59,0,0,0-.51,2.15c0-.09.07-.19.11-.28-.12-.75.3-1,1-1.1.4.47.69,1,.25,1.56s-.84.17-1.27,0a1,1,0,0,1-.23.76.73.73,0,0,0-.13.09l.28.15c-.07.15-.15.3-.23.46a1.45,1.45,0,0,1,.23.19,8.34,8.34,0,0,1,1.76,1.8,2.74,2.74,0,0,1,1.34-1.1,2.89,2.89,0,0,1,.9-.3,1.68,1.68,0,0,1-.27-1.09c-.71-.31-1.76-.28-1.52-1.58.3-.74-.77-1.74.45-2.31.29-.71-.08-.83-.67-.74ZM147.15,143a3.47,3.47,0,0,1,.4.45,1.51,1.51,0,0,1,.14-.35A1.24,1.24,0,0,1,147.15,143Zm-3.42,2.2-.07,0a.52.52,0,0,1,0,.11ZM132,141.24a.68.68,0,0,1,0,.14.93.93,0,0,1-.29.6,6.31,6.31,0,0,1,.44,1.54,10.51,10.51,0,0,0,.46-2.31Zm-33,3,.34.2c0-.05,0-.09,0-.13ZM75,150.8a.43.43,0,0,0,0,.07s0-.07,0-.12Zm3-3.37s0,0,0-.05l-.1-.13A.77.77,0,0,0,77.92,147.43Zm2.26-3.06h0v0h0Zm-9.34,8.81h0l0,0A0,0,0,0,1,70.84,153.18Zm-8.36-4.13a1.93,1.93,0,0,1,0,.24,1.41,1.41,0,0,1,.5,0A2.94,2.94,0,0,0,62.48,149.05ZM59.26,151a1.82,1.82,0,0,1,.57,0c.35,0,.76.45,1.08,0a1.15,1.15,0,0,1-.71-.53c-.08-.11-.15-.24-.22-.36A3.44,3.44,0,0,1,59.26,151Zm6.24-.09a2.44,2.44,0,0,0-.41.24c.13,0,.22.09.24.17A.45.45,0,0,0,65.5,150.86Zm14.85.31c0-.17-.09-.32-.39-.37C80,151,80.17,151.07,80.35,151.17ZM82.43,148a.82.82,0,0,0,.28-.05c.23-.6.34-1.28,1.08-1.55a.56.56,0,0,1,.32.47,2,2,0,0,1,.34-.05,1.37,1.37,0,0,1,.68-1.35h.11a2.71,2.71,0,0,0,.25-1.21l0,0c-.35.13-.71.21-1.07.31a2.42,2.42,0,0,0-.36.1,1.44,1.44,0,0,1-1.06.71,2.36,2.36,0,0,1-.34.36,1.15,1.15,0,0,1-1.19.67,5.55,5.55,0,0,0-.6.29l-.42.38a1.65,1.65,0,0,0-.33.51.91.91,0,0,0,.15.27l.9.37.15-.07A3,3,0,0,1,82.43,148Zm8.44.17c-.45-.53-1-1-1-1.81A2.79,2.79,0,0,1,90,146h0c-1.12-1.32-2.14-1.19-3.08.19l-.3.68a12.1,12.1,0,0,0,1.22.31l0,0a1.19,1.19,0,0,1,1.42.49c.24.24.4.49.29.75A2,2,0,0,1,90.87,148.16Zm16.4-1.22a3.05,3.05,0,0,1,0-.52A.73.73,0,0,0,107.27,146.94Zm15,5.89,0,0v0S122.32,152.81,122.3,152.83Zm21.85,3.38a2.82,2.82,0,0,1-.65-1.91c0-.7-.57-1.59.68-1.82a1.86,1.86,0,0,1,.33,0c.63-.34,1.14-.39,1.23.56a6.62,6.62,0,0,1,.7.59,2.85,2.85,0,0,1,.47.51.63.63,0,0,1,.14-.24c.26-.44.48-.87.14-1.38.16-.4.32-.79.47-1.18l0,0a.91.91,0,0,1-.81-.35s0-.05,0-.07l-.47.23a1.15,1.15,0,0,1-.15.61c-1.39.83-2.35.22-3.17-.85a1.31,1.31,0,0,1,.06.27c0,.47-.13.94-.14,1.41s0,.75.05,1.12a3.54,3.54,0,0,1-.11,1.41.78.78,0,0,1-.28.29h.09A3.56,3.56,0,0,1,144.15,156.21Zm19.15.47c-.7,0-1.41-.29-2.11,0a.89.89,0,0,1-.61-.47.73.73,0,0,0-.62,1l-.15.05c.49-.12.86-.91,1.5-.26l.37.41a2.3,2.3,0,0,0,.28-.06A2.5,2.5,0,0,0,163.3,156.68Zm8.46,2a1.66,1.66,0,0,1,.48.29,1.09,1.09,0,0,0-.24-1.16.27.27,0,0,1-.07.08c-.46.2-1.07.11-1.45.48C170.91,158.49,171.33,158.62,171.76,158.73Zm4.06-8.64c.18-.11.29.1.41.3l.2-.08a4.59,4.59,0,0,1-.89-1.86,3.44,3.44,0,0,1,0-.45c-.59-.12-1.11-.45-1.7-.56-.48-.38-1.15-.41-1.65-.74A.94.94,0,0,0,173,148a.93.93,0,0,1,.38.45c1.49,2.25-.63,2.47-1.81,3.22a3.77,3.77,0,0,0,1.75.51,4.14,4.14,0,0,1,.3-.5C174.21,151,174.53,149.83,175.82,150.09Zm13.93,10.61v0Zm25.5,1.73a.82.82,0,0,1,0-.27,1.36,1.36,0,0,1,.1-.21c-.19-.41-.54-.47-1-.19,0,0,0,.08.05.13a.76.76,0,0,1-.24.59A3.89,3.89,0,0,1,215.25,162.43Zm16.47-1c-.18-.38.09-.91-.38-1.18a3.82,3.82,0,0,1-1,1.45A1.4,1.4,0,0,1,231.72,161.44Zm8.79.63a8.29,8.29,0,0,1,1.72.32,3.94,3.94,0,0,1,1,.4l.67.25a.76.76,0,0,0,.08-.11.79.79,0,0,0-.21-.67c-1.28,0-2.17-.79-3.13-1.43-.6.79-1.41.68-2.21.59a5.6,5.6,0,0,1,.37,1l0,0A2.25,2.25,0,0,1,240.51,162.07Zm27.76,1.46a1.22,1.22,0,0,1,0-.78.51.51,0,0,1-.49.21,2.24,2.24,0,0,1,0,.63A2.63,2.63,0,0,1,268.27,163.53Zm-37.18-7.34c.37,0,.7.29,1.06.42a1.28,1.28,0,0,1-.38-1.36C231.46,155.49,231.42,156,231.09,156.19ZM266.17,139c.35.12.64.4,1.05.32a5.9,5.9,0,0,0-2-.62.42.42,0,0,1-.22.25A4.27,4.27,0,0,1,266.17,139Zm-2.77-2.29.08.05v-.06Zm-7,1.75a1.52,1.52,0,0,0,.92.28C257.13,138.31,257,137.84,256.36,138.5Zm-1.08-.33a1.57,1.57,0,0,1-.06-.6c-.09.24-.19.47-.3.71a1.36,1.36,0,0,1,.28-.11ZM255,135.4a1.94,1.94,0,0,1,.42,1.62,4.32,4.32,0,0,1,.71-1,.83.83,0,0,0,.21-1.06.56.56,0,0,1,0-.18A2,2,0,0,1,255,135.4Zm-25,12.43a.86.86,0,0,0-.19-1.38c0,.59-.64.91-1.18,1.27a.87.87,0,0,0,.46-.08C229.35,147.57,229.68,147.53,229.92,147.83Zm2.84-5.79c-.55-.12-.59-.58-.7-1a2,2,0,0,0-.13.74,2,2,0,0,1,.23.47,2,2,0,0,1,0,.42c.2,0,.33-.22.42-.49A2,2,0,0,1,232.76,142Zm2.44,4.57a1.16,1.16,0,0,1,.08-.32,3.11,3.11,0,0,1-.86,0l.15.1a3,3,0,0,1,.48.16Zm10.7-4.12a.78.78,0,0,0-.37,0A2.26,2.26,0,0,0,245.9,142.49Zm20.18,4.06h-.19a1.09,1.09,0,0,1-.22.28A1.34,1.34,0,0,0,266.08,146.55Zm2.34,1.2a1.74,1.74,0,0,1-.11-.18l0,.12ZM117.3,157.21ZM51.68,29.68a1,1,0,0,0,1.16.14l.25,0,0,.07c.38.48.68.07,1-.07.42-1.34.68-2.59-1.4-2.57-.19.34-.39.67-.58,1-.45.06-.78.29-.64,1.12-.07.11-.13.22-.19.33A.5.5,0,0,0,51.68,29.68ZM48.13,99.89c-.78.06-.77.81-.83,1.42a3,3,0,0,0,.61,1.69,1.53,1.53,0,0,0,1.91-1.1c.41,0,.86-.65,1.2.25a1,1,0,0,0,1.52.36,5.16,5.16,0,0,0,1.13-1.41c.64-1.45.23-2-1.56-2.07a1.19,1.19,0,0,0-1,.94c-.44.64-.89,1.28-1.34,1.91-.57,0-1.09,0-1.06-.81C48.76,100.54,48.94,99.84,48.13,99.89Zm8.51,25.25c-.56.16-.56.5-.32.93l1.66.58c.39-.25.85-.43,1-.94a17.84,17.84,0,0,0,7.42,0c.87-.54.87-1.14.11-1.79a2.15,2.15,0,0,0-1.39-.16,8,8,0,0,1-5.27-.25c-.89.92-1-.23-1.46-.52s-1.08-.76-1.63-.14a.88.88,0,0,0,.24,1.51h0C56.88,124.61,56.76,124.87,56.64,125.14Zm4.86-2a.85.85,0,0,0,.52-.8c-.11-.47-.28-.87-.86-.87l-.63.27c-.1.29-.2.57-.31.86A1.19,1.19,0,0,0,61.5,123.18Zm-7.1-.06c-.4-.2-.41.22-.6.47,0,.15,0,.34.05.52a2.68,2.68,0,0,0,.66-.46A.56.56,0,0,0,54.4,123.12ZM46,113.86c0-.45.63-1.13-.09-1.29s-.66.75-.92,1.22l.79.35C45.8,114.05,45.88,114,46,113.86Zm209.62,39.48.56-1.17c.16-.15.28-.34.09-.5-.34-.27-.63-.06-.88.19l-.64.23C254.34,153,254.9,153.19,255.57,153.34ZM47.72,148.51c.12-1.08-1.13-1-1.44-1.73-.45-1.06-1.46-.47-2.17-.75-.67.53-1.53,1-.29,1.85a3.88,3.88,0,0,0,1.66,1.31C46.44,149.66,47.33,149.91,47.72,148.51Zm-6.51,1.31c-.53.55-.61,1.05.15,1.46l1-1.09q.33-.12.12-.39C42,149.16,41.63,149.38,41.21,149.82Zm31.67-26.44a9.7,9.7,0,0,1-2.85-.62c-.63-.3-1,.22-1.26.66-.55.83.34.76.68,1a3.67,3.67,0,0,0-.09.43c.21.2.28.71.76.39a3.5,3.5,0,0,0,2.81-.88.72.72,0,0,0,.47-.78A.43.43,0,0,0,72.88,123.38ZM72,128c.41.1.86.51,1.23.09s0-.82-.27-1.16C72.7,127.4,71.7,127.15,72,128Zm-4,7.36c0-.38,0-.77,0-1.16l0-.07c0-.1.06-.2.1-.3.12-1.83-.89-.43-1.39-.48a1,1,0,0,0-.4-.19l-.46.21-.37-.22a5.12,5.12,0,0,1-2.37-.51,1,1,0,0,0-.17.11l-.63-.72c-.18.41-.37.82-.55,1.22l-.88-.32-1.41-.1c-.48-.08-.86-.66-1.39-.33-.08,0,.11.53.18.81-.53.59,0,.92.3,1.29l-.55.2a1.55,1.55,0,0,0-.29-.14,1.42,1.42,0,0,0-.46-.06c.05-.19,0-.33-.29-.41-.49-.3-.3-1.31-1.15-1.18s-.73.86-1,1.38h0c-.08.15-.17.29-.25.43a2.61,2.61,0,0,1-1.09,1.53,1.55,1.55,0,0,0,1.11,1.47.81.81,0,0,0,.05.53c.61.26,1.17.79,1.92.36l1.9-.77a1.09,1.09,0,0,0-.08-.31,1.15,1.15,0,0,0,.17-.14l1.84.16a2.86,2.86,0,0,0,1.17-1.46.76.76,0,0,0,.27-.52,1.55,1.55,0,0,0,.79-2.06h0l.07-.19,0-.1c.34,1.11-.51,2.28.06,3.38,0,.14-.08.27-.13.41l1.23.51c.64-.3-.09-2.24,1.57-1.31.59.57,1-.36,1.49-.27-.14.07-.16.2-.06.38C68.38,137.14,67.42,135.52,68,135.38Zm180.76,17.69q.3-.12.6-.21c.38-1.23-.66-1.19-1.32-1.49C247.45,152.28,247.86,152.78,248.75,153.07Zm-191.6-7.24c.44.12,1,.34,1.17-.22.1-.37-.5-.45-.82-.61Zm-12.87,5.65.25.61,1.41-.89c-.11-.54-.23-1.09-.34-1.64C44.64,149.84,44.7,150.83,44.28,151.48ZM255,148.32c-.76-.4-1.29,0-1.6.73l.86.42.61-.23C255,148.93,255.56,148.6,255,148.32ZM76.76,128.44l.36-.8c-.15-.85-.79-.5-1.28-.52C75.5,128,76.11,128.25,76.76,128.44Zm.91-4.45a.6.6,0,0,0-.84-.43,2.6,2.6,0,0,1-.21.36l-.3.87,1-.12A.56.56,0,0,0,77.67,124Zm-2.91-.33h0c-.12.43-.31.88.17,1.21,0,0,.29-.07.34-.16C75.55,124.16,75.17,123.9,74.76,123.66ZM53.85,103l1.35-.89a2.63,2.63,0,0,0,0-2.48,1,1,0,0,0-.58,1.24C54.4,101.59,53.49,102.06,53.85,103Zm-2.76,45.56c-.3-.71-1.17-.56-1.86-.47,0,.12-.1.24-.16.36a1.68,1.68,0,0,1-.75,1.72l-.58.29c-.65.06-.76.59-.92,1.06,1.1,1.33,2.15,1.72,3.06-.18,0-.16.1-.31.16-.46C50.72,150.26,51.52,149.57,51.09,148.57Zm2.69-3.14-.21.47c.17.57.1,1.42,1.14.93l.09-1.45-.83-.33Zm-4-32.55c.17-.46,1.09-.31.89-1.23-1.34.26-2.8.07-3.54,1.63C48.11,113.83,49,113.92,49.78,112.88ZM52.7,112c-.21-.4-.61-.24-.94-.28a1,1,0,0,0,.08,1,1.25,1.25,0,0,0,.43.07C52.49,112.55,52.94,112.41,52.7,112Zm20.89,24.12c.24-1.12,1.58.44,1.72-.67.18-1.37-1.19-.79-1.75-1.25s-1-.72-1.45-1.07a.83.83,0,0,0,0-.54v0A5.12,5.12,0,0,0,69,135.26c.05.62.23,1.15.93,1.3l1.22-.42a.37.37,0,0,0,.27-.42h0C72.15,135.6,72.76,136.62,73.59,136.07Zm19.9,20.64c.45.52.92.2,1.2-.35l-.67-.78C93.42,155.76,93.05,156.19,93.49,156.71Zm145.83-7.66c-.11.58.36.75.74,1h0c.12-.45.23-.91-.38-1.09A.45.45,0,0,0,239.32,149.05Zm6.78-1.56c-.3.08-.64.3-.47.57.44.75,1.19.67,1.93.53,0-.41-.33-.58-.64-.75Zm-2,1.12.72-1.62h0c-.36-.26-.58-.2-.63.26C243.75,147.67,243.38,148.11,244.08,148.61Zm-161.6-12.3,1.18-.52c.72-.31.81-.85.55-1.52a1.64,1.64,0,0,0-.59-.58c.47-.67.11-1.31-.14-1.95a.9.9,0,0,0-.53-.31c-.44.09-.81.26-.82.79l-.6,1.72a1,1,0,0,0,0,1,3,3,0,0,1,.4.2A.77.77,0,0,0,82.48,136.31Zm49.08,19.33-.42-.14c.05.15.1.3.16.46l.82,1c.11-.16.33-.32.33-.48C132.46,155.92,132,155.79,131.56,155.64ZM235,53.59ZM222.29,38.4a2.17,2.17,0,0,0,0,2.45,1.38,1.38,0,0,0,1.64-.32c-.09-.2-.18-.4-.26-.61C222.78,39.78,222.58,39.05,222.29,38.4Zm-10.8,114.29Zm1.85-1.75c-.11-.81.08-1.11.84-1.13a1.07,1.07,0,0,0,.51-1.28.71.71,0,0,0-.34-.4c.09-.71-.24-1.3-.95-1.2s.07.63,0,1a.84.84,0,0,0-.51.29,7.27,7.27,0,0,0-1.44,4.46C212.79,152.82,213.5,152.2,213.34,150.94ZM77,120.59c-.33-2.38-1.58,0-2.29-.44h0c.7.5-.19,1.93,1.18,2Zm4.5,3.89,0-1c-.36-.22-.52-.83-1-.68s-.21.77-.38,1.15C80.2,125,80.69,125.12,81.5,124.48ZM62.88,105.27c.2-.06.27-.18.21-.37l.07-.22.11-.2c0-.28.17-.71-.17-.73-.74,0-.82.7-1.1,1.19C62.12,105.52,62.56,105.23,62.88,105.27Zm140-66.94-.57.28c-.8.4-.42.91-.14,1.42s1,1,1.09.79C203.52,40,203.81,39,202.84,38.33ZM157.13,140.62c-.42.87.17,1.18.85,1.43.21-.57.43-1.13.65-1.69C158.07,140.14,157.5,139.84,157.13,140.62Zm6.44-1.28a1.8,1.8,0,0,0,.52,1.28c.63.17,1.33.26,1.51-.52s-.61-1.1-1.23-1.37C163.93,138.71,163.61,138.84,163.57,139.34Zm-70.76-7.48a3,3,0,0,1-1.14-.93c-1.11-.63-1.77.14-2.47.78a1.51,1.51,0,0,0-.12.26.48.48,0,0,0-.34-.11,1.67,1.67,0,0,0-.51.27,3.17,3.17,0,0,1-1.62.57c-.47.18-1.06.23-1,1-1,1.4-.14,2,1,1.95a7.19,7.19,0,0,1,2,.25c.07-.11.13-.22.19-.33a7.13,7.13,0,0,1,4.46-1.15c.33-.34,1.44.42,1.12-.8a2.38,2.38,0,0,0-.34-.49A4.65,4.65,0,0,0,92.81,131.86ZM233.57,103c-.33.6-.52,1.18.29,1.57.12-.27.25-.55.37-.83A.83.83,0,0,0,233.57,103Zm-1.71,1.74a1,1,0,0,0-.12-1c-.73-.11-1.25.1-1.37.9C230.85,104.79,231.34,105.07,231.86,104.7Zm-25.41-33-.76-.36-.48-.11c-1,.16-1.45.66-1.2,1.68h0c-.15.37-.3.74-.46,1.11a1.48,1.48,0,0,1,.54.24c-.28.65-.44,1.34.32,1.87.35.19.82.33.87-.19l0-.21v0l.54-1.25-.09-1C205.87,72.84,207.07,72.62,206.45,71.71ZM232,132.27c.69-.52,1.21.42,1.87.22a2.59,2.59,0,0,0,.4.09c.15-1.33,1-1.7,2.18-1.52l.78-.7c.06-.15.11-.3.16-.45l.58-.2.08.14a.92.92,0,0,0,.89-.11,2.73,2.73,0,0,0,1.05-1.25,1.64,1.64,0,0,0,0-1,.94.94,0,0,0-.76-.75c-.25.65-.94.55-1.41.83-1-.1-1.4.67-2,1.22a6.09,6.09,0,0,0-.81.22c-.84,0-2.45,1.1-1.77-1.2.32-.19.6-.77,1.05-.15,1.71-1.9-.65-1.38-1.16-2a6,6,0,0,0-.94-.74,1,1,0,0,0-.89,0,1,1,0,0,0-.24.56v0l-.46.2h0a1,1,0,0,0-.37-.19l-.61.21c-.83,1.1-.22,1.25.52,1.33a1.43,1.43,0,0,0,.19.37c-.44.12-.67.6-1.25.81.57-.91.48-1.53-.37-1.94l-.3-.1c-.38-.33-.61-1-1.33-.52-.37.2-.19.59-.3.87s-.13.27-.19.4l-1,.07-1.28-.52.12-.39a3.43,3.43,0,0,0-.33-.24.72.72,0,0,0-.91,0,1.54,1.54,0,0,0-.75,1l-.07,0a1.4,1.4,0,0,0-.69.58c-.19.42.06.8.12,1.19a2,2,0,0,0,1,1.28,1.11,1.11,0,0,0-.28.42.81.81,0,0,1,0,.16c-.14.12-.28.24-.28-.22a1.05,1.05,0,0,0-1.18-1.19c-1.19.5-3.23.17-2.63,2.41-.32-.3-.67-.66-.75-.6a.88.88,0,0,0-.21,1.28v.05c.27.42.29,1.14,1.1.94l.39.1c.17-.35.33-.71.49-1.06.33-.08.81-.4.5.44a1.29,1.29,0,0,0-.09,1.05c2,1.28,2.4-.6,3.18-1.68l.88.31,1.19-.45c.33-.14.65-.33,1-.07l.44.2a2.88,2.88,0,0,0,2.06-.15c.47.16.94.44,1.45.08a3.65,3.65,0,0,1,.41.18h0c-.6,1.42.93,1.65,1.38,2.49l.26-.31c0-.68-.49-1.31-.16-2ZM208.67,73.68c-.1.28-.21.57-.31.86.14,0,.27.12.41.18l.59-.28c0-.48.07-1,.11-1.43C209,73,208.84,73.35,208.67,73.68Zm-83.33,62.94a1.76,1.76,0,0,1-.23.37c-.21,0-.48,0-.54.33a1.18,1.18,0,0,0,.31,1.51c.4-.65,1.54-.72,1.47-1.72C126.3,136.49,125.78,136.58,125.34,136.62Zm-6.34.87c-.67.35-1,.89-.13,1.45l.8-.7C119.69,137.76,119.94,137,119,137.49Zm108.34-37.6-.91,1c.66.42,1.48.63,1.83,1.47.67,1.55.81.17,1.12-.21a1.81,1.81,0,0,0,1.11-1.55,3,3,0,0,1,.19-.41C229.66,99.26,228.35,101,227.34,99.89Zm-9.24,5.78a1.16,1.16,0,0,0,.51.88c.8.41,1.33,0,1.79-.6a2.18,2.18,0,0,0,.51-1.24,4.1,4.1,0,0,0,1.23-2l-.86-.42s0-.07-.11-.13a.25.25,0,0,0-.29,0c-.5.3-.77.13-.86-.41h0c.49-.7.18-1.54.42-2.28-1.27-.73-3.76.77-3.95,2.37.26,1.59.31,1.61,2.24.88a5.75,5.75,0,0,1-.36,1.58A3.8,3.8,0,0,0,218.1,105.67Zm4.74,3.78a3.07,3.07,0,0,0,1.17-1.51l-.24-.54c-.52.19-1-.23-1.48-.17C221.87,108.12,221.75,108.94,222.84,109.45ZM217.38,129c1.08-1.1,2.48-.52,3.73-.77.45-.76-.23-1-.64-1.34a4.85,4.85,0,0,0-.61-.29c-.88-.19-1.3-1-2-1.44-.35,0-.64,0-.66.45s.07.68.11,1C217.84,127.36,216.69,128.15,217.38,129Zm-.89-1.67a1.46,1.46,0,0,0-1.44.9C215.74,128.26,216.77,128.85,216.49,127.32Zm-.45,2.3-.54,1.28C216.35,130.75,217.19,130.6,216,129.62Zm-3.41-24.37c.18-.47.49-.94.1-1.46C212.26,104.25,211.53,104.69,212.63,105.25Zm41.54-73.83c-.5,0-1.15-.34-1.2.46a1.46,1.46,0,0,0,1.29,1.61c.66.11,1.12-.38,1.64-.67s1-.49,1.59-.71a7.08,7.08,0,0,0,.07,1.84l0,0h0l0,0c-.68.46-1.25,1.07-.35,1.73s1.31-.05,1.51-.88h0a.78.78,0,0,0,0-.16l.22.15a2.27,2.27,0,0,0,1.11-.84c.23-.23.44-.48.81-.43.52.52.31,1.59,1.31,1.75,1.83-.43,1.08-2,1.35-3.09.24-2.89,0-3.22-2.4-3.74l-1-.19c-.83,0-1.41.24-1.09,1.25l.1.09c-.74.7-.78.6-1.3-1.23-1.14-.51-1.08.47-1.34,1.07C256,30.42,255.37,31.33,254.17,31.42Zm-3.69-10.28a2.2,2.2,0,0,0,1.32.95c.35.07.61-.18.92-.27,1.18-.43,2.2-1,2.07-2.5s-1.52.1-1.91-.8c0-.1-.26-.12-.4-.18l-2.08,1.22A1.64,1.64,0,0,0,250.48,21.14ZM206.09,76.88c1-.28,1.56-.73.71-1.75C206.57,75.71,206.33,76.29,206.09,76.88Zm44.36-44.15a.9.9,0,0,0-.88.51c.14.3.28.61.41.92a1,1,0,0,0,.47.88c.41-.52.81-1.07,1.58-.58a3.35,3.35,0,0,0,1.6.15c.06.2.13.39.2.59a2.54,2.54,0,0,0,2-1.31C253.91,34.26,252.39,32.5,250.45,32.73ZM242,27.13ZM108.11,17.06c-1,.48-1.68-1.43-2.69-.25a4.78,4.78,0,0,1,2,.81C107.93,17.93,108.2,17.67,108.11,17.06Zm-3.88.58c-1.9-2.21-3,.38-4.51.72A7.89,7.89,0,0,0,104.23,17.64Zm48.25,2.84a2.14,2.14,0,0,0,.4.2h0c.49-1.14-.3-1.5-1.14-1.68a.79.79,0,0,0-.87.83C151,20.86,152,20.12,152.48,20.48Zm-15-1.38a1.52,1.52,0,0,0,.35-2l-.92.42C136.41,18.31,136.84,18.74,137.45,19.1ZM6.67,50.73l-.45-.88L6,50.09c-.7.44-1.35.89-.72,1.85C6,51.92,6.61,51.63,6.67,50.73Zm8.74,20.12c-1.38,2.23-1.17,3,.88,3.48.09.77-.5,1.74.65,2.21,1-.81,0-1.79.24-2.67-.14-.62.87-1,.36-1.69a1.42,1.42,0,0,1-.36-.58c.35.06.24.49.5.61.67.38,1.07.21,1.14-.59.43-1.31-.51-2.13-1.12-3.06C17,69.41,16.57,70.48,15.41,70.85ZM25,71h0Zm-1,2.13a.39.39,0,0,1-.16-.15l.16.15c.32-.7.65-1.41,1-2.12-.46-1.24-1.37.07-2-.35L21.65,70c.14,1.77-2.84,1.82-2.15,3.89.24.52.63.26,1,.17l.38.26a1.07,1.07,0,0,0,.5,1l.29.15c1.92.45,2.3-.73,2.38-2.24Zm181.66-31,.12.73c-1.18,1.39.23,1.42,1,1.81l.14-.18.14-.19h0c1.1.64,1.34-.39,1.83-.93l.58-.79C208.14,42.77,207.05,41.25,205.67,42.11Zm-6.82-1.48a2.36,2.36,0,0,0-2.69,1.57,1.35,1.35,0,0,0,.86,1.49c1.29.34,2.61.8,3.52-.71.68-1-.53-1.47-.67-2.24ZM31.25,85.24c-1.43,0-2.6.89-3.95,1.14a5.58,5.58,0,0,1-.58-.18c-.94-.33-1.62.76-2.55.49a.86.86,0,0,1-.31-1.36c.59-.61,1.19-1.21,1.73-1.87a1.53,1.53,0,0,0-.8-1.48c-.36-.18-1.25.4-1-.64s.87-.45,1.42-.28a11.39,11.39,0,0,0,1.32.25c.45.32.88,0,1.31-.08a3.12,3.12,0,0,1,.59-.13c1.41.62,2.44.35,3.05-.88a1,1,0,0,1-.58.15c-1.8-.33-.44-1.93-1.09-2.72a1.35,1.35,0,0,1,.32-.79c-.19.21-.36.46-.7.42-.41.21-.43-1.73-1.07-.2-.12.12-.46.28.05.35a.58.58,0,0,1,.31.71,1.43,1.43,0,0,1-1.17,1,1.44,1.44,0,0,0-1.69-.06c-.69-.11-1.29-.29-.82-1.2h0c1.7-.64-.27-1.73.31-2.51a1.5,1.5,0,0,1,.55-.74,3.33,3.33,0,0,0,1.75-1.11,1.77,1.77,0,0,0,2.5-1.17,3.53,3.53,0,0,1,2.27-2.22c1.34.09,0,1.56.94,1.84s.56.77.25,1.09A3.33,3.33,0,0,0,33.2,77c.77-.56,1.24-1.59,2.38-1.62A1.22,1.22,0,0,1,36,75a12.8,12.8,0,0,1,1.09-2,3.08,3.08,0,0,0-.63-.48c-.27.22-.59.65-.8.6-.5-.1-.3-.6-.15-.87a15.15,15.15,0,0,1,1-1.41c0,.11,0,.23,0,.34a.37.37,0,0,0,0-.34,1.81,1.81,0,0,1,.29-.33c.76.35,1.3,1.45,2.38.68a3.46,3.46,0,0,0,.68,1.6c.28-.2.53,0,.76.23a2.72,2.72,0,0,0,1.23-.71c.23-.2.72-.11,1.08-.16a1.49,1.49,0,0,0,.43.19,1.39,1.39,0,0,1,.82-1.19.92.92,0,0,1,.36-.1c.35-.78,1.24-.18,1.75-.57a2.17,2.17,0,0,0,2.3,0c1.5-1-.56-.73-.33-1.2-.09-.2,0-.32.12-.39a1.11,1.11,0,0,1,.18-.83,1.33,1.33,0,0,1,.29-.25c.33-.89.7-1.58,1.46-.35h0a.68.68,0,0,1,.48.32c0-.07,0-.12,0-.18-.22-.19-.56-.35-.61-.57-.43-2.11-1.23-1.54-2.18-.35-.09.12-.3.14-.49.18h0a.5.5,0,0,1-.39.42,13.59,13.59,0,0,0-1.8-.11.47.47,0,0,1-.21.37c-.69.53-1.4-.09-2.1-.46a6.11,6.11,0,0,1-1.31-.32c-.52-.54-1.07,0-1.6-.06h0l-3.07-.51c.43,1.41-1.52.08-1.81.67-.47-1.17-1.62-1.16-2.56-1.52a1.58,1.58,0,0,0-.31.13.84.84,0,0,1-.05-.17l-.48.19a1.31,1.31,0,0,1-.24.37c-1.7.13-2.53-.49-2-2.29a1.57,1.57,0,0,0-1.2.5c-.85-1.77.64-2.14,1.66-2.78a1.68,1.68,0,0,1,.95-1.14h0a1.6,1.6,0,0,0,.27-.25,2.59,2.59,0,0,0-2.52-.45c-2,.54-3.69-.66-5.54-1a32.39,32.39,0,0,0-8.11-.1,25.41,25.41,0,0,1-6.76-.65l-.61.17h0l-2.68-.23-3.7-.42c-.26-.67-2.89-1-.32-2.07,1.24-.77,2.07-2.12,3.58-2.51.34.59.24,1.41.93,1.82,1.74-1.62,1.26-.23,1.2.59l.25-.07c.82-.36,1.49-1.18,2.54-.84a.69.69,0,0,1,.05-.13c.26-.33.5-.68.74-1,0,0,0,0,0,0s-.08-.15,0-.18c-.27-1-1.11-.6-1.74-.75a1,1,0,0,1-.28-.5A3.78,3.78,0,0,1,8.4,51a1.26,1.26,0,0,1,.88-.69c1.19,0,1.4,1.21,2.21,1.69l.66-.14c1.26-.3,1.43.17.85,1.18a.53.53,0,0,1-.17.51c-.24.17-.49.3-.73.45-.55.36-.5.88-.4,1.4a1.1,1.1,0,0,1,.41-.36c2.23-.42,3.18-1.74,2.78-4a1.7,1.7,0,0,1,1.59.2,1.54,1.54,0,0,1,.36.44c.17-.24.41-.53.34-.64-.93-1.69.25-2.2,1.43-2.78a6,6,0,0,0,1-.86c.53.81-.23,1.95.8,2.49l.54-.72c-.24-.78.3-1.28.74-1.72.87-.86.43.4.72.5-.06.63.43.86.83,1.16.82-.71,1.95-.32,2.85-.76l1.58-.52c.65-.24,1.15-1.14,2-.51.63.47.32,1.1.21,1.67a.78.78,0,0,0,.29.86l.65-.88a3.48,3.48,0,0,0,2.38-1.69l.65-.08c.78.56,1.31,1.21,0,1.72-.72.29-1.43.83-2.3.6h0l-.81,1.11c-.71.91-.26,2.09-.64,3.08,0,.07,0,.14.05.21a1.33,1.33,0,0,1-.18.54s0,0,0,0,.06.17,0,.21l.24.47h.05a1.88,1.88,0,0,0,.87-.66l.16-.21a1.84,1.84,0,0,1,.86-1.14l0-.06.06-.07a.73.73,0,0,1-.1-.13c.27-2.91,1.27-3.87,3.25-3.14a1,1,0,0,1,.11.44h0a.27.27,0,0,1,.21-.27.59.59,0,0,1,0-.13.75.75,0,0,1,.38-.42,3.7,3.7,0,0,0,1.55-.45h0c.42,0,.58-.6,1-.53.71.72,1.19-.31,1.81-.25.59-.23,1,.11,1.39.44.78.79,1.54.46,2.3,0a2.07,2.07,0,0,1,.29-2.06l.35-.33a1.38,1.38,0,0,1,.64,0c0-.08,0-.15-.07-.23,2.37,1.62,2.94.2,3.47-1.27,1-.05,0,1.75,1.28,1.51,0-.85.69-1.39,1.27-2,.45.58.11,1.38.25,2.05a1.86,1.86,0,0,1,1.12.64,3,3,0,0,1,1.53-1.2l.11-.09a1.75,1.75,0,0,0-.73-.49c-.21-.82.37-1.19,1-1.44s.7.29.87.68l1.16-.48a.38.38,0,0,1,.15,0s.08-.11.13-.16a1.86,1.86,0,0,1,1.33-.09,1.9,1.9,0,0,0-.17-.28L57.16,42l.24-.64a8.26,8.26,0,0,1-2.21-1.18l0-.15c-.51-.39-1.21-.61-1.25-1.42h0c-.34-1.15,1.27-1.64,1-2.78a.3.3,0,0,1,0-.23c-.57.16-.91.74-1.52.8-.26.46-.06,1.56-1.16.82-.07-1.72,1-2.43,2.47-2.73a2.07,2.07,0,0,1,.32-.28L55.42,33a3.28,3.28,0,0,1-2.09-2.11.44.44,0,0,1,.36-.51l.35-.28c1,.61,2.22,1,2.62,2.18.16-.43.33-.86.5-1.28a1.07,1.07,0,0,1,.14-.87h0c0-.31,0-.63.05-.94-.7-.24-1.21,2.3-2,.14a9.47,9.47,0,0,1,.35-2l.06-.45a7.32,7.32,0,0,0,1.07-.66c.45-.38.77-1.12,1.52-.54a1.07,1.07,0,0,1,.4.8.75.75,0,0,1-.41.59l.37.14c1.1.54,1,1.78,1.44,2.67a.46.46,0,0,1,0,.2l.08,0c.81-.59,1.16-1.78,2.24-2,0-.09,0-.17,0-.25-1,.06-1.24-.43-.93-1.28,0,0,0,0,0-.05a10.27,10.27,0,0,1,.29-2.34,4.56,4.56,0,0,1-1.18,1c-1.71.87-3.18-.32-4.76-.55-.77-.3-1.71-.45-1.65-1.6.28-1.39,1.4-1.14,2.35-1.21l2.27-.28c.6-.18,1.14-.2,1.49.43,0,.14,0,.31-.07.45,1.77.69,4.3-1.66,5.48,1.36l.64.08,0,0c-.09-.26-.2-.54-.33-.85l.8-1.11c.27.22.52.65.79.9a8.09,8.09,0,0,1,.91-1.09c-.52-.23-1.24-.38-.22-1.11l.58-.1,1.32-.14a1.83,1.83,0,0,1-.05.79l1.62.17h0c1-.87,2.17-.2,3.26-.2.37.78,1.24.51,1.81.88a2.8,2.8,0,0,0,.19.43c.43-.25,1.06-.27,1.35-.67h0l.25-.36c1,.21,2,.8,2.43-.89a1,1,0,0,1,1.59-.72c0,.1,0,.2,0,.3l-.09.18a2.06,2.06,0,0,1,.51,1l.12-.1a13.13,13.13,0,0,1,1.08-1.16,1.33,1.33,0,0,1-1-1,.92.92,0,0,1-.46-.93c.68-.08,1.44.24,1.93-.65.39-.7,1-.52,1.39.1.07.77-.2,1.52-.09,2.28h0l.06-.21c1.22-.73,1.74-.06,2,1v.11h0a.3.3,0,0,1,.26-.27.81.81,0,0,0,.73.24,5.38,5.38,0,0,0,.85-.52,1,1,0,0,1,.41-.07c.9-1.43,1.43-.56,1.94.38a.86.86,0,0,1,.42-.06c.5.11,1,.22,1.4-.23.12-.31.88-.66-.06-.86a5.76,5.76,0,0,1-2.83-1.11l0-.06a.76.76,0,0,1-1.16.05c-.42-.2-1-.22-1.15-.77l0-.06c0-.58.38-.75.85-.82s.91.07,1.12.57l.25.19s0-.05,0-.08c.74-.86,1.63-.7,2.55-.38a3.72,3.72,0,0,0,.79.22l1.25-.38c.69.16,1.54,0,2,.68a3.64,3.64,0,0,1,.47.14,2,2,0,0,1,1.28,1.15A1.54,1.54,0,0,1,99,19.93a1.22,1.22,0,0,1-.49.23c0,.79-.74,1.61.11,2.37l.06.2h0c0-.78,0-1.65,1-1.63.77,0,1,.87,1.13,1.53a.17.17,0,0,1,0,.07c.35-.67.7-1.34,1.64-1.4a2.54,2.54,0,0,1,1.49.42.15.15,0,0,1,0,.06l.4-.53a1,1,0,0,1,.31-.93.69.69,0,0,1,.65-.09c-.3.71-.36,1.57-1,2.11,0,.05,0,.09.07.13a3.09,3.09,0,0,0,.62,1,1.51,1.51,0,0,1,1.36-1.84l-1.35,1.85.07.08a.81.81,0,0,0,.35,0,1.54,1.54,0,0,1,1.37-1l.4.27c-.09-.79-.19-1.59-.28-2.41a1.94,1.94,0,0,1,1.39.5,1.4,1.4,0,0,1,.63-.06.8.8,0,0,1,.32-.28,10.58,10.58,0,0,0,3.1-.6l3.89.53a3.46,3.46,0,0,1,1.5-1.91l.35.26c1.08.24,2.91-1.21,3,1.31,0,.14,0,.28,0,.42l.08.08c.23-.21.63-.16,1-.22a1.05,1.05,0,0,0,.5,0,2.46,2.46,0,0,1-.09.39,2.79,2.79,0,0,0,.59-.27.84.84,0,0,1,1,.23,3,3,0,0,1,.22-.28c.91-1.19,2.09-.55,2.77,0,1.08.83,1.54.41,2.1-.42v.24a1,1,0,0,0,0-.24c0-.34.09-.68.14-1l1.41-1.84c.23.16.45.33.67.5-1.29,1.14-1.06,3-1.92,4.3a1.7,1.7,0,0,0,.27.66,8.27,8.27,0,0,0,1-.12,1.46,1.46,0,0,0,.17-.24,2,2,0,0,1,.42-.5c-.57-.57-.78-1.09.87-1.4a1.55,1.55,0,0,1,1.16.9c.06-.73.52-.87,1.18-.72l.12.08,0,0a1.24,1.24,0,0,1,1.25-.31s0,0,0,.06l.49-.1.13-.17.13-.18,1.67.05c.7,0,.9.47.7,1a1.24,1.24,0,0,1-1.61.73.82.82,0,0,1-.39-.26c-.35.39-1,.82.4.86a1.77,1.77,0,0,1,1,.37l.1-.11a3.88,3.88,0,0,1,1.69-2.36,2.78,2.78,0,0,1,1.26-.54h.26c.17-.32.49-.67-.23-.85-.25-.59.15-1,.44-1.38a4.22,4.22,0,0,0,.27-.36c.79.15,1.72,0,2.13,1a1.45,1.45,0,0,0,.21,1.26l.66-.13h0c.82-.39,1.5-1.12,2.62-.55,1.5.78,0,.87-.21,1.27.05.2,0,.31-.19.32l.17.05c.3.75,0,1.14-.74,1.3l-.35-.21-.05,0a2.07,2.07,0,0,0-.12.82,3.11,3.11,0,0,1,2.16,1h0v0l.73-.54.35,0,.17-.22a3,3,0,0,1,.81-.65c2.45,2.63,2.72-.85,4-1.42a.76.76,0,0,0,.24-.2,1,1,0,0,1,0-.39c.27-.92,1.61-.08,1.83-1.1.53-.44,1-.56,1.34.23.13,1.13,1.06,1.17,1.87,1.37.95.36,1.06-1,1.85-.92l.37.23h0a.76.76,0,0,1-.1-.33c.08-1.43.78-2.14,2.27-1.9.42,0,.84-.05,1.26-.07.86.73,2,.18,2.92.65l.29.33a.84.84,0,0,1-.29.85,3.89,3.89,0,0,1-.58.35c-.23.32-.47.63-.7.94l.3,0a2.44,2.44,0,0,1,.77.35,4.45,4.45,0,0,1,1-2.22c2.3,1.33.18,1.81-.41,2.58a2.9,2.9,0,0,0,1.62.72l.86.13a.63.63,0,0,0-.2-.2c-.45-.23-1-.41-.94-1,.64-1.32,1.84-1.56,3.13-1.63l.63-.12h0a2.44,2.44,0,0,1,.27-.29,7.08,7.08,0,0,1,3.59-.3h0a1,1,0,0,1,.89-.47c.64-.19,1.36.26,2-.22,1.62,0,2.63.3,1.33,2.11l.35.27c0,.11,0,.22,0,.33A2.29,2.29,0,0,1,181,22.11a5.58,5.58,0,0,1,.73.1c.58-.52,1.15-1.11,1.94-.18a5.74,5.74,0,0,1,.8-.26c-.71,0-1.44,0-1.33-1.3l1.31-.54a1.94,1.94,0,0,1,.33.07c0-.19,0-.37,0-.56.17-.24.35-.48.52-.73l.25-.3-.07,0a.41.41,0,0,1,.35-.44c2.09-.49,4.17.53,6.26,0l.66-.11a2.63,2.63,0,0,1,1.87.88,1.54,1.54,0,0,1,.28.38l.09,0a6.87,6.87,0,0,1-.34-3.37c.17-.38.36-.75.5-1.15.53-1.94,2.2-1.22,3.46-1.48a3.24,3.24,0,0,1,.82.11,2.53,2.53,0,0,1,1.08.94c.9-1-.43-1.36-.78-2l-.18.07a1.2,1.2,0,0,1-.61.2l-.06.37c-1.14.63-1.92.39-2.35-.72h0a3.83,3.83,0,0,1-.41.39,2.85,2.85,0,0,1-1.77.76,2.36,2.36,0,0,1-1-.55,2.59,2.59,0,0,0-.55-.33c-.42.21-.81.34-.86-.25l-.41-.06a8.74,8.74,0,0,1-2.58-.55,1.7,1.7,0,0,1-.6-.56,1.15,1.15,0,0,1-.23.21,2.86,2.86,0,0,1-.82.23h-.37a1.86,1.86,0,0,1-1.14-.05,6,6,0,0,0-1.79.1c-.54.13-1.08.29-1.63.37a3.44,3.44,0,0,1-2.37-.86,1.09,1.09,0,0,1-.1-.11c-.55,1.14-1.78.78-2.71,1.07a3.4,3.4,0,0,1-.78,0c-1,1.47-2.14,1.12-3.42,0-.06-.14-.11-.28-.16-.42a1.29,1.29,0,0,1-.33.33,7.19,7.19,0,0,1-3.06.16c-.31,0-.62,0-.92,0-.45.69-.81,1.4.11,2.26h0l.57.06c.81-.78,1.75-.29,2.64-.28a1.3,1.3,0,0,1,1.34-.45c.36.77,1.44-.93,1.59.46.11,1-.59.9-1.21.85s-1.21-.18-1.82-.27l-.71.09c-.64.33-1,1.31-2,.91l-1.91.35c-.72-1.34-2-1-3.13-1a1.79,1.79,0,0,1,1.2-1.64,1.25,1.25,0,0,1-.33-1.15l-.23-.11c-.05-.09-.09-.18-.13-.27-.14.1-.27.21-.41.3a1.79,1.79,0,0,1-1.74-.38s0,0,0,0c-.15.1-.3.06-.46-.13l-1.76-.27a1,1,0,0,1-.06.16,1.87,1.87,0,0,1-.7.58.26.26,0,0,1,0,.15h0a2.86,2.86,0,0,1,2.8.28,1.21,1.21,0,0,1,.36,1.28.77.77,0,0,1-.41.4.39.39,0,0,1,.18.41c-.05.15-.1.23-.15.22l-1.3.94.13.27a2.38,2.38,0,0,1,0,.92c-1.87,3.52-3.31.62-4.87-.32h0c0-.21,0-.41,0-.61l-3.08-.49-4.41-.48c-.05.18-.1.35-.14.53l-3.12-.2v-.26h0l-.63-.54c-1.6-1.81-3.75-2.43-6-2.74v0l-.14,0c.48,1.21-.74,2.21-.66,3.37-.63,1.33-2.2.42-3,1.27h0a5.19,5.19,0,0,1-3.06-1l-4.8-.48a.94.94,0,0,1-.48,1.09c-1.59-1.32-3.28-.89-5.17-.75a81.28,81.28,0,0,1-10-.33c-.07-.1-.14-.21-.22-.31l-1,0-1.4-.18-.87,0c-.09.62-.58.86-1.09,1.07-2.24,1.16-4.4-.21-6.6-.24.12-.37.23-.73.34-1.1l-1.88-.28c-.77.67-1.3-.36-2-.3l-1.1-.13h0c-.74,0-1.51,0-1.91-.82l-2.77,1.51a.93.93,0,0,1-1.24-.73L88.34,13c-.49-.84-1.08-.93-1.74-.39,0,.11.08.22.11.33,0,.69-.09,1.38-1.1,1.08a4.48,4.48,0,0,0-3-1.08l0,.1a24.51,24.51,0,0,1-4,.64l-1.86-.14a4,4,0,0,1-2.38,0,6,6,0,0,1-.47-.38l-1,.32a.52.52,0,0,1-.14.66c-3.7-.84-7.27.59-10.92.64h-.32l-.31-.07-3.75-.34h0l-1.57.87-3.6-1-3.8-.57c-1,.77-2.41-.14-3.33.89-2.57.36-5-.85-7.52-.79h0a7.67,7.67,0,0,1-3.38.65,5,5,0,0,1-3.22.15l-.66.67a1.36,1.36,0,0,1,.09.36c-1.37,2.27-3.16.25-4.47.09-4-.5-7.9.24-11.83-.07l-.53-.09c-.83-.53-2.36,1.4-2.73-.77a1.24,1.24,0,0,1,.1-.2c-.53-.8-1.5-1.56-.14-2.55,1.28.68,2.53-.67,3.8,0,2.8-.42,5.69,0,8.45-.86,1.27-.43,2.49.22,3.74.13a1.36,1.36,0,0,1,1.09.54l8.75-1c1.43-.69,2.87,0,4.29,0,.59,0,1.6.66,1.66-.65,0-.85-.13-1.72-1.24-1.86S38.83,8,37.58,7.88l-5.66-.63a2.62,2.62,0,0,1-2.45.35h0c-1.3.88-2.4.28-3.49-.47l-1.22,1.1c-2.09-.16-4.19.76-6.27-.1h0l-4.65.78C9.74,10,6.12,7.78,2.25,7.33c.77-2,2.35-2.21,4-1.47a9.05,9.05,0,0,0,4.51.44h0c2-.77,3.9-1.07,5.8.19a.75.75,0,0,1,.47,0h0L17.3,6l.84.11c1.15-.2,2.36,0,3.5-.28C25.08,5.64,28.49,5,32,5.16l.23.09A1.24,1.24,0,0,1,32.51,5a.58.58,0,0,0,.36-.37s0-.08,0-.12-.05-.18-.14-.19c-.37-.35-.89,0-1.27-.29-1.09,1-2.08.69-3-.27-.08.46-.39.56-.84.44l-.05,0c-.9.46-1.88,0-2.82.12a1.37,1.37,0,0,1-.23.25,1.71,1.71,0,0,1-1.77-.17,2.58,2.58,0,0,0-.1-.38.17.17,0,0,0,0,.1c-.5.62-1.22.39-1.85.51a1.17,1.17,0,0,1-.05.3C19.16,6,18.21,4.1,16.86,4a2.9,2.9,0,0,0-.6-.12l.55-.71c1-.92,1.78-2.41,3.55-1.4,1.41.59,3-.21,4.4.57,1.28-.89,2.6,0,3.9-.11.9-.28,1.82-.79,2.59.26C33.15,2,35,1.44,37,2c1-1,1.75-.06,2.55.4.42-.2.85-.4,1.26-.61A10.89,10.89,0,0,1,47.38,2l1.22-.47c-.15-.43-.29-.87-.43-1.3L50.74,0l2.51,1.45a10.84,10.84,0,0,1,4.43,0,5.17,5.17,0,0,0,3.17-.38C63,.32,65.24,1.41,67.4.8l1,.44c.15-.26.29-.54.44-.8l3.67.32c4,.58,8.12-1,12.14.27A1.68,1.68,0,0,1,85.27,1h0L86.69.48,89,1.4a8.84,8.84,0,0,1,5.3-.53h0a.89.89,0,0,1,.51.05h0C96.4,0,98,1.07,99.49.91a10.07,10.07,0,0,1,5.78.06l3.73.45,6-1c5.57.78,11.14-.65,16.71,0l6.38-.37c1.87,1.55,4.27.69,6.34,1.37L146.28,1c3.68-.83,7.31.44,11,.21l1.91.18,1.29.1c1.44-.83,2.93-.27,4.41-.17h0c2-1.6,3.88.5,5.83.2,1.46-.85,2.93,0,4.4-.05a1.09,1.09,0,0,1,.17-.67c4.16,1.16,8.36,0,12.55.15C196.92,1.36,206,2,215,3c3.17.34,6.3,1,9.56,1,3.53-.07,6.74,2.36,10.42,1.76,1-.33,1.91.07,2.86.13a.73.73,0,0,1,.46.49L243.9,7l1.9.2c1.34.17,2.68.38,4,.5,1.69.15,1.63.91.78,2a3.66,3.66,0,0,1-2.6.27l-2.46-.42-3.22-.26-.19-.17a2,2,0,0,0-.18.45c-.73-.16-1.55.05-2.15-.58l-1.9-.21a1.52,1.52,0,0,1-1.74-.18,1.34,1.34,0,0,1-.51.17A20.17,20.17,0,0,1,233,8.36c-.49.09-.44-.09-.29-.34-1.21-.17-2.42-.31-3.35.79h-.28c-.26-.06-.37-.16-.32-.3a1.27,1.27,0,0,1,.07-.12c-1.29.21-2.56-.52-3.85-.08l-3-.34-1.4,1.11.5.14,1.26.7c.66-.65,1.21-.22,1.77.07a2.94,2.94,0,0,0,.49-.32,2.66,2.66,0,0,1,1.12-.44c1-.11,1.86.43,2.83.33a2.71,2.71,0,0,1,1.28.24c1.9.73,1.69,1.86.58,3.14l-2.09,1c-1.71,1.23-3.42-.52-5.13,0-3.19.51-6.22-.55-9.32-.9-.89-.15-1.49.46-2.17.86,0,0,.07.11.11.17-.23,1.79-1.85,1.22-2.86,1.69a3.29,3.29,0,0,1-.82-.15,5.13,5.13,0,0,1-1.81-1.08.54.54,0,0,1-.07-.27,4.52,4.52,0,0,1-5.07,1.06c-.06,0-.1-.1-.15-.14a6.33,6.33,0,0,1-2.15.75c-.55.19-1.23.22-1.32,1,.22.62.78.8,1.28,1,.21-.24.55-.14.85-.16A3,3,0,0,1,200,18a2.09,2.09,0,0,1,.05.47c.54-.08.93.16,1.1.89a4.14,4.14,0,0,1,.19-.49l.1-.1a1.63,1.63,0,0,1,.22-.59l1.31-.32a2.26,2.26,0,0,1,2.21-.08c1.25.55,2.42.08,3.6-.23,1.47-.9,3-.5,4.49,0l1.81.1c.26,0,.53.06.79.09a.27.27,0,0,0,.08-.07c1.2.22,2.25-1.26,3.51-.29l.42.47c2.36-.11,4.72-.45,7.08-.67,1.4-.89,2.57.63,4,.43a5.74,5.74,0,0,1,2.58,0,1.62,1.62,0,0,1,.43.12l1.23-.14h0v0h0c3.44-.79,6.85-.29,10.27.11a.93.93,0,0,1,.39.15l.63-.09.55-.11a3.18,3.18,0,0,1,.63.25c.6.4,1.86.15,1.81,1-.07,1.19-1.38.49-2.06.85h0c-.21.6-.43,1.19-.64,1.79a.26.26,0,0,1-.26.28c0,.37,0,.75.63.52,1.46-1.15.83.49,1.15.87.12.29.29.57.12.89a3.8,3.8,0,0,1-2.89,1,1.66,1.66,0,0,1-1.06-.51l0-.09a.93.93,0,0,1-.9-.21.57.57,0,0,1,.24-.63.84.84,0,0,0-.14-.06,1.6,1.6,0,0,1-.43-.47c-.3-1-.13-1.76.86-2.17-.29-.2-.57-.43-.88-.61-.26,1.15-1.1,2.16-1.07,3.38a1.66,1.66,0,0,1,.46.37c.73.76-.06,1.29-.51,1.83a.69.69,0,0,0-.42-.15,1.36,1.36,0,0,1-.67.21,1.92,1.92,0,0,0-.15-.14l-.18,0a3.55,3.55,0,0,1-.35.54c-.17.24-.35.47-.54.7-.75.86-1.8.91-2.8,1.12-.48,0-1,.06-1.44.06.35.19.81.06,1.19.15a2.33,2.33,0,0,1,1.36.16c.44-.48.83-.08,1.22.24a.64.64,0,0,1,.13.22l.17-.25c.09-.1.19-.2.28-.31a2.54,2.54,0,0,1,.36.29l.71.46s0-.06,0-.1a2.38,2.38,0,0,1,1.24-.65c-.21-.13-.33-.41-.32-.94-.25.66-.73.7-1.42.16.16-.24.31-.49.47-.74a1,1,0,0,1,1.06.18h0l.54-.72a1.86,1.86,0,0,1,.49-.29,2.41,2.41,0,0,1,1.08-.31l.38.28c.5,1.48,1.11-.41,1.65,0h0l.92-.41a.73.73,0,0,1,.19,1.2l0,.08c-.27.48-1.08.93-.64,1.46s.75.31,1.1.05a4.16,4.16,0,0,1,.57-.7,1.34,1.34,0,0,1,1-.4c1.11-.58,2.23-1.71,3.32,0,.67.16,1.37.66,1.93-.18a.76.76,0,0,1,.56.8c-.68.93,1.85.5.7,1.74-1,1.05-1.69.13-2.52-.11-.63.22-.17,1.71-1.41,1.22-.25-.73-1-.74-1.52-1a1.23,1.23,0,0,0,0,.19l-.12.24c0,.16-.06.31-.1.46a1.49,1.49,0,0,1-1.1,1.49h0l-.26.37.32.26c-.61.55-.86,2.23-2.13.67l-.74-.54a4.25,4.25,0,0,0-.54-2.86c-.05,1.23.21,2.55-1,3.45a.28.28,0,0,0,0,.09c1,0,1.38.51.59,1.21.17.61-.28,1.32-.12,1.93l-.56.73-1.07-.82a3.64,3.64,0,0,0-.73-1.1,6.5,6.5,0,0,1-1.7,0,2.73,2.73,0,0,0-.93.86c-.29-.39-.57-.78-.86-1.16-1.12-.07-.78,1.47-1.74,1.59s-.52-1.17-1.19-1.41h0c-.41.53-.81,1.09-1.25,1.6s-1.23.7-1.33.24a2.87,2.87,0,0,0-.17-.54,1,1,0,0,1-.23.06c-.14,0-.33-.2-.49-.31l.31-.37c-.66-.61-1.7-.33-2.6-.4.63.24,1.26.51,1.9.7a3,3,0,0,0-.15.42h0c1.61,1,3.66,1.44,4.55,3.41l-.38.83c-.43.72-1.32.75-1.89,1.27.14.13.11.35.22.5l.8.39a2.46,2.46,0,0,1,.06.53A15.66,15.66,0,0,0,237.51,45l.3-.45a2,2,0,0,0-.48-.25,1,1,0,0,1-.41-.39c.12-.22.23-.44.34-.66a.44.44,0,0,1-.11-.31c-.06-1.19,1-1.62,1.57-2.39a2,2,0,0,1,1.45-.79,2.4,2.4,0,0,1,.38.12l.63-.22,1.73.75,0,0a3.71,3.71,0,0,0,.54-.08,10.84,10.84,0,0,1,3.34,1.6h0c.55.87,1.66.75,2.36,1.36a4,4,0,0,0,1,2.36c.76.94.56,1.85-.94,1.89l-.2-.11c-.13.25-.25.51-.38.77a1.43,1.43,0,0,0-.29,1.94c0,.13,0,.26-.07.39a.94.94,0,0,1,.64.77c.53,1.3,1.86,1.81,2.76,2.74l-.36,1.22a.92.92,0,0,1,0,1.05l-.06.2-.08.2c.5.74,1.44,1.3,1,2.43l.32.57c-.76.86-.63,2.42-2.14,2.68l-.45-.24c-.75.68-2.87-1-2.57,1.48,1.56-.16,1.6,1.58,2.63,2.09s1.92.81,2.89,1.19c.66.26,1.28.51,1.05,1.41.74,1,.29,2.06.2,3.1-.32-.06-.76.22-.9-.33a8.82,8.82,0,0,1-1-1.24,4.77,4.77,0,0,1-6,0,3.89,3.89,0,0,1-.26-2.92.43.43,0,0,0,0,0,2.45,2.45,0,0,1-1-.16l-.19-.07c1,1.21.62,1.86-1,2-.34,0-.84,0-1-.16-.31-.36.11-.59.4-.81a10.9,10.9,0,0,0,.91-.89l.41-.18a.87.87,0,0,0-1,.36,4.76,4.76,0,0,1-2,1.36l-.1,0c0,.1-.07.21-.11.31.31.49.32,1.11.94,1.45.86.47.75,1-.13,1.42l-.58.24c-.06.16-.12.31-.17.47a2.75,2.75,0,0,0-.2.38c-.61.68-1.42.46-2.18.45-1.74-.83-3.68-.74-5.51-1.18-.65-.15-1.63-.24-1.45-1.1.38-1.87-1-1.68-2-1.93-.75-.42-1.25-.94-1.09-1.72a1.1,1.1,0,0,0-.24.09c-.2.79,1,1.68.08,2.29a1.94,1.94,0,0,1-1.62.06c.12.79,1.1.41,1.45.89a.87.87,0,0,1,.41.93,2.29,2.29,0,0,1-1.78.94c-.52.35-1.2-.56-1.59.11a.49.49,0,0,0,.1.72,11.45,11.45,0,0,0,1.62.36,1.73,1.73,0,0,1,1.35.61c-.29-.37-.46-.77-.13-1.18a.54.54,0,0,1,.78-.11c.47.34.36.75.07,1.13s-.4.44-.71.17a4.58,4.58,0,0,1,.33,2.64,1.45,1.45,0,0,0,.36-.28,8.46,8.46,0,0,1,.78-1.6,1.41,1.41,0,0,1,.93-1l1,0c1.7.94,3.8,0,5.46,1.18a4.37,4.37,0,0,1,2.44.52,2.42,2.42,0,0,0,1-.16c2-1,4.22,0,6.3-.44a2.23,2.23,0,0,1,.63,0,3.35,3.35,0,0,1,.55.23c1.84-.35,3.77.52,5.57-.31,0,.14-.09.28-.14.41h0l.84.36.16.07a.78.78,0,0,1,0-.16,7.21,7.21,0,0,1,.79-2.51c0-.09.12-.16.17-.25l-.37-.57a1.6,1.6,0,0,1-.5-.26c-.88-1.86.06-3.06,1.49-4.07a2.55,2.55,0,0,1,.67-.18c2.57.33,4.52,2.47,7.2,2.47.27.34.26.8.52,1.15a1.1,1.1,0,0,1-.35,1.38c.93.72,1.88,1.42,1.89,2.76-.84,1.21-1.57,2.46-3.44,2.27-.72-.08-1.18.86-1.65,1.46a2.05,2.05,0,0,1-.49.39c-.81.26-.95-1.56-2-.65,0,.12-.07.24-.11.36L259,80h0l0,0,.06,0h0l0,0h0c1.17,1.27-.7,2.21-.36,3.38l-.05-.06c-1.46,1.24-1.73,2.95-1.84,4.72l.68.41c1,1.19.05,2.2-.29,3.26l-1.8,3.3c-.67,1.11-1.76.16-2.63.27a.34.34,0,0,1,0,.1,7.38,7.38,0,0,1-.42,1.48.41.41,0,0,0-.14.21l.19.12c.09,0,.19-.11.3-.09a.7.7,0,0,1,.6.5l1,1a.61.61,0,0,0,.82.51c1.54-.39.73.5.57,1a1.92,1.92,0,0,0,1,1.43c.93.55.27,1-.16,1.39a3.6,3.6,0,0,0-.55.29c-.72.55-1.41,1.12-2,.8.41.29.65.66.08,1.4-.06.14-.13.27-.19.4a5,5,0,0,1-2.72-.59,2.8,2.8,0,0,0-2.15,1.59l-.62.23-.24-.2a2.88,2.88,0,0,1-.74-1.2c-1.57.77-1.45-.68-1.85-1.46,0-.07,0-.13,0-.2a1.81,1.81,0,0,0-1.47.26l-.6.27a4.55,4.55,0,0,1-2.78-.12c-.86-.14-1-.81-1-1.5s-.32-1.31-1.2-1.28l-.12,0c0,.57.13,1.18-.71,1.41,0-.39,0-1.24-.54-.71-1.32,1.33-1.32-.3-1.88-.66h-1l-1.23.44-.4-.09c-.8-.07-.84-.82-1.18-1.31a1.57,1.57,0,0,1,0-1.24,3.14,3.14,0,0,1,1.09-1.3.07.07,0,0,0,0-.05h0a.91.91,0,0,1-.54-.28c.11.63-.32.9-.85,1.11a1.11,1.11,0,0,1-.94-.28.72.72,0,0,1-.12-.29l-.37-.12c-.14.08-.25.08-.32,0s-.1-.14-.08-.18l-.18-.08-.18.07a3.22,3.22,0,0,0-2-.34,1.52,1.52,0,0,1-.43-.83c-.23.24-.4.52-.64.74l.53.2c-.3.54-.36,1.34-1.06,1.43.25.52,1.35.58.84,1.5-.72.93-1.89.44-2.77.87a.56.56,0,0,1-.78.37c-.82-.68-.44-1.41.06-2a6.22,6.22,0,0,0,1.23-2.88c0-.06.06-.11.08-.17a1.77,1.77,0,0,1-1.18-.36h-.13c0,.09.07.18.11.27a1.55,1.55,0,0,1,.15,2l-1.27-.51c-.58-.19-1.31,0-1.69-.7.11-.28.22-.56.32-.85a.25.25,0,0,0,0-.07l-.09,0a1.36,1.36,0,0,1-.36-.28l-.71,0a2.08,2.08,0,0,1-.11.48,6.07,6.07,0,0,1-.71,1.1c-.48.47-.95,1-1.61.3-.87.51-1.68-.12-2.51-.14s-.89.47-1,1.06a4.31,4.31,0,0,1-.34,1.5.93.93,0,0,1-.84.39,1.61,1.61,0,0,1-.58-.3c-.46-.86-1.78-1.63-1-2.64a.92.92,0,0,1-1-.19,2.11,2.11,0,0,1-.79.78.67.67,0,0,1-.81-.09,1.35,1.35,0,0,0-.23.85c-1.16-.31-1.76.21-2,1.31.41.41,1.26.9.81,1.41-.61.7-1.69.1-2.56.3h0l-1,.32-.13.19-.08.09a2.67,2.67,0,0,0,.47-.07l.23.24c.38-.34.8-.14,1.2-.08l.12,0a3,3,0,0,1,.38-.23c.22,0,.43-.07.48.23a.47.47,0,0,1,.2,0l.28,0-.07.08c.28.17.57.43.8.39-.15.52.73,1.26-.2,1.57a1.23,1.23,0,0,1-.25,0h0c.43.18.25.52,0,.79l-.18.13c-.46.11-.93.27-1.3-.11a.6.6,0,0,1-.53.29l.51.57c.49-.4,1-.84,1.72-.4l-.07.21-.08.19h0a.91.91,0,0,0,1,0,.38.38,0,0,1,.56.28c-.09.81-.29,1.52-1,1.68,0,.25,0,.49.11.61s0,.07,0,.11a7,7,0,0,1,1-.22,2.09,2.09,0,0,1,.66,0c-.12-.27-.23-.54-.34-.82a1.12,1.12,0,0,1-.2-.18,1,1,0,0,1,.22-.91c.4-.31.84.1,1.25-.07l1-.11a1.47,1.47,0,0,0,.4.14c.41-1.12,1.2.4,1.67-.24l1.1.92c1.15,0,1.37-1,1.74-1.77.54,1.06,1.76.54,2.53,1.08.49.15,1,.41,1.5.09.75.25,1.33.63,1.32,1.53l-.36.84h0c.19.73-.41,1.14-.69,1.68a6.39,6.39,0,0,0,1,2.34L221,114c.32-.23,1-.18,1-.44.35-1.75,1.41-1.15,2.42-.82.53,0,.84.61,1.41.55l1.63,1h0l.28.16.06,0a2.71,2.71,0,0,1,.35-2.22,5.23,5.23,0,0,0-2.54.19c-1.75-.15-1-1.09-.59-1.9a1.75,1.75,0,0,1,1-.54,4.45,4.45,0,0,1-.73-1c-.32-1.19.5-1.27,1.3-1.28a9.57,9.57,0,0,1,3.8.32l.24.56.92-.62a4.08,4.08,0,0,1,.09-.69,1.88,1.88,0,0,1,1.12-1.27c.81.47.7,2,2,1.86a.62.62,0,0,1,.34-.39v0a4.59,4.59,0,0,0,1.91.83.64.64,0,0,1,.4-.37c.45-.06,1-.3,1.2.21l.09-.05c.87-.24,1.78-.77,2.46.35.37.3.58,1,1.28.53l.43.21c.86.45,1.62,1.82,2.63.06.33-.56.91-.11,1.14.46.68.39,1.81-.32,2.17.87h0l.38.12h0l.73-.56a3.15,3.15,0,0,1,.42.09c.62-.32,1.13,0,1.66.22.07-.08.12-.16.2-.25,2.78.52,5.63.21,8.4.83l1.25.48c1.68-.27,2.9,1,4.42,1.28l2.32.52,2.13.81h0c2.95-.12,5.67.22,7.1,3.34a.81.81,0,0,1,.94.07c-1,3.68-.94,3.45-4.48,1.9l-.09,0,0,1.17c.1.32.39.57.38.93-.52,1.29-1,2.73-2.61,1.28h0c-2.16,0-3.49,1.82-5.32,2.54a9.79,9.79,0,0,0-1.88.81,1.45,1.45,0,0,1-.36,0,3.31,3.31,0,0,0-3-.55c-.76.17-1.61.72-2.3-.19l-.3-1.64c-.05-.36.19-.54.43-.73.5-.3.92-.79,1.6-.7l.07,0,.24-.57a.39.39,0,0,1-.08-.1c-.53-.21-.53-.79-.76-1.21l-.14,0c-.19.34-.22.76-1,.6-1.08-.22-.5.42-.13.77-.18.4-.38,1.21-.76.91-1.44-1.11-1.48.25-1.93.94-.7.49-1.76-.55-2.31.55l.15.07c-1,1.39-2.13-.47-3.14.19l-.24.32-.4,0a4,4,0,0,1-3.26-.66l-.12-.13-.34.21h0a1.3,1.3,0,0,1-1.82,0c-.47-.6-.28-1.46-.64-2.1-.06.26-.29.42-.6.54l-.71,0c-.51.18-1,.37.11,1.07a.9.9,0,0,1,.39,1.15c-.06.12-.12.24-.19.36l-.64-.68c-.68-.61-1.69.32-2.32-.49h0a.58.58,0,0,1,.14-.71,1.1,1.1,0,0,1-.54-.19.68.68,0,0,1-.2-.54c.13-.46.47-.82.6-1.29a1.55,1.55,0,0,1,0-.21l-1.14-.49h0L237,122.4c-1.09-.39.53-2.05-1.15-2.08-.11,1.21-.79,2.55.78,3.38l-.48.71a2,2,0,0,1-1.73-1.72,1.56,1.56,0,0,1-.41-1c-.34.36-.63.78-1.17.88-.89-.44-.65-1.22-.6-2,.12-.5.26-1,.37-1.5a1.56,1.56,0,0,1,.21-.43.82.82,0,0,1-.72-.32v0l-.49.21c-.23.44-.31,1-1,1.09l-.61.26c-.42,0-.6.33-.78.64a.81.81,0,0,1,.1.09.78.78,0,0,1-.4.82c-1.42-.55-2-.15-1.56,1.39-.32.81-.65,1.62-1.73,1.62a.75.75,0,0,1-.06.13,2.4,2.4,0,0,1-.66.11,1.89,1.89,0,0,1-1.05-.53.37.37,0,0,1-.19.2h0a1.35,1.35,0,0,1-1.32.85l-.42-.18a1.55,1.55,0,0,0,.07-.23.32.32,0,0,1-.09,0c-.77-1-2.18-.89-3-1.76a1.56,1.56,0,0,1-.2-.56c-.09-.46.19-.91.13-1.38a.82.82,0,0,1-.12.2,3,3,0,0,1-2.05.75,1,1,0,0,1-.57-.73c-.25-.77-.12-1.6-.39-2.36-.67.26-1.67.19-1.31,1.46h0c1,1.4-.61,1.75-1.07,2.57h0l.42,1.19-.54.31-.43-.22c-.08-.2-.17-.4-.26-.6s-.09-.26,0-.33a.42.42,0,0,1-.06-.69c-1.38-1.11.51-1.92.38-2.92a.08.08,0,0,1,0,0,3.52,3.52,0,0,1-.51.19l-.08,0a2.8,2.8,0,0,1-.29,1.52l-.42-.18c-.06.14-.13.27-.19.4a1.32,1.32,0,0,0-.53,1.06.61.61,0,0,1,.13,0,2.18,2.18,0,0,1,.85,1.79c.15,1.52.8,1.82,2,1,1,.61.89,1.44.49,2.33a1.57,1.57,0,0,1-1.45,1c-1.42-.73-1.42-.73-4.1.26l.68-1.74c-.14-.32-.61-.35-.65-.75l-.84-.35a1.7,1.7,0,0,1-.3-1.64l.11-.35a1.65,1.65,0,0,1-1.29,0c-.83-.29-1.22,0-1.26.89a2.73,2.73,0,0,1-.06.5,1.73,1.73,0,0,1,.68.93,1.08,1.08,0,0,0,0,.18c1.12-.2,1.3,1.08,2.06,1.44a1.36,1.36,0,0,0,.29,0c.51.27.49.7.36,1.17a2.38,2.38,0,0,1-.37.58c-.65.25-1,1-1.6,1.38a13.5,13.5,0,0,0,2.2.17,2.33,2.33,0,0,0,.08-.36c.27-.52.65-.75,1.22-.48a.24.24,0,0,1-.06.38h.18l.22.16c1.36-.06,2.72.18,4.08.09l1.93.08c.29.16.23.37.09.59-1.38.6-2.84.4-4.27.48,0,0,0,.07.06.11-.31,1.47-1.4,1.07-2.36,1a.87.87,0,0,1,.44-.9l-1.24-.23-.21.17h0a.22.22,0,0,1-.14.24c-.08,0-.14,0-.16,0L207,133l-.22-.1a.73.73,0,0,1,.07.86l-1.8-.67a3.17,3.17,0,0,1-.46.33,1.81,1.81,0,0,1-.33.2,2.16,2.16,0,0,1-.67-.58l-.37,0c-.72-.06-1.44.15-2.17.09l-1.09-.06a2.29,2.29,0,0,1-.93-.2c-.18.94-1.46.65-1.75,1.48.69-.16,1.41.07,1.31.75s-.86.31-1.36.22c-4.61,0-9.21,0-13.82,0a1.85,1.85,0,0,1-1.57-.44l-.73.2h0a2.38,2.38,0,0,1-2.17.12c-4.49-.14-9,.18-13.47-.29-6.86.25-13.71.4-20.58.2-7.1-.22-14.21,0-21.31-.1a64.37,64.37,0,0,1-9.61-.63l-.73.2-1.22.16c-.28-1.84-1.4-1.8-2.54-1.7a2.8,2.8,0,0,1-.46.65,3.72,3.72,0,0,1-.85-.31c-.36-.25-1.27.18-1.06-.73a.77.77,0,0,1,.37-.5,1.82,1.82,0,0,1,1.74-1.89l.58,0a5.92,5.92,0,0,1-1.66-.44l-.14.13c-.75.44-1.47,0-2.2-.09h-.46l-.3,0a.23.23,0,0,1-.09.11c-.6.49-1.2.07-1.8,0l-1.67-.33c0-1.07,1-.6,1.51-1-.5-.5-1.29-.13-1.65-.71.38-.76,1.12-.53,1.74-.68-.34-.22-.82-.33-1-.82a.49.49,0,0,1,0-.12l-.92-.07a3.58,3.58,0,0,1-1.92-.11l-.26.22a1,1,0,0,1-.46,0l-.49-.06c-.57.08-1.18-.39-1.7.15l-.24,0,.57.25.26.15c2.4.77,2.49,1.1.83,2.86h0c-.12-.35,0-.9-.67-.77a.92.92,0,0,1-1.25.53c-.08-.21-.15-.42-.22-.63-.51-.83-1.2-.5-1.86-.27s-1,.06-1.45-.13c-.07-.59.44-.53.76-.68.65-.11.76-.66.94-1.15a.56.56,0,0,1,.33-.42,30.56,30.56,0,0,0-4.49.21l-1.19-.31c-.42-.78-.42-.88.31-.92,1.12-.07,2.24-.18,3.36-.14a1.62,1.62,0,0,0,1.28-.32,2.1,2.1,0,0,1-1.26-.12l-4.82.21-.48,0-1.19-.3a2.73,2.73,0,0,0-.51-.14,1.47,1.47,0,0,1-.15.34.94.94,0,0,1-1,.35l-1,.19c-.08-.21-.17-.41-.26-.62l-1.14-1c.28-.33.57-.65.86-1a.82.82,0,0,0,0-.27c-.08-.09-.15-.18-.23-.26a.92.92,0,0,1,0-.19c-.59-.66-1.73-.61-2.24-1.39-.18-.28-.7-.4-.48-.88a.72.72,0,0,1,.14-.2L77,119.16h0l-.54.33-3.57-.38h0l-.25.24L71,119.09l-.56.29a1.27,1.27,0,0,0,.25.22c.75.4,2.36-.73,2.18,1.28-1-.1-2,.94-2.89-.16a.85.85,0,0,1-.41-1.31.73.73,0,0,1,.09-.13l-.9-.11a9.07,9.07,0,0,1-2.8-.11,21.72,21.72,0,0,1-4.7,0c0,.49.5,1-.19,1.43-.67-.22-1.23-.53-.95-1.4a.67.67,0,0,1,.06-.12l-.77-.06-.52.32-.23,0-.12.32-.6.22-1.42-.15a1.1,1.1,0,0,1,.2-.57,10,10,0,0,0-1.64.07l-1.18-.23h0c-1.11.41-2.28-.13-3.4.2l-.23-.19-4.84.1a2.09,2.09,0,0,0-.22-.2c.3-.81,1-.56,1.54-.53a13.08,13.08,0,0,0,3.31-.19.63.63,0,0,1,.06-1,11.19,11.19,0,0,1,2.65-.1,18.61,18.61,0,0,1,6.29-.69,10.08,10.08,0,0,0-4-.85l-.48,0c-.78-.26-.5-.72-.17-1.12a5.84,5.84,0,0,1,1.24-1.08c1.1-.36,2.2-1,3.34-.09a.5.5,0,0,0,.05.13c.26-1.44-1.25-.46-1.53-1.15.77-1,2.48.34,3.1-1.16-1.28,0-2.64.41-3.56-.93a30,30,0,0,1-5.76-.32l.26-.24a46.39,46.39,0,0,1,5.53.08c1.84.07,3.69-.38,5.53,0l1.21-.13.38.08c.1-.51.84-.88.56-1.45.66-.13,1.43-1.19,1.87.25a.86.86,0,0,0,.78-.69,1.07,1.07,0,0,1,.49-.33.64.64,0,0,0,.37,0,2.09,2.09,0,0,1-.2-.22h0a.7.7,0,0,1-.71-.33h0l-1.45-.08-.78,0a.32.32,0,0,1-.2.45c-1.69.11-3.33-.41-5-.48,0,0,0,0,0,.07-.42.75-1.15.57-1.79.55-1.83-.07-3.66-.21-5.48-.29-2.13-.35-4.32.37-6.42-.36l-.17,0c-1.08.58-2.18-.11-3.26-.18-2.34.07-4.62-.53-6.95-.64-.4-.14-.64-.33-.21-.72a27.83,27.83,0,0,1,4.83.12,23.64,23.64,0,0,1,6,.21h0l3.36-.23a23,23,0,0,0,4.83.18c.65-.14,1.31-.44,1.94.06a.52.52,0,0,1,0,.17H58a7.24,7.24,0,0,1,1.73-.39c1,.17,2.19-.19,3.12.57h0a1.22,1.22,0,0,1,.87-.22,2.35,2.35,0,0,1,1.07-.26,1.15,1.15,0,0,1,.78.4l.08.15,1.25,0a8.81,8.81,0,0,1,1.7-.33c.78.11,1.63-.34,2.37.23l.09.09h0l0,0,.31-.13c.86-.52.89-1.79,1.94-2.18a2.48,2.48,0,0,0-2.36-.77.63.63,0,0,1-.16.24,1.6,1.6,0,0,1-1.62-.07l-1.66-.34a3.8,3.8,0,0,1,.06-2.14c-1,0-2.06-.2-3.08-.35a1.16,1.16,0,0,1-.24.91c-.44.34-.94.56-1.38.11-.26-.26-.35-.56-.12-.78l-.25,0c-.92,0-1.85,0-2.76-.16a6.68,6.68,0,0,1-1.1,1.5c-1.25.64-1.33-.17-1.33-1.07a3.61,3.61,0,0,0,.16-.42,2.15,2.15,0,0,0,.51-.37l-1.86-.27a.78.78,0,0,1,.29-.78l1.19-.1,1,0a3.8,3.8,0,0,0,.15-.51l.35,0a2.79,2.79,0,0,1,.41.45,10.14,10.14,0,0,1,2.4,0,1.89,1.89,0,0,1,1.27.44.93.93,0,0,0,.05.1l1.59-.13A6.13,6.13,0,0,1,67,98.54c.35,0,.71,0,1.06.09-.78-.44-1.68-.77-2-1.71l-.15.21c-1.28-.26-2.11-1.3-3.24-1.81.46-1.51,1.12-.09,1.67-.08a2.69,2.69,0,0,1,1.66.8.26.26,0,0,1,.2-.18l.25-.22a6.14,6.14,0,0,1,1.11-.19,2.61,2.61,0,0,1-1.08-.3l-.71-.28c-.3-.15-.21-.35-.06-.56,1.19-.63,2.44-.2,3.67-.23a3.73,3.73,0,0,1,1.79.41l.27.15.85-.12c0-.55,0-1.14.88-1,.57,0,1.2.3,1.8-.15A2.26,2.26,0,0,0,73,92.77a14,14,0,0,1-4.91-.85c-.13,1.27-.75,1.79-2.06,1.23l-.71-.53-.21-1.29a.51.51,0,0,1-.09-.65l.24-.36a1.45,1.45,0,0,1,.28-1.86c-.23-.06-.47-.13-.71-.18a2.19,2.19,0,0,1-.68,1.22C64,90.83,63,91.7,62.33,92.72l-.27.42-.81,1.1-.67.1c0-.09-.11-.17-.16-.25a1.34,1.34,0,0,1,.29-1.29c-.37.33-.61.89-1.23.72l-.65.1-.25-.18-.17,0a1.64,1.64,0,0,1-1.38-.9c0-.09,0-.18-.05-.27a2.32,2.32,0,0,0-.94.76.89.89,0,0,1,.31.11,1,1,0,0,1,.28,1.1c-.18.25-.36.51-.55.76-2,1.4-.94-1.32-1.86-1.39a11.65,11.65,0,0,1-3.53-1.43c.05-.86,1-1.62-.88-2.25-1.35-.45-1-.78-.45-1.12a19.14,19.14,0,0,0-2-.45L42,88.11a2.83,2.83,0,0,1-2.41.13h0a3.29,3.29,0,0,1-2.61-.1c-.74-1.14-.28-2,.61-2.79a1.8,1.8,0,0,1,1-.36,1.54,1.54,0,0,1,.65.23h0l.44-1,.27-.86h0V81.19h0a2.15,2.15,0,0,1-1.25-1,.93.93,0,0,0-.08-.2,8.12,8.12,0,0,1-1.08,1.19C36,83.46,33.55,84.24,31.25,85.24ZM63.46,99.81H63.4a0,0,0,0,1,0,0l0,.06Zm1.55,9.9,1.07-.12.11-.19c0-.24-.07-.49-.11-.73-.6,0-.79.61-1.15,1Zm7.46,8.42Zm179-59.06a.75.75,0,0,1-.59-.25.83.83,0,0,0,0-.22l0,0a.34.34,0,0,1-.31-.05,4.51,4.51,0,0,1-.54.53,1.48,1.48,0,0,1-.28.28.79.79,0,0,0,.15.36c.15.17.11.3-.09.38s-.13.27-.19.41A9.41,9.41,0,0,0,251.44,59.07ZM173.14,7.59v0l0,0Zm10-3.54-.3,0a1.59,1.59,0,0,0,.3.06ZM167.87,7l.19,0V6.89Zm6.95,2a3,3,0,0,0,.52-1.73h-.21a2.77,2.77,0,0,1-1.15.63,1.09,1.09,0,0,1,0,.83A.87.87,0,0,1,174.82,9Zm-25.74-.72a1.41,1.41,0,0,1,0-.88.31.31,0,0,1,.07-.09c-.61.16-1-.11-1.22-.74l0-.12h0l-.24,0h0c-.64,1.54-2.12,1-3.26,1.27l-.69-.07-.25.22a1.4,1.4,0,0,1-1.85-.31l-3.17-.64A36.54,36.54,0,0,1,130,6.59a2.15,2.15,0,0,1-1.64.23c-1.86.15-3.72,0-5.59-.05a2.69,2.69,0,0,0-1.3.46,4.76,4.76,0,0,1-3.27.44,2.65,2.65,0,0,0-.54-.25c-1,.84-2.19.74-3.39.73-.72,0-1.45.07-2.17.12a3.65,3.65,0,0,0,1.87.28l3,.36a17.88,17.88,0,0,0,2.32,0,4.84,4.84,0,0,1,.85,0l.38,0a9.66,9.66,0,0,1,3.55.2A7.25,7.25,0,0,0,126,8.81a4.64,4.64,0,0,1,2.2-.47,3.25,3.25,0,0,1,1,.23l.19-.06c1.45-.43,2.84.22,4.25.24a1.81,1.81,0,0,1,.7.23c-.08-.13-.1-.23,0-.31a.33.33,0,0,1,.25-.1l.66,0,.38.1a8.53,8.53,0,0,0,2.36.24,2.13,2.13,0,0,1,.25,0c-.06-.14-.06-.25,0-.31a.36.36,0,0,1,.28-.07l1.13.1,3.75.36.51.13a1.49,1.49,0,0,1,.52-.33c1.07-.28,2.21.1,3.28-.29A2,2,0,0,1,149.08,8.32ZM131.55,1.13v0l0,0ZM86.92,4.44l0-.06-.07,0Zm-42.59.43h0a0,0,0,0,0,0,0ZM57.61,2.72h0ZM46.24,5.21l0,0,0,0Zm3.4,6.53a2.28,2.28,0,0,0-.25-.42h0l0-.05H49.3l0,.05A.79.79,0,0,0,49.64,11.74Zm12.17-6c.13,0,.27.06.4.11a1.06,1.06,0,0,0,0-.19ZM81.65,4.51h0l0,0Zm67.93,8.43A5.31,5.31,0,0,1,150,12a5.81,5.81,0,0,0-.72.05A1.79,1.79,0,0,1,149.58,12.94ZM160.3,1.57l0,0Zm-66-.7a.74.74,0,0,0,.26.24Zm-31,11.83a1.15,1.15,0,0,0-.27-.14,1.5,1.5,0,0,1,0,.2A1.24,1.24,0,0,1,63.37,12.7Zm30.79-4c2.22-1,4.18.32,6.25.68a1.22,1.22,0,0,1,1.78.17h0a1,1,0,0,1-.08-.26c1.94-1.56,4.18-1,6.35-.85a2.09,2.09,0,0,1,.78.48.72.72,0,0,1,.2-.59l.27-.13a1.91,1.91,0,0,1-1.39-.42,2.35,2.35,0,0,1-1.71,0c-2.48-.24-5.11.58-7.37-1.09a2.14,2.14,0,0,1-.42-.43,2.27,2.27,0,0,1-1.37,1.34c-1.06-.52-2.11-1.13-3.3-.37h0c-.23.21-.41.17-.56-.1l-.31-.75a1.74,1.74,0,0,0-.22,0c-1.45.48-2.83,1.29-4.45.74A5.18,5.18,0,0,1,88.06,7l-1.65.77c-1.21-.46-2.23-1.44-3.66-1.2h0c0,.48-.1.76-.72.55l-2.55-.33c-1.88,1.26-4,1.17-6,.79-1.59-.14-3.29.57-4.74-.6l-.1-.26,0,0-.24,0-.25,0c-1.94.71-4-.33-6,.53L60.84,7c-.65.15-1.43-.34-2,.41h0l-1.15-.12h0c-1.09.67-2.23,0-3.34.11l-2.69,1-.21,1.19h0a1.45,1.45,0,0,0,1,.75,2,2,0,0,0,.41-.21c-.13-2,.66-2.48,2.3-1.36a4.7,4.7,0,0,1,1.44,1.9c1.69-1.93,3.34-1,5,.22,0-.06,0-.1,0-.17A5.41,5.41,0,0,1,64.35,10a4.12,4.12,0,0,1,2.3.54l.27.3A2.85,2.85,0,0,1,71,10.64a1.81,1.81,0,0,1,.11-1.5,1.36,1.36,0,0,1,.76-.57,2.45,2.45,0,0,1,1-.05A1.67,1.67,0,0,1,74,9.27a2.2,2.2,0,0,0,.52,1,2.81,2.81,0,0,0,.39-.19,4.29,4.29,0,0,1,4.65-.25c.34.12.68.26,1,.4a2.5,2.5,0,0,1,1.56.42,3.09,3.09,0,0,0,.67,0h.24c1-1.36,1.91-.4,2.81.58l.2.37,2-1.08c1.76-1.07,3.36-.66,4.9.18A2.34,2.34,0,0,1,93,9.87,2.25,2.25,0,0,1,94.16,8.72Zm12.54,4.57a.55.55,0,0,1-.2-.2l-.22.32ZM130.1,12c0-.24.13-.49.15-.74a.79.79,0,0,1-1.09-.1c-.54.42-.09,1.16-.24,1.7A1.93,1.93,0,0,1,130.1,12Zm37.73-3.14.09.16h0l-.11-.16a3,3,0,0,0-1.27-1.31,2.51,2.51,0,0,1-1.48-.39c-.49,0-1,0-1.49,0-.38.15-.77.27-1.15.44a4.89,4.89,0,0,1-2.17.45h0c-.27.54-1,.63-1.48,1l.1.1c.27.28.69.38.93.71l.05.09a5.37,5.37,0,0,0,2.29-.15h0a1.62,1.62,0,0,1,.69-.68A12.8,12.8,0,0,1,167.83,8.82Zm14.79-.05h0c.78-.81,1.72-.22,2.59-.31l.7.17,1.21.09c-.13-.31-.25-.62-.37-.93a1,1,0,0,1-.69-.61,6,6,0,0,1-1.24.34,1.55,1.55,0,0,1-1.19-.37,1,1,0,0,0,.1-.55,3.37,3.37,0,0,1-.23.4l-.08.07h.12l-.23.09-.16.14a6.75,6.75,0,0,1-.84.26l-.06,0L182,8.82A3.35,3.35,0,0,1,182.62,8.77Zm7.54,1.62h0Zm-153,52.44a6.57,6.57,0,0,1,.61-.68A7,7,0,0,0,36.08,61l0,0L36,61a1,1,0,0,1-.33,1,1.14,1.14,0,0,1,.15.16.34.34,0,0,1,.1.13l1.24.55S37.19,62.84,37.19,62.83Zm201-40.52a1.88,1.88,0,0,1,.24.18c0,.06.09.1.13.15l1.22-.41s0-.06,0-.09c.48-.64.07-.73-.29-.84a2.78,2.78,0,0,1-.21.27A2.5,2.5,0,0,1,238.16,22.31Zm4.92,6.25a2.88,2.88,0,0,1,.45.19l-.08-.24Zm.58,70a3.51,3.51,0,0,0-2.21,1.3c.65.18,1.44,0,2,.45A1.54,1.54,0,0,1,243.66,98.54Zm-34.44,21.34a.43.43,0,0,1-.05.12c.19-.22.35-.51.65-.46a.15.15,0,0,0,0-.07,1.68,1.68,0,0,1,.33-.62,3.5,3.5,0,0,1-1.25,0A1.36,1.36,0,0,1,209.22,119.88ZM41.69,86.71h0Zm1.43-4.42-.28.35c-.34.58-.62,1.23-1.41,1.24a1.23,1.23,0,0,1,.14.31c0,.1,0,.2,0,.29s0,.23,0,.34a3.86,3.86,0,0,0,.67-.85C42.53,83.41,43.19,83,43.12,82.29ZM206,34.34a1.38,1.38,0,0,1-.14-.27c0-.12,0-.23,0-.34a2.51,2.51,0,0,0-.34.65,2.34,2.34,0,0,0,0,.26l.33.24Zm-3.7,13.5a12.82,12.82,0,0,1,2,.13c-.26-.38-.53-.75-.8-1.12l-1.4-.47a3.49,3.49,0,0,1,.15.34A2.52,2.52,0,0,1,202.29,47.84Zm3,65.37s0,0,.06,0h-.07A.09.09,0,0,1,205.27,113.21Zm13.18-1.54v0h0Zm-115.18-2.39s0,0,0,0l0,0ZM87.9,121.47a.84.84,0,0,0,0-.3l-.39-.1a1.06,1.06,0,0,0,0,.53v.05A1.22,1.22,0,0,0,87.9,121.47ZM218.7,22.2a10.47,10.47,0,0,1-1,.68l1.7.22a6.8,6.8,0,0,0,1.19,0c0-.1,0-.2-.05-.3-.18-.43,0-1-.33-1.36a2,2,0,0,0-.1.21c-.29.46-.63.82-1.24.67Zm20,63.38h0Zm-.59-3a1.46,1.46,0,0,1-.25-.76,1.49,1.49,0,0,0-.07.47C237.83,82.5,238,82.56,238.14,82.56ZM217.4,91.25c.1-.26.19-.51.29-.76l0,0a1.89,1.89,0,0,1-1.79-.1,2.46,2.46,0,0,1-.67-.73.51.51,0,0,1-.15.21,1.58,1.58,0,0,1-.56.13,6.71,6.71,0,0,1-1.41-.24,2.91,2.91,0,0,1-.56-.15,1.52,1.52,0,0,1-.34-.22c-.37.62-1.18.92-1.41,1.64a31,31,0,0,1,6.13.9,2.17,2.17,0,0,1,.24-.29Zm-36.84,35.68Zm-128.41-44-.3.79a3,3,0,0,0,1.56.59c.05-.37.27-.68.89-.88a1.54,1.54,0,0,1,1.23.63l.49-.13a.74.74,0,0,0,.34-.23h0a.6.6,0,0,0,.12-.28,11.08,11.08,0,0,1,.34-1.16,7.83,7.83,0,0,1,.81-1.41h-.27a1.06,1.06,0,0,0-.16.19.78.78,0,0,1-.9-.16,2.79,2.79,0,0,1-.7-.08A2.35,2.35,0,0,1,55,80.4a.86.86,0,0,1-.67.33,1.75,1.75,0,0,1-1.15-.54L52.92,80a2.92,2.92,0,0,1-.34.13.87.87,0,0,1-.72.27l-.07-.1-.42.06a2.14,2.14,0,0,0-.75.16,1.22,1.22,0,0,1-.06.62A2,2,0,0,1,49,82.28l-.07,0a2.79,2.79,0,0,0,0,.82c.17.5.17,1,.36,1.54h0l0-.15a1.89,1.89,0,0,1,.24-.65C50.26,83,50.61,81.27,52.15,82.89Zm138.3-52.25a1.39,1.39,0,0,0,.19-.06c.33-.07.7,0,1,0a5,5,0,0,0,.35-.43.68.68,0,0,1-.2-.24c0-.28,0-.59-.14-.83a1,1,0,0,1-.72.69l0,0a.83.83,0,0,1-.21.49l-.45.23A1.8,1.8,0,0,0,190.45,30.64ZM202.19,30l-.32.37-.13.07.31.14a.45.45,0,0,1-.13.52h0c0,.86-.54,1.16-1.11,1.47l.11.13a2.19,2.19,0,0,0,.31.44,1.08,1.08,0,0,0,1.2-.42c.38-.49.65-.49.88-.33.33-.78.4-1.7.72-2.49-.21-.14-.34-.44-.33-1,0-.12.09-.24.14-.37l-.2.26C202.8,28.74,202.59,29.46,202.19,30Zm23,24.38a2.76,2.76,0,0,1,.08,1.07c.74.17,1.36.72,2.13.83a.39.39,0,0,0,.2.08l0-.45a8.55,8.55,0,0,1-.95-.76l-.09-.09C226.07,55.32,225.87,55.21,225.19,54.34Zm9.93-.7a.17.17,0,0,0-.18-.11l0,0h0v0A.27.27,0,0,1,235.12,53.64Zm2.14,13.84,0-.07,0,.08Zm-18,2.89a5.21,5.21,0,0,0-1-.4l-.22.12a2.42,2.42,0,0,1-.65.13c-.44-.09-.9-.15-1.35-.2a1,1,0,0,1-.72.49,1.94,1.94,0,0,1-.42-.17l-.39.48a.67.67,0,0,1,.12.06.89.89,0,0,1,.15.87,1.7,1.7,0,0,1-.1.14l.36.66,0,.14a6.09,6.09,0,0,1,1.35,0,1.41,1.41,0,0,0-.5-.64h0c-.36-2.13,1.6,0,1.84-1l.63-.07ZM182.25,119.5a2.16,2.16,0,0,0,.42-.44,3.42,3.42,0,0,0-.42.43Zm-90.14-3.86,0,0,0,0Zm-5.23-9.48h0a0,0,0,0,1,0,0l0,0Zm-1.61,4.12a1.44,1.44,0,0,1,0-.24.38.38,0,0,1-.3.28A2.09,2.09,0,0,0,85.27,110.28Zm74-83.18a1.09,1.09,0,0,1-.08.15,1.46,1.46,0,0,1,.24.17l.12-.1A1.93,1.93,0,0,1,159.24,27.1Zm13.65,2a2.13,2.13,0,0,0,.48-.51.8.8,0,0,1,0-.56.86.86,0,0,1-.63,0,2.13,2.13,0,0,1-.57.75A1.29,1.29,0,0,0,172.89,29.14Zm6.62-3.26c-.29.29-.56.62-.83.95.92-.12.7.52.72,1,.67-.57,1.19-.83,1.59-.76,0-.55-.07-1.07-.67-1.26ZM208.76,86.7a2.08,2.08,0,0,1-1.89.91,2.1,2.1,0,0,1-.92-.54,1.31,1.31,0,0,0-1,.81l-.48,0-.11,0-.54,1.25c-1-.14-.91-.89-1-1.53l-.07,0h0a1.43,1.43,0,0,1-.6.17l-.15,0c-.21.49-.67.6-1.22.56a1.22,1.22,0,0,1-.09.75l1.1.21h0A23.49,23.49,0,0,1,205,90a4.22,4.22,0,0,1,.61-.28l.88-.3c.83-.22,1.19-1,1.68-1.54A1.14,1.14,0,0,0,208.76,86.7ZM174,27.76a1.53,1.53,0,0,1,.41.23v0a.43.43,0,0,1,0-.07l-.28-.2Zm39.5,44.83-.21,0h-.16a1.08,1.08,0,0,1-.18.24c.11.85-.39,1.41-1.25,1.77l-.36-.19-.21-1.31c.07-.42-.2-.63-.5-.82-.16.09-.32.18-.47.28a1.06,1.06,0,0,1-.76-.52.76.76,0,0,1-.69.39l-1.1-.76c-.55-.2-2,.29-.89-1.18h0c-.76-.85-1.51-.37-2.25,0-.77.17-.83,1.1-1.41,1.47a1.33,1.33,0,0,1,.21.45,1.41,1.41,0,0,1-.61,1.33,1,1,0,0,1-1-.16h0l-.27.33a5.69,5.69,0,0,0-.42,1.13.5.5,0,0,1,.63.12c.61.39.32,1.11.59,1.62h0a1.81,1.81,0,0,0-.1.27,31.12,31.12,0,0,1,3.34-.28.67.67,0,0,1-.07.61l-.07.07a1.38,1.38,0,0,0,.87,1.1.52.52,0,0,0,.13-.06c.51-.4-.17-2.24,1.48-1.27h0l.42.17.85.29,0,.09a.2.2,0,0,1,.11,0c.25-.91,1-.95,1.78-1l.4,0a.74.74,0,0,0-.19-.56l.16-.33a.44.44,0,0,1,.16-.53c.56-.94,1.62-.7,2.44-1,.09-.2.18-.4.26-.6C213.82,73.6,213.7,73,213.48,72.59Zm-21.25,31.17Zm21.28-34a6.68,6.68,0,0,1-3.6-1.4,1.12,1.12,0,0,0-.76-.32,18.58,18.58,0,0,0,2.12,1.75l1.11.79.28-.36A.85.85,0,0,0,213.51,69.8Zm5.18-4.11v0s0,0-.07,0Zm-35.53,39.17a.19.19,0,0,1,0,.08h.09A.39.39,0,0,0,183.16,104.86ZM123.77,31.48l-.06.15c0,.06.06.12.08.18v0h0l.08-.09a1.41,1.41,0,0,1,.5-.26,3.26,3.26,0,0,1,.33-.71,3,3,0,0,1-.84.16l-.09,0A1.37,1.37,0,0,1,123.77,31.48Zm77,39.14c-.5-.33-.59-1-.91-1.44a3.5,3.5,0,0,1-1,1.3,3.93,3.93,0,0,0,0,.49c0,.14,0,.29.07.43l.26-.18a1.69,1.69,0,0,1,1.07-.38.59.59,0,0,1,.29.2ZM174.84,37.31a2.24,2.24,0,0,1-1.51.78c-.09.17-.17.34-.26.5a8.36,8.36,0,0,1,1.85-.33,2.33,2.33,0,0,1,.46-.37l.2-.07a1.49,1.49,0,0,1-.15-.45l-.17,0-.42-.11ZM101.78,45h0l-1,.11L97.59,45a3.37,3.37,0,0,0-.11,1c0,.53-.11,1-.58,1.32A4.51,4.51,0,0,1,97,48.47c0,.6-.06,1.2-.14,1.79A6.72,6.72,0,0,1,99,48c.08,1.3-.8,1.81-1.14,2.56l.94.15h0c.43-.69.87-1.37,1.36-2.16.61.68.33,2.15,1.7,2a1.72,1.72,0,0,0,.36-.09,6.31,6.31,0,0,1,.66-.78,1.63,1.63,0,0,0,0-.57.59.59,0,0,1-.09-.65c.66-1.24-1.43-1.31-1-2.44a1.48,1.48,0,0,1,.72-.61c1.14-.24,2.31-.71,3.26.43a.92.92,0,0,1,0,.16,1.71,1.71,0,0,1,.63-.53.85.85,0,0,1,.17-.06l-.78-.33c-1.28-.79-2.62.28-3.91-.14ZM168,48.44v-.09l-.87.49c-.15.06-.24,0-.28,0a.15.15,0,0,1,0-.09,1.7,1.7,0,0,1-1.33.33,2.7,2.7,0,0,0-1.3.12l0,.59a2.7,2.7,0,0,1,.11.71.88.88,0,0,1,.05.15h.16c.1,0,.19.08.29.12a1.94,1.94,0,0,1,.43-.74,3.7,3.7,0,0,1,.78-.19,10.4,10.4,0,0,1,2.59-.87A1.81,1.81,0,0,1,168,48.44ZM170.7,40a.08.08,0,0,0,0,0v0Zm-62.13,5.29c.44,0,.89,0,1.34,0a3.12,3.12,0,0,0,.44,0,6.47,6.47,0,0,1,.92-.43l.06-.1c-.59-.25-.6-1.39-1.58-1v0a.63.63,0,0,1-.25.61,1.35,1.35,0,0,1-.22.14Zm4.21.4,0-.07-.09,0ZM160.9,50.5a5.67,5.67,0,0,0,0,.93c.1-.15.19-.3.29-.43a1.5,1.5,0,0,1,.11-.13A1.85,1.85,0,0,1,160.9,50.5ZM127.06,43h0a.57.57,0,0,1-.15.44,6.15,6.15,0,0,1-.88.38,2,2,0,0,1-1.84.42c-.82.1-1.65.11-2.48.13a1.6,1.6,0,0,1,.44.42,1.29,1.29,0,0,1,.08.28c.63.27,1.1-.54,1.7-.45h0c.42.28.8.67,1.39.49.12.08.24.16.37.23v0h0a3.1,3.1,0,0,1,.69-.75,1.85,1.85,0,0,1,.25-.37,2,2,0,0,1,.5-.31,1.35,1.35,0,0,1,.13-.76l0-.07-.22-.09Zm-5.2,3.92c0,.13-.09.26-.13.39-.08.63-.57,1.37.25,1.72a1,1,0,0,1,.25-.13,1.29,1.29,0,0,1,.19-.32l.14-.14.15-.68h0C122.48,47.25,122.27,46.76,121.86,46.88Zm35.75,3.85a1.16,1.16,0,0,0,.44.05,1.48,1.48,0,0,0,.42,0,3.58,3.58,0,0,0,.2-.95C157.94,49.85,157.26,49.92,157.61,50.73Zm-6.5-1.25.08,0a1.27,1.27,0,0,1,.66.94,1.39,1.39,0,0,1,.33-.1,19.32,19.32,0,0,0-.44-2.39A2.85,2.85,0,0,0,151.11,49.48Zm30.62,20.21-.46.07c-.17.18-.28.49-.55.47-.06,0-.09,0-.14,0a1.21,1.21,0,0,1-.08,1.06c.15.09.29.17.43.27.28-.09.58-.27.79,0a1.08,1.08,0,0,1,.35-.1,1.28,1.28,0,0,1-.39-1.19c0-.17,0-.35.07-.51Zm-5.38,4.09a2,2,0,0,1-.29-.89,4,4,0,0,1-.72.35h-.07c.23.34.47.67.71,1ZM92.76,59H92.7s0,0,0,0A.1.1,0,0,1,92.76,59Zm34.55,14.58a.83.83,0,0,1-.43-.77l-.31-.12v0a.9.9,0,0,1-.63.66h0a7.1,7.1,0,0,0-1,.46l-.29.4a.68.68,0,0,1,.26.19A2.55,2.55,0,0,1,127.31,73.61Zm44.89-3.2h-.13l0,.11a.57.57,0,0,0,.34.16,1.66,1.66,0,0,1-.16-.21Zm-11.67,6.21-.16-.12-.23-.15a1,1,0,0,1,0,.17l.2.09Zm-40.18-7.05c.11-.48.41-.9.52-1.38-.12.44-.4.83-.52,1.28Zm40.2,4.7a.9.9,0,0,1,.51-.35,1.18,1.18,0,0,1-.71-.56s0,0,0-.06h0A2.93,2.93,0,0,1,160.55,74.27Zm-11.44.29a7.64,7.64,0,0,1,0-1.72,1.37,1.37,0,0,1-.42-.29l0,0a1.63,1.63,0,0,0-1,.16,2.71,2.71,0,0,0,.29.43,6.37,6.37,0,0,1-.11.63Zm4.36-1.36a1.28,1.28,0,0,1,.43.64s0,.08,0,.12l.53-.7a.64.64,0,0,1-.08-.14c-.09-.15-.17-.32-.25-.47a1.52,1.52,0,0,1-.51.53Zm-1.74.11h0a1.24,1.24,0,0,1-.33.69.33.33,0,0,0-.1.06l0,.1A1,1,0,0,0,151.73,73.31ZM173,71h-.06a1,1,0,0,0,0,.17A1.09,1.09,0,0,1,173,71Zm-20.66,5.31h.17l-.16,0A0,0,0,0,0,152.32,76.33Zm19.23.41a2.25,2.25,0,0,1,.79.42h.32a.62.62,0,0,1-.23-.33,2,2,0,0,1-.81-.42A1,1,0,0,1,171.55,76.74Zm2.11.45a1,1,0,0,0-.34,0Zm.38-4.46a1.33,1.33,0,0,1,.41-.75h0C174.15,72.16,173.84,72.34,174,72.73ZM107,57l0,.09a1.28,1.28,0,0,1,0-.19A.42.42,0,0,1,107,57Zm-28,2.1h0s0,0,0,0Zm90.63,18,.21-.25-.07,0-.18-.25a2.87,2.87,0,0,1-.08-.38,4.59,4.59,0,0,0-2.07-1.56c.52-.91,1.26-.43,1.83-.59a.79.79,0,0,1,.13-.39,1.49,1.49,0,0,0,.61-1.18.84.84,0,0,1-.93-.44l-.23-.51s0,0,0,0a2.7,2.7,0,0,1-1.09,1.27c.52,1.13-.2,1.65-.9,2.24a2.81,2.81,0,0,1,.56,1c0,.06-.05.12-.07.19a1.05,1.05,0,0,1,.29.39,2.66,2.66,0,0,1,.53-.23l0,0,.87-.43a1.11,1.11,0,0,1,.05.59,1.56,1.56,0,0,1,.37.42l.08.16Zm5.14.11.06-.08c.51-.93.7-2.08,1.44-2.84a1.17,1.17,0,0,0-.26,0,.72.72,0,0,1-.55.76c-.91-.1-1-.64-1-1.22a2.57,2.57,0,0,1-.21.52,3.38,3.38,0,0,0-.49,1.44c.43-.38.7,0,.95.42a1.1,1.1,0,0,1-.77,1Zm3.47-.64a.63.63,0,0,1-.5-.16.69.69,0,0,1-.11.13,1.46,1.46,0,0,1-.11.41,1.73,1.73,0,0,1,.21.34A.86.86,0,0,1,178.21,76.58ZM87.85,63.31h0c.79.56,1.16,0,1.54-.56h0l0,0a2,2,0,0,1-.76-.34,1.11,1.11,0,0,1-.53,1A2.4,2.4,0,0,1,87.85,63.31Zm4.31,3.53h0a2.06,2.06,0,0,1,0-.91,2.57,2.57,0,0,1,.48-2.22,3.59,3.59,0,0,1,.09-.86,4.42,4.42,0,0,0,.15-.48c-.09.16-.2.32-.28.48L92.3,63l-.42-.16-.21-.53-.1.08c-.11,1.31.94,2.57.18,3.9-.3.63-.9.79-1.47,1a.5.5,0,0,0,.15.55s.23,0,.43-.16a2.69,2.69,0,0,1,.39-.5A1.47,1.47,0,0,1,92.16,66.84Zm86.53,9.44a4.89,4.89,0,0,1,.54,0l.21-.12a.94.94,0,0,1-.63-.26,1.59,1.59,0,0,1-.33.49,1.1,1.1,0,0,0,.21-.14Zm-.78-7.36a5.72,5.72,0,0,1-.69.44h0a.79.79,0,0,1,0,.34A1.07,1.07,0,0,1,177,70a4.25,4.25,0,0,0,1.21-1A.61.61,0,0,0,177.91,68.92ZM134.57,50.24c-.16.23-.3.51-.47.74a1.92,1.92,0,0,1,1,0l0,0a.78.78,0,0,1,.05-.38.73.73,0,0,1-.6-.23A.17.17,0,0,0,134.57,50.24Zm46.55,23.91a1.27,1.27,0,0,1-.2-.53,1.15,1.15,0,0,0-.54,1.07l0,.15.08,0s0-.07,0-.11A.93.93,0,0,1,181.12,74.15ZM154.75,49.68a1.36,1.36,0,0,0-.07.25c.13-.17.27-.34.41-.5a.28.28,0,0,0-.24-.1l-.17.05A1.09,1.09,0,0,1,154.75,49.68Zm-2.67-2.19h0l0,0Zm-34.36,1.38.08,0a.65.65,0,0,1,0-.13Zm-33.58,14h0l1,.16.23-.3c-.21-.55.17-1,.34-1.48l-.09.07c-.25.15-.48.32-.72.49l-.75,1.06h0Zm73.5-15.17q-.19.22-.36.45a2.87,2.87,0,0,1,.7.19,2,2,0,0,1,.09-.22.78.78,0,0,1-.4-.3A.53.53,0,0,1,157.64,47.72Zm-32.15-1.89a.81.81,0,0,1-.29.16,1,1,0,0,1,.13.73A2.2,2.2,0,0,0,125.49,45.83Zm-10.85-1.45c.24.73,1.69,1.4.33,2.22a1.69,1.69,0,0,1-.26,2.22,1,1,0,0,1,.37.24,1.69,1.69,0,0,1,.42-.13c.64-1.13,1-2.45,2-3.36l-.06,0a1,1,0,0,1,.2-.79l-.15,0c-.41.13-.69-.16-1-.42A9.52,9.52,0,0,0,114.64,44.38ZM85.8,49.81l0,0a1.64,1.64,0,0,1,.6-.2.41.41,0,0,1,.13.08,1.47,1.47,0,0,1,.52-.48,5.07,5.07,0,0,1-.76-.22,1.48,1.48,0,0,0,0,.19A.91.91,0,0,1,85.8,49.81Zm.36,17.92a2,2,0,0,0,.77,1,.57.57,0,0,1,.41-.53A2.36,2.36,0,0,0,86.16,67.73Zm42.11-20.51v0l0,0ZM89.1,49.46A.67.67,0,0,1,89,49.4a.57.57,0,0,0,0,.13Zm95.77,24.45c0-.13,0-.25,0-.37a1.13,1.13,0,0,0-.1-.5,2.48,2.48,0,0,1-.43.59c-.38.35-.8.66-1.17,1-.83.51-1,1.62-1.88,2.11a3.89,3.89,0,0,0,1.13.06l.59-.26a.27.27,0,0,1,.3,0c.09.06.12.11.11.14l.89.42a2,2,0,0,1,1.13-.69c.1-1.15-.3-1.75-2-.83,0-1,.65-1.41,1-2A3.35,3.35,0,0,0,184.87,73.91Zm-38.28-32a.14.14,0,0,1,0-.06h0a.08.08,0,0,1,0,0Zm-12.2,1.82a3.86,3.86,0,0,0-.75.76.94.94,0,0,1-1.12.25s0-.1-.06-.16a4.64,4.64,0,0,0-2,1.91c-.22,0-.39.28-.64.14l-.05,0a.5.5,0,0,1,.11.1,2.94,2.94,0,0,1-.84,1.18.81.81,0,0,1,.38,0l0,.07c.44-.12.89-.22,1.34-.33a2.42,2.42,0,0,1,.34-.63c.62-.57,1.21-1.28,2.17-.73a3.4,3.4,0,0,1,.44-1.81,2,2,0,0,1,.72-.73Zm-29.14,3.77h0s0,0,0,0,0,.13.06.16A1,1,0,0,1,105.25,47.49Zm45.34-7.29,0,0a3.15,3.15,0,0,1-.72,1.73l0,0a1,1,0,0,0,.39.18l1.19-.18a3.9,3.9,0,0,1,0-.76,4.15,4.15,0,0,0-.22-1.08l-.63.09v0ZM190,74.65a.27.27,0,0,1,.05-.11,2.26,2.26,0,0,1-1-.84,1.31,1.31,0,0,1-.15.5,1.75,1.75,0,0,1-.24.23l.4.62a2.59,2.59,0,0,1,.48-.38A1,1,0,0,0,190,74.65Zm-19.45-32,0,0v0ZM192,77.33a4.78,4.78,0,0,0-.48-.19,6.18,6.18,0,0,0-.86,0c-.31,0-.62,0-.94,0a1.48,1.48,0,0,0,.92.53A7.61,7.61,0,0,1,192,77.33ZM66.9,69.6c-.11.21-.22.43-.35.64a.26.26,0,0,1,0,.09,1.56,1.56,0,0,1,.91-.35,1.4,1.4,0,0,0,0-.58l-.05,0ZM171.26,48.34l-.17.12a9.58,9.58,0,0,1-1.86.6,1.12,1.12,0,0,1,.28.81,1.87,1.87,0,0,1,.46.29l.26-.36A5.52,5.52,0,0,1,171.26,48.34Zm3.58-11.14h0l0,.1ZM65.21,70.63c0,.13.08.27.13.4a1.35,1.35,0,0,1-.11.46,5.72,5.72,0,0,1,.39-.57,1,1,0,0,1-.36-.38ZM199.88,82.51h-.17l-.34,0a.86.86,0,0,1,.15.62,1,1,0,0,0,.37-.12A2.69,2.69,0,0,1,199.88,82.51Zm-2.73-7.57a1.09,1.09,0,0,1,.08-.15h-.16a5.62,5.62,0,0,0-.81.72c0,.18,0,.37,0,.56a3.15,3.15,0,0,1-.76,1.24l.11,0,.17,0a1.67,1.67,0,0,1,.55-.16.8.8,0,0,1,.31,0,2.72,2.72,0,0,1-.11-1.69A.89.89,0,0,1,197.15,74.94ZM179.34,48.68l-.41-.29a1,1,0,0,0-.38.22,7.25,7.25,0,0,1,.76.22l.05,0A.47.47,0,0,0,179.34,48.68Zm0-3.51a1.56,1.56,0,0,1-1.15-.47c-.17-.28-.54-.44-.66-.75,0,.52-.33.69-.77.75a6.83,6.83,0,0,0-1.75-.15,1.5,1.5,0,0,1-.07.51.65.65,0,0,0,0,.13l.86.29c-.25.39-.49.8-1,.84v.08a.43.43,0,0,1-.4.29c-.78-.59-1.56-.95-2.3.07a1.68,1.68,0,0,1-.23,1,1.81,1.81,0,0,1-.29.33,3,3,0,0,1,.34-.26l.29-.34a.23.23,0,0,1,.27,0c.07.08.09.13.07.15a.87.87,0,0,1,.14.12.9.9,0,0,0-.16-.28,8.35,8.35,0,0,0,4-1.53c.74-.62,1.36.28,1.53,1.25l0,0c.26-.58.6-.89,1-.94a3.29,3.29,0,0,1,.17-.5C179.24,45.56,179.84,45.5,179.39,45.17Zm-77.9-9h0ZM64.68,72s0,.06,0,.09h.11a3.27,3.27,0,0,0,.25-.36A1.09,1.09,0,0,1,64.68,72Zm89.89-42.82a3.19,3.19,0,0,1-.45,1.44c-.23.32-.45.64-.69.93a4.76,4.76,0,0,1,1-.36,2.16,2.16,0,0,0,.47-1.31,1.52,1.52,0,0,1-.1-.55s0-.09,0-.13Zm46,49.52-.45,0A.64.64,0,0,0,200.53,78.73Zm-47.44-46.8-.15.16a.53.53,0,0,1,0,.12h0c0-.05,0-.09.05-.13Zm-21.64-.21a4.57,4.57,0,0,1-.23,1.18,3,3,0,0,1,.5-.12.79.79,0,0,0,.29,0C132.45,32,132,31.83,131.45,31.72ZM61.5,68.82a2.88,2.88,0,0,1-.43.56l-.28.25,0,.05c.19.55-.14,1.12,0,1.67l.38.45v.06l0,0c.25-.84,1.15-.75,1.77-1a1.29,1.29,0,0,1,.21.06,1.84,1.84,0,0,0,.2-1.66l-.27,0a5.12,5.12,0,0,1-.54-.1c-.14.19-.33.18-.58-.08l-.17-.13Zm139.35,8.42c.07-.19.15-.38.23-.58-1-.66-1.44.53-2.2.66l-.22.12C199.39,77.4,200.12,77.33,200.85,77.24Zm2.2-7.21.93-.42a2.18,2.18,0,0,0,1.11-.51.94.94,0,0,0-1.3,0,2.33,2.33,0,0,0-1.12.7A3.28,3.28,0,0,1,203.05,70Zm15.54-11.76,0,0h0l.21-.06Zm-3.63.14c-.17-.33-.15-.73-.35-1a1.22,1.22,0,0,1-.07-.17c-.16.75-.92.46-1.4.74.2.54.77.79,1.12,1.21.12-.08.24-.17.37-.24h0A.59.59,0,0,1,215,58.41ZM185.85,47a2,2,0,0,1,.47-.79,3.72,3.72,0,0,1-2.12,0c-1.39-.26-.27-1.43-.64-2.09a1.75,1.75,0,0,1-.12-.32,6.67,6.67,0,0,1-1,2.65,1.65,1.65,0,0,1,.33,2,2.63,2.63,0,0,1-.24.44,8.42,8.42,0,0,1,.87,0h.1a2.4,2.4,0,0,1,1.13-2.15,1.59,1.59,0,0,1,.37.06s0,.14,0,.21a4.06,4.06,0,0,1-.07,1.93,1.62,1.62,0,0,1,.78.35A6.22,6.22,0,0,0,185.85,47ZM177.3,28c-.23,1.45-2.27,1.31-3.14,2.21h-.07a1.35,1.35,0,0,1-.33.69.68.68,0,0,0,.47,0c.46-.18.83-.81,1.43-.37.42-.28.53.23.79.38.62-.1.75-.63,1-1.1a.42.42,0,0,1,.18-.5h0c.17-.56.57-1.09.28-1.71A2.51,2.51,0,0,1,177.3,28Zm-27.44,1.82-.2,0a2.64,2.64,0,0,0-.73.11,3.38,3.38,0,0,1,.17.73h0a1.75,1.75,0,0,1,.49,1.26,1.82,1.82,0,0,1,.25-.07,3.94,3.94,0,0,1,.68,0,1.68,1.68,0,0,1,.41-.43l-.07,0-.22-.26A8.7,8.7,0,0,1,149.86,29.81Zm34.3,83.64a.22.22,0,0,0-.07-.09l-.08.13a.71.71,0,0,1,0,.2A.86.86,0,0,0,184.16,113.45ZM212,84.31a3,3,0,0,0-1.49-.51h-.12l0,.08c0,.1.07.2.11.29v0l.12.3h0a1.35,1.35,0,0,0,.48.42.87.87,0,0,0,.37-.29A2.51,2.51,0,0,1,212,84.31Zm6.26-30.2a.75.75,0,0,0-.49,0l-.18.17a15.92,15.92,0,0,1-1.3,4.62l.4.17a3.38,3.38,0,0,0,1.05-1.27,2,2,0,0,1-.12-.37,1.87,1.87,0,0,1,.44-1.26,2.09,2.09,0,0,1,.22-.2A2.77,2.77,0,0,1,218.3,54.11ZM183.72,36.39l-.05,0h0ZM165.6,28.94l-.55.09-.26-.05a.67.67,0,0,1-.14.09l-1.1-.22-.39.54.09.61,0,0a.59.59,0,0,0,.17,0,1.2,1.2,0,0,0,.16.34.89.89,0,0,1,.27.19c.26,0,.54-.29.8-.41a.75.75,0,0,0,.07-.12,1.19,1.19,0,0,1,.76-.4,1,1,0,0,0,.73-.27.88.88,0,0,1-.5-.21A.71.71,0,0,1,165.6,28.94Zm-41.88-3.49a.83.83,0,0,0-.15.11l.06.14h.11A2,2,0,0,0,123.72,25.45ZM58,56.61a1.19,1.19,0,0,1,.44.94.37.37,0,0,1,0,.18h0a1.49,1.49,0,0,0,.14-.12,2.31,2.31,0,0,0,.89-.83L59,55.2l-.13.13a1.49,1.49,0,0,1-.44.28l-.06.21A6.07,6.07,0,0,1,58,56.61Zm38.05,45,0,0v0Zm25,8.17h0Zm75,13.59a.8.8,0,0,1-.15.21.17.17,0,0,0,.16-.21ZM211.2,88.18l.65.26a.7.7,0,0,1,.2-.22,3.23,3.23,0,0,1,0-1.45,1.09,1.09,0,0,1-.26,0Zm8.42-12.92a.49.49,0,0,1-.26-.32c-.34.43-.65.93-1.38.57a1.09,1.09,0,0,1-.39.22c-.63,0-.57.46-.6.84.1.06.21.11.31.18a2.65,2.65,0,0,1,.21.26h.07C217.5,75.73,219.2,76.08,219.62,75.26ZM188.26,44.39a1.4,1.4,0,0,0-.91.79,1.08,1.08,0,0,1-.11.18l0,0a4.2,4.2,0,0,1,1-.74A.44.44,0,0,1,188.26,44.39Zm11.45-15.08a6,6,0,0,1-.44.43l-.36.33a.75.75,0,0,0,.52.11,6.4,6.4,0,0,0,.8-.38,1.08,1.08,0,0,1-.08-.19ZM161.52,26.9a2.91,2.91,0,0,1-.33.37,1.62,1.62,0,0,1-.5.27c-.06,1-.24,1.84-1.48,2a1.55,1.55,0,0,0,0,1l.67.14a1.64,1.64,0,0,1,1.18-1,.71.71,0,0,1-.31-.41C160.74,28.41,161.48,27.76,161.52,26.9Zm62.55,65.54c.07,0,.13,0,.17-.1a.68.68,0,0,1,.44.33.57.57,0,0,1,.18-.12l.08,0,.77-1.06a4.35,4.35,0,0,1-.79-.56,7.22,7.22,0,0,0-.75,1.32l-.17,0C224,92.34,224,92.4,224.07,92.44Zm2.8.15c.31-.28.59-.58.92-.84a6.38,6.38,0,0,1,1.13-1h0c-.34.08-.7.07-1,.13a4.54,4.54,0,0,0-.61.24A2.81,2.81,0,0,1,226.87,92.59Zm7.41-34.78a5,5,0,0,1,.29.5,1,1,0,0,1,.07.15l.68.26.52-.2a1.31,1.31,0,0,1,0-.28c.55-1.19,1-2.37-.19-3.32a1,1,0,0,1-.32.38.33.33,0,0,1-.1,0,3.05,3.05,0,0,1-.13.32c-.49.16,0,.66-.3.88A1.64,1.64,0,0,1,234.28,57.81Zm.8-9.12s0,0-.05,0h0A.1.1,0,0,0,235.08,48.69ZM213.86,33a3.47,3.47,0,0,1-.16-.9c-1.8-1.36,0-2.66.06-4l.47-.63a2.26,2.26,0,0,1-.74-.42,9.32,9.32,0,0,1-.68,1.2,1.72,1.72,0,0,1-.41.48,1.25,1.25,0,0,1-.26.07l-.12.29a1.32,1.32,0,0,1,.12.2,2,2,0,0,1-.45.75,12.46,12.46,0,0,0-.52,2.44A1.2,1.2,0,0,1,212,33c0-.35.38-.45.75-.51A1.76,1.76,0,0,0,213.86,33Zm6.67-5.59a2.78,2.78,0,0,1-.4.16.36.36,0,0,1,.22.24,4.49,4.49,0,0,0,2.34.6c.26-.23.52-.46.79-.68l.24.84c.19.13.46.16.63.32.07-.06.14-.14.22-.2a5.46,5.46,0,0,0,.77-.75,3.19,3.19,0,0,1-.81-.19c-.89-.43-1.6-.92-1.76-1.61a4.37,4.37,0,0,1-.61.31s0,.08,0,.13A1.43,1.43,0,0,1,220.53,27.45Zm-3.18,1.19c-.2-.08-.37-.22-.57-.32C216.85,28.6,217,28.79,217.35,28.64Zm8.05,1.69c.35,0,.71.14.91-.26.11-.23-.26-.24-.44-.4A.57.57,0,0,1,225.4,30.33Zm-1.53-.43s0,0,0,.05l0-.05Zm4.7-2.24h-.35a1,1,0,0,1-.43.3l.11,0c.26,0,.49.55.77,0A1.08,1.08,0,0,0,228.57,27.66Zm-1.22,6.88a1.13,1.13,0,0,1-.48-.78,2.85,2.85,0,0,0-.45-.17l-.54,0c0,.35.07.69.1,1a6.69,6.69,0,0,1,.41.85,5.7,5.7,0,0,1,.76-.2A2.52,2.52,0,0,0,227.35,34.54ZM214.77,21.22a4.58,4.58,0,0,0-.64-.6,1.06,1.06,0,0,1-.12-.1,4.09,4.09,0,0,0-1.06.24c.29.89.12,1.45-.35,1.78a1.31,1.31,0,0,1,.38.09,4.59,4.59,0,0,0,.41.36l.16,0a1.71,1.71,0,0,1,1-.9A1.14,1.14,0,0,1,214.77,21.22Zm-5.45,3.92a.18.18,0,0,1,0-.1l-.89-.1a15.63,15.63,0,0,0,.39,2.11c.13-.16.3-.23.61,0a.93.93,0,0,0,.68.77c0,.08,0,.13-.05.19a1.66,1.66,0,0,1,.33,0l0,.08.33.18,0,.09h0a1,1,0,0,0,0-.1,1.22,1.22,0,0,0,.45-1h0a3.1,3.1,0,0,1-1.25-.53A1.63,1.63,0,0,1,209.32,25.14Zm19.13-2a.91.91,0,0,1-.17-.09l0-.05-.39.11a.85.85,0,0,1-.44.56.73.73,0,0,0,.29-.15C228,23.39,228.2,23.25,228.45,23.12Zm-2-2.37c-.41.24-.76.57-1.19.78a.87.87,0,0,1,.54.46s0,0,0,0l.45-.08C226.3,21.53,226.43,21.15,226.46,20.75Zm-3.39.63a1.19,1.19,0,0,1,.12,1.11,1.32,1.32,0,0,0,.12-1.1Zm-14.37,0a1.14,1.14,0,0,0-.15.54s.08.05.14.07c.46.4.68,1,.35,1.42a2.43,2.43,0,0,0-.24.35l1.16.11a1.89,1.89,0,0,1-.38-.87.86.86,0,0,1,.41-.66,1.15,1.15,0,0,1,1.12.35h0l-.63-1.21A1.61,1.61,0,0,1,208.7,21.34Zm-3.12,9.15a7.55,7.55,0,0,0-.21-.74l-.15,0-.1.7C205.27,30.49,205.43,30.5,205.58,30.49Zm-.71-4,.21-.25a.63.63,0,0,0-.32-.28,1,1,0,0,0-.23.07,3.09,3.09,0,0,0-.45,1.37.92.92,0,0,1,0,.36A7.66,7.66,0,0,1,204.87,26.44Zm-1.67-.09a1.41,1.41,0,0,1-.52-.22l-.12.11c-.23.19-.53.37-.75.56s-.18.34-.27.51.31.4,1,.62c.34-.49.87-.9.75-1.58ZM53.31,51.19l-.51.58A1.8,1.8,0,0,1,53,53a1,1,0,0,1,.3.27,2.89,2.89,0,0,1,.15-1.59c0-.1.05-.2.08-.3ZM58.64,90h0v0Zm161.59.38.05-.07c0-.16,0-.32,0-.47a.85.85,0,0,1,.48-.67c-.33-.23-.63-.51-1-.73a1.11,1.11,0,0,1-.31,1,2.07,2.07,0,0,1-.25.15l.52.72h0Zm10.55-.11a.93.93,0,0,0,.23,0l-.16-.25A.86.86,0,0,0,230.78,90.29Zm5.65,1.62a1.49,1.49,0,0,1-.24-.14,2.64,2.64,0,0,1-.53-.71,2.36,2.36,0,0,0-1.18-1.15h0c-.05.09-.11.18-.16.28l-.6-.52-.58-.11a1.8,1.8,0,0,1-.21-.08,3.48,3.48,0,0,1,.3,1.42c-.78.86-1.56,1.72-.77,3a.22.22,0,0,1,0,.08l.46-.23a5,5,0,0,0,.48.54c.2,0,.39.07.59.08a3,3,0,0,0,1.38.57,6.62,6.62,0,0,1,.26-1C235.89,93.27,235.84,92.43,236.43,91.91Zm4.33-10.27c-.14-.1-.28-.22-.45-.17.08.23.18.44.42.42A.35.35,0,0,1,240.76,81.64Zm-1,1.37h0v0Zm-15.3-12.78a.36.36,0,0,1,0-.1,3.76,3.76,0,0,1,.12-.67,2.2,2.2,0,0,0-.62,0,2.28,2.28,0,0,1-1.58-.87.07.07,0,0,0,0-.05,1.91,1.91,0,0,1-1.5.87.89.89,0,0,0,0,.62,2.08,2.08,0,0,1-.2.36c0,.22,0,.43,0,.65l-.72,1.1c1.1,1.1.79,1.48.19,1.7a1.42,1.42,0,0,1,.19.72c.36.6.79.33,1.22.19,0,0,0,0,0-.08a2,2,0,0,1,.65-.65h0a.87.87,0,0,1-.58-.89,4.32,4.32,0,0,1,.75-1.5A3.83,3.83,0,0,1,224,70.1.45.45,0,0,1,224.45,70.23Zm10.68-21.5a9.53,9.53,0,0,0,1,.44,3,3,0,0,0,.42-.38C236.06,48.75,235.54,49,235.13,48.73Zm-13-.61c-.27-.35-.09-.88-.22-1.29-.86.18-.92.46-.32,1.66l.1-.11A2.43,2.43,0,0,1,222.16,48.12Zm-9-2.74-.13.1.13-.1Zm-7.41,1.42h-.08l0,.08Zm2.54-10h.33c.15-.15.29-.3.44-.44a.62.62,0,0,1,0-.3C208.81,36.34,208.56,36.59,208.3,36.83Zm12.76-16.68h0ZM207.2,29.86c-.27.07-.45.35-.43,1a1.54,1.54,0,0,1,1.2.49,1,1,0,0,1-.21.89s-.1.09-.15.14a1.08,1.08,0,0,0,.95.51l.54-.08.1-.05c.05-.53-.4-1.1.11-1.6h0l.43-.69a1,1,0,0,1-.51-.2c0-.07-.07-.13-.11-.19l-.2,0c-.45.1-1.18-.35-1.66-.28Zm-22.8-4a1.59,1.59,0,0,1-.31.51l0,0,.43.33a.84.84,0,0,1,1,.2c-.13.46-.27.91-.41,1.37a3.17,3.17,0,0,0-.28.34l-.32,0a1,1,0,0,1-.58-.55.91.91,0,0,1-.88-.64s0,0,0,.05a1,1,0,0,1-.46.55l.24,0,.57.74a1.48,1.48,0,0,1,.55.56l.28-.1a.42.42,0,0,1,.43.38l.33.65a.54.54,0,0,1,.76.19,1.07,1.07,0,0,0-.22.73,3.72,3.72,0,0,1,1.09-.46v-.18c.8-.2.83-1,1.14-1.53-.06.53,0,1.08-.07,1.62.12,0,.25,0,.37,0l.94.09a.3.3,0,0,1,0-.1v0a1.34,1.34,0,0,1-.26-.09,1.32,1.32,0,0,1-.19-1.42,1.1,1.1,0,0,1-.51-.09,1.62,1.62,0,0,1-.42-.48,6.07,6.07,0,0,1,.31-3.13,1.47,1.47,0,0,1-1.07-.12l-.08-.06-.1.12a1.34,1.34,0,0,1-1.13-.37A2,2,0,0,1,184.4,25.88ZM97,19.75l0,0v-.05Zm0,0s0,0,0,.06l.06,0ZM84.42,23.26h.06l0,0ZM46.58,50.4l-.08-.1a1.27,1.27,0,0,1-.18.42C46.41,50.62,46.49,50.51,46.58,50.4Zm-2,4.06h0Zm-1.94,7.59L43,62a1.43,1.43,0,0,1,0-.62,1.47,1.47,0,0,0-.3.08Zm3.93,2.37-.08,0,0,.05Zm-.17,16.43a1.19,1.19,0,0,1,.52.69l.51-.89a1.24,1.24,0,0,0-.8.1Zm-1.17,2.52.37-.24C45.4,83.05,45.3,83.18,45.21,83.37Zm7,5.82.16.09.1-.11v0Zm23,13.86a.56.56,0,0,1,.08.27A.23.23,0,0,0,75.18,103.05Zm6.65,16.68h0Zm21.11-18a.24.24,0,0,1,0,.08H103A.27.27,0,0,0,102.94,101.73Zm12,27.25h0Zm106.23-13-.06.11s0,0,0,0c.05.6-.65,1.08-.47,1.7a2.32,2.32,0,0,1,.48-.4l.08-.06C221.22,116.9,221.48,116.41,221.17,116Zm-13.56-2.26-.45.33c0,.26-.11.52-.18.77a1.36,1.36,0,0,0,1,0,.53.53,0,0,1,.39.11c-.07-.45-.14-.91-.73-1A.67.67,0,0,1,207.61,113.72Zm46-31.48h0Zm-4.76,9.92c-.22-.89-.84-1.69-.68-2.68a.54.54,0,0,1-.17-.2C247.8,90.37,247.72,91.42,248.84,92.16Zm-6-46.83,0,0h0Zm-11-3c-1.93-.34-.54-1.64-.59-2.55-.8.24-.92,1.06-1.5,1.43-1.6.93-2.42.24-2.94-1.09a1.34,1.34,0,0,1-.38.58c.92,1,2.22,1.15,3.45,1.48a2.23,2.23,0,0,1,1,1.42c0,.07,0,.13,0,.2.22.33.08.6-.15.86a3,3,0,0,1-.57,1,1.2,1.2,0,0,1-1.76,0l-.08.08c-.15.47-.3.93-.44,1.4-.56-.06-1.13.41-1.66-.08a2.77,2.77,0,0,1,.72-1.75v.16a.43.43,0,0,0,0-.16c.06-.16.13-.31.2-.46l.26-.14a4.54,4.54,0,0,0-1.43-.53,1.19,1.19,0,0,1-.25-.13c0,.15,0,.29,0,.44-.12.54,0,1.48-1,.87s-.58-1.05-.16-1.54a2.92,2.92,0,0,1-.5-.25c.08-.57.16-1.13.23-1.69a.55.55,0,0,1,0-.38l.22-.18.09,0-.16-.12a2.3,2.3,0,0,1,0-1.22c.4-1.24-1.22-1.73-1.08-2.86a.9.9,0,0,1-.16,0,1.09,1.09,0,0,0-.85-.08c-.17.11-.35.22-.52.31a5.88,5.88,0,0,1-.83.68,1.07,1.07,0,0,1-.25,0l-.27.35,0,0a1,1,0,0,1,.19.63,2,2,0,0,1-2.56,1.34c-1.14.48-1.3,2.09-2.65,2.32a.85.85,0,0,1-1-.54c-.13-.56,0-1.12-.08-1.68l0-.27.84-2.06c-.53-.34-1.15,0-1.73.07-.38,1.15-1.4.87-2.54.32a1.1,1.1,0,0,1-.55-1.25c0-.25,0-.51,0-.76-.18.43-.36.85-.53,1.28-.58,1.5-1.29,1.17-2.06.18a.71.71,0,0,1-.34-.54,8.19,8.19,0,0,1-1.87,1.16,2.72,2.72,0,0,1,.6-2.66l0-.56a.81.81,0,0,1-.86.09,1.33,1.33,0,0,1-.38.33A1.65,1.65,0,0,1,205,36a1.38,1.38,0,0,1-.5.32h-.07c-.29.89-.81,1.4-1.73,1.28a1.07,1.07,0,0,1-.14.16A1.18,1.18,0,0,1,202,38l0,0-.18.27c-.68.17-1.17,1.17-1.93.85a.62.62,0,0,1,0,.24c-.12.31-.41.43-.66.16-.1-.11,0-.43,0-.58a.35.35,0,0,1,.18-.13,1.21,1.21,0,0,1-.35-1.44,1.37,1.37,0,0,1-.63.44s0,0,0,0c.12,1.31-.6,1.23-1.3.67s-1.13-.46-1.51.3a2.28,2.28,0,0,1-.48.39,1.86,1.86,0,0,1-2-.12,1.35,1.35,0,0,1-.41.16l0,.05c.4,1.45-.32,2.35-1.51,3a3.38,3.38,0,0,1-.44.18h0a2.33,2.33,0,0,0,1.69.61c.89.17,1.28.9,1.74,1.55a.94.94,0,0,1,.47.91c.37.21.62,0,.84-.23a5.23,5.23,0,0,1,.72-.94c.3-.32.68-.75,1.13-.37s.13.82-.06,1.22l.58.47a2.85,2.85,0,0,1,.65-.26,1.36,1.36,0,0,1,1.12.35.31.31,0,0,1,.11.08,1,1,0,0,0,.19-.18c.69-.86,1.55-.68,2,.46,0,.07.06.15.1.23a1.24,1.24,0,0,1,1.11-1.45c1.12.17,2.54-.44,3.14,1.16h0c.46,0,.92-.08,1.36-.15a17,17,0,0,1,2.93-3.66,1.41,1.41,0,0,1,1.91,0,1.49,1.49,0,0,1,.44.81.91.91,0,0,0,.88.42,2.58,2.58,0,0,1,2.1,1.77,11,11,0,0,1,.87-.94c1.45-.59,2.74-1.68,4.47-1.36,1.63,1,3.37,1.86,2.89,4.25a1.72,1.72,0,0,1-.37.61,1.87,1.87,0,0,1-.29.2l.06.14a27,27,0,0,0,4-.41,1.38,1.38,0,0,1,.4-.61.62.62,0,0,1,.7.49,9.93,9.93,0,0,1,2.18,0l.19.11a16.66,16.66,0,0,0,1.56-1.21l.14-.15a1.51,1.51,0,0,1-.53-.31,1.14,1.14,0,0,1-.19-1.38l.17-.25.44-.27a1.57,1.57,0,0,0-.19-.12.79.79,0,0,1-.71-.13A1.13,1.13,0,0,1,231.89,42.3ZM230,21.19a.93.93,0,0,1-.52-.21c0,.17.06.34.08.5A3.35,3.35,0,0,1,230,21.19Zm-30.48,4.16c-1.06.06-2.14,1-3.17.13a.25.25,0,0,1-.12,0,3.83,3.83,0,0,0-.39,2,1.81,1.81,0,0,1,.84,1l.29.05a3.09,3.09,0,0,1,.78-1,4.1,4.1,0,0,0,1.47-1.77A1.85,1.85,0,0,1,199.54,25.35Zm-8-4.66a1.41,1.41,0,0,1-.11.46,2.09,2.09,0,0,0,.26-.49l-.13,0Zm-41.36,4.63-.36.07a3.25,3.25,0,0,1-.32.53,1.23,1.23,0,0,1-.38.3,1,1,0,0,0,.22.4h.11l.21,0A8.12,8.12,0,0,0,150.13,25.32ZM53.69,49.44ZM38.12,53.68h0Zm-19,.79a2.62,2.62,0,0,0-.87.16,1,1,0,0,1,.34.54A1,1,0,0,1,19.12,54.47Zm20.22,5.58a2.17,2.17,0,0,1-.6.4.47.47,0,0,1,.18.25A4.82,4.82,0,0,1,39.34,60.05Zm-.21,14.33-.13.08a.62.62,0,0,1,.09.12C39.11,74.51,39.11,74.45,39.13,74.38Zm5.61,11.51a5.69,5.69,0,0,0,1.2.62,2.12,2.12,0,0,1,.23-1.32,1.43,1.43,0,0,1-1.12-.75,1.26,1.26,0,0,1-.12-.5l-.06,0a4.61,4.61,0,0,0-1.56,1.31A2.38,2.38,0,0,1,44.74,85.89Zm21.43,4a4.22,4.22,0,0,0,1.53-1.64c-.26.1-.52.22-.78.35a1.58,1.58,0,0,1-1.15,0C65.86,89,65.6,89.57,66.17,89.85Zm4.85.21c-.74-.12-.45-.73-.5-1.18l0,0a1.77,1.77,0,0,0-1.06.1,3,3,0,0,0-.73,1.12c.73,0,1.46.06,2.2.12C71,90.39,71.09,90.07,71,90.06Zm2.16-2.52h0l-1.88,0a1.61,1.61,0,0,0,.21.3c0,.07,0,.13,0,.19A1.49,1.49,0,0,0,72.59,88C72.83,87.78,73.11,87.72,73.18,87.54Zm.65,19.38Zm2.07,6.31a.75.75,0,0,0-.43-.31,6.19,6.19,0,0,1-.33.54C75.39,113.38,75.64,113.29,75.9,113.23Zm1.95-4.91h0s0,0,0,0Zm.23,8.44-.16,0,.11.06ZM204.83,131.5a0,0,0,0,0,0,0c-.68-.34-1.68-.38-1.46-1.56a2.61,2.61,0,0,0-1.43-1.12h0c-.07.14-.13.29-.19.43h0c-.63,0-.78.44-1,.89-.72.56-.79-.11-1-.52v-.22l-.21-.09a1,1,0,0,1-.57-.09,4.62,4.62,0,0,1-1.14.23l-.22.07c-.11.11-.33.27-.36.23a2.29,2.29,0,0,0-.27-.27c-.44,0-.89,0-1.33,0l-.54.44a1.59,1.59,0,0,0,.18.27s0,0,0,0h0v0c.33.07.66.12,1,.16a1,1,0,0,1,1.17.08,15.28,15.28,0,0,1,5,.7C203.27,131.16,204,131.43,204.83,131.5Zm5-8a1.1,1.1,0,0,1,.45-.71,1.55,1.55,0,0,1-.86-1.31l-.36-.23c-.13-.23-.37-.46-.3-.72a1.51,1.51,0,0,0-.56.41,2.74,2.74,0,0,0-.15.4c-.35.44-.23,1.41-1,1.29-.62-.09-.38-.87-.49-1.36-.86-.48-1.09.65-1.75.69-.8-.76.58-1.89-.45-2.62h0l-.41-.16-.18.44-.78.67a2,2,0,0,1-1.79.78l0-.06c-.48-.17-1-.46-1.47-.1h0a2.33,2.33,0,0,0-.34,1.09l0,0,1.16-.14a.7.7,0,0,1,.22-.39,3.52,3.52,0,0,1,2.43.21c1.64.49,3.19,1.29,4.87,1.69q.6.14.6.36a2,2,0,0,1,.35.07C209.4,124,209.9,124.46,209.81,123.45Zm12.79-3.22a1.22,1.22,0,0,1-.36-.32.56.56,0,0,0,0-.12h0a.44.44,0,0,1-.16.4l-.65.19.15,0C222,120.69,222.27,120.45,222.6,120.23Zm4.43-.78a1.36,1.36,0,0,1-.11-.28c0-.1,0-.2,0-.3a1.39,1.39,0,0,0-.9-.33,1.39,1.39,0,0,1-.23.31,1.31,1.31,0,0,1-.44.26c.36.16.81.21,1,.57A1,1,0,0,1,227,119.45Zm9-2v0h0ZM251,112.6h0c-.06.17-.13.34-.19.5a.43.43,0,0,0,0,.07,1.21,1.21,0,0,1,0,.18,1,1,0,0,1,.91,0,1,1,0,0,1,.1-.11,1,1,0,0,1,.23-.07C251.7,113.05,251.25,113,251,112.6Zm-7.93,7.14-.11-.17a.93.93,0,0,1,.48-1A.79.79,0,0,1,243,118a1.25,1.25,0,0,0-.31-.52c0,.75-.31,1.47-.28,2.22A2.15,2.15,0,0,1,243.07,119.74Zm5.89-1-.05,0,0,0S249,118.78,249,118.77Zm-11.07-4.32a3.28,3.28,0,0,1-.27,1l.94,0a1,1,0,0,1,.29-.25A4.39,4.39,0,0,0,237.89,114.45Zm9.7,7.9.56-.23a.67.67,0,0,1-.42-.26A.68.68,0,0,1,247.59,122.35Zm12.81-4.47.11-.06a6,6,0,0,1,1.29-.57.84.84,0,0,1-.5-.32.92.92,0,0,1-.82.73.23.23,0,0,1-.09.21Zm-18.87-6.65h0ZM239,119.4a4.13,4.13,0,0,0-.26-1.09.88.88,0,0,1-.26.61A.66.66,0,0,1,239,119.4Zm0,1c0-.2,0-.4,0-.6A3,3,0,0,0,239,120.4Zm.11.29a2.56,2.56,0,0,0-.11-.24A.66.66,0,0,0,239.15,120.69Zm11.76,2.23.2.1,0,0c.61-.24,1.21-.77,1.82-.24-.13-.6-.73-.36-1.15-.45a4.37,4.37,0,0,0-1-.34c-.43.08-.8.33-1.22.43C249.91,122.74,250.56,122.53,250.91,122.92Zm21.79-4.2a.57.57,0,0,1,.08-.13c-.34-.32-.7-.8-.88.27a1.5,1.5,0,0,1-.68.64.67.67,0,0,1-.17-.08h0a.87.87,0,0,1,.26.48,8.49,8.49,0,0,0,.11,1c1.07-.06,1.17-1,1.21-1.88C272.65,118.92,272.68,118.82,272.7,118.72Zm-35.8-6.94c0,.56-.41.76-.9.85h0c-.08.23-.17.45-.25.67s-.1.27-.14.4a3.75,3.75,0,0,1,.36.24v.11c.71-.15.76-1,1.29-1.38v-.1a.36.36,0,0,0,0-.1c-.16-.11-.18-.28,0-.51l.41-.95a3.12,3.12,0,0,0,.14-.74.72.72,0,0,1,.23-.31,1.45,1.45,0,0,1-.26-.78h0l-.28-.11h0C237.7,110.05,235.53,110.51,236.9,111.78ZM230.26,114a.75.75,0,0,1,.33-.3,1.06,1.06,0,0,1-.13-.22c0-1.18,1.08-2,1.13-3.14h0v0C231,111.56,230.18,112.66,230.26,114Zm-20-4.51c-.77.22-.73,1.21-1.11,1.8,0-.11,0-.22-.07-.32a.46.46,0,0,0,.07.32h0c0,.42.24.61.55.78a.44.44,0,0,1,.1-.16c.55-.3,1.07-.39,1.44.27.49.2,1,.4,1,.91l0,0a3.35,3.35,0,0,1,.39-.59c.94-.57,1.28-1.72,2.22-2.28a.51.51,0,0,1-.45-.28,1.5,1.5,0,0,1-.76,0,1.15,1.15,0,0,1-.49-.41s0-.08,0-.13c-.59-.12-1,.39-1.54.49a1.34,1.34,0,0,1-.94-.13A1.93,1.93,0,0,0,210.25,109.49Zm20-11.92,0,0a4.93,4.93,0,0,1-.3-.66h0c.09.23.19.45.28.68Zm17.13,1c.2-.47.45-1.15,1-.89s.52.94.15,1.49c0,0,0,0,0,.07.4-.49.45-1.17.82-1.68,1.37-.88.62-2.22.71-3.38a.44.44,0,0,1-.6,0l-.17-.29c-.55-.36-1-.09-1.38.54a13.25,13.25,0,0,0-4.1-.59l-.11-.1a.8.8,0,0,1-.54.27c-1.69.93-2.16.92-2.62-.27l0,0c-.44.12-.94.6-1.29.11v0c.14.6-.14.84-.72.83a1.7,1.7,0,0,1-.61-.84,4,4,0,0,0-.3,1,1.48,1.48,0,0,1,.91,0c1.55,0,3.15-.29,4.56.67,2-.43,2.57.29,1.59,2.13-.06.14-.11.28-.17.43.75.34,1.62.62,1.1,1.74-.14.31-.12.49,0,.61a4.34,4.34,0,0,0,.69-.17C247,99.83,247.14,99.15,247.4,98.54Zm6.33,5.32a2.57,2.57,0,0,1-.62-1c-.29-.77-1.17-.61-1.84-.83a.4.4,0,0,1,0,.19.69.69,0,0,1,.4,0c.51.21.41,1.21,1.27,1C253.07,103.46,253.41,103.65,253.73,103.86ZM241.47,30.2h0a.85.85,0,0,0,.29.4c.18.11.19.07,0-.05A.93.93,0,0,1,241.47,30.2Zm-44.53-9.73a3.8,3.8,0,0,1-1.2-.5.41.41,0,0,0-.05.09l-.15.25a8.34,8.34,0,0,1-1.25,1.59,5.71,5.71,0,0,0-.9.87c.15,0,.27.14.38.33l.24,0a.93.93,0,0,1,1.25.3l.89.6,0,.05A3.54,3.54,0,0,1,199,21.89a2.12,2.12,0,0,1,1,0,1,1,0,0,0,1,.44s0-.08,0-.13a3.79,3.79,0,0,1,.08-2.11c0-.1,0-.19.07-.29a2.1,2.1,0,0,1-1.65.8,5.46,5.46,0,0,1-2.12-.3h0c0-.1,0-.17,0-.25A.93.93,0,0,0,196.94,20.47Zm-33.7-.32-.16-.07-.31.45h0c0,.51,0,1,0,1.52a1.86,1.86,0,0,1,.79-.17,6,6,0,0,1,1.26.27.61.61,0,0,1-.12-.16l-.25-.18C163.85,21.39,163.66,20.68,163.24,20.15Zm-17.64.38h0Zm-83,6.82a1.51,1.51,0,0,0,.28,0,.76.76,0,0,0-.24-.18S62.65,27.3,62.64,27.35Zm-4.54.07h0l.15-.32a3.68,3.68,0,0,1-.69.12l.54.2ZM37.85,52a.4.4,0,0,0-.15-.24.55.55,0,0,1-.24.18A.89.89,0,0,0,37.85,52Zm-22,3.85c-.22-.13-.22-.3,0-.5a1.44,1.44,0,0,0-.9.41h0A.27.27,0,0,1,15,56C15.3,55.91,15.6,55.82,15.9,55.8Zm13.23,1.29a.53.53,0,0,1-.25-.17.93.93,0,0,1-.71.4h0A1,1,0,0,0,29.13,57.09Zm3,21.78a1.24,1.24,0,0,1-.09.38C32.17,79.13,32.23,79,32.15,78.87Zm-2.6-10.13c-.4.81-.81,1.61-1.21,2.41C29.77,71.09,30.13,70.36,29.55,68.74Zm-2.14,2.89c-.83,0-1,.72-1.45,1.21l1.38.45A1.4,1.4,0,0,0,27.41,71.63Zm98.25-26.34h0v0Z"/></g></g></svg>